<?xml version="1.0" standalone="no"?>
<!DOCTYPE svg PUBLIC "-//W3C//DTD SVG 1.1//EN" "http://www.w3.org/Graphics/SVG/1.1/DTD/svg11.dtd" >
<svg xmlns="http://www.w3.org/2000/svg" xmlns:xlink="http://www.w3.org/1999/xlink" version="1.1">
<metadata></metadata>
<defs>
<font id="aaux_nexthairline" horiz-adv-x="995" >
<font-face units-per-em="2048" ascent="1638" descent="-410" />
<missing-glyph horiz-adv-x="546" />
<glyph unicode="&#xfb01;" horiz-adv-x="976" d="M102 942v33h119v49q0 40 1 64.5t7 69.5t17.5 75t34.5 67.5t56 61.5t84.5 43t117.5 25v-33q-161 -13 -225 -105t-64 -264v-53h543v-975h-33v942h-510v-942h-29v942h-119zM721 1368q0 23 16 39t41 16q24 0 41 -16t17 -39q0 -24 -17 -41.5t-41 -17.5q-25 0 -41 17t-16 42z " />
<glyph unicode="&#xfb02;" horiz-adv-x="976" d="M102 942v33h119v49q0 30 0.5 50t3.5 55.5t8.5 60.5t16.5 58.5t26.5 57t40 48.5t55 40.5t73.5 25.5t94 10h215v-1227q0 -63 34.5 -110.5t116.5 -57.5v-33q-94 9 -138 63t-44 138v1194h-184q-83 0 -140.5 -27t-89.5 -78.5t-45.5 -115.5t-13.5 -148v-53h250v-33h-250v-942 h-29v942h-119z" />
<glyph unicode="&#xfb03;" horiz-adv-x="1513" d="M102 942v33h119v49q0 40 1 64.5t7 69.5t17.5 75t34.5 67.5t56 61.5t84.5 43t117.5 25v-33q-161 -13 -225 -105t-64 -264v-53h506v49q0 31 0.5 49t3 53t8 57.5t16.5 55.5t26.5 55.5t39.5 48t55 41.5t74 29t94 17v-33q-160 -13 -223.5 -105t-63.5 -264v-53h543v-975h-35 v942h-508v-942h-30v942h-506v-942h-29v942h-119zM1257 1368q0 23 16.5 39t39.5 16q25 0 42 -16t17 -39q0 -25 -17 -42t-42 -17q-23 0 -39.5 17t-16.5 42z" />
<glyph unicode="&#xfb04;" horiz-adv-x="1513" d="M102 942v33h119v49q0 40 1 64.5t7 69.5t17.5 75t34.5 67.5t56 61.5t84.5 43t117.5 25v-33q-161 -13 -225 -105t-64 -264v-53h506v49q0 40 1 65.5t7 73t17.5 79t35 70.5t56 62t84 39.5t116.5 16.5h217v-1227q0 -63 34 -110.5t118 -57.5v-33q-95 9 -140 63t-45 138v1194 h-184q-82 0 -139.5 -27t-89 -78.5t-45 -115.5t-13.5 -148v-53h248v-33h-248v-942h-30v942h-506v-942h-29v942h-119z" />
<glyph horiz-adv-x="0" />
<glyph horiz-adv-x="682" />
<glyph unicode=" "  horiz-adv-x="546" />
<glyph unicode="&#x09;" horiz-adv-x="546" />
<glyph unicode="&#xa0;" horiz-adv-x="546" />
<glyph unicode="!" horiz-adv-x="563" d="M225 41q0 23 16.5 40t41.5 17q23 0 39 -17t16 -40q0 -25 -16 -41t-39 -16q-25 0 -41.5 16t-16.5 41zM246 727v703h69v-703l-28 -367h-8z" />
<glyph unicode="&#x22;" horiz-adv-x="679" d="M145 1124v328q0 18 12.5 30.5t30.5 12.5q17 0 29 -13t12 -30v-328h-84zM451 1124v328q0 17 12 30t29 13t30 -13t13 -30v-328h-84z" />
<glyph unicode="#" horiz-adv-x="1411" d="M121 457l8 35h268l97 446h-271l6 35h273l96 457h35l-96 -457h448l96 457h35l-96 -457h270l-8 -35h-272l-95 -446h271l-6 -35h-271l-98 -457h-35l98 457h-448l-98 -457h-33l96 457h-270zM432 492h451l94 446h-449z" />
<glyph unicode="$" horiz-adv-x="1024" d="M102 403l33 3q22 -83 80.5 -138t129.5 -78.5t159 -27.5v590q-39 9 -60.5 14t-56.5 15t-56 18t-49.5 21.5t-45.5 27t-36 33t-29 41.5t-17 50t-7 60q0 72 31 128.5t83 89t113.5 48.5t129.5 15v117h41v-119q228 -16 327 -191l-30 -10q-91 155 -297 168v-502q53 -12 83.5 -20 t77 -23.5t74 -30.5t60 -39.5t50.5 -52.5t30 -68t12 -87q0 -77 -33 -140t-88.5 -102t-123.5 -60.5t-142 -23.5v-129h-41v131q-70 2 -131.5 18t-116.5 47t-95.5 83.5t-58.5 123.5zM176 1032q0 -35 10 -64t24 -50.5t41 -40.5t50 -31t62.5 -25t66.5 -20t74 -19v498 q-61 1 -117 -12.5t-104.5 -41.5t-77.5 -78t-29 -116zM545 160q68 3 129.5 22.5t113 54.5t82.5 92t31 128q0 41 -10.5 75.5t-27 60t-45.5 47t-55 36t-67.5 28.5t-72 22t-78.5 19v-585z" />
<glyph unicode="%" horiz-adv-x="1603" d="M121 1061q0 78 14.5 144t45.5 123t87 89.5t133 32.5t133.5 -32.5t87.5 -89t45.5 -123t14.5 -144.5t-14.5 -144.5t-45.5 -123t-87.5 -89t-133.5 -32.5t-133 32.5t-87 89t-45.5 123t-14.5 144.5zM152 1061q0 -40 3.5 -77t12.5 -80.5t27.5 -79t44.5 -65.5t67.5 -46.5 t93.5 -16.5q62 0 108.5 25t72 62t41.5 88.5t21 96t5 93.5t-5 93t-21 95.5t-41.5 88t-72 61t-108.5 24.5q-52 0 -93.5 -16.5t-67.5 -46t-44.5 -64.5t-27.5 -78t-12.5 -80t-3.5 -77zM477 0l617 1430h34l-618 -1430h-33zM922 369q0 78 14.5 144.5t45.5 123t87 89t133 32.5 t133.5 -32.5t87.5 -89t45.5 -123t14.5 -144.5t-14.5 -144.5t-45.5 -123t-87.5 -89t-133.5 -32.5t-133 32.5t-87 89t-45.5 123t-14.5 144.5zM954 369q0 -49 5 -93t21 -95t41.5 -87.5t72 -61t108.5 -24.5t109 24.5t73 61t42 87.5t21 95t5 93t-5 93t-21 95.5t-42 88t-73 61 t-109 24.5t-108.5 -24.5t-72 -61t-41.5 -88t-21 -95.5t-5 -93z" />
<glyph unicode="&#x26;" horiz-adv-x="1316" d="M98 352q0 155 76 255.5t246 197.5q-75 110 -115.5 200t-40.5 175q0 115 72 189.5t188 74.5q115 0 179.5 -68.5t64.5 -183.5q0 -66 -20.5 -121t-64 -103t-92.5 -86t-124 -85q237 -326 512 -580q111 179 121 397h35q-7 -234 -127 -421q124 -107 188 -156l-12 -33 q-86 61 -195 156q-175 -180 -450 -180q-122 0 -220 40.5t-159.5 126.5t-61.5 205zM133 348q0 -81 35.5 -147t93.5 -107t128.5 -62.5t144.5 -21.5q250 0 426 176q-281 261 -525 594q-64 -39 -106 -69t-83 -69t-63.5 -79.5t-36.5 -94.5t-14 -120zM301 1180q0 -152 152 -361 q52 34 86 58t75 61.5t64.5 72t40 81t16.5 98.5q0 99 -55 158t-156 59q-102 0 -162.5 -63.5t-60.5 -163.5z" />
<glyph unicode="'" horiz-adv-x="415" d="M164 1124v328q0 17 12 30t29 13t30 -13t13 -30v-328h-84z" />
<glyph unicode="(" horiz-adv-x="630" d="M170 715q0 193 85 388.5t230 326.5h43q-140 -126 -228.5 -328.5t-88.5 -386.5t88.5 -387.5t228.5 -327.5h-43q-146 133 -230.5 327.5t-84.5 387.5z" />
<glyph unicode=")" horiz-adv-x="630" d="M170 0q140 124 228.5 327.5t88.5 387.5t-88.5 386.5t-228.5 328.5h43q145 -131 230 -326.5t85 -388.5t-84.5 -387.5t-230.5 -327.5h-43z" />
<glyph unicode="*" horiz-adv-x="851" d="M98 1171l15 41l303 -108l-10 321h40l-8 -321l303 108l13 -41l-308 -90l197 -258l-37 -22l-180 266l-180 -266l-35 22l197 258z" />
<glyph unicode="+" d="M92 543v37h385v387h41v-387h385v-37h-385v-389h-41v389h-385z" />
<glyph unicode="," horiz-adv-x="270" d="M94 45q0 21 12 37t27 16q23 0 36 -15t13 -38v-47l-86 -199h-2v246z" />
<glyph unicode="-" horiz-adv-x="786" d="M135 541v43h518v-43h-518z" />
<glyph unicode="." horiz-adv-x="423" d="M156 47q0 23 16 40t39 17q25 0 42 -17t17 -40q0 -25 -17 -41t-42 -16q-23 0 -39 16t-16 41z" />
<glyph unicode="/" horiz-adv-x="815" d="M59 -156l656 1741h45l-660 -1741h-41z" />
<glyph unicode="0" horiz-adv-x="1128" d="M102 715q0 73 5.5 141.5t20 142.5t37 137t59 120t83.5 97t113 63.5t145 23.5q78 0 144 -23.5t112.5 -64t83 -98t59 -120t37 -136.5t20 -142t5.5 -141q0 -104 -11.5 -199t-43 -194.5t-81 -171.5t-133 -118t-192.5 -46q-79 0 -145 24t-113 64.5t-83.5 98.5t-59 121.5 t-37 137.5t-20 142.5t-5.5 140.5zM133 715q0 -61 3.5 -118.5t15 -130t30.5 -134t52.5 -122t77.5 -103t109 -69t144 -26.5t144 26.5t109 69t77.5 103t52.5 122t30.5 134t15 130t3.5 118.5t-3.5 119t-15.5 130t-31 133t-52.5 121t-77 101.5t-108.5 67.5t-144 26t-144 -26 t-109 -68t-77.5 -102t-52.5 -121t-30.5 -133t-15 -129.5t-3.5 -118.5z" />
<glyph unicode="1" horiz-adv-x="710" d="M111 1204l288 226h39v-1430h-37v1386l-270 -202z" />
<glyph unicode="2" horiz-adv-x="1124" d="M123 0v41q34 109 83.5 201.5t103.5 156.5t114.5 118.5t119.5 95.5t115 80t103.5 78.5t83.5 84t56 103.5t20 131q0 105 -55.5 181t-141.5 111t-190 35q-112 0 -205 -47.5t-148 -144.5l-30 12q62 103 161.5 156t221.5 53q184 0 301.5 -95t117.5 -264q0 -92 -34.5 -166.5 t-93 -130t-130.5 -107t-151.5 -112t-151.5 -130t-135 -175.5t-98 -235h839v-31h-876z" />
<glyph unicode="3" horiz-adv-x="1034" d="M113 223l30 6q45 -106 143.5 -160.5t219.5 -54.5q164 0 277.5 101t113.5 264q0 169 -106 261t-279 97v23q159 5 254.5 87t95.5 238q0 95 -53 174t-137 121.5t-178 42.5q-107 0 -201 -54t-139 -148l-29 6q51 104 152 161.5t221 57.5q166 0 280.5 -99t114.5 -262 q0 -130 -66 -216t-192 -121q142 -38 219.5 -131t77.5 -238q0 -182 -121.5 -287.5t-304.5 -105.5q-136 0 -240 58t-153 179z" />
<glyph unicode="4" horiz-adv-x="1105" d="M96 397v54l633 979h35l-645 -1000h700v647l31 -8v-639h151v-33h-151v-397h-31v397h-723z" />
<glyph unicode="5" horiz-adv-x="1077" d="M135 213l29 10q44 -103 140 -156t214 -53q203 0 312.5 125.5t109.5 323.5q0 94 -26 174t-76 141t-130 96t-182 35q-85 0 -166.5 -30t-144.5 -84h-45v635h704v-27h-679v-592q91 72 167.5 99.5t159.5 27.5q216 0 333.5 -130t117.5 -345q0 -214 -121.5 -345.5t-335.5 -131.5 q-131 0 -234.5 59t-146.5 168z" />
<glyph unicode="6" horiz-adv-x="1095" d="M96 465q0 276 149 538t382 427h45q-442 -310 -547 -855q135 283 428 283q193 0 315.5 -127t122.5 -321q0 -181 -128 -301.5t-310 -120.5q-206 0 -331.5 135.5t-125.5 341.5zM135 420q0 -110 59 -204.5t156 -149t205 -54.5q170 0 288 115t118 283q0 179 -113.5 299 t-292.5 120q-108 0 -205 -54.5t-156 -149.5t-59 -205z" />
<glyph unicode="7" horiz-adv-x="1003" d="M84 1274v156h836v-35q-83 -98 -148.5 -189t-139 -226t-121.5 -273.5t-78 -323t-27 -383.5h-46q-1 200 29 382.5t77 321t118.5 272t139.5 227.5t155 196h-758v-125h-37z" />
<glyph unicode="8" horiz-adv-x="1081" d="M104 379q0 286 289 366q-66 20 -116 58t-78.5 85t-42 95.5t-13.5 97.5q0 162 113.5 261.5t284.5 99.5q169 0 282 -99.5t113 -261.5q0 -50 -12 -95.5t-39 -92t-78.5 -85.5t-122.5 -63q293 -79 293 -366q0 -177 -125 -285t-311 -108q-189 0 -313 107.5t-124 285.5zM139 379 q0 -109 56 -193.5t147 -128t199 -43.5q106 0 197 43.5t147.5 127.5t56.5 192q0 171 -112.5 262.5t-288.5 91.5q-116 0 -204.5 -36.5t-143 -117.5t-54.5 -198zM176 1083q0 -156 103 -240.5t262 -84.5q160 0 260 83.5t100 241.5q0 145 -107 237.5t-253 92.5q-147 0 -256 -93 t-109 -237z" />
<glyph unicode="9" horiz-adv-x="1056" d="M94 1022q0 172 124 297t298 125q136 0 237 -65t151 -172.5t50 -241.5q0 -262 -142.5 -526.5t-387.5 -438.5h-39q99 74 179.5 153.5t155.5 184t127 236t75 282.5q-135 -256 -404 -256q-181 0 -302.5 122t-121.5 300zM121 1020q0 -158 116.5 -275.5t280.5 -117.5 q172 0 287 113t115 280q0 161 -118.5 279t-283.5 118t-281 -118.5t-116 -278.5z" />
<glyph unicode=":" horiz-adv-x="423" d="M156 41q0 23 16 40t39 17q25 0 42 -17t17 -40q0 -25 -17 -41t-42 -16q-23 0 -39 16t-16 41zM156 709q0 25 16 42t39 17q25 0 42 -17t17 -42q0 -23 -17 -39.5t-42 -16.5q-23 0 -39 16.5t-16 39.5z" />
<glyph unicode=";" horiz-adv-x="294" d="M94 45q0 21 12 37t27 16q23 0 36 -15t13 -38v-47l-86 -199h-2v246zM94 709q0 25 13 42t32 17t31 -17t12 -42q0 -24 -12 -40t-31 -16t-32 16.5t-13 39.5z" />
<glyph unicode="&#x3c;" horiz-adv-x="894" d="M111 715l608 715h41l-604 -715l604 -715h-41z" />
<glyph unicode="=" horiz-adv-x="1038" d="M113 260v39h813v-39h-813zM113 717v39h813v-39h-813z" />
<glyph unicode="&#x3e;" horiz-adv-x="894" d="M133 0l606 715l-606 715h43l606 -715l-606 -715h-43z" />
<glyph unicode="?" horiz-adv-x="942" d="M57 1128q12 140 130 229t278 89q168 0 283.5 -100t115.5 -259q0 -47 -10 -85t-23.5 -62t-39.5 -47t-45.5 -35.5t-53.5 -30.5q-116 -64 -165.5 -133.5t-53.5 -181.5l-8 -145h-6q-10 97 -10 145q0 67 13.5 118t40.5 86.5t53 57.5t65 45q96 56 124 80q78 65 82 175v13 q0 101 -51.5 175.5t-132.5 110.5t-178 36q-89 0 -170 -31.5t-139 -97t-66 -152.5h-33zM408 41q0 25 16.5 42t42.5 17q23 0 40 -17t17 -42q0 -24 -16.5 -40.5t-40.5 -16.5q-26 0 -42.5 16t-16.5 41z" />
<glyph unicode="@" horiz-adv-x="1421" d="M123 467q0 96 24.5 204.5t69 216t111.5 206.5t146 174.5t179.5 120.5t206.5 45q89 0 162.5 -35t122.5 -93.5t83 -136.5t49 -162t15 -173q0 -52 -21.5 -155t-21.5 -110l-37 -569l-38 4l20 336q-30 -73 -70 -134.5t-93 -115.5t-122.5 -84.5t-146.5 -30.5q-69 0 -124 33 t-86.5 87t-48 116t-16.5 127q0 75 21 161.5t63 171t97.5 153t131.5 111t158 42.5q110 0 180 -81.5t105 -209.5q11 63 12.5 130.5t-7.5 136.5t-28 133.5t-52.5 120.5t-77 98t-104 66t-132.5 24q-99 0 -193 -44t-168.5 -117t-137 -168.5t-104 -198.5t-64.5 -206t-23 -192 q0 -141 52 -267t157 -202l-21 -35q-114 75 -171.5 213t-57.5 289zM530 340q0 -56 12.5 -110.5t38.5 -104t73 -79.5t108 -30q74 0 143.5 39t121.5 101.5t92 138.5t60.5 152.5t20.5 140.5q0 53 -15 111.5t-42.5 112t-75.5 88t-106 34.5q-75 0 -145 -40t-120.5 -105t-89 -143.5 t-57.5 -158t-19 -147.5z" />
<glyph unicode="A" horiz-adv-x="1255" d="M37 0l559 1430h63l560 -1430h-33l-185 463h-749l-182 -463h-33zM266 494h723l-362 925z" />
<glyph unicode="B" horiz-adv-x="1236" d="M156 0v1430h473q100 0 180.5 -19t143.5 -60t97.5 -112t34.5 -168q0 -51 -13 -100t-41.5 -97.5t-82.5 -85.5t-127 -55q86 -15 150 -51t100.5 -86.5t54 -106t17.5 -116.5q0 -102 -36 -175.5t-101.5 -116t-148.5 -62t-187 -19.5h-514zM188 33h482q440 0 440 340 q0 342 -440 342h-482v-682zM188 748h457q70 0 127 8t111 30t90 57.5t58 93.5t22 134q0 326 -424 326h-441v-649z" />
<glyph unicode="C" horiz-adv-x="1165" d="M94 715q0 118 16.5 221.5t57 199t103 163.5t159.5 108.5t221 40.5q131 0 224 -48.5t182 -152.5l-27 -18q-82 96 -168 141t-211 45q-123 0 -217.5 -42.5t-151.5 -109.5t-93 -161.5t-49 -187.5t-13 -199q0 -74 6.5 -142t23 -139.5t42.5 -132t67 -115t94.5 -92.5t127.5 -60 t163 -22q124 0 209.5 45.5t169.5 141.5l27 -19q-90 -102 -183.5 -151t-222.5 -49q-124 0 -221 40.5t-159.5 109t-103 164.5t-57 199.5t-16.5 221.5z" />
<glyph unicode="D" horiz-adv-x="1271" d="M156 0v1430h411q122 0 213 -17.5t153 -42t103 -79.5t63 -100t33 -135.5t13 -154t2 -186.5q0 -95 -1 -146t-6 -127.5t-16 -116.5t-30.5 -95t-49 -83.5t-72.5 -61.5t-100.5 -48.5t-133.5 -26t-171 -10.5h-411zM188 35h373q200 0 315 41.5t171 132.5q19 32 32.5 77t20.5 80 t10 97q4 63 4 87v35v57v74v72v57v35q0 24 -3.5 86.5t-10.5 98t-20.5 81t-32.5 77.5q-56 91 -171 132.5t-315 41.5h-373v-1362z" />
<glyph unicode="E" horiz-adv-x="1136" d="M156 0v1430h878v-33h-846v-639h740v-29h-740v-696h846v-33h-878z" />
<glyph unicode="F" horiz-adv-x="1095" d="M156 0v1430h858v-33h-826v-639h740v-27h-740v-731h-32z" />
<glyph unicode="G" horiz-adv-x="1261" d="M94 715q0 115 18.5 219t61.5 199t106.5 164t160 110t216.5 41q131 0 224 -48t184 -151l-27 -18q-83 94 -169 138t-212 44q-122 0 -216.5 -42t-152.5 -109t-95.5 -160.5t-51.5 -187.5t-14 -199q0 -84 10 -162.5t32.5 -159.5t62.5 -147t95.5 -118.5t137.5 -82t182 -29.5 q89 0 160 25.5t118.5 73.5t80.5 108t51 137.5t25.5 153t7.5 162.5h-398v37h432v-713h-39v311q-58 -180 -164 -254.5t-274 -74.5q-101 0 -185 28.5t-143.5 80t-103.5 119.5t-70 151.5t-38.5 171t-12.5 182.5z" />
<glyph unicode="H" horiz-adv-x="1312" d="M156 0v1430h32v-672h936v672h33v-1430h-33v729h-936v-729h-32z" />
<glyph unicode="I" horiz-adv-x="440" d="M203 0v1430h33v-1430h-33z" />
<glyph unicode="J" horiz-adv-x="1056" d="M70 233l32 9q42 -114 142.5 -168t232.5 -54q209 0 306.5 97t97.5 301v1012h32v-1014q0 -215 -107.5 -322.5t-328.5 -107.5q-146 0 -255 62.5t-152 184.5z" />
<glyph unicode="K" horiz-adv-x="1050" d="M156 0v1430h32v-1430h-32zM195 715l677 715h43l-677 -711l731 -719h-45z" />
<glyph unicode="L" horiz-adv-x="997" d="M156 0v1430h32v-1397h762v-33h-794z" />
<glyph unicode="M" horiz-adv-x="1460" d="M158 0v1430h43l530 -1424l529 1424h45v-1430h-33v1372l-510 -1372h-66l-506 1368v-1368h-32z" />
<glyph unicode="N" horiz-adv-x="1263" d="M156 0v1430h61l858 -1407v1407h33v-1430h-59l-861 1407v-1407h-32z" />
<glyph unicode="O" horiz-adv-x="1296" d="M94 715q0 117 16.5 220t57 199t102.5 164t159 109t220 41t219.5 -40.5t158.5 -109t102.5 -164t57.5 -198.5t17 -221q0 -117 -17 -220t-57.5 -199t-102.5 -164t-158.5 -109t-219.5 -41t-220 41t-159 109t-102.5 164t-57 199t-16.5 220zM127 715q0 -73 6.5 -140.5t23 -139 t42 -131.5t66.5 -114t94 -92t127 -60t163 -22q122 0 216 42.5t150.5 110t92 162t48.5 187t13 197.5t-13 197t-48.5 187t-92 162t-150.5 109.5t-216 42.5q-103 0 -186 -29t-139 -81t-95.5 -117.5t-61 -147t-31 -159.5t-9.5 -164z" />
<glyph unicode="P" horiz-adv-x="1200" d="M156 0v1430h514q105 0 185.5 -19t143.5 -61t96 -116t33 -177t-33.5 -177t-97 -116t-144 -61t-185.5 -19h-480v-684h-32zM188 713h482q73 0 132 9t115.5 32t94.5 61t61 99.5t23 142.5t-23.5 142t-61.5 98t-94.5 59.5t-115 30.5t-131.5 8h-482v-682z" />
<glyph unicode="Q" horiz-adv-x="1284" d="M94 715q0 117 16.5 219.5t56.5 198.5t102 164.5t159 109.5t221 41q123 0 219.5 -40.5t158.5 -109t102.5 -164t57.5 -198.5t17 -221q0 -177 -34.5 -314.5t-133.5 -257.5l117 -143h-45l-96 119q-167 -137 -363 -137q-124 0 -221 41t-159 109t-102 164t-56.5 199t-16.5 220z M127 715q0 -87 9.5 -165t30.5 -160t60.5 -147.5t95.5 -118t139 -81.5t187 -29q191 0 344 127q-75 86 -148.5 132t-162.5 59v33q96 -12 175.5 -58t160.5 -137q50 64 82 133.5t46 143t18.5 131.5t4.5 137q0 73 -6.5 140.5t-22.5 139t-42 131.5t-66.5 114.5t-93.5 92.5t-127 60 t-162 22q-103 0 -186 -29t-139 -81.5t-95.5 -118t-61 -147.5t-31 -160t-9.5 -164z" />
<glyph unicode="R" horiz-adv-x="1206" d="M156 0v1430h473q207 0 323.5 -89.5t116.5 -279.5q0 -178 -110 -269t-336 -102q73 -47 143 -166l309 -524h-41l-311 526q-43 72 -95.5 119t-127.5 47h-312v-692h-32zM188 725h441q405 0 405 336q0 334 -405 334h-441v-670z" />
<glyph unicode="S" horiz-adv-x="1214" d="M98 317l35 2q20 -88 71.5 -150.5t123 -95t146 -47t159.5 -14.5q65 0 128.5 13.5t122.5 43t103.5 71t71 103t26.5 134.5q0 83 -32 145.5t-86 100t-124 64.5t-148 45.5t-155.5 36.5t-147.5 43.5t-124 60.5t-86 94t-32 139q0 85 36.5 151.5t99 106.5t139.5 60t163 20 q339 0 469 -252l-31 -12q-67 124 -176 175.5t-262 51.5q-57 0 -110.5 -8.5t-108 -30t-94.5 -54.5t-65.5 -86.5t-25.5 -121.5q0 -74 32 -128t86 -86.5t124.5 -56t148 -41.5t155 -37t148 -48t124.5 -69.5t86 -107.5t32 -155q0 -94 -40.5 -170t-109 -124.5t-155 -74.5 t-182.5 -26q-107 0 -193 17.5t-157 56t-118 104t-67 157.5z" />
<glyph unicode="T" horiz-adv-x="1081" d="M39 1397v33h1003v-33h-485v-1397h-33v1397h-485z" />
<glyph unicode="U" horiz-adv-x="1294" d="M145 614v816h35v-818q0 -98 10.5 -178.5t41.5 -160.5t81.5 -134.5t135.5 -88.5t198 -34t197.5 34t135 88.5t81.5 134.5t42 160.5t11 178.5v818h35v-816q0 -115 -14 -206.5t-49.5 -173t-92 -136t-144 -85.5t-202.5 -31t-203 33t-144 89t-91.5 138t-49.5 172t-14 200z" />
<glyph unicode="V" horiz-adv-x="1116" d="M43 1430h35l479 -1397l481 1397h35l-485 -1430h-60z" />
<glyph unicode="W" horiz-adv-x="1544" d="M72 1430h37l319 -1371l315 1371h54l317 -1371l322 1371h34l-333 -1430h-45l-322 1378l-319 -1378h-45z" />
<glyph unicode="X" horiz-adv-x="1142" d="M78 0l473 739l-442 691h38l424 -658l424 658h39l-442 -691l473 -739h-39l-455 707l-454 -707h-39z" />
<glyph unicode="Y" horiz-adv-x="1122" d="M72 1430h37l452 -916l455 916h37l-473 -957v-473h-35v473z" />
<glyph unicode="Z" horiz-adv-x="1163" d="M94 0v51l934 1346h-854v33h877v-60l-928 -1335h926v-35h-955z" />
<glyph unicode="[" horiz-adv-x="536" d="M141 -121v1671h293v-18h-246v-1630h246v-23h-293z" />
<glyph unicode="\" horiz-adv-x="815" d="M59 1585h41l660 -1741h-45z" />
<glyph unicode="]" horiz-adv-x="536" d="M147 -98h248v1630h-248v18h293v-1671h-293v23z" />
<glyph unicode="^" horiz-adv-x="1040" d="M127 811l352 616h84l352 -616l-32 -20l-363 634l-362 -634z" />
<glyph unicode="_" horiz-adv-x="1085" d="M53 0h981v-29h-981v29z" />
<glyph unicode="`" horiz-adv-x="610" d="M184 1386h74l170 -294h-59z" />
<glyph unicode="a" horiz-adv-x="950" d="M94 262q0 128 94 202q92 72 221 71h7h1h1h1h1h1h1h1h1h1h1h1h1h1h1h1h1h1h1h1h1h1h1h1h1h2h1h1h1h1h1h1h1h1h1h1h2h1h1h1h1h2h1h1h1h2h1h1h2h1h1h2h1h1h2h1h2h1h1h2h1h2h1h2h1h2h1h2h1h2h1h2h1h2h2h1h2h1h2h2h1h2h1h2h2h1h2h2h2h1h2h2h1h2h2h2h1h2h2h2h1h2h2h2h2h2h9 q91 0 129 11q51 15 88 52v129q0 72 -46.5 127.5t-111 82t-130.5 26.5q-48 0 -93 -9t-88 -28.5t-77.5 -54t-53.5 -80.5l-30 10q92 194 350 194q121 0 217 -75t96 -189v-588l27 -147l-25 -4l-35 135q-93 -82 -171.5 -114.5t-178.5 -32.5q-151 0 -246.5 73t-95.5 209zM127 262 q0 -63 26.5 -112.5t71 -79t98 -44t111.5 -14.5q107 0 189 38t163 122v385q-51 -35 -90.5 -45t-95.5 -10h-186q-116 0 -201.5 -61.5t-85.5 -178.5z" />
<glyph unicode="b" d="M145 0v1430h31v-631q104 196 334 196q391 0 391 -510q0 -505 -385 -505q-240 0 -336 194v-174h-35zM176 313q0 -137 98.5 -219t237.5 -82q90 0 156.5 29t103.5 73t59.5 110t29.5 126t7 135q0 61 -5 112t-18 108.5t-38.5 101t-63.5 80.5t-97 56.5t-134 19.5 q-139 0 -237.5 -82t-98.5 -219v-349z" />
<glyph unicode="c" horiz-adv-x="940" d="M94 487q0 108 26.5 199t78 161t136 109t193.5 39q101 0 169.5 -29t136.5 -98l-27 -20q-62 62 -124 88.5t-155 26.5q-87 0 -156.5 -26.5t-113.5 -71t-73.5 -106.5t-41.5 -129t-12 -143q0 -75 12.5 -142t42.5 -128.5t74.5 -106.5t113 -71.5t154.5 -26.5q94 0 158 27t125 90 l23 -20q-68 -70 -137 -99.5t-169 -29.5q-109 0 -193.5 39.5t-136 109t-78 160t-26.5 198.5z" />
<glyph unicode="d" horiz-adv-x="1017" d="M94 487q0 508 393 508q94 0 188.5 -44.5t145.5 -139.5v619h31v-1268q2 -11 5 -28t9.5 -54t10.5 -61t4 -23l-29 -4l-35 172q-56 -95 -146 -139.5t-188 -44.5q-91 0 -160 26.5t-112 70.5t-70 110.5t-37 138.5t-10 161zM127 487q0 -75 7 -136t30 -126.5t60.5 -110 t103.5 -73.5t155 -29q141 0 239.5 82t98.5 219v349q0 135 -97 218t-237 83q-89 0 -155.5 -29t-105 -73.5t-61.5 -110.5t-30.5 -127.5t-7.5 -135.5z" />
<glyph unicode="e" horiz-adv-x="972" d="M94 487q0 112 21.5 200.5t68.5 159.5t129.5 109.5t196.5 38.5q96 0 168.5 -34.5t115.5 -95.5t64 -138.5t21 -171.5v-57h-750q0 -113 20 -198.5t65.5 -152t124.5 -101t191 -34.5q94 0 161.5 23.5t119.5 81.5l29 -19q-104 -118 -310 -118q-119 0 -205 36.5t-135.5 105.5 t-72.5 159t-23 206zM129 537h717q-1 91 -18.5 164.5t-54.5 134t-104 94t-159 33.5q-355 0 -381 -426z" />
<glyph unicode="f" horiz-adv-x="577" d="M102 942v33h119v49q0 40 1 64.5t7 69.5t17.5 75t34.5 67.5t56 61.5t84.5 43t117.5 25v-33q-161 -13 -223 -104.5t-62 -264.5v-53h246v-33h-246v-942h-33v942h-119z" />
<glyph unicode="g" horiz-adv-x="997" d="M96 -139q0 26 6 53l31 -12q-4 -28 -4 -43q0 -44 25 -80.5t64 -59.5t87 -39.5t92.5 -23t83.5 -6.5q65 0 134 18.5t132.5 54t104.5 97t41 137.5q0 42 -18.5 74.5t-48.5 51.5t-64.5 28.5t-69.5 9.5q-64 0 -186 -27.5t-184 -27.5q-64 0 -104 27.5t-40 76.5q0 61 38 122.5 t114 106.5q-180 65 -180 287q0 309 333 309q169 0 260 -86q114 26 129 115h35q-12 -98 -143 -139q57 -81 57 -199q0 -309 -338 -309q-55 0 -116 10q-152 -88 -152 -205q0 -53 27.5 -71.5t74.5 -18.5q64 0 186.5 31t184.5 31q100 0 169 -54t69 -145q0 -99 -70 -179 t-171 -119.5t-206 -39.5q-67 0 -132.5 14.5t-122.5 43t-92.5 77t-35.5 109.5zM182 686q0 -276 301 -276q305 0 305 276q0 145 -77.5 211t-225.5 66q-150 0 -226.5 -66t-76.5 -211z" />
<glyph unicode="h" horiz-adv-x="1026" d="M145 0v1430h33v-631q33 67 91 112.5t118.5 64.5t122.5 19q205 0 298 -110.5t93 -321.5v-563h-33v563q0 93 -16.5 162t-55 124.5t-110 84.5t-174.5 29q-57 0 -115.5 -20t-107.5 -55t-80 -87.5t-31 -112.5v-688h-33z" />
<glyph unicode="i" horiz-adv-x="401" d="M143 1368q0 23 16.5 39t41.5 16q24 0 41.5 -16t17.5 -39q0 -24 -17.5 -41.5t-41.5 -17.5q-25 0 -41.5 17t-16.5 42zM182 0v975h35v-975h-35z" />
<glyph unicode="j" horiz-adv-x="378" d="M-137 -453l8 33q88 4 149 35t92.5 83.5t44.5 111t13 131.5v1034h33v-1032q0 -383 -340 -396zM131 1368q0 23 16 39t39 16q25 0 42.5 -16t17.5 -39q0 -25 -17.5 -42t-42.5 -17q-23 0 -39 17t-16 42z" />
<glyph unicode="k" horiz-adv-x="839" d="M145 0v1430h33v-1430h-33zM193 508l458 467h43l-450 -463l534 -512h-51z" />
<glyph unicode="l" horiz-adv-x="399" d="M145 203v1227h33v-1227q0 -63 34 -110.5t116 -57.5v-33q-93 9 -138 63.5t-45 137.5z" />
<glyph unicode="m" horiz-adv-x="1572" d="M145 0v975h33l-2 -180q29 69 85 115.5t109 63.5t103 17q117 0 204.5 -62.5t117.5 -193.5q33 133 118.5 194.5t198.5 61.5q95 0 162.5 -32.5t104.5 -93.5t53 -136.5t16 -173.5v-555h-33v555q0 68 -6 122t-25.5 109.5t-51.5 92.5t-88 60.5t-132 23.5q-72 0 -126.5 -24.5 t-87 -62.5t-53 -92.5t-27.5 -108t-7 -114.5v-561h-33v555q0 67 -7 121.5t-27.5 110t-54 92.5t-90 60.5t-132.5 23.5q-105 0 -197 -80t-92 -183v-700h-33z" />
<glyph unicode="n" horiz-adv-x="1024" d="M145 0v975h35v-180q56 104 146 152t186 48q389 0 389 -440v-555h-33v557q0 93 -16.5 163t-55.5 126.5t-110.5 86.5t-173.5 30q-139 0 -236.5 -90t-97.5 -197v-676h-33z" />
<glyph unicode="o" d="M94 485q0 510 406 510q401 0 401 -510q0 -505 -401 -505q-406 0 -406 505zM127 485q0 -79 8 -142t32 -127.5t64 -107t108 -69.5t159 -27t158.5 27t107 69.5t64 107t32.5 127.5t8 142q0 80 -8 143.5t-32 128.5t-63 108t-106.5 70.5t-158.5 27.5q-92 0 -160.5 -27.5 t-108.5 -70.5t-64 -108t-32 -128.5t-8 -143.5z" />
<glyph unicode="p" d="M145 -451v1426h33v-191q29 58 70.5 101t87.5 66t90 33.5t88 10.5q387 0 387 -503q0 -512 -389 -512q-58 0 -113.5 16.5t-116.5 63.5t-104 122v-633h-33zM176 317q0 -111 103.5 -208t232.5 -97q90 0 156.5 29.5t103.5 75t59.5 112t29.5 127.5t7 136q0 61 -5 112t-18 107.5 t-38.5 99.5t-63.5 78.5t-97 54.5t-134 19q-129 0 -232.5 -95t-103.5 -202v-349z" />
<glyph unicode="q" horiz-adv-x="1001" d="M92 492q0 89 10 160t37 137t70 110t112 70t160 26q98 0 187 -44.5t145 -139.5l37 176l29 -6l-29 -152v-1280h-31v623q-67 -101 -155.5 -146.5t-178.5 -45.5q-110 0 -189 40.5t-122.5 114t-62.5 161t-19 196.5zM125 492q0 -480 360 -480q134 0 234 93t100 217v344 q0 123 -100.5 210t-237.5 87q-74 0 -132.5 -19t-96.5 -54.5t-64 -78.5t-39 -99t-18.5 -107.5t-5.5 -112.5z" />
<glyph unicode="r" horiz-adv-x="759" d="M145 0v975h33v-193q35 63 80.5 107.5t93 66t89 30.5t83.5 9q92 0 162 -22l-20 -35q-80 25 -142 25q-133 0 -239.5 -90t-106.5 -211v-662h-33z" />
<glyph unicode="s" horiz-adv-x="911" d="M90 219l31 4q16 -60 53.5 -103t88 -65.5t102.5 -32.5t110 -10q55 0 108.5 14t102.5 42t79 78t30 114q0 71 -37 119t-96 72.5t-130.5 41.5l-143 34t-130.5 41t-96 72t-37 118q0 77 46.5 132.5t116.5 80t154 24.5q240 0 336 -166l-30 -14q-53 84 -127.5 115t-180.5 31 q-36 0 -71.5 -5t-74.5 -19.5t-68.5 -36t-48.5 -58.5t-19 -84q0 -62 37 -103t96 -62.5t130 -37.5t142.5 -35t130.5 -46.5t96 -81.5t37 -132q0 -86 -51.5 -151.5t-130.5 -97t-170 -31.5q-146 0 -251 59t-134 180z" />
<glyph unicode="t" horiz-adv-x="542" d="M61 942v33h166v307h33v-307h191v-33h-191v-739q0 -92 40 -129.5t124 -40.5v-33h-8q-189 0 -189 205v737h-166z" />
<glyph unicode="u" horiz-adv-x="1013" d="M125 406v569h33v-572q0 -95 16 -163t55 -121.5t109.5 -80t173.5 -26.5q51 0 108.5 19t109 52.5t85 87t33.5 114.5v690h33v-975h-33l2 164q-71 -96 -160.5 -140t-177.5 -44q-208 0 -297.5 104.5t-89.5 321.5z" />
<glyph unicode="v" horiz-adv-x="903" d="M55 975h35l363 -961l360 961h37l-369 -975h-61z" />
<glyph unicode="w" horiz-adv-x="1488" d="M51 975h35l291 -955l336 955h59l336 -957l295 957h33l-301 -975h-56l-338 967l-335 -967h-58z" />
<glyph unicode="x" horiz-adv-x="876" d="M70 0l350 504l-332 471h39l311 -445l307 445h37l-327 -469l350 -506h-37l-332 479l-330 -479h-36z" />
<glyph unicode="y" horiz-adv-x="901" d="M55 975h35l363 -938l358 938h35l-473 -1239q-77 -187 -239 -187h-5h-14v33h14q151 0 211 166l94 244z" />
<glyph unicode="z" horiz-adv-x="901" d="M82 0v66l713 876h-658v33h674v-57l-717 -885h717v-33h-729z" />
<glyph unicode="{" horiz-adv-x="673" d="M102 692v45q61 -2 103.5 12t65 39t34 62t11.5 76t-5 85.5t-12.5 85.5t-13.5 82t-6 70q0 154 68.5 227t223.5 72v-39q-141 0 -195 -63.5t-54 -194.5q0 -35 9 -95t18.5 -110t9.5 -108.5t-13.5 -101t-54.5 -76t-109 -45.5q68 -12 109 -45.5t54.5 -76.5t13.5 -101t-9.5 -108 t-18.5 -109.5t-9 -94.5q0 -133 54 -196.5t195 -63.5v-39q-155 -1 -223.5 72t-68.5 227q0 27 6 70t13.5 82.5t12.5 86t5 85.5t-11.5 76t-34 62t-65 39t-103.5 11z" />
<glyph unicode="|" horiz-adv-x="417" d="M195 -156v1741h30v-1741h-30z" />
<glyph unicode="}" horiz-adv-x="673" d="M102 -80q141 0 195.5 63.5t54.5 196.5q0 35 -9 94.5t-18.5 109.5t-9.5 108t13.5 101t54.5 76.5t109 45.5q-68 12 -109 45.5t-54.5 76t-13.5 101t9.5 108.5t18.5 110t9 95q0 131 -54.5 194.5t-195.5 63.5v39q155 1 224 -72t69 -227q0 -27 -6 -69.5t-14 -82.5t-13 -86 t-5 -85t11 -76t33.5 -62t65.5 -39t104 -12v-45q-61 3 -104 -11t-65.5 -39t-33.5 -62t-11 -76t5 -85.5t13 -86t14 -82.5t6 -70q0 -154 -69 -227t-224 -72v39z" />
<glyph unicode="~" horiz-adv-x="942" d="M117 608q83 103 172 103q42 0 82 -15.5t71.5 -38t62.5 -45t67 -38t73 -15.5q87 0 154 94l24 -30q-84 -103 -176 -103q-44 0 -84.5 15.5t-72 37.5t-61.5 44t-66 37.5t-74 15.5q-83 0 -146 -90z" />
<glyph unicode="&#xa1;" horiz-adv-x="555" d="M225 922q0 24 16.5 40.5t41.5 16.5q23 0 39 -17t16 -40q0 -26 -16 -43t-39 -17q-25 0 -41.5 17t-16.5 43zM246 233l30 369h9l30 -369v-702h-69v702z" />
<glyph unicode="&#xa2;" horiz-adv-x="927" d="M86 487q0 107 26.5 196t80 157.5t142.5 107t206 39.5l37 164l16 -4l-33 -158q87 -8 147 -39t117 -86l-22 -18q-51 51 -108.5 82t-139.5 41l-205 -926q95 -33 166 -33q92 -1 157.5 28t129.5 93l22 -18q-68 -68 -136.5 -96.5t-168.5 -28.5q-74 0 -176 30l-41 -192l-18 4 l45 199q-89 46 -145.5 123t-77.5 158.5t-21 176.5zM123 487q0 -66 7 -116.5t27.5 -109.5t65 -111.5t111.5 -96.5l201 914q-96 -5 -169.5 -35t-118.5 -75t-73.5 -108t-39.5 -126t-11 -136z" />
<glyph unicode="&#xa3;" horiz-adv-x="1013" d="M100 702l6 29h132q-41 205 -41 303q0 178 93 289t267 111q118 0 200.5 -33.5t157.5 -112.5l-26 -20q-71 74 -145.5 104.5t-186.5 30.5q-84 0 -148.5 -29.5t-103 -80.5t-57.5 -116t-19 -141q0 -21 1 -42t4 -45.5t5.5 -41t7.5 -46t7.5 -42t9 -46t8.5 -42.5h265l-5 -29h-251 q36 -168 36 -286q0 -148 -86 -383h668v-33h-696v41q80 199 80 371q0 120 -39 290h-144z" />
<glyph unicode="&#xa4;" horiz-adv-x="1167" d="M98 510l6 37h136q-9 143 -7 248h-135l6 36h129q7 102 30.5 191t68 168.5t106.5 136t151.5 89t198.5 32.5q187 0 310 -105l-11 -32q-65 56 -134.5 79t-164.5 23q-123 0 -220 -45t-159 -125t-97.5 -183.5t-45.5 -228.5h561l-6 -36h-555q0 -165 6 -248h555l-6 -37h-549 q39 -228 172.5 -361t343.5 -133q94 0 163 23t134 78l13 -33q-123 -102 -310 -102q-224 0 -366.5 143.5t-177.5 384.5h-146z" />
<glyph unicode="&#xa5;" horiz-adv-x="1177" d="M98 1430h43l449 -910l448 910h43l-344 -697h217l-10 -35h-223l-125 -254h358l-10 -36h-336v-408h-39v408h-346l8 36h353l-127 254h-234l8 35h209z" />
<glyph unicode="&#xa6;" horiz-adv-x="542" d="M252 -156v746h37v-746h-37zM252 842v745h37v-745h-37z" />
<glyph unicode="&#xa7;" horiz-adv-x="1005" d="M133 555q0 188 148 303q-56 53 -78.5 105t-22.5 114q0 147 89 242.5t241 95.5q106 0 185.5 -66t148.5 -178l-31 -14q-133 225 -303 225q-138 0 -217.5 -87t-79.5 -218q0 -37 6 -68t20.5 -55t28 -42t39 -33.5t43 -25t51 -19.5t51.5 -15t54 -14q175 -42 269.5 -124.5 t94.5 -229.5q0 -188 -145 -306q98 -88 98 -215q0 -150 -88.5 -246t-240.5 -96q-105 0 -185 66.5t-149 179.5l30 14q134 -227 304 -227q139 0 218 88.5t79 220.5q0 41 -9.5 75t-22.5 58t-39 44.5t-46 32.5t-56.5 25t-57.5 18.5t-62 15.5q-84 21 -147 49t-114 69.5t-77.5 101 t-26.5 136.5zM168 555q0 -62 19.5 -112t50 -83t77 -59.5t90 -41.5t99.5 -28q89 -18 184 -63q148 91 148 283q0 62 -20 112t-50 82.5t-77 59t-89.5 41t-99.5 28.5q-99 24 -185 64q-147 -94 -147 -283z" />
<glyph unicode="&#xa8;" horiz-adv-x="1005" d="M270 1169q0 25 16.5 42.5t39.5 17.5q25 0 42 -17.5t17 -42.5q0 -23 -17 -39t-42 -16q-23 0 -39.5 16t-16.5 39zM621 1169q0 25 17.5 42.5t41.5 17.5t40.5 -17.5t16.5 -42.5q0 -23 -16 -39t-41 -16q-24 0 -41.5 16t-17.5 39z" />
<glyph unicode="&#xa9;" horiz-adv-x="1613" d="M92 713q0 146 56.5 278.5t152.5 228.5t228.5 153t277.5 57t278 -57t229 -153t153 -229t57 -278t-57 -278t-153 -229t-229 -153t-278 -57t-277.5 57t-228.5 153t-152.5 228.5t-56.5 278.5zM117 713q0 -187 92.5 -347t251.5 -253t346 -93t346.5 93t252.5 253t93 347 t-93 346.5t-252.5 252.5t-346.5 93t-346 -93t-251.5 -252.5t-92.5 -346.5zM530 713q0 64 9.5 119.5t32 105t56 85.5t84 56.5t113.5 20.5q118 0 205 -96l-33 -25q-36 41 -75.5 61.5t-96.5 20.5q-61 0 -107 -22.5t-72.5 -56.5t-43 -82t-22 -92.5t-5.5 -94.5t5.5 -94t22 -92 t43 -82t72.5 -56t107 -22q57 0 96 19.5t76 59.5l31 -26q-83 -92 -203 -92q-79 0 -137.5 31t-92 85.5t-49.5 121.5t-16 147z" />
<glyph unicode="&#xaa;" horiz-adv-x="798" d="M88 858q0 106 79 167.5t189 59.5h1h1h1h1h1h1h1h1h1h1h1h1h1h1h1h1h1h1h1h1h1h1h1h1h1h2h1h1h1h1h1h2h1h1h1h2h1h1h2h1h1h2h1h1h2h1h2h1h2h1h2h1h2h1h2h1h2h1h2h1h2h2h1h2h2h1h2h2h1h2h2h2h1h2h2h2h1h2h2h2h2h2h1h2h10q33 0 54 2t53 14t57 36v88q0 80 -70.5 130 t-150.5 50q-52 0 -97.5 -12.5t-86.5 -44.5t-62 -82l-43 12q42 91 115 130.5t178 39.5q100 0 180 -62.5t80 -154.5v-522l21 -50l-37 -12l-35 78q-76 -57 -131.5 -77.5t-132.5 -20.5q-125 0 -205 59.5t-80 171.5zM135 858q0 -64 35 -108.5t86.5 -63t114.5 -18.5q81 0 144.5 29 t129.5 94v286q-52 -25 -78 -31t-63 -6h-1h-1h-1h-1h-1h-1h-1h-1h-1h-1h-1h-1h-1h-1h-1h-1h-1h-1h-1h-1h-1h-1h-1h-1h-1h-1h-1h-1h-1h-1h-1h-1h-2h-1h-1h-1h-1h-2h-1h-1h-1h-2h-1h-1h-2h-1h-1h-2h-1h-1h-2h-1h-2h-1h-2h-1h-1h-2h-1h-2h-1h-2h-2h-1h-2h-1h-2h-1h-2h-2h-1h-2 h-1h-2h-2h-1h-2h-2h-2h-1h-2h-2h-1h-2h-2h-2h-2h-1h-2h-2h-2h-2h-2h-1h-2h-2h-2h-2h-2h-2h-9q-92 2 -156.5 -45t-64.5 -137zM285 416v41h229v-41h-229z" />
<glyph unicode="&#xab;" horiz-adv-x="948" d="M92 492v77l373 363v-53l-361 -349l361 -348v-51zM463 492v77l373 363v-53l-359 -349l359 -348v-51z" />
<glyph unicode="&#xac;" horiz-adv-x="1015" d="M90 541v28h811v-352h-22v324h-789z" />
<glyph unicode="&#xad;" horiz-adv-x="786" d="M135 541v43h518v-43h-518z" />
<glyph unicode="&#xae;" horiz-adv-x="1613" d="M92 713q0 146 56.5 278.5t152.5 228.5t228.5 153t277.5 57t278 -57t229 -153t153 -229t57 -278t-57 -278t-153 -229t-229 -153t-278 -57t-277.5 57t-228.5 153t-152.5 228.5t-56.5 278.5zM117 713q0 -187 92.5 -347t251.5 -253t346 -93t346.5 93t252.5 253t93 347 t-93 346.5t-252.5 252.5t-346.5 93t-346 -93t-251.5 -252.5t-92.5 -346.5zM580 342v743h256q113 0 176 -50t63 -152q0 -81 -55.5 -142.5t-157.5 -58.5q2 -2 8 -8.5t9.5 -10t12.5 -15t18 -25t25.5 -39t36.5 -57t49 -79t64 -106.5h-51l-145 242q-61 100 -131 100h-137v-342 h-41zM621 713h215q198 0 198 170q0 161 -198 161h-215v-331z" />
<glyph unicode="&#xaf;" horiz-adv-x="978" d="M238 1118v53h503v-53h-503z" />
<glyph unicode="&#xb0;" horiz-adv-x="534" d="M86 1354q0 74 53 127t127 53q75 0 129 -53t54 -127q0 -75 -54 -129t-129 -54q-74 0 -127 54t-53 129zM109 1354q0 -65 46.5 -111.5t110.5 -46.5t111 47t47 111t-46.5 109.5t-111.5 45.5t-111 -45.5t-46 -109.5z" />
<glyph unicode="&#xb1;" horiz-adv-x="1038" d="M111 0v37h815v-37h-815zM111 528v41h387v381h43v-381h385v-41h-385v-385h-43v385h-387z" />
<glyph unicode="&#xb2;" horiz-adv-x="714" d="M78 532v27q27 88 70.5 158.5t89.5 115t96 81.5t94.5 67t80 63t56.5 78t21 103q0 98 -72 152.5t-174 54.5q-152 0 -225 -123l-19 10q39 64 103 97.5t141 33.5q118 0 192 -60t74 -167q0 -58 -22 -105.5t-59 -82.5t-82.5 -68t-96 -71t-96 -82t-86 -111.5t-62.5 -149.5h533 v-21h-557z" />
<glyph unicode="&#xb3;" horiz-adv-x="655" d="M72 674l18 4q30 -68 92.5 -102.5t139.5 -34.5q104 0 176.5 64t72.5 167q0 109 -67.5 167t-179.5 60v15q103 5 164 57.5t61 151.5q0 90 -71.5 151.5t-164.5 61.5q-68 0 -128 -34t-89 -93l-16 4q33 66 96.5 101.5t140.5 35.5q104 0 176 -62.5t72 -164.5q0 -171 -164 -215 q189 -52 189 -236q0 -115 -76 -181.5t-192 -66.5q-87 0 -153 37t-97 113z" />
<glyph unicode="&#xb4;" horiz-adv-x="565" d="M160 1092l170 294h73l-184 -294h-59z" />
<glyph unicode="&#xb5;" horiz-adv-x="1009" d="M127 -403v1378h35v-555q0 -91 17 -159.5t56 -124t109 -84.5t170 -29q72 0 148 30t133 92.5t57 139.5v690h31v-975h-31v164q-147 -176 -338 -176q-56 0 -102.5 8.5t-94 30t-87 64.5t-68.5 106v-600h-35z" />
<glyph unicode="&#xb6;" horiz-adv-x="901" d="M113 1055q0 155 114 265t277 110h225v-1739h-39v1691h-112v-1691h-39v985q-184 -3 -305 107t-121 272z" />
<glyph unicode="&#xb7;" horiz-adv-x="423" d="M131 543q0 34 23 57t57 23q33 0 56.5 -23.5t23.5 -56.5q0 -34 -24 -58t-56 -24q-34 0 -57 24t-23 58z" />
<glyph unicode="&#xb8;" horiz-adv-x="972" d="M377 -401l182 266l-76 155l33 15l86 -176l-149 -260h-76z" />
<glyph unicode="&#xb9;" horiz-adv-x="450" d="M70 1298l182 142h29v-908h-27v881l-170 -129z" />
<glyph unicode="&#xba;" horiz-adv-x="854" d="M94 1038q0 410 334 410t334 -410q0 -411 -334 -411t-334 411zM133 1038q0 -61 6 -110t25.5 -99.5t51 -84t85.5 -55t127 -21.5q72 0 126 21.5t85.5 55t50.5 84t25 99.5t6 110q0 60 -6 109t-25 99t-50.5 84t-85.5 55.5t-126 21.5t-126 -21.5t-86 -55.5t-51 -84t-25.5 -99 t-6.5 -109zM313 416v41h228v-41h-228z" />
<glyph unicode="&#xbb;" horiz-adv-x="948" d="M92 131v51l359 348l-359 349v53l373 -363v-77zM463 131v51l360 348l-360 349v53l373 -363v-77z" />
<glyph unicode="&#xbc;" horiz-adv-x="1503" d="M92 1313l217 129h4v-858h-18v829l-195 -113zM395 0l619 1430h20l-618 -1430h-21zM977 238v36l369 584h20l-381 -602h365l-2 375l26 -6v-369h62v-18h-62v-238h-18v238h-379z" />
<glyph unicode="&#xbd;" horiz-adv-x="1581" d="M92 1313l217 129h2v-858h-16v829l-195 -113zM395 0l617 1430h18l-614 -1430h-21zM1028 0v37q30 74 87.5 165.5t125.5 155.5q127 119 174 184t47 128q0 50 -20.5 86.5t-52.5 54t-62 25.5t-59 8q-60 0 -109.5 -30.5t-79.5 -82.5l-16 8q71 121 205 121q89 0 151 -51.5 t62 -138.5q0 -63 -45.5 -130t-184.5 -198q-117 -109 -215 -324h445v-18h-453z" />
<glyph unicode="&#xbe;" horiz-adv-x="1687" d="M98 702l21 7q25 -60 81 -95.5t124 -35.5q95 0 161 63.5t66 153.5q0 91 -66 154t-161 63h-17v22h8q89 0 153 56.5t64 140.5q0 81 -63.5 138.5t-153.5 57.5q-65 0 -118 -32t-78 -86l-21 6q27 58 86.5 94.5t130.5 36.5q99 0 168.5 -63.5t69.5 -151.5q0 -118 -141 -205 q159 -96 159 -231q0 -98 -72 -167t-175 -69q-75 0 -137.5 39t-88.5 104zM582 0l616 1430h21l-617 -1430h-20zM1163 238v36l367 584h22l-383 -602h365l-2 375l29 -6v-369h61v-18h-61v-238h-21v238h-377z" />
<glyph unicode="&#xbf;" horiz-adv-x="942" d="M57 -127q1 -107 55.5 -189t145 -126t201.5 -47q158 0 275.5 90.5t129.5 230.5h-33q-8 -85 -66 -152t-140 -100t-170 -33q-150 0 -256 88t-105 238q0 24 3 45t6.5 37.5t13 33t16 27.5t22 25t23.5 21t28 20t29.5 18.5t33.5 19t34 19.5q40 25 65 46t52 56.5t40.5 86.5 t14.5 118q0 -3 -2.5 34.5t-4.5 76.5l-3 39h-10l-6 -152q-4 -108 -54.5 -178.5t-165.5 -134.5q-34 -19 -53 -31t-45.5 -35t-40 -47t-24 -61.5t-9.5 -83.5zM397 918q0 26 16.5 43.5t41.5 17.5q26 0 43.5 -17.5t17.5 -43.5q0 -25 -17.5 -41.5t-43.5 -16.5q-25 0 -41.5 16.5 t-16.5 41.5z" />
<glyph unicode="&#xc0;" horiz-adv-x="1255" d="M37 0l559 1430h63l560 -1430h-33l-185 463h-749l-182 -463h-33zM266 494h723l-362 925zM399 1839h74l172 -295h-59z" />
<glyph unicode="&#xc1;" horiz-adv-x="1255" d="M37 0l559 1430h63l560 -1430h-33l-185 463h-749l-182 -463h-33zM266 494h723l-362 925zM608 1544l172 295h74l-186 -295h-60z" />
<glyph unicode="&#xc2;" horiz-adv-x="1255" d="M37 0l559 1430h63l560 -1430h-33l-185 463h-749l-182 -463h-33zM266 494h723l-362 925zM397 1542l199 299h59l199 -299h-61l-168 264l-168 -264h-60z" />
<glyph unicode="&#xc3;" horiz-adv-x="1255" d="M37 0l559 1430h63l560 -1430h-33l-185 463h-749l-182 -463h-33zM266 494h723l-362 925zM371 1630q32 47 62.5 69.5t72.5 22.5q40 0 74.5 -19t55 -41t49 -41t58.5 -19q36 0 59.5 17.5t47.5 51.5l31 -35q-31 -47 -61.5 -68.5t-74.5 -21.5q-40 0 -74.5 19t-55 41.5t-49 41.5 t-58.5 19q-36 0 -58 -17.5t-47 -54.5z" />
<glyph unicode="&#xc4;" horiz-adv-x="1255" d="M37 0l559 1430h63l560 -1430h-33l-185 463h-749l-182 -463h-33zM266 494h723l-362 925zM391 1622q0 24 17.5 41.5t40.5 17.5q25 0 42 -17t17 -42q0 -23 -17 -39t-42 -16q-24 0 -41 16t-17 39zM743 1622q0 25 17.5 42t42.5 17t41 -17t16 -42q0 -23 -16 -39t-41 -16 t-42.5 16t-17.5 39z" />
<glyph unicode="&#xc5;" horiz-adv-x="1255" d="M37 0l559 1430h63l560 -1430h-33l-185 463h-749l-182 -463h-33zM266 494h723l-362 925zM442 1737q0 75 55.5 129.5t131.5 54.5q75 0 129.5 -54.5t54.5 -129.5t-54.5 -131t-129.5 -56q-76 0 -131.5 56t-55.5 131zM500 1737q0 -54 37.5 -91.5t91.5 -37.5q53 0 90 37.5 t37 91.5q0 53 -37 90t-90 37q-54 0 -91.5 -37t-37.5 -90z" />
<glyph unicode="&#xc6;" horiz-adv-x="1839" d="M49 0l828 1430h872v-33h-766v-633h664v-35h-664v-696h766v-33h-801l2 463h-598l-268 -463h-35zM375 494h575v909h-47z" />
<glyph unicode="&#xc7;" horiz-adv-x="1148" d="M86 715q0 118 16.5 221t57 198.5t103 164t159.5 109t221 40.5q132 0 224 -46.5t182 -148.5l-27 -20q-83 93 -168.5 136.5t-210.5 43.5q-122 0 -216.5 -42t-151.5 -109t-93 -161t-49.5 -187.5t-13.5 -198.5t13.5 -198.5t49.5 -187.5t93 -161.5t151.5 -109.5t216.5 -42 q124 0 210 44t169 137l27 -21q-86 -98 -175 -144.5t-210 -49.5l69 -148l-127 -233h-61l155 239l-67 144q-120 1 -215.5 42t-156.5 109t-101.5 163t-57 197.5t-16.5 219.5z" />
<glyph unicode="&#xc8;" horiz-adv-x="1136" d="M156 0v1430h878v-33h-846v-639h740v-29h-740v-696h846v-33h-878zM446 1839h74l170 -295h-59z" />
<glyph unicode="&#xc9;" horiz-adv-x="1136" d="M156 0v1430h878v-33h-846v-639h740v-29h-740v-696h846v-33h-878zM446 1544l172 295h72l-184 -295h-60z" />
<glyph unicode="&#xca;" horiz-adv-x="1136" d="M156 0v1430h878v-33h-846v-639h740v-29h-740v-696h846v-33h-878zM389 1542l197 299h59l201 -299h-64l-168 264l-165 -264h-60z" />
<glyph unicode="&#xcb;" horiz-adv-x="1136" d="M156 0v1430h878v-33h-846v-639h740v-29h-740v-696h846v-33h-878zM334 1622q0 25 16 42t41 17q24 0 42 -17.5t18 -41.5q0 -23 -18 -39t-42 -16q-25 0 -41 16t-16 39zM686 1622q0 25 17 42t40 17q25 0 41.5 -17t16.5 -42q0 -23 -16.5 -39t-41.5 -16q-23 0 -40 16t-17 39z " />
<glyph unicode="&#xcc;" horiz-adv-x="440" d="M16 1839h74l172 -295h-59zM203 0v1430h33v-1430h-33z" />
<glyph unicode="&#xcd;" horiz-adv-x="440" d="M186 1544l172 295h74l-186 -295h-60zM203 0v1430h33v-1430h-33z" />
<glyph unicode="&#xce;" horiz-adv-x="440" d="M-8 1542l198 299h60l199 -299h-62l-168 264l-166 -264h-61zM203 0v1430h33v-1430h-33z" />
<glyph unicode="&#xcf;" horiz-adv-x="440" d="M-12 1622q0 25 16 42t39 17q25 0 42 -17t17 -42q0 -23 -17 -39t-42 -16q-23 0 -39 16t-16 39zM203 0v1430h33v-1430h-33zM338 1622q0 24 17.5 41.5t41.5 17.5q25 0 41.5 -17t16.5 -42q0 -23 -16.5 -39t-41.5 -16q-24 0 -41.5 16t-17.5 39z" />
<glyph unicode="&#xd0;" horiz-adv-x="1351" d="M111 690v41h94v699h405q71 0 127 -4t113 -14t100 -27.5t82.5 -45.5t67 -67t48 -92.5t30.5 -120.5q16 -134 16 -344q0 -208 -16 -342q-14 -95 -48.5 -162.5t-81.5 -108t-118.5 -64t-144.5 -31t-175 -7.5h-405v690h-94zM240 35h370q64 0 108 2t100 9.5t95 21t80.5 38.5 t69 60.5t49.5 87.5t31 119q16 131 16 342q0 215 -16 342q-8 59 -24.5 106.5t-42 81.5t-54 59.5t-68 42t-75.5 27t-85.5 15.5t-89.5 6.5t-96 1.5h-368v-666h358v-41h-358v-655z" />
<glyph unicode="&#xd1;" horiz-adv-x="1263" d="M156 0v1430h61l858 -1407v1407h33v-1430h-59l-861 1407v-1407h-32zM377 1630q32 47 62.5 69.5t72.5 22.5q40 0 74.5 -19t55.5 -41t49.5 -41t58.5 -19q36 0 59 17t47 52l31 -35q-31 -47 -62 -68.5t-73 -21.5q-40 0 -74.5 19t-55.5 41.5t-49.5 41.5t-58.5 19 q-36 0 -58.5 -18t-47.5 -54z" />
<glyph unicode="&#xd2;" horiz-adv-x="1296" d="M94 715q0 117 16.5 220t57 199t102.5 164t159 109t220 41t219.5 -40.5t158.5 -109t102.5 -164t57.5 -198.5t17 -221q0 -117 -17 -220t-57.5 -199t-102.5 -164t-158.5 -109t-219.5 -41t-220 41t-159 109t-102.5 164t-57 199t-16.5 220zM127 715q0 -73 6.5 -140.5t23 -139 t42 -131.5t66.5 -114t94 -92t127 -60t163 -22q122 0 216 42.5t150.5 110t92 162t48.5 187t13 197.5t-13 197t-48.5 187t-92 162t-150.5 109.5t-216 42.5q-103 0 -186 -29t-139 -81t-95.5 -117.5t-61 -147t-31 -159.5t-9.5 -164zM524 1839h74l172 -295h-59z" />
<glyph unicode="&#xd3;" horiz-adv-x="1296" d="M94 715q0 117 16.5 220t57 199t102.5 164t159 109t220 41t219.5 -40.5t158.5 -109t102.5 -164t57.5 -198.5t17 -221q0 -117 -17 -220t-57.5 -199t-102.5 -164t-158.5 -109t-219.5 -41t-220 41t-159 109t-102.5 164t-57 199t-16.5 220zM127 715q0 -73 6.5 -140.5t23 -139 t42 -131.5t66.5 -114t94 -92t127 -60t163 -22q122 0 216 42.5t150.5 110t92 162t48.5 187t13 197.5t-13 197t-48.5 187t-92 162t-150.5 109.5t-216 42.5q-103 0 -186 -29t-139 -81t-95.5 -117.5t-61 -147t-31 -159.5t-9.5 -164zM524 1544l172 295h74l-186 -295h-60z" />
<glyph unicode="&#xd4;" horiz-adv-x="1296" d="M94 715q0 117 16.5 220t57 199t102.5 164t159 109t220 41t219.5 -40.5t158.5 -109t102.5 -164t57.5 -198.5t17 -221q0 -117 -17 -220t-57.5 -199t-102.5 -164t-158.5 -109t-219.5 -41t-220 41t-159 109t-102.5 164t-57 199t-16.5 220zM127 715q0 -73 6.5 -140.5t23 -139 t42 -131.5t66.5 -114t94 -92t127 -60t163 -22q122 0 216 42.5t150.5 110t92 162t48.5 187t13 197.5t-13 197t-48.5 187t-92 162t-150.5 109.5t-216 42.5q-103 0 -186 -29t-139 -81t-95.5 -117.5t-61 -147t-31 -159.5t-9.5 -164zM420 1542l196 299h62l199 -299h-62l-168 264 l-168 -264h-59z" />
<glyph unicode="&#xd5;" horiz-adv-x="1296" d="M94 715q0 117 16.5 220t57 199t102.5 164t159 109t220 41t219.5 -40.5t158.5 -109t102.5 -164t57.5 -198.5t17 -221q0 -117 -17 -220t-57.5 -199t-102.5 -164t-158.5 -109t-219.5 -41t-220 41t-159 109t-102.5 164t-57 199t-16.5 220zM127 715q0 -73 6.5 -140.5t23 -139 t42 -131.5t66.5 -114t94 -92t127 -60t163 -22q122 0 216 42.5t150.5 110t92 162t48.5 187t13 197.5t-13 197t-48.5 187t-92 162t-150.5 109.5t-216 42.5q-103 0 -186 -29t-139 -81t-95.5 -117.5t-61 -147t-31 -159.5t-9.5 -164zM393 1630q32 47 62.5 69.5t72.5 22.5 q40 0 74.5 -19t55.5 -41t49.5 -41t58.5 -19q36 0 59 17t47 52l31 -35q-31 -47 -62 -68.5t-73 -21.5q-40 0 -74.5 19t-55.5 41.5t-49.5 41.5t-58.5 19q-25 0 -45 -11t-31 -23.5t-28 -37.5z" />
<glyph unicode="&#xd6;" horiz-adv-x="1296" d="M94 715q0 117 16.5 220t57 199t102.5 164t159 109t220 41t219.5 -40.5t158.5 -109t102.5 -164t57.5 -198.5t17 -221q0 -117 -17 -220t-57.5 -199t-102.5 -164t-158.5 -109t-219.5 -41t-220 41t-159 109t-102.5 164t-57 199t-16.5 220zM127 715q0 -73 6.5 -140.5t23 -139 t42 -131.5t66.5 -114t94 -92t127 -60t163 -22q122 0 216 42.5t150.5 110t92 162t48.5 187t13 197.5t-13 197t-48.5 187t-92 162t-150.5 109.5t-216 42.5q-103 0 -186 -29t-139 -81t-95.5 -117.5t-61 -147t-31 -159.5t-9.5 -164zM414 1622q0 25 16 42t41 17t42 -17t17 -42 q0 -23 -17 -39t-42 -16t-41 16t-16 39zM766 1622q0 25 17 42t42 17t41.5 -17t16.5 -42q0 -23 -16.5 -39t-41.5 -16t-42 16t-17 39z" />
<glyph unicode="&#xd7;" horiz-adv-x="878" d="M135 289l273 272l-273 270l33 33l270 -272l273 272l30 -33l-272 -270l272 -272l-30 -31l-273 270l-270 -270z" />
<glyph unicode="&#xd8;" horiz-adv-x="1296" d="M94 715q0 117 16.5 220t57 199t102.5 164t159 109t220 41q181 0 330 -102l45 81h41l-61 -104q200 -212 200 -608q0 -116 -17 -219t-57.5 -199t-102.5 -164.5t-158.5 -109.5t-219.5 -41q-101 0 -182.5 26.5t-159.5 83.5l-49 -90h-43l68 117q-189 209 -189 596zM127 715 q0 -357 172 -570l662 1174q-137 94 -312 94q-103 0 -186 -29t-139 -81t-95.5 -117.5t-61 -147t-31 -159.5t-9.5 -164zM326 123q136 -107 323 -107q122 0 216 42.5t150.5 110t92 162t48.5 187t13 197.5q0 371 -182 581z" />
<glyph unicode="&#xd9;" horiz-adv-x="1294" d="M145 614v816h35v-818q0 -98 10.5 -178.5t41.5 -160.5t81.5 -134.5t135.5 -88.5t198 -34t197.5 34t135 88.5t81.5 134.5t42 160.5t11 178.5v818h35v-816q0 -115 -14 -206.5t-49.5 -173t-92 -136t-144 -85.5t-202.5 -31t-203 33t-144 89t-91.5 138t-49.5 172t-14 200z M524 1839h72l172 -295h-59z" />
<glyph unicode="&#xda;" horiz-adv-x="1294" d="M145 614v816h35v-818q0 -98 10.5 -178.5t41.5 -160.5t81.5 -134.5t135.5 -88.5t198 -34t197.5 34t135 88.5t81.5 134.5t42 160.5t11 178.5v818h35v-816q0 -115 -14 -206.5t-49.5 -173t-92 -136t-144 -85.5t-202.5 -31t-203 33t-144 89t-91.5 138t-49.5 172t-14 200z M524 1544l170 295h74l-184 -295h-60z" />
<glyph unicode="&#xdb;" horiz-adv-x="1294" d="M145 614v816h35v-818q0 -98 10.5 -178.5t41.5 -160.5t81.5 -134.5t135.5 -88.5t198 -34t197.5 34t135 88.5t81.5 134.5t42 160.5t11 178.5v818h35v-816q0 -115 -14 -206.5t-49.5 -173t-92 -136t-144 -85.5t-202.5 -31t-203 33t-144 89t-91.5 138t-49.5 172t-14 200z M420 1542l196 299h60l198 -299h-61l-168 264l-166 -264h-59z" />
<glyph unicode="&#xdc;" horiz-adv-x="1294" d="M145 614v816h35v-818q0 -98 10.5 -178.5t41.5 -160.5t81.5 -134.5t135.5 -88.5t198 -34t197.5 34t135 88.5t81.5 134.5t42 160.5t11 178.5v818h35v-816q0 -115 -14 -206.5t-49.5 -173t-92 -136t-144 -85.5t-202.5 -31t-203 33t-144 89t-91.5 138t-49.5 172t-14 200z M414 1622q0 25 16 42t41 17q24 0 41.5 -17.5t17.5 -41.5q0 -23 -17.5 -39t-41.5 -16q-25 0 -41 16t-16 39zM766 1622q0 25 17 42t40 17q25 0 41.5 -17t16.5 -42q0 -23 -16.5 -39t-41.5 -16q-23 0 -40 16t-17 39z" />
<glyph unicode="&#xdd;" horiz-adv-x="1122" d="M72 1430h37l452 -916l455 916h37l-473 -957v-473h-35v473zM438 1544l172 295h74l-186 -295h-60z" />
<glyph unicode="&#xde;" horiz-adv-x="1275" d="M201 0v1430h32v-318h482q456 0 456 -373q0 -103 -33 -176.5t-95.5 -115.5t-142.5 -61t-185 -19h-482v-367h-32zM233 399h482q72 0 130.5 8.5t114.5 31t94.5 60t61.5 98.5t23 142q0 82 -23 143.5t-61.5 98.5t-94.5 60t-114.5 31.5t-130.5 8.5h-482v-682z" />
<glyph unicode="&#xdf;" horiz-adv-x="1007" d="M145 0v1032q0 89 14 157.5t46.5 123.5t90.5 84.5t140 29.5q74 0 128 -21t83 -58t42 -79t13 -91q0 -42 -19 -79t-48.5 -65t-66 -54t-73 -50t-66 -49t-48.5 -56.5t-19 -66.5q0 -62 31 -103.5t80.5 -63t109.5 -37.5t120 -35.5t109.5 -47t80.5 -81t31 -130.5 q0 -129 -88 -203.5t-209 -74.5q-123 0 -202 49.5t-136 173.5l28 16q51 -110 122.5 -159.5t187.5 -49.5q46 0 90.5 14t85 42t65.5 78t25 114q0 71 -31 119.5t-80.5 73t-109.5 42t-119.5 34.5t-109 41.5t-80.5 71.5t-31 116q0 53 35 98.5t85 79l100 67t85 78.5t35 97 q0 106 -60.5 163.5t-175.5 57.5q-63 0 -110 -20.5t-75.5 -54t-45.5 -83t-23 -99.5t-6 -112v-1030h-31z" />
<glyph unicode="&#xe0;" horiz-adv-x="950" d="M94 262q0 128 94.5 201.5t227.5 71.5h1h1h1h1h1h1h1h1h1h1h1h1h1h1h1h1h1h1h1h1h1h1h1h1h2h1h1h1h1h1h1h1h1h1h1h2h1h1h1h1h2h1h1h1h2h1h1h2h1h1h2h1h1h2h1h2h1h1h2h1h2h1h2h1h2h1h2h1h2h1h2h1h2h2h1h2h1h2h2h1h2h1h2h2h1h2h2h2h1h2h2h1h2h2h2h1h2h2h2h1h2h2h2h2h2h9 q91 0 129 11q51 15 88 52v131q0 72 -46.5 127.5t-111 82t-130.5 26.5q-48 0 -93 -9t-88 -28.5t-77.5 -54t-53.5 -80.5l-30 10q92 194 350 194q121 0 217 -75t96 -189v-590l27 -147l-25 -4l-35 135q-93 -82 -171.5 -114.5t-178.5 -32.5q-151 0 -246.5 73t-95.5 209zM131 262 q0 -63 26 -112.5t69.5 -78t96.5 -43t111 -14.5q107 0 189 37.5t163 120.5v381q-67 -36 -100.5 -44.5t-85.5 -8.5h-186q-54 0 -103 -14t-90 -41.5t-65.5 -74.5t-24.5 -108zM350 1386h74l172 -294h-59z" />
<glyph unicode="&#xe1;" horiz-adv-x="950" d="M94 262q0 128 94.5 201.5t227.5 71.5h1h1h1h1h1h1h1h1h1h1h1h1h1h1h1h1h1h1h1h1h1h1h1h1h2h1h1h1h1h1h1h1h1h1h1h2h1h1h1h1h2h1h1h1h2h1h1h2h1h1h2h1h1h2h1h2h1h1h2h1h2h1h2h1h2h1h2h1h2h1h2h1h2h2h1h2h1h2h2h1h2h1h2h2h1h2h2h2h1h2h2h1h2h2h2h1h2h2h2h1h2h2h2h2h2h9 q91 0 129 11q51 15 88 52v131q0 72 -46.5 127.5t-111 82t-130.5 26.5q-48 0 -93 -9t-88 -28.5t-77.5 -54t-53.5 -80.5l-30 10q92 194 350 194q121 0 217 -75t96 -189v-590l27 -147l-25 -4l-35 135q-93 -82 -171.5 -114.5t-178.5 -32.5q-151 0 -246.5 73t-95.5 209zM131 262 q0 -63 26 -112.5t69.5 -78t96.5 -43t111 -14.5q107 0 189 37.5t163 120.5v381q-67 -36 -100.5 -44.5t-85.5 -8.5h-186q-54 0 -103 -14t-90 -41.5t-65.5 -74.5t-24.5 -108zM350 1092l172 294h74l-184 -294h-62z" />
<glyph unicode="&#xe2;" horiz-adv-x="950" d="M94 262q0 128 94.5 201.5t227.5 71.5h1h1h1h1h1h1h1h1h1h1h1h1h1h1h1h1h1h1h1h1h1h1h1h1h2h1h1h1h1h1h1h1h1h1h1h2h1h1h1h1h2h1h1h1h2h1h1h2h1h1h2h1h1h2h1h2h1h1h2h1h2h1h2h1h2h1h2h1h2h1h2h1h2h2h1h2h1h2h2h1h2h1h2h2h1h2h2h2h1h2h2h1h2h2h2h1h2h2h2h1h2h2h2h2h2h9 q91 0 129 11q51 15 88 52v131q0 72 -46.5 127.5t-111 82t-130.5 26.5q-48 0 -93 -9t-88 -28.5t-77.5 -54t-53.5 -80.5l-30 10q92 194 350 194q121 0 217 -75t96 -189v-590l27 -147l-25 -4l-35 135q-93 -82 -171.5 -114.5t-178.5 -32.5q-151 0 -246.5 73t-95.5 209zM131 262 q0 -63 26 -112.5t69.5 -78t96.5 -43t111 -14.5q107 0 189 37.5t163 120.5v381q-67 -36 -100.5 -44.5t-85.5 -8.5h-186q-54 0 -103 -14t-90 -41.5t-65.5 -74.5t-24.5 -108zM246 1090l198 299h60l198 -299h-61l-168 264l-168 -264h-59z" />
<glyph unicode="&#xe3;" horiz-adv-x="950" d="M94 262q0 128 94.5 201.5t227.5 71.5h1h1h1h1h1h1h1h1h1h1h1h1h1h1h1h1h1h1h1h1h1h1h1h1h2h1h1h1h1h1h1h1h1h1h1h2h1h1h1h1h2h1h1h1h2h1h1h2h1h1h2h1h1h2h1h2h1h1h2h1h2h1h2h1h2h1h2h1h2h1h2h1h2h2h1h2h1h2h2h1h2h1h2h2h1h2h2h2h1h2h2h1h2h2h2h1h2h2h2h1h2h2h2h2h2h9 q91 0 129 11q51 15 88 52v131q0 72 -46.5 127.5t-111 82t-130.5 26.5q-48 0 -93 -9t-88 -28.5t-77.5 -54t-53.5 -80.5l-30 10q92 194 350 194q121 0 217 -75t96 -189v-590l27 -147l-25 -4l-35 135q-93 -82 -171.5 -114.5t-178.5 -32.5q-151 0 -246.5 73t-95.5 209zM131 262 q0 -63 26 -112.5t69.5 -78t96.5 -43t111 -14.5q107 0 189 37.5t163 120.5v381q-67 -36 -100.5 -44.5t-85.5 -8.5h-186q-54 0 -103 -14t-90 -41.5t-65.5 -74.5t-24.5 -108zM219 1178q32 47 62.5 69.5t72.5 22.5q40 0 74.5 -19t55.5 -41.5t49.5 -41.5t58.5 -19q36 0 59 17.5 t47 52.5l31 -35q-31 -47 -61 -68.5t-74 -21.5q-40 0 -74.5 19t-55.5 41t-49.5 41t-58.5 19q-36 0 -57.5 -17.5t-46.5 -53.5z" />
<glyph unicode="&#xe4;" horiz-adv-x="950" d="M94 262q0 128 94.5 201.5t227.5 71.5h1h1h1h1h1h1h1h1h1h1h1h1h1h1h1h1h1h1h1h1h1h1h1h1h2h1h1h1h1h1h1h1h1h1h1h2h1h1h1h1h2h1h1h1h2h1h1h2h1h1h2h1h1h2h1h2h1h1h2h1h2h1h2h1h2h1h2h1h2h1h2h1h2h2h1h2h1h2h2h1h2h1h2h2h1h2h2h2h1h2h2h1h2h2h2h1h2h2h2h1h2h2h2h2h2h9 q91 0 129 11q51 15 88 52v131q0 72 -46.5 127.5t-111 82t-130.5 26.5q-48 0 -93 -9t-88 -28.5t-77.5 -54t-53.5 -80.5l-30 10q92 194 350 194q121 0 217 -75t96 -189v-590l27 -147l-25 -4l-35 135q-93 -82 -171.5 -114.5t-178.5 -32.5q-151 0 -246.5 73t-95.5 209zM131 262 q0 -63 26 -112.5t69.5 -78t96.5 -43t111 -14.5q107 0 189 37.5t163 120.5v381q-67 -36 -100.5 -44.5t-85.5 -8.5h-186q-54 0 -103 -14t-90 -41.5t-65.5 -74.5t-24.5 -108zM242 1169q0 25 16 42.5t39 17.5q25 0 42 -17.5t17 -42.5q0 -23 -17 -39t-42 -16q-23 0 -39 16t-16 39 zM592 1169q0 25 18 42.5t41 17.5q25 0 41.5 -17.5t16.5 -42.5q0 -23 -16.5 -39t-41.5 -16q-24 0 -41.5 16t-17.5 39z" />
<glyph unicode="&#xe5;" horiz-adv-x="950" d="M94 262q0 128 94.5 201.5t227.5 71.5h1h1h1h1h1h1h1h1h1h1h1h1h1h1h1h1h1h1h1h1h1h1h1h1h2h1h1h1h1h1h1h1h1h1h1h2h1h1h1h1h2h1h1h1h2h1h1h2h1h1h2h1h1h2h1h2h1h1h2h1h2h1h2h1h2h1h2h1h2h1h2h1h2h2h1h2h1h2h2h1h2h1h2h2h1h2h2h2h1h2h2h1h2h2h2h1h2h2h2h1h2h2h2h2h2h9 q91 0 129 11q51 15 88 52v131q0 72 -46.5 127.5t-111 82t-130.5 26.5q-48 0 -93 -9t-88 -28.5t-77.5 -54t-53.5 -80.5l-30 10q92 194 350 194q121 0 217 -75t96 -189v-590l27 -147l-25 -4l-35 135q-93 -82 -171.5 -114.5t-178.5 -32.5q-151 0 -246.5 73t-95.5 209zM131 262 q0 -63 26 -112.5t69.5 -78t96.5 -43t111 -14.5q107 0 189 37.5t163 120.5v381q-67 -36 -100.5 -44.5t-85.5 -8.5h-186q-54 0 -103 -14t-90 -41.5t-65.5 -74.5t-24.5 -108zM291 1284q0 75 55 129.5t131 54.5q75 0 130 -54.5t55 -129.5t-55 -130.5t-130 -55.5q-76 0 -131 55.5 t-55 130.5zM348 1284q0 -54 37.5 -91.5t91.5 -37.5q53 0 90 37.5t37 91.5q0 52 -37 89.5t-90 37.5q-54 0 -91.5 -37t-37.5 -90z" />
<glyph unicode="&#xe6;" horiz-adv-x="1597" d="M80 262q0 125 91 199t220 74h150q33 0 51.5 1t50 7t57.5 22t48 41v115q0 72 -47 128t-108.5 81.5t-119.5 25.5q-226 0 -303 -172l-29 11q78 192 336 192q100 0 187 -54.5t124 -168.5q70 126 160.5 174.5t206.5 48.5q93 0 163.5 -33.5t112 -94.5t62 -139t20.5 -173v-55 h-733q0 -109 19.5 -192.5t63.5 -150t123 -102t190 -35.5q182 0 274 105l23 -19q-57 -69 -132 -92.5t-165 -23.5q-47 0 -86.5 5.5t-93.5 23.5t-103 60.5t-88 106.5q-107 -108 -192 -153t-203 -45q-147 0 -238.5 73t-91.5 209zM115 260q0 -65 26.5 -114.5t70 -77.5t94 -42 t104.5 -14q113 0 201.5 47.5t183.5 153.5q-47 127 -47 342q-78 -55 -177 -55h-180q-116 0 -196 -61.5t-80 -178.5zM778 530h703q-8 426 -326 426q-172 0 -271.5 -113.5t-105.5 -312.5z" />
<glyph unicode="&#xe7;" horiz-adv-x="940" d="M94 487q0 108 26.5 199t78 161t136 109t193.5 39q101 0 169.5 -29t136.5 -98l-23 -16q-62 62 -126.5 90.5t-156.5 28.5q-87 0 -156.5 -27.5t-113.5 -73t-73.5 -109t-41.5 -131t-12 -143.5q0 -75 12 -142.5t41.5 -130.5t73.5 -108t113.5 -72.5t156.5 -27.5 q92 0 156.5 28.5t126.5 92.5l23 -18q-68 -68 -131.5 -96t-155.5 -29l63 -148l-127 -235h-61l153 241l-59 142q-106 2 -187.5 42t-132 108.5t-76.5 158t-26 194.5z" />
<glyph unicode="&#xe8;" horiz-adv-x="972" d="M94 487q0 112 21.5 200t68.5 158t129.5 108t196.5 38q96 0 168.5 -33.5t115.5 -94t64 -138t21 -170.5v-57h-750q0 -113 20 -198.5t65.5 -152t124.5 -101t191 -34.5q94 0 161.5 23.5t119.5 81.5l29 -19q-102 -116 -310 -116q-119 0 -205 36t-135.5 105t-72.5 158.5 t-23 205.5zM129 537h717q-1 91 -18.5 164.5t-54.5 134t-104 94t-159 33.5q-355 0 -381 -426zM365 1386h73l170 -294h-59z" />
<glyph unicode="&#xe9;" horiz-adv-x="972" d="M94 487q0 112 21.5 200t68.5 158t129.5 108t196.5 38q96 0 168.5 -33.5t115.5 -94t64 -138t21 -170.5v-57h-750q0 -113 20 -198.5t65.5 -152t124.5 -101t191 -34.5q94 0 161.5 23.5t119.5 81.5l29 -19q-102 -116 -310 -116q-119 0 -205 36t-135.5 105t-72.5 158.5 t-23 205.5zM129 537h717q-1 91 -18.5 164.5t-54.5 134t-104 94t-159 33.5q-355 0 -381 -426zM365 1092l172 294h71l-184 -294h-59z" />
<glyph unicode="&#xea;" horiz-adv-x="972" d="M94 487q0 112 21.5 200t68.5 158t129.5 108t196.5 38q96 0 168.5 -33.5t115.5 -94t64 -138t21 -170.5v-57h-750q0 -113 20 -198.5t65.5 -152t124.5 -101t191 -34.5q94 0 161.5 23.5t119.5 81.5l29 -19q-102 -116 -310 -116q-119 0 -205 36t-135.5 105t-72.5 158.5 t-23 205.5zM129 537h717q-1 91 -18.5 164.5t-54.5 134t-104 94t-159 33.5q-355 0 -381 -426zM260 1090l197 299h59l201 -299h-64l-168 264l-166 -264h-59z" />
<glyph unicode="&#xeb;" horiz-adv-x="972" d="M94 487q0 112 21.5 200t68.5 158t129.5 108t196.5 38q96 0 168.5 -33.5t115.5 -94t64 -138t21 -170.5v-57h-750q0 -113 20 -198.5t65.5 -152t124.5 -101t191 -34.5q94 0 161.5 23.5t119.5 81.5l29 -19q-102 -116 -310 -116q-119 0 -205 36t-135.5 105t-72.5 158.5 t-23 205.5zM129 537h717q-1 91 -18.5 164.5t-54.5 134t-104 94t-159 33.5q-355 0 -381 -426zM254 1169q0 25 16.5 42.5t40.5 17.5t42 -18t18 -42q0 -23 -18 -39t-42 -16q-25 0 -41 16t-16 39zM606 1169q0 25 17.5 42.5t42.5 17.5q23 0 39 -17.5t16 -42.5q0 -23 -16 -39 t-39 -16q-25 0 -42.5 16t-17.5 39z" />
<glyph unicode="&#xec;" horiz-adv-x="403" d="M-2 1386h74l172 -294h-62zM182 0v975h35v-975h-35z" />
<glyph unicode="&#xed;" horiz-adv-x="403" d="M156 1092l172 294h73l-186 -294h-59zM184 0v975h33v-975h-33z" />
<glyph unicode="&#xee;" horiz-adv-x="403" d="M-27 1090l197 299h61l199 -299h-61l-170 264l-166 -264h-60zM182 0v975h35v-975h-35z" />
<glyph unicode="&#xef;" horiz-adv-x="403" d="M-33 1169q0 25 16.5 42.5t41.5 17.5t42 -17.5t17 -42.5q0 -23 -17 -39t-42 -16t-41.5 16t-16.5 39zM182 0v975h35v-975h-35zM319 1169q0 25 17.5 42.5t42.5 17.5q24 0 40.5 -17.5t16.5 -42.5q0 -23 -16 -39t-41 -16t-42.5 16t-17.5 39z" />
<glyph unicode="&#xf0;" horiz-adv-x="1050" d="M121 473q0 87 12 158.5t41 135.5t74 107t115.5 68t162.5 25q126 0 260 -64l-151 330h-252v27h242l-127 276h28l125 -276h180v-27h-167q15 -32 50.5 -108t52.5 -111.5t46 -92.5t57 -106q60 -111 60 -342q0 -109 -19.5 -194t-64.5 -154t-125.5 -106t-194.5 -37 q-91 0 -161 24.5t-116 67t-75 105.5t-41 134.5t-12 159.5zM156 473q0 -76 8 -137t32 -123.5t63.5 -104t107 -68t157.5 -26.5t157 26t107 68t65 103.5t33.5 123.5t8.5 138t-8 137.5t-32.5 124.5t-64 105.5t-107 69t-157.5 26.5q-91 0 -158.5 -26.5t-107 -68.5t-64 -105 t-32.5 -124.5t-8 -138.5z" />
<glyph unicode="&#xf1;" horiz-adv-x="1024" d="M145 0v975h35v-180q38 71 97 117t116 62.5t119 16.5q389 0 389 -436v-555h-29v557q0 92 -17 162.5t-57 127t-112 86.5t-174 30q-139 0 -237.5 -90.5t-98.5 -196.5v-676h-31zM256 1178q32 47 62.5 69.5t72.5 22.5q40 0 74.5 -19t55.5 -41.5t49.5 -41.5t58.5 -19 q36 0 59 17.5t47 52.5l31 -35q-31 -47 -62 -68.5t-73 -21.5q-40 0 -74.5 19t-55.5 41t-49.5 41t-58.5 19q-36 0 -57.5 -17.5t-46.5 -53.5z" />
<glyph unicode="&#xf2;" d="M94 485q0 113 20 201t65 158.5t126 108.5t195 38q112 0 192 -38t124.5 -108.5t64.5 -158.5t20 -201q0 -503 -401 -503q-406 0 -406 503zM127 485q0 -79 8 -142.5t32 -128t64 -107.5t108 -70t159 -27t158.5 27t107.5 70.5t64.5 107.5t33 127.5t8.5 142.5t-8 143t-32.5 129 t-64 108.5t-107 70.5t-158.5 27q-92 0 -160.5 -27.5t-108.5 -70.5t-64 -108t-32 -128.5t-8 -143.5zM375 1386h74l172 -294h-60z" />
<glyph unicode="&#xf3;" d="M94 485q0 113 20 201t65 158.5t126 108.5t195 38q112 0 192 -38t124.5 -108.5t64.5 -158.5t20 -201q0 -503 -401 -503q-406 0 -406 503zM127 485q0 -79 8 -142.5t32 -128t64 -107.5t108 -70t159 -27t158.5 27t107.5 70.5t64.5 107.5t33 127.5t8.5 142.5t-8 143t-32.5 129 t-64 108.5t-107 70.5t-158.5 27q-92 0 -160.5 -27.5t-108.5 -70.5t-64 -108t-32 -128.5t-8 -143.5zM375 1092l172 294h74l-187 -294h-59z" />
<glyph unicode="&#xf4;" d="M94 485q0 113 20 201t65 158.5t126 108.5t195 38q112 0 192 -38t124.5 -108.5t64.5 -158.5t20 -201q0 -503 -401 -503q-406 0 -406 503zM127 485q0 -79 8 -142.5t32 -128t64 -107.5t108 -70t159 -27t158.5 27t107.5 70.5t64.5 107.5t33 127.5t8.5 142.5t-8 143t-32.5 129 t-64 108.5t-107 70.5t-158.5 27q-92 0 -160.5 -27.5t-108.5 -70.5t-64 -108t-32 -128.5t-8 -143.5zM270 1090l197 299h61l199 -299h-61l-168 264l-168 -264h-60z" />
<glyph unicode="&#xf5;" d="M94 485q0 113 20 201t65 158.5t126 108.5t195 38q112 0 192 -38t124.5 -108.5t64.5 -158.5t20 -201q0 -503 -401 -503q-406 0 -406 503zM127 485q0 -79 8 -142.5t32 -128t64 -107.5t108 -70t159 -27t158.5 27t107.5 70.5t64.5 107.5t33 127.5t8.5 142.5t-8 143t-32.5 129 t-64 108.5t-107 70.5t-158.5 27q-92 0 -160.5 -27.5t-108.5 -70.5t-64 -108t-32 -128.5t-8 -143.5zM244 1178q32 47 62.5 69.5t72.5 22.5q40 0 74.5 -19t55 -41.5t49 -41.5t58.5 -19q36 0 59.5 17.5t47.5 52.5l31 -35q-31 -46 -62 -68t-74 -22q-40 0 -74.5 19t-55 41t-49 41 t-58.5 19q-36 0 -58 -17.5t-47 -53.5z" />
<glyph unicode="&#xf6;" d="M94 485q0 113 20 201t65 158.5t126 108.5t195 38q112 0 192 -38t124.5 -108.5t64.5 -158.5t20 -201q0 -503 -401 -503q-406 0 -406 503zM127 485q0 -79 8 -142.5t32 -128t64 -107.5t108 -70t159 -27t158.5 27t107.5 70.5t64.5 107.5t33 127.5t8.5 142.5t-8 143t-32.5 129 t-64 108.5t-107 70.5t-158.5 27q-92 0 -160.5 -27.5t-108.5 -70.5t-64 -108t-32 -128.5t-8 -143.5zM264 1169q0 25 16.5 42.5t41.5 17.5t42 -17.5t17 -42.5q0 -23 -17 -39t-42 -16t-41.5 16t-16.5 39zM616 1169q0 25 17.5 42.5t42.5 17.5q24 0 40.5 -17.5t16.5 -42.5 q0 -23 -16 -39t-41 -16t-42.5 16t-17.5 39z" />
<glyph unicode="&#xf7;" horiz-adv-x="1024" d="M113 541v41h798v-41h-798zM446 221q0 25 18.5 42.5t43.5 17.5t42 -17.5t17 -42.5q0 -26 -17 -44.5t-42 -18.5t-43.5 18.5t-18.5 44.5zM446 901q0 25 18.5 44.5t43.5 19.5q24 0 41.5 -19.5t17.5 -44.5t-17 -42t-42 -17t-43.5 17.5t-18.5 41.5z" />
<glyph unicode="&#xf8;" horiz-adv-x="983" d="M94 483q0 89 12 162t41 138t74.5 109t116 69.5t162.5 25.5q135 0 252 -67l30 55h31l-45 -74q133 -138 133 -418q0 -112 -20 -199t-64.5 -157t-124.5 -107.5t-192 -37.5q-143 0 -260 71l-29 -49h-29l41 70q-129 140 -129 409zM125 483q0 -114 24 -209.5t89 -181.5l493 803 q-112 63 -231 63q-92 0 -160.5 -27t-109 -70t-64.5 -107t-32.5 -128t-8.5 -143zM260 76q110 -66 238 -66q91 1 158.5 28t108 69.5t64.5 106.5t32.5 127t8.5 142q0 122 -23.5 218t-92.5 182z" />
<glyph unicode="&#xf9;" horiz-adv-x="1013" d="M125 406v569h31v-572q0 -95 16.5 -163.5t56 -121.5t110 -79.5t173.5 -26.5q70 0 146.5 31t135 96t58.5 146v690h29v-975h-35l2 164q-134 -180 -336 -180q-209 0 -298 102.5t-89 319.5zM383 1386h74l172 -294h-62z" />
<glyph unicode="&#xfa;" horiz-adv-x="1013" d="M125 406v569h31v-572q0 -95 16.5 -163.5t56 -121.5t110 -79.5t173.5 -26.5q70 0 146.5 31t135 96t58.5 146v690h29v-975h-35l2 164q-134 -180 -336 -180q-209 0 -298 102.5t-89 319.5zM383 1092l172 294h74l-187 -294h-59z" />
<glyph unicode="&#xfb;" horiz-adv-x="1013" d="M125 406v569h31v-572q0 -95 16.5 -163.5t56 -121.5t110 -79.5t173.5 -26.5q70 0 146.5 31t135 96t58.5 146v690h29v-975h-35l2 164q-134 -180 -336 -180q-209 0 -298 102.5t-89 319.5zM279 1090l196 299h60l200 -299h-61l-170 264l-166 -264h-59z" />
<glyph unicode="&#xfc;" horiz-adv-x="1013" d="M125 406v569h31v-572q0 -95 16.5 -163.5t56 -121.5t110 -79.5t173.5 -26.5q70 0 146.5 31t135 96t58.5 146v690h29v-975h-35l2 164q-134 -180 -336 -180q-209 0 -298 102.5t-89 319.5zM272 1169q0 25 16.5 42.5t41.5 17.5t42 -17.5t17 -42.5q0 -23 -17 -39t-42 -16 t-41.5 16t-16.5 39zM625 1169q0 25 17 42.5t42 17.5q24 0 40.5 -17.5t16.5 -42.5q0 -23 -16 -39t-41 -16t-42 16t-17 39z" />
<glyph unicode="&#xfd;" horiz-adv-x="901" d="M55 975h31l367 -938l362 938h31l-473 -1239q-78 -190 -244 -187h-14v33h14q151 0 211 166l94 244zM328 1092l172 294h73l-186 -294h-59z" />
<glyph unicode="&#xfe;" horiz-adv-x="1038" d="M190 -453v1883h29v-639q113 180 338 180q111 0 188.5 -37.5t120 -107.5t60.5 -153.5t18 -191.5q0 -106 -18 -188.5t-59.5 -152.5t-119.5 -108t-188 -38q-100 0 -191 38.5t-149 129.5v-615h-29zM219 322q0 -135 99.5 -218.5t238.5 -83.5q64 0 117 14.5t89.5 38.5t64 60 t44 74.5t26.5 86.5t13.5 92t3.5 95t-3.5 95t-13.5 92.5t-26 87.5t-43.5 75.5t-64.5 61t-89.5 39t-117.5 14.5q-138 0 -238 -83.5t-100 -219.5v-321z" />
<glyph unicode="&#xff;" horiz-adv-x="901" d="M55 975h31l367 -938l362 938h31l-473 -1239q-78 -190 -244 -187h-14v33h14q151 0 211 166l94 244zM217 1169q0 25 16.5 42.5t40.5 17.5q25 0 42.5 -17.5t17.5 -42.5q0 -23 -17.5 -39t-42.5 -16t-41 16t-16 39zM569 1169q0 25 17.5 42.5t42.5 17.5q23 0 40 -17.5t17 -42.5 q0 -23 -17 -39t-40 -16q-25 0 -42.5 16t-17.5 39z" />
<glyph unicode="&#x152;" horiz-adv-x="2060" d="M94 715q0 117 16.5 220t56 199t100 164t155.5 109t215 41q60 0 118.5 -11.5t119.5 -39.5t112 -70t94.5 -109t67.5 -151v363h797v-35h-762v-631h657v-35h-657v-694h762v-35h-797v375q-35 -112 -93.5 -192t-129.5 -122t-141.5 -60.5t-147.5 -18.5q-120 0 -215 41 t-155.5 109.5t-100 164.5t-56 198.5t-16.5 219.5zM125 715q0 -73 6.5 -140.5t22.5 -138.5t41.5 -131.5t65.5 -114.5t92 -92t124.5 -60t159.5 -22t159.5 22t124.5 60t92.5 92t65.5 114t41 131.5t22.5 139t6.5 140.5t-6.5 140.5t-22.5 138.5t-41 131t-65.5 114.5t-92.5 92 t-124.5 59.5t-159.5 22q-101 0 -182 -29t-136 -81t-94 -117.5t-60 -147t-30.5 -159.5t-9.5 -164z" />
<glyph unicode="&#x153;" horiz-adv-x="1695" d="M94 483q0 89 11.5 162t39.5 138t72 109t112 69.5t156 25.5q264 0 377 -276q64 148 160 212t223 64q92 0 162 -33t112 -92t63 -137t20 -172v-61h-725q2 -113 21.5 -197t63.5 -149.5t120.5 -99.5t185.5 -34q185 0 284 107l25 -19q-53 -60 -135.5 -89t-173.5 -29 q-288 0 -406 274q-113 -274 -377 -274q-391 0 -391 501zM123 483q0 -79 8 -142.5t32 -127t62.5 -106.5t105 -70t154.5 -27t154 27t105 70t63 106.5t32.5 127.5t8.5 142q0 79 -8 143t-32 128t-63 107t-105.5 70t-154.5 27t-154.5 -27t-105 -70t-62.5 -107t-32 -128t-8 -143z M879 530h692q-1 92 -18 165.5t-53 134t-100 93.5t-153 33q-345 0 -368 -426z" />
<glyph unicode="&#x178;" horiz-adv-x="1122" d="M72 1430h37l452 -916l455 916h37l-473 -957v-473h-35v473zM326 1622q0 25 16 42t41 17t42 -17t17 -42q0 -23 -17 -39t-42 -16t-41 16t-16 39zM678 1622q0 25 17 42t42 17t41.5 -17t16.5 -42q0 -23 -16.5 -39t-41.5 -16t-42 16t-17 39z" />
<glyph unicode="&#x2c6;" horiz-adv-x="1013" d="M274 1090l197 299h59l201 -299h-63l-168 264l-166 -264h-60z" />
<glyph unicode="&#x2dc;" horiz-adv-x="1005" d="M244 1178q32 47 62 69.5t73 22.5q39 0 73 -19t54.5 -41.5t49 -41.5t58.5 -19q26 0 46.5 10.5t32.5 23t28 36.5l31 -35q-29 -46 -60.5 -68t-75.5 -22q-40 0 -74 19t-54.5 41t-48.5 41t-58 19q-36 0 -59.5 -18t-47.5 -53z" />
<glyph unicode="&#x2000;" horiz-adv-x="960" />
<glyph unicode="&#x2001;" horiz-adv-x="1921" />
<glyph unicode="&#x2002;" horiz-adv-x="960" />
<glyph unicode="&#x2003;" horiz-adv-x="1921" />
<glyph unicode="&#x2004;" horiz-adv-x="640" />
<glyph unicode="&#x2005;" horiz-adv-x="480" />
<glyph unicode="&#x2006;" horiz-adv-x="320" />
<glyph unicode="&#x2007;" horiz-adv-x="320" />
<glyph unicode="&#x2008;" horiz-adv-x="240" />
<glyph unicode="&#x2009;" horiz-adv-x="384" />
<glyph unicode="&#x200a;" horiz-adv-x="106" />
<glyph unicode="&#x2010;" horiz-adv-x="786" d="M135 541v43h518v-43h-518z" />
<glyph unicode="&#x2011;" horiz-adv-x="786" d="M135 541v43h518v-43h-518z" />
<glyph unicode="&#x2012;" horiz-adv-x="786" d="M135 541v43h518v-43h-518z" />
<glyph unicode="&#x2013;" horiz-adv-x="1015" d="M113 541v43h792v-43h-792z" />
<glyph unicode="&#x2014;" horiz-adv-x="1650" d="M113 541v43h1425v-43h-1425z" />
<glyph unicode="&#x2018;" horiz-adv-x="456" d="M180 1182l15 90l108 203h6l-14 -291q-2 -24 -18.5 -42t-40.5 -18q-23 0 -41 18t-15 40z" />
<glyph unicode="&#x2019;" horiz-adv-x="456" d="M176 1124l14 291q2 24 19 42t41 18q23 0 40.5 -18t14.5 -40l-14 -90l-109 -203h-6z" />
<glyph unicode="&#x201a;" horiz-adv-x="456" d="M166 -174l12 289q0 25 17.5 42t40.5 17q25 0 43.5 -16.5t15.5 -40.5l-12 -88l-113 -203h-4z" />
<glyph unicode="&#x201c;" horiz-adv-x="706" d="M147 1182l15 90l108 203h6l-14 -291q-2 -24 -18.5 -42t-40.5 -18q-23 0 -41 18t-15 40zM438 1182l15 90l108 203h6l-14 -291q-2 -24 -18.5 -42t-40.5 -18q-23 0 -41 18t-15 40z" />
<glyph unicode="&#x201d;" horiz-adv-x="706" d="M143 1124l15 291q2 24 18.5 42t40.5 18q23 0 40.5 -18t14.5 -40l-14 -90l-108 -203h-7zM434 1124l15 291q2 24 18.5 42t40.5 18q23 0 40.5 -18t14.5 -40l-14 -90l-109 -203h-6z" />
<glyph unicode="&#x201e;" horiz-adv-x="706" d="M143 -209l15 291q2 24 18.5 41.5t40.5 17.5q23 0 40.5 -17.5t14.5 -39.5l-14 -90l-108 -203h-7zM434 -209l15 291q2 24 18.5 41.5t40.5 17.5q23 0 40.5 -17.5t14.5 -39.5l-14 -90l-109 -203h-6z" />
<glyph unicode="&#x2022;" horiz-adv-x="843" d="M125 694q0 122 87 208.5t210 86.5q124 0 209.5 -86.5t85.5 -208.5q0 -124 -85.5 -210.5t-209.5 -86.5q-123 0 -210 87t-87 210z" />
<glyph unicode="&#x2026;" horiz-adv-x="927" d="M156 41q0 23 17 40t40 17q24 0 39.5 -16.5t15.5 -40.5q0 -25 -15 -41t-40 -16q-24 0 -40.5 16.5t-16.5 40.5zM408 41q0 23 16 40t39 17q24 0 40.5 -16.5t16.5 -40.5q0 -25 -16 -41t-41 -16q-23 0 -39 16t-16 41zM659 41q0 23 16.5 40t39.5 17t40 -17t17 -40 q0 -24 -16.5 -40.5t-40.5 -16.5q-23 0 -39.5 16t-16.5 41z" />
<glyph unicode="&#x202f;" horiz-adv-x="384" />
<glyph unicode="&#x2039;" horiz-adv-x="602" d="M90 492v77l402 363l-3 -53l-385 -349l385 -348v-51z" />
<glyph unicode="&#x203a;" horiz-adv-x="602" d="M92 131v51l381 348l-381 349v53l400 -363v-77z" />
<glyph unicode="&#x205f;" horiz-adv-x="480" />
<glyph unicode="&#x20ac;" horiz-adv-x="1167" d="M98 510l6 37h136q-9 143 -7 248h-135l6 36h129q7 102 30.5 191t68 168.5t106.5 136t151.5 89t198.5 32.5q187 0 310 -105l-11 -32q-65 56 -134.5 79t-164.5 23q-123 0 -220 -45t-159 -125t-97.5 -183.5t-45.5 -228.5h561l-6 -36h-555q0 -165 6 -248h555l-6 -37h-549 q39 -228 172.5 -361t343.5 -133q94 0 163 23t134 78l13 -33q-123 -102 -310 -102q-224 0 -366.5 143.5t-177.5 384.5h-146z" />
<glyph unicode="&#x2122;" horiz-adv-x="991" d="M84 1393v37h328v-37h-148v-394h-33v394h-147zM477 999v431h39l156 -402l157 402h41v-431h-34v363l-140 -363h-47l-139 363v-363h-33z" />
<glyph unicode="&#x25fc;" horiz-adv-x="972" d="M0 0v973h973v-973h-973z" />
</font>
</defs>
</svg>
