<?xml version="1.0" standalone="no"?>
<!DOCTYPE svg PUBLIC "-//W3C//DTD SVG 1.1//EN" "http://www.w3.org/Graphics/SVG/1.1/DTD/svg11.dtd" >
<svg xmlns="http://www.w3.org/2000/svg" xmlns:xlink="http://www.w3.org/1999/xlink" version="1.1">
<metadata></metadata>
<defs>
<font id="aaux_nextregular_italic" horiz-adv-x="954" >
<font-face units-per-em="2048" ascent="1638" descent="-410" />
<missing-glyph horiz-adv-x="546" />
<glyph unicode="&#xfb01;" horiz-adv-x="1044" d="M-266 -457l22 105q60 2 110 20.5t83.5 47t59 68.5t40 79t23.5 84l204 938h-98l21 104h102q20 85 44 149.5t61.5 121t86 93t117 57t154.5 20.5l-23 -105q-46 0 -84.5 -10.5t-67 -26.5t-53 -43t-41 -53.5t-31.5 -64t-24 -67.5t-20 -71h567l-225 -989h-121l203 885h-447 l-204 -930q-89 -412 -459 -412zM913 1343q4 41 40 73t77 32q37 0 58 -24.5t16 -61.5q-3 -41 -38 -71.5t-77 -30.5q-36 0 -58 24t-18 59z" />
<glyph unicode="&#xfb02;" horiz-adv-x="1050" d="M-266 -457l22 105q60 2 110 20.5t83.5 47t59 68.5t40 79t23.5 84l204 938h-98l21 104h102q20 85 44 149.5t61.5 121t86 93t117 57t154.5 20.5h328l-277 -1190q-15 -58 -1 -92t71 -42l-25 -106q-114 6 -152 64t-14 167l254 1094h-207q-46 0 -84.5 -10.5t-67 -26.5t-53 -43 t-41 -53.5t-31.5 -64t-24 -67.5t-20 -71h217l-25 -104h-215l-204 -930q-89 -412 -459 -412z" />
<glyph unicode="&#xfb03;" horiz-adv-x="1603" d="M-266 -457l22 105q60 2 110 20.5t83.5 47t59 68.5t40 79t23.5 84l204 938h-98l21 104h102q20 85 44 149.5t61.5 121t86 93t117 57t154.5 20.5l-23 -105q-46 0 -84.5 -10.5t-67 -26.5t-53 -43t-41 -53.5t-31.5 -64t-24 -67.5t-20 -71h440q20 85 44 149.5t61.5 121t86 93 t117 57t154.5 20.5l-23 -105q-46 0 -84.5 -10.5t-67 -26.5t-53 -43t-41 -53.5t-31.5 -64t-24 -67.5t-20 -71h567l-225 -989h-121l203 885h-447l-204 -930q-89 -412 -459 -412l22 105q60 2 110 20.5t83.5 47t59 68.5t40 79t23.5 84l205 938h-439l-204 -930 q-89 -412 -459 -412zM1473 1343q5 41 40 73t76 32q37 0 58 -24.5t16 -61.5q-3 -41 -38 -71.5t-77 -30.5q-36 0 -57.5 24t-17.5 59z" />
<glyph unicode="&#xfb04;" horiz-adv-x="1609" d="M-266 -457l22 105q60 2 110 20.5t83.5 47t59 68.5t40 79t23.5 84l204 938h-98l21 104h102q20 85 44 149.5t61.5 121t86 93t117 57t154.5 20.5l-23 -105q-46 0 -84.5 -10.5t-67 -26.5t-53 -43t-41 -53.5t-31.5 -64t-24 -67.5t-20 -71h440q20 85 44 149.5t61.5 121t86 93 t117 57t154.5 20.5h328l-275 -1190q-17 -58 -3 -91.5t71 -42.5l-25 -106q-113 6 -151.5 64.5t-12.5 166.5l252 1094h-207q-46 0 -84.5 -10.5t-67 -26.5t-53 -43t-41 -53.5t-31.5 -64t-24 -67.5t-20 -71h217l-25 -104h-215l-204 -930q-89 -412 -459 -412l22 105 q60 2 110 20.5t83.5 47t59 68.5t40 79t23.5 84l205 938h-439l-204 -930q-89 -412 -459 -412z" />
<glyph horiz-adv-x="0" />
<glyph horiz-adv-x="682" />
<glyph unicode=" "  horiz-adv-x="546" />
<glyph unicode="&#x09;" horiz-adv-x="546" />
<glyph unicode="&#xa0;" horiz-adv-x="546" />
<glyph unicode="!" horiz-adv-x="559" d="M199 82q7 39 41 68.5t71 29.5q38 0 58 -29t12 -69q-9 -41 -42 -70.5t-71 -29.5q-37 0 -57.5 29.5t-11.5 70.5zM311 385l58 383l141 662h133l-141 -662l-103 -383h-88z" />
<glyph unicode="&#x22;" horiz-adv-x="589" d="M205 1106l69 328q4 29 28.5 50t51.5 21q26 0 41.5 -21t10.5 -50l-70 -328h-131zM510 1106l70 328q4 29 27.5 50t51.5 21q26 0 41.5 -21t10.5 -50l-70 -328h-131z" />
<glyph unicode="#" horiz-adv-x="1402" d="M184 434l47 105h236l143 352h-237l43 104h237l178 435h101l-178 -435h323l180 435h101l-180 -435h239l-45 -104h-237l-144 -352h240l-45 -105h-238l-176 -434h-100l176 434h-326l-176 -434h-100l178 434h-240zM567 539h324l145 352h-325z" />
<glyph unicode="$" horiz-adv-x="911" d="M82 414l100 24q8 -187 221 -213l103 486q-30 8 -52.5 15t-49 17t-46 20t-40.5 24.5t-34.5 30t-25.5 36.5t-17 44.5t-4.5 52.5t7.5 63q20 96 84 164.5t142 100.5t165 36l24 115h99l-25 -115q192 -23 250 -195l-90 -59q-41 122 -184 145l-88 -409q30 -9 54 -17t51.5 -19 t48.5 -23t42 -28t36 -33.5t27 -40.5t17 -49t4.5 -58t-8.5 -68q-31 -150 -150.5 -241.5t-265.5 -104.5l-22 -115h-99l25 117q-131 11 -212 85.5t-87 211.5zM339.5 979.5q-0.5 -16.5 3 -30.5t9 -25.5t15.5 -22t19 -18.5t24 -16t26.5 -13.5t30 -12t31 -10.5t32.5 -10l80 385 q-91 -4 -168.5 -51t-97.5 -141q-4 -18 -4.5 -34.5zM500 223q102 10 185.5 71t105.5 165q11 52 0.5 90.5t-42.5 63.5t-65.5 39.5t-85.5 29.5z" />
<glyph unicode="%" horiz-adv-x="1624" d="M311 906q0 68 17 147q13 62 33 117.5t51 107.5t69.5 89.5t91 60t111.5 22.5q73 0 121 -34t65.5 -90t19.5 -127t-16 -146q-17 -79 -46 -147t-72 -126t-105 -91.5t-135 -33.5q-74 0 -121.5 33.5t-65.5 91.5t-18 126zM404.5 954q-3.5 -46 3.5 -95.5t39 -78t88 -28.5 q178 0 245 301q9 41 13.5 78t2.5 79.5t-14.5 73t-42.5 50.5t-75 20t-83.5 -20t-63.5 -50.5t-45.5 -73t-31.5 -79t-20 -78.5q-12 -53 -15.5 -99zM410 0l882 1430h111l-883 -1430h-110zM922 231q-2 71 16 146q17 79 46 147t72 125.5t105 91t135 33.5q74 0 122 -33.5t66 -91 t18 -125.5t-17 -147q-16 -79 -45 -147t-71.5 -125.5t-104.5 -91t-136 -33.5q-73 0 -121 34t-65.5 90t-19.5 127zM1032 377q-62 -299 117 -299q55 0 99.5 28.5t72.5 77t44.5 94.5t27.5 99q12 53 15 99t-4 94.5t-39.5 77t-88.5 28.5q-177 0 -244 -299z" />
<glyph unicode="&#x26;" horiz-adv-x="1316" d="M119 340q24 155 112 261.5t252 203.5q-43 96 -60.5 169t-4.5 150q19 139 116 229.5t234 90.5q118 0 177 -72.5t42 -191.5q-10 -69 -40.5 -128t-81.5 -108.5t-104 -87.5t-128 -82q110 -237 285 -465q123 148 169 336h117q-60 -249 -217 -422q14 -16 42 -48.5t49.5 -57 t37.5 -41.5l-90 -86q-44 46 -127 145q-190 -155 -432 -155q-111 0 -195.5 40.5t-127.5 123.5t-25 196zM242 360q-23 -126 55.5 -197t200.5 -71q177 0 338 131q-175 222 -304 490q-86 -51 -139.5 -94.5t-94.5 -109t-56 -149.5zM537 1135q-23 -120 53 -275q50 31 74 47 t66.5 48.5t65 59t44 65.5t28.5 81q14 78 -19.5 125t-105.5 47q-80 0 -136 -56t-70 -142z" />
<glyph unicode="'" horiz-adv-x="284" d="M205 1106l69 328q4 29 28.5 50t51.5 21q26 0 41.5 -21t10.5 -50l-70 -328h-131z" />
<glyph unicode="(" horiz-adv-x="665" d="M243 330.5q-35 197.5 9 384.5q41 194 157.5 386.5t282.5 328.5h125q-177 -140 -298 -334t-161 -381q-24 -124 -19.5 -247t49.5 -247t126 -221h-125q-111 133 -146 330.5z" />
<glyph unicode=")" horiz-adv-x="565" d="M0 0q179 144 299 336t160 379q23 125 18 249t-50 248.5t-124 217.5h125q107 -136 143 -331.5t-6 -383.5q-42 -196 -158.5 -389t-281.5 -326h-125z" />
<glyph unicode="*" horiz-adv-x="917" d="M184 1149l52 98l235 -100l55 295h95l-72 -295l278 100l7 -98l-277 -84l115 -236l-88 -59l-103 246l-202 -246l-66 59l217 236z" />
<glyph unicode="+" horiz-adv-x="1028" d="M172 504l25 114h335l78 365h107l-78 -365h336l-25 -114h-336l-75 -367h-109l78 367h-336z" />
<glyph unicode="," horiz-adv-x="387" d="M0 -252l72 338q9 40 38.5 68t61.5 28q38 0 57.5 -28t10.5 -68l-17 -86l-176 -252h-47z" />
<glyph unicode="-" horiz-adv-x="776" d="M123 506l20 104h506l-20 -104h-506z" />
<glyph unicode="." horiz-adv-x="354" d="M43 86q9 41 42.5 70.5t70.5 29.5q39 0 59.5 -29t11.5 -71q-8 -41 -41 -70.5t-73 -29.5q-37 0 -57.5 29.5t-12.5 70.5z" />
<glyph unicode="/" horiz-adv-x="782" d="M0 -156l662 1741h120l-661 -1741h-121z" />
<glyph unicode="0" horiz-adv-x="1081" d="M125 429.5q1 73.5 9.5 143.5t23.5 142q23 105 55.5 201.5t85.5 195t117.5 170.5t154 117t191.5 45q101 0 171.5 -45t104 -117t44 -170t2 -194.5t-30.5 -200.5q-19 -86 -45 -167t-63 -166t-86.5 -154.5t-108.5 -125.5t-135.5 -87t-161.5 -31q-74 0 -131.5 23.5t-94 64.5 t-60.5 98t-33.5 120.5t-8.5 137zM242 383.5q3 -53.5 17.5 -106.5t40.5 -90t71 -60t106 -23t115.5 23t96 60t78 90t62 106.5t48 116.5t35.5 113t24 102t19 102.5t12.5 112.5t1 115.5t-18 106t-40 89.5t-70.5 59.5t-105 22.5q-84 0 -156.5 -43.5t-120.5 -107t-87 -151 t-60 -158.5t-37 -148q-11 -53 -18.5 -102.5t-12 -112.5t-1.5 -116.5z" />
<glyph unicode="1" horiz-adv-x="593" d="M205 1196l346 234h94l-303 -1430h-115l269 1270l-254 -166z" />
<glyph unicode="2" horiz-adv-x="1056" d="M72 0l18 92q52 125 125 228.5t148 172.5t155 128t152.5 106.5t133 95.5t103.5 109t58 133q26 124 -42.5 193t-185.5 69q-87 0 -170 -49t-145 -135l-86 59q175 244 426 244q175 0 265.5 -101t53.5 -282q-19 -87 -63.5 -158.5t-105 -125t-131.5 -103t-148 -103.5 t-148.5 -114t-140 -147t-115.5 -191h684l-24 -121h-817z" />
<glyph unicode="3" horiz-adv-x="993" d="M72 258l116 43q13 -94 77.5 -145.5t160.5 -51.5q122 0 225 82t131 215q14 78 2.5 134t-49 91.5t-90 52t-119.5 17.5l21 99q128 2 220.5 66.5t121.5 199.5q24 115 -42 191.5t-173 76.5q-86 0 -167 -49.5t-130 -132.5l-94 45q76 123 186 188.5t236 65.5q159 0 245.5 -107 t50.5 -278q-23 -110 -90 -191t-168 -122q98 -40 139.5 -131.5t14.5 -215.5q-39 -189 -179 -302t-315 -113q-141 0 -227 67.5t-104 204.5z" />
<glyph unicode="4" horiz-adv-x="962" d="M61 365l25 118l754 947h123l-752 -949h508l117 545l104 -16l-113 -529h123l-24 -116h-123l-76 -365h-109l76 365h-633z" />
<glyph unicode="5" horiz-adv-x="974" d="M82 270l115 37q13 -95 74 -146.5t157 -51.5q151 0 255 104.5t138 265.5q18 75 11 141t-33 116t-80.5 79t-130.5 29q-137 0 -264 -105h-109l145 691h687l-25 -117h-582l-98 -453q137 98 272 98q200 0 283 -132t37 -347q-45 -220 -187.5 -355.5t-345.5 -135.5 q-135 0 -219.5 74.5t-99.5 207.5z" />
<glyph unicode="6" horiz-adv-x="946" d="M73.5 329q-1.5 75 14.5 158q59 275 236 527.5t419 415.5h142q-437 -298 -623 -738q145 199 346 199q181 0 265 -131t42 -328q-41 -195 -183 -320.5t-322 -125.5q-78 0 -141 25.5t-104 71.5t-65.5 108.5t-26 137.5zM199 438q-28 -135 42 -232t195 -97q126 0 232 94 t135 231q30 145 -33.5 242.5t-194.5 97.5q-125 0 -236 -99.5t-140 -236.5z" />
<glyph unicode="7" horiz-adv-x="894" d="M205 0q157 749 704 1311h-563l-24 -121h-103l51 240h793l-23 -111q-125 -130 -223.5 -257t-196.5 -289t-171 -357.5t-117 -415.5h-127z" />
<glyph unicode="8" horiz-adv-x="1007" d="M84 403q26 121 103.5 215.5t207.5 143.5q-87 39 -117.5 126.5t-9.5 182.5q23 110 92.5 196t164.5 131.5t198 45.5q158 0 244.5 -104t52.5 -269q-23 -97 -87.5 -182t-172.5 -127q75 -34 117.5 -90t50.5 -123t-6 -146q-41 -189 -184.5 -304t-323.5 -115q-119 0 -203 50.5 t-119 147t-8 221.5zM203 408q-28 -133 41.5 -217.5t193.5 -84.5q125 0 230.5 84.5t134.5 217.5q30 138 -39 217.5t-199 79.5q-131 0 -231.5 -78.5t-130.5 -218.5zM379 1069q-25 -122 35.5 -192t173.5 -70t201.5 69.5t113.5 192.5q26 114 -35.5 188t-167.5 74t-200.5 -74 t-120.5 -188z" />
<glyph unicode="9" horiz-adv-x="929" d="M143 995q40 190 183.5 320.5t318.5 130.5q97 0 168.5 -40.5t107 -109.5t46 -160.5t-14.5 -193.5q-57 -268 -226 -520.5t-417 -421.5h-147q99 71 179.5 140t164.5 159t153.5 200.5t118.5 235.5q-134 -178 -327 -178q-172 0 -260 126.5t-48 311.5zM254 1001 q-28 -132 37 -227.5t188 -95.5q130 0 232.5 93.5t132.5 229.5q28 132 -38.5 228t-189.5 96q-124 0 -229 -96.5t-133 -227.5z" />
<glyph unicode=":" horiz-adv-x="368" d="M45 82q9 41 41.5 70.5t69.5 29.5q40 0 61 -29.5t12 -70.5q-9 -42 -42 -71t-72 -29q-37 0 -58 29.5t-12 70.5zM182 723q7 42 40.5 72t70.5 30q39 0 60.5 -29.5t13.5 -72.5q-9 -41 -43 -69.5t-74 -28.5q-37 0 -57 28.5t-11 69.5z" />
<glyph unicode=";" horiz-adv-x="380" d="M0 -252l72 336q9 40 38.5 69t61.5 29q38 0 57.5 -29t10.5 -69l-19 -86l-174 -250h-47zM209 723q7 43 38 72.5t66 29.5t53.5 -29.5t10.5 -72.5q-9 -41 -40.5 -69.5t-66.5 -28.5t-52.5 28.5t-8.5 69.5z" />
<glyph unicode="&#x3c;" horiz-adv-x="966" d="M254 715l698 715h142l-697 -715l394 -715h-142z" />
<glyph unicode="=" horiz-adv-x="1071" d="M123 250l22 115h773l-23 -115h-772zM215 686l23 113h774l-25 -113h-772z" />
<glyph unicode="&#x3e;" horiz-adv-x="966" d="M102 0l697 715l-393 715h141l395 -715l-698 -715h-142z" />
<glyph unicode="?" horiz-adv-x="1069" d="M342 1085q28 114 102.5 198t167.5 123.5t193 39.5q162 0 249 -101.5t50 -271.5q-13 -59 -35.5 -104t-56 -77.5t-61 -51.5t-70.5 -43q-102 -55 -152 -110t-74 -144l-43 -164h-73q8 97 20 166q12 56 32.5 101.5t41 75t51.5 57t52 41.5t55 34q94 53 122 77q64 54 84 142 q25 121 -37.5 190.5t-179.5 69.5q-108 0 -205 -64.5t-129 -183.5h-104zM424 80q7 40 40 68t71 28q37 0 57 -28t12 -68q-11 -42 -42 -70t-68 -28q-38 0 -58.5 28.5t-11.5 69.5z" />
<glyph unicode="@" horiz-adv-x="1378" d="M103.5 292q0.5 91 19.5 189q25 119 85.5 250.5t149.5 256t193 224.5t227.5 161t241.5 61q85 0 148 -34t99 -92t53 -135t14.5 -162t-21.5 -175q-11 -52 -51 -150.5t-45 -118.5l-154 -569l-98 6l65 246q-85 -120 -189 -197.5t-216 -77.5q-68 0 -116 33.5t-67.5 87.5 t-24 122t12.5 136q17 78 56 165.5t97.5 171.5t126.5 152.5t149 110t159 41.5q142 0 176 -196q27 89 32 179.5t-12.5 171t-73 131t-143.5 50.5q-102 0 -209.5 -56t-197.5 -147.5t-167.5 -203.5t-129.5 -228t-74 -217q-28 -113 -11 -230t83 -190l-70 -84q-58 55 -88 140.5 t-29.5 176.5zM519.5 263.5q-0.5 -45.5 9.5 -88t40.5 -69t77.5 -26.5q59 0 123.5 36t119.5 93.5t102 126.5t78.5 138t43.5 126q10 45 10 93.5t-11 94t-41 74.5t-75 29q-61 0 -126 -36.5t-119 -95t-101 -130t-78 -142.5t-43 -131q-10 -47 -10.5 -92.5z" />
<glyph unicode="A" horiz-adv-x="1232" d="M-20 0l808 1430h136l200 -1430h-125l-59 424h-598l-236 -424h-126zM406 537h520l-103 745z" />
<glyph unicode="B" horiz-adv-x="1175" d="M72 0l303 1430h452q94 0 165 -20.5t123 -65.5q52 -46 67 -118q7 -32 6 -70q0 -49 -10 -107q-20 -94 -81 -176t-165 -134q108 -45 146 -137q22 -55 23 -117q0 -43 -11 -90q-22 -107 -72.5 -185t-122 -123t-155 -66t-181.5 -21h-487zM215 121h369q70 0 126 11t111.5 39.5 t94.5 85t57 138.5q8 51 8 91v8q-1 42 -19.5 73.5t-42.5 52t-60.5 32.5t-74 17t-82.5 5h-370zM356 782h346q52 0 96 6.5t88 25t77 47.5t59.5 76t40.5 110q9 36 9 66v17q-4 36 -12.5 64t-29.5 48t-43.5 33t-54.5 20.5t-62.5 10.5t-66.5 3h-336z" />
<glyph unicode="C" horiz-adv-x="1091" d="M126 493q5 105 30 222q25 118 64.5 223t100 199.5t135.5 162.5t175.5 108t214.5 40q131 0 211.5 -51.5t146.5 -165.5l-102 -86q-54 90 -117.5 133t-167.5 43q-96 0 -178 -36.5t-139.5 -95t-104 -139.5t-74.5 -162.5t-47 -172.5q-13 -64 -20 -123t-7 -120.5t9.5 -114 t32.5 -99t58 -79t89 -51.5t123 -19q104 0 188 44.5t175 135.5l69 -84q-121 -119 -221 -171t-235 -52q-114 0 -197 40t-130 108q-46 70 -66 164q-16 76 -17 158q0 20 1 41z" />
<glyph unicode="D" horiz-adv-x="1214" d="M72 0l303 1430h377q87 0 154.5 -9t119.5 -24.5t88 -43.5t59.5 -59.5t34 -79.5t13.5 -96q1 -14 1 -28q0 -38 -6 -88q-8 -69 -19 -133.5t-30 -153.5t-35 -153t-37.5 -133t-44.5 -116.5t-54 -95.5t-68 -79.5t-85 -60t-106 -44t-129.5 -24.5t-158.5 -9h-377zM215 127h277 q158 0 254.5 34t156.5 111q28 36 50 85t40.5 117.5t28.5 112t27 128.5q47 215 53 292q3 31 3 58q0 56 -13 94q-28 77 -110.5 111.5t-238.5 34.5h-276z" />
<glyph unicode="E" horiz-adv-x="1095" d="M72 0l303 1430h844l-29 -125h-723l-109 -506h633l-24 -119h-633l-119 -555h725l-25 -125h-843z" />
<glyph unicode="F" horiz-adv-x="1056" d="M72 0l303 1430h825l-29 -125h-706l-107 -506h631l-24 -117h-631l-144 -682h-118z" />
<glyph unicode="G" horiz-adv-x="1157" d="M124 496q5 104 30 219q25 116 65 220.5t100.5 199.5t135.5 163.5t174 109t211 40.5q132 0 211.5 -54t144.5 -171l-100 -80q-54 92 -116.5 135t-166.5 43q-96 0 -177.5 -36.5t-139 -94.5t-103.5 -139.5t-73.5 -162.5t-47.5 -173q-19 -90 -26 -170q-2 -30 -2 -60 q0 -50 7 -102q11 -82 42 -141t96 -96t160 -37q78 0 144 30t113 78.5t85 118t62 141t42 154.5h-317l24 114h433l-158 -745h-105l52 236q-80 -138 -178 -196t-226 -58q-112 0 -193 41t-125.5 110t-63.5 164q-15 75 -15 156q0 21 1 43z" />
<glyph unicode="H" horiz-adv-x="1255" d="M72 0l303 1430h119l-136 -631h719l135 631h115l-303 -1430h-115l144 680h-719l-144 -680h-118z" />
<glyph unicode="I" horiz-adv-x="370" d="M72 0l303 1430h119l-304 -1430h-118z" />
<glyph unicode="J" horiz-adv-x="1019" d="M41 293l119 33q10 -107 74 -161t169 -54q157 0 247 79.5t126 245.5l211 994h117l-211 -998q-46 -221 -175.5 -333.5t-338.5 -112.5q-156 0 -242.5 78.5t-95.5 228.5z" />
<glyph unicode="K" horiz-adv-x="1142" d="M72 0l305 1430h127l-303 -1430h-129zM369 725l725 705h151l-739 -728l254 -401q52 -83 119 -131.5t168 -52.5l-27 -117q-125 6 -218.5 68t-150.5 163z" />
<glyph unicode="L" horiz-adv-x="964" d="M72 0l303 1430h119l-279 -1311h649l-26 -119h-766z" />
<glyph unicode="M" horiz-adv-x="1417" d="M72 0l303 1430h119l170 -1254l706 1254h119l-303 -1430h-119l236 1118l-625 -1118h-100l-152 1114l-236 -1114h-118z" />
<glyph unicode="N" horiz-adv-x="1212" d="M72 0l303 1430h117l421 -1192l254 1192h117l-303 -1430h-115l-424 1192l-252 -1192h-118z" />
<glyph unicode="O" horiz-adv-x="1230" d="M124 494q6 104 30.5 221t63.5 220.5t98.5 199t133.5 164t173 109t213 40.5t196 -40.5t126 -108.5q46 -67 64 -163q14 -74 14 -152q0 -24 -2 -48q-6 -104 -30 -221q-25 -117 -63.5 -220.5t-97.5 -199t-132.5 -164t-173 -109t-213.5 -40.5t-196 40.5t-126 109.5 q-44 68 -64 164q-15 74 -16 153q1 22 2 45zM243 472v-12q0 -55 9 -102q9 -52 30 -99t55.5 -79.5t88 -51.5t123.5 -19q97 0 179 37t138.5 95t101.5 140.5t72 162t47 171.5q13 64 21 123q8 58 8 120v7q0 58 -8 107q-8 52 -30.5 99t-57 79.5t-88 51.5t-123.5 19q-97 0 -179 -37 t-138.5 -95t-101.5 -140t-72 -162t-46 -172q-13 -64 -20.5 -122.5t-8.5 -120.5z" />
<glyph unicode="P" horiz-adv-x="1165" d="M72 0l303 1430h487q98 0 169.5 -21t122.5 -68q50 -47 64 -123q5 -30 6 -66q0 -53 -12 -118q-85 -397 -516 -397h-372l-134 -637h-118zM350 756h369q69 0 124.5 12t107.5 41.5t88.5 86t54.5 138.5q9 56 9 98t-17.5 72.5t-40 50.5t-58 31.5t-72 16t-81.5 4.5h-367z" />
<glyph unicode="Q" horiz-adv-x="1298" d="M123 451q0 136 26.5 272.5t85.5 267.5t143.5 232t210 163t275.5 62q207 0 324 -130t117 -337q0 -162 -39.5 -324t-131 -317t-223.5 -248q60 -61 115.5 -89t128.5 -34l-25 -114q-185 24 -321 184q-125 -55 -248 -55q-209 0 -323.5 129.5t-114.5 337.5zM252 465 q0 -102 33.5 -179.5t109 -126t185.5 -48.5q75 0 168 36q-4 7 -65.5 88.5t-64.5 90.5h119q4 -5 43 -57t62 -76q114 82 191.5 220t109 276.5t31.5 277.5q0 158 -82.5 256t-245.5 98q-89 0 -167.5 -30t-137.5 -81t-108 -120t-82 -146.5t-56 -161.5t-33 -163.5t-10 -153.5z" />
<glyph unicode="R" horiz-adv-x="1218" d="M72 0l305 1430h473q88 0 156 -14t125 -47t87.5 -94t30.5 -149q0 -216 -131.5 -335.5t-384.5 -131.5q81 -37 129 -155q36 -82 64 -172q18 -45 36 -77.5t46 -65.5t67.5 -51.5t89.5 -22.5l-24 -115q-70 3 -124.5 26t-93.5 65.5t-66 90t-52 113.5q-6 17 -33.5 89t-30.5 79 q-13 32 -23 54t-28 49.5t-36.5 44t-47 28.5t-61.5 12h-205l-139 -651h-129zM360 760h347q68 0 125.5 9.5t112 33.5t93 62t61.5 99t23 140q0 55 -19.5 94t-47 59.5t-72.5 32.5t-81 14.5t-87 2.5h-338z" />
<glyph unicode="S" horiz-adv-x="1120" d="M72 352l118 23q1 -76 28.5 -130.5t75.5 -85t104.5 -44t125.5 -13.5q62 0 126 18t122.5 52.5t102.5 93.5t59 133q7 32 7 60q0 32 -9 59q-17 51 -57 80.5t-96 54t-119 39.5t-126.5 36.5t-118 45t-93 65.5t-52.5 98q-7 26 -7 58q0 38 9 84q25 120 105.5 205t181 122.5 t211.5 37.5q162 0 259.5 -66.5t133.5 -212.5l-112 -51q-30 113 -106 161t-202 48q-53 0 -105.5 -12.5t-104 -38.5t-90 -76t-52.5 -117q-5 -24 -5 -46q0 -31 10 -57q18 -44 59 -70t97.5 -48t119.5 -37t126 -38t117 -50t91.5 -73t51.5 -108q6 -26 5 -58q0 -43 -10 -95 q-21 -99 -76.5 -179.5t-131.5 -131.5t-165 -78.5t-180 -27.5q-425 0 -428 370z" />
<glyph unicode="T" horiz-adv-x="980" d="M205 1305l26 125h955l-29 -125h-416l-276 -1305h-119l277 1305h-418z" />
<glyph unicode="U" horiz-adv-x="1206" d="M172 606l176 824h119l-174 -820q-19 -84 -25 -152q-3 -28 -2 -56q0 -39 5 -79q9 -68 38 -113t88 -73t146 -28q89 0 160.5 28t120.5 73t87 112t60.5 135t40.5 153l174 820h117l-177 -824q-30 -143 -78 -253t-119.5 -195.5t-175 -130.5t-235.5 -45q-374 0 -374 385 q0 105 28 239z" />
<glyph unicode="V" horiz-adv-x="966" d="M154 1430h125l120 -1248l650 1248h122l-749 -1430h-127z" />
<glyph unicode="W" horiz-adv-x="1404" d="M205 1430h121l-2 -1217l528 1217h111l12 -1217l514 1217h121l-611 -1430h-133l-10 1190l-514 -1190h-133z" />
<glyph unicode="X" horiz-adv-x="1026" d="M-61 0l596 737l-267 693h140l219 -582l465 582h139l-559 -693l284 -737h-141l-235 627l-502 -627h-139z" />
<glyph unicode="Y" horiz-adv-x="927" d="M205 1430h131l192 -812l535 812h131l-639 -957l-100 -473h-117l100 473z" />
<glyph unicode="Z" horiz-adv-x="1124" d="M10 80l1088 1225h-738l29 125h899l-26 -119l-1069 -1207q112 13 167 13q58 -1 174 -18t175 -17q119 0 235 39l47 -115q-128 -47 -291 -47q-66 0 -197 19.5t-198 19.5q-160 0 -254 -33z" />
<glyph unicode="[" horiz-adv-x="735" d="M164 -135l360 1700h314l-17 -78h-205l-327 -1542h205l-17 -80h-313z" />
<glyph unicode="\" horiz-adv-x="782" d="M0 1585h121l661 -1741h-120z" />
<glyph unicode="]" horiz-adv-x="501" d="M0 -135l16 80h207l328 1542h-207l16 78h314l-361 -1700h-313z" />
<glyph unicode="^" horiz-adv-x="1038" d="M104 823l469 611h115l211 -611l-100 -53l-189 559l-426 -559z" />
<glyph unicode="_" horiz-adv-x="1036" d="M41 -100l20 100h904l-21 -100h-903z" />
<glyph unicode="`" horiz-adv-x="591" d="M838 1403h135l94 -309h-96z" />
<glyph unicode="a" d="M82 315q0 94 29.5 192t84.5 185t127.5 156.5t165 110t189.5 40.5q132 0 276 -75l-184 -844l6 -80l-106 -14l-6 92l81 387q-182 -481 -438 -481q-61 0 -106.5 28.5t-70.5 77.5t-36.5 105t-11.5 120zM195 299q0 -32 6 -66t19.5 -69t40 -57.5t61.5 -22.5q76 0 150.5 60.5 t130.5 151.5t104 202t77 207t43 172q-69 30 -137 30q-84 0 -163.5 -40t-138 -105.5t-103 -145.5t-67.5 -162.5t-23 -154.5z" />
<glyph unicode="b" horiz-adv-x="927" d="M41 59l301 1371h119l-195 -889q91 233 199 346.5t225 113.5q60 0 104.5 -28.5t69 -76.5t36 -103t11.5 -117q0 -93 -29.5 -192t-84.5 -187.5t-127.5 -159t-165 -112t-189.5 -41.5q-124 0 -274 75zM164 102q72 -30 145 -30q84 0 163 41t137 108t102.5 149t67 165.5 t22.5 156.5q0 46 -10.5 90.5t-39.5 81.5t-73 37q-74 0 -144.5 -52.5t-123 -129.5t-99.5 -179.5t-76 -187t-51 -166.5q-19 -77 -20 -84z" />
<glyph unicode="c" horiz-adv-x="851" d="M61 332q0 79 15 157.5t43.5 154t74 140t103.5 113t135 76.5t164 28q96 0 159 -37t117 -124l-98 -58q-42 60 -84 84.5t-108 24.5q-98 0 -177.5 -54t-125.5 -138t-70.5 -175.5t-24.5 -177.5q0 -114 51.5 -184t165.5 -70q71 0 129 31t123 94l80 -80q-92 -86 -168 -119.5 t-178 -33.5q-159 0 -242.5 94.5t-83.5 253.5z" />
<glyph unicode="d" horiz-adv-x="948" d="M61 311q0 92 29.5 190t84.5 186.5t127 158.5q71 70 163 112q90 41 183 41h5q79 0 168 -30l103 461h116l-295 -1344l9 -86l-109 -14l-8 84l86 397q-97 -248 -204.5 -365.5t-233.5 -117.5q-61 0 -106.5 28.5t-70 77t-36 104t-11.5 117.5zM174 299q0 -34 6 -68.5t19.5 -69 t40 -56t61.5 -21.5q76 0 150.5 62.5t131 155.5t104.5 205t76.5 207.5t41.5 166.5q-74 28 -135 28q-82 0 -160.5 -40.5t-137.5 -106.5t-105 -146t-69.5 -163t-23.5 -154z" />
<glyph unicode="e" horiz-adv-x="874" d="M61 332q1 117 36.5 234t100 215t166 159t222.5 61q71 0 134.5 -22t108.5 -71t45 -117q0 -52 -27.5 -96t-71.5 -74.5t-105 -55.5t-122 -40t-129 -26t-120 -15.5t-100 -6.5q-19 -90 -19 -145q0 -108 50 -174t159 -66q78 0 138 32t122 93l78 -80q-92 -86 -168 -119.5 t-176 -33.5q-161 0 -241.5 95t-80.5 253zM215 549q54 3 117 12t141.5 28t140 44t104 64.5t42.5 86.5q0 57 -54.5 85t-121.5 28q-130 0 -224.5 -96t-144.5 -252z" />
<glyph unicode="f" horiz-adv-x="559" d="M-266 -457l22 105q60 2 110 20.5t83.5 47t59 68.5t40 79t23.5 84l204 938h-98l21 104h102q20 85 44 149.5t61.5 121t86 93t117 57t154.5 20.5l-23 -105q-46 0 -84.5 -10.5t-67 -26.5t-53 -43t-41 -53.5t-31.5 -64t-24 -67.5t-20 -71h217l-25 -104h-215l-204 -930 q-89 -412 -459 -412z" />
<glyph unicode="g" horiz-adv-x="940" d="M16 -389l52 98q111 -49 196 -49q73 0 129 23.5t93 67t60 93.5t38 115q0 1 31 124t62 248.5t32 129.5q-100 -250 -208 -362.5t-231 -112.5q-61 0 -106.5 28t-70.5 75.5t-36.5 102.5t-11.5 117q0 94 29.5 192.5t84.5 186.5t127.5 158.5t165 111.5t189.5 41q130 0 279 -73 q-29 -122 -78.5 -345t-93 -426t-43.5 -204q-41 -186 -149.5 -293t-291.5 -107q-116 0 -248 60zM160 297q0 -33 6 -67t19 -68.5t39.5 -56t62.5 -21.5q75 0 149.5 61t131 152t104.5 202.5t77.5 208t43.5 171.5q-66 30 -138 30q-84 0 -163 -41t-137.5 -107.5t-103.5 -147.5 t-68 -163.5t-23 -152.5z" />
<glyph unicode="h" horiz-adv-x="1017" d="M61 0l316 1427h121l-197 -897q194 469 436 469q81 0 132 -37.5t69 -99.5q17 -59 16 -123v-7q-1 -68 -18 -142l-131 -590h-121l141 633q10 44 13 85q1 14 1 29q1 27 -3 57q-6 44 -35.5 71.5t-79.5 27.5q-74 0 -146 -55.5t-125 -135t-99.5 -180.5t-73.5 -179.5t-44 -143.5 q-50 -205 -51 -209h-121z" />
<glyph unicode="i" horiz-adv-x="485" d="M82 0l225 989h121l-225 -989h-121zM354 1343q4 41 40 73t77 32q37 0 58 -24q17 -20 17 -48q0 -7 -1 -14q-3 -41 -38 -71.5t-77 -30.5q-37 0 -58.5 24t-17.5 59z" />
<glyph unicode="j" horiz-adv-x="452" d="M-291 -442l23 102q77 3 133 26t91.5 66t56.5 91.5t36 115.5l227 1030h119l-227 -1024q-42 -198 -149 -300.5t-310 -106.5zM319 1343q4 41 40 73t77 32q36 0 58 -24q18 -22 18 -53v-9q-4 -41 -39 -71.5t-76 -30.5q-36 0 -58 24q-20 21 -20 53v6z" />
<glyph unicode="k" horiz-adv-x="856" d="M61 0l312 1430h114l-309 -1430h-117zM309 528l449 461h139l-461 -467l156 -268q87 -142 229 -152l-20 -102q-186 11 -295 186q-21 29 -70 114.5t-88 156.5z" />
<glyph unicode="l" horiz-adv-x="458" d="M104 231l277 1199h119l-275 -1190q-8 -30 -7 -54q0 -22 6 -38q14 -34 71 -42l-25 -106q-114 6 -152 64q-23 36 -23 90q0 35 9 77z" />
<glyph unicode="m" horiz-adv-x="1589" d="M61 0l211 989h121l-94 -446q22 54 49 108.5t69.5 119.5t88.5 113.5t106 81.5t121 33q56 0 94.5 -19.5t56.5 -55.5q20 -35 28 -76q6 -29 6 -64q0 -14 -2 -29q-4 -52 -9 -95t-13 -91q-4 -19 -5 -28q79 205 192 331.5t232 126.5q57 0 99.5 -18t65.5 -49.5t36 -70.5 q14 -39 14 -86v-9q0 -42 -5 -80q-5 -42 -16 -88l-129 -598h-121l140 635q6 31 9.5 56t5 58.5t-4.5 58.5t-17.5 48t-36 35t-59.5 12q-63 0 -128.5 -54t-118 -134t-98 -175t-74 -174.5t-41.5 -134.5q-28 -110 -50 -231h-120l141 641q9 46 13 85q1 14 2 29q0 26 -4 53 q-6 43 -34 68t-77 25q-63 0 -128 -47.5t-118 -122t-99.5 -166.5t-78 -179t-48.5 -161q-6 -29 -17 -74.5t-22 -91.5t-14 -59h-119z" />
<glyph unicode="n" horiz-adv-x="1021" d="M61 0l220 989h122l-102 -454q188 464 438 464q60 0 104 -18t68 -50.5t37 -71t13 -87t-5 -92t-16 -90.5l-131 -590h-121l139 629q11 46 14 90q1 13 1 25q0 30 -6 62q-8 44 -37 70.5t-78 26.5q-52 0 -104 -28t-94.5 -74t-83 -107.5t-71.5 -125.5t-58 -132.5t-44.5 -123.5 t-29.5 -103q-42 -145 -54 -209h-121z" />
<glyph unicode="o" horiz-adv-x="931" d="M61 289q0 85 12.5 167.5t38.5 163.5t69.5 149.5t101 121.5t138 83t175.5 30q154 0 234.5 -82.5t80.5 -227.5q0 -101 -16.5 -198t-56.5 -191.5t-99.5 -165t-152.5 -114t-209 -43.5q-154 0 -235 81t-81 226zM186 324q0 -234 217 -234q81 0 147.5 37.5t109 97t71.5 137 t41 153.5q12 70 12 138v11q0 106 -54.5 168.5t-162.5 62.5q-80 0 -146 -37.5t-108.5 -96.5t-71.5 -136t-41.5 -152.5t-13.5 -148.5z" />
<glyph unicode="p" horiz-adv-x="952" d="M-41 -434l311 1423h111l-100 -457q92 233 206.5 350t229.5 117q60 0 104 -27t68 -73.5t35.5 -100.5t11.5 -116q0 -90 -29 -188.5t-83.5 -188t-125.5 -161.5t-161.5 -115t-184.5 -43q-88 0 -174 34l-100 -454h-119zM195 109q63 -31 137 -31q67 0 132 28.5t118 76t98.5 110 t76.5 130t48.5 136t17.5 127.5q0 33 -5.5 66.5t-18.5 69t-39 57.5t-62 22q-73 0 -146 -57t-129.5 -145t-104.5 -196.5t-78.5 -209t-44.5 -184.5z" />
<glyph unicode="q" d="M82 317q0 93 29 190.5t84 185t127 156.5t165 109.5t191 40.5q127 0 276 -73l-292 -1360h-121l135 624l67 269q-189 -475 -434 -475q-62 0 -107.5 29t-70.5 78.5t-37 106t-12 119.5zM195 305q0 -33 6 -67.5t19 -71.5t39.5 -60.5t62.5 -23.5q75 0 149 61t130.5 153 t105.5 204t78.5 209t43.5 172q-72 30 -137 30q-105 0 -200.5 -61.5t-158.5 -153.5t-100.5 -196.5t-37.5 -194.5z" />
<glyph unicode="r" horiz-adv-x="706" d="M41 0l221 989h111l-103 -463q90 236 204 354.5t245 118.5q51 0 98 -20l-22 -102q-33 24 -86 24q-78 0 -152.5 -54.5t-129.5 -135.5t-102.5 -184t-76 -189.5t-45.5 -161.5l-43 -176h-119z" />
<glyph unicode="s" horiz-adv-x="802" d="M41 242l106 22q16 -81 69 -127.5t142 -46.5q61 0 116 21.5t93.5 68.5t38.5 111q0 38 -18.5 67.5t-49.5 48t-70 36.5t-80 31.5t-80 34t-70 44.5t-49.5 62t-18.5 87q0 134 103 218t253 84q186 0 267 -166l-103 -45q-50 108 -178 108q-88 0 -154.5 -46t-66.5 -132 q0 -38 24 -66.5t63 -47t85.5 -35.5t93 -38t85.5 -48t63 -71.5t24 -103.5q0 -147 -113 -240t-270 -93q-257 0 -305 262z" />
<glyph unicode="t" horiz-adv-x="540" d="M106 114q-2 17 -2 35q0 38 9 82l149 654h-145l22 104h146l65 293h119l-66 -293h166l-22 -104h-166l-145 -639q-7 -32 -7 -56q1 -32 13 -52q22 -34 104 -34l-22 -104h-56q-73 0 -114.5 31t-47.5 83z" />
<glyph unicode="u" horiz-adv-x="995" d="M108 288q4 50 15 105l131 596h121l-137 -633q-12 -48 -14 -90q-1 -11 0 -23q0 -31 5 -63q7 -43 36.5 -68.5t78.5 -25.5q304 0 500 772l30 131h121l-215 -989h-121l105 461q-96 -243 -203.5 -359t-232.5 -116q-70 0 -118 27.5t-70 69t-29 98.5q-4 36 -4 70q0 19 1 37z" />
<glyph unicode="v" horiz-adv-x="911" d="M143 989h129l121 -850l492 850h129l-588 -989h-121z" />
<glyph unicode="w" horiz-adv-x="1474" d="M143 989h129l70 -837l463 837h108l109 -837l430 837h125l-522 -989h-121l-113 819l-456 -819h-119z" />
<glyph unicode="x" horiz-adv-x="868" d="M-61 0l462 510l-231 479h143l176 -379l334 379h148l-439 -479l246 -510h-145l-187 410l-362 -410h-145z" />
<glyph unicode="y" horiz-adv-x="917" d="M-82 -453l23 105q55 0 96 12t72.5 40t50.5 53t47 71l117 197l-152 964h131l107 -827l477 827h133l-731 -1235q-120 -207 -326 -207h-6h-39z" />
<glyph unicode="z" horiz-adv-x="966" d="M10 78l795 801h-535l25 110h692l-22 -104l-785 -783q73 11 117 11q17 1 29 -1q46 -6 117 -20t122 -14q104 0 197 35l51 -97q-106 -45 -248 -45q-53 0 -158.5 19.5t-160.5 19.5q-117 0 -183 -30z" />
<glyph unicode="{" horiz-adv-x="706" d="M264 659l25 111q55 -2 94 15.5t61 44.5t37 74.5t21 86.5t15.5 101.5t17.5 101.5q19 93 47.5 158.5t74 114.5t113 73t158.5 23l-23 -105q-114 0 -174.5 -61t-89.5 -207q-7 -34 -16 -93t-15.5 -99t-21.5 -91t-36 -85t-59 -63.5t-90 -43.5q46 -14 71 -43.5t31.5 -63.5 t0.5 -84.5t-17 -90.5t-27.5 -98.5t-23.5 -92.5q-31 -148 3 -209.5t147 -61.5l-21 -104q-177 -1 -226.5 90.5t-8.5 278.5q7 35 21.5 87t24.5 88t18.5 79t5.5 71.5t-15.5 53t-43.5 35.5t-79 9z" />
<glyph unicode="|" horiz-adv-x="530" d="M205 -156l368 1741h103l-369 -1741h-102z" />
<glyph unicode="}" horiz-adv-x="602" d="M0 -133l20 104q114 0 175 62t92 209q7 32 14 79.5t12.5 83.5t14.5 80t24 77.5t37 65t56 53.5t79 34q-40 12 -65 34t-33.5 54t-9 65t9 77t19.5 80.5t23.5 84.5t20.5 80q29 147 -4.5 207.5t-146.5 60.5l22 105q122 1 183.5 -42.5t69.5 -125.5t-15 -201q-6 -30 -16.5 -68 t-19 -68.5t-17.5 -65.5t-13 -61.5t-5 -53.5t7 -46t22.5 -34t41.5 -21.5t64 -5.5l-23 -111q-55 2 -94 -15t-61 -43.5t-37 -74t-21 -87t-15.5 -102t-17.5 -101.5q-39 -187 -127.5 -278.5t-265.5 -90.5z" />
<glyph unicode="~" horiz-adv-x="950" d="M115 602q115 129 229 129q38 0 70 -14t54.5 -34.5t44 -40.5t50 -34t62.5 -14q74 0 153 94l58 -67q-61 -63 -115 -97.5t-115 -34.5q-38 0 -70 14t-55 34.5t-45 41t-51 34.5t-63 14q-71 0 -154 -95z" />
<glyph unicode="&#xa1;" horiz-adv-x="643" d="M197 -459l139 662l104 385h88l-59 -385l-139 -662h-133zM459 891q9 41 42 70.5t70 29.5t58 -29.5t12 -70.5t-42 -70.5t-71 -29.5q-37 0 -57.5 29.5t-11.5 70.5z" />
<glyph unicode="&#xa2;" horiz-adv-x="823" d="M74 304.5q-3 88.5 16 189.5q47 224 187.5 365.5t353.5 141.5l63 152l60 -14l-60 -148q68 -14 113.5 -49t87.5 -94l-98 -78q-62 89 -150 107l-311 -760q53 -19 98 -19q70 4 127 34t117 87l65 -80q-93 -81 -170 -117t-176 -36q-48 0 -106 18l-70 -170l-61 12l71 177 q-74 42 -114 117.5t-43 164zM191.5 397q-3.5 -43 0.5 -91.5t26 -90.5t61 -76l307 752q-297 -20 -379 -397q-12 -54 -15.5 -97z" />
<glyph unicode="&#xa3;" horiz-adv-x="1015" d="M72 0l20 98q138 189 172 344q18 86 21 213h-148l47 115h103q0 170 20 254q36 183 157.5 299.5t291.5 116.5q118 0 182 -40t127 -138l-102 -76q-45 72 -96 105.5t-138 33.5q-123 0 -203 -86t-108 -219q-5 -24 -8.5 -47.5t-6 -54t-3.5 -45.5t-3 -55t-2 -48h248l-47 -115 h-203q-3 -139 -20 -223q-35 -149 -137 -315h589l-24 -117h-729z" />
<glyph unicode="&#xa4;" horiz-adv-x="1126" d="M61 492l39 96h111q13 83 39 198h-125l39 95h117q40 122 99.5 223t139 179t183 121.5t221.5 43.5q112 0 185.5 -38t129.5 -118l-96 -96q-45 65 -102.5 95t-143.5 30q-175 0 -301 -120.5t-193 -319.5h455l-39 -95h-450q-29 -129 -37 -198h463l-39 -96h-430 q-2 -178 77 -280.5t234 -102.5q86 0 158 31.5t147 97.5l55 -95q-96 -86 -181.5 -123.5t-203.5 -37.5q-206 0 -312 138t-97 372h-142z" />
<glyph unicode="&#xa5;" horiz-adv-x="1009" d="M205 389l43 98h280l-43 181h-221l41 96h156l-162 666h117l196 -828l549 828h115l-445 -666h175l-43 -96h-197l-117 -181h299l-45 -98h-287l-79 -389h-103l80 389h-309z" />
<glyph unicode="&#xa6;" horiz-adv-x="671" d="M289 -154l164 770h88l-164 -770h-88zM494 815l163 770h88l-163 -770h-88z" />
<glyph unicode="&#xa7;" horiz-adv-x="1128" d="M231 -133l105 53q14 -45 30.5 -79.5t42 -66t62.5 -48.5t84 -17q105 0 186 70t103 178q5 26 5 48t-3 39t-13.5 33t-19.5 26.5t-27 21.5t-30.5 17.5t-36 15t-37 12.5t-39.5 12q-37 11 -66.5 21.5t-62.5 25.5t-57 32t-47.5 39t-38 49t-23.5 59t-8.5 71.5t10.5 85.5 q37 170 185 283q-64 90 -37 223q34 159 153 260t269 101q228 0 301 -271l-105 -53q-61 209 -219 209q-104 0 -185.5 -69.5t-103.5 -176.5q-6 -26 -6 -48t3 -39.5t12.5 -33t19.5 -26.5t27 -22t30.5 -18t35.5 -14.5t37.5 -12t39.5 -11.5q37 -11 67.5 -21.5t63 -25.5t57 -32.5 t47.5 -39t37 -48.5t23 -59.5t8.5 -72.5t-10.5 -86q-32 -166 -180 -283q61 -87 34 -221q-34 -160 -153 -261.5t-269 -101.5q-229 0 -301 273zM457 505q-1 -27 8.5 -51t20.5 -42.5t31 -35t39 -28.5t45 -23t48.5 -18.5t50.5 -15.5q86 -21 140 -51q121 77 149 221q6 29 6 54.5 t-5 46.5t-16 40t-24 33.5t-31 28t-36.5 23.5t-41 19t-43 15.5t-44.5 13.5q-96 27 -142 53q-121 -78 -149 -223q-5 -33 -6 -60z" />
<glyph unicode="&#xa8;" horiz-adv-x="913" d="M844 1200q9 39 39 65.5t65 26.5t54.5 -27t11.5 -65q-9 -38 -40 -64t-67 -26q-34 0 -52 26t-11 64zM1192 1200q9 38 39.5 65t64.5 27q35 0 54.5 -27t11.5 -65q-9 -38 -39.5 -64t-65.5 -26q-34 0 -53 26t-12 64z" />
<glyph unicode="&#xa9;" horiz-adv-x="1644" d="M241.5 486.5q-8.5 106.5 14.5 226.5q41 195 164.5 361t297 263t353.5 97q179 0 311 -97t185 -263t12 -361q-31 -146 -111 -278.5t-189 -229.5t-243.5 -154t-269.5 -57q-108 0 -202 37t-160.5 102.5t-110 156t-52 197zM338 713q-36 -170 11 -315t162.5 -229.5t272.5 -84.5 t308.5 84.5t260 229.5t144.5 315q36 171 -11 316t-162.5 229.5t-272.5 84.5q-156 0 -307 -84.5t-260 -229.5t-146 -316zM626 564.5q-4 70.5 15 148.5q17 81 48.5 150t76.5 124.5t108.5 87t137.5 31.5q68 0 110.5 -26.5t77.5 -84.5l-67 -55q-27 42 -58.5 63t-81.5 21 q-49 0 -90.5 -19.5t-70 -50t-51 -73.5t-35.5 -83t-23 -85q-10 -44 -13.5 -84t1 -82t20 -72t49 -49.5t82.5 -19.5q52 0 92 21t84 65l45 -58q-64 -60 -115.5 -86t-121.5 -26q-74 0 -124.5 32t-71 86t-24.5 124.5z" />
<glyph unicode="&#xaa;" horiz-adv-x="870" d="M207 864q23 108 106.5 171.5t198.5 66.5h111q25 0 39 1t36.5 9t40.5 23l15 71q14 63 -28 102.5t-101 39.5q-145 0 -215 -117l-82 29q111 188 319 188q98 0 161.5 -65.5t41.5 -165.5l-102 -482l10 -73l-92 -29l-13 65q-66 -43 -118 -60t-113 -17q-115 0 -177.5 63.5 t-37.5 179.5zM279 401l18 88h258l-18 -88h-258zM301 868q-16 -73 27.5 -111t113.5 -38q117 0 230 96l49 225q-57 -24 -107 -24q-108 0 -118 -2q-68 -2 -123.5 -39t-71.5 -107z" />
<glyph unicode="&#xab;" horiz-adv-x="1030" d="M219 473l21 98l465 398l-31 -140l-361 -307l230 -307l-27 -139zM573 473l21 98l465 398l-31 -140l-360 -307l229 -307l-29 -139z" />
<glyph unicode="&#xac;" horiz-adv-x="1044" d="M162 498l18 94h787l-84 -397h-84l63 303h-700z" />
<glyph unicode="&#xad;" horiz-adv-x="776" d="M123 506l20 104h506l-20 -104h-506z" />
<glyph unicode="&#xae;" horiz-adv-x="1644" d="M241.5 486.5q-8.5 106.5 14.5 226.5q41 195 164.5 361t297 263t353.5 97q179 0 311 -97t185 -263t12 -361q-31 -146 -111 -278.5t-189 -229.5t-243.5 -154t-269.5 -57q-108 0 -202 37t-160.5 102.5t-110 156t-52 197zM338 713q-36 -170 11 -315t162.5 -229.5t272.5 -84.5 t308.5 84.5t260 229.5t144.5 315q36 171 -11 316t-162.5 229.5t-272.5 84.5q-156 0 -307 -84.5t-260 -229.5t-146 -316zM612 338l160 754h246q105 0 155.5 -53.5t26.5 -161.5q-16 -78 -73.5 -137t-141.5 -66q33 -53 127 -336h-94l-80 248q-13 42 -32.5 62t-55.5 20h-92 l-70 -330h-76zM772 737h170q150 0 182 140q28 133 -125 133h-170z" />
<glyph unicode="&#xaf;" horiz-adv-x="948" d="M844 1137l22 100h525l-23 -100h-524z" />
<glyph unicode="&#xb0;" horiz-adv-x="708" d="M201 1354q17 82 83.5 140t141.5 58t116.5 -58t24.5 -140q-19 -83 -84.5 -142t-140.5 -59t-117.5 59t-23.5 142zM266 1354q-12 -54 14.5 -92.5t73.5 -38.5q50 0 94 38.5t56 92.5q11 53 -17 91t-77 38q-48 0 -91.5 -38.5t-52.5 -90.5z" />
<glyph unicode="&#xb1;" horiz-adv-x="1058" d="M127 0l20 104h775l-23 -104h-772zM246 561l22 107h336l76 362h102l-77 -362h335l-22 -107h-336l-76 -362h-102l78 362h-336z" />
<glyph unicode="&#xb2;" horiz-adv-x="704" d="M80 532l10 60q45 108 115.5 191t139 131.5t132.5 90.5t110.5 91.5t59.5 111.5q16 79 -27.5 122.5t-117.5 43.5q-55 0 -108 -31t-93 -86l-53 39q111 154 270 154q111 0 169 -64t34 -178q-14 -63 -50.5 -115.5t-83 -87t-104 -75.5t-110.5 -80t-106 -101.5t-87 -138.5h434 l-16 -78h-518z" />
<glyph unicode="&#xb3;" horiz-adv-x="681" d="M96 696l74 29q9 -60 50 -93.5t102 -33.5q77 0 143 52t84 136q19 95 -27 141t-137 48l14 61q81 2 139 43t76 127q17 72 -25.5 121t-111.5 49q-54 0 -105 -31t-83 -83l-58 28q49 77 118.5 118.5t148.5 41.5q102 0 157 -68t31 -176q-13 -69 -55.5 -120t-106.5 -78 q62 -27 88.5 -84.5t8.5 -137.5q-24 -119 -113 -190.5t-201 -71.5q-188 0 -211 172z" />
<glyph unicode="&#xb4;" horiz-adv-x="565" d="M758 1094l223 309h137l-262 -309h-98z" />
<glyph unicode="&#xb5;" horiz-adv-x="1191" d="M193 -399l294 1388h101l-121 -561q-19 -100 -14.5 -174.5t57.5 -118t156 -43.5q93 0 187 63t116 162l143 672h98l-211 -989h-98l25 115q-140 -129 -283 -129q-192 0 -237 151l-113 -536h-100z" />
<glyph unicode="&#xb6;" horiz-adv-x="1056" d="M383 1032q35 164 170.5 281t292.5 117h303l-369 -1737h-104l342 1622h-100l-343 -1622h-104l201 942q-159 7 -241 121t-48 276z" />
<glyph unicode="&#xb7;" horiz-adv-x="538" d="M184 543q10 49 48 82.5t83 33.5q44 0 68.5 -33.5t15.5 -82.5q-11 -48 -49 -82.5t-82 -34.5q-45 0 -69 34.5t-15 82.5z" />
<glyph unicode="&#xb8;" horiz-adv-x="942" d="M461 -403l231 270l-30 153l81 29l33 -190l-188 -262h-127z" />
<glyph unicode="&#xb9;" horiz-adv-x="432" d="M184 1292l222 148h59l-193 -908h-73l170 807l-162 -106z" />
<glyph unicode="&#xba;" horiz-adv-x="903" d="M223 868.5q-3 76.5 19 165.5q91 414 407 414q86 0 142.5 -32t80 -87.5t26.5 -131.5t-19 -163q-41 -193 -140 -304.5t-266 -111.5q-87 0 -144 31.5t-80 87t-26 132zM301 401l18 88h254l-18 -88h-254zM325 940q-4 -41 1.5 -83t23.5 -70t55 -46t91 -18t97.5 18t72.5 46 t52 70.5t36 83t24 91.5t15 92t-1 83.5t-22 71t-53 46.5t-90 18q-68 0 -119 -25.5t-83.5 -73.5t-51 -97t-33.5 -115q-11 -51 -15 -92z" />
<glyph unicode="&#xbb;" horiz-adv-x="1030" d="M123 76l29 139l360 307l-231 307l30 140l293 -398l-18 -98zM477 76l29 139l362 307l-233 307l31 140l295 -398l-21 -98z" />
<glyph unicode="&#xbc;" horiz-adv-x="1572" d="M342 2l883 1428h88l-881 -1428h-90zM348 1296l252 144h45l-184 -875h-82l158 748l-164 -92zM903 223l17 82l442 572h96l-434 -566h260l64 293l59 -14l-57 -277h53l-19 -90h-53l-47 -221h-86l47 221h-342z" />
<glyph unicode="&#xbd;" horiz-adv-x="1646" d="M344 2l883 1428h88l-883 -1428h-88zM350 1296l252 144h45l-184 -875h-82l158 748l-166 -92zM928 2l14 76q93 168 256 311q135 118 186 174.5t60 100.5q13 67 -23 97t-84 30q-92 0 -176 -119l-65 43q120 164 258 164q88 0 141.5 -57.5t32.5 -157.5q-15 -68 -71.5 -135 t-201.5 -191q-107 -91 -211 -248h363l-18 -88h-461z" />
<glyph unicode="&#xbe;" horiz-adv-x="1769" d="M289 731l86 29q6 -51 39.5 -84t85.5 -33q65 0 121 48.5t69 117.5q15 68 -20.5 118t-100.5 50h-34l16 80h27q64 0 117 45.5t65 107.5q12 59 -22 102.5t-95 43.5q-46 0 -91 -29t-73 -76l-73 29q45 77 114 120.5t142 43.5q98 0 151 -68.5t33 -165.5q-21 -105 -141 -188 q98 -88 69 -213q-22 -106 -108 -181t-187 -75q-78 0 -128.5 48t-61.5 130zM535 2l880 1428h90l-882 -1428h-88zM1094 223l16 82l442 572h97l-432 -566h258l65 293l57 -14l-57 -277h55l-20 -90h-53l-47 -221h-84l45 221h-342z" />
<glyph unicode="&#xbf;" horiz-adv-x="1067" d="M205 -100q-36 -173 50.5 -273t250.5 -102q100 -1 192.5 38.5t166.5 124t102 199.5l-103 -2q-32 -117 -131 -183.5t-207 -66.5q-116 0 -178 71.5t-37 193.5q4 21 10 39t16 34.5t16.5 27.5t23 25t22.5 20t27.5 19.5t27 16.5t32.5 17.5t32 17.5q44 26 70 45t61 54.5t60 87 t41 120.5l24 172h-78l-43 -170q-23 -86 -73 -141.5t-152 -110.5q-43 -25 -69.5 -43t-61.5 -51t-57.5 -77.5t-34.5 -102.5zM705 891q11 42 42.5 71t69.5 29q37 0 57.5 -29.5t10.5 -70.5q-7 -39 -40.5 -67.5t-70.5 -28.5q-38 0 -57.5 28t-11.5 68z" />
<glyph unicode="&#xc0;" horiz-adv-x="1232" d="M-20 0l808 1430h136l200 -1430h-125l-59 424h-598l-236 -424h-126zM406 537h520l-103 745zM668 1855h137l94 -309h-98z" />
<glyph unicode="&#xc1;" horiz-adv-x="1232" d="M-20 0l808 1430h136l200 -1430h-125l-59 424h-598l-236 -424h-126zM406 537h520l-103 745zM844 1546l223 309h137l-262 -309h-98z" />
<glyph unicode="&#xc2;" horiz-adv-x="1232" d="M-20 0l808 1430h136l200 -1430h-125l-59 424h-598l-236 -424h-126zM406 537h520l-103 745zM608 1548l269 303h112l139 -303h-124l-91 232l-182 -232h-123z" />
<glyph unicode="&#xc3;" horiz-adv-x="1232" d="M-20 0l808 1430h136l200 -1430h-125l-59 424h-598l-236 -424h-126zM406 537h520l-103 745zM623 1649q48 59 90.5 85.5t97.5 26.5q31 0 55 -11.5t39.5 -27.5t30 -32t34 -27.5t44.5 -11.5q34 0 60 19t54 56l54 -65q-49 -57 -92 -85t-95 -28q-37 0 -66 17.5t-44 38t-39.5 38 t-54.5 17.5q-33 0 -60 -19t-57 -55z" />
<glyph unicode="&#xc4;" horiz-adv-x="1232" d="M-20 0l808 1430h136l200 -1430h-125l-59 424h-598l-236 -424h-126zM406 537h520l-103 745zM645 1653q7 38 37.5 65t65.5 27t54 -27t11 -65q-7 -38 -37.5 -64t-66.5 -26q-35 0 -54 26t-10 64zM991 1653q9 38 40 65t65 27q35 0 54 -27t11 -65q-9 -38 -39 -64t-65 -26 t-54 26t-12 64z" />
<glyph unicode="&#xc5;" horiz-adv-x="1232" d="M-20 0l808 1430h136l200 -1430h-125l-59 424h-598l-236 -424h-126zM406 537h520l-103 745zM731 1761q19 87 89 148t151 61q80 0 124 -61.5t25 -147.5q-19 -88 -89 -150.5t-148 -62.5q-83 0 -127 62.5t-25 150.5zM823 1761q-11 -47 12.5 -79.5t67.5 -32.5q42 0 79 32.5 t46 79.5q9 46 -14 78.5t-64 32.5q-44 0 -81 -32.5t-46 -78.5z" />
<glyph unicode="&#xc6;" horiz-adv-x="1589" d="M-205 0l1045 1430h872l-29 -125h-669l-107 -502h582l-25 -123h-583l-117 -555h670l-25 -125h-791l91 424h-476l-307 -424h-131zM315 537h418l160 749h-29z" />
<glyph unicode="&#xc7;" horiz-adv-x="1091" d="M126 498.5q5 102.5 30 216.5q25 118 64.5 223t100 199.5t135.5 162.5t175.5 108t214.5 40q131 0 211.5 -51.5t146.5 -165.5l-102 -86q-54 90 -117.5 133t-167.5 43q-96 0 -178 -36.5t-139.5 -95t-104 -139.5t-74.5 -162.5t-47 -172.5q-13 -64 -20 -123t-7 -120.5 t9.5 -114t32.5 -99t58 -79t89 -51.5t123 -19q104 0 188 44.5t175 135.5l69 -84q-110 -108 -200.5 -160t-204.5 -61l24 -142l-174 -248h-125l215 256l-26 134q-105 5 -181.5 47.5t-118.5 111t-60.5 161t-13.5 195z" />
<glyph unicode="&#xc8;" horiz-adv-x="1095" d="M72 0l303 1430h844l-29 -125h-723l-109 -506h633l-24 -119h-633l-119 -555h725l-25 -125h-843zM692 1855h135l95 -309h-97z" />
<glyph unicode="&#xc9;" horiz-adv-x="1095" d="M72 0l303 1430h844l-29 -125h-723l-109 -506h633l-24 -119h-633l-119 -555h725l-25 -125h-843zM627 1546l223 309h137l-262 -309h-98z" />
<glyph unicode="&#xca;" horiz-adv-x="1095" d="M72 0l303 1430h844l-29 -125h-723l-109 -506h633l-24 -119h-633l-119 -555h725l-25 -125h-843zM539 1548l266 303h113l139 -303h-123l-90 232l-185 -232h-120z" />
<glyph unicode="&#xcb;" horiz-adv-x="1095" d="M72 0l303 1430h844l-29 -125h-723l-109 -506h633l-24 -119h-633l-119 -555h725l-25 -125h-843zM549 1653q7 38 37.5 65t64.5 27q35 0 54.5 -27t11.5 -65q-7 -38 -38 -64t-67 -26q-35 0 -53.5 26t-9.5 64zM897 1653q7 38 38 65t66 27t53.5 -26.5t10.5 -65.5 q-7 -38 -37.5 -64t-66.5 -26q-34 0 -53.5 26t-10.5 64z" />
<glyph unicode="&#xcc;" horiz-adv-x="370" d="M72 0l303 1430h119l-304 -1430h-118zM258 1855h137l94 -309h-98z" />
<glyph unicode="&#xcd;" horiz-adv-x="370" d="M72 0l303 1430h119l-304 -1430h-118zM399 1546l226 309h137l-262 -309h-101z" />
<glyph unicode="&#xce;" horiz-adv-x="370" d="M72 0l303 1430h119l-304 -1430h-118zM201 1548l266 303h113l139 -303h-123l-90 232l-182 -232h-123z" />
<glyph unicode="&#xcf;" horiz-adv-x="370" d="M72 0l303 1430h119l-304 -1430h-118zM221 1653q7 38 37.5 65t65.5 27t54 -27t11 -65q-7 -38 -37.5 -64t-66.5 -26q-35 0 -54 26t-10 64zM567 1653q9 38 40 65t65 27q35 0 54 -27t11 -65q-9 -38 -39 -64t-65 -26q-34 0 -53.5 26t-12.5 64z" />
<glyph unicode="&#xd0;" horiz-adv-x="1214" d="M70 0l139 659h-80l23 103h79l142 668h395q89 0 154 -7.5t128.5 -32t101 -66t56.5 -112.5t11 -170q-9 -98 -56 -327q-56 -246 -84 -326q-34 -99 -83 -170.5t-104 -113.5t-128.5 -66t-141 -31.5t-157.5 -7.5h-395zM213 127h276q53 0 90 1.5t82.5 8t78 18.5t68.5 33t63 51 t52 74t44 101q36 95 80 301q42 198 49 303q5 57 -2 101t-21.5 74t-42 51t-55.5 33t-70.5 18.5t-78 8t-87.5 1.5h-274l-117 -543h295l-22 -103h-293z" />
<glyph unicode="&#xd1;" horiz-adv-x="1212" d="M72 0l303 1430h117l421 -1192l254 1192h117l-303 -1430h-113l-426 1192l-252 -1192h-118zM584 1649q46 58 89 85t97 27q31 0 55 -11.5t39.5 -27.5t30 -32t35 -27.5t45.5 -11.5q58 0 112 75l54 -65q-47 -56 -91 -84.5t-96 -28.5q-37 0 -66 17.5t-44 38t-39.5 38 t-54.5 17.5q-56 0 -115 -74z" />
<glyph unicode="&#xd2;" horiz-adv-x="1230" d="M124.5 494q5.5 104 31.5 221q24 117 62.5 220.5t98 199t133.5 164t173 109t213 40.5t196 -40.5t126.5 -108.5t63 -163.5t13 -199t-30.5 -221.5q-25 -117 -63.5 -220.5t-97.5 -199t-132.5 -164t-173 -109t-213.5 -40.5t-196 40.5t-126.5 109t-63.5 163.5t-13.5 199z M244 433.5q1 -70.5 19.5 -127t52 -102t93 -70.5t140.5 -25q97 0 179 37t138.5 95t101.5 140.5t72 162t47 171.5q19 92 26.5 171.5t-2.5 162t-41.5 140.5t-97.5 95t-163 37t-179 -36.5t-138.5 -95t-101 -140.5t-71 -162.5t-45.5 -171.5q-16 -75 -23.5 -143t-6.5 -138.5z M756 1855h137l94 -309h-98z" />
<glyph unicode="&#xd3;" horiz-adv-x="1230" d="M124.5 494q5.5 104 31.5 221q24 117 62.5 220.5t98 199t133.5 164t173 109t213 40.5t196 -40.5t126.5 -108.5t63 -163.5t13 -199t-30.5 -221.5q-25 -117 -63.5 -220.5t-97.5 -199t-132.5 -164t-173 -109t-213.5 -40.5t-196 40.5t-126.5 109t-63.5 163.5t-13.5 199z M244 433.5q1 -70.5 19.5 -127t52 -102t93 -70.5t140.5 -25q97 0 179 37t138.5 95t101.5 140.5t72 162t47 171.5q19 92 26.5 171.5t-2.5 162t-41.5 140.5t-97.5 95t-163 37t-179 -36.5t-138.5 -95t-101 -140.5t-71 -162.5t-45.5 -171.5q-16 -75 -23.5 -143t-6.5 -138.5z M690 1546l225 309h138l-265 -309h-98z" />
<glyph unicode="&#xd4;" horiz-adv-x="1230" d="M124.5 494q5.5 104 31.5 221q24 117 62.5 220.5t98 199t133.5 164t173 109t213 40.5t196 -40.5t126.5 -108.5t63 -163.5t13 -199t-30.5 -221.5q-25 -117 -63.5 -220.5t-97.5 -199t-132.5 -164t-173 -109t-213.5 -40.5t-196 40.5t-126.5 109t-63.5 163.5t-13.5 199z M244 433.5q1 -70.5 19.5 -127t52 -102t93 -70.5t140.5 -25q97 0 179 37t138.5 95t101.5 140.5t72 162t47 171.5q19 92 26.5 171.5t-2.5 162t-41.5 140.5t-97.5 95t-163 37t-179 -36.5t-138.5 -95t-101 -140.5t-71 -162.5t-45.5 -171.5q-16 -75 -23.5 -143t-6.5 -138.5z M600 1548l268 303h113l139 -303h-125l-90 232l-182 -232h-123z" />
<glyph unicode="&#xd5;" horiz-adv-x="1230" d="M124.5 494q5.5 104 31.5 221q24 117 62.5 220.5t98 199t133.5 164t173 109t213 40.5t196 -40.5t126.5 -108.5t63 -163.5t13 -199t-30.5 -221.5q-25 -117 -63.5 -220.5t-97.5 -199t-132.5 -164t-173 -109t-213.5 -40.5t-196 40.5t-126.5 109t-63.5 163.5t-13.5 199z M244 433.5q1 -70.5 19.5 -127t52 -102t93 -70.5t140.5 -25q97 0 179 37t138.5 95t101.5 140.5t72 162t47 171.5q19 92 26.5 171.5t-2.5 162t-41.5 140.5t-97.5 95t-163 37t-179 -36.5t-138.5 -95t-101 -140.5t-71 -162.5t-45.5 -171.5q-16 -75 -23.5 -143t-6.5 -138.5z M592 1649q47 58 89 85t97 27q31 0 55 -11.5t39.5 -27.5t30 -32t34 -27.5t44.5 -11.5q61 0 115 75l53 -65q-49 -57 -91.5 -85t-94.5 -28q-37 0 -66 17.5t-44.5 38t-40 38t-54.5 17.5q-33 0 -60 -19t-57 -55z" />
<glyph unicode="&#xd6;" horiz-adv-x="1230" d="M124.5 494q5.5 104 31.5 221q24 117 62.5 220.5t98 199t133.5 164t173 109t213 40.5t196 -40.5t126.5 -108.5t63 -163.5t13 -199t-30.5 -221.5q-25 -117 -63.5 -220.5t-97.5 -199t-132.5 -164t-173 -109t-213.5 -40.5t-196 40.5t-126.5 109t-63.5 163.5t-13.5 199z M244 433.5q1 -70.5 19.5 -127t52 -102t93 -70.5t140.5 -25q97 0 179 37t138.5 95t101.5 140.5t72 162t47 171.5q19 92 26.5 171.5t-2.5 162t-41.5 140.5t-97.5 95t-163 37t-179 -36.5t-138.5 -95t-101 -140.5t-71 -162.5t-45.5 -171.5q-16 -75 -23.5 -143t-6.5 -138.5z M612 1653q7 38 37.5 65t65.5 27t54 -27t11 -65q-7 -38 -38.5 -64t-65.5 -26q-35 0 -54 26t-10 64zM958 1653q9 38 40 65t65 27q35 0 54 -27t11 -65q-9 -38 -39 -64t-65 -26q-34 0 -53.5 26t-12.5 64z" />
<glyph unicode="&#xd7;" horiz-adv-x="923" d="M147 299l297 262l-184 260l84 76l184 -262l295 262l56 -76l-295 -260l182 -262l-84 -74l-186 260l-295 -260z" />
<glyph unicode="&#xd8;" horiz-adv-x="1230" d="M111 -6l98 135q-132 205 -49 586q24 117 62.5 221t98 199.5t133.5 163.5t173 108.5t213 40.5q142 0 254 -80l49 68h104l-92 -127q136 -207 53 -594q-25 -117 -63.5 -220.5t-97.5 -199t-132.5 -164t-173 -109t-213.5 -40.5q-152 0 -260 86l-51 -74h-106zM276 715 q-61 -288 17 -463l723 1003q-87 66 -203 66q-97 0 -179 -37t-138.5 -95t-101.5 -140t-72 -162t-46 -172zM348 182q79 -73 207 -73q96 0 178 37t138 95t101.5 140t72.5 162t47 172q62 302 -23 471z" />
<glyph unicode="&#xd9;" horiz-adv-x="1206" d="M172 606l176 824h119l-174 -820q-18 -84 -24.5 -151.5t2.5 -135.5t38 -113t88 -73t146 -28q89 0 160.5 28t120.5 73t86.5 112t60 135t39.5 153l176 820h114l-174 -824q-30 -143 -78 -253t-119.5 -195.5t-175 -130.5t-235.5 -45q-476 0 -346 624zM745 1855h136l94 -309 h-96z" />
<glyph unicode="&#xda;" horiz-adv-x="1206" d="M172 606l176 824h119l-174 -820q-18 -84 -24.5 -151.5t2.5 -135.5t38 -113t88 -73t146 -28q89 0 160.5 28t120.5 73t86.5 112t60 135t39.5 153l176 820h114l-174 -824q-30 -143 -78 -253t-119.5 -195.5t-175 -130.5t-235.5 -45q-476 0 -346 624zM680 1546l223 309h137 l-262 -309h-98z" />
<glyph unicode="&#xdb;" horiz-adv-x="1206" d="M172 606l176 824h119l-174 -820q-18 -84 -24.5 -151.5t2.5 -135.5t38 -113t88 -73t146 -28q89 0 160.5 28t120.5 73t86.5 112t60 135t39.5 153l176 820h114l-174 -824q-30 -143 -78 -253t-119.5 -195.5t-175 -130.5t-235.5 -45q-476 0 -346 624zM590 1548l266 303h113 l139 -303h-123l-90 232l-182 -232h-123z" />
<glyph unicode="&#xdc;" horiz-adv-x="1206" d="M172 606l176 824h119l-174 -820q-18 -84 -24.5 -151.5t2.5 -135.5t38 -113t88 -73t146 -28q89 0 160.5 28t120.5 73t86.5 112t60 135t39.5 153l176 820h114l-174 -824q-30 -143 -78 -253t-119.5 -195.5t-175 -130.5t-235.5 -45q-476 0 -346 624zM600 1653q7 38 37.5 65 t64.5 27q35 0 55 -27t13 -65q-9 -38 -40 -64t-66 -26q-34 0 -52.5 26t-11.5 64zM948 1653q7 38 38.5 65t66.5 27t54 -27t11 -65q-9 -38 -39 -64t-65 -26q-36 0 -55.5 26t-10.5 64z" />
<glyph unicode="&#xdd;" horiz-adv-x="927" d="M205 1430h131l192 -812l535 812h131l-639 -957l-100 -473h-117l100 473zM545 1546l225 309h137l-264 -309h-98z" />
<glyph unicode="&#xde;" horiz-adv-x="1105" d="M72 0l303 1430h119l-64 -295h371q205 0 301 -95.5t51 -302.5q-22 -107 -71 -185t-119 -123t-152 -66t-180 -21h-369l-72 -342h-118zM289 467h370q71 0 126 11t108 39t89.5 83.5t53.5 136.5q12 48 9.5 86.5t-10 67t-28 49t-43 34.5t-55.5 22t-65 11t-72 3h-369z" />
<glyph unicode="&#xdf;" horiz-adv-x="1212" d="M-47 -461l272 1266q51 239 79 322q61 179 172 247q90 56 231 56q85 0 145 -22.5t92 -62.5t49 -95t15.5 -119.5t-9.5 -135.5q134 -23 203 -157l-102 -45q-50 108 -178 108q-89 0 -155.5 -46t-66.5 -132q0 -38 24 -66.5t63 -47t86 -35.5t93.5 -38t85.5 -48t63 -71.5 t24 -103.5q0 -147 -113 -240t-270 -93q-257 0 -305 262l106 22q16 -81 69 -127.5t142 -46.5q61 0 116 21.5t93.5 68.5t38.5 111q0 38 -18.5 67.5t-49.5 48t-70 36.5t-80 31.5t-80 34t-70 44.5t-49.5 62t-18.5 87q0 123 88 204t221 93q10 60 12.5 104t-5 88.5t-28 72.5 t-61 45.5t-100.5 17.5q-54 0 -98.5 -14.5t-75.5 -31.5t-58.5 -58t-42 -67t-32.5 -87.5t-24.5 -90t-22.5 -102.5l-15 -69l-270 -1268h-115z" />
<glyph unicode="&#xe0;" d="M82 315q0 94 29.5 192t84.5 185t127.5 156.5t165 110t189.5 40.5q132 0 276 -75l-184 -844l6 -80l-106 -14l-6 92l81 387q-182 -481 -438 -481q-61 0 -106.5 28.5t-70.5 77.5t-36.5 105t-11.5 120zM195 299q0 -32 6 -66t19.5 -69t40 -57.5t61.5 -22.5q76 0 150.5 60.5 t130.5 151.5t104 202t77 207t43 172q-69 30 -137 30q-84 0 -163.5 -40t-138 -105.5t-103 -145.5t-67.5 -162.5t-23 -154.5zM539 1403h137l94 -309h-98z" />
<glyph unicode="&#xe1;" d="M82 315q0 94 29.5 192t84.5 185t127.5 156.5t165 110t189.5 40.5q132 0 276 -75l-184 -844l6 -80l-106 -14l-6 92l81 387q-182 -481 -438 -481q-61 0 -106.5 28.5t-70.5 77.5t-36.5 105t-11.5 120zM195 299q0 -32 6 -66t19.5 -69t40 -57.5t61.5 -22.5q76 0 150.5 60.5 t130.5 151.5t104 202t77 207t43 172q-69 30 -137 30q-84 0 -163.5 -40t-138 -105.5t-103 -145.5t-67.5 -162.5t-23 -154.5zM608 1094l223 309h138l-262 -309h-99z" />
<glyph unicode="&#xe2;" d="M82 315q0 94 29.5 192t84.5 185t127.5 156.5t165 110t189.5 40.5q132 0 276 -75l-184 -844l6 -80l-106 -14l-6 92l81 387q-182 -481 -438 -481q-61 0 -106.5 28.5t-70.5 77.5t-36.5 105t-11.5 120zM195 299q0 -32 6 -66t19.5 -69t40 -57.5t61.5 -22.5q76 0 150.5 60.5 t130.5 151.5t104 202t77 207t43 172q-69 30 -137 30q-84 0 -163.5 -40t-138 -105.5t-103 -145.5t-67.5 -162.5t-23 -154.5zM442 1096l267 303h112l140 -303h-123l-90 231l-185 -231h-121z" />
<glyph unicode="&#xe3;" d="M82 315q0 94 29.5 192t84.5 185t127.5 156.5t165 110t189.5 40.5q132 0 276 -75l-184 -844l6 -80l-106 -14l-6 92l81 387q-182 -481 -438 -481q-61 0 -106.5 28.5t-70.5 77.5t-36.5 105t-11.5 120zM195 299q0 -32 6 -66t19.5 -69t40 -57.5t61.5 -22.5q76 0 150.5 60.5 t130.5 151.5t104 202t77 207t43 172q-69 30 -137 30q-84 0 -163.5 -40t-138 -105.5t-103 -145.5t-67.5 -162.5t-23 -154.5zM426 1196q46 58 89.5 85.5t96.5 27.5q31 0 55 -11.5t39.5 -27.5t30 -32.5t35 -28t45.5 -11.5q58 0 113 76l53 -66q-49 -56 -91.5 -84t-94.5 -28 q-31 0 -55 11.5t-40 27.5t-30.5 32t-34.5 27.5t-45 11.5q-33 0 -60 -19t-57 -54z" />
<glyph unicode="&#xe4;" d="M82 315q0 94 29.5 192t84.5 185t127.5 156.5t165 110t189.5 40.5q132 0 276 -75l-184 -844l6 -80l-106 -14l-6 92l81 387q-182 -481 -438 -481q-61 0 -106.5 28.5t-70.5 77.5t-36.5 105t-11.5 120zM195 299q0 -32 6 -66t19.5 -69t40 -57.5t61.5 -22.5q76 0 150.5 60.5 t130.5 151.5t104 202t77 207t43 172q-69 30 -137 30q-84 0 -163.5 -40t-138 -105.5t-103 -145.5t-67.5 -162.5t-23 -154.5zM395 1200q7 38 38 65t65 27q35 0 54.5 -27t10.5 -65q-7 -38 -37.5 -64t-66.5 -26q-34 0 -53.5 26t-10.5 64zM743 1200q7 38 38.5 65t66.5 27 t53.5 -27t9.5 -65q-7 -38 -37 -64t-65 -26q-36 0 -55.5 26t-10.5 64z" />
<glyph unicode="&#xe5;" d="M82 315q0 94 29.5 192t84.5 185t127.5 156.5t165 110t189.5 40.5q132 0 276 -75l-184 -844l6 -80l-106 -14l-6 92l81 387q-182 -481 -438 -481q-61 0 -106.5 28.5t-70.5 77.5t-36.5 105t-11.5 120zM195 299q0 -32 6 -66t19.5 -69t40 -57.5t61.5 -22.5q76 0 150.5 60.5 t130.5 151.5t104 202t77 207t43 172q-69 30 -137 30q-84 0 -163.5 -40t-138 -105.5t-103 -145.5t-67.5 -162.5t-23 -154.5zM512 1309q19 86 89.5 147.5t152.5 61.5q79 0 122.5 -61.5t24.5 -147.5q-19 -88 -88.5 -150.5t-148.5 -62.5q-81 0 -125 62.5t-27 150.5zM604 1309 q-11 -47 12.5 -80t67.5 -33q42 0 79.5 33t47.5 80q9 45 -15 77.5t-65 32.5q-43 0 -80.5 -32.5t-46.5 -77.5z" />
<glyph unicode="&#xe6;" horiz-adv-x="1488" d="M82 313q1 94 30 192.5t84 186t126.5 157t163 110t188.5 40.5q116 0 239 -63l-16 -74q139 139 307 139q112 0 198.5 -55t86.5 -155q0 -52 -27 -96t-70 -74.5t-103 -55.5t-120.5 -40t-127 -26t-117.5 -15.5t-99 -6.5q-18 -85 -18 -149q0 -105 48.5 -170.5t156.5 -65.5 q75 0 135 32.5t121 92.5l75 -80q-89 -86 -163.5 -119.5t-173.5 -33.5q-75 0 -134.5 24t-102.5 71.5t-61 126.5t-6 181q-72 -175 -177.5 -289t-217.5 -114q-61 0 -106.5 28.5t-70.5 77.5t-36.5 104.5t-11.5 118.5zM197 299q0 -33 5.5 -66.5t18 -69t38 -57.5t60.5 -22 q74 0 147 60.5t128.5 151.5t102.5 201.5t76 207t42 172.5q-67 30 -133 30q-69 0 -135 -28.5t-118.5 -76t-96.5 -110t-73.5 -130t-45.5 -135.5t-16 -128zM846 551q50 3 111.5 11.5t137.5 27t137 43.5t102.5 64.5t41.5 86.5q0 39 -29 65.5t-66 36t-77 9.5q-129 0 -221 -94 t-137 -250z" />
<glyph unicode="&#xe7;" horiz-adv-x="851" d="M61 332q0 95 20.5 189t64.5 181t105.5 153.5t150 106t192.5 39.5q97 0 160.5 -36.5t117.5 -124.5l-98 -58q-42 60 -84.5 84.5t-107.5 24.5q-98 0 -177.5 -54t-125.5 -138t-70.5 -175.5t-24.5 -177.5q0 -114 51.5 -184t165.5 -70q71 0 129 31t123 94l78 -80 q-79 -77 -148 -112.5t-153 -38.5l29 -138l-193 -254h-129l228 254l-29 138q-135 15 -205 107.5t-70 238.5z" />
<glyph unicode="&#xe8;" horiz-adv-x="874" d="M61 332q1 117 36.5 234t100 215t166 159t222.5 61q71 0 134.5 -22t108.5 -71t45 -117q0 -52 -27.5 -96t-71.5 -74.5t-105 -55.5t-122 -40t-129 -26t-120 -15.5t-100 -6.5q-19 -90 -19 -145q0 -108 50 -174t159 -66q78 0 138 32t122 93l78 -80q-92 -86 -168 -119.5 t-176 -33.5q-161 0 -241.5 95t-80.5 253zM215 549q54 3 117 12t141.5 28t140 44t104 64.5t42.5 86.5q0 57 -54.5 85t-121.5 28q-130 0 -224.5 -96t-144.5 -252zM477 1403h137l95 -309h-99z" />
<glyph unicode="&#xe9;" horiz-adv-x="874" d="M61 332q1 117 36.5 234t100 215t166 159t222.5 61q71 0 134.5 -22t108.5 -71t45 -117q0 -52 -27.5 -96t-71.5 -74.5t-105 -55.5t-122 -40t-129 -26t-120 -15.5t-100 -6.5q-19 -90 -19 -145q0 -108 50 -174t159 -66q78 0 138 32t122 93l78 -80q-92 -86 -168 -119.5 t-176 -33.5q-161 0 -241.5 95t-80.5 253zM215 549q54 3 117 12t141.5 28t140 44t104 64.5t42.5 86.5q0 57 -54.5 85t-121.5 28q-130 0 -224.5 -96t-144.5 -252zM432 1094l225 309h138l-263 -309h-100z" />
<glyph unicode="&#xea;" horiz-adv-x="874" d="M61 332q1 117 36.5 234t100 215t166 159t222.5 61q71 0 134.5 -22t108.5 -71t45 -117q0 -52 -27.5 -96t-71.5 -74.5t-105 -55.5t-122 -40t-129 -26t-120 -15.5t-100 -6.5q-19 -90 -19 -145q0 -108 50 -174t159 -66q78 0 138 32t122 93l78 -80q-92 -86 -168 -119.5 t-176 -33.5q-161 0 -241.5 95t-80.5 253zM215 549q54 3 117 12t141.5 28t140 44t104 64.5t42.5 86.5q0 57 -54.5 85t-121.5 28q-130 0 -224.5 -96t-144.5 -252zM354 1096l269 303h112l139 -303h-124l-88 231l-185 -231h-123z" />
<glyph unicode="&#xeb;" horiz-adv-x="874" d="M61 332q1 117 36.5 234t100 215t166 159t222.5 61q71 0 134.5 -22t108.5 -71t45 -117q0 -52 -27.5 -96t-71.5 -74.5t-105 -55.5t-122 -40t-129 -26t-120 -15.5t-100 -6.5q-19 -90 -19 -145q0 -108 50 -174t159 -66q78 0 138 32t122 93l78 -80q-92 -86 -168 -119.5 t-176 -33.5q-161 0 -241.5 95t-80.5 253zM215 549q54 3 117 12t141.5 28t140 44t104 64.5t42.5 86.5q0 57 -54.5 85t-121.5 28q-130 0 -224.5 -96t-144.5 -252zM356 1200q7 38 38 65t65 27q35 0 54 -27t11 -65q-7 -38 -37.5 -64t-66.5 -26q-35 0 -54 26t-10 64zM705 1200 q7 38 38 65t66 27t53 -26.5t10 -65.5q-7 -38 -37.5 -64t-66.5 -26q-34 0 -53 26t-10 64z" />
<glyph unicode="&#xec;" horiz-adv-x="505" d="M86 0l225 987h119l-223 -987h-121zM221 1403h135l95 -309h-97z" />
<glyph unicode="&#xed;" horiz-adv-x="505" d="M86 0l225 987h119l-223 -987h-121zM326 1094l223 309h137l-262 -309h-98z" />
<glyph unicode="&#xee;" horiz-adv-x="505" d="M86 0l225 987h119l-223 -987h-121zM133 1096l268 303h113l139 -303h-125l-88 231l-184 -231h-123z" />
<glyph unicode="&#xef;" horiz-adv-x="505" d="M86 0l225 987h119l-223 -987h-121zM158 1200q8 38 37.5 65t64.5 27t54.5 -27t11.5 -65q-7 -38 -38 -64t-67 -26q-35 0 -53.5 26t-9.5 64zM506 1200q7 38 37.5 65t64.5 27q35 0 54.5 -27t11.5 -65q-7 -38 -38 -64t-67 -26q-34 0 -53 26t-10 64z" />
<glyph unicode="&#xf0;" horiz-adv-x="950" d="M63 326.5q4 73.5 23 160.5q23 113 62 201.5t97.5 158t143 107t189.5 37.5q87 0 157 -41l-47 226h-229l20 98h193l-56 262h101l55 -262h168l-20 -98h-129q7 -31 24 -107t31.5 -137.5t25.5 -100.5q14 -49 14.5 -113t-7 -112.5t-21.5 -118.5q-110 -505 -491 -505 q-86 0 -148 26t-96.5 70.5t-49 109.5t-10.5 138.5zM167 365.5q-5 -53.5 2 -107t29.5 -89t69.5 -57.5t117 -22q71 0 128.5 22.5t96 58.5t68.5 90t47.5 107t30.5 119q19 86 21.5 151.5t-14 125.5t-68.5 92.5t-138 32.5q-71 0 -129 -23t-96.5 -60t-68 -91.5t-46.5 -108 t-31 -119.5q-14 -68 -19 -121.5z" />
<glyph unicode="&#xf1;" horiz-adv-x="1021" d="M61 0l220 989h122l-102 -454q188 464 438 464q60 0 104 -18t68 -50.5t37 -71t13 -87t-5 -92t-16 -90.5l-131 -590h-121l139 629q11 46 14 90t-4.5 87.5t-37 70t-78.5 26.5q-52 0 -104 -28t-94.5 -74t-83 -107.5t-71.5 -125.5t-58 -132.5t-44.5 -123.5t-29.5 -103 q-42 -145 -54 -209h-121zM469 1196q46 58 89.5 85.5t98.5 27.5q31 0 55 -11.5t39.5 -27.5t30 -32.5t34 -28t44.5 -11.5q57 0 115 76l53 -66q-49 -56 -91.5 -84t-94.5 -28q-31 0 -55 11.5t-40.5 27.5t-31.5 32t-35 27.5t-45 11.5q-53 0 -115 -73z" />
<glyph unicode="&#xf2;" horiz-adv-x="931" d="M61 289q0 85 12.5 167.5t38.5 163.5t69.5 149.5t101 121.5t138 83t175.5 30q154 0 234.5 -82.5t80.5 -227.5q0 -101 -16.5 -198t-56.5 -191.5t-99.5 -165t-152.5 -114t-209 -43.5q-154 0 -235 81t-81 226zM186 324q0 -234 217 -234q81 0 147.5 37.5t109 97t71.5 137 t41.5 153.5t11.5 149q0 106 -54.5 168.5t-162.5 62.5q-80 0 -146 -37.5t-108.5 -96.5t-71.5 -136t-41.5 -152.5t-13.5 -148.5zM502 1403h137l94 -309h-98z" />
<glyph unicode="&#xf3;" horiz-adv-x="931" d="M61 289q0 85 12.5 167.5t38.5 163.5t69.5 149.5t101 121.5t138 83t175.5 30q154 0 234.5 -82.5t80.5 -227.5q0 -101 -16.5 -198t-56.5 -191.5t-99.5 -165t-152.5 -114t-209 -43.5q-154 0 -235 81t-81 226zM186 324q0 -234 217 -234q81 0 147.5 37.5t109 97t71.5 137 t41.5 153.5t11.5 149q0 106 -54.5 168.5t-162.5 62.5q-80 0 -146 -37.5t-108.5 -96.5t-71.5 -136t-41.5 -152.5t-13.5 -148.5zM461 1094l225 309h137l-264 -309h-98z" />
<glyph unicode="&#xf4;" horiz-adv-x="931" d="M61 289q0 85 12.5 167.5t38.5 163.5t69.5 149.5t101 121.5t138 83t175.5 30q154 0 234.5 -82.5t80.5 -227.5q0 -101 -16.5 -198t-56.5 -191.5t-99.5 -165t-152.5 -114t-209 -43.5q-154 0 -235 81t-81 226zM186 324q0 -234 217 -234q81 0 147.5 37.5t109 97t71.5 137 t41.5 153.5t11.5 149q0 106 -54.5 168.5t-162.5 62.5q-80 0 -146 -37.5t-108.5 -96.5t-71.5 -136t-41.5 -152.5t-13.5 -148.5zM383 1096l268 303h113l137 -303h-123l-90 231l-182 -231h-123z" />
<glyph unicode="&#xf5;" horiz-adv-x="931" d="M61 289q0 85 12.5 167.5t38.5 163.5t69.5 149.5t101 121.5t138 83t175.5 30q154 0 234.5 -82.5t80.5 -227.5q0 -101 -16.5 -198t-56.5 -191.5t-99.5 -165t-152.5 -114t-209 -43.5q-154 0 -235 81t-81 226zM186 324q0 -234 217 -234q81 0 147.5 37.5t109 97t71.5 137 t41.5 153.5t11.5 149q0 106 -54.5 168.5t-162.5 62.5q-80 0 -146 -37.5t-108.5 -96.5t-71.5 -136t-41.5 -152.5t-13.5 -148.5zM365 1196q45 58 88 85.5t98 27.5q31 0 55 -11.5t39.5 -27.5t30 -32.5t34 -28t44.5 -11.5q34 0 59.5 19t54.5 57l54 -66q-49 -56 -92 -84t-95 -28 q-31 0 -55 11.5t-40 27.5t-30.5 32t-34.5 27.5t-45 11.5q-33 0 -59.5 -19t-56.5 -54z" />
<glyph unicode="&#xf6;" horiz-adv-x="931" d="M61 289q0 85 12.5 167.5t38.5 163.5t69.5 149.5t101 121.5t138 83t175.5 30q154 0 234.5 -82.5t80.5 -227.5q0 -101 -16.5 -198t-56.5 -191.5t-99.5 -165t-152.5 -114t-209 -43.5q-154 0 -235 81t-81 226zM186 324q0 -234 217 -234q81 0 147.5 37.5t109 97t71.5 137 t41.5 153.5t11.5 149q0 106 -54.5 168.5t-162.5 62.5q-80 0 -146 -37.5t-108.5 -96.5t-71.5 -136t-41.5 -152.5t-13.5 -148.5zM385 1200q7 38 37.5 65t64.5 27q36 0 55.5 -27t10.5 -65q-7 -38 -37.5 -64t-66.5 -26q-34 0 -53.5 26t-10.5 64zM733 1200q7 38 38.5 65t66.5 27 t53.5 -27t9.5 -65q-7 -38 -37 -64t-65 -26q-36 0 -55.5 26t-10.5 64z" />
<glyph unicode="&#xf7;" horiz-adv-x="1044" d="M188 510l23 102h764l-23 -102h-764zM426 231q7 36 37 62t63 26q35 0 54 -25.5t10 -62.5q-8 -37 -37.5 -63.5t-63.5 -26.5q-32 0 -51 26.5t-12 63.5zM565 891q9 37 39 63.5t64 26.5t52.5 -26.5t10.5 -63.5q-9 -37 -38 -62.5t-64 -25.5q-33 0 -52 26t-12 62z" />
<glyph unicode="&#xf8;" horiz-adv-x="931" d="M61 289q0 85 12.5 167.5t38.5 163.5t69.5 149.5t101 121.5t138 83t175.5 30q108 0 186 -46l33 46h90l-67 -91q73 -79 73 -219q0 -101 -16.5 -198t-56.5 -191.5t-99.5 -165t-152.5 -114t-209 -43.5q-115 0 -191 45l-28 -39h-86l61 84q-72 75 -72 217zM186 324 q0 -86 29 -140l490 670q-54 41 -138 41q-80 0 -146 -37.5t-108.5 -96.5t-71.5 -136t-41.5 -152.5t-13.5 -148.5zM262 129q55 -39 141 -39q81 0 147.5 37.5t109 97t71.5 137t41.5 153.5t11.5 149q0 78 -30 133z" />
<glyph unicode="&#xf9;" horiz-adv-x="995" d="M108 288.5q4 50.5 15 104.5l131 596h121l-137 -633q-11 -48 -13.5 -90.5t4.5 -85.5t36.5 -68.5t78.5 -25.5q304 0 500 772l30 131h121l-215 -989h-121l105 461q-96 -243 -203.5 -359t-232.5 -116q-70 0 -118 27.5t-70 69t-29 98.5t-3 107.5zM559 1403h137l95 -309h-99z " />
<glyph unicode="&#xfa;" horiz-adv-x="995" d="M108 288.5q4 50.5 15 104.5l131 596h121l-137 -633q-11 -48 -13.5 -90.5t4.5 -85.5t36.5 -68.5t78.5 -25.5q304 0 500 772l30 131h121l-215 -989h-121l105 461q-96 -243 -203.5 -359t-232.5 -116q-70 0 -118 27.5t-70 69t-29 98.5t-3 107.5zM494 1094l225 309h137 l-262 -309h-100z" />
<glyph unicode="&#xfb;" horiz-adv-x="995" d="M108 288.5q4 50.5 15 104.5l131 596h121l-137 -633q-11 -48 -13.5 -90.5t4.5 -85.5t36.5 -68.5t78.5 -25.5q304 0 500 772l30 131h121l-215 -989h-121l105 461q-96 -243 -203.5 -359t-232.5 -116q-70 0 -118 27.5t-70 69t-29 98.5t-3 107.5zM399 1096l267 303h112 l140 -303h-123l-90 231l-185 -231h-121z" />
<glyph unicode="&#xfc;" horiz-adv-x="995" d="M108 288.5q4 50.5 15 104.5l131 596h121l-137 -633q-11 -48 -13.5 -90.5t4.5 -85.5t36.5 -68.5t78.5 -25.5q304 0 500 772l30 131h121l-215 -989h-121l105 461q-96 -243 -203.5 -359t-232.5 -116q-70 0 -118 27.5t-70 69t-29 98.5t-3 107.5zM401 1200q9 38 39 65t64 27 q35 0 54.5 -27t12.5 -65q-9 -38 -40 -64t-66 -26q-34 0 -52.5 26t-11.5 64zM750 1200q9 38 39.5 65t64.5 27q35 0 54.5 -27t11.5 -65q-9 -38 -39.5 -64t-65.5 -26t-54 26t-11 64z" />
<glyph unicode="&#xfd;" horiz-adv-x="917" d="M-82 -453l23 105q55 0 96 12t72.5 40t50.5 53t47 71l117 197l-152 964h131l107 -827l477 827h133l-731 -1235q-122 -210 -332 -207h-39zM455 1094l223 309h137l-262 -309h-98z" />
<glyph unicode="&#xfe;" horiz-adv-x="927" d="M-41 -442l397 1872h113l-117 -549q113 123 271 123q84 0 143 -27.5t91 -73.5t45 -112t9 -138t-22 -157q-23 -109 -61 -197t-95 -160.5t-140.5 -112.5t-186.5 -40q-69 0 -128.5 27t-89.5 89l-116 -544h-113zM238 346q-22 -109 36 -173t158 -64q67 0 121 24t89 60 t62.5 90.5t43 103t28.5 109.5q10 52 15 93.5t5.5 88t-11 81.5t-33 64t-61.5 44.5t-95 15.5q-102 0 -187 -65.5t-108 -172.5z" />
<glyph unicode="&#xff;" horiz-adv-x="917" d="M-82 -453l23 105q55 0 96 12t72.5 40t50.5 53t47 71l117 197l-152 964h131l107 -827l477 827h133l-731 -1235q-122 -210 -332 -207h-39zM377 1200q7 38 37.5 65t64.5 27q35 0 55 -27t13 -65q-9 -38 -40 -64t-67 -26q-34 0 -52 26t-11 64zM725 1200q7 38 38 65t66 27 t54.5 -27t11.5 -65q-9 -38 -39 -64t-65 -26t-54 26t-12 64z" />
<glyph unicode="&#x152;" horiz-adv-x="1900" d="M128.5 530q6.5 88 27.5 185q25 117 63.5 221t97.5 199.5t132 163.5t171 108.5t211 40.5q58 0 110.5 -14t101.5 -44t84.5 -85t48.5 -129l53 254h794l-26 -127h-678l-105 -500h586l-24 -123h-588l-119 -553h678l-29 -127h-794l55 260q-49 -78 -107.5 -134.5t-119 -86.5 t-117.5 -43.5t-115 -13.5q-94 0 -166.5 28t-118 79t-72.5 118.5t-34 151t-0.5 171.5zM243 434q1 -71 19.5 -127.5t51.5 -102t92 -70.5t139 -25q96 0 177 37t136.5 95t100 140t71 162t45.5 172q16 76 23.5 143t6.5 138.5t-19 127.5t-51 101.5t-91.5 70.5t-138.5 25 q-96 0 -177 -37t-137 -95t-101 -140t-72 -162.5t-46 -171.5q-16 -75 -23 -142.5t-6 -138.5z" />
<glyph unicode="&#x153;" horiz-adv-x="1531" d="M61 289q0 99 16.5 195.5t56 192t98.5 167t151.5 116t206.5 44.5q108 0 183 -58.5t99 -179.5q67 118 164.5 176.5t210.5 58.5q49 0 97.5 -12.5t91.5 -37t69.5 -66t26.5 -94.5q0 -70 -54 -127t-131 -89.5t-174.5 -55.5t-170.5 -31.5t-134 -10.5q-18 -91 -18 -153 q0 -104 48 -168t157 -64q133 0 254 125l77 -80q-89 -86 -163 -119.5t-174 -33.5q-107 0 -184.5 53.5t-106.5 169.5q-134 -225 -391 -225q-144 0 -225 82t-81 225zM184 324q0 -107 53 -166.5t162 -59.5q76 0 140.5 39.5t106 101t71 138t42 149.5t11.5 138q0 104 -53.5 163.5 t-159.5 59.5q-79 0 -144 -37t-106.5 -95.5t-69.5 -134.5t-40 -150t-13 -146zM891 553q39 3 80.5 7.5t107 15t120.5 28t106.5 41.5t81.5 60.5t30 80.5q0 38 -29 64.5t-66 36.5t-77 10q-66 0 -123.5 -27.5t-100.5 -76t-75 -108.5t-55 -132z" />
<glyph unicode="&#x178;" horiz-adv-x="927" d="M205 1430h131l192 -812l535 812h131l-639 -957l-100 -473h-117l100 473zM485 1653q9 38 39 65t64 27q35 0 54.5 -27t12.5 -65q-9 -38 -40 -64t-66 -26q-34 0 -52.5 26t-11.5 64zM834 1653q9 38 39.5 65t64.5 27q35 0 54.5 -27t11.5 -65q-9 -38 -39.5 -64t-65.5 -26 t-54 26t-11 64z" />
<glyph unicode="&#x2c6;" horiz-adv-x="956" d="M840 1096l268 303h113l137 -303h-123l-90 231l-182 -231h-123z" />
<glyph unicode="&#x2dc;" d="M840 1196q46 58 89.5 85.5t98.5 27.5q31 0 55 -11.5t39.5 -27.5t30 -32.5t34 -28t44.5 -11.5q57 0 115 76l51 -66q-47 -56 -90 -84t-95 -28q-37 0 -66 17t-45 38t-40.5 38t-54.5 17q-53 0 -115 -73z" />
<glyph unicode="&#x2000;" horiz-adv-x="985" />
<glyph unicode="&#x2001;" horiz-adv-x="1970" />
<glyph unicode="&#x2002;" horiz-adv-x="985" />
<glyph unicode="&#x2003;" horiz-adv-x="1970" />
<glyph unicode="&#x2004;" horiz-adv-x="656" />
<glyph unicode="&#x2005;" horiz-adv-x="492" />
<glyph unicode="&#x2006;" horiz-adv-x="328" />
<glyph unicode="&#x2007;" horiz-adv-x="328" />
<glyph unicode="&#x2008;" horiz-adv-x="246" />
<glyph unicode="&#x2009;" horiz-adv-x="394" />
<glyph unicode="&#x200a;" horiz-adv-x="109" />
<glyph unicode="&#x2010;" horiz-adv-x="776" d="M123 506l20 104h506l-20 -104h-506z" />
<glyph unicode="&#x2011;" horiz-adv-x="776" d="M123 506l20 104h506l-20 -104h-506z" />
<glyph unicode="&#x2012;" horiz-adv-x="776" d="M123 506l20 104h506l-20 -104h-506z" />
<glyph unicode="&#x2013;" horiz-adv-x="1077" d="M123 506l20 104h781l-21 -104h-780z" />
<glyph unicode="&#x2014;" horiz-adv-x="1603" d="M123 506l20 104h1278l-20 -104h-1278z" />
<glyph unicode="&#x2018;" horiz-adv-x="235" d="M209 1182l33 96l168 221h30l-78 -317q-9 -34 -37.5 -59t-58.5 -25q-33 0 -50 25.5t-7 58.5z" />
<glyph unicode="&#x2019;" horiz-adv-x="235" d="M205 1112l78 315q7 35 34 59.5t58 24.5q33 0 52 -25t9 -59l-30 -96l-170 -221z" />
<glyph unicode="&#x201a;" horiz-adv-x="264" d="M-51 -201l74 314q7 36 35.5 61t58.5 25q33 0 52 -25t9 -59l-33 -97l-165 -219h-31z" />
<glyph unicode="&#x201c;" horiz-adv-x="538" d="M209 1182q-10 -34 7.5 -59t51.5 -25q30 0 57.5 25t36.5 59l80 317h-32l-168 -221zM512 1182l33 96l168 221h30l-77 -317q-8 -34 -36.5 -59t-60.5 -25q-31 0 -49 25.5t-8 58.5z" />
<glyph unicode="&#x201d;" horiz-adv-x="538" d="M205 1098l78 317q9 34 36.5 59t59.5 25q33 0 50 -25.5t7 -58.5l-30 -96l-170 -221h-31zM506 1098h33l168 221l32 96q10 33 -7 58.5t-50 25.5q-32 0 -59.5 -25t-36.5 -59z" />
<glyph unicode="&#x201e;" horiz-adv-x="569" d="M-51 -231l78 317q8 34 36 59t60 25q31 0 49 -25.5t8 -58.5l-33 -96l-167 -221h-31zM250 -231h33l168 221l32 96q10 34 -7.5 59t-51.5 25q-30 0 -57.5 -25t-36.5 -59z" />
<glyph unicode="&#x2022;" horiz-adv-x="1052" d="M211 690q0 131 92.5 223.5t222.5 92.5q132 0 225 -92.5t93 -223.5q0 -132 -93 -224.5t-225 -92.5q-131 0 -223 92.5t-92 224.5z" />
<glyph unicode="&#x2026;" horiz-adv-x="974" d="M45 82q9 41 42 70.5t71 29.5q39 0 59.5 -29t11.5 -71t-41 -71t-71 -29q-38 0 -59.5 29.5t-12.5 70.5zM354 82q9 41 42 70.5t71 29.5t59.5 -29.5t12.5 -70.5t-42 -70.5t-71 -29.5t-59.5 29.5t-12.5 70.5zM664 82q9 42 41.5 71t70.5 29q37 0 59 -29.5t13 -70.5t-42.5 -70.5 t-70.5 -29.5q-38 0 -59 29.5t-12 70.5z" />
<glyph unicode="&#x202f;" horiz-adv-x="394" />
<glyph unicode="&#x2039;" horiz-adv-x="659" d="M219 473l21 98l481 398l-33 -140l-375 -307l246 -307l-29 -139z" />
<glyph unicode="&#x203a;" horiz-adv-x="657" d="M123 76l29 139l374 307l-245 307l30 140l310 -398l-21 -98z" />
<glyph unicode="&#x205f;" horiz-adv-x="492" />
<glyph unicode="&#x20ac;" horiz-adv-x="1126" d="M61 492l39 96h111q13 83 39 198h-125l39 95h117q40 122 99.5 223t139 179t183 121.5t221.5 43.5q112 0 185.5 -38t129.5 -118l-96 -96q-45 65 -102.5 95t-143.5 30q-175 0 -301 -120.5t-193 -319.5h455l-39 -95h-450q-29 -129 -37 -198h463l-39 -96h-430 q-2 -178 77 -280.5t234 -102.5q86 0 158 31.5t147 97.5l55 -95q-96 -86 -181.5 -123.5t-203.5 -37.5q-206 0 -312 138t-97 372h-142z" />
<glyph unicode="&#x2122;" horiz-adv-x="974" d="M174 1374l12 56h293l-10 -56h-123l-78 -375h-51l80 375h-123zM446 999l91 431h51l55 -359l205 359h53l-90 -431h-51l63 306l-172 -306h-47l-45 306l-63 -306h-50z" />
<glyph unicode="&#x25fc;" horiz-adv-x="993" d="M0 0v993h993v-993h-993z" />
</font>
</defs>
</svg>
