<?xml version="1.0" standalone="no"?>
<!DOCTYPE svg PUBLIC "-//W3C//DTD SVG 1.1//EN" "http://www.w3.org/Graphics/SVG/1.1/DTD/svg11.dtd" >
<svg xmlns="http://www.w3.org/2000/svg" xmlns:xlink="http://www.w3.org/1999/xlink" version="1.1">
<metadata></metadata>
<defs>
<font id="aaux_nextlight_italic" horiz-adv-x="933" >
<font-face units-per-em="2048" ascent="1638" descent="-410" />
<missing-glyph horiz-adv-x="540" />
<glyph unicode="&#xfb01;" horiz-adv-x="991" d="M-266 -457l16 78q75 3 134.5 33t96.5 78.5t59 99t34 107.5l211 968h-101l17 76h102q24 108 54 183t79 138t124 94.5t177 31.5l-16 -78q-48 0 -88.5 -11.5t-70.5 -30t-55.5 -48.5t-42 -59t-32.5 -70t-25 -73.5t-20 -76.5h543l-228 -983h-88l209 907h-452l-211 -958 q-39 -189 -144.5 -297.5t-281.5 -108.5zM891 1354q4 35 33.5 60.5t64.5 25.5q32 0 50.5 -22.5t13.5 -53.5q-4 -35 -34 -60.5t-65 -25.5q-32 0 -50.5 22.5t-12.5 53.5z" />
<glyph unicode="&#xfb02;" horiz-adv-x="999" d="M-266 -457l16 78q75 3 134.5 33t96.5 78.5t59 99t34 107.5l211 968h-101l17 76h102q24 108 54 183t79 138t124 94.5t177 31.5h303l-282 -1201q-18 -64 -3.5 -101.5t74.5 -47.5l-18 -80q-102 7 -133.5 63.5t-9.5 155.5l266 1133h-213q-48 0 -88.5 -11.5t-70.5 -30 t-55.5 -48.5t-42 -59t-32.5 -70t-25 -73.5t-20 -76.5h221l-18 -76h-219l-211 -958q-39 -189 -144.5 -297.5t-281.5 -108.5z" />
<glyph unicode="&#xfb03;" horiz-adv-x="1523" d="M-266 -457l16 78q75 3 134.5 33t96.5 78.5t59 99t34 107.5l211 968h-101l17 76h102q24 108 54 183t79 138t124 94.5t177 31.5l-16 -78q-48 0 -88.5 -11.5t-70.5 -30t-55.5 -48.5t-42 -59t-32.5 -70t-25 -73.5t-20 -76.5h449q24 108 54 183t79 138t124 94.5t177 31.5 l-17 -78q-55 0 -100.5 -14.5t-78.5 -43t-57 -60t-43 -78.5t-30 -83.5t-24 -89.5h542l-227 -983h-88l209 907h-453l-209 -958q-41 -189 -146.5 -297.5t-281.5 -108.5l17 78q75 3 134.5 33t96 78.5t58.5 99t34 107.5l211 968h-446l-211 -958q-39 -189 -144.5 -297.5 t-281.5 -108.5zM1423 1354q4 35 34 60.5t65 25.5q32 0 50 -22.5t13 -53.5q-4 -35 -33.5 -60.5t-64.5 -25.5q-32 0 -51 22.5t-13 53.5z" />
<glyph unicode="&#xfb04;" horiz-adv-x="1531" d="M-266 -457l16 78q75 3 134.5 33t96.5 78.5t59 99t34 107.5l211 968h-101l17 76h102q24 108 54 183t79 138t124 94.5t177 31.5l-16 -78q-48 0 -88.5 -11.5t-70.5 -30t-55.5 -48.5t-42 -59t-32.5 -70t-25 -73.5t-20 -76.5h449q24 108 54 183t79 138t124 94.5t177 31.5h303 l-283 -1201q-17 -64 -3 -101.5t75 -47.5l-19 -80q-102 7 -133.5 63.5t-9.5 155.5l266 1133h-213q-55 0 -100.5 -14.5t-78.5 -43t-57 -60t-43 -78.5t-30 -83.5t-24 -89.5h221l-19 -76h-219l-209 -958q-41 -189 -146.5 -297.5t-281.5 -108.5l17 78q75 3 134.5 33t96 78.5 t58.5 99t34 107.5l211 968h-446l-211 -958q-39 -189 -144.5 -297.5t-281.5 -108.5z" />
<glyph horiz-adv-x="0" />
<glyph horiz-adv-x="682" />
<glyph unicode=" "  horiz-adv-x="540" />
<glyph unicode="&#x09;" horiz-adv-x="540" />
<glyph unicode="&#xa0;" horiz-adv-x="540" />
<glyph unicode="!" horiz-adv-x="534" d="M199 66q6 35 34.5 59.5t59.5 24.5q32 0 48.5 -24t10.5 -60q-7 -35 -34.5 -58.5t-59.5 -23.5t-50 24t-9 58zM311 377l56 377l145 676h106l-143 -676l-104 -377h-60z" />
<glyph unicode="&#x22;" horiz-adv-x="559" d="M205 1114l69 328q5 23 25 41t43 18t34.5 -17.5t8.5 -41.5l-70 -328h-110zM500 1114l69 328q4 23 25 41t43 18q23 0 35.5 -17.5t7.5 -41.5l-70 -328h-110z" />
<glyph unicode="#" horiz-adv-x="1386" d="M184 442l35 80h240l159 385h-241l33 80h241l180 443h76l-182 -443h356l183 443h75l-182 -443h244l-35 -80h-242l-159 -385h243l-32 -80h-242l-180 -442h-74l178 442h-358l-181 -442h-71l180 442h-244zM535 522h358l160 385h-359z" />
<glyph unicode="$" horiz-adv-x="897" d="M82 410l74 16q4 -109 71 -162t174 -61l111 522q-31 8 -52 14.5t-49 16.5t-46.5 20t-40.5 24t-35.5 29t-25.5 35.5t-17 43.5t-5 52t7 62q15 72 55.5 129t95 91t115 51.5t123.5 19.5l25 117h75l-24 -117q196 -19 256 -193l-70 -41q-43 134 -203 154l-96 -445 q32 -9 55 -16.5t52 -18.5t49.5 -22t43 -26.5t37 -32t27.5 -39.5t18 -48t5 -57.5t-8 -68.5q-32 -150 -153.5 -240t-266.5 -100l-25 -119h-76l27 121q-133 10 -216 81.5t-87 207.5zM314.5 982.5q-0.5 -18.5 3.5 -34t10 -28.5t17 -24.5t21.5 -20.5t27 -17.5t30 -15t33.5 -13.5 t35.5 -11.5t37.5 -10.5l91 426q-47 -1 -93 -12.5t-89.5 -35.5t-75.5 -66t-44 -97q-4 -21 -4.5 -39.5zM477 201q115 7 209 73.5t119 184.5q6 27 6 50.5t-4 42.5t-14.5 35.5t-21.5 29.5t-29 24.5t-34 20t-39 17.5t-41 14.5t-44 13.5z" />
<glyph unicode="%" horiz-adv-x="1603" d="M310.5 910.5q0.5 67.5 17.5 146.5q16 77 44 144t70 124.5t103 91t133 33.5t119 -33t64.5 -90.5t17 -124.5t-16.5 -145q-17 -79 -45.5 -146.5t-70.5 -125t-103 -90.5t-133 -33t-118.5 33t-64 90.5t-17 125zM379 950.5q-3 -50.5 5 -103.5t43.5 -84.5t96.5 -31.5 q198 0 271 326q9 44 13.5 83t1 84.5t-17.5 78t-47 54t-83 21.5q-194 0 -267 -321q-13 -56 -16 -106.5zM416 0l880 1430h80l-878 -1430h-82zM914 228q0 67 16 145q17 79 46 146.5t71 125t102.5 90.5t132.5 33q73 0 120 -33t64.5 -90.5t17 -125t-17.5 -146.5q-17 -78 -45 -145 t-70 -124.5t-102.5 -90.5t-132.5 -33t-119 33t-65 90.5t-18 124.5zM1001 373q-67 -322 127 -322q50 0 92 21.5t70 54t50.5 78t35 85t21.5 83.5q8 36 12 69t5 71.5t-7 69.5t-23 57.5t-45 41t-71 14.5q-199 0 -267 -323z" />
<glyph unicode="&#x26;" horiz-adv-x="1286" d="M121 348q28 154 117 257.5t258 199.5q-46 102 -64 182.5t-2 159.5q22 130 113 213.5t215 83.5q114 0 167 -72t31 -192q-11 -66 -41.5 -123t-80 -105.5t-103.5 -87t-129 -82.5q129 -276 309 -508q127 159 176 361h87q-60 -247 -213 -422q95 -112 133 -152l-62 -67 q-72 72 -135 149q-190 -163 -438 -163q-174 0 -272 97t-66 271zM207 356q-26 -139 57 -217t215 -78q196 0 371 148q-194 253 -322 530q-72 -42 -119.5 -76.5t-90.5 -80t-70 -100.5t-41 -126zM516 1153q-25 -134 57 -309q52 32 80 51t71.5 53.5t68 63.5t47.5 71t32 88 q18 85 -16.5 138t-114.5 53q-85 0 -146 -59t-79 -150z" />
<glyph unicode="'" horiz-adv-x="264" d="M205 1114l69 328q5 23 25 41t43 18t34.5 -17.5t8.5 -41.5l-70 -328h-110z" />
<glyph unicode="(" horiz-adv-x="632" d="M242.5 330.5q-36.5 196.5 7.5 384.5q40 194 158.5 388t283.5 327h92q-168 -134 -290 -331.5t-162 -383.5q-24 -125 -19 -249.5t48.5 -249.5t119.5 -216h-92q-110 134 -146.5 330.5z" />
<glyph unicode=")" horiz-adv-x="532" d="M0 0q170 137 291.5 333.5t161.5 381.5q24 125 18 251t-49.5 250t-118.5 214h92q107 -133 144 -330t-4 -385q-42 -194 -160.5 -387.5t-282.5 -327.5h-92z" />
<glyph unicode="*" horiz-adv-x="901" d="M184 1157l39 76l246 -103l57 306h72l-74 -306l289 103l4 -76l-287 -86l119 -244l-67 -47l-107 254l-211 -254l-49 47l221 244z" />
<glyph unicode="+" horiz-adv-x="1011" d="M172 518l18 86h342l80 373h82l-80 -373h344l-18 -86h-344l-78 -375h-82l78 375h-342z" />
<glyph unicode="," horiz-adv-x="348" d="M0 -231l66 301q6 33 30 57.5t49 24.5q32 0 48 -24t10 -58l-17 -72l-155 -229h-31z" />
<glyph unicode="-" horiz-adv-x="759" d="M123 518l16 82h494l-15 -82h-495z" />
<glyph unicode="." horiz-adv-x="327" d="M45 72q7 35 36 59.5t60 24.5q34 0 51 -24t9 -60q-8 -35 -35.5 -59.5t-61.5 -24.5q-31 0 -48.5 24.5t-10.5 59.5z" />
<glyph unicode="/" horiz-adv-x="751" d="M0 -156l659 1741h93l-662 -1741h-90z" />
<glyph unicode="0" horiz-adv-x="1067" d="M124 430q1 74 10 143t24 142q23 105 55.5 200.5t84.5 194.5t114.5 170t151.5 116.5t190 45.5q85 0 147.5 -31t97 -86t53.5 -124.5t20 -153.5t-8 -165t-28 -167q-22 -104 -53.5 -199t-83 -194.5t-114.5 -171.5t-151.5 -118t-189.5 -46q-73 0 -129.5 23.5t-92.5 64t-59 98 t-31.5 121t-7.5 137.5zM209.5 365.5q3.5 -56.5 19.5 -112.5t44 -95t76.5 -63.5t113.5 -24.5t124 24.5t103 63.5t83.5 95t67 112.5t51 123t37.5 119t25 107.5q14 65 22.5 128t12 140t-9 140.5t-38.5 118t-78.5 85.5t-127.5 31q-65 0 -124 -24t-103 -63t-83.5 -94.5t-67 -112 t-51.5 -122.5t-38 -118.5t-26 -108.5q-11 -55 -19 -107.5t-12.5 -119t-1 -123z" />
<glyph unicode="1" horiz-adv-x="561" d="M205 1200l334 230h73l-303 -1430h-84l277 1313l-269 -180z" />
<glyph unicode="2" horiz-adv-x="1052" d="M72 0l14 72q58 130 136 236.5t156 176t159.5 128.5t154.5 106.5t134.5 97t105.5 114.5t61 144q28 134 -48 209.5t-204 75.5q-92 0 -180 -48.5t-153 -137.5l-64 43q170 229 418 229q172 0 261 -99t52 -274q-19 -89 -65 -162.5t-108.5 -127.5t-135.5 -104.5t-153.5 -107 t-155.5 -120t-148 -158t-125 -207.5h717l-16 -86h-813z" />
<glyph unicode="3" horiz-adv-x="980" d="M72 244l84 30q15 -98 84.5 -150t171.5 -52q133 0 244.5 88.5t142.5 232.5q16 82 4.5 141.5t-50.5 98.5t-94 58.5t-127 21.5l17 67q136 5 232.5 76.5t127.5 214.5q27 124 -45 208.5t-190 84.5q-91 0 -178 -51t-140 -139l-69 32q74 116 181.5 178t227.5 62 q156 0 242.5 -104.5t52.5 -270.5q-25 -119 -96.5 -201.5t-179.5 -121.5q106 -41 151.5 -132.5t16.5 -222.5q-39 -186 -176.5 -296.5t-311.5 -110.5q-134 0 -219.5 64t-103.5 194z" />
<glyph unicode="4" horiz-adv-x="935" d="M61 377l21 94l768 959h86l-770 -967h557l125 584l78 -15l-123 -569h129l-17 -86h-129l-79 -377h-80l80 377h-646z" />
<glyph unicode="5" horiz-adv-x="964" d="M82 248l82 26q17 -97 83.5 -149.5t166.5 -52.5q164 0 277.5 113.5t148.5 287.5q20 81 12.5 152.5t-35.5 125.5t-87 85.5t-142 31.5q-150 0 -283 -108h-82l142 670h671l-16 -84h-600l-107 -504q83 62 152 85t141 23q199 0 281 -131t37 -346q-47 -218 -188 -351.5 t-341 -133.5q-130 0 -213 67.5t-100 192.5z" />
<glyph unicode="6" horiz-adv-x="935" d="M73.5 322.5q-1.5 73.5 14.5 156.5q59 276 241.5 531.5t428.5 419.5h104q-452 -302 -647 -781q160 230 387 230q180 0 263.5 -129t43.5 -326q-40 -189 -182.5 -312.5t-318.5 -123.5q-77 0 -139 25t-103 69t-66 105.5t-26.5 135zM166 432q-30 -146 48.5 -252t213.5 -106 q138 0 253 101.5t146 250.5q34 156 -34.5 262.5t-212.5 106.5q-137 0 -259.5 -107t-154.5 -256z" />
<glyph unicode="7" horiz-adv-x="880" d="M205 0q38 182 98 351t128.5 304t155.5 263.5t169.5 227t179.5 197.5h-614l-25 -120h-76l43 207h785l-19 -82q-98 -101 -178 -196.5t-169 -225.5t-157 -264t-128.5 -305.5t-96.5 -356.5h-96z" />
<glyph unicode="8" horiz-adv-x="999" d="M84 395q27 124 106 219t218 142q-96 40 -129 130t-11 189q35 164 164.5 266.5t286.5 102.5t242.5 -102.5t50.5 -266.5q-11 -47 -31 -91t-52 -88t-81.5 -80.5t-110.5 -59.5q119 -47 158 -141.5t12 -219.5q-39 -185 -180 -297t-317 -112q-179 0 -272 112t-54 297zM170 395 q-30 -144 46.5 -233.5t211.5 -89.5q87 0 169.5 39t143.5 113.5t82 170.5q31 151 -44 235.5t-216 84.5q-144 0 -252 -83.5t-141 -236.5zM350 1073q-28 -135 38.5 -210t191.5 -75q126 0 223 75t125 210q27 127 -41 208t-185 81q-118 0 -221.5 -81t-130.5 -208z" />
<glyph unicode="9" horiz-adv-x="913" d="M139 1006q25 120 98.5 220.5t178 159t215.5 58.5q77 0 138.5 -25.5t100 -71t61 -108t22.5 -135.5t-15 -154q-57 -266 -233 -523t-429 -427h-106q101 72 185.5 145t171.5 168.5t158.5 214t121.5 252.5q-149 -207 -363 -207q-171 0 -257 124.5t-48 308.5zM219 1008 q-20 -92 5 -173t89 -129.5t152 -48.5q139 0 251.5 102.5t143.5 250.5q31 142 -41.5 246t-206.5 104q-133 0 -248 -105t-145 -247z" />
<glyph unicode=":" horiz-adv-x="342" d="M45 68q6 34 34.5 59t59.5 25q33 0 50.5 -25t11.5 -59q-9 -37 -36 -60.5t-61 -23.5q-32 0 -50 24t-9 60zM182 719q7 35 36.5 60.5t60.5 25.5q33 0 50 -25t9 -61q-8 -35 -35 -59.5t-61 -24.5q-31 0 -49 24.5t-11 59.5z" />
<glyph unicode=";" horiz-adv-x="344" d="M0 -231l66 301q6 33 30 56.5t49 23.5q32 0 48 -23t10 -57l-17 -72l-155 -229h-31zM203 719q7 35 33.5 60.5t54.5 25.5t42.5 -25.5t6.5 -60.5q-7 -35 -32.5 -59.5t-53.5 -24.5t-43 24.5t-8 59.5z" />
<glyph unicode="&#x3c;" d="M254 715l702 715h105l-703 -715l400 -715h-105z" />
<glyph unicode="=" horiz-adv-x="1056" d="M123 254l16 86h764l-16 -86h-764zM215 696l18 86h764l-18 -86h-764z" />
<glyph unicode="&#x3e;" d="M102 0l701 715l-397 715h102l401 -715l-704 -715h-103z" />
<glyph unicode="?" horiz-adv-x="1056" d="M342 1102q41 158 171.5 251t283.5 93q77 0 140 -25.5t104 -73.5t56 -116.5t-3 -153.5q-13 -58 -35 -102t-55 -75.5t-61 -50t-71 -40.5q-107 -58 -161 -119.5t-78 -157.5l-43 -159h-47q4 71 20 159q15 68 39 120t58 87.5t62.5 57t70.5 45.5q98 54 130 81q69 58 91 154 q27 133 -41 209t-193 76q-117 0 -222 -68.5t-140 -191.5h-76zM428 66q6 34 34 57.5t60 23.5q31 0 47.5 -23.5t10.5 -57.5q-7 -35 -34.5 -58.5t-58.5 -23.5q-33 0 -50.5 23.5t-8.5 58.5z" />
<glyph unicode="@" horiz-adv-x="1363" d="M103.5 287.5q0.5 91.5 19.5 189.5q20 97 66.5 206t110.5 215t147.5 203t173 171t192.5 118t201 44q84 0 146 -34.5t96.5 -92.5t50.5 -135.5t13 -162.5t-22 -175q-10 -51 -50 -152t-44 -115l-155 -569l-74 6l74 279q-57 -85 -119.5 -150.5t-146 -111.5t-165.5 -46 q-67 0 -113 33.5t-64.5 87t-23 120t12.5 132.5q16 77 54.5 164t96.5 171.5t125 153t147 110.5t157 42q87 0 131.5 -65t54.5 -168q25 77 37 158t5.5 160.5t-31.5 141.5t-79.5 100t-132.5 38q-104 0 -214 -58t-202.5 -152.5t-172 -210t-132.5 -235t-75 -223.5 q-16 -84 -17.5 -162.5t22.5 -152t72 -123.5l-53 -66q-59 54 -89.5 139.5t-30 177zM496.5 251q-0.5 -49 11 -94t44 -72.5t83.5 -27.5q77 0 161 56t149.5 139t114 175t64.5 167q13 46 10.5 100.5t-13.5 102t-44 79t-82 31.5q-79 0 -163 -57.5t-148.5 -143.5t-112 -181.5 t-63.5 -174.5q-11 -50 -11.5 -99z" />
<glyph unicode="A" horiz-adv-x="1212" d="M-20 0l808 1430h113l203 -1430h-90l-64 438h-635l-245 -438h-90zM362 520h578l-115 821z" />
<glyph unicode="B" horiz-adv-x="1167" d="M72 0l303 1430h446q194 0 291 -90q69 -63 68 -179q0 -48 -11 -104q-22 -99 -87.5 -183.5t-180.5 -136.5q119 -43 161 -137q27 -60 26 -129q0 -40 -9 -84q-45 -203 -184 -295t-340 -92h-483zM174 88h397q75 0 136.5 12.5t121.5 43.5t102.5 92.5t61.5 150.5q9 46 9 85 q0 220 -302 220h-397zM319 766h375q72 0 130.5 13t112.5 44.5t92 90.5t56 143q10 39 10 73q-1 9 -1 17q-4 40 -13 70t-31.5 51.5t-47.5 36t-59 23t-67.5 12t-72.5 3.5h-363z" />
<glyph unicode="C" horiz-adv-x="1075" d="M125 493q6 104 31 222q26 118 65 222t98.5 199.5t133 163.5t172.5 108t213 40q128 0 206.5 -50.5t143.5 -160.5l-76 -59q-55 92 -120 135t-173 43q-102 0 -189.5 -38.5t-148.5 -100.5t-110 -148t-78 -172t-49 -182q-17 -79 -25 -151q-6 -55 -6 -112q1 -18 1 -36 q2 -74 23 -134t58 -107.5t100.5 -74t149.5 -26.5q109 0 193.5 44.5t179.5 137.5l51 -59q-115 -114 -214 -164.5t-229 -50.5q-114 0 -196 40t-127 108.5t-65 163.5q-15 73 -14 151q0 24 1 48z" />
<glyph unicode="D" horiz-adv-x="1204" d="M72 0l303 1430h377q253 0 360 -80q101 -75 102 -221q0 -8 -1 -17q-6 -159 -56 -397q-29 -138 -52 -220.5t-60 -175t-84 -143t-117.5 -95.5t-167.5 -63t-227 -18h-377zM176 92h301q167 0 271 37.5t167 120.5q16 21 31 47.5t25.5 49.5t23 60.5t19 58.5t17 65.5t14 60.5 t14 65t12.5 58q46 212 54 293q4 37 4 69q0 64 -15 107q-29 82 -117.5 118.5t-255.5 36.5h-301z" />
<glyph unicode="E" horiz-adv-x="1081" d="M72 0l303 1430h829l-18 -91h-746l-116 -555h649l-19 -86h-649l-129 -608h744l-19 -90h-829z" />
<glyph unicode="F" horiz-adv-x="1042" d="M72 0l303 1430h811l-19 -91h-727l-118 -555h651l-19 -84h-649l-147 -700h-86z" />
<glyph unicode="G" horiz-adv-x="1144" d="M126 496q5 104 30 219q24 115 63.5 219.5t100 199.5t135 164t173.5 109.5t210 40.5q128 0 205 -51.5t141 -163.5l-74 -57q-55 93 -119.5 136.5t-173.5 43.5q-102 0 -189.5 -38.5t-148 -100t-109.5 -147.5t-78.5 -172t-49.5 -183q-20 -95 -28 -180q-2 -34 -2 -67 q0 -52 6 -104q12 -87 45.5 -149.5t102.5 -101.5t169 -39q364 0 487 573h-338l18 86h420l-155 -733h-78l57 264q-85 -153 -188.5 -217.5t-241.5 -64.5q-111 0 -191.5 41t-124 110.5t-62.5 164.5q-14 73 -14 152q0 23 2 46z" />
<glyph unicode="H" horiz-adv-x="1245" d="M72 0l303 1430h86l-137 -646h770l139 646h84l-303 -1430h-84l147 698h-772l-147 -698h-86z" />
<glyph unicode="I" horiz-adv-x="337" d="M72 0l303 1430h86l-303 -1430h-86z" />
<glyph unicode="J" horiz-adv-x="1007" d="M41 270l86 23q12 -108 81.5 -161.5t180.5 -53.5q171 0 269.5 85.5t136.5 264.5l211 1002h86l-211 -1004q-95 -440 -508 -440q-147 0 -234.5 72.5t-97.5 211.5z" />
<glyph unicode="K" horiz-adv-x="1099" d="M72 0l305 1430h92l-305 -1430h-92zM334 719l760 711h108l-766 -725l275 -424q57 -88 123 -137.5t165 -55.5l-20 -88q-213 11 -348 229z" />
<glyph unicode="L" horiz-adv-x="944" d="M72 0l303 1430h86l-287 -1346h670l-19 -84h-753z" />
<glyph unicode="M" horiz-adv-x="1394" d="M72 0l303 1430h88l178 -1317l735 1317h90l-303 -1430h-86l258 1212l-676 -1212h-84l-161 1210l-256 -1210h-86z" />
<glyph unicode="N" horiz-adv-x="1200" d="M72 0l303 1430h94l446 -1274l273 1274h84l-303 -1430h-92l-449 1274l-270 -1274h-86z" />
<glyph unicode="O" horiz-adv-x="1220" d="M125 494q6 104 31 221q24 117 62 220.5t96.5 199t131.5 164t171.5 109t211.5 40.5q96 0 169 -28t118 -79t72 -119q28 -66 34 -150q3 -40 3 -82q0 -44 -4 -90q-7 -88 -27 -185q-25 -117 -63 -220.5t-96.5 -199t-131 -164t-171 -109t-212.5 -40.5t-195.5 40.5t-125 109 t-61.5 164.5q-14 72 -14 148q0 25 1 50zM210 460v-7q0 -63 8 -115q9 -56 32.5 -105t60.5 -83.5t94.5 -55t131.5 -20.5q103 0 190 39t147.5 101t109 149t77.5 171.5t49 180.5q14 67 22 129q8 61 8 127v7q0 62 -10 114q-10 54 -33 104t-60 84.5t-94.5 55t-131.5 20.5 q-103 0 -190 -39t-147 -101t-108 -149t-76 -171.5t-48 -180.5q-15 -67 -23.5 -128t-8.5 -127z" />
<glyph unicode="P" horiz-adv-x="1157" d="M72 0l303 1430h483q359 0 360 -273q0 -52 -14 -115q-82 -387 -510 -387h-399l-137 -655h-86zM315 739h396q59 0 108.5 7.5t99.5 28t87.5 53.5t68 87.5t45.5 126.5q10 59 10 103q0 49 -20 83q-19 33 -43.5 54.5t-63 34t-77.5 17.5t-88 5h-398z" />
<glyph unicode="Q" horiz-adv-x="1284" d="M123 444q0 112 19.5 226.5t57 227.5t99 211.5t140 174.5t186.5 120t231 44q204 0 319 -127.5t115 -331.5q0 -121 -23.5 -246t-70 -247t-126 -230.5t-181.5 -179.5q113 -110 246 -125l-17 -84q-172 22 -307 168q-125 -61 -258 -61q-204 0 -317 128t-113 332zM217 451 q0 -80 21.5 -147t63 -118.5t108.5 -80.5t153 -29q87 0 199 45q-2 3 -71 90.5t-70 91.5h96q6 -7 48 -61t71 -84q93 67 164 166.5t112 211t61.5 223.5t20.5 220q0 167 -88 272t-258 105q-110 0 -205 -42t-162 -114t-119.5 -163t-83 -194t-46 -201.5t-15.5 -190.5z" />
<glyph unicode="R" horiz-adv-x="1204" d="M72 0l305 1430h461q88 0 156 -14t124.5 -46.5t86.5 -93t30 -146.5q0 -223 -136 -338.5t-403 -121.5q53 -23 85 -66.5t55 -99.5t65 -180q18 -48 37.5 -84t48 -72t69 -57t91.5 -25l-19 -86q-66 3 -118 27.5t-89 70t-62 94t-50 117.5q-1 2 -53 146q-18 46 -34 76.5t-42 65 t-62.5 52t-82.5 17.5h-228l-143 -666h-92zM324 741h368q73 0 135 10t122 36.5t102 67.5t68 108.5t26 154.5q0 61 -21.5 104t-52 65.5t-80 35.5t-88 15.5t-94.5 2.5h-358z" />
<glyph unicode="S" horiz-adv-x="1112" d="M72 338l86 16q1 -80 31 -138t82 -89t112 -45t133 -14q67 0 135.5 19.5t131 57.5t109.5 102t64 144q8 34 8 63q0 12 -1 24q-5 39 -18 69t-38.5 53.5t-55.5 41t-67.5 32t-76 26t-81.5 23.5q-44 12 -66.5 18.5t-62.5 20t-61.5 24t-53 28.5t-47 35.5t-34 43.5t-24.5 54 q-7 30 -7 68q0 35 9 75q18 89 67.5 158.5t117.5 111t145.5 63t158.5 21.5q157 0 254 -63.5t133 -204.5l-82 -37q-32 116 -113.5 165.5t-211.5 49.5q-58 0 -115 -13t-113 -41.5t-98 -82.5t-57 -127q-6 -29 -7 -54q0 -26 8 -50q14 -44 47.5 -72t81.5 -51t104 -37.5t115 -33 t114.5 -37t102 -50t77.5 -71.5t41 -102q4 -23 3 -48q0 -43 -10 -93q-26 -128 -112.5 -223t-198.5 -140.5t-233 -45.5q-426 0 -426 356z" />
<glyph unicode="T" horiz-adv-x="960" d="M205 1339l20 91h940l-18 -91h-428l-285 -1339h-84l283 1339h-428z" />
<glyph unicode="U" horiz-adv-x="1193" d="M174 608l174 822h86l-174 -818q-15 -74 -22 -136q-6 -51 -6 -103v-23q2 -64 20 -111.5t51 -86t90.5 -58.5t136.5 -20q95 0 172 30.5t129 79t92.5 121t65 145t43.5 162.5l174 818h84l-176 -822q-31 -144 -77 -253t-116.5 -195.5t-173.5 -132t-235 -45.5q-368 0 -368 379 q0 108 30 247z" />
<glyph unicode="V" horiz-adv-x="940" d="M154 1430h90l129 -1303l682 1303h90l-750 -1430h-98z" />
<glyph unicode="W" horiz-adv-x="1359" d="M205 1430h88v-1274l547 1274h88l8 -1274l543 1274h86l-611 -1430h-98l-6 1262l-543 -1262h-98z" />
<glyph unicode="X" horiz-adv-x="985" d="M-61 0l593 739l-262 691h101l231 -611l488 611h100l-557 -691l282 -739h-100l-248 655l-528 -655h-100z" />
<glyph unicode="Y" horiz-adv-x="894" d="M205 1430h96l201 -850l563 850h96l-639 -957l-100 -473h-84l100 473z" />
<glyph unicode="Z" horiz-adv-x="1103" d="M10 59l1131 1280h-770l22 91h875l-21 -95l-1116 -1267q136 16 191 16q64 0 189 -19.5t189 -19.5q123 0 232 35l35 -84q-111 -39 -271 -39q-68 0 -201 19.5t-202 19.5q-159 0 -250 -27z" />
<glyph unicode="[" horiz-adv-x="716" d="M164 -129l358 1688h297l-12 -56h-213l-336 -1575h213l-10 -57h-297z" />
<glyph unicode="\" horiz-adv-x="751" d="M0 1585h90l662 -1741h-93z" />
<glyph unicode="]" horiz-adv-x="483" d="M0 -129l10 57h215l336 1575h-215l12 56h297l-358 -1688h-297z" />
<glyph unicode="^" horiz-adv-x="1011" d="M104 817l465 615h99l204 -615l-75 -41l-193 588l-440 -588z" />
<glyph unicode="_" horiz-adv-x="1030" d="M41 -74l14 74h903l-14 -74h-903z" />
<glyph unicode="`" horiz-adv-x="581" d="M883 1397h110l97 -303h-82z" />
<glyph unicode="a" d="M82 307q0 117 46.5 239t123.5 221t188.5 162.5t231.5 63.5q128 0 262 -67l-184 -854l6 -72l-80 -10l-6 86l92 432q-189 -524 -467 -524q-59 0 -102 28t-66.5 76.5t-34 102.5t-10.5 116zM164 297q0 -35 6.5 -72t20.5 -76t43 -63.5t69 -24.5q81 0 161 64t140.5 160 t111.5 212t81 217t43 177q-90 37 -160 37q-87 0 -169.5 -41.5t-143.5 -109t-108 -150.5t-71 -169t-24 -161z" />
<glyph unicode="b" horiz-adv-x="907" d="M41 53l301 1377h86l-205 -941q193 506 457 506q57 0 100 -28t66 -75.5t34 -101t11 -114.5q0 -92 -29 -190.5t-84 -187t-126.5 -159.5t-164 -113t-188.5 -42q-123 0 -258 69zM131 86q82 -35 166 -35q87 0 168.5 42t142.5 110t107 151.5t70 170.5t24 163q0 35 -6.5 71.5 t-20.5 74.5t-43 62t-67 24q-67 0 -131 -38.5t-115.5 -105t-95.5 -143t-79 -166t-58 -159t-41 -136.5q-4 -17 -11 -42.5t-10 -43.5z" />
<glyph unicode="c" horiz-adv-x="825" d="M61 324q0 94 20.5 188t63.5 181t103.5 154t147 107.5t186.5 40.5q93 0 153 -33.5t111 -113.5l-74 -43q-42 60 -84.5 84t-112.5 24q-85 0 -157.5 -38.5t-120.5 -100t-82.5 -139t-49.5 -155t-15 -148.5q0 -57 12.5 -103.5t38.5 -85t72 -59.5t108 -21q79 0 137.5 29.5 t120.5 91.5l59 -59q-81 -77 -153 -109t-170 -32q-156 0 -235 92t-79 248z" />
<glyph unicode="d" horiz-adv-x="925" d="M61 303q0 91 29 189.5t84 187t126 160t162.5 113.5t186.5 42q81 0 182 -37l103 472h84l-295 -1352l8 -78l-82 -10l-6 73l96 447q-103 -272 -217 -399t-248 -127q-59 0 -102 28t-66.5 75.5t-34 101t-10.5 114.5zM143 295q0 -36 6.5 -73t20.5 -75.5t43 -63t68 -24.5 q81 0 161 65.5t140.5 163t111.5 214.5t81 216.5t42 172.5q-84 37 -160 37q-106 0 -204.5 -64t-164.5 -160t-105.5 -205.5t-39.5 -203.5z" />
<glyph unicode="e" horiz-adv-x="854" d="M61 326q0 92 21 186t64.5 180.5t104 154t145.5 108t182 40.5q69 0 130 -20.5t103.5 -67.5t42.5 -112q0 -60 -36 -109t-98 -81t-132.5 -55.5t-153 -36.5t-145 -19.5t-121.5 -8.5q-21 -95 -21 -161q0 -56 12 -101.5t38 -82t71 -57t107 -20.5q81 0 139.5 30.5t122.5 90.5 l57 -59q-81 -77 -153 -109t-168 -32q-156 0 -234 92.5t-78 249.5zM180 539q56 3 125.5 12t154 29t152.5 47.5t114 70t46 93.5q0 45 -33 74.5t-74 39.5t-87 10q-147 0 -245.5 -103t-152.5 -273z" />
<glyph unicode="f" horiz-adv-x="532" d="M-266 -457l16 78q75 3 134.5 33t96.5 78.5t59 99t34 107.5l211 968h-101l17 76h102q24 108 54 183t79 138t124 94.5t177 31.5l-16 -78q-48 0 -88.5 -11.5t-70.5 -30t-55.5 -48.5t-42 -59t-32.5 -70t-25 -73.5t-20 -76.5h221l-18 -76h-219l-211 -958 q-39 -189 -144.5 -297.5t-281.5 -108.5z" />
<glyph unicode="g" horiz-adv-x="911" d="M16 -399l37 73q102 -47 193 -47q270 0 344 328q0 2 64 273.5t65 275.5q-106 -274 -221.5 -396t-247.5 -122q-58 0 -101 27.5t-66 74.5t-33.5 100.5t-10.5 114.5q0 116 46.5 238.5t123.5 222.5t188.5 164.5t231.5 64.5q123 0 262 -65q-22 -90 -115 -518t-100 -463 q-41 -185 -146.5 -290.5t-285.5 -105.5q-113 0 -228 50zM121 295q0 -35 6 -71.5t20.5 -75t43.5 -63t69 -24.5q80 0 160 64.5t140.5 161t112 213t82.5 216.5t44 175q-80 37 -164 37q-86 0 -167.5 -42t-143 -110t-108.5 -151.5t-71 -169.5t-24 -160z" />
<glyph unicode="h" horiz-adv-x="993" d="M61 0l314 1427h86l-205 -946q104 264 217 389t246 125q66 0 112 -26t67.5 -66.5t28.5 -96.5q4 -34 4 -65q1 -21 -1 -41q-4 -51 -17 -106l-131 -594h-88l137 621q17 78 17 135q0 166 -139 166q-75 0 -149 -56t-130 -138t-104.5 -184t-77.5 -184t-45 -147 q-49 -185 -53 -213h-89z" />
<glyph unicode="i" horiz-adv-x="458" d="M82 0l227 983h88l-227 -983h-88zM358 1354q4 35 34 60.5t65 25.5q32 0 49.5 -22.5t11.5 -53.5q-3 -35 -31.5 -60.5t-64.5 -25.5q-32 0 -51 22.5t-13 53.5z" />
<glyph unicode="j" horiz-adv-x="421" d="M-299 -446l18 77q77 3 135 28.5t95 71t59 97.5t37 121l227 1034h88l-229 -1026q-39 -190 -139.5 -293t-290.5 -110zM317 1354q6 35 36 60.5t65 25.5q31 0 49.5 -22.5t13.5 -53.5q-4 -35 -34 -60.5t-64 -25.5q-32 0 -50.5 22.5t-15.5 53.5z" />
<glyph unicode="k" horiz-adv-x="811" d="M61 0l312 1430h84l-312 -1430h-84zM276 522l469 461h107l-479 -467l174 -276q96 -152 231 -164l-16 -76q-89 6 -156 55.5t-127 137.5q-24 35 -75 117t-90 147z" />
<glyph unicode="l" horiz-adv-x="436" d="M104 219l285 1211h88l-282 -1201q-10 -35 -10 -63q1 -22 7 -38q14 -38 74 -48l-18 -80q-102 8 -134 64q-19 33 -19 81q0 34 9 74z" />
<glyph unicode="m" horiz-adv-x="1568" d="M61 0l209 983h86l-102 -491q16 46 38.5 95t54.5 108t71 110.5t83.5 95t98.5 69t109 25.5q59 0 99.5 -20.5t59.5 -58.5q18 -40 26 -82q4 -26 4 -55q0 -20 -2 -43q-5 -56 -12 -100t-18 -97q-7 -34 -10 -50q85 229 205 367.5t242 138.5q48 0 85 -13.5t59.5 -36.5t36.5 -55.5 t19 -66.5q4 -26 4 -56q-1 -9 -1 -19q-2 -40 -6.5 -74.5t-12.5 -71.5l-127 -602h-88l135 627q9 41 13 75q4 27 4 62v15q-1 43 -13 72t-42 49t-77 20q-63 0 -131 -54.5t-123.5 -136t-104.5 -177.5t-80.5 -178t-45.5 -138q-3 -14 -49 -236h-88l139 629q11 55 14 97q1 13 1 27 q0 29 -4 63q-6 48 -38 76t-88 28q-79 0 -162.5 -73t-148 -182t-112.5 -223.5t-70 -210.5q-7 -28 -19 -79t-21.5 -90t-13.5 -62h-86z" />
<glyph unicode="n" horiz-adv-x="995" d="M61 0l218 983h88l-111 -500q101 261 214.5 386.5t248.5 125.5q59 0 101.5 -18t65.5 -50.5t35.5 -71t12.5 -86t-4.5 -89t-14.5 -86.5l-131 -594h-88l138 618q12 52 14 100q1 11 1 21q-1 37 -7 75q-8 48 -42 77t-91 29q-74 0 -148 -55t-129 -136t-104 -182t-78.5 -183.5 t-46.5 -150.5q-49 -185 -53 -213h-89z" />
<glyph unicode="o" horiz-adv-x="907" d="M61 281q0 101 16.5 198.5t56 192.5t98 166t150 115t204.5 44q145 0 223 -79t78 -220q0 -83 -11 -163t-34.5 -162t-65 -151.5t-97.5 -123.5t-136.5 -85t-177.5 -31q-147 0 -225.5 78.5t-78.5 220.5zM152 309q0 -248 235 -248q87 0 158 40t117 103t77 145.5t44.5 164 t13.5 160.5q0 113 -60 178.5t-176 65.5q-87 0 -158 -40t-116.5 -103t-77 -145t-44.5 -162.5t-13 -158.5z" />
<glyph unicode="p" horiz-adv-x="927" d="M-41 -430l307 1413h82l-110 -502q98 260 216.5 386t245.5 126h5q44 0 79 -17q37 -18 60.5 -47.5t39 -71t21.5 -85t6 -92.5q0 -91 -28.5 -189t-82.5 -187.5t-124 -161t-160.5 -114t-185.5 -42.5q-87 0 -187 39l-98 -455h-86zM156 90q84 -37 161 -37q84 0 165 41.5 t142.5 109.5t108.5 150.5t71.5 169t24.5 160.5q0 36 -6 72.5t-20 75.5t-42.5 63.5t-68.5 24.5q-79 0 -158 -62.5t-139 -157.5t-111.5 -210t-82.5 -217.5t-45 -182.5z" />
<glyph unicode="q" d="M82 313q0 93 29 190t83 184t125.5 156t163.5 109.5t189 40.5q123 0 262 -65l-295 -1358h-88l145 661l64 269q-100 -263 -218 -389.5t-247 -126.5q-59 0 -102 29.5t-66.5 79t-34 104.5t-10.5 116zM164 307q0 -36 6 -74.5t20 -79.5t43 -67.5t68 -26.5q80 0 160 64.5 t141 162t112.5 213t82.5 217t43 175.5q-78 37 -160 37q-73 0 -142.5 -29t-125 -77.5t-103 -112t-79 -132.5t-49 -139t-17.5 -131z" />
<glyph unicode="r" horiz-adv-x="677" d="M41 0l217 983h82l-111 -508q187 520 471 520q48 0 95 -18l-17 -78q-40 21 -82 21q-67 0 -132 -39t-117.5 -105.5t-99 -145.5t-82 -167t-60 -162.5t-39.5 -138.5l-39 -162h-86z" />
<glyph unicode="s" horiz-adv-x="774" d="M41 233l78 19q40 -191 221 -191q105 0 186.5 60t81.5 164q0 47 -24 81.5t-62 56t-84.5 39.5t-93 38t-84.5 44.5t-62 66t-24 96.5q0 131 96.5 209.5t239.5 78.5q176 0 254 -159l-76 -33q-55 117 -184 117q-98 0 -171 -52.5t-73 -150.5q0 -41 24 -71.5t62.5 -50.5t85 -37.5 t93 -38.5t85 -47.5t62.5 -71t24 -103.5q0 -140 -106 -227.5t-256 -87.5q-125 0 -196.5 62.5t-96.5 188.5z" />
<glyph unicode="t" horiz-adv-x="520" d="M113 219l157 686h-151l18 78h152l67 299h86l-67 -299h174l-19 -78h-174l-153 -674q-8 -37 -8 -64q0 -33 12 -53q22 -36 108 -36l-16 -78h-37q-104 0 -138 60q-20 36 -21 85q0 34 10 74z" />
<glyph unicode="u" horiz-adv-x="974" d="M108 282q4 49 15 101l131 600h86l-133 -625q-13 -52 -15 -100q-1 -10 0 -21q0 -37 7 -73q9 -46 42 -73.5t89 -27.5q61 0 118 30.5t102.5 79.5t88.5 119.5t74.5 141t60.5 154t48 147.5t36 133l27 115h90l-215 -983h-86l110 502q-102 -264 -217 -390t-248 -126 q-68 0 -114.5 27t-67.5 67.5t-27 96.5q-4 33 -4 64q0 21 2 41z" />
<glyph unicode="v" horiz-adv-x="882" d="M143 983h93l135 -889l522 889h92l-584 -983h-98z" />
<glyph unicode="w" horiz-adv-x="1456" d="M143 983h93l79 -879l490 879h90l119 -879l456 879h89l-517 -983h-96l-123 872l-485 -872h-94z" />
<glyph unicode="x" horiz-adv-x="821" d="M-61 0l458 508l-229 475h104l189 -401l358 401h105l-430 -475l241 -508h-104l-203 436l-387 -436h-102z" />
<glyph unicode="y" horiz-adv-x="890" d="M-82 -451l19 78q33 0 62.5 6t51 14t43 25.5t34 29.5t30.5 38t26.5 39.5t26.5 44.5l123 205l-152 954h94l121 -852l498 852h98l-731 -1235q-120 -199 -313 -199h-6h-25z" />
<glyph unicode="z" horiz-adv-x="950" d="M10 59l834 844h-559l16 80h670l-21 -86l-823 -825q57 14 114 14h14q64 -2 103 -11t96 -19.5t105 -10.5q103 0 195 31l32 -68q-92 -39 -227 -39q-54 0 -161.5 20.5t-161.5 20.5q-103 0 -183 -28z" />
<glyph unicode="{" horiz-adv-x="688" d="M264 672l19 86q62 -2 106 18.5t66.5 52.5t37.5 83.5t19.5 96.5t11.5 106.5t15 98.5q35 174 120.5 259.5t249.5 85.5l-18 -82q-118 0 -180 -63t-90 -202q-7 -32 -13 -80t-10.5 -87.5t-12.5 -85.5t-22.5 -82.5t-36.5 -70t-59 -57t-86 -34.5q51 -13 78.5 -44t32.5 -68.5 t-3 -90.5t-22 -97.5t-32 -103.5t-25 -94q-31 -140 3.5 -202t153.5 -62l-16 -82q-164 0 -213 85t-12 259q7 30 20 73.5t25 79t22.5 77t15.5 73.5t0.5 63t-19.5 50.5t-46.5 31t-79.5 9.5z" />
<glyph unicode="|" horiz-adv-x="503" d="M205 -156l368 1741h76l-370 -1741h-74z" />
<glyph unicode="}" horiz-adv-x="583" d="M0 -129l16 82q119 0 181 62t92 202q7 32 12.5 80.5t10 87.5t12 85.5t22 83t37 70t59.5 57t86 34.5q-44 11 -71 34.5t-35 57t-7 70t13 82.5t24 85.5t26.5 87.5t21.5 80q30 140 -4.5 202.5t-153.5 62.5l16 82q163 0 212.5 -85t13.5 -260q-7 -34 -23 -84.5t-28.5 -90.5 t-24 -86t-10 -79.5t13 -62t45 -42t86.5 -11.5l-18 -86q-53 2 -92 -11.5t-63 -42t-39 -62t-23.5 -80t-13 -86.5t-10.5 -90.5t-13 -84.5q-37 -174 -122 -259t-249 -85z" />
<glyph unicode="~" horiz-adv-x="925" d="M115 604q106 119 211 119q39 0 71.5 -14.5t55.5 -35.5t45 -41.5t51 -35t63 -14.5q79 0 158 94l41 -53q-114 -123 -211 -123q-39 0 -72 14.5t-56.5 36t-46.5 42.5t-52.5 35.5t-63.5 14.5q-73 0 -153 -92z" />
<glyph unicode="&#xa1;" horiz-adv-x="618" d="M197 -463l143 676l104 379h60l-58 -379l-143 -676h-106zM463 903q7 34 35 58t59 24q32 0 49.5 -24t11.5 -58q-7 -36 -35 -61t-61 -25q-31 0 -48 24.5t-11 61.5z" />
<glyph unicode="&#xa2;" horiz-adv-x="806" d="M73 307q-2 87 17 185q23 107 68 197.5t110.5 159.5t157 108t199.5 40l65 154l43 -8l-61 -154q72 -11 119.5 -44.5t87.5 -90.5l-72 -55q-33 45 -70.5 73t-97.5 39l-338 -821q54 -24 115 -24q74 1 135 31t125 89l49 -57q-88 -75 -162.5 -108t-169.5 -33q-60 0 -127 22 l-71 -180l-45 10l75 185q-73 43 -111.5 119t-40.5 163zM160 387.5q-4 -46.5 1 -98.5t29.5 -98.5t67.5 -84.5l336 814q-77 -5 -141 -31.5t-108 -67t-79 -96t-55.5 -112t-34.5 -121.5q-12 -58 -16 -104.5z" />
<glyph unicode="&#xa3;" horiz-adv-x="991" d="M72 0l14 78q134 190 168 352q20 98 20 244h-141l33 82h110q3 182 23 272q36 180 153.5 295t282.5 115q115 0 181 -38t124 -128l-75 -55q-45 72 -100.5 104.5t-147.5 32.5q-134 0 -221 -93t-115 -235q-19 -84 -27 -270h248l-33 -82h-213q-3 -160 -24 -248 q-32 -149 -146 -342h598l-16 -84h-696z" />
<glyph unicode="&#xa4;" horiz-adv-x="1097" d="M61 500l31 73h113q14 83 45 215h-127l31 74h118q30 99 72.5 185t101 160.5t127.5 127.5t156 83t184 30q105 0 174 -33t123 -104l-67 -72q-47 61 -105.5 89t-144.5 28q-98 0 -184 -37.5t-152 -105.5t-115.5 -156t-83.5 -195h480l-31 -74h-473q-31 -135 -41 -215h481 l-29 -73h-458q-6 -198 79 -312t255 -114q87 0 157.5 28.5t143.5 90.5l36 -72q-86 -73 -168 -106t-188 -33q-206 0 -309.5 140t-91.5 378h-140z" />
<glyph unicode="&#xa5;" horiz-adv-x="987" d="M205 397l33 74h297l-52 207h-217l31 76h170l-164 676h86l207 -859l569 859h88l-454 -676h184l-33 -76h-198l-138 -207h310l-35 -74h-293l-84 -397h-76l82 397h-313z" />
<glyph unicode="&#xa6;" horiz-adv-x="651" d="M289 -154l162 760h67l-162 -760h-67zM496 825l161 762h68l-162 -762h-67z" />
<glyph unicode="&#xa7;" horiz-adv-x="1099" d="M231 -145l78 39q14 -45 30.5 -79t42 -68t64 -52.5t86.5 -18.5q113 0 197.5 77t108.5 194q6 28 6.5 52t-2.5 43t-13 35.5t-19.5 28.5t-28 23.5t-32 18.5t-37 15.5t-38.5 12.5t-41 12q-41 12 -74.5 25t-68 31.5t-58.5 39.5t-45.5 49t-30 61t-12 75.5t9.5 91.5 q39 179 191 291q-68 92 -41 221q32 155 145 253.5t260 98.5q112 0 179 -69t104 -191l-78 -39q-13 44 -29.5 78.5t-42.5 67.5t-64.5 51t-86.5 18q-112 0 -196.5 -76t-108.5 -192q-7 -32 -8 -58.5t6 -47.5t16 -37.5t27 -30t32.5 -23t40 -19t42.5 -15t46 -13.5q42 -12 76 -24.5 t68.5 -30.5t58.5 -39.5t46 -49.5t30 -61t11.5 -75.5t-9.5 -91.5q-39 -178 -188 -291q66 -87 39 -219q-32 -156 -145.5 -255.5t-260.5 -99.5q-202 0 -283 263zM429 496q-2 -29 7.5 -54.5t20.5 -45.5t31 -37.5t39.5 -30.5t46 -24.5t49.5 -19.5t51 -16q78 -18 147 -55 q133 80 166 244q7 31 7 59t-4.5 50.5t-15.5 42.5t-24 35.5t-31.5 29.5t-37 24.5t-42 20.5t-44 17t-45.5 14q-93 26 -148 57q-133 -83 -166 -246q-5 -36 -7 -65z" />
<glyph unicode="&#xa8;" horiz-adv-x="917" d="M901 1190q6 32 32.5 56t55.5 24q31 0 48 -24t10 -56q-7 -34 -34.5 -57t-58.5 -23q-29 0 -44.5 23t-8.5 57zM1239 1190q8 32 34.5 56t55.5 24q31 0 47 -23.5t8 -56.5q-6 -34 -31.5 -57t-56.5 -23t-47.5 23t-9.5 57z" />
<glyph unicode="&#xa9;" horiz-adv-x="1642" d="M241.5 487q-8.5 107 14.5 226q41 195 164 360.5t296 262t353 96.5q108 0 201 -36.5t159.5 -102t110 -156t52 -197.5t-14.5 -227q-31 -146 -111 -278.5t-189 -228.5t-243.5 -153t-269.5 -57q-108 0 -201 36.5t-159.5 102t-110 155.5t-52 197zM308 459q24 -119 85.5 -207 t162 -139.5t222.5 -51.5q162 0 319 87.5t270 237.5t151 327t-10.5 327.5t-169 238t-283.5 87.5q-162 0 -319 -87.5t-270 -238t-151 -327.5q-31 -135 -7 -254zM633 565.5q-3 70.5 16 147.5q17 80 47 148.5t74 124t106 87t136 31.5q65 0 106.5 -25.5t73.5 -79.5l-55 -45 q-25 42 -56.5 62t-83.5 20q-63 0 -114 -29.5t-83.5 -80t-52.5 -102.5t-32 -111q-10 -46 -13.5 -87t1 -85.5t20.5 -76.5t51 -52.5t86 -20.5q52 0 91.5 20.5t84.5 61.5l37 -43q-58 -56 -109 -81t-118 -25q-74 0 -122.5 32t-68 85.5t-22.5 124z" />
<glyph unicode="&#xaa;" horiz-adv-x="866" d="M207 862q23 107 107.5 169.5t193.5 64.5h113q28 0 44 1.5t42.5 10.5t48.5 27l14 79q16 69 -31 112.5t-112 43.5q-68 0 -130 -30t-102 -95l-63 23q110 180 315 180q95 0 157.5 -65t41.5 -162l-107 -496l11 -66l-70 -22l-14 72q-72 -49 -126.5 -67.5t-119.5 -18.5 q-114 0 -175.5 62t-37.5 177zM281 864q-16 -82 30.5 -124t124.5 -42q66 0 124 26t124 83l53 246q-45 -19 -66 -24t-50 -5h-127q-74 0 -134.5 -41t-78.5 -119zM285 408l12 69h242l-15 -69h-239z" />
<glyph unicode="&#xab;" horiz-adv-x="1005" d="M219 479l19 92l448 383l-24 -106l-377 -322l241 -323l-22 -107zM569 479l17 92l448 383l-22 -106l-377 -322l239 -323l-20 -107z" />
<glyph unicode="&#xac;" horiz-adv-x="1024" d="M162 514l14 70h770l-80 -381h-61l67 311h-710z" />
<glyph unicode="&#xad;" horiz-adv-x="759" d="M123 518l16 82h494l-15 -82h-495z" />
<glyph unicode="&#xae;" horiz-adv-x="1642" d="M241.5 487q-8.5 107 14.5 226q41 195 164 360.5t296 262t353 96.5q108 0 201 -36.5t159.5 -102t110 -156t52 -197.5t-14.5 -227q-31 -146 -111 -278.5t-189 -228.5t-243.5 -153t-269.5 -57q-108 0 -201 36.5t-159.5 102t-110 155.5t-52 197zM308 459q24 -119 85.5 -207 t162 -139.5t222.5 -51.5q162 0 319 87.5t270 237.5t151 327t-10.5 327.5t-169 238t-283.5 87.5q-162 0 -319 -87.5t-270 -238t-151 -327.5q-31 -135 -7 -254zM616 338l162 752h240q105 0 154.5 -53t25.5 -158q-16 -79 -75.5 -139t-147.5 -64q36 -54 129 -338h-78l-78 246 q-17 45 -38 67.5t-56 22.5h-104l-72 -336h-62zM762 727h180q163 0 195 152q33 145 -133 145h-181z" />
<glyph unicode="&#xaf;" horiz-adv-x="929" d="M885 1128l18 84h500l-19 -84h-499z" />
<glyph unicode="&#xb0;" horiz-adv-x="694" d="M201 1354q15 78 80 134t137 56q73 0 113.5 -56t23.5 -134q-17 -80 -81.5 -136.5t-137.5 -56.5q-71 0 -111.5 57t-23.5 136zM250 1354q-14 -57 15 -99.5t81 -42.5q53 0 100.5 42t61.5 100q11 57 -18.5 98t-83.5 41q-53 0 -99.5 -41t-56.5 -98z" />
<glyph unicode="&#xb1;" horiz-adv-x="1042" d="M127 0l16 78h764l-16 -78h-764zM242 549l18 82h342l80 370h78l-78 -370h342l-16 -82h-344l-78 -371h-78l78 371h-344z" />
<glyph unicode="&#xb2;" horiz-adv-x="702" d="M80 532l8 48q37 82 87 150t99 111.5t101.5 80.5t99 67t85 61.5t66.5 72.5t38 91q18 86 -29 134.5t-129 48.5q-59 0 -115 -31.5t-98 -89.5l-39 29q106 145 262 145q110 0 168 -63t35 -175q-12 -56 -41.5 -102t-69.5 -80.5t-86.5 -66.5t-97.5 -67.5t-99 -76t-94 -100 t-79 -131.5h454l-10 -56h-516z" />
<glyph unicode="&#xb3;" horiz-adv-x="675" d="M96 688l54 19q10 -63 53.5 -96t107.5 -33q86 0 157 56.5t91 147.5q21 100 -27 150.5t-141 50.5l8 45q87 3 148 48t82 136q17 79 -29 133t-121 54q-57 0 -112.5 -33t-90.5 -88l-43 20q46 73 116 112.5t145 39.5q100 0 154.5 -66t31.5 -172q-15 -74 -60.5 -126.5 t-115.5 -77.5q69 -25 97.5 -83.5t10.5 -142.5q-26 -118 -113.5 -188t-197.5 -70q-85 0 -139 40.5t-66 123.5z" />
<glyph unicode="&#xb4;" horiz-adv-x="546" d="M801 1094l223 303h113l-252 -303h-84z" />
<glyph unicode="&#xb5;" horiz-adv-x="1179" d="M193 -399l292 1382h76l-119 -557q-18 -83 -17.5 -145t21.5 -112.5t73.5 -76.5t135.5 -26q61 0 129 27.5t125.5 84t73.5 127.5l143 678h72l-209 -983h-74l29 133q-148 -145 -305 -145q-96 0 -162 37.5t-92 134.5l-119 -559h-73z" />
<glyph unicode="&#xb6;" horiz-adv-x="1011" d="M383 1040q35 162 167.5 276t287.5 114h266l-369 -1739h-78l349 1650h-103l-348 -1650h-78l203 960q-162 3 -246.5 115.5t-50.5 273.5z" />
<glyph unicode="&#xb7;" horiz-adv-x="512" d="M184 543q9 43 43 72.5t74 29.5q38 0 59.5 -29.5t12.5 -72.5q-7 -42 -41.5 -72.5t-73.5 -30.5q-40 0 -61.5 30t-12.5 73z" />
<glyph unicode="&#xb8;" horiz-adv-x="925" d="M512 -403l227 268l-30 155l63 25l37 -186l-191 -262h-106z" />
<glyph unicode="&#xb9;" horiz-adv-x="411" d="M184 1294l213 146h47l-192 -908h-55l176 834l-170 -113z" />
<glyph unicode="&#xba;" horiz-adv-x="897" d="M242 1034q89 414 403 414q85 0 140.5 -31.5t78.5 -87t25.5 -131.5t-19.5 -164q-40 -189 -137 -300t-262 -111q-315 0 -229 411zM301 936q-4 -44 2 -89t25 -75.5t59.5 -50t99.5 -19.5t106.5 19.5t79.5 50t56.5 75.5t38.5 89t25 98q16 70 18.5 123t-10.5 103.5t-56.5 78 t-117.5 27.5q-59 0 -107 -19t-80 -49t-57 -76t-39.5 -89.5t-26.5 -98.5q-12 -54 -16 -98zM305 408l14 69h238l-14 -69h-238z" />
<glyph unicode="&#xbb;" horiz-adv-x="1005" d="M123 96l20 107l379 323l-241 322l24 106l283 -383l-19 -92zM471 96l23 107l378 323l-241 322l22 106l283 -383l-18 -92z" />
<glyph unicode="&#xbc;" horiz-adv-x="1558" d="M342 0l879 1430h61l-876 -1430h-64zM346 1303l242 139h30l-184 -869h-57l166 779l-183 -101zM913 227l13 68l448 573h70l-453 -577h289l70 323l45 -10l-66 -313h55l-14 -64h-53l-49 -227h-60l49 227h-344z" />
<glyph unicode="&#xbd;" horiz-adv-x="1630" d="M344 0l877 1430h63l-876 -1430h-64zM346 1303l244 139h31l-185 -869h-57l166 779l-183 -101zM928 0l12 63q96 177 258 314q137 117 190.5 176.5t65.5 112.5q8 41 -1.5 70.5t-31 44.5t-43.5 21.5t-45 6.5q-103 0 -184 -115l-45 29q107 147 242 147q85 0 135.5 -54.5 t29.5 -149.5q-14 -67 -71 -135t-205 -193q-111 -93 -231 -275h378l-12 -63h-442z" />
<glyph unicode="&#xbe;" horiz-adv-x="1773" d="M289 719l61 20q8 -53 45 -87t92 -34q73 0 138 55t80 130q17 77 -24 132.5t-114 55.5h-26l10 58h20q70 0 130 49.5t75 118.5q13 69 -25.5 117t-107.5 48q-52 0 -101 -30t-77 -80l-55 22q43 69 110 110.5t137 41.5q95 0 147.5 -67.5t33.5 -161.5q-25 -108 -156 -195 q108 -89 82 -219q-23 -103 -107 -175.5t-182 -72.5q-75 0 -125 44.5t-61 119.5zM553 0l879 1430h61l-879 -1430h-61zM1122 227l15 68l448 573h68l-451 -577h287l70 323l47 -10l-66 -313h55l-12 -64h-57l-47 -227h-60l47 227h-344z" />
<glyph unicode="&#xbf;" horiz-adv-x="1056" d="M203 -111q-34 -167 51.5 -267t247.5 -103q98 0 190 40t164 120.5t100 187.5h-77q-22 -82 -83 -144t-134 -91t-146 -29q-125 0 -193 77t-38 209q10 48 28 82.5t48.5 61t56 42.5t71.5 41q11 6 17 9q43 26 69 46t60.5 55.5t58.5 86.5t39 119l27 164h-53l-41 -162 q-26 -96 -80.5 -157t-161.5 -119q-42 -23 -69.5 -41.5t-61 -49.5t-55.5 -75.5t-35 -102.5zM717 901q9 35 36 59.5t58 24.5q34 0 51 -24.5t8 -59.5q-7 -35 -34.5 -58.5t-61.5 -23.5q-31 0 -47.5 23.5t-9.5 58.5z" />
<glyph unicode="&#xc0;" horiz-adv-x="1212" d="M-20 0l808 1430h113l203 -1430h-90l-64 438h-635l-245 -438h-90zM362 520h578l-115 821zM674 1849h110l95 -303h-80z" />
<glyph unicode="&#xc1;" horiz-adv-x="1212" d="M-20 0l808 1430h113l203 -1430h-90l-64 438h-635l-245 -438h-90zM362 520h578l-115 821zM838 1546l223 303h110l-251 -303h-82z" />
<glyph unicode="&#xc2;" horiz-adv-x="1212" d="M-20 0l808 1430h113l203 -1430h-90l-64 438h-635l-245 -438h-90zM362 520h578l-115 821zM614 1546l258 301h91l133 -301h-99l-94 244l-192 -244h-97z" />
<glyph unicode="&#xc3;" horiz-adv-x="1212" d="M-20 0l808 1430h113l203 -1430h-90l-64 438h-635l-245 -438h-90zM362 520h578l-115 821zM627 1642q44 53 83.5 79t86.5 26q31 0 54.5 -12t39 -28.5t29.5 -33.5t33.5 -29t43.5 -12q34 0 60 19t55 55l39 -53q-43 -54 -82.5 -80.5t-87.5 -26.5q-37 0 -65.5 18.5t-43.5 40 t-39 40t-53 18.5q-32 0 -56.5 -18.5t-55.5 -55.5z" />
<glyph unicode="&#xc4;" horiz-adv-x="1212" d="M-20 0l808 1430h113l203 -1430h-90l-64 438h-635l-245 -438h-90zM362 520h578l-115 821zM647 1642q6 32 32.5 56t55.5 24q31 0 48 -24t10 -56q-7 -33 -34.5 -56t-58.5 -23q-29 0 -44.5 22.5t-8.5 56.5zM985 1642q8 32 34.5 56t55.5 24q31 0 47 -23.5t8 -56.5 q-6 -34 -31.5 -56.5t-56.5 -22.5t-47.5 23t-9.5 56z" />
<glyph unicode="&#xc5;" horiz-adv-x="1212" d="M-20 0l808 1430h113l203 -1430h-90l-64 438h-635l-245 -438h-90zM362 520h578l-115 821zM727 1751q17 83 84.5 142t144.5 59q76 0 117.5 -59t24.5 -142q-17 -82 -84.5 -141.5t-143.5 -59.5t-118 59.5t-25 141.5zM805 1751q-11 -50 13 -84.5t71 -34.5q43 0 83 35t50 84 q9 49 -15 84t-67 35q-47 0 -86.5 -34.5t-48.5 -84.5z" />
<glyph unicode="&#xc6;" horiz-adv-x="1568" d="M-205 0l1053 1430h844l-19 -91h-682l-117 -551h592l-20 -90h-592l-129 -608h682l-18 -90h-768l92 438h-504l-320 -438h-94zM272 520h459l172 809h-35z" />
<glyph unicode="&#xc7;" horiz-adv-x="1075" d="M125 496q6 103 31 219q26 118 65 222t98.5 199.5t133 163.5t172.5 108t213 40q128 0 206.5 -50.5t143.5 -160.5l-76 -59q-55 92 -120 135t-173 43q-102 0 -189.5 -38.5t-148.5 -100.5t-110 -148t-78 -172t-49 -182q-17 -79 -25 -151.5t-5.5 -147t23.5 -134.5t58 -107.5 t100.5 -74t149.5 -26.5q109 0 193.5 44.5t179.5 137.5l51 -59q-107 -106 -197 -156t-203 -57l27 -144l-170 -243h-98l204 249l-24 138q-109 3 -188 44.5t-122 109.5t-61 161.5t-12 196.5z" />
<glyph unicode="&#xc8;" horiz-adv-x="1081" d="M72 0l303 1430h829l-18 -91h-746l-116 -555h649l-17 -86h-651l-129 -608h744l-19 -90h-829zM690 1849h111l96 -303h-82z" />
<glyph unicode="&#xc9;" horiz-adv-x="1081" d="M72 0l303 1430h829l-18 -91h-746l-116 -555h649l-17 -86h-651l-129 -608h744l-19 -90h-829zM627 1546l223 303h111l-252 -303h-82z" />
<glyph unicode="&#xca;" horiz-adv-x="1081" d="M72 0l303 1430h829l-18 -91h-746l-116 -555h649l-17 -86h-651l-129 -608h744l-19 -90h-829zM549 1546l258 301h92l131 -301h-98l-94 244l-193 -244h-96z" />
<glyph unicode="&#xcb;" horiz-adv-x="1081" d="M72 0l303 1430h829l-18 -91h-746l-116 -555h649l-17 -86h-651l-129 -608h744l-19 -90h-829zM551 1642q8 33 33.5 56.5t54.5 23.5q31 0 48 -24t11 -56q-7 -33 -34 -56t-58 -23q-29 0 -45 22.5t-10 56.5zM891 1642q6 32 32.5 56t57.5 24t47 -23.5t8 -56.5q-7 -34 -33 -56.5 t-57 -22.5q-30 0 -46 23t-9 56z" />
<glyph unicode="&#xcc;" horiz-adv-x="337" d="M72 0l303 1430h86l-303 -1430h-86zM266 1849h109l96 -303h-82z" />
<glyph unicode="&#xcd;" horiz-adv-x="337" d="M72 0l303 1430h86l-303 -1430h-86zM399 1546l224 303h112l-254 -303h-82z" />
<glyph unicode="&#xce;" horiz-adv-x="337" d="M72 0l303 1430h86l-303 -1430h-86zM203 1546l258 301h92l131 -301h-98l-94 244l-193 -244h-96z" />
<glyph unicode="&#xcf;" horiz-adv-x="337" d="M72 0l303 1430h86l-303 -1430h-86zM217 1642q6 32 32.5 56t55.5 24q31 0 48 -24t9 -56q-7 -33 -34 -56t-58 -23q-29 0 -44.5 22.5t-8.5 56.5zM555 1642q8 32 34.5 56t55.5 24q31 0 47 -23.5t8 -56.5q-6 -34 -31.5 -56.5t-56.5 -22.5t-47.5 23t-9.5 56z" />
<glyph unicode="&#xd0;" horiz-adv-x="1204" d="M72 0l139 670h-82l18 82h82l146 678h385q91 0 156 -7.5t127.5 -31.5t99 -65t55 -110.5t10.5 -166.5q-13 -133 -55 -334q-55 -242 -86 -332q-34 -97 -82 -167t-102 -111.5t-126 -65t-140.5 -31.5t-159.5 -8h-385zM174 92h301q55 0 93.5 2t86.5 8.5t83 19t74 35t68 54.5 t56.5 79t48.5 107q12 36 25 81t20.5 75.5t20.5 85.5t18 76q43 220 49 317q6 61 -1.5 108t-22.5 79t-44.5 55t-59 35.5t-75.5 19t-83.5 8.5t-92.5 2h-299l-125 -587h308l-17 -82h-309z" />
<glyph unicode="&#xd1;" horiz-adv-x="1200" d="M72 0l303 1430h94l449 -1274l270 1274h84l-303 -1430h-92l-449 1274l-270 -1274h-86zM588 1642q44 53 84 79t88 26q37 0 64.5 -18t42.5 -39.5t38.5 -39.5t52.5 -18q34 0 60 19t55 55l41 -53q-45 -54 -84 -80.5t-86 -26.5q-37 0 -66 18.5t-44 40t-39.5 40t-53.5 18.5 q-32 0 -56.5 -18.5t-55.5 -55.5z" />
<glyph unicode="&#xd2;" horiz-adv-x="1220" d="M125 494.5q6 103.5 31 220.5q24 117 62 220.5t96.5 199t131.5 164t171.5 109t211.5 40.5q96 0 169 -28t118 -79t72 -118.5t33.5 -151t-0.5 -171.5t-27 -185q-25 -117 -63 -220.5t-96.5 -199t-131.5 -164t-172 -109t-213 -40.5q-113 0 -194 40.5t-125 109t-62 164t-12 199 zM210.5 418.5q1.5 -74.5 21.5 -135t56 -108.5t99.5 -74.5t149.5 -26.5q103 0 190 39t147.5 101t109 149t77.5 171.5t49 180.5q14 67 21.5 128.5t8 127.5t-9 120.5t-33 104.5t-60.5 84.5t-94.5 55t-131.5 20.5q-103 0 -190 -39t-147 -101t-108 -149t-76 -171.5t-48 -180.5 q-18 -79 -25.5 -150.5t-6 -146zM760 1849h108l97 -303h-82z" />
<glyph unicode="&#xd3;" horiz-adv-x="1220" d="M125 494.5q6 103.5 31 220.5q24 117 62 220.5t96.5 199t131.5 164t171.5 109t211.5 40.5q96 0 169 -28t118 -79t72 -118.5t33.5 -151t-0.5 -171.5t-27 -185q-25 -117 -63 -220.5t-96.5 -199t-131.5 -164t-172 -109t-213 -40.5q-113 0 -194 40.5t-125 109t-62 164t-12 199 zM210.5 418.5q1.5 -74.5 21.5 -135t56 -108.5t99.5 -74.5t149.5 -26.5q103 0 190 39t147.5 101t109 149t77.5 171.5t49 180.5q14 67 21.5 128.5t8 127.5t-9 120.5t-33 104.5t-60.5 84.5t-94.5 55t-131.5 20.5q-103 0 -190 -39t-147 -101t-108 -149t-76 -171.5t-48 -180.5 q-18 -79 -25.5 -150.5t-6 -146zM694 1546l224 303h110l-252 -303h-82z" />
<glyph unicode="&#xd4;" horiz-adv-x="1220" d="M125 494.5q6 103.5 31 220.5q24 117 62 220.5t96.5 199t131.5 164t171.5 109t211.5 40.5q96 0 169 -28t118 -79t72 -118.5t33.5 -151t-0.5 -171.5t-27 -185q-25 -117 -63 -220.5t-96.5 -199t-131.5 -164t-172 -109t-213 -40.5q-113 0 -194 40.5t-125 109t-62 164t-12 199 zM210.5 418.5q1.5 -74.5 21.5 -135t56 -108.5t99.5 -74.5t149.5 -26.5q103 0 190 39t147.5 101t109 149t77.5 171.5t49 180.5q14 67 21.5 128.5t8 127.5t-9 120.5t-33 104.5t-60.5 84.5t-94.5 55t-131.5 20.5q-103 0 -190 -39t-147 -101t-108 -149t-76 -171.5t-48 -180.5 q-18 -79 -25.5 -150.5t-6 -146zM614 1546l258 301h93l131 -301h-99l-94 244l-192 -244h-97z" />
<glyph unicode="&#xd5;" horiz-adv-x="1220" d="M125 494.5q6 103.5 31 220.5q24 117 62 220.5t96.5 199t131.5 164t171.5 109t211.5 40.5q96 0 169 -28t118 -79t72 -118.5t33.5 -151t-0.5 -171.5t-27 -185q-25 -117 -63 -220.5t-96.5 -199t-131.5 -164t-172 -109t-213 -40.5q-113 0 -194 40.5t-125 109t-62 164t-12 199 zM210.5 418.5q1.5 -74.5 21.5 -135t56 -108.5t99.5 -74.5t149.5 -26.5q103 0 190 39t147.5 101t109 149t77.5 171.5t49 180.5q14 67 21.5 128.5t8 127.5t-9 120.5t-33 104.5t-60.5 84.5t-94.5 55t-131.5 20.5q-103 0 -190 -39t-147 -101t-108 -149t-76 -171.5t-48 -180.5 q-18 -79 -25.5 -150.5t-6 -146zM598 1642q44 53 84 79t88 26q30 0 53.5 -12t39 -28.5t29.5 -33.5t33.5 -29t43.5 -12q33 0 59 18.5t55 55.5l39 -53q-43 -54 -82 -80.5t-86 -26.5q-31 0 -55 12t-39.5 29.5t-30 34.5t-34 29t-43.5 12q-32 0 -57 -19t-56 -55z" />
<glyph unicode="&#xd6;" horiz-adv-x="1220" d="M125 494.5q6 103.5 31 220.5q24 117 62 220.5t96.5 199t131.5 164t171.5 109t211.5 40.5q96 0 169 -28t118 -79t72 -118.5t33.5 -151t-0.5 -171.5t-27 -185q-25 -117 -63 -220.5t-96.5 -199t-131.5 -164t-172 -109t-213 -40.5q-113 0 -194 40.5t-125 109t-62 164t-12 199 zM210.5 418.5q1.5 -74.5 21.5 -135t56 -108.5t99.5 -74.5t149.5 -26.5q103 0 190 39t147.5 101t109 149t77.5 171.5t49 180.5q14 67 21.5 128.5t8 127.5t-9 120.5t-33 104.5t-60.5 84.5t-94.5 55t-131.5 20.5q-103 0 -190 -39t-147 -101t-108 -149t-76 -171.5t-48 -180.5 q-18 -79 -25.5 -150.5t-6 -146zM618 1642q6 32 33 56t56 24q31 0 48 -24t9 -56q-7 -33 -34 -56t-58 -23q-30 0 -45.5 23t-8.5 56zM956 1642q8 32 35 56t56 24q31 0 47 -23.5t8 -56.5q-6 -34 -31.5 -56.5t-56.5 -22.5t-48 23t-10 56z" />
<glyph unicode="&#xd7;" horiz-adv-x="901" d="M147 295l302 266l-189 264l66 60l188 -267l301 267l41 -60l-299 -264l186 -266l-65 -57l-189 264l-299 -264z" />
<glyph unicode="&#xd8;" horiz-adv-x="1220" d="M113 -4l94 129q-129 203 -49 590q25 117 63 220.5t97 199t132 164t171.5 109t212.5 40.5q153 0 266 -88l51 74h80l-88 -119q135 -204 55 -600q-26 -117 -64 -220.5t-97 -199t-131.5 -164t-171 -109t-212.5 -40.5q-159 0 -272 96l-57 -82h-80zM244 715q-66 -317 24 -502 l772 1065q-94 78 -227 78q-102 0 -188.5 -39t-146.5 -100.5t-108 -148.5t-77 -171.5t-49 -181.5zM309 160q89 -86 232 -86q74 0 140 20.5t117.5 55t96.5 84.5t78 104.5t61 120.5t46.5 127.5t33.5 128.5q65 325 -33 512z" />
<glyph unicode="&#xd9;" horiz-adv-x="1193" d="M174 608l174 822h86l-174 -818q-16 -74 -23 -136t-5.5 -125.5t19.5 -111.5t51 -86.5t90.5 -58.5t135.5 -20q95 0 172 30t129.5 79t93.5 121.5t65.5 145t43.5 162.5l174 818h84l-176 -822q-31 -144 -77 -253t-116.5 -195.5t-173.5 -132t-235 -45.5q-473 0 -338 626z M745 1849h111l96 -303h-82z" />
<glyph unicode="&#xda;" horiz-adv-x="1193" d="M174 608l174 822h86l-174 -818q-16 -74 -23 -136t-5.5 -125.5t19.5 -111.5t51 -86.5t90.5 -58.5t135.5 -20q95 0 172 30t129.5 79t93.5 121.5t65.5 145t43.5 162.5l174 818h84l-176 -822q-31 -144 -77 -253t-116.5 -195.5t-173.5 -132t-235 -45.5q-473 0 -338 626z M682 1546l223 303h111l-252 -303h-82z" />
<glyph unicode="&#xdb;" horiz-adv-x="1193" d="M174 608l174 822h86l-174 -818q-16 -74 -23 -136t-5.5 -125.5t19.5 -111.5t51 -86.5t90.5 -58.5t135.5 -20q95 0 172 30t129.5 79t93.5 121.5t65.5 145t43.5 162.5l174 818h84l-176 -822q-31 -144 -77 -253t-116.5 -195.5t-173.5 -132t-235 -45.5q-473 0 -338 626z M602 1546l258 301h92l131 -301h-98l-94 244l-193 -244h-96z" />
<glyph unicode="&#xdc;" horiz-adv-x="1193" d="M174 608l174 822h86l-174 -818q-16 -74 -23 -136t-5.5 -125.5t19.5 -111.5t51 -86.5t90.5 -58.5t135.5 -20q95 0 172 30t129.5 79t93.5 121.5t65.5 145t43.5 162.5l174 818h84l-176 -822q-31 -144 -77 -253t-116.5 -195.5t-173.5 -132t-235 -45.5q-473 0 -338 626z M606 1642q6 33 32 56.5t56 23.5t47 -23.5t11 -56.5q-7 -33 -34.5 -56t-58.5 -23q-29 0 -44.5 22.5t-8.5 56.5zM944 1642q8 32 34.5 56t55.5 24q31 0 47.5 -24t8.5 -56q-6 -33 -33 -56t-58 -23q-30 0 -46 23t-9 56z" />
<glyph unicode="&#xdd;" horiz-adv-x="894" d="M205 1430h96l201 -850l563 850h96l-639 -957l-100 -473h-84l100 473zM535 1546l223 303h110l-252 -303h-81z" />
<glyph unicode="&#xde;" horiz-adv-x="1095" d="M72 0l303 1430h86l-64 -304h396q433 0 350 -387q-81 -387 -514 -387h-398l-73 -352h-86zM252 442h395q77 0 137 12t117.5 43t97.5 92t58 150q10 45 11 83t-7 67t-21.5 52t-35 39t-46 27t-55.5 17.5t-62 9t-67 2.5h-397z" />
<glyph unicode="&#xdf;" horiz-adv-x="1173" d="M-45 -461l272 1262q52 239 73 309q57 182 157 254q92 66 239 66q84 0 142 -24.5t88 -63t42 -98.5t9.5 -119t-14.5 -136q134 -17 200 -153l-73 -33q-55 117 -187 117q-98 0 -169.5 -52.5t-71.5 -150.5q0 -41 24 -71.5t62.5 -50.5t85 -37.5t93 -38.5t85 -47.5t62.5 -71 t24 -103.5q0 -140 -107.5 -227.5t-257.5 -87.5q-241 0 -291 251l76 19q43 -191 223 -191q67 0 127 24.5t101 77t41 122.5q0 47 -24 81.5t-62.5 56t-85 39.5t-92.5 38t-84.5 44.5t-62.5 66t-24 96.5q0 124 86 201t218 85q10 54 14 95.5t2.5 84.5t-13.5 73.5t-34 55.5 t-60.5 37.5t-91.5 12.5q-57 0 -103 -15t-78.5 -33t-60.5 -60.5t-43.5 -70.5t-34 -92t-25.5 -95t-23 -108q-3 -16 -5 -24.5t-5 -22t-5 -24.5l-272 -1268h-86z" />
<glyph unicode="&#xe0;" d="M82 307q0 117 46.5 239t123.5 221t188.5 162.5t231.5 63.5q128 0 262 -67l-184 -854l6 -72l-80 -10l-6 86l92 432q-189 -524 -467 -524q-59 0 -102 28t-66.5 76.5t-34 102.5t-10.5 116zM164 297q0 -35 6.5 -72t20.5 -76t43 -63.5t69 -24.5q81 0 161 64t140.5 160 t111.5 212t81 217t43 177q-90 37 -160 37q-87 0 -169.5 -41.5t-143.5 -109t-108 -150.5t-71 -169t-24 -161zM535 1397h110l94 -303h-80z" />
<glyph unicode="&#xe1;" d="M82 307q0 117 46.5 239t123.5 221t188.5 162.5t231.5 63.5q128 0 262 -67l-184 -854l6 -72l-80 -10l-6 86l92 432q-189 -524 -467 -524q-59 0 -102 28t-66.5 76.5t-34 102.5t-10.5 116zM164 297q0 -35 6.5 -72t20.5 -76t43 -63.5t69 -24.5q81 0 161 64t140.5 160 t111.5 212t81 217t43 177q-90 37 -160 37q-87 0 -169.5 -41.5t-143.5 -109t-108 -150.5t-71 -169t-24 -161zM608 1094l223 303h111l-252 -303h-82z" />
<glyph unicode="&#xe2;" d="M82 307q0 117 46.5 239t123.5 221t188.5 162.5t231.5 63.5q128 0 262 -67l-184 -854l6 -72l-80 -10l-6 86l92 432q-189 -524 -467 -524q-59 0 -102 28t-66.5 76.5t-34 102.5t-10.5 116zM164 297q0 -35 6.5 -72t20.5 -76t43 -63.5t69 -24.5q81 0 161 64t140.5 160 t111.5 212t81 217t43 177q-90 37 -160 37q-87 0 -169.5 -41.5t-143.5 -109t-108 -150.5t-71 -169t-24 -161zM453 1094l260 301h90l131 -301h-98l-95 243l-190 -243h-98z" />
<glyph unicode="&#xe3;" d="M82 307q0 117 46.5 239t123.5 221t188.5 162.5t231.5 63.5q128 0 262 -67l-184 -854l6 -72l-80 -10l-6 86l92 432q-189 -524 -467 -524q-59 0 -102 28t-66.5 76.5t-34 102.5t-10.5 116zM164 297q0 -35 6.5 -72t20.5 -76t43 -63.5t69 -24.5q81 0 161 64t140.5 160 t111.5 212t81 217t43 177q-90 37 -160 37q-87 0 -169.5 -41.5t-143.5 -109t-108 -150.5t-71 -169t-24 -161zM436 1190q45 53 83.5 78.5t86.5 25.5q37 0 65.5 -18t43.5 -39t39 -39t53 -18q34 0 59 18.5t54 54.5l41 -53q-43 -53 -82.5 -79.5t-87.5 -26.5q-31 0 -55 12 t-39.5 29t-30 34t-33.5 29t-43 12q-33 0 -59 -18.5t-56 -54.5z" />
<glyph unicode="&#xe4;" d="M82 307q0 117 46.5 239t123.5 221t188.5 162.5t231.5 63.5q128 0 262 -67l-184 -854l6 -72l-80 -10l-6 86l92 432q-189 -524 -467 -524q-59 0 -102 28t-66.5 76.5t-34 102.5t-10.5 116zM164 297q0 -35 6.5 -72t20.5 -76t43 -63.5t69 -24.5q81 0 161 64t140.5 160 t111.5 212t81 217t43 177q-90 37 -160 37q-87 0 -169.5 -41.5t-143.5 -109t-108 -150.5t-71 -169t-24 -161zM393 1190q8 33 34 56.5t56 23.5t47 -23.5t11 -56.5q-7 -34 -34 -57t-58 -23q-29 0 -45.5 23t-10.5 57zM733 1190q8 32 34.5 56t55.5 24q31 0 47.5 -24t8.5 -56 q-7 -34 -33.5 -57t-57.5 -23q-30 0 -46 23.5t-9 56.5z" />
<glyph unicode="&#xe5;" d="M82 307q0 117 46.5 239t123.5 221t188.5 162.5t231.5 63.5q128 0 262 -67l-184 -854l6 -72l-80 -10l-6 86l92 432q-189 -524 -467 -524q-59 0 -102 28t-66.5 76.5t-34 102.5t-10.5 116zM164 297q0 -35 6.5 -72t20.5 -76t43 -63.5t69 -24.5q81 0 161 64t140.5 160 t111.5 212t81 217t43 177q-90 37 -160 37q-87 0 -169.5 -41.5t-143.5 -109t-108 -150.5t-71 -169t-24 -161zM516 1298q17 83 84 142t145 59q75 0 117 -59t23 -142q-15 -81 -82.5 -140.5t-143.5 -59.5q-77 0 -118.5 59t-24.5 141zM592 1298q-9 -50 15 -84t69 -34t84.5 34.5 t48.5 83.5q10 49 -14 84t-68 35q-46 0 -85 -34.5t-50 -84.5z" />
<glyph unicode="&#xe6;" horiz-adv-x="1472" d="M82 307q0 118 46 240t122.5 221t186.5 162t229 63q114 0 237 -63l-20 -86q146 151 315 151q69 0 129.5 -20.5t103 -67.5t42.5 -112q0 -60 -35.5 -109t-96.5 -81t-130 -55.5t-150 -36.5t-141.5 -19.5t-118.5 -8.5q-21 -94 -21 -161q0 -117 53 -189t171 -72q75 0 134 31 t119 90l58 -59q-80 -76 -150.5 -108.5t-165.5 -32.5q-76 0 -135 24.5t-100.5 77t-55 133.5t0.5 195q-77 -195 -188 -312.5t-228 -117.5q-58 0 -101 28t-66 76.5t-33.5 102.5t-10.5 116zM164 297q0 -35 6.5 -72.5t21 -76t42.5 -63t65 -24.5q79 0 157.5 64t137.5 160t109 212 t79.5 217t42.5 177q-90 37 -157 37q-85 0 -165 -41.5t-140 -109t-106 -150t-69.5 -169t-23.5 -161.5zM817 541q54 3 120.5 12t148.5 28.5t147.5 46.5t110.5 69.5t45 93.5q0 45 -32.5 74.5t-73 39.5t-85.5 10q-142 0 -237.5 -103t-143.5 -271z" />
<glyph unicode="&#xe7;" horiz-adv-x="825" d="M61 324q0 94 20.5 188t63.5 181t103.5 154t147 107.5t186.5 40.5q93 0 153 -33.5t111 -113.5l-74 -43q-42 60 -84.5 84t-112.5 24q-85 0 -157.5 -38.5t-120.5 -100t-82.5 -139t-49.5 -155t-15 -148.5q0 -57 12.5 -103.5t38.5 -85t72 -59.5t108 -21q79 0 137.5 29.5 t120.5 91.5l59 -59q-76 -71 -142.5 -104.5t-152.5 -36.5l31 -138l-188 -249h-103l219 245l-28 142q-136 13 -204.5 104t-68.5 236z" />
<glyph unicode="&#xe8;" horiz-adv-x="854" d="M61 326q0 92 21 186t64.5 180.5t104 154t145.5 108t182 40.5q69 0 130 -20.5t103.5 -67.5t42.5 -112q0 -60 -36 -109t-98 -81t-132.5 -55.5t-153 -36.5t-145 -19.5t-121.5 -8.5q-21 -95 -21 -161q0 -56 12 -101.5t38 -82t71 -57t107 -20.5q81 0 139.5 30.5t122.5 90.5 l57 -59q-81 -77 -153 -109t-168 -32q-156 0 -234 92.5t-78 249.5zM180 539q56 3 125.5 12t154 29t152.5 47.5t114 70t46 93.5q0 45 -33 74.5t-74 39.5t-87 10q-147 0 -245.5 -103t-152.5 -273zM485 1397h109l96 -303h-82z" />
<glyph unicode="&#xe9;" horiz-adv-x="854" d="M61 326q0 92 21 186t64.5 180.5t104 154t145.5 108t182 40.5q69 0 130 -20.5t103.5 -67.5t42.5 -112q0 -60 -36 -109t-98 -81t-132.5 -55.5t-153 -36.5t-145 -19.5t-121.5 -8.5q-21 -95 -21 -161q0 -56 12 -101.5t38 -82t71 -57t107 -20.5q81 0 139.5 30.5t122.5 90.5 l57 -59q-81 -77 -153 -109t-168 -32q-156 0 -234 92.5t-78 249.5zM180 539q56 3 125.5 12t154 29t152.5 47.5t114 70t46 93.5q0 45 -33 74.5t-74 39.5t-87 10q-147 0 -245.5 -103t-152.5 -273zM430 1094l223 303h111l-252 -303h-82z" />
<glyph unicode="&#xea;" horiz-adv-x="854" d="M61 326q0 92 21 186t64.5 180.5t104 154t145.5 108t182 40.5q69 0 130 -20.5t103.5 -67.5t42.5 -112q0 -60 -36 -109t-98 -81t-132.5 -55.5t-153 -36.5t-145 -19.5t-121.5 -8.5q-21 -95 -21 -161q0 -56 12 -101.5t38 -82t71 -57t107 -20.5q81 0 139.5 30.5t122.5 90.5 l57 -59q-81 -77 -153 -109t-168 -32q-156 0 -234 92.5t-78 249.5zM180 539q56 3 125.5 12t154 29t152.5 47.5t114 70t46 93.5q0 45 -33 74.5t-74 39.5t-87 10q-147 0 -245.5 -103t-152.5 -273zM358 1094l258 301h91l133 -301h-99l-94 243l-192 -243h-97z" />
<glyph unicode="&#xeb;" horiz-adv-x="854" d="M61 326q0 92 21 186t64.5 180.5t104 154t145.5 108t182 40.5q69 0 130 -20.5t103.5 -67.5t42.5 -112q0 -60 -36 -109t-98 -81t-132.5 -55.5t-153 -36.5t-145 -19.5t-121.5 -8.5q-21 -95 -21 -161q0 -56 12 -101.5t38 -82t71 -57t107 -20.5q81 0 139.5 30.5t122.5 90.5 l57 -59q-81 -77 -153 -109t-168 -32q-156 0 -234 92.5t-78 249.5zM180 539q56 3 125.5 12t154 29t152.5 47.5t114 70t46 93.5q0 45 -33 74.5t-74 39.5t-87 10q-147 0 -245.5 -103t-152.5 -273zM356 1190q6 32 32.5 56t55.5 24q31 0 48 -24t10 -56q-7 -34 -34 -57t-58 -23 q-29 0 -45 23.5t-9 56.5zM694 1190q8 32 34.5 56t55.5 24q30 0 47 -23.5t11 -56.5q-8 -34 -33.5 -57t-56.5 -23t-47.5 23t-10.5 57z" />
<glyph unicode="&#xec;" horiz-adv-x="471" d="M84 0l227 983h88l-227 -983h-88zM215 1397h111l96 -303h-82z" />
<glyph unicode="&#xed;" horiz-adv-x="471" d="M84 0l227 983h88l-227 -983h-88zM324 1094l223 303h112l-251 -303h-84z" />
<glyph unicode="&#xee;" horiz-adv-x="471" d="M84 0l227 983h88l-227 -983h-88zM137 1094l258 301h90l133 -301h-98l-94 243l-193 -243h-96z" />
<glyph unicode="&#xef;" horiz-adv-x="471" d="M84 0l227 983h88l-227 -983h-88zM156 1190q8 33 33.5 56.5t54.5 23.5q31 0 48 -24t11 -56q-7 -34 -34 -57t-58 -23q-29 0 -45 23t-10 57zM496 1190q6 32 32.5 56t57.5 24t47 -23.5t8 -56.5q-8 -34 -33.5 -57t-56.5 -23q-30 0 -46 23.5t-9 56.5z" />
<glyph unicode="&#xf0;" horiz-adv-x="935" d="M86 483q104 500 487 500q96 0 183 -49l-56 264h-231l16 70h203l-55 268h74l53 -268h170l-17 -70h-139q9 -39 27 -119.5t33 -142.5t30 -111q14 -48 13.5 -111.5t-8 -111t-21.5 -119.5q-106 -501 -486 -501q-381 0 -276 501zM140 355q-5 -57 3 -114t33 -95t75.5 -61.5 t125.5 -23.5t136 24t102 62t73 95t50.5 114t33.5 127q15 71 20 127t-2.5 113.5t-32 95.5t-75 62t-125.5 24t-136.5 -24t-102.5 -62.5t-73.5 -95.5t-51 -113.5t-33.5 -126.5q-15 -71 -20 -128z" />
<glyph unicode="&#xf1;" horiz-adv-x="995" d="M61 0l218 983h88l-111 -500q101 261 214.5 386.5t248.5 125.5q59 0 101.5 -18t65.5 -50.5t35.5 -71t12.5 -86t-4.5 -89t-14.5 -86.5l-131 -594h-88l138 618q12 52 14.5 99.5t-6 96t-42.5 77.5t-91 29q-74 0 -148 -55t-129 -136t-104 -182t-78.5 -183.5t-46.5 -150.5 q-49 -185 -53 -213h-89zM479 1190q44 53 83.5 78.5t86.5 25.5q37 0 65.5 -18t43.5 -39t39 -39t53 -18q58 0 113 73l41 -53q-43 -53 -82.5 -79.5t-87.5 -26.5q-31 0 -54.5 12t-39 29t-30 34t-34 29t-43.5 12q-33 0 -59 -18.5t-56 -54.5z" />
<glyph unicode="&#xf2;" horiz-adv-x="907" d="M61 281q0 101 16.5 198.5t56 192.5t98 166t150 115t204.5 44q145 0 223 -79t78 -220q0 -83 -11 -163t-34.5 -162t-65 -151.5t-97.5 -123.5t-136.5 -85t-177.5 -31q-147 0 -225.5 78.5t-78.5 220.5zM152 309q0 -248 235 -248q87 0 158 40t117 103t77 145.5t44.5 164 t13.5 160.5q0 113 -60 178.5t-176 65.5q-87 0 -158 -40t-116.5 -103t-77 -145t-44.5 -162.5t-13 -158.5zM510 1397h108l97 -303h-82z" />
<glyph unicode="&#xf3;" horiz-adv-x="907" d="M61 281q0 101 16.5 198.5t56 192.5t98 166t150 115t204.5 44q145 0 223 -79t78 -220q0 -83 -11 -163t-34.5 -162t-65 -151.5t-97.5 -123.5t-136.5 -85t-177.5 -31q-147 0 -225.5 78.5t-78.5 220.5zM152 309q0 -248 235 -248q87 0 158 40t117 103t77 145.5t44.5 164 t13.5 160.5q0 113 -60 178.5t-176 65.5q-87 0 -158 -40t-116.5 -103t-77 -145t-44.5 -162.5t-13 -158.5zM457 1094l223 303h111l-252 -303h-82z" />
<glyph unicode="&#xf4;" horiz-adv-x="907" d="M61 281q0 101 16.5 198.5t56 192.5t98 166t150 115t204.5 44q145 0 223 -79t78 -220q0 -83 -11 -163t-34.5 -162t-65 -151.5t-97.5 -123.5t-136.5 -85t-177.5 -31q-147 0 -225.5 78.5t-78.5 220.5zM152 309q0 -248 235 -248q87 0 158 40t117 103t77 145.5t44.5 164 t13.5 160.5q0 113 -60 178.5t-176 65.5q-87 0 -158 -40t-116.5 -103t-77 -145t-44.5 -162.5t-13 -158.5zM385 1094l258 301h90l133 -301h-98l-94 243l-193 -243h-96z" />
<glyph unicode="&#xf5;" horiz-adv-x="907" d="M61 281q0 101 16.5 198.5t56 192.5t98 166t150 115t204.5 44q145 0 223 -79t78 -220q0 -83 -11 -163t-34.5 -162t-65 -151.5t-97.5 -123.5t-136.5 -85t-177.5 -31q-147 0 -225.5 78.5t-78.5 220.5zM152 309q0 -248 235 -248q87 0 158 40t117 103t77 145.5t44.5 164 t13.5 160.5q0 113 -60 178.5t-176 65.5q-87 0 -158 -40t-116.5 -103t-77 -145t-44.5 -162.5t-13 -158.5zM362 1190q45 53 83.5 78.5t86.5 25.5q30 0 53.5 -11.5t39 -28.5t30 -34t34 -28.5t44.5 -11.5q32 0 58 18.5t55 54.5l41 -53q-45 -54 -84 -80t-86 -26q-31 0 -55 12 t-39.5 29t-30 34t-33.5 29t-43 12q-33 0 -59 -18.5t-56 -54.5z" />
<glyph unicode="&#xf6;" horiz-adv-x="907" d="M61 281q0 101 16.5 198.5t56 192.5t98 166t150 115t204.5 44q145 0 223 -79t78 -220q0 -83 -11 -163t-34.5 -162t-65 -151.5t-97.5 -123.5t-136.5 -85t-177.5 -31q-147 0 -225.5 78.5t-78.5 220.5zM152 309q0 -248 235 -248q87 0 158 40t117 103t77 145.5t44.5 164 t13.5 160.5q0 113 -60 178.5t-176 65.5q-87 0 -158 -40t-116.5 -103t-77 -145t-44.5 -162.5t-13 -158.5zM383 1190q8 33 33.5 56.5t54.5 23.5q31 0 48 -24t9 -56q-7 -34 -34 -57t-58 -23q-29 0 -44.5 23t-8.5 57zM721 1190q8 32 34.5 56t55.5 24q30 0 46.5 -23.5t10.5 -56.5 q-8 -34 -33.5 -57t-56.5 -23t-47 23t-10 57z" />
<glyph unicode="&#xf7;" horiz-adv-x="1028" d="M188 522l17 78h753l-16 -78h-754zM428 227q6 32 32 55t56 23q29 0 45.5 -23t9.5 -55q-6 -33 -32.5 -56.5t-57.5 -23.5q-28 0 -44 23.5t-9 56.5zM569 895q6 32 32.5 56t55.5 24q31 0 47.5 -24t8.5 -56q-6 -32 -32 -55t-56 -23t-46.5 23t-9.5 55z" />
<glyph unicode="&#xf8;" horiz-adv-x="907" d="M61 281q0 101 16.5 198.5t56 192.5t98 166t150 115t204.5 44q119 0 196 -55l37 49h66l-66 -86q68 -77 68 -207q0 -83 -11 -163t-34.5 -162t-65 -151.5t-97.5 -123.5t-136.5 -85t-177.5 -31q-126 0 -199 55l-31 -43h-63l57 78q-68 77 -68 209zM152 309q0 -98 36 -157 l535 712q-64 54 -162 54q-87 0 -158 -40t-116.5 -103t-77 -145t-44.5 -162.5t-13 -158.5zM223 111q56 -50 164 -50q87 0 158 40t117 103t77 145.5t44.5 164t13.5 160.5q0 93 -39 149z" />
<glyph unicode="&#xf9;" horiz-adv-x="974" d="M107.5 282q4.5 49 15.5 101l131 600h86l-133 -625q-12 -53 -14.5 -100.5t6.5 -93.5t42 -73.5t89 -27.5q61 0 118 30.5t102.5 79.5t88.5 119.5t74.5 141t60.5 154t48 147.5t36 133l27 115h90l-215 -983h-86l110 502q-102 -264 -217 -390t-248 -126q-68 0 -114.5 27 t-67.5 67.5t-27.5 96.5t-2 105zM555 1397h111l94 -303h-80z" />
<glyph unicode="&#xfa;" horiz-adv-x="974" d="M107.5 282q4.5 49 15.5 101l131 600h86l-133 -625q-12 -53 -14.5 -100.5t6.5 -93.5t42 -73.5t89 -27.5q61 0 118 30.5t102.5 79.5t88.5 119.5t74.5 141t60.5 154t48 147.5t36 133l27 115h90l-215 -983h-86l110 502q-102 -264 -217 -390t-248 -126q-68 0 -114.5 27 t-67.5 67.5t-27.5 96.5t-2 105zM492 1094l221 303h112l-252 -303h-81z" />
<glyph unicode="&#xfb;" horiz-adv-x="974" d="M107.5 282q4.5 49 15.5 101l131 600h86l-133 -625q-12 -53 -14.5 -100.5t6.5 -93.5t42 -73.5t89 -27.5q61 0 118 30.5t102.5 79.5t88.5 119.5t74.5 141t60.5 154t48 147.5t36 133l27 115h90l-215 -983h-86l110 502q-102 -264 -217 -390t-248 -126q-68 0 -114.5 27 t-67.5 67.5t-27.5 96.5t-2 105zM408 1094l260 301h90l133 -301h-100l-95 243l-190 -243h-98z" />
<glyph unicode="&#xfc;" horiz-adv-x="974" d="M107.5 282q4.5 49 15.5 101l131 600h86l-133 -625q-12 -53 -14.5 -100.5t6.5 -93.5t42 -73.5t89 -27.5q61 0 118 30.5t102.5 79.5t88.5 119.5t74.5 141t60.5 154t48 147.5t36 133l27 115h90l-215 -983h-86l110 502q-102 -264 -217 -390t-248 -126q-68 0 -114.5 27 t-67.5 67.5t-27.5 96.5t-2 105zM408 1190q8 33 33.5 56.5t54.5 23.5q31 0 48 -24t9 -56q-6 -33 -32.5 -56.5t-57.5 -23.5q-30 0 -46 23.5t-9 56.5zM748 1190q6 32 32.5 56t57.5 24t47 -23.5t8 -56.5q-8 -34 -33.5 -57t-56.5 -23q-30 0 -46 23.5t-9 56.5z" />
<glyph unicode="&#xfd;" horiz-adv-x="890" d="M-82 -451l19 78q33 0 62.5 6t51 14t43 25.5t34 29.5t30.5 38t26.5 39.5t26.5 44.5l123 205l-152 954h94l121 -852l498 852h98l-731 -1235q-122 -202 -319 -199h-25zM449 1094l223 303h110l-252 -303h-81z" />
<glyph unicode="&#xfe;" horiz-adv-x="915" d="M-41 -446l399 1876h80l-123 -584q119 145 297 145q367 0 262 -502q-108 -499 -473 -499q-78 0 -143 31t-96 104l-121 -571h-82zM205 336q-25 -118 39 -189t174 -71q73 0 132 25t98 64t69.5 96t47 110t30.5 118q14 67 19.5 120t-0.5 111.5t-28 97t-70 64t-120 25.5 q-112 0 -206.5 -72.5t-119.5 -191.5z" />
<glyph unicode="&#xff;" horiz-adv-x="890" d="M-82 -451l19 78q33 0 62.5 6t51 14t43 25.5t34 29.5t30.5 38t26.5 39.5t26.5 44.5l123 205l-152 954h94l121 -852l498 852h98l-731 -1235q-122 -202 -319 -199h-25zM375 1190q6 33 32 56.5t56 23.5t46.5 -23.5t10.5 -56.5q-7 -34 -34 -57t-58 -23q-29 0 -44.5 23t-8.5 57 zM713 1190q8 32 34.5 56t55.5 24q31 0 47 -23.5t8 -56.5q-6 -33 -32.5 -56.5t-57.5 -23.5q-30 0 -46 23.5t-9 56.5z" />
<glyph unicode="&#x152;" horiz-adv-x="1898" d="M127 494.5q6 103.5 31 220.5q24 117 62 220.5t96 199t130 164t169.5 109t209.5 40.5q62 0 118.5 -16t108.5 -50.5t88 -98t46 -148.5l63 295h772l-20 -93h-686l-117 -549h594l-18 -90h-596l-129 -606h686l-19 -92h-772l64 303q-51 -91 -114 -156.5t-129 -100t-127 -49.5 t-124 -15q-112 0 -192 40.5t-123 109t-60.5 164t-11.5 199zM212.5 534q-8.5 -85 2 -171.5t43.5 -148.5t102.5 -101t171.5 -39q101 0 187 39t145 101t107 149t76 171.5t49 180.5q14 68 22 129.5t9 127t-8 120.5t-32 105t-59 84.5t-93 54.5t-130 20q-101 0 -187 -39 t-145 -100.5t-107 -148t-76 -172t-48 -181.5q-21 -96 -29.5 -181z" />
<glyph unicode="&#x153;" horiz-adv-x="1513" d="M61 281q0 68 7.5 136.5t25.5 140t45 134.5t68.5 119.5t93.5 97.5t122 64.5t152 23.5q110 0 186 -64.5t97 -197.5q67 129 167.5 194.5t215.5 65.5q65 0 124.5 -19.5t103.5 -67t44 -113.5q0 -70 -55 -126t-132.5 -88t-176.5 -54.5t-172.5 -31t-134.5 -10.5 q-19 -104 -19 -163q0 -116 53 -187.5t171 -71.5q77 0 134 30.5t119 90.5l56 -59q-78 -76 -148.5 -108.5t-165.5 -32.5q-110 0 -188.5 59t-101.5 186q-136 -247 -400 -247q-134 0 -212.5 79.5t-78.5 219.5zM150 309q0 -116 57.5 -179.5t173.5 -63.5q81 0 149.5 42.5 t113.5 108.5t76.5 148.5t45.5 161t14 147.5q0 111 -59 175t-172 64q-85 0 -154.5 -40t-114 -103t-75 -144.5t-43 -160.5t-12.5 -156zM860 545q41 2 88 7t116.5 15t130.5 29t116.5 44t88 64.5t32.5 86.5q0 44 -32.5 73.5t-73.5 40t-85 10.5q-73 0 -135.5 -29.5t-108.5 -83 t-79 -116.5t-58 -141z" />
<glyph unicode="&#x178;" horiz-adv-x="894" d="M205 1430h96l201 -850l563 850h96l-639 -957l-100 -473h-84l100 473zM483 1642q6 33 32 56.5t56 23.5q31 0 48 -24t10 -56q-7 -33 -34 -56t-58 -23q-30 0 -45.5 23t-8.5 56zM821 1642q8 32 34.5 56t55.5 24q31 0 47.5 -24t8.5 -56q-6 -33 -32 -56t-56 -23q-31 0 -48 23 t-10 56z" />
<glyph unicode="&#x2c6;" horiz-adv-x="948" d="M893 1094l258 301h92l131 -301h-98l-94 243l-193 -243h-96z" />
<glyph unicode="&#x2dc;" horiz-adv-x="942" d="M889 1190q44 53 83.5 78.5t86.5 25.5q37 0 65.5 -18t43.5 -39t39 -39t53 -18q57 0 112 73l41 -53q-43 -53 -82.5 -79.5t-87.5 -26.5q-31 0 -54.5 12t-39 29t-30 34t-34 29t-43.5 12q-23 0 -44.5 -11t-35.5 -24.5t-34 -37.5z" />
<glyph unicode="&#x2000;" horiz-adv-x="976" />
<glyph unicode="&#x2001;" horiz-adv-x="1952" />
<glyph unicode="&#x2002;" horiz-adv-x="976" />
<glyph unicode="&#x2003;" horiz-adv-x="1952" />
<glyph unicode="&#x2004;" horiz-adv-x="650" />
<glyph unicode="&#x2005;" horiz-adv-x="488" />
<glyph unicode="&#x2006;" horiz-adv-x="325" />
<glyph unicode="&#x2007;" horiz-adv-x="325" />
<glyph unicode="&#x2008;" horiz-adv-x="244" />
<glyph unicode="&#x2009;" horiz-adv-x="390" />
<glyph unicode="&#x200a;" horiz-adv-x="108" />
<glyph unicode="&#x2010;" horiz-adv-x="759" d="M123 518l16 82h494l-15 -82h-495z" />
<glyph unicode="&#x2011;" horiz-adv-x="759" d="M123 518l16 82h494l-15 -82h-495z" />
<glyph unicode="&#x2012;" horiz-adv-x="759" d="M123 518l16 82h494l-15 -82h-495z" />
<glyph unicode="&#x2013;" horiz-adv-x="1052" d="M123 518l16 82h760l-14 -82h-762z" />
<glyph unicode="&#x2014;" horiz-adv-x="1611" d="M123 518l16 82h1291l-17 -82h-1290z" />
<glyph unicode="&#x2018;" horiz-adv-x="440" d="M408 1182l32 94l162 213h19l-76 -305q-8 -31 -33.5 -53.5t-54.5 -22.5q-27 0 -42.5 22.5t-6.5 51.5z" />
<glyph unicode="&#x2019;" horiz-adv-x="440" d="M375 1126l76 304q7 32 31.5 53.5t52.5 21.5q29 0 45.5 -21.5t7.5 -51.5l-31 -93l-166 -215z" />
<glyph unicode="&#x201a;" horiz-adv-x="440" d="M109 -190l71 305q9 31 33.5 52t50.5 21q30 0 47 -21t8 -50l-30 -94l-162 -213h-18z" />
<glyph unicode="&#x201c;" horiz-adv-x="696" d="M377 1182l33 94l161 213h19l-76 -305q-8 -31 -33 -53.5t-53 -22.5t-44 22.5t-7 51.5zM670 1182l35 94l161 213h19l-78 -305q-8 -31 -32.5 -53.5t-53.5 -22.5q-27 0 -43.5 22.5t-7.5 51.5z" />
<glyph unicode="&#x201d;" horiz-adv-x="696" d="M360 1108l76 305q8 31 33 53.5t53 22.5t44 -22.5t7 -51.5l-30 -94l-164 -213h-19zM653 1108l78 305q8 31 32.5 53.5t53.5 22.5q27 0 43.5 -22.5t7.5 -51.5l-32 -94l-164 -213h-19z" />
<glyph unicode="&#x201e;" horiz-adv-x="696" d="M78 -223l76 305q8 31 33 53.5t53 22.5t44 -22.5t7 -51.5l-33 -94l-162 -213h-18zM371 -223l78 305q8 31 32.5 53.5t53.5 22.5q27 0 43.5 -22.5t7.5 -51.5l-35 -94l-162 -213h-18z" />
<glyph unicode="&#x2022;" horiz-adv-x="1036" d="M211 690q0 128 90.5 218.5t218.5 90.5t217.5 -90.5t89.5 -218.5t-89 -217.5t-218 -89.5q-128 0 -218.5 90t-90.5 217z" />
<glyph unicode="&#x2026;" horiz-adv-x="882" d="M45 68q6 34 33.5 59t58.5 25q33 0 51.5 -25t12.5 -59q-9 -37 -37 -60.5t-62 -23.5q-32 0 -49 24t-8 60zM324 68q6 34 34 59t60 25q31 0 49 -25t12 -59q-9 -36 -37 -60t-59 -24q-33 0 -50.5 24t-8.5 60zM602 68q6 34 34.5 59t59.5 25q32 0 50 -25t12 -59 q-9 -37 -36.5 -60.5t-59.5 -23.5t-50.5 24t-9.5 60z" />
<glyph unicode="&#x202f;" horiz-adv-x="390" />
<glyph unicode="&#x2039;" horiz-adv-x="645" d="M219 479l19 92l469 383l-25 -106l-395 -322l258 -323l-23 -107z" />
<glyph unicode="&#x203a;" horiz-adv-x="643" d="M123 96l20 107l396 323l-258 322l24 106l301 -383l-18 -92z" />
<glyph unicode="&#x205f;" horiz-adv-x="488" />
<glyph unicode="&#x20ac;" horiz-adv-x="1097" d="M61 500l31 73h113q14 83 45 215h-127l31 74h118q30 99 72.5 185t101 160.5t127.5 127.5t156 83t184 30q105 0 174 -33t123 -104l-67 -72q-47 61 -105.5 89t-144.5 28q-98 0 -184 -37.5t-152 -105.5t-115.5 -156t-83.5 -195h480l-31 -74h-473q-31 -135 -41 -215h481 l-29 -73h-458q-6 -198 79 -312t255 -114q87 0 157.5 28.5t143.5 90.5l36 -72q-86 -73 -168 -106t-188 -33q-206 0 -309.5 140t-91.5 378h-140z" />
<glyph unicode="&#x2122;" horiz-adv-x="974" d="M174 1382l10 48h297l-10 -48h-127l-80 -383h-43l80 383h-127zM449 999l90 431h45l57 -375l215 375h45l-90 -431h-43l70 326l-187 -326h-45l-47 326l-70 -326h-40z" />
<glyph unicode="&#x25fc;" horiz-adv-x="983" d="M0 0v983h983v-983h-983z" />
</font>
</defs>
</svg>
