<?xml version="1.0" standalone="no"?>
<!DOCTYPE svg PUBLIC "-//W3C//DTD SVG 1.1//EN" "http://www.w3.org/Graphics/SVG/1.1/DTD/svg11.dtd" >
<svg xmlns="http://www.w3.org/2000/svg" xmlns:xlink="http://www.w3.org/1999/xlink" version="1.1">
<metadata></metadata>
<defs>
<font id="aaux_nextblack_italic" horiz-adv-x="1054" >
<font-face units-per-em="2048" ascent="1638" descent="-410" />
<missing-glyph horiz-adv-x="581" />
<glyph unicode="&#xfb03;" horiz-adv-x="1970" d="M-266 -457l51 232q74 0 123 12t79 40.5t45.5 64t28.5 94.5l179 792h-93l50 234h94q64 222 201 320t397 98l-51 -232q-120 0 -179.5 -43.5t-89.5 -142.5h406q64 222 201 320t397 98l-51 -232q-120 0 -179.5 -43.5t-89.5 -142.5h684l-215 -1012h-272l166 778h-414 l-178 -796q-54 -243 -195 -341t-411 -98l51 232q74 0 123 12t79 40.5t45.5 64t28.5 94.5l179 792h-406l-178 -796q-54 -243 -195 -341t-411 -98zM1708 1296q0 73 61 132t136 59q57 0 92 -35.5t35 -91.5q0 -73 -60.5 -131t-134.5 -58q-57 0 -93 35.5t-36 89.5z" />
<glyph unicode="&#xfb04;" horiz-adv-x="1970" d="M-266 -457l51 232q74 0 123 12t79 40.5t45.5 64t28.5 94.5l179 792h-93l50 234h94q64 222 201 320t397 98l-51 -232q-120 0 -179.5 -43.5t-89.5 -142.5h406q64 222 201 320t397 98h438l-242 -1135q-7 -35 5.5 -49.5t50.5 -14.5l-49 -231q-171 0 -238 65t-33 226l193 907 h-176q-120 0 -179.5 -43.5t-89.5 -142.5h199l-51 -234h-199l-178 -796q-54 -243 -195 -341t-411 -98l51 232q74 0 123 12t79 40.5t45.5 64t28.5 94.5l179 792h-406l-178 -796q-54 -243 -195 -341t-411 -98z" />
<glyph horiz-adv-x="0" />
<glyph horiz-adv-x="682" />
<glyph unicode=" "  horiz-adv-x="581" />
<glyph unicode="&#x09;" horiz-adv-x="581" />
<glyph unicode="&#xa0;" horiz-adv-x="581" />
<glyph unicode="!" horiz-adv-x="673" d="M199 152q15 72 72.5 123t123.5 51t101 -51t20 -123q-14 -71 -70 -121.5t-122 -50.5t-102.5 50.5t-22.5 121.5zM303 428l78 414l125 588h252l-125 -588l-101 -414h-229z" />
<glyph unicode="&#x22;" horiz-adv-x="727" d="M205 1073l69 328q9 49 50 85t86 36q47 0 72 -35.5t16 -85.5l-70 -328h-223zM551 1073l70 328q9 50 49.5 85.5t87.5 35.5q46 0 71.5 -35.5t16.5 -85.5l-70 -328h-225z" />
<glyph unicode="#" horiz-adv-x="1484" d="M184 393l97 230h219l73 184h-219l97 229h219l164 394h219l-164 -394h172l162 394h219l-164 -394h221l-96 -229h-219l-76 -184h221l-96 -230h-219l-162 -393h-219l162 393h-174l-158 -393h-221l161 393h-219zM717 623h172l78 184h-172z" />
<glyph unicode="$" horiz-adv-x="985" d="M82 432l227 64q3 -66 28.5 -103t72.5 -57l65 301q-37 11 -67 22.5t-61.5 28t-53 36t-42 45.5t-28 57t-11 70t8.5 85q20 97 84 170.5t143 112.5t170 53l25 113h203l-23 -109q76 -15 137.5 -69t96.5 -130l-195 -147q-38 70 -90 104l-53 -248q300 -99 244 -360 q-31 -149 -144.5 -251t-257.5 -130l-18 -90h-203l18 90q-125 23 -196 112.5t-80 229.5zM451 981q-4 -19 1.5 -35t20 -27.5t25.5 -17.5t30 -14l39 188q-102 -27 -116 -94zM612 336q43 14 76 48.5t43 80.5q13 71 -67 108z" />
<glyph unicode="%" horiz-adv-x="1714" d="M310.5 888.5q-3.5 73.5 15.5 149.5q17 80 48.5 150.5t78.5 130t114 94.5t146 35t131.5 -35.5t72.5 -93.5t23 -131.5t-16 -149.5q-13 -63 -35 -120.5t-56 -111t-76 -92.5t-98 -62t-120 -23q-79 0 -132 35.5t-73 93t-23.5 131zM375 0l905 1430h248l-903 -1430h-250z M517.5 912.5q2.5 -31.5 19 -49t47.5 -17.5q98 0 135 192q42 193 -53 193q-96 0 -138 -193q-7 -38 -10 -66t-0.5 -59.5zM963.5 239.5q-3.5 73.5 15.5 149.5q17 80 48.5 150.5t78.5 131t114 95.5t146 35t131.5 -36t72.5 -94t23 -132t-16 -150q-13 -63 -35 -120.5t-56 -111 t-76 -92.5t-98 -62t-120 -23q-79 0 -132 35.5t-73 93t-23.5 131zM1170 287q0 -28 6 -45.5t21 -30t40 -12.5q100 0 137 190q41 193 -55 193t-137 -193q-6 -30 -9 -52t-3 -50z" />
<glyph unicode="&#x26;" horiz-adv-x="1460" d="M111 303q0 159 85.5 281t235.5 223q-28 50 -39 71.5t-22 59t-11 74.5q-1 122 56.5 221t162 156t236.5 57q137 0 222 -75t85 -200q0 -62 -21 -119t-53.5 -100.5t-81 -86t-94 -72t-102.5 -60.5q24 -41 52 -83t72.5 -102t57.5 -79q101 98 129 231h267q-56 -259 -238 -421 q10 -13 49 -64.5t55 -71.5l-210 -180q-63 89 -97 127q-95 -61 -189.5 -85.5t-209.5 -24.5q-170 0 -283.5 87t-113.5 236zM397 373q0 -65 54 -101t131 -36q93 0 184 51q-124 145 -217 309q-152 -105 -152 -223zM629 1051q0 -68 35 -121q95 53 130 84q53 50 54 100 q0 42 -25 66t-63 24q-59 0 -95 -46t-36 -107z" />
<glyph unicode="'" horiz-adv-x="378" d="M205 1073l69 328q9 49 50 85t86 36q47 0 72 -35.5t16 -85.5l-70 -328h-223z" />
<glyph unicode="(" horiz-adv-x="819" d="M229 457.5q-1 124.5 25 257.5q41 197 153 383.5t287 331.5h277q-402 -307 -488 -715q-23 -120 -21.5 -231.5t52 -236.5t152.5 -247h-275q-79 91 -120 212t-42 245.5z" />
<glyph unicode=")" horiz-adv-x="714" d="M0 0q223 179 334 352t151 363q86 411 -184 715h277q112 -145 146 -337t-9 -378q-43 -202 -155.5 -391t-285.5 -324h-274z" />
<glyph unicode="*" horiz-adv-x="1001" d="M184 1108l103 199l198 -86l47 252h191l-57 -252l235 86l17 -199l-238 -70l98 -200l-178 -121l-88 207l-174 -207l-129 121l184 200z" />
<glyph unicode="+" horiz-adv-x="1110" d="M172 436l51 250h301l70 328h229l-69 -328h303l-51 -250h-304l-69 -327h-230l70 327h-301z" />
<glyph unicode="," horiz-adv-x="579" d="M0 -340l104 496q15 73 74 124.5t125 51.5q68 0 105 -51.5t22 -124.5l-33 -154l-270 -342h-127z" />
<glyph unicode="-" horiz-adv-x="854" d="M123 442l45 215h559l-45 -215h-559z" />
<glyph unicode="." horiz-adv-x="501" d="M47 156q15 73 74 124.5t125 51.5q68 0 105 -51.5t22 -124.5t-74 -124.5t-127 -51.5q-66 0 -103 51.5t-22 124.5z" />
<glyph unicode="/" horiz-adv-x="925" d="M0 -158l670 1745h256l-670 -1745h-256z" />
<glyph unicode="0" horiz-adv-x="1150" d="M124.5 511.5q5.5 99.5 27.5 203.5q23 104 60 204t94.5 197.5t127.5 170.5t164 118t199 45t179.5 -44.5t113 -117t54.5 -169.5t10 -196t-28 -204q-15 -73 -38 -145t-56.5 -145t-73 -138t-91 -121.5t-109 -97.5t-128 -64.5t-145.5 -23.5q-105 0 -180 44.5t-114 117 t-55.5 169.5t-11 196.5zM397 531q-4 -55 2.5 -99.5t21 -84t46.5 -61.5t78 -22t87 22t71.5 61.5t55 84t43 99.5t30 97t20.5 87q12 54 19 106.5t7.5 117.5t-11 113.5t-45 81.5t-87.5 33q-55 0 -103.5 -33t-80.5 -80.5t-60 -113.5t-42.5 -118t-26.5 -107q-9 -45 -15 -87 t-10 -97z" />
<glyph unicode="1" horiz-adv-x="751" d="M205 1184l405 246h193l-303 -1430h-258l225 1063l-188 -100z" />
<glyph unicode="2" horiz-adv-x="1081" d="M72 0l37 182q21 100 70.5 190.5t112.5 158t134.5 127.5t140.5 108t126.5 90.5t97 84.5t47.5 81q13 67 -25.5 106t-101.5 39q-61 0 -120.5 -50t-105.5 -120l-194 146q104 152 217 228.5t260 76.5q186 0 282 -114t54 -312q-17 -78 -56 -145.5t-90.5 -118t-111.5 -96.5 t-121.5 -89t-116.5 -86t-102.5 -97.5t-73.5 -113.5h531l-58 -276h-833z" />
<glyph unicode="3" horiz-adv-x="1048" d="M72 317l266 111q3 -74 42.5 -120t108.5 -46q74 0 135 49t78 129q10 35 6 62.5t-11 47.5t-24.5 34t-35.5 22.5t-44 13t-50 6t-54 1.5l50 227q45 -1 81.5 4.5t74 22t63.5 51t37 86.5q13 64 -26.5 104.5t-100.5 40.5q-122 0 -199 -147l-211 114q181 314 479 314 q171 0 265 -120t55 -306q-17 -76 -63 -147t-109 -121q54 -47 77.5 -134t4.5 -176q-28 -133 -107 -237.5t-189.5 -161.5t-232.5 -57q-332 0 -366 333z" />
<glyph unicode="4" horiz-adv-x="1079" d="M61 305l52 238l686 887h282l-655 -857h268l78 363l240 -33l-70 -330h96l-57 -268h-96l-64 -305h-248l64 305h-576z" />
<glyph unicode="5" horiz-adv-x="1024" d="M82 369l266 86q11 -183 141 -183q90 0 153 69t85 167q20 94 -15 157.5t-124 63.5q-56 0 -96.5 -20t-90.5 -68h-225l168 789h752l-60 -277h-508l-45 -207q74 47 172 47q103 0 178.5 -36.5t115.5 -101t52 -153.5t-12 -194q-51 -234 -197 -374t-360 -140q-164 0 -250 98.5 t-100 276.5z" />
<glyph unicode="6" horiz-adv-x="1001" d="M73 359q1 79 17 165q58 274 207 508.5t377 397.5h321q-94 -71 -151 -117t-132.5 -115.5t-132.5 -143t-100 -155.5q67 47 160 47t163 -37t107 -101.5t49 -151t-12 -185.5q-47 -220 -189.5 -353.5t-344.5 -133.5q-82 0 -147 29t-105 79.5t-64 119t-23 147.5zM346 473 q-16 -80 18 -137t107 -57t133 58.5t78 139.5q18 85 -17.5 143t-111.5 58q-75 0 -132 -60.5t-75 -144.5z" />
<glyph unicode="7" horiz-adv-x="968" d="M205 0q67 316 217 620t369 539h-328l-25 -117h-223l82 388h840l-52 -242q-253 -279 -392 -555t-212 -633h-276z" />
<glyph unicode="8" horiz-adv-x="1042" d="M86 446q23 102 90.5 192.5t161.5 152.5q-46 38 -66.5 114t-5.5 148q36 172 176.5 284.5t300.5 112.5q78 0 144 -29t109 -81t60.5 -125t-1.5 -162q-15 -73 -67 -148.5t-116 -113.5q151 -144 109 -342q-44 -211 -198.5 -340t-350.5 -129q-194 0 -292 128t-54 338zM356 457 q-17 -77 25 -134t113 -57q78 0 140 55t79 138q19 82 -22 140t-116 58q-73 0 -137.5 -60t-81.5 -140zM520 1042q-13 -61 19 -104t88 -43t106 43.5t62 103.5q13 62 -18 103t-89 41q-57 0 -106 -41t-62 -103z" />
<glyph unicode="9" horiz-adv-x="1003" d="M123 0q77 58 119 91t109.5 91t111 104.5t92 109.5t82.5 128q-62 -41 -158 -41q-184 0 -272 132.5t-45 332.5q47 220 195 360t348 140q82 0 147 -29.5t105 -80.5t63.5 -120t22.5 -148t-17 -165q-58 -278 -197 -511t-362 -394h-344zM424 967q-19 -85 16.5 -143t112.5 -58 q74 0 131.5 61t75.5 144q18 80 -18 137t-109 57t-132 -58.5t-77 -139.5z" />
<glyph unicode=":" horiz-adv-x="503" d="M47 156q15 73 74 124.5t125 51.5q68 0 105 -51.5t22 -124.5t-74 -124.5t-127 -51.5q-66 0 -103 51.5t-22 124.5zM172 750q17 73 76 124.5t125 51.5q68 0 105 -51.5t20 -124.5q-15 -73 -74 -125t-127 -52q-66 0 -103 52t-22 125z" />
<glyph unicode=";" horiz-adv-x="563" d="M0 -342l104 496q15 72 74 124t125 52q67 0 104.5 -52t22.5 -124l-33 -154l-270 -342h-127zM231 750q15 73 74 124.5t125 51.5q68 0 105 -51.5t22 -124.5t-74 -125t-127 -52q-66 0 -103 52t-22 125z" />
<glyph unicode="&#x3c;" horiz-adv-x="1126" d="M254 715l678 715h321l-675 -715l372 -715h-321z" />
<glyph unicode="=" horiz-adv-x="1130" d="M123 233l51 244h813l-51 -244h-813zM207 631l51 241h813l-51 -241h-813z" />
<glyph unicode="&#x3e;" horiz-adv-x="1126" d="M102 0l678 715l-374 715h323l373 -715l-676 -715h-324z" />
<glyph unicode="?" horiz-adv-x="1120" d="M342 1012q24 114 77.5 200.5t123 136t144.5 73.5t153 24q175 0 264.5 -104t48.5 -295q-12 -60 -38.5 -110t-63 -86t-68.5 -59.5t-72 -46.5q-71 -40 -101 -69t-44 -78l-55 -199h-195q17 152 27 203q9 43 23 80t27.5 63t35.5 51t36 39.5t41.5 33t40 26t41.5 23.5q6 4 32 18 t35 21t25.5 21.5t25 31t12.5 37.5q15 69 -21 110t-111 41q-174 0 -213 -186h-231zM406 145q13 69 69 117.5t119 48.5t98 -48.5t21 -117.5q-15 -69 -70.5 -117t-118.5 -48t-98 48t-20 117z" />
<glyph unicode="@" horiz-adv-x="1439" d="M123 506q26 124 88.5 256t153.5 251.5t197.5 214.5t231.5 151.5t246 56.5q75 0 136 -23t102.5 -64t69.5 -97t39 -122.5t8.5 -140t-19.5 -149.5q-11 -54 -48 -147t-48 -132l-154 -569l-204 12l22 86q-151 -117 -285 -117q-62 0 -109.5 22.5t-76 61.5t-44.5 91.5t-14.5 112 t13.5 122.5q22 105 82.5 218.5t142.5 209.5t188 157.5t208 61.5q78 0 133 -37q-2 99 -46 162.5t-132 63.5q-90 0 -184 -46t-173 -121.5t-146.5 -169.5t-113.5 -194t-65 -190q-43 -204 32 -334l-141 -170q-158 187 -90 512zM629 303.5q-3 -43.5 15.5 -78.5t57.5 -35 q58 0 122 46t113.5 113.5t86 140.5t49.5 131q5 40 8 83t-16.5 77t-60.5 34q-76 0 -158 -77.5t-137 -175.5t-72 -177q-5 -38 -8 -81.5z" />
<glyph unicode="A" horiz-adv-x="1335" d="M-20 0l808 1430h234l205 -1430h-293l-43 358h-426l-195 -358h-290zM604 614h254l-45 383z" />
<glyph unicode="B" horiz-adv-x="1220" d="M72 0l303 1430h483q97 0 172 -23.5t128.5 -74t69.5 -130.5q6 -33 6 -72q0 -55 -13 -122q-15 -72 -53.5 -140t-94.5 -116q58 -51 76 -138q8 -39 8 -79q0 -49 -12 -99q-25 -116 -78.5 -201.5t-128.5 -136t-163 -74.5t-191 -24h-512zM399 276h242q47 0 79.5 5t66.5 20.5 t56.5 48.5t33.5 84q8 30 5.5 53t-7 40t-18 29t-27.5 19.5t-35 11.5t-40.5 5.5t-45.5 1.5h-242zM522 852h215q89 0 144 31.5t75 122.5q5 24 5.5 43.5t-4 33.5t-12 25.5t-19.5 18.5t-25 12t-30 7.5t-33.5 3.5t-36.5 1h-215z" />
<glyph unicode="C" horiz-adv-x="1173" d="M124 491q1 107 26 224q31 149 93.5 278.5t152.5 232.5t214 162.5t267 59.5q152 0 245 -58.5t164 -189.5l-233 -203q-49 81 -101 121.5t-137 40.5q-66 0 -123.5 -27t-100 -70t-76.5 -102t-55.5 -119.5t-35.5 -125.5q-18 -82 -19 -157v-8q0 -72 17 -134q18 -66 70 -106 t133 -40q88 0 162 45t159 134l148 -201q-75 -76 -129 -121t-116.5 -80.5t-129.5 -50t-152 -14.5q-114 0 -201 39.5t-139 107.5q-52 67 -78 161q-25 90 -25 193v8z" />
<glyph unicode="D" horiz-adv-x="1259" d="M72 0l303 1430h370q130 0 221 -15t155 -51t98 -88q35 -53 45 -136q5 -42 5 -88q1 -46 -5 -96q-10 -101 -40.5 -241t-63 -241t-78 -184t-102 -135.5t-135.5 -88.5t-176 -51t-227 -15h-370zM401 289h162q112 0 177.5 21t105.5 75q29 38 51 106t53 222q43 193 43 285 q0 33 -6 53q-20 51 -75.5 70.5t-166.5 19.5h-161z" />
<glyph unicode="E" horiz-adv-x="1155" d="M72 0l303 1430h903l-61 -289h-633l-58 -269h551l-59 -276h-551l-66 -307h633l-59 -289h-903z" />
<glyph unicode="F" horiz-adv-x="1116" d="M72 0l303 1430h885l-62 -289h-616l-58 -269h549l-59 -276h-549l-125 -596h-268z" />
<glyph unicode="G" horiz-adv-x="1214" d="M124 494q3 105 28 221q25 118 66.5 223t103.5 199t139 162t178.5 107.5t216.5 39.5q153 0 242 -65t155 -207l-227 -187q-42 87 -92.5 128.5t-138.5 41.5q-277 0 -373 -442q-23 -110 -23 -193q0 -250 209 -250q106 0 174.5 80t94.5 199h-234l53 250h498l-170 -801h-225 l22 104q-112 -120 -282 -120q-113 0 -196.5 40t-131 109t-69.5 163q-19 81 -19 170q0 14 1 28z" />
<glyph unicode="H" horiz-adv-x="1310" d="M72 0l303 1430h270l-119 -558h469l119 558h268l-303 -1430h-268l125 596h-469l-125 -596h-270z" />
<glyph unicode="I" horiz-adv-x="522" d="M72 0l303 1430h270l-303 -1430h-270z" />
<glyph unicode="J" horiz-adv-x="1077" d="M41 395l274 76q3 -201 150 -201q96 0 149.5 49t75.5 150l203 961h268l-205 -969q-49 -232 -191 -353.5t-357 -121.5q-194 0 -279.5 104t-87.5 305z" />
<glyph unicode="K" horiz-adv-x="1343" d="M72 0l303 1430h293l-303 -1430h-293zM530 752l570 678h346l-617 -730l158 -305q76 -145 285 -145l-53 -250q-375 0 -478 244z" />
<glyph unicode="L" horiz-adv-x="1056" d="M72 0l303 1430h268l-244 -1147h557l-59 -283h-825z" />
<glyph unicode="M" horiz-adv-x="1515" d="M72 0l303 1430h256l145 -955l559 955h252l-303 -1430h-270l141 672l-393 -672h-168l-111 672l-141 -672h-270z" />
<glyph unicode="N" horiz-adv-x="1269" d="M72 0l303 1430h219l303 -816l174 816h270l-303 -1430h-217l-307 815l-172 -815h-270z" />
<glyph unicode="O" horiz-adv-x="1275" d="M124 492q3 105 28 223t66.5 223t103.5 199t139 162t179 107.5t218 39.5q97 0 172.5 -27.5t124 -77.5t79 -117.5t40.5 -149.5q6 -52 7 -106q0 -32 -3 -66q-6 -90 -27 -187q-25 -118 -65.5 -223t-102 -199t-138.5 -162t-178.5 -107.5t-217.5 -39.5t-201 39.5t-133.5 107.5 t-70.5 162q-20 83 -20 174v25zM399 504q0 -50 11 -88q12 -40 34.5 -74t64 -52t99.5 -18q281 0 373 443q25 113 25 197q0 245 -209 245q-69 0 -126 -27t-96 -68.5t-70 -102.5t-49.5 -118t-33.5 -126q-12 -57 -18 -105q-6 -54 -5 -106z" />
<glyph unicode="P" horiz-adv-x="1198" d="M72 0l303 1430h514q205 0 303 -108q67 -74 67 -202q0 -58 -14 -127q-49 -228 -184 -332t-348 -104h-254l-117 -557h-270zM518 834h236q43 0 75 6t63 22t52.5 48.5t32.5 82.5q6 27 6 50q-1 51 -31 74q-44 34 -131 34h-235z" />
<glyph unicode="Q" horiz-adv-x="1366" d="M123 477q0 116 19.5 229t59 222.5t104 202.5t148 164t199 111t250.5 40q112 0 202 -38t148 -105.5t88.5 -157.5t30.5 -195q0 -161 -34 -311t-114.5 -291t-199.5 -229q49 -69 93.5 -94t129.5 -25l-53 -248q-132 12 -222 69.5t-179 186.5q-101 -24 -201 -24 q-117 0 -207.5 37.5t-147 104.5t-85.5 156t-29 195zM420 526q0 -254 233 -254q17 0 27 2q-43 79 -70 158h221l41 -78q100 87 151.5 242.5t51.5 306.5q0 254 -233 254q-88 0 -161 -41.5t-120.5 -107.5t-80 -150.5t-46.5 -168t-14 -163.5z" />
<glyph unicode="R" horiz-adv-x="1286" d="M72 0l303 1430h524q68 0 126.5 -9t113.5 -31.5t93.5 -58t61.5 -91.5t23 -128q0 -182 -111 -322t-295 -178q42 -34 76 -114l55 -129q51 -119 201 -119l-53 -250q-305 0 -404 225l-114 271q-8 19 -13 29.5t-15.5 26.5t-25 24t-32.5 8h-97l-124 -584h-293zM539 838h237 q110 0 176 49q65 48 64 152q0 65 -46 88.5t-128 23.5h-236z" />
<glyph unicode="S" horiz-adv-x="1165" d="M72 414l264 55q11 -211 231 -211q85 0 165 47t99 133q3 14 3 26q0 30 -17 52q-24 32 -70.5 51t-106.5 37t-123.5 35t-121 47.5t-99.5 73.5q-40 42 -56 111q-7 30 -7 65q0 45 11 98q28 132 116.5 228t198.5 140t227 44q180 0 279.5 -78t142.5 -250l-256 -117 q-29 92 -79 132.5t-146 40.5q-67 0 -132 -35.5t-81 -104.5q-2 -9 -2 -18q0 -26 18 -48q24 -28 71 -45t107 -35.5t123 -37.5t120 -51.5t97 -77.5t56 -116q7 -31 7 -67q0 -46 -11 -100q-29 -141 -124 -248t-216.5 -158.5t-249.5 -51.5q-211 0 -323 109t-115 325z" />
<glyph unicode="T" horiz-adv-x="1069" d="M205 1141l61 289h1008l-62 -289h-368l-242 -1141h-270l241 1141h-368z" />
<glyph unicode="U" horiz-adv-x="1261" d="M146 340q-1 21 -2 44q0 94 26 206l180 840h271l-177 -824q-13 -60 -18 -106q-2 -22 -2 -44q0 -24 2 -48q6 -46 25 -75t57.5 -47t97.5 -18q61 0 108.5 17.5t78 45.5t55 74.5t38 91.5t27.5 109l177 824h268l-180 -840q-61 -288 -216.5 -447t-412.5 -159q-133 0 -222.5 43 t-131 122t-49.5 191z" />
<glyph unicode="V" horiz-adv-x="1089" d="M154 1430h284l78 -984l496 984h282l-747 -1430h-254z" />
<glyph unicode="W" horiz-adv-x="1613" d="M205 1430h274l-12 -949l436 949h215l31 -949l393 949h277l-611 -1430h-297l-20 862l-387 -862h-295z" />
<glyph unicode="X" horiz-adv-x="1218" d="M-61 0l604 735l-279 695h322l162 -449l354 449h321l-571 -695l293 -735h-324l-178 487l-385 -487h-319z" />
<glyph unicode="Y" horiz-adv-x="1081" d="M205 1430h301l139 -627l402 627h301l-641 -959l-99 -471h-270l100 475z" />
<glyph unicode="Z" horiz-adv-x="1212" d="M10 182l887 959h-590l68 289h1001l-53 -234l-850 -922q22 0 76 -4q154 -14 194 -14q58 0 108 10.5t150 44.5l111 -258q-220 -78 -391 -78q-61 0 -179 17.5t-177 17.5q-144 0 -279 -57z" />
<glyph unicode="[" horiz-adv-x="823" d="M164 -158l371 1745h391l-39 -180h-168l-295 -1384h168l-37 -181h-391z" />
<glyph unicode="\" horiz-adv-x="925" d="M0 1587h256l670 -1745h-256z" />
<glyph unicode="]" horiz-adv-x="589" d="M0 -158l37 181h170l295 1384h-170l39 180h391l-371 -1745h-391z" />
<glyph unicode="^" horiz-adv-x="1159" d="M104 844l496 602h178l242 -602l-219 -111l-170 428l-352 -428z" />
<glyph unicode="_" horiz-adv-x="1062" d="M41 -227l47 227h903l-47 -227h-903z" />
<glyph unicode="`" horiz-adv-x="645" d="M621 1434h258l90 -334h-172z" />
<glyph unicode="a" d="M82 346q1 123 51 245.5t133 217.5t200 154t243 59q81 0 158 -23t188 -77l-189 -803l11 -117l-236 -37l-6 127l35 174q-36 -62 -67 -107t-70.5 -88t-83.5 -65t-91 -22q-72 0 -127 31t-86.5 84t-47 115t-15.5 132zM338 303q0 -42 18.5 -75t53.5 -33q50 0 99.5 43.5t87 108 t73 152.5t58 162.5t42.5 153.5q-16 2 -27 2q-88 0 -167 -55t-129 -135.5t-79.5 -167.5t-29.5 -156z" />
<glyph unicode="b" horiz-adv-x="1026" d="M41 88l301 1342h276l-145 -652q51 118 123.5 185t146.5 67q68 0 121 -31.5t84 -84t46.5 -115t15.5 -131.5q-1 -123 -51 -246.5t-132.5 -220t-199.5 -157t-242 -60.5q-82 0 -157.5 24t-186.5 80zM319 176q28 -4 48 -4q73 0 138 38t110.5 98t79 133.5t49.5 145t16 132.5 q0 43 -17.5 70.5t-42.5 27.5q-54 0 -108 -49t-99.5 -132t-83 -177.5t-67.5 -200.5q-19 -64 -23 -82z" />
<glyph unicode="c" horiz-adv-x="980" d="M61 365q0 131 35 247t104.5 210.5t186.5 150t268 55.5q111 0 193 -53t153 -174l-223 -131q-74 116 -168 116q-66 0 -118 -35.5t-82.5 -93t-46 -121t-15.5 -126.5q0 -83 34 -134t110 -51q85 0 231 146l170 -185q-92 -87 -170 -133t-137 -58.5t-140 -12.5 q-176 0 -280.5 106.5t-104.5 276.5z" />
<glyph unicode="d" d="M61 352q0 116 49 237.5t130.5 218.5t195.5 158q113 60 232 60h4q50 0 102 -12l96 416h277l-297 -1309l10 -119l-239 -37l-7 127l35 174q-81 -141 -154.5 -210.5t-154.5 -69.5q-75 0 -131 31.5t-87.5 85.5t-46 116t-14.5 133zM317 319q0 -122 74 -122q44 0 87 33t78.5 90 t66.5 122t56 140t41.5 132.5t29.5 110.5h-25q-83 0 -161.5 -54.5t-130.5 -133.5t-84 -165t-32 -153z" />
<glyph unicode="e" horiz-adv-x="964" d="M63 367q1 121 41.5 239t111 212t177 152t228.5 58q62 0 121.5 -15.5t110 -45t81.5 -80t31 -113.5q0 -74 -48 -134t-117.5 -95.5t-160.5 -61.5t-162 -36.5t-137 -14.5q-8 -50 -8 -70q0 -65 30 -101t89 -36h3q107 0 253 146l170 -185q-91 -87 -170 -132.5t-137 -57.5 t-140 -12q-98 0 -170.5 29.5t-115 82.5t-62.5 121q-19 65 -19 142v8zM379 596q43 5 93.5 17.5t105.5 32t91 50.5t36 66q0 19 -25.5 30t-61.5 11q-61 0 -131.5 -54t-107.5 -153z" />
<glyph unicode="f" horiz-adv-x="684" d="M-266 -457l51 232q74 0 123 12t79 40.5t45.5 64t28.5 94.5l179 792h-93l50 234h94q64 222 201 320t397 98l-51 -232q-120 0 -179.5 -43.5t-89.5 -142.5h199l-51 -234h-199l-178 -796q-54 -243 -195 -341t-411 -98z" />
<glyph unicode="g" horiz-adv-x="1071" d="M16 -346l121 223q117 -61 219 -61q82 0 127.5 40.5t69.5 114.5q4 5 55.5 136.5t59.5 158.5q-152 -282 -310 -282q-72 0 -127.5 30.5t-87.5 82.5t-47.5 113.5t-15.5 129.5q0 167 82.5 324t228.5 257.5t314 100.5q82 0 158.5 -22.5t187.5 -77.5q-74 -318 -116.5 -504 t-53 -235t-21.5 -100t-24 -108q-43 -195 -163 -306t-317 -111q-83 0 -157.5 22.5t-182.5 73.5zM338 303q0 -43 17.5 -75.5t52.5 -32.5q51 0 100.5 44t87.5 109t73.5 154.5t58 164.5t42.5 154q-16 2 -25 2q-89 0 -168.5 -56t-129.5 -138t-79.5 -169.5t-29.5 -156.5z" />
<glyph unicode="h" horiz-adv-x="1130" d="M61 0l322 1430h279l-146 -664q75 129 162.5 193.5t150.5 64.5q101 0 162.5 -62t72.5 -162q3 -30 3 -63q0 -76 -18 -166l-131 -571h-279l158 688q3 15 5.5 33.5t2.5 43.5t-8.5 41.5t-26.5 16.5q-48 0 -93 -27t-80 -69.5t-67 -102t-54.5 -116t-42.5 -121t-30.5 -108 t-19.5 -84.5l-43 -195h-279z" />
<glyph unicode="i" horiz-adv-x="602" d="M82 0l215 1012h272l-215 -1012h-272zM340 1296q0 73 61 132t136 59q57 0 92 -35.5t35 -91.5q0 -73 -60.5 -131t-134.5 -58q-57 0 -93 35.5t-36 89.5z" />
<glyph unicode="j" horiz-adv-x="593" d="M-254 -430l51 231q74 0 122 12t78 40.5t45 63.5t28 93l219 1002h274l-221 -1006q-52 -240 -190 -338t-406 -98zM332 1296q0 73 60.5 132t135.5 59q57 0 92 -35.5t35 -91.5q0 -73 -60 -131t-134 -58q-56 0 -91.5 35t-37.5 90z" />
<glyph unicode="k" horiz-adv-x="1073" d="M61 0l304 1430h268l-303 -1430h-269zM459 555l350 457h305l-383 -459l78 -234q18 -45 66 -66.5t149 -21.5l-49 -231q-133 0 -220.5 36.5t-131.5 123.5z" />
<glyph unicode="l" horiz-adv-x="571" d="M106 291l242 1139h264l-241 -1135q-8 -35 4.5 -49.5t50.5 -14.5l-49 -231q-171 0 -238 65q-44 43 -44 128q0 44 11 98z" />
<glyph unicode="m" horiz-adv-x="1683" d="M61 0l228 1012h278l-51 -234q53 106 143.5 176t186.5 70q90 0 143 -68.5t55 -175.5q24 42 53 79.5t69.5 78t91.5 64.5t104 24q74 0 127.5 -26.5t82.5 -70.5q29 -43 41 -103q9 -46 10 -95q1 -15 -1 -29q-4 -64 -20 -131l-132 -571h-278l156 676q4 19 5.5 39.5t0.5 46 t-13 41.5t-34 16q-213 0 -347 -579q-2 -8 -3 -12.5t-2.5 -10.5l-2.5 -10l-47 -207h-278l166 692q7 20 7 46q0 14 -2 32q-6 46 -38 47q-71 0 -136.5 -66.5t-112.5 -172t-77.5 -199t-50.5 -184.5l-43 -195h-279z" />
<glyph unicode="n" horiz-adv-x="1148" d="M61 0l228 1012h278l-51 -232q63 109 150 177.5t168 68.5t135 -27t80 -69q25 -43 33 -105q4 -33 4 -66q0 -28 -2 -56q-6 -60 -23 -132l-131 -571h-279l154 674q8 29 8 60q-1 18 -3 36q-8 50 -38 49q-235 0 -387 -622l-45 -197h-279z" />
<glyph unicode="o" horiz-adv-x="1040" d="M61 332q0 106 22 206t69.5 190t115 156.5t166.5 106t217 39.5q189 0 279 -94q88 -92 88 -255v-7q0 -135 -35 -256t-104 -220.5t-185.5 -158.5t-265.5 -59q-188 0 -277.5 93t-89.5 259zM348 395q0 -172 131 -172q65 0 116 40.5t79 102.5q29 64 43 130q12 58 12 112v15 q0 69 -30.5 116t-100.5 47q-52 0 -95 -26.5t-70.5 -67.5t-47 -94.5t-28 -104t-9.5 -98.5z" />
<glyph unicode="p" horiz-adv-x="1067" d="M-41 -451l332 1463h250l-54 -236q58 105 146.5 175.5t152.5 70.5h5q67 0 117 -26q53 -27 83.5 -74.5t45 -104.5t14.5 -123q0 -90 -30.5 -190t-86.5 -192.5t-127.5 -167t-162 -119.5t-181.5 -45q-57 0 -123 20l-104 -451h-277zM369 188q20 -4 32 -4q70 0 144 53.5 t127.5 131t88 166.5t34.5 159q0 123 -68 123q-109 0 -207 -178.5t-151 -450.5z" />
<glyph unicode="q" d="M82 334q0 124 48.5 247.5t130.5 221t200.5 158.5t247.5 61q81 0 158 -23t188 -77l-289 -1373h-281l97 451l86 264q-159 -282 -297 -282q-73 0 -130 30t-91 80.5t-51 112t-17 129.5zM340 303q0 -43 17.5 -75.5t52.5 -32.5q50 0 100 44.5t88 110.5t74 155.5t59.5 165.5 t42.5 154q-16 2 -24 2q-72 0 -138.5 -37.5t-114.5 -96t-84.5 -129t-54.5 -139t-18 -122.5z" />
<glyph unicode="r" horiz-adv-x="845" d="M41 0l240 1012h245l-67 -254q64 108 153.5 188t186.5 80q62 0 129 -37l-49 -217q-22 22 -54.5 33.5t-58.5 11.5q-45 0 -86 -17t-74.5 -50t-61.5 -70t-52 -88.5t-41.5 -92.5t-33.5 -95.5t-24 -84.5t-18 -71l-60 -248h-274z" />
<glyph unicode="s" horiz-adv-x="933" d="M41 276l238 46q11 -53 57 -77t108 -24q51 0 102.5 22.5t51.5 67.5q0 27 -24.5 48t-64 36.5t-87 30.5t-95 35.5t-87 47t-64 69.5t-24.5 98q0 152 130 255t314 103q232 0 328 -182l-224 -102q-37 65 -141 65h-12q-40 0 -79.5 -18t-39.5 -52q0 -21 19.5 -37.5t51.5 -26.5 t73 -22.5t83.5 -25t83.5 -33.5t73 -47.5t51.5 -69t19.5 -96.5q0 -90 -42 -168t-110 -130.5t-154.5 -82t-175.5 -29.5q-55 0 -100.5 7.5t-90.5 28t-78 53.5t-57 86t-34 124z" />
<glyph unicode="t" horiz-adv-x="634" d="M104 782l50 230h112l58 270h270l-57 -270h127l-48 -230h-129l-100 -471q-2 -11 -2 -21q-1 -26 15 -40q22 -20 87 -19l-47 -231h-137q-122 0 -170 81q-30 51 -30 120q0 40 10 86l104 495h-113z" />
<glyph unicode="u" horiz-adv-x="1095" d="M107 322q4 58 18 118l127 572h278l-151 -664q-11 -50 -11 -83q0 -68 46 -68t88 26.5t73.5 64t62 99t49.5 110.5t40 120.5t29.5 107.5t21.5 92l43 195h275l-228 -1012h-274l72 266q-139 -278 -306 -278q-76 0 -129.5 30t-80.5 76q-26 46 -36 108q-8 45 -8 88q0 16 1 32z " />
<glyph unicode="v" horiz-adv-x="1042" d="M143 1012h299l56 -656l346 656h301l-604 -1012h-226z" />
<glyph unicode="w" horiz-adv-x="1560" d="M143 1012h299l25 -633l332 633h202l60 -633l303 633h299l-553 -1012h-231l-74 567l-311 -567h-234z" />
<glyph unicode="x" horiz-adv-x="1081" d="M-61 0l489 518l-256 494h338l111 -262l223 262h340l-463 -494l264 -518h-340l-121 293l-245 -293h-340z" />
<glyph unicode="y" horiz-adv-x="1038" d="M-82 -457l49 232q11 0 39.5 -0.5t38 0t31.5 2.5t32.5 7t26.5 13.5t27.5 22.5t23.5 33l86 147l-143 1012h297l43 -713l373 713h299l-721 -1235q-69 -118 -165 -176t-230 -58h-107z" />
<glyph unicode="z" horiz-adv-x="1050" d="M10 164l606 600h-407l59 248h803l-47 -193l-588 -571q13 -2 48.5 -8.5t61 -9.5t50.5 -3q85 0 211 52l129 -220q-105 -50 -179.5 -64.5t-160.5 -14.5q-50 0 -148 16t-147 16q-131 0 -184 -37z" />
<glyph unicode="{" horiz-adv-x="792" d="M264 604l47 221q34 0 52 3t42.5 16.5t41 42t34.5 80t35 129.5q20 97 42.5 166t60.5 134t89 104.5t128 63t178 23.5l-47 -221q-42 0 -72 -10t-61.5 -39t-56.5 -87.5t-44 -148.5q-30 -145 -82.5 -228.5t-140.5 -137.5q66 -53 82 -135.5t-14 -231.5q-16 -73 -18.5 -125 t5 -82.5t26.5 -48.5t41.5 -23.5t55.5 -5.5l-45 -221q-85 0 -145.5 15t-96.5 47t-55 72t-21.5 99t5 118.5t24.5 140.5q16 78 19.5 129.5t-0.5 79.5t-22.5 42t-35.5 16.5t-51 2.5z" />
<glyph unicode="|" horiz-adv-x="659" d="M205 -158l370 1745h230l-371 -1745h-229z" />
<glyph unicode="}" horiz-adv-x="690" d="M0 -158l45 221q42 0 72 10t61.5 39t56.5 87.5t44 148.5q30 144 83 228.5t140 138.5q-65 54 -81 135.5t13 230.5q16 73 18.5 125t-5 82.5t-26.5 48.5t-41.5 23.5t-55.5 5.5l47 221q73 0 128 -12t92 -33t59 -55.5t32 -72.5t9.5 -91.5t-8 -105.5t-21.5 -121 q-17 -78 -21 -129.5t0 -80t22.5 -42t35.5 -16.5t51 -3l-48 -221q-34 0 -52 -2.5t-42.5 -16.5t-40 -42t-33.5 -79.5t-34 -129.5q-21 -98 -43 -166.5t-60.5 -134t-89.5 -105t-128 -63t-179 -23.5z" />
<glyph unicode="~" horiz-adv-x="1062" d="M115 592q74 90 145 132t164 42q38 0 67.5 -11t49.5 -27t39 -32.5t45 -27.5t59 -11q68 0 137 95l127 -134q-44 -47 -72 -73t-67.5 -55.5t-80.5 -42.5t-87 -13q-42 0 -77.5 18t-56 39.5t-55 39.5t-75.5 18q-63 0 -146 -96z" />
<glyph unicode="&#xa1;" horiz-adv-x="755" d="M197 -438l125 588l96 413h231l-76 -413l-124 -588h-252zM434 840q15 71 73 121.5t124 50.5t101 -50.5t20 -121.5q-15 -72 -72 -123t-123 -51t-102 51t-21 123z" />
<glyph unicode="&#xa2;" horiz-adv-x="899" d="M90 504q23 111 73 206t121.5 166t167.5 111t205 39l54 131l135 -31l-49 -131q49 -24 88.5 -65.5t85.5 -108.5l-226 -184q-22 40 -57 80l-184 -469q3 1 9 2t9 2q67 20 166 119l148 -185q-81 -71 -135.5 -110.5t-126.5 -66.5t-152 -27h-23l-53 -136l-139 31l53 135 q-120 55 -163.5 187t-6.5 305zM350 504q-33 -155 17 -215l186 471q-156 -23 -203 -256z" />
<glyph unicode="&#xa3;" horiz-adv-x="1124" d="M72 0l41 199q87 80 137 147.5t67 147.5q7 39 13 81h-176l108 263h72q-9 87 8 170q40 192 179.5 317t322.5 125q55 0 98 -10t70.5 -23.5t55 -44t43 -53.5t43.5 -69q4 -7 6.5 -11t6.5 -10.5t7 -11.5l-228 -173q-5 9 -18 34t-19 35t-20 28.5t-26.5 26t-32 14t-42.5 6.5 q-74 0 -124 -55t-68 -140q-5 -24 -8 -47.5t-5 -61t-3 -46.5h254l-109 -263h-154q-3 -62 -14 -114q-23 -114 -92 -197h545l-56 -264h-882z" />
<glyph unicode="&#xa4;" horiz-adv-x="1267" d="M61 461l82 198h90q4 29 23 111h-129l82 199h117q99 224 266.5 351.5t378.5 127.5q152 0 245 -58.5t164 -189.5l-231 -203q-49 81 -102 121.5t-138 40.5q-89 0 -164.5 -49.5t-130.5 -140.5h344l-84 -199h-342q-19 -63 -22 -111h383l-84 -198h-303q37 -191 213 -191 q89 0 164 46t157 133l146 -201q-75 -75 -128 -120t-115.5 -81t-129 -50.5t-151.5 -14.5q-210 0 -324.5 128t-120.5 351h-156z" />
<glyph unicode="&#xa5;" horiz-adv-x="1120" d="M205 356l88 209h207l-13 47h-227l88 207h90l-151 611h248l159 -685l449 685h243l-407 -611h131l-90 -207h-180l-31 -47h246l-90 -209h-246l-74 -356h-221l74 356h-293z" />
<glyph unicode="&#xa6;" horiz-adv-x="768" d="M289 -147l172 811h186l-172 -811h-186zM483 768l172 813h187l-172 -813h-187z" />
<glyph unicode="&#xa7;" horiz-adv-x="1261" d="M231 -74l236 117q18 -93 63 -136.5t136 -43.5q65 0 125.5 36.5t74.5 102.5q5 24 -3 44.5t-21.5 34t-42.5 28t-51.5 22.5t-63.5 21q-145 44 -203 76q-163 88 -159 264q1 44 12 94q27 128 158 245q-52 88 -21 232q25 121 105 213t183.5 137t213.5 45q166 0 258 -76 t123 -241l-236 -119q-20 93 -65 136.5t-135 43.5q-65 0 -125 -36t-74 -103q-6 -30 3.5 -52.5t38 -40t57 -29t75.5 -26.5q144 -44 201 -73q161 -83 167 -247q1 -52 -12 -114q-28 -133 -153 -248q47 -88 20 -231q-26 -121 -106.5 -213t-184 -137t-213.5 -45 q-167 0 -258.5 76.5t-122.5 242.5zM584 586q-7 -31 4.5 -57.5t33 -45t57 -36t66.5 -28t72 -22.5q60 -16 115 -35q56 56 67 119q7 30 -4.5 56.5t-32.5 45t-56 35.5t-65 27.5t-71 22.5q-81 21 -117 34q-53 -47 -69 -116z" />
<glyph unicode="&#xa8;" horiz-adv-x="892" d="M584 1253q12 63 62.5 107.5t107.5 44.5t87.5 -44.5t18.5 -107.5q-13 -63 -63 -107t-107 -44t-88 44t-18 107zM975 1253q12 63 62 107.5t108 44.5q57 0 87.5 -44.5t18.5 -107.5q-13 -63 -63 -107t-107 -44q-58 0 -89 44t-17 107z" />
<glyph unicode="&#xa9;" horiz-adv-x="1654" d="M256 715q41 197 166 364t299 264t356 97q91 0 172 -26t143.5 -73t110.5 -113t72.5 -146.5t30 -173.5t-16.5 -193q-32 -147 -113 -281t-190 -231.5t-244.5 -155t-271.5 -57.5q-181 0 -314.5 97.5t-187.5 264.5t-12 363zM444 715q-30 -141 9 -261t134.5 -189.5t225.5 -69.5 q198 0 370 152.5t218 367.5q30 142 -8.5 262t-133.5 189t-225 69t-255 -69t-215 -189t-120 -262zM595.5 592q0.5 59 14.5 123q17 82 51.5 153.5t84 128t118 89t146.5 32.5q84 0 133.5 -32t89.5 -105l-127 -111q-29 45 -56.5 66.5t-74.5 21.5q-59 0 -105 -38.5t-70.5 -90.5 t-37.5 -114q-10 -46 -11 -86.5t8.5 -77.5t37.5 -58.5t73 -21.5q50 0 90.5 24t88.5 74l79 -110q-81 -83 -140 -115.5t-148 -32.5q-63 0 -110.5 22t-76.5 59.5t-43.5 89t-14 110.5z" />
<glyph unicode="&#xaa;" horiz-adv-x="894" d="M207 872q24 114 104.5 181.5t218.5 74.5q33 2 105 2l35 -2l10 46q7 35 -12.5 55t-55.5 20q-93 0 -143 -78l-164 58q120 219 348 219q50 0 95 -18t77.5 -50.5t46.5 -81.5t2 -106l-88 -412l11 -114l-191 -58l-4 41q-84 -41 -176 -41q-116 0 -181 70t-38 194zM256 379 l35 168h338l-35 -168h-338zM391 887q-7 -37 20 -57.5t62 -20.5q69 0 139 51l25 115q-24 -4 -45 -4q-55 0 -84 -4q-101 -11 -117 -80z" />
<glyph unicode="&#xab;" horiz-adv-x="1136" d="M219 438l29 140l540 454l-63 -291l-285 -233l187 -234l-62 -292zM598 438l29 140l538 454l-63 -291l-285 -233l187 -234l-62 -292z" />
<glyph unicode="&#xac;" horiz-adv-x="1136" d="M162 422l45 211h852l-101 -479h-194l55 268h-657z" />
<glyph unicode="&#xad;" horiz-adv-x="854" d="M123 442l45 215h559l-45 -215h-559z" />
<glyph unicode="&#xae;" horiz-adv-x="1654" d="M256 715q41 197 166 364t299 264t356 97q91 0 172 -26t143.5 -73t110.5 -113t72.5 -146.5t30 -173.5t-16.5 -193q-32 -147 -113 -281t-190 -231.5t-244.5 -155t-271.5 -57.5q-181 0 -314.5 97.5t-187.5 264.5t-12 363zM444 715q-30 -141 9 -261t134.5 -189.5t225.5 -69.5 q198 0 370 152.5t218 367.5q30 142 -8.5 262t-133.5 189t-225 69t-255 -69t-215 -189t-120 -262zM586 330l164 770h260q109 0 164 -59t30 -175q-15 -73 -59.5 -128t-112.5 -81l119 -327h-178l-78 258q-8 31 -20 41t-44 10h-36l-66 -309h-143zM821 778h119q102 0 119 86 q10 48 -13 66t-69 18h-119z" />
<glyph unicode="&#xaf;" horiz-adv-x="1032" d="M653 1169l39 183h633l-39 -183h-633z" />
<glyph unicode="&#xb0;" horiz-adv-x="768" d="M201 1354q20 95 97 163t165 68q89 0 136.5 -67.5t27.5 -163.5q-22 -97 -97.5 -164.5t-164.5 -67.5q-88 0 -137 68t-27 164zM340 1354q-7 -34 9.5 -58t45.5 -24q31 0 59 24t35 58q6 32 -11 56t-48 24q-29 0 -56.5 -24t-33.5 -56z" />
<glyph unicode="&#xb1;" horiz-adv-x="1136" d="M127 0l45 221h813l-45 -221h-813zM258 618l47 224h303l70 327h207l-70 -327h303l-47 -224h-303l-70 -325h-206l69 325h-303z" />
<glyph unicode="&#xb2;" horiz-adv-x="720" d="M80 532l22 117q19 86 71.5 161.5t114.5 126t122 93t104 81t51 71.5q9 42 -16 67t-64 25q-70 0 -143 -109l-123 92q65 97 137 146t166 49q118 0 179 -72.5t34 -197.5q-15 -67 -56.5 -123t-94 -95.5t-106 -76t-101.5 -82.5t-70 -96h338l-37 -177h-528z" />
<glyph unicode="&#xb3;" horiz-adv-x="716" d="M96 733l170 72q2 -46 27 -76.5t69 -30.5q46 0 86 32t50 83q7 37 -1 62t-30 36.5t-46.5 15.5t-58.5 3l31 145q141 -4 162 105q9 41 -16.5 66.5t-63.5 25.5q-74 0 -127 -94l-133 73q115 199 303 199q109 0 169 -76t34 -194q-21 -101 -109 -172q34 -29 49 -84.5t3 -110.5 q-26 -128 -121 -209.5t-213 -81.5q-213 0 -234 211z" />
<glyph unicode="&#xb4;" horiz-adv-x="645" d="M551 1100l231 334h256l-311 -334h-176z" />
<glyph unicode="&#xb5;" horiz-adv-x="1243" d="M193 -391l296 1403h220l-121 -568q-14 -71 -14 -122.5t33 -80t104 -28.5q69 0 125 44.5t71 117.5l135 637h220l-215 -1014h-220l7 33q-77 -47 -172 -47q-101 0 -162 49l-88 -424h-219z" />
<glyph unicode="&#xb6;" horiz-adv-x="1261" d="M385 991q25 118 100.5 219t181 160.5t214.5 59.5h473l-369 -1735h-225l317 1501h-92l-317 -1501h-226l185 868q-137 26 -206.5 147t-35.5 281z" />
<glyph unicode="&#xb7;" horiz-adv-x="657" d="M186 543q15 74 75 127t128 53q69 0 105.5 -52.5t21.5 -127.5q-15 -74 -74.5 -126t-128.5 -52q-67 0 -104.5 52t-22.5 126z" />
<glyph unicode="&#xb8;" horiz-adv-x="1026" d="M223 -410l244 279l-23 149l168 58l19 -217l-187 -269h-221z" />
<glyph unicode="&#xb9;" horiz-adv-x="532" d="M184 1284l258 156h123l-192 -908h-164l141 676l-119 -65z" />
<glyph unicode="&#xba;" horiz-adv-x="937" d="M223.5 858q-4.5 77 16.5 168q20 92 55 167t86.5 132.5t124 89t160.5 31.5t147 -32t85.5 -88t31 -133t-16.5 -167q-41 -192 -147.5 -306t-278.5 -114q-88 0 -147 31.5t-85.5 87.5t-31 133zM276 379l35 168h338l-35 -168h-338zM434 910q2 -28 12 -46.5t31.5 -30.5t54.5 -12 q40 0 71 17t50.5 48t31.5 63.5t20 74.5q10 43 12.5 76t-3.5 65t-29.5 49t-63.5 17q-41 0 -72.5 -17t-51 -49t-31.5 -64.5t-22 -76.5q-7 -34 -9.5 -60t-0.5 -54z" />
<glyph unicode="&#xbb;" horiz-adv-x="1136" d="M123 -18l61 292l285 234l-186 233l63 291l342 -454l-29 -140zM500 -18l61 292l285 234l-187 233l64 291l344 -454l-29 -140z" />
<glyph unicode="&#xbc;" horiz-adv-x="1646" d="M342 4l903 1423h209l-901 -1423h-211zM362 1268l293 170h119l-190 -903h-197l127 604l-92 -56zM860 199l33 159l403 549h236l-356 -497h124l46 145l118 -27l-24 -116h49l-45 -213h-49l-41 -195h-201l41 195h-334z" />
<glyph unicode="&#xbd;" horiz-adv-x="1724" d="M344 4l903 1423h209l-903 -1423h-209zM362 1268l295 170h119l-190 -903h-197l127 604l-94 -56zM928 4l30 148q52 93 89.5 138t152.5 150q114 107 156 152t45 61q4 20 -8.5 31.5t-38.5 11.5t-52 -23t-85 -104l-154 101q85 122 162.5 180.5t173.5 58.5q45 0 86.5 -15.5 t74 -47t44.5 -80t0 -113.5q-9 -42 -29 -80t-60 -82t-71 -73t-98 -88q-59 -48 -113 -113h280l-45 -213h-540z" />
<glyph unicode="&#xbe;" horiz-adv-x="1753" d="M289 780l200 70q2 -27 6.5 -44t18 -32.5t35.5 -15.5q27 0 50.5 21t29.5 52q8 31 -6.5 59t-40.5 28h-70l39 176h61q31 0 51.5 26t26.5 54q5 22 -9 39.5t-40 17.5q-44 0 -88 -82l-172 70q57 112 138 167.5t167 55.5q106 0 166 -78t37 -190q-18 -89 -86 -160q46 -77 24 -183 q-25 -118 -119.5 -202t-203.5 -84q-96 0 -151 62t-64 173zM442 4l904 1423h208l-901 -1423h-211zM961 199l32 159l404 549h235l-356 -497h125l45 145l119 -27l-25 -116h49l-45 -213h-49l-41 -195h-201l41 195h-333z" />
<glyph unicode="&#xbf;" horiz-adv-x="1120" d="M207 -53q-41 -193 49.5 -297.5t265.5 -102.5q62 -1 122 13t120 47t109 82t88 124.5t59 168.5l-229 -2q-17 -70 -53 -114t-76 -59.5t-87 -15.5q-76 0 -112 42.5t-21 111.5q4 18 12.5 34t15 25.5t24 22.5t23 16.5t30 17t28.5 15.5q47 26 73 43.5t64.5 54t64.5 89.5t42 124 l27 207h-197l-53 -199q-13 -50 -44.5 -79.5t-105.5 -67.5q-41 -24 -71 -47t-66.5 -59t-62.5 -85.5t-39 -109.5zM647 846q15 69 71 117.5t120 48.5q63 0 96 -48.5t18 -117.5q-13 -69 -68 -117.5t-118 -48.5q-64 0 -98.5 48.5t-20.5 117.5z" />
<glyph unicode="&#xc0;" horiz-adv-x="1335" d="M-20 0l808 1430h234l205 -1430h-293l-43 358h-426l-195 -358h-290zM604 614h254l-45 383zM639 1886h258l90 -334h-172z" />
<glyph unicode="&#xc1;" horiz-adv-x="1335" d="M-20 0l808 1430h234l205 -1430h-293l-43 358h-426l-195 -358h-290zM604 614h254l-45 383zM870 1552l232 334h256l-311 -334h-177z" />
<glyph unicode="&#xc2;" horiz-adv-x="1335" d="M-20 0l808 1430h234l205 -1430h-293l-43 358h-426l-195 -358h-290zM586 1559l307 313h213l172 -313h-240l-69 172l-144 -172h-239zM604 614h254l-45 383z" />
<glyph unicode="&#xc3;" horiz-adv-x="1335" d="M-20 0l808 1430h234l205 -1430h-293l-43 358h-426l-195 -358h-290zM604 614h254l-45 383zM606 1683q63 77 123.5 112.5t142.5 35.5q39 0 69.5 -14.5t47 -31.5t43.5 -31.5t60 -14.5q62 0 118 82l109 -115q-75 -79 -131.5 -116.5t-130.5 -37.5q-37 0 -67.5 15t-48 32.5 t-46.5 32.5t-64 15q-51 0 -122 -80z" />
<glyph unicode="&#xc4;" horiz-adv-x="1335" d="M-20 0l808 1430h234l205 -1430h-293l-43 358h-426l-195 -358h-290zM604 614h254l-45 383zM633 1706q12 63 62 107.5t108 44.5q57 0 87.5 -44.5t18.5 -107.5q-14 -63 -63.5 -107.5t-106.5 -44.5q-58 0 -89 44.5t-17 107.5zM1022 1706q12 63 62 107.5t108 44.5 q57 0 87.5 -44.5t18.5 -107.5q-14 -63 -63.5 -107.5t-106.5 -44.5q-58 0 -89 44.5t-17 107.5z" />
<glyph unicode="&#xc5;" horiz-adv-x="1335" d="M-20 0l808 1430h234l205 -1430h-293l-43 358h-426l-195 -358h-290zM604 614h254l-45 383zM750 1802q22 106 106.5 181t183.5 75q97 0 151 -75t32 -181q-23 -106 -108.5 -181t-182.5 -75q-99 0 -152 75t-30 181zM907 1802q-8 -35 10 -59.5t52 -24.5q31 0 59 24.5t35 59.5 q6 35 -11 59.5t-48 24.5q-34 0 -62.5 -24.5t-34.5 -59.5z" />
<glyph unicode="&#xc6;" horiz-adv-x="1677" d="M-205 0l1014 1430h991l-61 -289h-615l-57 -269h535l-60 -276h-534l-66 -307h614l-59 -289h-883l76 358h-344l-246 -358h-305zM522 614h221l101 465h-6z" />
<glyph unicode="&#xc7;" horiz-adv-x="1171" d="M123.5 505.5q2.5 100.5 26.5 209.5q31 149 93.5 278.5t152.5 232.5t214 162.5t267 59.5q152 0 245 -58.5t164 -189.5l-233 -203q-49 81 -101 121.5t-137 40.5q-66 0 -123.5 -27t-100 -70t-76.5 -102t-55.5 -119.5t-35.5 -125.5q-18 -82 -19 -157t17 -141.5t70 -106.5 t133 -40q88 0 162 45t159 134l148 -201q-124 -125 -214.5 -183.5t-205.5 -74.5l16 -131l-188 -275h-242l250 287l-18 117q-97 12 -169.5 57t-116 113t-64.5 157.5t-18.5 190z" />
<glyph unicode="&#xc8;" horiz-adv-x="1155" d="M72 0l303 1430h903l-61 -289h-633l-58 -269h553l-59 -276h-553l-66 -307h633l-59 -289h-903zM694 1886h258l90 -334h-172z" />
<glyph unicode="&#xc9;" horiz-adv-x="1155" d="M72 0l303 1430h903l-61 -289h-633l-58 -269h553l-59 -276h-553l-66 -307h633l-59 -289h-903zM625 1552l231 334h256l-311 -334h-176z" />
<glyph unicode="&#xca;" horiz-adv-x="1155" d="M72 0l303 1430h903l-61 -289h-633l-58 -269h553l-59 -276h-553l-66 -307h633l-59 -289h-903zM489 1559l308 313h213l170 -313h-238l-72 172l-141 -172h-240z" />
<glyph unicode="&#xcb;" horiz-adv-x="1155" d="M72 0l303 1430h903l-61 -289h-633l-58 -269h553l-59 -276h-553l-66 -307h633l-59 -289h-903zM532 1706q12 63 62.5 107.5t107.5 44.5t88 -44.5t19 -107.5q-14 -63 -63.5 -107.5t-106.5 -44.5t-88.5 44.5t-18.5 107.5zM924 1706q12 63 62 107.5t108 44.5q57 0 87.5 -44.5 t18.5 -107.5q-14 -63 -63.5 -107.5t-106.5 -44.5q-58 0 -89 44.5t-17 107.5z" />
<glyph unicode="&#xcc;" horiz-adv-x="522" d="M72 0l303 1430h270l-303 -1430h-270zM227 1886h258l90 -334h-174z" />
<glyph unicode="&#xcd;" horiz-adv-x="522" d="M72 0l303 1430h270l-303 -1430h-270zM401 1552l234 334h256l-313 -334h-177z" />
<glyph unicode="&#xce;" horiz-adv-x="522" d="M72 0l303 1430h270l-303 -1430h-270zM190 1559l308 313h213l172 -313h-240l-70 172l-143 -172h-240z" />
<glyph unicode="&#xcf;" horiz-adv-x="522" d="M72 0l303 1430h270l-303 -1430h-270zM238 1706q12 63 62 107.5t108 44.5q57 0 87.5 -44.5t18.5 -107.5q-14 -63 -63.5 -107.5t-106.5 -44.5q-58 0 -89 44.5t-17 107.5zM627 1706q12 63 62.5 107.5t107.5 44.5t87.5 -44.5t18.5 -107.5q-14 -63 -63.5 -107.5t-106.5 -44.5 t-88 44.5t-18 107.5z" />
<glyph unicode="&#xd0;" horiz-adv-x="1259" d="M66 0l127 606h-70l45 211h70l131 613h432q57 0 104 -3.5t99.5 -14.5t92 -29.5t76 -50.5t58.5 -75t32 -105.5t3 -139.5q-10 -112 -49 -297q-43 -199 -78 -297q-30 -90 -73 -159.5t-95.5 -114t-107 -74.5t-120 -44.5t-121.5 -20t-124 -5.5h-432zM395 289h162q51 0 83.5 2 t68.5 8.5t59 19t46.5 34t40.5 53.5t32 77q20 58 59 232q36 189 39 233q3 40 -1 70t-12.5 50.5t-27.5 34.5t-36 21.5t-49 11t-55.5 4.5t-64.5 1h-161l-70 -324h229l-45 -211h-229z" />
<glyph unicode="&#xd1;" horiz-adv-x="1269" d="M72 0l303 1430h219l305 -816l174 816h268l-303 -1430h-215l-309 815l-172 -815h-270zM559 1683q61 76 122 112t142 36q39 0 69.5 -14.5t47 -31.5t43.5 -31.5t61 -14.5q61 0 117 82l109 -115q-71 -77 -129.5 -115.5t-130.5 -38.5q-38 0 -68.5 15t-48 32.5t-47 32.5 t-64.5 15q-53 0 -120 -80z" />
<glyph unicode="&#xd2;" horiz-adv-x="1275" d="M127 528.5q6 89.5 27 186.5q25 118 65.5 223t102.5 199t139 162t179 107.5t218 39.5q97 0 173 -27.5t124.5 -77.5t79 -117.5t40.5 -150t4 -171.5t-26 -187q-25 -118 -66 -222.5t-103 -199t-139 -162.5t-179.5 -107.5t-218.5 -39.5q-97 0 -172.5 27.5t-124 77.5t-79 117.5 t-40.5 150t-4 172zM424 715q-96 -443 184 -443q279 0 375 443q12 57 18 105t6.5 101t-11.5 93t-34.5 73.5t-64.5 51.5t-100 18q-281 0 -373 -442zM741 1886h258l93 -334h-174z" />
<glyph unicode="&#xd3;" horiz-adv-x="1275" d="M127 528.5q6 89.5 27 186.5q25 118 65.5 223t102.5 199t139 162t179 107.5t218 39.5q97 0 173 -27.5t124.5 -77.5t79 -117.5t40.5 -150t4 -171.5t-26 -187q-25 -118 -66 -222.5t-103 -199t-139 -162.5t-179.5 -107.5t-218.5 -39.5q-97 0 -172.5 27.5t-124 77.5t-79 117.5 t-40.5 150t-4 172zM424 715q-96 -443 184 -443q279 0 375 443q12 57 18 105t6.5 101t-11.5 93t-34.5 73.5t-64.5 51.5t-100 18q-281 0 -373 -442zM672 1552l231 334h258l-313 -334h-176z" />
<glyph unicode="&#xd4;" horiz-adv-x="1275" d="M127 528.5q6 89.5 27 186.5q25 118 65.5 223t102.5 199t139 162t179 107.5t218 39.5q97 0 173 -27.5t124.5 -77.5t79 -117.5t40.5 -150t4 -171.5t-26 -187q-25 -118 -66 -222.5t-103 -199t-139 -162.5t-179.5 -107.5t-218.5 -39.5q-97 0 -172.5 27.5t-124 77.5t-79 117.5 t-40.5 150t-4 172zM424 715q-96 -443 184 -443q279 0 375 443q12 57 18 105t6.5 101t-11.5 93t-34.5 73.5t-64.5 51.5t-100 18q-281 0 -373 -442zM535 1559l307 313h213l172 -313h-240l-69 172l-144 -172h-239z" />
<glyph unicode="&#xd5;" horiz-adv-x="1275" d="M127 528.5q6 89.5 27 186.5q25 118 65.5 223t102.5 199t139 162t179 107.5t218 39.5q97 0 173 -27.5t124.5 -77.5t79 -117.5t40.5 -150t4 -171.5t-26 -187q-25 -118 -66 -222.5t-103 -199t-139 -162.5t-179.5 -107.5t-218.5 -39.5q-97 0 -172.5 27.5t-124 77.5t-79 117.5 t-40.5 150t-4 172zM424 715q-96 -443 184 -443q279 0 375 443q12 57 18 105t6.5 101t-11.5 93t-34.5 73.5t-64.5 51.5t-100 18q-281 0 -373 -442zM555 1683q63 77 123.5 112.5t142.5 35.5q39 0 69.5 -14.5t46.5 -31.5t43 -31.5t60 -14.5q63 0 119 82l107 -115 q-73 -78 -129.5 -116t-130.5 -38q-37 0 -67.5 15t-48 32.5t-46.5 32.5t-64 15q-52 0 -123 -80z" />
<glyph unicode="&#xd6;" horiz-adv-x="1275" d="M127 528.5q6 89.5 27 186.5q25 118 65.5 223t102.5 199t139 162t179 107.5t218 39.5q97 0 173 -27.5t124.5 -77.5t79 -117.5t40.5 -150t4 -171.5t-26 -187q-25 -118 -66 -222.5t-103 -199t-139 -162.5t-179.5 -107.5t-218.5 -39.5q-97 0 -172.5 27.5t-124 77.5t-79 117.5 t-40.5 150t-4 172zM424 715q-96 -443 184 -443q279 0 375 443q12 57 18 105t6.5 101t-11.5 93t-34.5 73.5t-64.5 51.5t-100 18q-281 0 -373 -442zM582 1706q12 63 62 107.5t108 44.5q56 0 87 -44.5t19 -107.5q-13 -63 -63.5 -107.5t-106.5 -44.5q-58 0 -89 44.5t-17 107.5z M971 1706q12 63 62 107.5t108 44.5q57 0 87.5 -44.5t18.5 -107.5q-14 -63 -63.5 -107.5t-106.5 -44.5q-58 0 -89 44.5t-17 107.5z" />
<glyph unicode="&#xd7;" horiz-adv-x="1021" d="M147 317l277 244l-172 242l170 151l172 -241l274 241l109 -151l-272 -242l167 -244l-170 -151l-172 242l-274 -242z" />
<glyph unicode="&#xd8;" horiz-adv-x="1275" d="M102 -20l113 165q-133 196 -53 570q25 118 66.5 223.5t103.5 199.5t139 161.5t179 107t218 39.5q114 0 203 -41l31 45h219l-111 -164q132 -198 52 -571q-25 -118 -66.5 -223.5t-103.5 -199t-139.5 -161.5t-179 -107.5t-216.5 -39.5q-119 0 -205 41l-28 -45h-222zM414 440 l479 705q-43 12 -86 12q-284 0 -375 -442q-37 -171 -18 -275zM528 287q44 -15 90 -15q69 0 126 27t95.5 68t69.5 102.5t49 118.5t33 127q36 184 19 276z" />
<glyph unicode="&#xd9;" horiz-adv-x="1261" d="M145.5 340.5q-7.5 111.5 24.5 249.5l178 840h270l-176 -824q-13 -61 -18 -106.5t0.5 -91t24.5 -75t57.5 -47.5t97.5 -18q61 0 108.5 17.5t78.5 46t55 74.5t38 91.5t27 108.5l176 824h269l-178 -840q-61 -288 -216.5 -447t-414.5 -159q-132 0 -221.5 43t-131 122.5 t-49 191zM739 1886h258l90 -334h-174z" />
<glyph unicode="&#xda;" horiz-adv-x="1261" d="M145.5 340.5q-7.5 111.5 24.5 249.5l178 840h270l-176 -824q-13 -61 -18 -106.5t0.5 -91t24.5 -75t57.5 -47.5t97.5 -18q61 0 108.5 17.5t78.5 46t55 74.5t38 91.5t27 108.5l176 824h269l-178 -840q-61 -288 -216.5 -447t-414.5 -159q-132 0 -221.5 43t-131 122.5 t-49 191zM670 1552l231 334h256l-313 -334h-174z" />
<glyph unicode="&#xdb;" horiz-adv-x="1261" d="M145.5 340.5q-7.5 111.5 24.5 249.5l178 840h270l-176 -824q-13 -61 -18 -106.5t0.5 -91t24.5 -75t57.5 -47.5t97.5 -18q61 0 108.5 17.5t78.5 46t55 74.5t38 91.5t27 108.5l176 824h269l-178 -840q-61 -288 -216.5 -447t-414.5 -159q-132 0 -221.5 43t-131 122.5 t-49 191zM532 1559l308 313h213l172 -313h-240l-70 172l-143 -172h-240z" />
<glyph unicode="&#xdc;" horiz-adv-x="1261" d="M145.5 340.5q-7.5 111.5 24.5 249.5l178 840h270l-176 -824q-13 -61 -18 -106.5t0.5 -91t24.5 -75t57.5 -47.5t97.5 -18q61 0 108.5 17.5t78.5 46t55 74.5t38 91.5t27 108.5l176 824h269l-178 -840q-61 -288 -216.5 -447t-414.5 -159q-132 0 -221.5 43t-131 122.5 t-49 191zM578 1706q12 63 62 107.5t108 44.5q57 0 87.5 -44.5t18.5 -107.5q-14 -63 -63.5 -107.5t-106.5 -44.5q-58 0 -89 44.5t-17 107.5zM967 1706q12 63 62.5 107.5t109.5 44.5q56 0 87 -44.5t19 -107.5q-13 -63 -63.5 -107.5t-106.5 -44.5q-58 0 -90 44.5t-18 107.5z " />
<glyph unicode="&#xdd;" horiz-adv-x="1081" d="M205 1430h301l139 -627l402 627h301l-641 -959l-99 -471h-268l100 475zM594 1552l231 334h256l-313 -334h-174z" />
<glyph unicode="&#xde;" horiz-adv-x="1161" d="M72 0l303 1430h270l-55 -259h241q221 0 322 -107.5t55 -328.5q-25 -115 -79.5 -201t-130.5 -136.5t-163.5 -74.5t-187.5 -24h-241l-64 -299h-270zM467 588h242q51 0 83.5 4.5t65 19t52 45t30.5 78.5q9 28 6 50t-6.5 37.5t-17 26.5t-26.5 17.5t-35 10.5t-42.5 5t-48.5 1 h-242z" />
<glyph unicode="&#xdf;" horiz-adv-x="1386" d="M-61 -461l274 1284q14 67 25 113t28 103.5t33.5 96.5t40.5 83.5t51 73.5t63.5 58t79.5 45t97 26t117 10q225 0 328.5 -110t101.5 -306q130 -38 198 -164l-223 -102q-39 69 -154 65q-40 0 -79 -18t-39 -52q0 -24 25 -41.5t65 -29.5t88.5 -25t97 -33t88.5 -47.5t65 -74 t25 -107.5q0 -90 -41.5 -168t-109.5 -130.5t-154.5 -82t-175.5 -29.5q-55 0 -100.5 7.5t-90.5 28t-78 53.5t-57 86t-34 124l237 46q11 -53 57.5 -77t108.5 -24q51 0 102.5 22.5t51.5 67.5q0 24 -19 43.5t-50.5 32.5t-72 27.5t-82 28t-82 35t-72 46.5t-50.5 64.5t-19 87.5 q0 127 94 221.5t240 124.5q0 88 -39 136t-139 48q-53 0 -95.5 -14.5t-72 -44.5t-50.5 -62.5t-37 -81.5t-25.5 -87.5t-21.5 -93.5l-3 -15l-271 -1268h-245z" />
<glyph unicode="&#xe0;" d="M82 346q1 123 51 245.5t133 217.5t200 154t243 59q81 0 158 -23t188 -77l-189 -803l11 -117l-236 -37l-6 127l35 174q-36 -62 -67 -107t-70.5 -88t-83.5 -65t-91 -22q-72 0 -127 31t-86.5 84t-47 115t-15.5 132zM338 303q0 -42 18.5 -75t53.5 -33q50 0 99.5 43.5t87 108 t73 152.5t58 162.5t42.5 153.5q-16 2 -27 2q-88 0 -167 -55t-129 -135.5t-79.5 -167.5t-29.5 -156zM559 1434h258l90 -334h-172z" />
<glyph unicode="&#xe1;" d="M82 346q1 123 51 245.5t133 217.5t200 154t243 59q81 0 158 -23t188 -77l-189 -803l11 -117l-236 -37l-6 127l35 174q-36 -62 -67 -107t-70.5 -88t-83.5 -65t-91 -22q-72 0 -127 31t-86.5 84t-47 115t-15.5 132zM338 303q0 -42 18.5 -75t53.5 -33q50 0 99.5 43.5t87 108 t73 152.5t58 162.5t42.5 153.5q-16 2 -27 2q-88 0 -167 -55t-129 -135.5t-79.5 -167.5t-29.5 -156zM600 1100l231 334h256l-311 -334h-176z" />
<glyph unicode="&#xe2;" d="M82 346q1 123 51 245.5t133 217.5t200 154t243 59q81 0 158 -23t188 -77l-189 -803l11 -117l-236 -37l-6 127l35 174q-36 -62 -67 -107t-70.5 -88t-83.5 -65t-91 -22q-72 0 -127 31t-86.5 84t-47 115t-15.5 132zM338 303q0 -42 18.5 -75t53.5 -33q50 0 99.5 43.5t87 108 t73 152.5t58 162.5t42.5 153.5q-16 2 -27 2q-88 0 -167 -55t-129 -135.5t-79.5 -167.5t-29.5 -156zM387 1106l307 313h213l172 -313h-239l-70 172l-143 -172h-240z" />
<glyph unicode="&#xe3;" d="M82 346q1 123 51 245.5t133 217.5t200 154t243 59q81 0 158 -23t188 -77l-189 -803l11 -117l-236 -37l-6 127l35 174q-36 -62 -67 -107t-70.5 -88t-83.5 -65t-91 -22q-72 0 -127 31t-86.5 84t-47 115t-15.5 132zM338 303q0 -42 18.5 -75t53.5 -33q50 0 99.5 43.5t87 108 t73 152.5t58 162.5t42.5 153.5q-16 2 -27 2q-88 0 -167 -55t-129 -135.5t-79.5 -167.5t-29.5 -156zM377 1231q61 76 122 111.5t142 35.5q39 0 69.5 -14.5t47 -31.5t43.5 -31.5t61 -14.5q61 0 117 82l108 -115q-74 -78 -131 -115.5t-129 -37.5q-38 0 -68.5 14.5t-48.5 32.5 t-46.5 32.5t-63.5 14.5q-52 0 -123 -80z" />
<glyph unicode="&#xe4;" d="M82 346q1 123 51 245.5t133 217.5t200 154t243 59q81 0 158 -23t188 -77l-189 -803l11 -117l-236 -37l-6 127l35 174q-36 -62 -67 -107t-70.5 -88t-83.5 -65t-91 -22q-72 0 -127 31t-86.5 84t-47 115t-15.5 132zM338 303q0 -42 18.5 -75t53.5 -33q50 0 99.5 43.5t87 108 t73 152.5t58 162.5t42.5 153.5q-16 2 -27 2q-88 0 -167 -55t-129 -135.5t-79.5 -167.5t-29.5 -156zM399 1253q12 63 62.5 107.5t107.5 44.5t88 -44.5t19 -107.5q-13 -63 -63 -107t-107 -44t-88.5 44t-18.5 107zM791 1253q12 63 62 107.5t108 44.5q57 0 87.5 -44.5 t18.5 -107.5q-13 -63 -63 -107t-107 -44q-58 0 -89 44t-17 107z" />
<glyph unicode="&#xe5;" d="M82 346q1 123 51 245.5t133 217.5t200 154t243 59q81 0 158 -23t188 -77l-189 -803l11 -117l-236 -37l-6 127l35 174q-36 -62 -67 -107t-70.5 -88t-83.5 -65t-91 -22q-72 0 -127 31t-86.5 84t-47 115t-15.5 132zM338 303q0 -42 18.5 -75t53.5 -33q50 0 99.5 43.5t87 108 t73 152.5t58 162.5t42.5 153.5q-16 2 -27 2q-88 0 -167 -55t-129 -135.5t-79.5 -167.5t-29.5 -156zM498 1350q22 106 107 181t183 75t151.5 -75t31.5 -181q-23 -106 -108 -181t-183 -75t-151.5 75t-30.5 181zM655 1350q-7 -35 11 -59.5t51 -24.5q31 0 60 24.5t36 59.5 q6 35 -12 59.5t-49 24.5q-33 0 -62 -24.5t-35 -59.5z" />
<glyph unicode="&#xe6;" horiz-adv-x="1570" d="M84 342q1 97 33 195.5t90.5 185t134.5 154t172.5 106.5t196.5 39q68 0 123 -13.5t129 -52.5l-2 -8q132 80 266 80q62 0 121.5 -15.5t110 -45t81.5 -80t31 -113.5q0 -74 -48 -134t-117.5 -95.5t-160.5 -61.5t-162 -36.5t-137 -14.5q-10 -42 -10 -80q0 -127 121 -127 q112 -2 256 146l170 -185q-90 -86 -169 -132t-137.5 -58t-140.5 -12q-87 0 -164.5 31t-132.5 96.5t-65 152.5q-9 -12 -35 -52.5t-51.5 -74.5t-59 -71.5t-74 -59.5t-81.5 -22q-77 0 -135 30.5t-90.5 82.5t-48.5 113.5t-15 131.5zM342 303q0 -43 17.5 -75.5t52.5 -32.5 q50 0 99.5 43.5t87 108t73 152.5t58 162.5t42.5 153.5q-16 2 -24 2q-89 0 -168 -55t-129.5 -136t-79.5 -167.5t-29 -155.5zM985 596q37 4 87 15.5t106.5 31t94.5 51.5t38 68q0 39 -86 39q-62 0 -134 -53.5t-106 -151.5z" />
<glyph unicode="&#xe7;" horiz-adv-x="980" d="M61 365q0 104 21 199t68 180.5t114.5 148t167.5 99t221 36.5q112 0 194.5 -53t153.5 -174l-225 -131q-71 116 -166 116q-66 0 -118.5 -36t-83 -92.5t-46.5 -120.5t-16 -127q0 -83 34.5 -134t111.5 -51q85 0 231 146l168 -185q-102 -97 -182 -142t-160 -56l16 -129 l-200 -275h-263l267 287l-19 119q-134 28 -211.5 129t-77.5 246z" />
<glyph unicode="&#xe8;" horiz-adv-x="964" d="M63 367q1 121 41.5 239t111 212t177 152t228.5 58q62 0 121.5 -15.5t110 -45t81.5 -80t31 -113.5q0 -74 -48 -134t-117.5 -95.5t-160.5 -61.5t-162 -36.5t-137 -14.5q-8 -50 -8 -70q0 -65 30 -101t89 -36q108 -2 256 146l170 -185q-91 -87 -170 -132.5t-137 -57.5 t-140 -12q-98 0 -170.5 29.5t-115 82.5t-62.5 121t-19 150zM379 596q43 5 93.5 17.5t105.5 32t91 50.5t36 66q0 19 -25.5 30t-61.5 11q-61 0 -131.5 -54t-107.5 -153zM446 1434h259l90 -334h-172z" />
<glyph unicode="&#xe9;" horiz-adv-x="964" d="M63 367q1 121 41.5 239t111 212t177 152t228.5 58q62 0 121.5 -15.5t110 -45t81.5 -80t31 -113.5q0 -74 -48 -134t-117.5 -95.5t-160.5 -61.5t-162 -36.5t-137 -14.5q-8 -50 -8 -70q0 -65 30 -101t89 -36q108 -2 256 146l170 -185q-91 -87 -170 -132.5t-137 -57.5 t-140 -12q-98 0 -170.5 29.5t-115 82.5t-62.5 121t-19 150zM379 596q43 5 93.5 17.5t105.5 32t91 50.5t36 66q0 19 -25.5 30t-61.5 11q-61 0 -131.5 -54t-107.5 -153zM444 1100l232 334h256l-311 -334h-177z" />
<glyph unicode="&#xea;" horiz-adv-x="964" d="M63 367q1 121 41.5 239t111 212t177 152t228.5 58q62 0 121.5 -15.5t110 -45t81.5 -80t31 -113.5q0 -74 -48 -134t-117.5 -95.5t-160.5 -61.5t-162 -36.5t-137 -14.5q-8 -50 -8 -70q0 -65 30 -101t89 -36q108 -2 256 146l170 -185q-91 -87 -170 -132.5t-137 -57.5 t-140 -12q-98 0 -170.5 29.5t-115 82.5t-62.5 121t-19 150zM342 1106l307 313h213l172 -313h-239l-70 172l-143 -172h-240zM379 596q43 5 93.5 17.5t105.5 32t91 50.5t36 66q0 19 -25.5 30t-61.5 11q-61 0 -131.5 -54t-107.5 -153z" />
<glyph unicode="&#xeb;" horiz-adv-x="964" d="M63 367q1 121 41.5 239t111 212t177 152t228.5 58q62 0 121.5 -15.5t110 -45t81.5 -80t31 -113.5q0 -74 -48 -134t-117.5 -95.5t-160.5 -61.5t-162 -36.5t-137 -14.5q-8 -50 -8 -70q0 -65 30 -101t89 -36q108 -2 256 146l170 -185q-91 -87 -170 -132.5t-137 -57.5 t-140 -12q-98 0 -170.5 29.5t-115 82.5t-62.5 121t-19 150zM354 1253q12 63 62.5 107.5t107.5 44.5t88 -44.5t19 -107.5q-13 -63 -63 -107t-107 -44t-88.5 44t-18.5 107zM379 596q43 5 93.5 17.5t105.5 32t91 50.5t36 66q0 19 -25.5 30t-61.5 11q-61 0 -131.5 -54 t-107.5 -153zM745 1253q12 63 62 107.5t108 44.5q57 0 88 -44.5t19 -107.5q-13 -63 -63 -107t-107 -44q-58 0 -89.5 44t-17.5 107z" />
<glyph unicode="&#xec;" horiz-adv-x="673" d="M96 0l213 1006h271l-213 -1006h-271zM244 1434h258l90 -334h-172z" />
<glyph unicode="&#xed;" horiz-adv-x="673" d="M96 0l213 1006h271l-213 -1006h-271zM330 1100l231 334h256l-311 -334h-176z" />
<glyph unicode="&#xee;" horiz-adv-x="673" d="M96 0l213 1006h271l-213 -1006h-271zM121 1106l307 313h213l172 -313h-240l-69 172l-144 -172h-239z" />
<glyph unicode="&#xef;" horiz-adv-x="673" d="M96 0l213 1006h271l-213 -1006h-271zM160 1253q12 63 62.5 107.5t107.5 44.5t87.5 -44.5t18.5 -107.5q-13 -63 -63 -107t-107 -44t-88 44t-18 107zM551 1253q12 63 62 107.5t108 44.5q57 0 87.5 -44.5t18.5 -107.5q-13 -63 -63 -107t-107 -44q-58 0 -89 44t-17 107z" />
<glyph unicode="&#xf0;" horiz-adv-x="1013" d="M62 351q3 76 22 163q24 117 67 210.5t106 164.5t151.5 109t195.5 38q27 0 35 -2l-8 43h-228l48 219h137l-49 238h233l49 -238h172l-47 -219h-80l52 -219q14 -49 13.5 -116t-6 -103.5t-19.5 -107.5q-2 -11 -3 -17q-54 -245 -184.5 -387.5t-335.5 -142.5q-90 0 -154.5 28.5 t-101 77t-52.5 117t-13 144.5zM286 365q0 -35 8.5 -59.5t24.5 -44.5t44 -30t67 -10q49 0 88 17t64.5 43t46 66.5t31.5 78t22 86.5q16 84 18.5 149t-33 104.5t-112.5 39.5q-49 0 -88.5 -17.5t-65 -43.5t-45.5 -67.5t-31 -78.5t-22 -86q-9 -44 -13 -78t-4 -69z" />
<glyph unicode="&#xf1;" horiz-adv-x="1148" d="M61 0l228 1012h278l-51 -232q63 109 150 177.5t168 68.5t135 -27t80 -69.5t33.5 -104.5t1 -122t-22.5 -132l-131 -571h-279l154 674q13 46 5.5 95.5t-38.5 49.5q-235 0 -387 -622l-45 -197h-279zM424 1231q61 76 122 111.5t142 35.5q39 0 69.5 -14.5t47 -31.5t43.5 -31.5 t61 -14.5q61 0 117 82l109 -115q-74 -77 -131.5 -115t-129.5 -38q-38 0 -68.5 14.5t-48.5 32.5t-46.5 32.5t-63.5 14.5q-52 0 -123 -80z" />
<glyph unicode="&#xf2;" horiz-adv-x="1040" d="M61 332q0 106 22 206t69.5 190t115 156.5t166.5 106t217 39.5q189 0 279 -94.5t88 -261.5q0 -135 -35 -256t-104 -220.5t-185.5 -158.5t-265.5 -59q-188 0 -277.5 93t-89.5 259zM348 395q0 -172 131 -172q65 0 116 40.5t79.5 103t42.5 129t12 127.5q0 69 -30.5 116 t-100.5 47q-52 0 -95 -26.5t-70.5 -67.5t-47 -94.5t-28 -104t-9.5 -98.5zM469 1434h258l90 -334h-172z" />
<glyph unicode="&#xf3;" horiz-adv-x="1040" d="M61 332q0 106 22 206t69.5 190t115 156.5t166.5 106t217 39.5q189 0 279 -94.5t88 -261.5q0 -135 -35 -256t-104 -220.5t-185.5 -158.5t-265.5 -59q-188 0 -277.5 93t-89.5 259zM348 395q0 -172 131 -172q65 0 116 40.5t79.5 103t42.5 129t12 127.5q0 69 -30.5 116 t-100.5 47q-52 0 -95 -26.5t-70.5 -67.5t-47 -94.5t-28 -104t-9.5 -98.5zM481 1100l232 334h256l-312 -334h-176z" />
<glyph unicode="&#xf4;" horiz-adv-x="1040" d="M61 332q0 106 22 206t69.5 190t115 156.5t166.5 106t217 39.5q189 0 279 -94.5t88 -261.5q0 -135 -35 -256t-104 -220.5t-185.5 -158.5t-265.5 -59q-188 0 -277.5 93t-89.5 259zM348 395q0 -172 131 -172q65 0 116 40.5t79.5 103t42.5 129t12 127.5q0 69 -30.5 116 t-100.5 47q-52 0 -95 -26.5t-70.5 -67.5t-47 -94.5t-28 -104t-9.5 -98.5zM379 1106l307 313h213l172 -313h-240l-69 172l-144 -172h-239z" />
<glyph unicode="&#xf5;" horiz-adv-x="1040" d="M61 332q0 106 22 206t69.5 190t115 156.5t166.5 106t217 39.5q189 0 279 -94.5t88 -261.5q0 -135 -35 -256t-104 -220.5t-185.5 -158.5t-265.5 -59q-188 0 -277.5 93t-89.5 259zM348 395q0 -172 131 -172q65 0 116 40.5t79.5 103t42.5 129t12 127.5q0 69 -30.5 116 t-100.5 47q-52 0 -95 -26.5t-70.5 -67.5t-47 -94.5t-28 -104t-9.5 -98.5zM371 1231q61 76 122 111.5t142 35.5q39 0 69.5 -14.5t47 -31.5t43.5 -31.5t61 -14.5q61 0 117 82l108 -115q-74 -78 -131 -115.5t-129 -37.5q-38 0 -68.5 14.5t-48.5 32.5t-46.5 32.5t-63.5 14.5 q-52 0 -123 -80z" />
<glyph unicode="&#xf6;" horiz-adv-x="1040" d="M61 332q0 106 22 206t69.5 190t115 156.5t166.5 106t217 39.5q189 0 279 -94.5t88 -261.5q0 -135 -35 -256t-104 -220.5t-185.5 -158.5t-265.5 -59q-188 0 -277.5 93t-89.5 259zM348 395q0 -172 131 -172q65 0 116 40.5t79.5 103t42.5 129t12 127.5q0 69 -30.5 116 t-100.5 47q-52 0 -95 -26.5t-70.5 -67.5t-47 -94.5t-28 -104t-9.5 -98.5zM393 1253q12 63 62.5 107.5t107.5 44.5t88 -44.5t19 -107.5q-13 -63 -63 -107t-107 -44t-88.5 44t-18.5 107zM784 1253q12 63 62 107.5t108 44.5q57 0 88 -44.5t19 -107.5q-13 -63 -63 -107t-107 -44 q-58 0 -89.5 44t-17.5 107z" />
<glyph unicode="&#xf7;" horiz-adv-x="1122" d="M188 459l45 205h820l-45 -205h-820zM422 250q12 58 58.5 98.5t99.5 40.5q54 0 82 -40t16 -99q-12 -57 -57 -97t-99 -40q-53 0 -82.5 40t-17.5 97zM553 870q12 58 59.5 99t100.5 41q54 0 81 -40.5t15 -99.5q-12 -57 -57 -97t-99 -40q-53 0 -82.5 40t-17.5 97z" />
<glyph unicode="&#xf8;" horiz-adv-x="1038" d="M61 332q0 106 22 206t69.5 190t115 156.5t166.5 106t217 39.5q76 0 135 -16l5 6h210l-63 -94q80 -89 80 -252q0 -135 -35 -256t-104 -220.5t-185.5 -158.5t-265.5 -59q-77 0 -139 16l-2 -2h-195l55 82q-86 89 -86 256zM348 395q0 -16 2 -22l260 387h-16q-65 0 -114 -35 t-76 -92t-40.5 -117t-15.5 -121zM471 250h14q65 0 115 36.5t77.5 93.5t40.5 119t11 122v4v12z" />
<glyph unicode="&#xf9;" horiz-adv-x="1095" d="M107 322.5q4 58.5 18 117.5l127 572h278l-151 -664q-34 -151 35 -151q46 0 88 26.5t73.5 64t62 99t49.5 110.5t40 120.5t29.5 107.5t21.5 92l43 195h275l-228 -1012h-274l72 266q-139 -278 -306 -278q-76 0 -129.5 30t-80 76.5t-37 108t-6.5 120zM580 1434h258l90 -334 h-172z" />
<glyph unicode="&#xfa;" horiz-adv-x="1095" d="M107 322.5q4 58.5 18 117.5l127 572h278l-151 -664q-34 -151 35 -151q46 0 88 26.5t73.5 64t62 99t49.5 110.5t40 120.5t29.5 107.5t21.5 92l43 195h275l-228 -1012h-274l72 266q-139 -278 -306 -278q-76 0 -129.5 30t-80 76.5t-37 108t-6.5 120zM510 1100l231 334h256 l-311 -334h-176z" />
<glyph unicode="&#xfb;" horiz-adv-x="1095" d="M107 322.5q4 58.5 18 117.5l127 572h278l-151 -664q-34 -151 35 -151q46 0 88 26.5t73.5 64t62 99t49.5 110.5t40 120.5t29.5 107.5t21.5 92l43 195h275l-228 -1012h-274l72 266q-139 -278 -306 -278q-76 0 -129.5 30t-80 76.5t-37 108t-6.5 120zM354 1106l308 313h212 l173 -313h-240l-70 172l-143 -172h-240z" />
<glyph unicode="&#xfc;" horiz-adv-x="1095" d="M107 322.5q4 58.5 18 117.5l127 572h278l-151 -664q-34 -151 35 -151q46 0 88 26.5t73.5 64t62 99t49.5 110.5t40 120.5t29.5 107.5t21.5 92l43 195h275l-228 -1012h-274l72 266q-139 -278 -306 -278q-76 0 -129.5 30t-80 76.5t-37 108t-6.5 120zM375 1253 q12 63 62.5 107.5t107.5 44.5t87.5 -44.5t18.5 -107.5q-13 -63 -63 -107t-107 -44t-88 44t-18 107zM766 1253q12 63 62 107.5t108 44.5q57 0 87.5 -44.5t18.5 -107.5q-13 -63 -63 -107t-107 -44q-58 0 -89 44t-17 107z" />
<glyph unicode="&#xfd;" horiz-adv-x="1038" d="M-82 -457l49 232q11 0 39.5 -0.5t38 0t31.5 2.5t32.5 7t26.5 13.5t27.5 22.5t23.5 33l86 147l-143 1012h297l43 -713l373 713h299l-721 -1235q-69 -118 -165 -176t-230 -58h-107zM481 1100l232 334h256l-312 -334h-176z" />
<glyph unicode="&#xfe;" horiz-adv-x="991" d="M-41 -422l393 1852h262l-84 -394q73 27 134 27q87 0 150.5 -31t98 -82.5t49.5 -122.5t11.5 -147.5t-21.5 -161.5q-24 -114 -67.5 -210t-107 -172.5t-152 -119.5t-193.5 -43q-70 0 -123 27l-88 -422h-262zM391 387q-13 -62 17 -94.5t84 -32.5q39 0 70 17.5t50.5 41.5 t35.5 63.5t23.5 67t16.5 68.5q12 55 16 94t-1 79.5t-30.5 61.5t-70.5 21q-60 0 -102 -35t-54 -92z" />
<glyph unicode="&#xff;" horiz-adv-x="1038" d="M-82 -457l49 232q11 0 39.5 -0.5t38 0t31.5 2.5t32.5 7t26.5 13.5t27.5 22.5t23.5 33l86 147l-143 1012h297l43 -713l373 713h299l-721 -1235q-69 -118 -165 -176t-230 -58h-107zM391 1253q12 63 62.5 107.5t107.5 44.5t88 -44.5t19 -107.5q-13 -63 -63 -107t-107 -44 t-88.5 44t-18.5 107zM782 1253q12 63 62 107.5t108 44.5q57 0 88 -44.5t19 -107.5q-13 -63 -63 -107t-107 -44q-58 0 -89.5 44t-17.5 107z" />
<glyph unicode="&#x152;" horiz-adv-x="1916" d="M124 491.5q3 105.5 28 223.5t66.5 223.5t103.5 199.5t139 161.5t179 107t218 39.5q161 0 266 -78l15 62h901l-62 -289h-632l-58 -269h553l-59 -276h-553l-66 -307h633l-61 -289h-901l14 61q-137 -77 -299 -77q-116 0 -201 39.5t-133.5 107t-71 161.5t-19.5 199.5z M398.5 508q-0.5 -53 11.5 -93.5t34.5 -73.5t64 -51t99.5 -18q282 0 373 443q15 69 21.5 126.5t1.5 118.5t-26 102.5t-66.5 68t-114.5 26.5t-126 -26.5t-96 -68t-70 -102t-49.5 -118.5t-33.5 -127q-12 -57 -17.5 -105.5t-6 -101.5z" />
<glyph unicode="&#x153;" horiz-adv-x="1611" d="M61 332q0 106 22 206t69.5 190t115 156.5t166.5 106t217 39.5q206 0 295 -115q135 113 322 113q62 0 121.5 -15.5t110 -45t81.5 -80t31 -113.5q0 -54 -26 -100.5t-67 -79.5t-98.5 -60.5t-114 -44.5t-119.5 -29.5t-110 -18.5t-90 -9q-14 -58 -14 -92q0 -115 125 -115 q108 -2 256 146l170 -185q-91 -87 -170 -132.5t-137 -57.5t-140 -12q-188 0 -284 120q-143 -124 -365 -124q-188 0 -277.5 93t-89.5 259zM348 395q0 -68 30.5 -106.5t106.5 -38.5q65 0 115 36.5t77.5 94t40.5 119.5t11 123q0 137 -135 137q-65 0 -114 -35t-76 -92 t-40.5 -117t-15.5 -121zM1026 596q2 0 29 5.5t41 8.5t45 10t50.5 14t47 17t45 21.5t35 25.5t25.5 30.5t8 35.5q0 17 -25 28t-61 11q-65 0 -132.5 -55.5t-107.5 -151.5z" />
<glyph unicode="&#x178;" horiz-adv-x="1081" d="M205 1430h301l139 -627l402 627h301l-641 -959l-99 -471h-268l100 475zM502 1706q12 63 62 107.5t108 44.5q57 0 87.5 -44.5t18.5 -107.5q-14 -63 -63.5 -107.5t-106.5 -44.5q-58 0 -89 44.5t-17 107.5zM893 1706q12 63 62 107.5t108 44.5q56 0 87 -44.5t19 -107.5 q-13 -63 -63.5 -107.5t-106.5 -44.5q-58 0 -89 44.5t-17 107.5z" />
<glyph unicode="&#x2c6;" horiz-adv-x="1001" d="M592 1106l307 313h213l172 -313h-240l-69 172l-144 -172h-239z" />
<glyph unicode="&#x2dc;" horiz-adv-x="1003" d="M612 1231q60 76 122 111.5t143 35.5q39 0 69.5 -14.5t47 -31.5t43.5 -31.5t61 -14.5q60 0 116 82l109 -115q-74 -78 -131 -115.5t-129 -37.5q-38 0 -68.5 14.5t-48.5 32.5t-46.5 32.5t-63.5 14.5q-52 0 -123 -80z" />
<glyph unicode="&#x2000;" horiz-adv-x="1029" />
<glyph unicode="&#x2001;" horiz-adv-x="2058" />
<glyph unicode="&#x2002;" horiz-adv-x="1029" />
<glyph unicode="&#x2003;" horiz-adv-x="2058" />
<glyph unicode="&#x2004;" horiz-adv-x="686" />
<glyph unicode="&#x2005;" horiz-adv-x="514" />
<glyph unicode="&#x2006;" horiz-adv-x="343" />
<glyph unicode="&#x2007;" horiz-adv-x="343" />
<glyph unicode="&#x2008;" horiz-adv-x="257" />
<glyph unicode="&#x2009;" horiz-adv-x="411" />
<glyph unicode="&#x200a;" horiz-adv-x="114" />
<glyph unicode="&#x2010;" horiz-adv-x="854" d="M123 442l45 215h559l-45 -215h-559z" />
<glyph unicode="&#x2011;" horiz-adv-x="854" d="M123 442l45 215h559l-45 -215h-559z" />
<glyph unicode="&#x2012;" horiz-adv-x="854" d="M123 442l45 215h559l-45 -215h-559z" />
<glyph unicode="&#x2013;" horiz-adv-x="1193" d="M123 442l45 215h872l-45 -215h-872z" />
<glyph unicode="&#x2014;" horiz-adv-x="1562" d="M123 442l45 215h1212l-45 -215h-1212z" />
<glyph unicode="&#x2018;" horiz-adv-x="329" d="M211 1180l33 110l198 250h93l-86 -360q-14 -55 -55 -92t-91 -37t-78.5 38t-13.5 91z" />
<glyph unicode="&#x2019;" horiz-adv-x="329" d="M205 1051l86 360q12 53 54 91t91 38q50 0 78.5 -38.5t13.5 -90.5l-34 -113l-197 -247h-92z" />
<glyph unicode="&#x201a;" horiz-adv-x="360" d="M-51 -250l86 361q12 54 54 91.5t91 37.5q50 0 78.5 -38t13.5 -91l-32 -111l-199 -250h-92z" />
<glyph unicode="&#x201c;" horiz-adv-x="677" d="M211 1180l33 110l198 250h93l-86 -360q-14 -55 -55 -92t-91 -37t-78.5 38t-13.5 91zM561 1180l31 110l199 250h92l-84 -360q-14 -55 -55.5 -92t-90.5 -37q-52 0 -80.5 38t-11.5 91z" />
<glyph unicode="&#x201d;" horiz-adv-x="677" d="M205 1051l86 360q12 53 54 91t91 38q50 0 78.5 -38.5t13.5 -90.5l-34 -113l-197 -247h-92zM555 1051l84 360q12 53 54 91t91 38q50 0 79 -38.5t14 -90.5l-33 -113l-197 -247h-92z" />
<glyph unicode="&#x201e;" horiz-adv-x="708" d="M-51 -250l86 361q12 54 54 91.5t91 37.5q50 0 78.5 -38t13.5 -91l-32 -111l-199 -250h-92zM299 -250l84 361q12 54 54 91.5t91 37.5q51 0 79.5 -38t13.5 -91l-31 -111l-199 -250h-92z" />
<glyph unicode="&#x2022;" horiz-adv-x="1122" d="M211 682q0 146 102.5 248t247.5 102q146 0 249 -102t103 -248t-103 -248t-249 -102q-145 0 -247.5 102t-102.5 248z" />
<glyph unicode="&#x2026;" horiz-adv-x="1388" d="M47 156q15 73 74 124.5t125 51.5q68 0 105 -51.5t22 -124.5t-74 -124.5t-127 -51.5q-66 0 -103 51.5t-22 124.5zM489 156q15 73 74 124.5t127 51.5q66 0 103 -51.5t22 -124.5t-74 -124.5t-125 -51.5q-68 0 -105 51.5t-22 124.5zM934 156q15 73 74 124.5t127 51.5 q67 0 103.5 -51t21.5 -125q-15 -73 -73 -124.5t-126 -51.5t-105 51.5t-22 124.5z" />
<glyph unicode="&#x202f;" horiz-adv-x="411" />
<glyph unicode="&#x2039;" horiz-adv-x="724" d="M219 438l29 140l538 454l-63 -291l-283 -233l185 -234l-62 -292z" />
<glyph unicode="&#x203a;" horiz-adv-x="724" d="M123 -18l61 292l285 234l-186 233l63 291l342 -454l-29 -140z" />
<glyph unicode="&#x205f;" horiz-adv-x="514" />
<glyph unicode="&#x20ac;" horiz-adv-x="1267" d="M61 461l82 198h90q4 29 23 111h-129l82 199h117q99 224 266.5 351.5t378.5 127.5q152 0 245 -58.5t164 -189.5l-231 -203q-49 81 -102 121.5t-138 40.5q-89 0 -164.5 -49.5t-130.5 -140.5h344l-84 -199h-342q-19 -63 -22 -111h383l-84 -198h-303q37 -191 213 -191 q89 0 164 46t157 133l146 -201q-75 -75 -128 -120t-115.5 -81t-129 -50.5t-151.5 -14.5q-210 0 -324.5 128t-120.5 351h-156z" />
<glyph unicode="&#x2122;" horiz-adv-x="966" d="M174 1343l19 87h284l-18 -87h-103l-71 -346h-80l71 346h-102zM436 999l90 431h78l45 -285l168 285h76l-90 -431h-82l43 203l-119 -203h-51l-35 203l-43 -203h-80z" />
<glyph unicode="&#x25fc;" horiz-adv-x="1013" d="M0 0v1014h1014v-1014h-1014z" />
<glyph unicode="&#xfb01;" horiz-adv-x="1286" d="M-266 -457l51 232q74 0 123 12t79 40.5t45.5 64t28.5 94.5l179 792h-93l50 234h94q64 222 201 320t397 98l-51 -232q-120 0 -179.5 -43.5t-89.5 -142.5h684l-215 -1012h-272l166 778h-414l-178 -796q-54 -243 -195 -341t-411 -98zM1024 1296q0 73 61 132t136 59 q57 0 92 -35.5t35 -91.5q0 -73 -60.5 -131t-134.5 -58q-57 0 -93 35.5t-36 89.5z" />
<glyph unicode="&#xfb02;" horiz-adv-x="1286" d="M-266 -457l51 232q74 0 123 12t79 40.5t45.5 64t28.5 94.5l179 792h-93l50 234h94q64 222 201 320t397 98h438l-242 -1135q-7 -35 5.5 -49.5t50.5 -14.5l-49 -231q-171 0 -238 65t-33 226l193 907h-176q-120 0 -179.5 -43.5t-89.5 -142.5h199l-51 -234h-199l-178 -796 q-54 -243 -195 -341t-411 -98z" />
</font>
</defs>
</svg>
