<?xml version="1.0" encoding="UTF-8"?><!DOCTYPE svg PUBLIC "-//W3C//DTD SVG 1.1//EN" "http://www.w3.org/Graphics/SVG/1.1/DTD/svg11.dtd"><svg xmlns="http://www.w3.org/2000/svg"><defs>
      <radialGradient id="MyGradient" cx="50%" cy="50%" r="100%" fx="50%" fy="5%">
      <stop offset="0%" style="stop-color:rgb(97,97,97); stop-opacity:1"/>
      <stop offset="100%" style="stop-color:rgb(34,34,34); stop-opacity:1"/>
    </radialGradient>
  </defs><symbol id="ad-logo" viewBox="0 0 432 116"><g><path d="m38.1 7.9l15.6 24.8-15.4 45.8-32 13.9 31.8-84.5m-.7-7.9l39.2 61.9 23-10-36.8-51.9h-25.4m78.8 48.8l-116.2 50.3 24.8 16.9 77.9-33.1 13.5-34.1"/><path d="m353.6 67.2c.2 2.1.6 4.1 1.5 5.4 1.3 1.9 4.1 3.4 7.7 3.4 3.1 0 5.5-.9 8-3.6l6.3 4.7c-4.2 4.7-9 6.4-14.2 6.4-6.1.1-11.5-2.5-14.4-6.8-2.7-4-2.9-9.1-2.9-12.5 0-3.7.3-8.6 2.9-12.5 3-4.4 7.8-6.7 13.7-6.7 5.4 0 9.9 2.3 12.8 6.7 2.8 4.1 2.4 10.5 2.3 15.3h-23.7v.2m14.8-11.2c-1.5-2.2-3.5-3.2-6.3-3.2-5.1 0-7.5 2.6-8.4 6.9h15.6c-.1-1.7-.5-3.1-.9-3.7"/><path d="m297.2 67.9c-1.9 12.8-10.8 15.1-22.2 15.1h-17v-53.5h17c11.4 0 20.3 2.2 22.2 15.1.5 3.8.6 7.8.6 11.6 0 3.8-.1 7.9-.6 11.7m-22.2-30.5h-8.8v37.6h8.8c15.2 0 14.7-5.2 14.7-18.8 0-13.6.5-18.8-14.7-18.8"/><path d="m305.4 82.9v-37.8h7.9v37.9h-7.9v-.1"/><path d="m305.4 38.2v-9.1h7.9v9.1h-7.9"/><path d="m341.4 54.1c-2.3-1.3-3.6-1.5-5.1-1.5-3.1 0-7.1 1.8-7.1 5.4v24.9h-7.7v-37.4h7.7v1.1c2.1-1 4.6-1.5 7.1-1.5 2.7 0 5.1.5 8.5 2l-3.4 7"/><path d="m398.9 83.6c-10.9 0-17.3-8.2-17.3-19.5 0-11.3 6.4-19.5 17.3-19.5 5.4 0 8.9 1.5 14.4 7.4l-5.7 5.1c-4.1-4.4-5.8-5.1-8.7-5.1-3.2 0-5.7 1.2-7.3 3.4-1.4 1.8-2 4.4-2 8.7 0 4.2.6 6.8 2 8.7 1.6 2.3 4.1 3.4 7.3 3.4 2.8 0 4.5-.6 8.7-5l5.7 5.1c-5.5 5.8-9 7.3-14.4 7.3"/><path d="m417.8 45.1v-8.8l7.5-1.3v10.1h6.7v7h-6.7v20.9c0 .5-.1 1.1.1 1.7.2.3.4.5.9.5h4.8v7.7h-4.8c-2.9 0-5.6-1.3-7.1-3.8-1.3-2.1-1.4-4.4-1.4-6.1v-20.9-7"/><path d="m171.4 82.9l-6-15h-20.7l-6 15h-8.7l21.2-53.5h7.7l21.2 53.5h-8.7m-16.3-41.1l-7.3 18.4h14.6l-7.3-18.4"/><path d="m212.4 76.7c-2.6 4.6-7.5 7.1-13.2 7.1-2.6 0-5.1-.5-7.4-1.7v17.7h-7.8v-54.1h7.8v1.2c2.2-1.2 4.8-1.7 7.4-1.7 5.7 0 10.6 2.5 13.2 7.1 2.4 4.1 2.6 8.7 2.5 12.3.1 3.6-.2 8.2-2.5 12.1m-6.8-20.6c-1.1-1.9-3.3-3.1-6.4-3.1-3.1-.1-5.3 1.2-6.4 3.1-.5.9-.8 2.1-1 3.4v9.8c.2 1.4.5 2.5 1 3.4 1.1 1.9 3.3 3.2 6.4 3.2 3.1 0 5.3-1.3 6.4-3.2 1.3-2.1 1.5-5.1 1.5-8.4 0-2.9-.2-5.9-1.5-8.2"/><path d="m249 76.7c-2.6 4.6-7.5 7.1-13.2 7.1-2.6 0-5.1-.5-7.4-1.7v17.7h-7.8v-54.1h7.8v1.2c2.2-1.2 4.7-1.7 7.4-1.7 5.7 0 10.6 2.5 13.2 7.1 2.4 4.1 2.6 8.7 2.5 12.3 0 3.6-.2 8.2-2.5 12.1m-6.8-20.6c-1.1-1.9-3.3-3.1-6.4-3.1-3.1-.1-5.3 1.2-6.4 3.1-.5.9-.8 2.1-1 3.4v9.8c.2 1.4.5 2.5 1 3.4 1.1 1.9 3.3 3.2 6.4 3.2 3.1 0 5.3-1.3 6.4-3.2 1.3-2.1 1.5-5.1 1.5-8.4 0-2.9-.2-5.9-1.5-8.2"/></g></symbol><symbol id="arrow_left" viewBox="0 0 218.2 218.2">
<path d="M209.6,66.6c-5.5-13-13.4-24.7-23.4-34.7s-21.7-17.9-34.7-23.4C138.1,2.9,123.8,0,109.1,0c-14.7,0-29,2.9-42.5,8.6
	C53.6,14.1,42,21.9,32,32c-10,10-17.9,21.7-23.4,34.7C2.9,80.1,0,94.4,0,109.1c0,14.7,2.9,29,8.6,42.5c5.5,13,13.4,24.7,23.4,34.7
	c10,10,21.7,17.9,34.7,23.4c13.5,5.7,27.7,8.6,42.5,8.6c14.7,0,29-2.9,42.5-8.6c13-5.5,24.7-13.4,34.7-23.4
	c10-10,17.9-21.7,23.4-34.7c5.7-13.5,8.6-27.7,8.6-42.5C218.2,94.4,215.3,80.1,209.6,66.6z M178,178c-18.4,18.4-42.9,28.5-68.9,28.5
	c-26,0-50.5-10.1-68.9-28.5s-28.5-42.9-28.5-68.9c0-26,10.1-50.5,28.5-68.9s42.9-28.5,68.9-28.5c26,0,50.5,10.1,68.9,28.5
	s28.5,42.9,28.5,68.9C206.5,135.1,196.4,159.6,178,178z"/>
<path d="M109.1,23.3c-47.4,0-85.8,38.4-85.8,85.8s38.4,85.8,85.8,85.8c47.4,0,85.8-38.4,85.8-85.8S156.5,23.3,109.1,23.3z
	 M124.5,147.1l-3.1,3.1c-1.6,1.6-4.1,1.6-5.6,0l-41.1-41.1L115.7,68c1.6-1.6,4.1-1.6,5.6,0l3.1,3.1c1.6,1.6,1.6,4.1,0,5.6
	l-32.3,32.3l32.3,32.3C126,143,126,145.5,124.5,147.1z"/>
</symbol><symbol id="arrow_right" viewBox="0 0 218.2 218.2">
<path d="M0,109.1c0,14.7,2.9,29,8.6,42.5c5.5,13,13.4,24.7,23.4,34.7c10,10,21.7,17.9,34.7,23.4c13.5,5.7,27.7,8.6,42.5,8.6
	c14.7,0,29-2.9,42.5-8.6c13-5.5,24.7-13.4,34.7-23.4c10-10,17.9-21.7,23.4-34.7c5.7-13.5,8.6-27.7,8.6-42.5c0-14.7-2.9-29-8.6-42.5
	c-5.5-13-13.4-24.7-23.4-34.7c-10-10-21.7-17.9-34.7-23.4C138.1,2.9,123.8,0,109.1,0c-14.7,0-29,2.9-42.5,8.6
	C53.6,14.1,42,21.9,32,32S14.1,53.6,8.6,66.6C2.9,80.1,0,94.4,0,109.1z M11.7,109.1c0-26,10.1-50.5,28.5-68.9s42.9-28.5,68.9-28.5
	c26,0,50.5,10.1,68.9,28.5s28.5,42.9,28.5,68.9c0,26-10.1,50.5-28.5,68.9s-42.9,28.5-68.9,28.5c-26,0-50.5-10.1-68.9-28.5
	S11.7,135.1,11.7,109.1z"/>
<path d="M23.3,109.1c0,47.4,38.4,85.8,85.8,85.8c47.4,0,85.8-38.4,85.8-85.8s-38.4-85.8-85.8-85.8C61.7,23.3,23.3,61.7,23.3,109.1z
	 M93.7,141.4l32.3-32.3L93.7,76.7c-1.6-1.6-1.6-4.1,0-5.6l3.1-3.1c1.6-1.6,4.1-1.6,5.6,0l41.1,41.1l-41.1,41.1
	c-1.6,1.6-4.1,1.6-5.6,0l-3.1-3.1C92.2,145.5,92.2,143,93.7,141.4z"/>
</symbol><symbol id="billing_dist" viewBox="0 0 219 220"><g><path d="m147.1 126.1l-12.2-22.4-22.4 12.3 12.2 22.4 22.4-12.3m-28.6-52.2l-89.5 48.9 8.2 14.9 89.6-48.9-8.3-14.9m-8.9-49.5c-46 0-83.6 36.3-85.7 81.8l94-51.3c4.1-2.3 9.3-.7 11.5 3.4l36.7 67.2c2.3 4.1.7 9.3-3.4 11.5l-91.5 50c11.5 5.8 24.5 9 38.3 9 47.4 0 85.8-38.4 85.8-85.8 0-47.4-38.4-85.8-85.7-85.8"/><path d="m109.6 219.3c-14.7 0-29-2.9-42.5-8.6-13-5.5-24.7-13.4-34.7-23.4-10-10-17.9-21.7-23.4-34.7-5.7-13.5-8.6-27.7-8.6-42.5 0-14.7 2.9-29 8.6-42.5 5.5-13 13.4-24.7 23.4-34.7 10-10 21.7-17.9 34.7-23.4 13.5-5.7 27.7-8.6 42.5-8.6 14.8 0 29 2.9 42.5 8.6 13 5.5 24.7 13.4 34.7 23.4 10 10 17.9 21.7 23.4 34.7 5.7 13.5 8.6 27.7 8.6 42.5 0 14.7-2.9 29-8.6 42.5-5.5 13-13.4 24.7-23.4 34.7-10 10-21.7 17.9-34.7 23.4-13.5 5.7-27.8 8.6-42.5 8.6m0-206.5c-26 0-50.5 10.1-68.9 28.5-18.4 18.4-28.5 42.9-28.5 68.9 0 26 10.1 50.5 28.5 68.9 18.4 18.4 42.9 28.5 68.9 28.5 26 0 50.5-10.1 68.9-28.5 18.4-18.4 28.5-42.9 28.5-68.9 0-26-10.1-50.5-28.5-68.9-18.5-18.4-42.9-28.5-68.9-28.5"/></g></symbol><symbol id="eye" viewBox="0 0 218.2 218.2">
<path d="M209.6,66.6c-5.5-13-13.4-24.7-23.4-34.7s-21.7-17.9-34.7-23.4C138.1,2.9,123.8,0,109.1,0c-14.7,0-29,2.9-42.5,8.6
	C53.6,14.1,42,21.9,32,32c-10,10-17.9,21.7-23.4,34.7C2.9,80.1,0,94.4,0,109.1c0,14.7,2.9,29,8.6,42.5c5.5,13,13.4,24.7,23.4,34.7
	c10,10,21.7,17.9,34.7,23.4c13.5,5.7,27.7,8.6,42.5,8.6c14.7,0,29-2.9,42.5-8.6c13-5.5,24.7-13.4,34.7-23.4
	c10-10,17.9-21.7,23.4-34.7c5.7-13.5,8.6-27.7,8.6-42.5C218.2,94.4,215.3,80.1,209.6,66.6z M178,178c-18.4,18.4-42.9,28.5-68.9,28.5
	c-26,0-50.5-10.1-68.9-28.5s-28.5-42.9-28.5-68.9c0-26,10.1-50.5,28.5-68.9s42.9-28.5,68.9-28.5c26,0,50.5,10.1,68.9,28.5
	s28.5,42.9,28.5,68.9C206.5,135.1,196.4,159.6,178,178z M109.1,23.3c-47.4,0-85.8,38.4-85.8,85.8s38.4,85.8,85.8,85.8
	c47.4,0,85.8-38.4,85.8-85.8S156.5,23.3,109.1,23.3z M109.1,152.3c-26.9,0-49.4-18.4-55.8-43.2c6.4-24.9,28.9-43.2,55.8-43.2
	c26.9,0,49.4,18.4,55.8,43.2C158.4,133.9,135.9,152.3,109.1,152.3z M109.1,80.3c-15.9,0-28.8,12.9-28.8,28.8
	c0,15.9,12.9,28.8,28.8,28.8c15.9,0,28.8-12.9,28.8-28.8C137.9,93.2,125,80.3,109.1,80.3z M109.1,127.1c-10,0-18-8.1-18-18
	c0-10,8.1-18,18-18c0.3,0,0.5,0.1,0.8,0.1c-0.4,1.2-0.8,2.5-0.8,3.5c0,8,6.4,14.4,14.4,14.4c1.1,0,2.3-0.3,3.5-0.8
	c0,0.3,0.1,0.5,0.1,0.8C127.1,119,119,127.1,109.1,127.1z"/>
</symbol><symbol id="gradient">
  
</symbol><symbol id="growthchart_dch_edit" viewBox="0 0 1600 1032.4">
<g id="top-icons">
	<g id="btn-1" class="step-1">
		<g class="ring">
			<path class="step-1-high" d="M174.5,883.7c-8.1,0-16-1.6-23.4-4.7c-7.1-3-13.6-7.3-19.1-12.9c-5.5-5.5-9.8-11.9-12.9-19.1
				c-3.1-7.4-4.7-15.3-4.7-23.4s1.6-16,4.7-23.4c3-7.1,7.3-13.6,12.9-19.1c5.5-5.5,11.9-9.8,19.1-12.9c7.4-3.1,15.3-4.7,23.4-4.7
				c8.1,0,16,1.6,23.4,4.7c7.1,3,13.6,7.3,19.1,12.9c5.5,5.5,9.8,11.9,12.9,19.1c3.1,7.4,4.7,15.3,4.7,23.4s-1.6,16-4.7,23.4
				c-3,7.1-7.3,13.6-12.9,19.1c-5.5,5.5-11.9,9.8-19.1,12.9C190.4,882.1,182.6,883.7,174.5,883.7z M174.5,770.1
				c-14.3,0-27.8,5.6-37.9,15.7c-10.1,10.1-15.7,23.6-15.7,37.9s5.6,27.8,15.7,37.9c10.1,10.1,23.6,15.7,37.9,15.7
				s27.8-5.6,37.9-15.7c10.1-10.1,15.7-23.6,15.7-37.9s-5.6-27.8-15.7-37.9C202.2,775.7,188.8,770.1,174.5,770.1z"/>
				<polygon fill="#A6D7EA" points="163.5,881.8 174.5,892.7 185.5,881.8 		"/>
		</g>
		<g>
			<path class="step-1-high" d="M195.1,832.5l-6.7-12.3l-12.3,6.7l6.7,12.3L195.1,832.5z M179.4,803.7l-49.3,26.9l4.5,8.2l49.3-26.9
				L179.4,803.7z M174.5,776.5c-25.3,0-46,19.9-47.1,45l51.7-28.2c2.3-1.2,5.1-0.4,6.3,1.9l20.2,37c1.2,2.3,0.4,5.1-1.9,6.3
				l-50.3,27.5c6.3,3.2,13.5,5,21.1,5c26.1,0,47.2-21.1,47.2-47.2C221.7,797.7,200.5,776.5,174.5,776.5z"/>
			<rect x="110" y="765" width="130" height="130" fill="#ff0000" fill-opacity="0.0"/>
		</g>

	</g>
	<g id="btn-2" class="step-2">
		<g class="ring">
			<path class="step-2-high" d="M424.7,790.9c-8.1,0-16-1.6-23.4-4.7c-7.1-3-13.6-7.3-19.1-12.9c-5.5-5.5-9.8-11.9-12.9-19.1
				c-3.1-7.4-4.7-15.3-4.7-23.4s1.6-16,4.7-23.4c3-7.1,7.3-13.6,12.9-19.1c5.5-5.5,11.9-9.8,19.1-12.9c7.4-3.1,15.3-4.7,23.4-4.7
				c8.1,0,16,1.6,23.4,4.7c7.1,3,13.6,7.3,19.1,12.9c5.5,5.5,9.8,11.9,12.9,19.1c3.1,7.4,4.7,15.3,4.7,23.4s-1.6,16-4.7,23.4
				c-3,7.1-7.3,13.6-12.9,19.1c-5.5,5.5-11.9,9.8-19.1,12.9C440.7,789.3,432.8,790.9,424.7,790.9z M424.7,677.3
				c-14.3,0-27.8,5.6-37.9,15.7c-10.1,10.1-15.7,23.6-15.7,37.9s5.6,27.8,15.7,37.9c10.1,10.1,23.6,15.7,37.9,15.7
				c14.3,0,27.8-5.6,37.9-15.7c10.1-10.1,15.7-23.6,15.7-37.9s-5.6-27.8-15.7-37.9S439,677.3,424.7,677.3z"/>
				<polygon fill="#2F9BC2" points="413.7,788.9 424.7,799.9 435.7,788.9 		"/>
		</g>
		<g>
			<path class="step-2-high" d="M394.8,757.1c8.9-2.7,6.3-10.2,6.3-10.2c-2.1-3-3.8-4.9-5-8.9c0,0,0,0-0.1,0c-4.5,0-7-13.4-1.3-13.4
				c1-10.2,7.2-17.9,14.7-17.9c7.6,0,13.8,7.7,14.7,17.9c5.7,0,3.2,13.4-1.3,13.4c0,0,0,0-0.1,0c-1.1,4.1-2.9,6-5,8.9
				c0,0,0.4,9.6,11.3,12.6c4.2,1.2,7.2,5,7.2,9.4v7.8c2.3-0.6,4.5-1.3,6.7-2.2v-5.5c0-7.4-5-13.9-12.1-15.9
				c-0.3-0.1-0.6-0.2-0.9-0.4c-2.9-2.8-3.1-6.7-1.9-9.6c3.9-2.7,6.1-8.2,6.1-13.6c0-2.7-0.6-5-1.7-6.9c-0.4-0.8-1-1.4-1.6-2
				c2.6-3.1,6-5,9.8-5c7.6,0,13.8,7.7,14.8,17.9c2.2,0,3.2,2,3.3,4.5h-0.1v2.2c-0.5,3.4-2.2,6.8-4.5,6.8c0,0,0,0-0.1,0
				c-1.2,4.1-2.9,6-5,8.9c0,0-2.6,7.6,6.5,10.2c0.1,0,0.3,0.1,0.4,0.1c9.8-8.6,15.9-21.3,15.9-35.3c0-26.1-21.1-47.2-47.2-47.2
				c-26.1,0-47.2,21.1-47.2,47.2c0,11.7,4.3,22.4,11.3,30.7C390.2,759.4,392.3,757.8,394.8,757.1z"/>
				<rect x="360" y="665" width="130" height="130" fill="#ff0000" fill-opacity="0.0"/>
		</g>

	</g>
	<g id="btn-3" class="step-3">
		<g class="ring">
			<path class="step-3-high" d="M674.9,668.2c-8.1,0-16-1.6-23.4-4.7c-7.1-3-13.6-7.3-19.1-12.9c-5.5-5.5-9.8-11.9-12.9-19.1
				c-3.1-7.4-4.7-15.3-4.7-23.4s1.6-16,4.7-23.4c3-7.1,7.3-13.6,12.9-19.1c5.5-5.5,11.9-9.8,19.1-12.9c7.4-3.1,15.3-4.7,23.4-4.7
				s16,1.6,23.4,4.7c7.1,3,13.6,7.3,19.1,12.9c5.5,5.5,9.8,11.9,12.9,19.1c3.1,7.4,4.7,15.3,4.7,23.4s-1.6,16-4.7,23.4
				c-3,7.1-7.3,13.6-12.9,19.1c-5.5,5.5-11.9,9.8-19.1,12.9C690.9,666.6,683,668.2,674.9,668.2z M674.9,554.6
				c-14.3,0-27.8,5.6-37.9,15.7c-10.1,10.1-15.7,23.6-15.7,37.9s5.6,27.8,15.7,37.9c10.1,10.1,23.6,15.7,37.9,15.7
				s27.8-5.6,37.9-15.7c10.1-10.1,15.7-23.6,15.7-37.9s-5.6-27.8-15.7-37.9S689.2,554.6,674.9,554.6z"/>
				<polygon fill="#145A7D" points="663.9,666.2 674.9,677.2 685.9,666.2 		"/>
			</g>
		<g>

				<path class="step-3-high" d="M714.1,592.3h-41.4v8.3h41.4V592.3z M672.7,617h41.4v-8.3h-41.4V617z M693.3,629.4l-20.6,16.5v-16.5h-8.3
					c-2.3,0-4.1-1.8-4.1-4.1V584c0-2.3,1.8-4.1,4.1-4.1h48.2c-8.6-11.4-22.3-18.8-37.7-18.8c-26.1,0-47.2,21.1-47.2,47.2
					s21.1,47.2,47.2,47.2c18.4,0,34.4-10.6,42.2-26H693.3z"/>
					<rect x="610" y="545" width="130" height="130" fill="#ff0000" fill-opacity="0.0"/>
		</g>

	</g>
	<g id="btn-4" class="step-4">
		<g class="ring">

				<path class="step-4-high" d="M925.1,408.2c-26.1,0-47.2,21.1-47.2,47.2c0,8.6,2.3,16.7,6.3,23.6h11.5v-23.5h23.5v-11.7h-11.7V432h35.2
					v11.7H931v11.7h23.5V479h11.5c4-6.9,6.3-15,6.3-23.6C972.3,429.3,951.2,408.2,925.1,408.2z M942.7,499.1c4.3-1.7,8.2-4,11.7-6.9
					v-1.5h-11.7V499.1z M895.7,492.3c3.5,2.8,7.5,5.1,11.7,6.9v-8.4h-11.7V492.3z M942.7,467.2h-35.2V479h11.7v23.2
					c1.9,0.2,3.9,0.4,5.9,0.4c2,0,3.9-0.1,5.9-0.4V479h11.7V467.2z"/>
				<polygon fill="#0F6F67" points="914.1,513.4 925.1,524.4 936.1,513.4 		"/>
		</g>
		<path class="step-4-high" d="M925.1,515.4c-8.1,0-16-1.6-23.4-4.7c-7.1-3-13.6-7.3-19.1-12.9c-5.5-5.5-9.8-11.9-12.9-19.1
			c-3.1-7.4-4.7-15.3-4.7-23.4s1.6-16,4.7-23.4c3-7.1,7.3-13.6,12.9-19.1c5.5-5.5,11.9-9.8,19.1-12.9c7.4-3.1,15.3-4.7,23.4-4.7
			s16,1.6,23.4,4.7c7.1,3,13.6,7.3,19.1,12.9s9.8,11.9,12.9,19.1c3.1,7.4,4.7,15.3,4.7,23.4s-1.6,16-4.7,23.4
			c-3,7.1-7.3,13.6-12.9,19.1s-11.9,9.8-19.1,12.9C941.1,513.8,933.2,515.4,925.1,515.4z M925.1,401.8c-14.3,0-27.8,5.6-37.9,15.7
			c-10.1,10.1-15.7,23.6-15.7,37.9s5.6,27.8,15.7,37.9c10.1,10.1,23.6,15.7,37.9,15.7s27.8-5.6,37.9-15.7
			c10.1-10.1,15.7-23.6,15.7-37.9s-5.6-27.8-15.7-37.9C952.9,407.3,939.4,401.8,925.1,401.8z"/>
			<rect x="860" y="390" width="130" height="130" fill="#ff0000" fill-opacity="0.0"/>
	</g>
	<g id="btn-5" class="step-5">
			<g>
				<path class="step-5-high" d="M1140.9,252.4h68.2v52.7c8.3-8.5,13.4-20.1,13.4-32.9c0-26.1-21.1-47.2-47.2-47.2s-47.2,21.1-47.2,47.2
					c0,12.5,4.9,23.9,12.8,32.3V252.4z"/>
				<path class="step-5-high" d="M1149.5,311.7c0.2,0.1,0.4,0.3,0.6,0.4h50.5c0,0,0,0,0.1,0v-42.6h-51.1V311.7z M1162.2,286.5h8.5V278
					h8.5v8.5h8.5v8.5h-8.5v8.5h-8.5V295h-8.5V286.5z"/>
			</g>
			<g class="ring">
				<path class="step-5-high" d="M1175.3,332.2c-8.1,0-16-1.6-23.4-4.7c-7.1-3-13.6-7.3-19.1-12.9c-5.5-5.5-9.8-11.9-12.9-19.1
				c-3.1-7.4-4.7-15.3-4.7-23.4s1.6-16,4.7-23.4c3-7.1,7.3-13.6,12.9-19.1c5.5-5.5,11.9-9.8,19.1-12.9c7.4-3.1,15.3-4.7,23.4-4.7
				s16,1.6,23.4,4.7c7.1,3,13.6,7.3,19.1,12.9c5.5,5.5,9.8,11.9,12.9,19.1c3.1,7.4,4.7,15.3,4.7,23.4s-1.6,16-4.7,23.4
				c-3,7.1-7.3,13.6-12.9,19.1c-5.5,5.5-11.9,9.8-19.1,12.9C1191.3,330.6,1183.4,332.2,1175.3,332.2z M1175.3,218.6
				c-14.3,0-27.8,5.6-37.9,15.7c-10.1,10.1-15.7,23.6-15.7,37.9s5.6,27.8,15.7,37.9c10.1,10.1,23.6,15.7,37.9,15.7
				s27.8-5.6,37.9-15.7c10.1-10.1,15.7-23.6,15.7-37.9s-5.6-27.8-15.7-37.9C1203.1,224.2,1189.6,218.6,1175.3,218.6z"/>
				<polygon fill="#64A62E" points="1164.1,330.3 1175,341.2 1186,330.3 		"/>
		</g>
		<rect x="1110" y="208" width="130" height="130" fill="#ff0000" fill-opacity="0.0"/>
	</g>
	<g id="btn-6" class="step-6">
		<g class="ring">
			<path class="step-6-high" d="M1425.5,120c-8.1,0-16-1.6-23.4-4.7c-7.1-3-13.6-7.3-19.1-12.9c-5.5-5.5-9.8-11.9-12.9-19.1
				c-3.1-7.4-4.7-15.3-4.7-23.4s1.6-16,4.7-23.4c3-7.1,7.3-13.6,12.9-19.1c5.5-5.5,11.9-9.8,19.1-12.9c7.4-3.1,15.3-4.7,23.4-4.7
				c8.1,0,16,1.6,23.4,4.7c7.1,3,13.6,7.3,19.1,12.9c5.5,5.5,9.8,11.9,12.9,19.1c3.1,7.4,4.7,15.3,4.7,23.4s-1.6,16-4.7,23.4
				c-3,7.1-7.3,13.6-12.9,19.1c-5.5,5.5-11.9,9.8-19.1,12.9C1441.5,118.4,1433.6,120,1425.5,120z M1425.5,6.4
				c-14.3,0-27.8,5.6-37.9,15.7c-10.1,10.1-15.7,23.6-15.7,37.9s5.6,27.8,15.7,37.9c10.1,10.1,23.6,15.7,37.9,15.7
				s27.8-5.6,37.9-15.7s15.7-23.6,15.7-37.9s-5.6-27.8-15.7-37.9S1439.8,6.4,1425.5,6.4z"/>
				<polygon class="step-6-high" points="1414.5,118 1425.5,129 1436.5,118 		"/>
			</g>
			<g>
				<path class="step-6-high" d="M1425.5,12.8c-26.1,0-47.2,21.1-47.2,47.2c0,13.5,5.6,25.6,14.7,34.2v-12c2.2,0.8,4.5,1.2,7,1.2
					c2.4,0,4.8-0.4,7-1.2v14.5h37.1V82.2c2.2,0.8,4.5,1.2,7,1.2c2.4,0,4.8-0.4,7-1.2v12c9-8.6,14.7-20.7,14.7-34.2
					C1472.7,33.9,1451.6,12.8,1425.5,12.8z M1451,72.9c-4.4,0-8.3-2.5-10.2-6.1c-2.2,6.3-8.2,10.8-15.3,10.8c-7,0-13-4.5-15.3-10.8
					c-2,3.6-5.8,6.1-10.2,6.1c-6.4,0-11.6-5.2-11.6-11.6l7.7-21.2c0.9-2.4,3.7-4.3,6.2-4.3h46.4c2.5,0,5.4,1.9,6.2,4.3l7.7,21.2
					C1462.6,67.7,1457.4,72.9,1451,72.9z"/>
			</g>
			<rect x="1360" y="0" width="130" height="130" fill="#ff0000" fill-opacity="0.0"/>
	</g>
</g>
<g id="bars">
	<g id="col-1">
		<g class="step-1">
			<path class="step-1-low" d="M264,961.4H85v-52c0-3.3,2.7-6,6-6h167c3.3,0,6,2.7,6,6V961.4z"/>
			<polygon class="step-1-high" points="264,961.4 85,961.4 85,909.4 			"/>
		</g>
	</g>
	<g id="col-2">
		<g class="step-1">
			<path class="step-1-low" d="M514.2,961.4h-179v-82c0-3.3,2.7-6,6-6h167c3.3,0,6,2.7,6,6V961.4z"/>
			<polygon class="step-1-high" points="514.2,961.4 335.2,961.4 335.2,879.4 			"/>
		</g>
		<g class="step-2">
			<path class="step-2-low" d="M508.2,868.4h-167c-3.3,0-6-2.7-6-6v-46c0-3.3,2.7-6,6-6h167c3.3,0,6,2.7,6,6v46
				C514.2,865.7,511.5,868.4,508.2,868.4z"/>
			<path class="step-2-high" d="M508.2,868.4h-167c-3.3,0-6-2.7-6-6v-46L508.2,868.4z"/>
		</g>
	</g>
	<g id="col-3">
		<g class="step-1">
			<path class="step-1-low" d="M764.4,961.4h-179v-112c0-3.3,2.7-6,6-6h167c3.3,0,6,2.7,6,6V961.4z"/>
			<polygon class="step-1-high" points="764.4,961.4 585.4,961.4 585.4,849.4 			"/>
		</g>
		<g class="step-2">
			<path class="step-2-low" d="M758.4,838.4h-167c-3.3,0-6-2.7-6-6v-76c0-3.3,2.7-6,6-6h167c3.3,0,6,2.7,6,6v76
				C764.4,835.7,761.7,838.4,758.4,838.4z"/>
			<path class="step-2-high" d="M758.4,838.4h-167c-3.3,0-6-2.7-6-6v-76L758.4,838.4z"/>
		</g>
		<g class="step-3">
			<path class="step-3-low" d="M758.4,745.4h-167c-3.3,0-6-2.7-6-6v-46c0-3.3,2.7-6,6-6h167c3.3,0,6,2.7,6,6v46
				C764.4,742.7,761.7,745.4,758.4,745.4z"/>
			<path class="step-3-high" d="M758.4,745.4h-167c-3.3,0-6-2.7-6-6v-46L758.4,745.4z"/>
		</g>
	</g>
	<g id="col-4">
		<g class="step-1">
			<path class="step-1-low" d="M1014.6,961.4h-179v-142c0-3.3,2.7-6,6-6h167c3.3,0,6,2.7,6,6V961.4z"/>
			<polygon class="step-1-high" points="1014.6,961.4 835.6,961.4 835.6,819.4 			"/>
		</g>
		<g class="step-2">
			<path class="step-2-low" d="M1008.6,808.4h-167c-3.3,0-6-2.7-6-6v-106c0-3.3,2.7-6,6-6h167c3.3,0,6,2.7,6,6v106
				C1014.6,805.7,1011.9,808.4,1008.6,808.4z"/>
			<path class="step-2-high" d="M1008.6,808.4h-167c-3.3,0-6-2.7-6-6v-106L1008.6,808.4z"/>
		</g>
		<g class="step-3">
			<path class="step-3-low" d="M1008.6,685.4h-167c-3.3,0-6-2.7-6-6v-76c0-3.3,2.7-6,6-6h167c3.3,0,6,2.7,6,6v76
				C1014.6,682.7,1011.9,685.4,1008.6,685.4z"/>
			<path class="step-3-high" d="M1008.6,685.4h-167c-3.3,0-6-2.7-6-6v-76L1008.6,685.4z"/>
		</g>
		<g class="step-4">
			<path class="step-4-low" d="M1008.6,592.4h-167c-3.3,0-6-2.7-6-6v-46c0-3.3,2.7-6,6-6h167c3.3,0,6,2.7,6,6v46
				C1014.6,589.7,1011.9,592.4,1008.6,592.4z"/>
			<path class="step-4-high" d="M1008.6,592.4h-167c-3.3,0-6-2.7-6-6v-46L1008.6,592.4z"/>
		</g>
	</g>
	<g id="col-5">
		<g class="step-1">
			<path class="step-1-low" d="M1264.8,961.4h-179v-172c0-3.3,2.7-6,6-6h167c3.3,0,6,2.7,6,6V961.4z"/>
			<polygon class="step-1-high" points="1264.8,961.4 1085.8,961.4 1085.8,789.4 			"/>
		</g>
		<g class="step-2">
			<path class="step-2-low" d="M1258.8,778.4h-167c-3.3,0-6-2.7-6-6v-136c0-3.3,2.7-6,6-6h167c3.3,0,6,2.7,6,6v136
				C1264.8,775.7,1262.1,778.4,1258.8,778.4z"/>
			<path class="step-2-high" d="M1258.8,778.4h-167c-3.3,0-6-2.7-6-6v-136L1258.8,778.4z"/>
		</g>
		<g class="step-3">
			<path class="step-3-low" d="M1258.8,625.4h-167c-3.3,0-6-2.7-6-6v-106c0-3.3,2.7-6,6-6h167c3.3,0,6,2.7,6,6v106
				C1264.8,622.7,1262.1,625.4,1258.8,625.4z"/>
			<path class="step-3-high" d="M1258.8,625.4h-167c-3.3,0-6-2.7-6-6v-106L1258.8,625.4z"/>
		</g>
		<g class="step-4">
			<path class="step-4-low" d="M1258.8,502.4h-167c-3.3,0-6-2.7-6-6v-76c0-3.3,2.7-6,6-6h167c3.3,0,6,2.7,6,6v76
				C1264.8,499.7,1262.1,502.4,1258.8,502.4z"/>
			<path class="step-4-high" d="M1258.8,502.4h-167c-3.3,0-6-2.7-6-6v-76L1258.8,502.4z"/>
		</g>
		<g class="step-5">
			<path class="step-5-low" d="M1258.8,409.4h-167c-3.3,0-6-2.7-6-6v-46c0-3.3,2.7-6,6-6h167c3.3,0,6,2.7,6,6v46
				C1264.8,406.7,1262.1,409.4,1258.8,409.4z"/>
				<path class="step-5-high" d="M1258.8,409.4h-167c-3.3,0-6-2.7-6-6v-46L1258.8,409.4z"/>
		</g>
	</g>
	<g id="col-6">
		<g class="step-1">
			<path class="step-1-low" d="M1515,961.4h-179v-202c0-3.3,2.7-6,6-6h167c3.3,0,6,2.7,6,6V961.4z"/>
			<polygon class="step-1-high" points="1515,961.4 1336,961.4 1336,759.4 			"/>
		</g>
		<g class="step-2">
			<path class="step-2-low" d="M1509,748.4h-167c-3.3,0-6-2.7-6-6v-166c0-3.3,2.7-6,6-6h167c3.3,0,6,2.7,6,6v166
				C1515,745.7,1512.3,748.4,1509,748.4z"/>
			<path class="step-2-high" d="M1509,748.4h-167c-3.3,0-6-2.7-6-6v-166L1509,748.4z"/>
		</g>
		<g class="step-3">
			<path class="step-3-low" d="M1509,565.4h-167c-3.3,0-6-2.7-6-6v-136c0-3.3,2.7-6,6-6h167c3.3,0,6,2.7,6,6v136
				C1515,562.7,1512.3,565.4,1509,565.4z"/>
			<path class="step-3-high" d="M1509,565.4h-167c-3.3,0-6-2.7-6-6v-136L1509,565.4z"/>
		</g>
		<g class="step-4">
			<path class="step-4-low" d="M1509,412.4h-167c-3.3,0-6-2.7-6-6v-106c0-3.3,2.7-6,6-6h167c3.3,0,6,2.7,6,6v106
				C1515,409.7,1512.3,412.4,1509,412.4z"/>
			<path class="step-4-high" d="M1509,412.4h-167c-3.3,0-6-2.7-6-6v-106L1509,412.4z"/>
		</g>
		<g class="step-5">
			<path class="step-5-low" d="M1509,289.4h-167c-3.3,0-6-2.7-6-6v-76c0-3.3,2.7-6,6-6h167c3.3,0,6,2.7,6,6v76
				C1515,286.7,1512.3,289.4,1509,289.4z"/>
			<path class="step-5-high" d="M1509,289.4h-167c-3.3,0-6-2.7-6-6v-76L1509,289.4z"/>
		</g>
		<g class="step-6">
			<path class="step-6-low" d="M1509,196.4h-167c-3.3,0-6-2.7-6-6v-46c0-3.3,2.7-6,6-6h167c3.3,0,6,2.7,6,6v46
				C1515,193.7,1512.3,196.4,1509,196.4z"/>
			<path class="step-6-high" d="M1509,196.4h-167c-3.3,0-6-2.7-6-6v-46L1509,196.4z"/>
		</g>
	</g>

</g>
<g id="bottom">
	<path fill="#E3E6E6" d="M1591.5,979.4H8.5c-4.7,0-8.5-3.8-8.5-8.5v-8.5h1600v8.5C1600,975.5,1596.2,979.4,1591.5,979.4z"/>
	<rect y="961.4" fill="#ADAEAF" width="1600" height="2"/>
</g>
</symbol><symbol id="hover" viewBox="0 0 109 109">
<path fill="#404042" d="M54.5,109C24.4,109,0,84.6,0,54.5S24.4,0,54.5,0S109,24.4,109,54.5S84.6,109,54.5,109z M54.5,4
	C26.7,4,4,26.7,4,54.5S26.7,105,54.5,105S105,82.3,105,54.5S82.3,4,54.5,4z"/>
</symbol><symbol id="login_icon" viewBox="0 0 112.2 113.5">
<path id="Shape_3_" d="M91.6,81.5c-28.4,0-22.2-17.7-22.2-17.7c3.4-4.7,6.1-7.7,7.9-14.1c0,0,0.1,0,0.1,0c7.1,0,11.1-21.3,2.1-21.3
	C78,12.2,68.2,0,56.2,0c-12,0-21.8,12.2-23.3,28.4c-9.1,0-5,21.3,2.1,21.3c0,0,0.1,0,0.1,0c1.8,6.4,4.5,9.4,7.9,14.1
	c0,0,6.2,17.7-22.2,17.7c-11.6,0-18.5,12-20.6,24.2c-0.3,2,0.2,4,1.5,5.5c1.3,1.5,3.1,2.4,5.1,2.4h49.4h49.4c2,0,3.9-0.9,5.1-2.4
	c1.3-1.5,1.8-3.5,1.5-5.5C110.1,93.5,103.3,81.5,91.6,81.5L91.6,81.5L91.6,81.5z"/>
</symbol><symbol id="marketplace_management" viewBox="0 0 219 220">
    <g>
      <path d="m109.5 219.3c-14.7 0-29-2.9-42.5-8.6-13-5.5-24.7-13.4-34.7-23.4-10-10-17.9-21.7-23.4-34.7-5.7-13.5-8.6-27.7-8.6-42.5 0-14.7 2.9-29 8.6-42.5 5.5-13 13.4-24.7 23.4-34.7 10-10 21.7-17.9 34.7-23.4 13.5-5.7 27.7-8.6 42.5-8.6 14.8 0 29 2.9 42.5 8.6 13 5.5 24.7 13.4 34.7 23.4 10 10 17.9 21.7 23.4 34.7 5.7 13.5 8.6 27.7 8.6 42.5 0 14.7-2.9 29-8.6 42.5-5.5 13-13.4 24.7-23.4 34.7-10 10-21.7 17.9-34.7 23.4-13.5 5.7-27.8 8.6-42.5 8.6m0-206.5c-26 0-50.5 10.1-68.9 28.5-18.4 18.4-28.5 42.9-28.5 68.9 0 26 10.1 50.5 28.5 68.9 18.4 18.4 42.9 28.5 68.9 28.5 26 0 50.5-10.1 68.9-28.5 18.4-18.4 28.5-42.9 28.5-68.9 0-26-10.1-50.5-28.5-68.9-18.4-18.4-42.9-28.5-68.9-28.5" bbox=".3 .9 218.4 218.4"/>
      <path d="m109.5 24.4c-47.4 0-85.8 38.4-85.8 85.8 0 24.5 10.3 46.5 26.7 62.2v-21.8c4 1.4 8.2 2.2 12.7 2.2 4.4 0 8.7-.8 12.7-2.2v26.3h67.5v-26.3c4 1.4 8.2 2.2 12.7 2.2 4.4 0 8.7-.8 12.7-2.2v21.8c16.4-15.6 26.7-37.7 26.7-62.2-.1-47.4-38.5-85.8-85.9-85.8m46.4 109.3c-8 0-15-4.5-18.6-11.1-4.1 11.4-15 19.6-27.8 19.6-12.8 0-23.7-8.2-27.8-19.6-3.6 6.6-10.6 11.1-18.6 11.1-11.7 0-21.1-9.4-21.1-21.1l14-38.5c1.6-4.4 6.6-7.9 11.3-7.9h84.3c4.6 0 9.7 3.5 11.3 7.9l14 38.5c.1 11.7-9.3 21.1-21 21.1" bbox="23.7 24.4 171.7 152.5"/>
    
  </g>
</symbol><symbol id="multiple_products" viewBox="0 0 219 220"><g><path d="m109.7 219.3c-14.7 0-29-2.9-42.5-8.6-13-5.5-24.7-13.4-34.7-23.4-10-10-17.9-21.7-23.4-34.7-5.7-13.5-8.6-27.7-8.6-42.5 0-14.7 2.9-29 8.6-42.5 5.5-13 13.4-24.7 23.4-34.7 10-10 21.7-17.9 34.7-23.4 13.5-5.7 27.7-8.6 42.5-8.6 14.7 0 29 2.9 42.5 8.6 13 5.5 24.7 13.4 34.7 23.4 10 10 17.9 21.7 23.4 34.7 5.7 13.5 8.6 27.7 8.6 42.5 0 14.7-2.9 29-8.6 42.5-5.5 13-13.4 24.7-23.4 34.7-10 10-21.7 17.9-34.7 23.4-13.5 5.7-27.8 8.6-42.5 8.6m0-206.5c-26 0-50.5 10.1-68.9 28.5-18.4 18.4-28.5 42.9-28.5 68.9 0 26 10.1 50.5 28.5 68.9 18.4 18.4 42.9 28.5 68.9 28.5 26 0 50.5-10.1 68.9-28.5 18.4-18.4 28.5-42.9 28.5-68.9 0-26-10.1-50.5-28.5-68.9-18.4-18.4-42.9-28.5-68.9-28.5"/><g transform="translate(23 24)"><path d="m100.4 160.5c-4.7 0-8.4-3.8-8.4-8.4v-1.9h46.7c5.7 0 10.4-4.6 10.4-10.4v-46.7h1.9c4.7 0 8.4 3.8 8.4 8.4v30.2c8.3-13.2 13-28.8 13-45.5 0-47.4-38.4-85.8-85.8-85.8-47.4 0-85.8 38.4-85.8 85.8 0 47.4 38.4 85.8 85.8 85.8 15.6 0 30.2-4.2 42.8-11.5h-29m-54.9-55v-50.6c0-4.7 3.8-8.4 8.4-8.4h50.6c4.7 0 8.4 3.8 8.4 8.4v50.6c0 4.7-3.8 8.4-8.4 8.4h-50.6c-4.7 0-8.4-3.7-8.4-8.4m15.5 15.6v-1.9h46.7c5.7 0 10.4-4.6 10.4-10.4v-46.7h1.9c4.7 0 8.4 3.8 8.4 8.4v50.6c0 4.7-3.8 8.4-8.4 8.4h-50.6c-4.6 0-8.4-3.8-8.4-8.4m23.9 23.9c-4.7 0-8.4-3.8-8.4-8.4v-1.9h46.7c5.7 0 10.4-4.6 10.4-10.4v-46.7h1.9c4.7 0 8.4 3.8 8.4 8.4v50.6c0 4.7-3.8 8.4-8.4 8.4h-50.6"/><path d="m97 73h-11.4l-4.9-12.5c-.3-.6-.8-1-1.5-1-.7 0-1.2.4-1.5 1l-4.9 12.5h-11.4c-.7 0-1.3.4-1.5 1.1-.2.7 0 1.4.5 1.8l9.6 7.7-4.3 11.7c-.3 1-.1 2 .7 2.6.8.6 1.8.6 2.7.1l10.1-7.2 10.1 7.2c.8.6 1.9.5 2.7-.1.8-.6 1.1-1.6.7-2.6l-4.3-11.7 9.6-7.7c.6-.4.8-1.1.5-1.8-.2-.7-.8-1.1-1.5-1.1"/></g></g></symbol><symbol id="on" viewBox="0 0 109 118.8">
<path fill="#404042" d="M65.3,10.8L54.5,0L43.7,10.8C18.8,15.9,0,37.9,0,64.3c0,30.1,24.4,54.5,54.5,54.5S109,94.3,109,64.3
	C109,37.9,90.2,15.9,65.3,10.8z M54.5,114.8C26.7,114.8,4,92.1,4,64.3s22.7-50.5,50.5-50.5S105,36.4,105,64.3S82.3,114.8,54.5,114.8
	z"/>
</symbol><symbol id="play_btn" viewBox="0 0 179 180"><g><path d="m89.5.7c-49.3 0-89.3 40-89.3 89.3 0 49.3 40 89.3 89.3 89.3 49.3 0 89.3-40 89.3-89.3 0-49.3-40-89.3-89.3-89.3m0 156.4c-37 0-67-30-67-67 0-37 30-67 67-67 37 0 67 30 67 67 0 37-30 67-67 67m-12.2-101.5c-2.1-1.3-4.5-1.4-6.6-.2-2.1 1.2-3.3 3.2-3.3 5.7v57.8c0 2.4 1.2 4.5 3.3 5.7 2.1 1.2 4.5 1.1 6.6-.2l46.2-28.9c2-1.2 3-3.2 3-5.5 0-2.3-1.1-4.3-3-5.5l-46.2-28.9"/></g></symbol><symbol id="play_button" viewBox="-1510 711.4 178.6 178.6">
<circle fill="none" cx="-1420.2" cy="800.7" r="78.7"/>
<path id="Shape_7_" d="M-1420.7,711.4c-49.3,0-89.3,40-89.3,89.3s40,89.3,89.3,89.3c49.3,0,89.3-40,89.3-89.3
	S-1371.4,711.4-1420.7,711.4L-1420.7,711.4z M-1420.7,867.8c-37,0-67-30-67-67s30-67,67-67s67,30,67,67S-1383.7,867.8-1420.7,867.8
	L-1420.7,867.8z M-1432.9,766.3c-2.1-1.3-4.5-1.4-6.6-0.2c-2.1,1.2-3.3,3.2-3.3,5.7v57.8c0,2.4,1.2,4.5,3.3,5.7s4.5,1.1,6.6-0.2
	l46.2-28.9c2-1.2,3-3.2,3-5.5s-1.1-4.3-3-5.5L-1432.9,766.3L-1432.9,766.3z"/>
</symbol><symbol id="plus" viewBox="0 0 218.2 218.2">
<g>
	<path d="M109.1,23.3c-47.4,0-85.8,38.4-85.8,85.8s38.4,85.8,85.8,85.8c47.4,0,85.8-38.4,85.8-85.8S156.5,23.3,109.1,23.3z
		 M164.1,111c0,2.2-1.8,4-4,4H115v45.1c0,2.2-1.8,4-4,4h-3.8c-2.2,0-4-1.8-4-4V115H58.1c-2.2,0-4-1.8-4-4v-3.8c0-2.2,1.8-4,4-4h45.1
		V58.1c0-2.2,1.8-4,4-4h3.8c2.2,0,4,1.8,4,4v45.1h45.1c2.2,0,4,1.8,4,4V111z M209.6,66.6c-5.5-13-13.4-24.7-23.4-34.7
		s-21.7-17.9-34.7-23.4C138.1,2.9,123.8,0,109.1,0c-14.7,0-29,2.9-42.5,8.6C53.6,14.1,42,21.9,32,32c-10,10-17.9,21.7-23.4,34.7
		C2.9,80.1,0,94.4,0,109.1c0,14.7,2.9,29,8.6,42.5c5.5,13,13.4,24.7,23.4,34.7c10,10,21.7,17.9,34.7,23.4
		c13.5,5.7,27.7,8.6,42.5,8.6c14.7,0,29-2.9,42.5-8.6c13-5.5,24.7-13.4,34.7-23.4c10-10,17.9-21.7,23.4-34.7
		c5.7-13.5,8.6-27.7,8.6-42.5C218.2,94.4,215.3,80.1,209.6,66.6z M178,178c-18.4,18.4-42.9,28.5-68.9,28.5
		c-26,0-50.5-10.1-68.9-28.5s-28.5-42.9-28.5-68.9c0-26,10.1-50.5,28.5-68.9s42.9-28.5,68.9-28.5c26,0,50.5,10.1,68.9,28.5
		s28.5,42.9,28.5,68.9C206.5,135.1,196.4,159.6,178,178z"/>
</g>
</symbol><symbol id="product" viewBox="0 0 219 220"><g><path d="m109.7 219.3c-14.7 0-29-2.9-42.5-8.6-13-5.5-24.7-13.4-34.7-23.4-10-10-17.9-21.7-23.4-34.7-5.7-13.5-8.6-27.7-8.6-42.5 0-14.7 2.9-29 8.6-42.5 5.5-13 13.4-24.7 23.4-34.7 10-10 21.7-17.9 34.7-23.4 13.5-5.7 27.7-8.6 42.5-8.6 14.8 0 29 2.9 42.5 8.6 13 5.5 24.7 13.4 34.7 23.4 10 10 17.9 21.7 23.4 34.7 5.7 13.5 8.6 27.7 8.6 42.5 0 14.7-2.9 29-8.6 42.5-5.5 13-13.4 24.7-23.4 34.7-10 10-21.7 17.9-34.7 23.4-13.5 5.7-27.8 8.6-42.5 8.6m0-206.5c-26 0-50.5 10.1-68.9 28.5-18.4 18.4-28.5 42.9-28.5 68.9 0 26 10.1 50.5 28.5 68.9 18.4 18.4 42.9 28.5 68.9 28.5 26 0 50.5-10.1 68.9-28.5 18.4-18.4 28.5-42.9 28.5-68.9 0-26-10.1-50.5-28.5-68.9-18.4-18.4-42.9-28.5-68.9-28.5"/><path d="m109.7 24.4c-47.4 0-85.8 38.4-85.8 85.8 0 47.4 38.4 85.8 85.8 85.8 47.4 0 85.8-38.4 85.8-85.8 0-47.4-38.5-85.8-85.8-85.8m44.9 76.5l-23 18.2 10.3 27.7c.8 2.3.2 4.7-1.7 6.1-1.9 1.5-4.4 1.5-6.4.2l-24.2-16.9-24.2 17c-2 1.4-4.4 1.3-6.4-.2-1.9-1.5-2.6-3.8-1.7-6.1l10.3-27.7-23-18.2c-1.3-1-1.8-2.7-1.2-4.3.5-1.6 1.9-2.6 3.6-2.6h27.3l11.7-29.4c.6-1.5 2-2.4 3.6-2.4 1.6 0 3 .9 3.6 2.4l11.7 29.4h27.3c1.7 0 3.1 1 3.6 2.6.6 1.5.2 3.2-1.2 4.2"/></g></symbol><symbol id="ps-logo" viewBox="0 0 1033.6 475.3">
<g>
	<g>
		<path class="st0" d="M461.6,109.6H233l41.4,36h187.2c3.3,0,5.2,2.6,5.2,5.9v70c0,3.3-1.9,6.1-5.2,6.1H330.8v100.5l36,31.3v-95.8
			h94.8c23.2,0,41.2-18.9,41.2-42.1v-70C502.8,128.4,484.7,109.6,461.6,109.6z M486.8,219.6c0,15.4-11.8,28.1-27.2,28.1H350.8V324
			l-4-3.5v-76.9h112.8c13.2,0,23.2-10.9,23.2-24.1v-66c0-13.2-10-23.9-23.2-23.9h-180l-4.6-4h184.6c15.4,0,27.2,12.5,27.2,27.9
			V219.6z"/>
		<path class="st0" d="M575,145.6h187.2l41.4-36H575c-23.2,0-42.2,18.7-42.2,41.9v70c0,23.2,19,42.1,42.2,42.1h93.8v47.7l-13.3,12.3
			H557l-41.4,36h154l35.2-31.5V227.6H575c-3.3,0-6.2-2.8-6.2-6.1v-70C568.8,148.2,571.7,145.6,575,145.6z M577,243.6h111.8v1.9v74.9
			v0l-0.3,0.6l0.2,0L663,343.6H558.5l4.6-4h98.4l23.3-21v-1.4v-69.6H577c-15.4,0-28.2-12.7-28.2-28.1v-66
			c0-15.4,12.7-27.9,28.2-27.9h184.6l-4.6,4H577c-13.2,0-24.2,10.7-24.2,23.9v66C552.8,232.8,563.7,243.6,577,243.6z"/>
	</g>
	<g>
		<g>
			<polygon class="st0" points="41.4,145.6 238.3,145.6 219.9,129.6 23,129.6 			"/>
			<polygon class="st0" points="18.4,125.6 215.3,125.6 196.9,109.6 0,109.6 			"/>
		</g>
		<g>
			<polygon class="st0" points="177.2,263.6 304.8,263.6 304.8,247.6 158.8,247.6 			"/>
			<polygon class="st0" points="135.7,227.6 154.1,243.6 304.8,243.6 304.8,227.6 			"/>
		</g>
		<g>
			<polygon class="st0" points="69,169.6 87.4,185.6 438.8,185.6 438.8,169.6 			"/>
			<polygon class="st0" points="110.4,205.6 438.8,205.6 438.8,189.6 92,189.6 			"/>
		</g>
	</g>
	<g>
		<g>
			<polygon class="st0" points="992.1,145.6 795.3,145.6 813.7,129.6 1010.6,129.6 			"/>
			<polygon class="st0" points="1015.2,125.6 818.3,125.6 836.7,109.6 1033.6,109.6 			"/>
		</g>
		<g>
			<polygon class="st0" points="856.4,263.6 726.8,263.6 726.8,247.6 874.8,247.6 			"/>
			<polygon class="st0" points="897.8,227.6 879.4,243.6 726.8,243.6 726.8,227.6 			"/>
		</g>
		<g>
			<polygon class="st0" points="964.5,169.6 946.1,185.6 592.8,185.6 592.8,169.6 			"/>
			<polygon class="st0" points="923.1,205.6 592.8,205.6 592.8,189.6 941.5,189.6 			"/>
		</g>
	</g>
	<g>
		<path class="st0" d="M345.5,53.4l-2.2,8.2l-4.2,1.8l8-29.6l2.6-1.1l26.9,14.7l-4.2,1.8l-7.5-4.1L345.5,53.4z M349.9,36.8L346.6,49
			l14.4-6.1L349.9,36.8z"/>
		<path class="st0" d="M404.8,14c2.5-0.7,4.2-0.7,5.7,0.2c1.5,0.8,2.4,2.2,3.1,4.8l0.7,2.3c0.8,2.6,0.7,4.2-0.1,5.7
			c-0.9,1.5-2.2,2.4-4.8,3.2l-21.4,6.2l2,6.9l-3.7,1.1l-6.6-23.1L404.8,14z M407.6,26.9c2.2-0.6,2.7-0.9,3.2-1.7
			c0.3-0.6,0.4-1.2,0.1-2.3l-1.1-3.7c-0.3-1-0.7-1.6-1.3-1.9c-0.8-0.4-1.4-0.3-3.6,0.3l-20.5,5.9l2.7,9.2L407.6,26.9z"/>
		<path class="st0" d="M451.5,4.6c2.6-0.4,4.2-0.2,5.7,0.8c1.4,1,2.1,2.4,2.6,5.1l0.4,2.4c0.5,2.7,0.3,4.3-0.7,5.7
			c-1,1.4-2.5,2.2-5.1,2.6l-22,3.7l1.2,7.1l-3.8,0.6l-4-23.7L451.5,4.6z M452.8,17.8c2.2-0.4,2.8-0.6,3.4-1.3
			c0.4-0.5,0.5-1.2,0.3-2.2l-0.6-3.8c-0.2-1.1-0.5-1.6-1.1-2c-0.8-0.5-1.4-0.5-3.6-0.1l-21,3.6l1.6,9.5L452.8,17.8z"/>
		<path class="st0" d="M498.8,0.2c2.6-0.2,4.2,0.3,5.5,1.4c1.3,1.1,1.8,2.6,2,5.4l0.6,9.6c0.2,2.7-0.2,4.3-1.3,5.6
			c-1.2,1.3-2.7,1.9-5.3,2.1l-26,1.6l-1.4-24L498.8,0.2z M477.8,22l21.3-1.3c2.3-0.1,3-0.3,3.5-0.9c0.5-0.6,0.6-1.4,0.5-3.6
			l-0.5-8.2c-0.1-2.2-0.3-3-0.9-3.6c-0.6-0.5-1.3-0.6-3.6-0.5l-21.3,1.3L477.8,22z"/>
		<path class="st0" d="M524.7,24.1l-3.8-0.1l0.3-24l3.8,0.1L524.7,24.1z"/>
		<path class="st0" d="M566.7,2.6c2.6,0.2,4.1,0.9,5.2,2.2s1.4,2.9,1.2,5.6l-0.2,1.8c-0.2,2.7-0.8,4.2-2.1,5.3c-1,0.9-2,1.2-3.9,1.4
			l5,8.3l-4.7-0.4l-4.6-8.2L543,16.8l-0.7,7.8l-3.8-0.3l2.1-23.9L566.7,2.6z M564.6,15.1c2.3,0.2,2.9,0.1,3.6-0.4
			c0.5-0.4,0.8-1,0.9-2.1l0.3-3.3c0.1-1-0.1-1.7-0.5-2.2c-0.6-0.6-1.2-0.8-3.5-1l-21.3-1.9l-0.8,9L564.6,15.1z"/>
		<path class="st0" d="M592.6,9.8l-1.3,6.5l25.8,5.1l-1.2,3.4l-25.4-5l-1.3,6.5l26.7,5.3l-0.7,3.5l-30.5-6l4.7-23.6l29.6,5.9
			l-0.7,3.5L592.6,9.8z"/>
		<path class="st0" d="M660.5,42.8c-1.8,3.8-4.2,4.7-8.5,3.3l-18.1-5.8c-2.5-0.8-3.8-1.8-4.7-3.3c-0.8-1.5-0.8-3.1,0.1-5.7l2.9-9.2
			c0.8-2.6,1.7-3.9,3.3-4.7c1.6-0.8,3.2-0.8,5.7,0l18.1,5.8c4.4,1.4,5.8,3.5,5,7.7l-3.8-0.7c0.2-1,0.2-1.5-0.1-2.1
			c-0.4-0.7-1-1.1-3.2-1.8L641,21.2c-2.2-0.7-2.9-0.8-3.6-0.4c-0.7,0.4-1.1,1.1-1.8,3.2l-2.5,7.8c-0.7,2.1-0.8,2.9-0.4,3.6
			c0.4,0.7,1,1.1,3.2,1.8l16.3,5.2c2.2,0.7,2.9,0.8,3.6,0.4c0.5-0.3,0.9-0.7,1.3-1.6L660.5,42.8z"/>
		<path class="st0" d="M685.2,59.6l-3.5-1.6l8.4-18.6l-13.4-6.1l1.5-3.3l30.2,13.7l-1.5,3.3L693.6,41L685.2,59.6z"/>
	</g>
	<g>
		<path class="st0" d="M281.7,365c1.8,1.9,2.5,3.4,2.5,5.1c0,1.7-0.8,3.1-2.8,5l-1.8,1.7c-2,1.9-3.4,2.6-5.1,2.6
			c-1.7-0.1-3.2-0.8-5-2.7l-15.2-16l-5.2,5l-2.6-2.7l17.4-16.5L281.7,365z M271.5,373.4c1.6,1.6,2.1,2,2.9,2.1c0.7,0,1.3-0.2,2.1-1
			l2.8-2.7c0.8-0.7,1.1-1.3,1.1-2c0-0.9-0.3-1.4-1.9-3.1l-14.5-15.3l-7,6.6L271.5,373.4z"/>
		<path class="st0" d="M289.6,394.9l-8.2,2.3l-3.6-2.7l29.4-8.2l2.3,1.7l0.8,30.5l-3.6-2.7l-0.3-8.5L289.6,394.9z M306,390.3
			l-12.1,3.3l12.5,9.2L306,390.3z"/>
		<path class="st0" d="M355.8,415.8c2.3,1.2,3.5,2.4,4,4c0.5,1.6,0.2,3.2-1.1,5.6l-0.8,1.6c-1.3,2.4-2.4,3.6-4,4.1
			c-1.3,0.4-2.3,0.3-4.1-0.2l1.4,9.6l-4.2-2.2l-1-9.3l-17.2-9l-3.6,6.9l-3.3-1.7l11.1-21.3L355.8,415.8z M349.1,426.6
			c2,1,2.6,1.2,3.5,1c0.7-0.2,1.1-0.6,1.6-1.6l1.5-2.9c0.5-0.9,0.6-1.6,0.4-2.2c-0.3-0.8-0.8-1.2-2.8-2.3l-18.8-9.8l-4.2,8
			L349.1,426.6z"/>
		<path class="st0" d="M379.9,451.8l-3.5-1.3l7-19.2l-13.7-5l1.2-3.4l30.9,11.3l-1.2,3.4l-13.7-5L379.9,451.8z"/>
		<path class="st0" d="M409.6,461.3l-3.7-0.9l5.5-23.4l3.7,0.9l21.6,18.7l3-12.9l3.7,0.9l-5.5,23.4l-3.7-0.9l1.6-6.7l-21.7-18.6
			L409.6,461.3z"/>
		<path class="st0" d="M459.6,450.8l-0.8,6.6l25.9,3l-0.9,3.5l-25.4-3l-0.8,6.5l26.8,3.1l-0.4,3.6l-30.6-3.5l2.8-23.9l29.6,3.4
			l-0.4,3.6L459.6,450.8z"/>
		<path class="st0" d="M524.7,451.2c2.6,0,4.1,0.6,5.3,1.8s1.6,2.8,1.6,5.5l0,1.8c0,2.7-0.5,4.3-1.7,5.5c-1,1-1.9,1.3-3.8,1.6
			l5.5,7.9l-4.7-0.1l-5.1-7.9l-19.4-0.2l-0.1,7.8l-3.8,0l0.3-24L524.7,451.2z M523.6,463.8c2.3,0,2.9-0.1,3.5-0.7
			c0.5-0.5,0.7-1.1,0.7-2.1l0-3.3c0-1-0.2-1.7-0.7-2.1c-0.7-0.6-1.3-0.7-3.5-0.8l-21.1-0.3l-0.1,9L523.6,463.8z"/>
		<path class="st0" d="M592.6,450.4c-0.3-1-0.6-1.4-1-1.8c-0.7-0.5-1.4-0.5-3.6-0.2l-16.7,2.7c-2.2,0.3-2.8,0.6-3.4,1.3
			c-0.4,0.5-0.5,1.2-0.4,2.2l0.1,0.9c0.2,1.1,0.5,1.6,1,2c0.8,0.5,1.4,0.5,3.6,0.2l17.6-2.8c2.6-0.4,4.3-0.2,5.6,0.9
			c1.2,0.9,2.1,2.5,2.4,4.4l0.1,0.9c0.3,1.8,0,3.7-0.9,4.9c-1,1.4-2.4,2.1-5.1,2.6l-18.5,3c-4.5,0.7-6.7-0.5-7.9-4.6l3.6-1.1
			c0.3,1,0.5,1.5,1,1.8c0.7,0.5,1.4,0.5,3.6,0.2l16.6-2.7c2.2-0.4,2.8-0.6,3.4-1.3c0.4-0.5,0.5-1.2,0.4-2.2l-0.1-0.9
			c-0.2-1-0.5-1.6-1-2c-0.8-0.5-1.4-0.5-3.6-0.2l-17.6,2.8c-2.6,0.4-4.3,0.2-5.6-0.9c-1.2-0.9-2.1-2.5-2.4-4.4l-0.1-0.9
			c-0.3-1.9,0-3.7,0.9-5c1-1.4,2.4-2.1,5-2.6l18.5-3c4.5-0.7,6.7,0.5,7.9,4.6L592.6,450.4z"/>
		<path class="st0" d="M611.3,439.8l4.4,15.5c0.6,2.1,1,2.8,1.7,3.3c0.7,0.4,1.4,0.3,3.6-0.3l16.2-4.7c2.2-0.6,2.8-1,3.2-1.7
			c0.4-0.7,0.3-1.5-0.3-3.7l-4.4-15.5l3.6-1l4.6,16.2c0.8,2.6,0.7,4.2-0.1,5.7c-0.8,1.5-2.2,2.4-4.7,3.2l-18,5.2
			c-2.5,0.7-4.1,0.7-5.7-0.2c-1.5-0.8-2.3-2.2-3.1-4.8l-4.6-16.2L611.3,439.8z"/>
		<path class="st0" d="M679.8,414.9l3.4-1.5l9.7,22l-3.4,1.5l-8-18.1l-8.4,14.7l-16.6-3.7l8,18.1l-3.4,1.5l-9.7-22l3.4-1.5l16.5,3.5
			L679.8,414.9z"/>
		<path class="st0" d="M720.8,390.6l3.2-2l12.9,20.3l-3.2,2l-10.6-16.7l-6.1,15.9l-16.9-1.1l10.6,16.7l-3.2,2l-12.9-20.3l3.2-2
			l16.8,1L720.8,390.6z"/>
		<path class="st0" d="M752.2,396.6l-2.9,2.4l-15.2-18.6l2.9-2.4L752.2,396.6z"/>
		<path class="st0" d="M775,375.5l-2.6,2.7l-14.6-14.3l-10.2,10.4l-2.6-2.5l23-23.5l2.6,2.5l-10.2,10.4L775,375.5z"/>
	</g>
	<g>
		<polygon class="st0" points="416.8,359.6 408.8,359.6 408.8,301.6 384.8,301.6 384.8,293.6 416.8,293.6 		"/>
		<path class="st0" d="M444.8,359.6h46c6.6,0,12-4.7,12-11.3v-18c0-6.6-5.4-12.7-12-12.7h-48v-16h181.4l9.2-8H434.8v32h56
			c2.2,0,4,2.5,4,4.7v18c0,2.2-1.8,3.3-4,3.3h-46c-2.2,0-4-1.1-4-3.3v-6.7h-8v6.7C432.8,354.9,438.2,359.6,444.8,359.6z"/>
	</g>
</g>
</symbol><symbol id="reseller_management" viewBox="0 0 219 220"><g><path d="m109.6 219.3c-14.7 0-29-2.9-42.5-8.6-13-5.5-24.7-13.4-34.7-23.4-10-10-17.9-21.7-23.4-34.7-5.7-13.5-8.6-27.7-8.6-42.5 0-14.7 2.9-29 8.6-42.5 5.5-13 13.4-24.7 23.4-34.7 10-10 21.7-17.9 34.7-23.4 13.5-5.7 27.7-8.6 42.5-8.6 14.8 0 29 2.9 42.5 8.6 13 5.5 24.7 13.4 34.7 23.4 10 10 17.9 21.7 23.4 34.7 5.7 13.5 8.6 27.7 8.6 42.5 0 14.7-2.9 29-8.6 42.5-5.5 13-13.4 24.7-23.4 34.7-10 10-21.7 17.9-34.7 23.4-13.5 5.7-27.8 8.6-42.5 8.6m0-206.5c-26 0-50.5 10.1-68.9 28.5-18.4 18.4-28.5 42.9-28.5 68.9 0 26 10.1 50.5 28.5 68.9 18.4 18.4 42.9 28.5 68.9 28.5 26 0 50.5-10.1 68.9-28.5 18.4-18.4 28.5-42.9 28.5-68.9 0-26-10.1-50.5-28.5-68.9-18.4-18.4-42.9-28.5-68.9-28.5"/><path d="m109.6 24.4c-47.4 0-85.8 38.4-85.8 85.8 0 15.7 4.2 30.3 11.5 42.9h20.9v-42.7h42.7v-21.4h-21.4v-21.4h64.1v21.4h-21.4v21.4h42.8v42.7h20.8c7.3-12.6 11.5-27.3 11.5-42.9.1-47.4-38.3-85.8-85.7-85.8m32.1 165.4c7.7-3.1 14.9-7.3 21.4-12.5v-2.8h-21.4v15.3m-85.5-12.5c6.4 5.1 13.6 9.3 21.4 12.5v-15.3h-21.4v2.8m85.5-45.5h-64.1v21.4h21.4v42.1c3.5.4 7.1.7 10.7.7 3.6 0 7.2-.3 10.7-.7v-42.1h21.4v-21.4h-.1"/></g></symbol><symbol id="small_play" viewBox="0 0 218.2 218.2">
<path d="M109.1,23.3c-47.4,0-85.8,38.4-85.8,85.8s38.4,85.8,85.8,85.8c47.4,0,85.8-38.4,85.8-85.8S156.5,23.3,109.1,23.3z
	 M153.6,116.4l-61.9,38.7c-2.8,1.7-6,1.8-8.8,0.2c-2.9-1.6-4.5-4.4-4.5-7.6V70.4c0-3.3,1.6-6,4.5-7.6c2.8-1.6,6.1-1.5,8.8,0.2
	l61.9,38.7c2.6,1.6,4.1,4.3,4.1,7.4C157.7,112.2,156.3,114.8,153.6,116.4z M209.6,66.6c-5.5-13-13.4-24.7-23.4-34.7
	s-21.7-17.9-34.7-23.4C138.1,2.9,123.8,0,109.1,0c-14.7,0-29,2.9-42.5,8.6C53.6,14.1,42,21.9,32,32c-10,10-17.9,21.7-23.4,34.7
	C2.9,80.1,0,94.4,0,109.1c0,14.7,2.9,29,8.6,42.5c5.5,13,13.4,24.7,23.4,34.7c10,10,21.7,17.9,34.7,23.4c13.5,5.7,27.7,8.6,42.5,8.6
	c14.7,0,29-2.9,42.5-8.6c13-5.5,24.7-13.4,34.7-23.4c10-10,17.9-21.7,23.4-34.7c5.7-13.5,8.6-27.7,8.6-42.5
	C218.2,94.4,215.3,80.1,209.6,66.6z M178,178c-18.4,18.4-42.9,28.5-68.9,28.5c-26,0-50.5-10.1-68.9-28.5s-28.5-42.9-28.5-68.9
	c0-26,10.1-50.5,28.5-68.9s42.9-28.5,68.9-28.5c26,0,50.5,10.1,68.9,28.5s28.5,42.9,28.5,68.9C206.5,135.1,196.4,159.6,178,178z"/>
</symbol><symbol id="social_facebook" viewBox="0 0 141 141"><g><path d="m132.7.3h-124.2c-4.4 0-7.9 3.5-7.9 7.9v124.2c0 4.4 3.5 7.9 7.9 7.9h67.4v-54.2h-18.4v-21h18.4v-15.8c0-18.4 11.4-28 27.1-28 7.9 0 14 .9 16.6.9v19.2h-11.4c-8.8 0-10.5 4.4-10.5 10.5v13.1h21l-2.6 21h-19.2v54.2h35.9c4.4 0 7.9-3.5 7.9-7.9v-124.1c-.1-4.4-3.6-7.9-8-7.9"/></g></symbol><symbol id="social_linkedin" viewBox="0 0 141 141"><g><path d="m129.8.3h-119c-6.1 0-10.5 4.4-10.5 10.5v119.9c0 5.2 4.4 9.6 10.5 9.6h119c6.1 0 10.5-4.4 10.5-10.5v-119c0-6.1-4.4-10.5-10.5-10.5m-88.4 118.1h-20.1v-65.6h21v65.6h-.9m-9.6-74.3c-7 0-12.2-6.1-12.2-12.2 0-7 5.2-12.2 12.2-12.2 7 0 12.2 5.2 12.2 12.2-.8 6-6.1 12.2-12.2 12.2m87.5 74.3h-21v-31.5c0-7.9 0-17.5-10.5-17.5-10.5 0-12.2 8.7-12.2 17.5v31.5h-21v-65.6h20.1v8.8c2.6-5.2 9.6-10.5 19.2-10.5 21 0 24.5 14 24.5 31.5v35.9h.9v-.1"/></g></symbol><symbol id="social_twitter" viewBox="0 0 141 115"><g><path d="m98 .1c-15.8 0-29.1 13.2-29.1 29.1 0 2.6 0 4.4.9 6.2-23.8-.9-45.8-12.3-59.9-29.9-2.6 4.4-3.5 8.8-3.5 14.1 0 9.7 5.3 18.5 13.2 23.8-4.4 0-8.8-1.8-13.2-3.5 0 14.1 9.7 25.5 22.9 28.2-2.6 1.8-5.3 1.8-7.9 1.8-1.8 0-3.5 0-5.3-.9 3.5 11.4 14.1 19.4 27.3 20.3-9.7 7.9-22 12.3-36.1 12.3h-7c13.2 7.9 28.2 13.2 44 13.2 52.8 0 81.9-44 81.9-81.9v-3.5c5.3-4.4 10.6-8.8 14.1-15-4.4 1.8-9.7 3.5-15.8 3.5 6.2-3.5 10.6-8.8 12.3-15.8-5.3 3.5-11.4 5.3-18.5 7-4.5-5.5-12.4-9-20.3-9"/></g></symbol><symbol id="video_close" viewBox="0 0 218.2 218.2">
<path d="M209.6,66.6c-5.5-13-13.4-24.7-23.4-34.7s-21.7-17.9-34.7-23.4C138.1,2.9,123.8,0,109.1,0c-14.7,0-29,2.9-42.5,8.6
	C53.6,14.1,42,21.9,32,32c-10,10-17.9,21.7-23.4,34.7C2.9,80.1,0,94.4,0,109.1c0,14.7,2.9,29,8.6,42.5c5.5,13,13.4,24.7,23.4,34.7
	c10,10,21.7,17.9,34.7,23.4c13.5,5.7,27.7,8.6,42.5,8.6c14.7,0,29-2.9,42.5-8.6c13-5.5,24.7-13.4,34.7-23.4
	c10-10,17.9-21.7,23.4-34.7c5.7-13.5,8.6-27.7,8.6-42.5C218.2,94.4,215.3,80.1,209.6,66.6z M178,178c-18.4,18.4-42.9,28.5-68.9,28.5
	c-26,0-50.5-10.1-68.9-28.5s-28.5-42.9-28.5-68.9c0-26,10.1-50.5,28.5-68.9s42.9-28.5,68.9-28.5c26,0,50.5,10.1,68.9,28.5
	s28.5,42.9,28.5,68.9C206.5,135.1,196.4,159.6,178,178z"/>
<g>
	<path d="M149.3,71.5c1.6,1.6,1.6,4.1,0,5.7l-31.9,31.9l31.9,31.9c1.6,1.6,1.6,4.1,0,5.7l-2.7,2.7c-1.6,1.6-4.1,1.6-5.7,0
		l-31.9-31.9l-31.9,31.9c-1.6,1.6-4.1,1.6-5.7,0l-2.7-2.7c-1.6-1.6-1.6-4.1,0-5.7l31.9-31.9L68.9,77.2c-1.6-1.6-1.6-4.1,0-5.7
		l2.7-2.7c1.6-1.6,4.1-1.6,5.7,0l31.9,31.9L141,68.9c1.6-1.6,4.1-1.6,5.7,0L149.3,71.5z"/>
</g>
</symbol></svg>