<?xml version="1.0" encoding="UTF-8"?><!DOCTYPE svg PUBLIC "-//W3C//DTD SVG 1.1//EN" "http://www.w3.org/Graphics/SVG/1.1/DTD/svg11.dtd"><svg xmlns="http://www.w3.org/2000/svg" xmlns:xlink="http://www.w3.org/1999/xlink"><defs>
      <radialGradient id="MyGradient" cx="50%" cy="50%" r="100%" fx="50%" fy="5%">
      <stop offset="0%" style="stop-color:rgb(97,97,97); stop-opacity:1"/>
      <stop offset="100%" style="stop-color:rgb(34,34,34); stop-opacity:1"/>
    </radialGradient>
  </defs><symbol id="sf-icon" viewBox="0 0 161 131.2">
<path fill="none" stroke="#FFFFFF" stroke-width="2" stroke-linecap="round" d="M80,48.4c-0.3,0-0.5,0-0.8,0.1
	C78.5,47,77.4,45.8,76,45c-1.3-2.7-4-4.5-7.1-4.5c-2.8,0-5.2,1.4-6.6,3.6c-0.1-0.1-0.2-0.2-0.3-0.3v8.8h21.7c0-0.2,0-0.3,0-0.5
	C83.6,50.1,82,48.4,80,48.4z"/>
<g>
	<polyline fill="none" stroke="#FFFFFF" stroke-width="2" points="103.4,60 116.7,0.2 141.4,129.4 	"/>
</g>
<polyline fill="none" stroke="#29A9E1" stroke-width="2" points="61.6,29.2 61.6,124.6 29.1,122 29.1,29.2 "/>
<polygon fill="none" stroke="#29A9E1" stroke-width="2" stroke-linecap="round" points="62.5,116.1 28.1,116.1 28.1,122 62.5,124.6 
	"/>
<rect x="28.1" y="23.8" fill="none" stroke="#29A9E1" stroke-width="2" stroke-linecap="round" width="34.4" height="5.8"/>
<g>
	<line fill="none" stroke="#F69126" stroke-width="4" x1="32.6" y1="35.2" x2="35.3" y2="35.2"/>
	<line fill="none" stroke="#F69126" stroke-width="4" x1="38.3" y1="35.2" x2="40.9" y2="35.2"/>
	<line fill="none" stroke="#F69126" stroke-width="4" x1="43.9" y1="35.2" x2="46.6" y2="35.2"/>
	<line fill="none" stroke="#F69126" stroke-width="4" x1="49.6" y1="35.2" x2="52.2" y2="35.2"/>
	<line fill="none" stroke="#F69126" stroke-width="4" x1="55.2" y1="35.2" x2="57.9" y2="35.2"/>
</g>
<g>
	<line fill="none" stroke="#F69126" stroke-width="4" x1="32.6" y1="43.5" x2="35.3" y2="43.5"/>
	<line fill="none" stroke="#F69126" stroke-width="4" x1="38.3" y1="43.5" x2="40.9" y2="43.5"/>
	<line fill="none" stroke="#F69126" stroke-width="4" x1="43.9" y1="43.5" x2="46.6" y2="43.5"/>
	<line fill="none" stroke="#F69126" stroke-width="4" x1="49.6" y1="43.5" x2="52.2" y2="43.5"/>
	<line fill="none" stroke="#F69126" stroke-width="4" x1="55.2" y1="43.5" x2="57.9" y2="43.5"/>
</g>
<g>
	<line fill="none" stroke="#F69126" stroke-width="4" x1="32.6" y1="51.7" x2="35.3" y2="51.7"/>
	<line fill="none" stroke="#F69126" stroke-width="4" x1="38.3" y1="51.7" x2="40.9" y2="51.7"/>
	<line fill="none" stroke="#F69126" stroke-width="4" x1="43.9" y1="51.7" x2="46.6" y2="51.7"/>
	<line fill="none" stroke="#F69126" stroke-width="4" x1="49.6" y1="51.7" x2="52.2" y2="51.7"/>
	<line fill="none" stroke="#F69126" stroke-width="4" x1="55.2" y1="51.7" x2="57.9" y2="51.7"/>
</g>
<g>
	<line fill="none" stroke="#F69126" stroke-width="4" x1="32.6" y1="60" x2="35.3" y2="60"/>
	<line fill="none" stroke="#F69126" stroke-width="4" x1="38.3" y1="60" x2="40.9" y2="60"/>
	<line fill="none" stroke="#F69126" stroke-width="4" x1="43.9" y1="60" x2="46.6" y2="60"/>
	<line fill="none" stroke="#F69126" stroke-width="4" x1="49.6" y1="60" x2="52.2" y2="60"/>
	<line fill="none" stroke="#F69126" stroke-width="4" x1="55.2" y1="60" x2="57.9" y2="60"/>
</g>
<g>
	<line fill="none" stroke="#F69126" stroke-width="4" x1="32.6" y1="68.2" x2="35.3" y2="68.2"/>
	<line fill="none" stroke="#F69126" stroke-width="4" x1="38.3" y1="68.2" x2="40.9" y2="68.2"/>
	<line fill="none" stroke="#F69126" stroke-width="4" x1="43.9" y1="68.2" x2="46.6" y2="68.2"/>
	<line fill="none" stroke="#F69126" stroke-width="4" x1="49.6" y1="68.2" x2="52.2" y2="68.2"/>
	<line fill="none" stroke="#F69126" stroke-width="4" x1="55.2" y1="68.2" x2="57.9" y2="68.2"/>
</g>
<g>
	<line fill="none" stroke="#F69126" stroke-width="4" x1="32.6" y1="76.5" x2="35.3" y2="76.5"/>
	<line fill="none" stroke="#F69126" stroke-width="4" x1="38.3" y1="76.5" x2="40.9" y2="76.5"/>
	<line fill="none" stroke="#F69126" stroke-width="4" x1="43.9" y1="76.5" x2="46.6" y2="76.5"/>
	<line fill="none" stroke="#F69126" stroke-width="4" x1="49.6" y1="76.5" x2="52.2" y2="76.5"/>
	<line fill="none" stroke="#F69126" stroke-width="4" x1="55.2" y1="76.5" x2="57.9" y2="76.5"/>
</g>
<g>
	<line fill="none" stroke="#F69126" stroke-width="4" x1="32.6" y1="84.7" x2="35.3" y2="84.7"/>
	<line fill="none" stroke="#F69126" stroke-width="4" x1="38.3" y1="84.7" x2="40.9" y2="84.7"/>
	<line fill="none" stroke="#F69126" stroke-width="4" x1="43.9" y1="84.7" x2="46.6" y2="84.7"/>
	<line fill="none" stroke="#F69126" stroke-width="4" x1="49.6" y1="84.7" x2="52.2" y2="84.7"/>
	<line fill="none" stroke="#F69126" stroke-width="4" x1="55.2" y1="84.7" x2="57.9" y2="84.7"/>
</g>
<g>
	<line fill="none" stroke="#F69126" stroke-width="4" x1="32.6" y1="92.9" x2="35.3" y2="92.9"/>
	<line fill="none" stroke="#F69126" stroke-width="4" x1="38.3" y1="92.9" x2="40.9" y2="92.9"/>
	<line fill="none" stroke="#F69126" stroke-width="4" x1="43.9" y1="92.9" x2="46.6" y2="92.9"/>
	<line fill="none" stroke="#F69126" stroke-width="4" x1="49.6" y1="92.9" x2="52.2" y2="92.9"/>
	<line fill="none" stroke="#F69126" stroke-width="4" x1="55.2" y1="92.9" x2="57.9" y2="92.9"/>
</g>
<g>
	<line fill="none" stroke="#F69126" stroke-width="4" x1="32.6" y1="101.2" x2="35.3" y2="101.2"/>
	<line fill="none" stroke="#F69126" stroke-width="4" x1="38.3" y1="101.2" x2="40.9" y2="101.2"/>
	<line fill="none" stroke="#F69126" stroke-width="4" x1="43.9" y1="101.2" x2="46.6" y2="101.2"/>
	<line fill="none" stroke="#F69126" stroke-width="4" x1="49.6" y1="101.2" x2="52.2" y2="101.2"/>
	<line fill="none" stroke="#F69126" stroke-width="4" x1="55.2" y1="101.2" x2="57.9" y2="101.2"/>
</g>
<g>
	<line fill="none" stroke="#F69126" stroke-width="4" x1="32.6" y1="109.4" x2="35.3" y2="109.4"/>
	<line fill="none" stroke="#F69126" stroke-width="4" x1="38.3" y1="109.4" x2="40.9" y2="109.4"/>
	<line fill="none" stroke="#F69126" stroke-width="4" x1="43.9" y1="109.4" x2="46.6" y2="109.4"/>
	<line fill="none" stroke="#F69126" stroke-width="4" x1="49.6" y1="109.4" x2="52.2" y2="109.4"/>
	<line fill="none" stroke="#F69126" stroke-width="4" x1="55.2" y1="109.4" x2="57.9" y2="109.4"/>
</g>
<rect x="79.2" y="66.5" fill="none" stroke="#29A9E1" stroke-width="2" stroke-linecap="round" width="32.5" height="49.7"/>
<polygon fill="none" stroke="#29A9E1" stroke-width="2" stroke-linecap="round" points="112.7,116.2 78.3,116.2 78.3,124.6 
	112.7,127.6 "/>
<rect x="78.3" y="60.4" fill="none" stroke="#29A9E1" stroke-width="2" stroke-linecap="round" width="34.4" height="6.1"/>
<line fill="none" stroke="#F69126" stroke-width="2" x1="84.3" y1="73.4" x2="107" y2="73.4"/>
<line fill="none" stroke="#F69126" stroke-width="2" x1="84.3" y1="80.5" x2="107" y2="80.5"/>
<line fill="none" stroke="#F69126" stroke-width="2" x1="84.3" y1="87.5" x2="107" y2="87.5"/>
<line fill="none" stroke="#F69126" stroke-width="2" x1="84.3" y1="94.6" x2="107" y2="94.6"/>
<line fill="none" stroke="#F69126" stroke-width="2" x1="84.3" y1="101.7" x2="107" y2="101.7"/>
<line fill="none" stroke="#F69126" stroke-width="2" x1="84.3" y1="108.8" x2="107" y2="108.8"/>
<g>
	<line fill="none" stroke="#FFFFFF" stroke-width="2" x1="9.4" y1="40.5" x2="21.2" y2="40.5"/>
	<line fill="none" stroke="#FFFFFF" stroke-width="2" x1="4.8" y1="40.5" x2="0" y2="40.5"/>
</g>
<path fill="none" stroke="#FFFFFF" stroke-width="2" stroke-linecap="round" d="M94.3,14.7c0-0.2,0-0.3,0-0.5c0-2-1.6-3.7-3.7-3.7
	c-0.3,0-0.5,0-0.8,0.1c-0.7-1.5-1.8-2.7-3.2-3.5c-1.3-2.7-4-4.5-7.1-4.5c-2.8,0-5.2,1.4-6.6,3.6c-1.1-1.1-2.5-1.8-4.2-1.8
	c-2.1,0-4,1.1-5,2.9c-1.4-1.7-3.6-2.9-6.1-2.9c-2.9,0-5.5,1.6-6.9,4c-3.5,0.3-6.3,2.9-6.9,6.3H94.3z"/>
<line fill="none" stroke="#F69126" stroke-width="2" stroke-linecap="round" x1="160" y1="130.2" x2="12.3" y2="122"/>
</symbol><symbol id="ad-logo" viewBox="0 0 432 116"><g><path d="m38.1 7.9l15.6 24.8-15.4 45.8-32 13.9 31.8-84.5m-.7-7.9l39.2 61.9 23-10-36.8-51.9h-25.4m78.8 48.8l-116.2 50.3 24.8 16.9 77.9-33.1 13.5-34.1"/><path d="m353.6 67.2c.2 2.1.6 4.1 1.5 5.4 1.3 1.9 4.1 3.4 7.7 3.4 3.1 0 5.5-.9 8-3.6l6.3 4.7c-4.2 4.7-9 6.4-14.2 6.4-6.1.1-11.5-2.5-14.4-6.8-2.7-4-2.9-9.1-2.9-12.5 0-3.7.3-8.6 2.9-12.5 3-4.4 7.8-6.7 13.7-6.7 5.4 0 9.9 2.3 12.8 6.7 2.8 4.1 2.4 10.5 2.3 15.3h-23.7v.2m14.8-11.2c-1.5-2.2-3.5-3.2-6.3-3.2-5.1 0-7.5 2.6-8.4 6.9h15.6c-.1-1.7-.5-3.1-.9-3.7"/><path d="m297.2 67.9c-1.9 12.8-10.8 15.1-22.2 15.1h-17v-53.5h17c11.4 0 20.3 2.2 22.2 15.1.5 3.8.6 7.8.6 11.6 0 3.8-.1 7.9-.6 11.7m-22.2-30.5h-8.8v37.6h8.8c15.2 0 14.7-5.2 14.7-18.8 0-13.6.5-18.8-14.7-18.8"/><path d="m305.4 82.9v-37.8h7.9v37.9h-7.9v-.1"/><path d="m305.4 38.2v-9.1h7.9v9.1h-7.9"/><path d="m341.4 54.1c-2.3-1.3-3.6-1.5-5.1-1.5-3.1 0-7.1 1.8-7.1 5.4v24.9h-7.7v-37.4h7.7v1.1c2.1-1 4.6-1.5 7.1-1.5 2.7 0 5.1.5 8.5 2l-3.4 7"/><path d="m398.9 83.6c-10.9 0-17.3-8.2-17.3-19.5 0-11.3 6.4-19.5 17.3-19.5 5.4 0 8.9 1.5 14.4 7.4l-5.7 5.1c-4.1-4.4-5.8-5.1-8.7-5.1-3.2 0-5.7 1.2-7.3 3.4-1.4 1.8-2 4.4-2 8.7 0 4.2.6 6.8 2 8.7 1.6 2.3 4.1 3.4 7.3 3.4 2.8 0 4.5-.6 8.7-5l5.7 5.1c-5.5 5.8-9 7.3-14.4 7.3"/><path d="m417.8 45.1v-8.8l7.5-1.3v10.1h6.7v7h-6.7v20.9c0 .5-.1 1.1.1 1.7.2.3.4.5.9.5h4.8v7.7h-4.8c-2.9 0-5.6-1.3-7.1-3.8-1.3-2.1-1.4-4.4-1.4-6.1v-20.9-7"/><path d="m171.4 82.9l-6-15h-20.7l-6 15h-8.7l21.2-53.5h7.7l21.2 53.5h-8.7m-16.3-41.1l-7.3 18.4h14.6l-7.3-18.4"/><path d="m212.4 76.7c-2.6 4.6-7.5 7.1-13.2 7.1-2.6 0-5.1-.5-7.4-1.7v17.7h-7.8v-54.1h7.8v1.2c2.2-1.2 4.8-1.7 7.4-1.7 5.7 0 10.6 2.5 13.2 7.1 2.4 4.1 2.6 8.7 2.5 12.3.1 3.6-.2 8.2-2.5 12.1m-6.8-20.6c-1.1-1.9-3.3-3.1-6.4-3.1-3.1-.1-5.3 1.2-6.4 3.1-.5.9-.8 2.1-1 3.4v9.8c.2 1.4.5 2.5 1 3.4 1.1 1.9 3.3 3.2 6.4 3.2 3.1 0 5.3-1.3 6.4-3.2 1.3-2.1 1.5-5.1 1.5-8.4 0-2.9-.2-5.9-1.5-8.2"/><path d="m249 76.7c-2.6 4.6-7.5 7.1-13.2 7.1-2.6 0-5.1-.5-7.4-1.7v17.7h-7.8v-54.1h7.8v1.2c2.2-1.2 4.7-1.7 7.4-1.7 5.7 0 10.6 2.5 13.2 7.1 2.4 4.1 2.6 8.7 2.5 12.3 0 3.6-.2 8.2-2.5 12.1m-6.8-20.6c-1.1-1.9-3.3-3.1-6.4-3.1-3.1-.1-5.3 1.2-6.4 3.1-.5.9-.8 2.1-1 3.4v9.8c.2 1.4.5 2.5 1 3.4 1.1 1.9 3.3 3.2 6.4 3.2 3.1 0 5.3-1.3 6.4-3.2 1.3-2.1 1.5-5.1 1.5-8.4 0-2.9-.2-5.9-1.5-8.2"/></g></symbol><symbol id="ad-logomark" viewBox="0 0 16 16">
<g>
	<g>
		<polygon points="0.8,11.9 5,10.1 6.6,5.1 4.5,1.7 		"/>
		<polygon points="5.3,0 10.3,7.9 13.4,6.6 8.8,0 		"/>
		<polygon points="16,7 0,13.7 3.2,16 14,11.5 		"/>
	</g>
</g>
</symbol><symbol id="arrow_left" viewBox="0 0 218.2 218.2">
<path d="M209.6,66.6c-5.5-13-13.4-24.7-23.4-34.7s-21.7-17.9-34.7-23.4C138.1,2.9,123.8,0,109.1,0c-14.7,0-29,2.9-42.5,8.6
	C53.6,14.1,42,21.9,32,32c-10,10-17.9,21.7-23.4,34.7C2.9,80.1,0,94.4,0,109.1c0,14.7,2.9,29,8.6,42.5c5.5,13,13.4,24.7,23.4,34.7
	c10,10,21.7,17.9,34.7,23.4c13.5,5.7,27.7,8.6,42.5,8.6c14.7,0,29-2.9,42.5-8.6c13-5.5,24.7-13.4,34.7-23.4
	c10-10,17.9-21.7,23.4-34.7c5.7-13.5,8.6-27.7,8.6-42.5C218.2,94.4,215.3,80.1,209.6,66.6z M178,178c-18.4,18.4-42.9,28.5-68.9,28.5
	c-26,0-50.5-10.1-68.9-28.5s-28.5-42.9-28.5-68.9c0-26,10.1-50.5,28.5-68.9s42.9-28.5,68.9-28.5c26,0,50.5,10.1,68.9,28.5
	s28.5,42.9,28.5,68.9C206.5,135.1,196.4,159.6,178,178z"/>
<path d="M109.1,23.3c-47.4,0-85.8,38.4-85.8,85.8s38.4,85.8,85.8,85.8c47.4,0,85.8-38.4,85.8-85.8S156.5,23.3,109.1,23.3z
	 M124.5,147.1l-3.1,3.1c-1.6,1.6-4.1,1.6-5.6,0l-41.1-41.1L115.7,68c1.6-1.6,4.1-1.6,5.6,0l3.1,3.1c1.6,1.6,1.6,4.1,0,5.6
	l-32.3,32.3l32.3,32.3C126,143,126,145.5,124.5,147.1z"/>
</symbol><symbol id="arrow_right" viewBox="0 0 218.2 218.2">
<path d="M0,109.1c0,14.7,2.9,29,8.6,42.5c5.5,13,13.4,24.7,23.4,34.7c10,10,21.7,17.9,34.7,23.4c13.5,5.7,27.7,8.6,42.5,8.6
	c14.7,0,29-2.9,42.5-8.6c13-5.5,24.7-13.4,34.7-23.4c10-10,17.9-21.7,23.4-34.7c5.7-13.5,8.6-27.7,8.6-42.5c0-14.7-2.9-29-8.6-42.5
	c-5.5-13-13.4-24.7-23.4-34.7c-10-10-21.7-17.9-34.7-23.4C138.1,2.9,123.8,0,109.1,0c-14.7,0-29,2.9-42.5,8.6
	C53.6,14.1,42,21.9,32,32S14.1,53.6,8.6,66.6C2.9,80.1,0,94.4,0,109.1z M11.7,109.1c0-26,10.1-50.5,28.5-68.9s42.9-28.5,68.9-28.5
	c26,0,50.5,10.1,68.9,28.5s28.5,42.9,28.5,68.9c0,26-10.1,50.5-28.5,68.9s-42.9,28.5-68.9,28.5c-26,0-50.5-10.1-68.9-28.5
	S11.7,135.1,11.7,109.1z"/>
<path d="M23.3,109.1c0,47.4,38.4,85.8,85.8,85.8c47.4,0,85.8-38.4,85.8-85.8s-38.4-85.8-85.8-85.8C61.7,23.3,23.3,61.7,23.3,109.1z
	 M93.7,141.4l32.3-32.3L93.7,76.7c-1.6-1.6-1.6-4.1,0-5.6l3.1-3.1c1.6-1.6,4.1-1.6,5.6,0l41.1,41.1l-41.1,41.1
	c-1.6,1.6-4.1,1.6-5.6,0l-3.1-3.1C92.2,145.5,92.2,143,93.7,141.4z"/>
</symbol><symbol id="billing_dist" viewBox="0 0 219 220"><g><path d="m147.1 126.1l-12.2-22.4-22.4 12.3 12.2 22.4 22.4-12.3m-28.6-52.2l-89.5 48.9 8.2 14.9 89.6-48.9-8.3-14.9m-8.9-49.5c-46 0-83.6 36.3-85.7 81.8l94-51.3c4.1-2.3 9.3-.7 11.5 3.4l36.7 67.2c2.3 4.1.7 9.3-3.4 11.5l-91.5 50c11.5 5.8 24.5 9 38.3 9 47.4 0 85.8-38.4 85.8-85.8 0-47.4-38.4-85.8-85.7-85.8"/><path d="m109.6 219.3c-14.7 0-29-2.9-42.5-8.6-13-5.5-24.7-13.4-34.7-23.4-10-10-17.9-21.7-23.4-34.7-5.7-13.5-8.6-27.7-8.6-42.5 0-14.7 2.9-29 8.6-42.5 5.5-13 13.4-24.7 23.4-34.7 10-10 21.7-17.9 34.7-23.4 13.5-5.7 27.7-8.6 42.5-8.6 14.8 0 29 2.9 42.5 8.6 13 5.5 24.7 13.4 34.7 23.4 10 10 17.9 21.7 23.4 34.7 5.7 13.5 8.6 27.7 8.6 42.5 0 14.7-2.9 29-8.6 42.5-5.5 13-13.4 24.7-23.4 34.7-10 10-21.7 17.9-34.7 23.4-13.5 5.7-27.8 8.6-42.5 8.6m0-206.5c-26 0-50.5 10.1-68.9 28.5-18.4 18.4-28.5 42.9-28.5 68.9 0 26 10.1 50.5 28.5 68.9 18.4 18.4 42.9 28.5 68.9 28.5 26 0 50.5-10.1 68.9-28.5 18.4-18.4 28.5-42.9 28.5-68.9 0-26-10.1-50.5-28.5-68.9-18.5-18.4-42.9-28.5-68.9-28.5"/></g></symbol><symbol id="consumer_icon_100px" viewBox="0 0 100 100">
<g id="Consumer_Icon">
	<rect style="fill:none;" width="100" height="100"/>
	<g>
		<path style="fill:#DFE0E0;" d="M83,47V19h2v-6H69v6h2v28H9v40h30V57h22v30h30V47H83z M31,73H17V59h14V73z M83,73H69V59h14V73z"/>
		<path style="fill:#EFEFEF;" d="M83,13H69v6h2v6L83,13z M9,87l14-14h-6V59h14v6l18-18H9V87z"/>
	</g>
	<g>
		<polygon style="fill:#A6D7EA;" points="91,44 50,13 9,44 9,47 91,47 		"/>
		<polygon style="fill:#D3EBF4;" points="68.8,27.2 50,13 9,44 9,47 49,47 		"/>
	</g>
	<path style="fill:#3F4041;" d="M44,21v2h12v-2H44z M20,41h60v-2H20V41z M36,29h28v-2H36V29z M82,19H72v2h10V19z M28,35h44v-2H28V35
		z M70,67h12v-2H70V67z M75,72h2v-4h-2V72z M85,39.5V21h2V11H67v10h2v6.4L50,13L9,44v43h30V57h22v30h30V48h-2v37H63V55H37v30H11V45
		l39-29.5l21,15.9V19h-2v-6h16v6h-2v21.5l6,4.5h-4H12v2h77h2v-2v-1L85,39.5z M55,75c-1.1,0-2,0.9-2,2s0.9,2,2,2s2-0.9,2-2
		S56.1,75,55,75z M43,73h14V61H43V73z M45,63h10v8H45V63z M77,60h-2v4h2V60z M18,67h12v-2H18V67z M33,75V57H15v18H33z M17,59h14v14
		H17V59z M23,72h2v-4h-2V72z M81,38.9v-2.5l-8-6v2.5L81,38.9z M85,75V57H67v18H85z M69,59h14v14H69V59z M25,60h-2v4h2V60z"/>
</g>
</symbol><symbol id="consumer_icon_rev_100px" viewBox="0 0 100 100">
<g id="Comsumer_Icon_Rev">
	<rect style="fill:none;" width="100" height="100"/>
	<path style="fill:#767778;" d="M44,21v2h12v-2H44z M20,41h60v-2H20V41z M36,29h28v-2H36V29z M82,19H72v2h10V19z M28,35h44v-2H28V35
		z M70,67h12v-2H70V67z M75,72h2v-4h-2V72z M85,39.5V21h2V11H67v10h2v6.4L50,13L9,44v43h30V57h22v30h30V48h-2v37H63V55H37v30H11V45
		l39-29.5l21,15.9V19h-2v-6h16v6h-2v21.5l6,4.5h-4H12v2h77h2v-2v-1L85,39.5z M55,75c-1.1,0-2,0.9-2,2s0.9,2,2,2s2-0.9,2-2
		S56.1,75,55,75z M43,73h14V61H43V73z M45,63h10v8H45V63z M77,60h-2v4h2V60z M18,67h12v-2H18V67z M33,75V57H15v18H33z M17,59h14v14
		H17V59z M23,72h2v-4h-2V72z M81,38.9v-2.5l-8-6v2.5L81,38.9z M85,75V57H67v18H85z M69,59h14v14H69V59z M25,60h-2v4h2V60z"/>
</g>
</symbol><symbol id="consumer_icon_wht_100px" viewBox="0 0 100 100">
<g id="Comsumer_Icon_wht">
	<rect style="fill:none;" width="100" height="100"/>
	<path style="fill:#FFFFFF;" d="M44,21v2h12v-2H44z M20,41h60v-2H20V41z M36,29h28v-2H36V29z M82,19H72v2h10V19z M28,35h44v-2H28V35
		z M70,67h12v-2H70V67z M75,72h2v-4h-2V72z M85,39.5V21h2V11H67v10h2v6.4L50,13L9,44v43h30V57h22v30h30V48h-2v37H63V55H37v30H11V45
		l39-29.5l21,15.9V19h-2v-6h16v6h-2v21.5l6,4.5h-4H12v2h77h2v-2v-1L85,39.5z M55,75c-1.1,0-2,0.9-2,2s0.9,2,2,2s2-0.9,2-2
		S56.1,75,55,75z M43,73h14V61H43V73z M45,63h10v8H45V63z M77,60h-2v4h2V60z M18,67h12v-2H18V67z M33,75V57H15v18H33z M17,59h14v14
		H17V59z M23,72h2v-4h-2V72z M81,38.9v-2.5l-8-6v2.5L81,38.9z M85,75V57H67v18H85z M69,59h14v14H69V59z M25,60h-2v4h2V60z"/>
</g>
</symbol><symbol id="deliver-laptop" viewBox="0 0 465 279">
<g id="LAPTOP_2_">
	<rect x="464" y="253" style="fill:#DFE0E0;" width="1" height="3"/>
	<g>
		<polygon style="fill:#DFE0E0;" points="421,253 421,0 43,0 43,253 0,253 0,270 9,279 455,279 464,270 464,253 		"/>
		
			<linearGradient id="SVGID_1_" gradientUnits="userSpaceOnUse" x1="148.1745" y1="116.4348" x2="285.8776" y2="-261.9011" gradientTransform="matrix(1 0 0 1 0 240)">
			<stop offset="0" style="stop-color:#319CBF"/>
			<stop offset="1" style="stop-color:#8DC63F"/>
		</linearGradient>
		<rect x="62" y="20" style="fill:url(#SVGID_1_);" width="339" height="215"/>
		<polygon style="opacity:0.3;fill:#FFFFFF;enable-background:new    ;" points="43,255 83.5,255 338.5,0 43,0 		"/>
		<path style="fill:#3F4041;" d="M46,255h372v-2H46V255z M60,18v219h343V18H60z M401,235H62V20h339V235z M205,256v3.4l2.6,2.6h48.8
			l2.6-2.6V256h-2v2.6l-1.4,1.4h-47.2l-1.4-1.4V256H205z M4,270h456v-2H4V270z M421,253V0H43v253H0v17l5.7,5.7l1.4-1.4L2,269.2V255
			h43V2h374v253h43v14.2l-5.1,5.1l1.4,1.4l5.7-5.7v-17H421z M0,279h464v-2H0V279z"/>
	</g>
</g>
<path style="opacity:0.7;fill:#0F6F67;enable-background:new    ;" d="M225.8,93.2l-20.2-32l-41,109l41.2-17.9L225.8,93.2z M285,118
	l-47.4-67h-32.9l50.5,79.9L285,118z M156.5,178.9l32,21.8L289,158l17.5-44.1L156.5,178.9z"/>
</symbol><symbol id="deliver-phone" viewBox="0 0 108 182">
<g id="PHONE_2_">
	<polygon style="fill:#DFE0E0;" points="0,0 0,87.2 0,156 0,182 16,182 108,182 108,0 	"/>
	
		<linearGradient id="SVGID_1_" gradientUnits="userSpaceOnUse" x1="-39.9318" y1="109.0756" x2="97.1553" y2="-267.5682" gradientTransform="matrix(1 0 0 1 0 240)">
		<stop offset="0" style="stop-color:#319CBF"/>
		<stop offset="1" style="stop-color:#8DC63F"/>
	</linearGradient>
	<rect x="10" y="26" style="fill:url(#SVGID_1_);" width="88" height="130"/>
	<polygon style="opacity:0.3;fill:#FFFFFF;enable-background:new    ;" points="0,0 0,148.8 108,40.8 108,0 	"/>
	<path style="fill:#3F4041;" d="M48,169c0,3.3,2.7,6,6,6s6-2.7,6-6s-2.7-6-6-6S48,165.7,48,169z M58,169c0,2.2-1.8,4-4,4s-4-1.8-4-4
		s1.8-4,4-4S58,166.8,58,169z M46,12v2h16v-2H46z M8,155h2V26h88v130H16v2h84V24H8V155z M0,0v97.7V155h2V2h104v178H0v2h108V0H0z"/>
</g>
<path style="opacity:0.7;fill:#0F6F67;enable-background:new    ;" d="M51.7,79.1l-8.1-12.8l-16.4,43.6l16.5-7.2L51.7,79.1z
	 M75.4,89l-19-26.8H43.3l20.2,32L75.4,89z M24,113.4l12.8,8.7L77,105l7-17.7L24,113.4z"/>
</symbol><symbol id="deliver-tablet" viewBox="0 0 182 246">
<g id="TABLET_2_">
	<rect style="fill:#DFE0E0;" width="182" height="246"/>
	
		<linearGradient id="SVGID_1_" gradientUnits="userSpaceOnUse" x1="51.6352" y1="-8.846" x2="189.3382" y2="-387.1819" gradientTransform="matrix(1 0 0 1 0 240)">
		<stop offset="0" style="stop-color:#319CBF"/>
		<stop offset="1" style="stop-color:#8DC63F"/>
	</linearGradient>
	<rect x="10" y="30" style="fill:url(#SVGID_1_);" width="162" height="186"/>
	<polygon style="opacity:0.3;fill:#FFFFFF;enable-background:new    ;" points="0,246 182,64 182,0 0,0 	"/>
	<path style="fill:#3F4041;" d="M93,15c0-1.1-0.9-2-2-2s-2,0.9-2,2s0.9,2,2,2S93,16.1,93,15z M83,231c0,4.4,3.6,8,8,8s8-3.6,8-8
		s-3.6-8-8-8S83,226.6,83,231z M97,231c0,3.3-2.7,6-6,6s-6-2.7-6-6s2.7-6,6-6S97,227.7,97,231z M174,28H8v190h166V28z M172,216H10
		V30h162V216z M182,219V0H0v246h182v-2H2V2h178v217H182z"/>
</g>
<path style="opacity:0.7;fill:#0F6F67;enable-background:new    ;" d="M86.8,94.2L72,70.7l-30,80l30.2-13.1L86.8,94.2z M130.2,112.4
	L95.4,63.2H71.3l37.1,58.6L130.2,112.4z M36,157.1l23.4,16l73.7-31.3l12.8-32.4L36,157.1z"/>
</symbol><symbol id="doc_icon_100px" viewBox="0 0 100 100">
<g id="Doc_Icon_1_">
	<rect style="fill:none;" width="100" height="100"/>
	<g>
		<g>
			<polygon style="fill:#DFE0E0;" points="53,9 19,9 19,77 73,77 73,31 74,31 74,30 			"/>
		</g>
		<polygon style="fill:#EFEFEF;" points="53,9 19,9 19,77 70,26 		"/>
	</g>
	<polygon style="fill:#A6D7EA;" points="79,35 77,33 73,33 73,77 25,77 25,89 79,89 	"/>
	<path style="fill:#3F4041;" d="M47,15H25v2h22V15z M25,23h22v-2H25V23z M31,81v2h42v-2H31z M25,29h22v-2H25V29z M67,33H25v2h42V33z
		 M67,39H25v2h42V39z M67,45H25v2h42V45z M67,51H25v2h42V51z M67,57H25v2h42V57z M67,63H25v2h42V63z M25,71h42v-2H25V71z M75,31h-4
		v44H21V11h31.2l17,17H53V14h-2v16h23L53,9H19v68h54V33h1.2l2.8,2.8V87H27v-9h-2v11h54V35L75,31z"/>
</g>
</symbol><symbol id="doc_icon_rev_100px" viewBox="0 0 100 100">
<g id="Doc_Icon_Rev_2_">
	<rect style="fill:none;" width="100" height="100"/>
	<path style="fill:#767778;" d="M47,15H25v2h22V15z M25,23h22v-2H25V23z M31,81v2h42v-2H31z M25,29h22v-2H25V29z M67,33H25v2h42V33z
		 M67,39H25v2h42V39z M67,45H25v2h42V45z M67,51H25v2h42V51z M67,57H25v2h42V57z M67,63H25v2h42V63z M25,71h42v-2H25V71z M75,31h-4
		v44H21V11h31.2l17,17H53V14h-2v16h23L53,9H19v68h54V33h1.2l2.8,2.8V87H27v-9h-2v11h54V35L75,31z"/>
</g>
</symbol><symbol id="doc_icon_wht_100px" viewBox="0 0 100 100">
<g id="Doc_Icon_wht">
	<rect style="fill:none;" width="100" height="100"/>
	<path style="fill:#FFFFFF;" d="M47,15H25v2h22V15z M25,23h22v-2H25V23z M31,81v2h42v-2H31z M25,29h22v-2H25V29z M67,33H25v2h42V33z
		 M67,39H25v2h42V39z M67,45H25v2h42V45z M67,51H25v2h42V51z M67,57H25v2h42V57z M67,63H25v2h42V63z M25,71h42v-2H25V71z M75,31h-4
		v44H21V11h31.2l17,17H53V14h-2v16h23L53,9H19v68h54V33h1.2l2.8,2.8V87H27v-9h-2v11h54V35L75,31z"/>
</g>
</symbol><symbol id="eye" viewBox="0 0 218.2 218.2">
<path d="M209.6,66.6c-5.5-13-13.4-24.7-23.4-34.7s-21.7-17.9-34.7-23.4C138.1,2.9,123.8,0,109.1,0c-14.7,0-29,2.9-42.5,8.6
	C53.6,14.1,42,21.9,32,32c-10,10-17.9,21.7-23.4,34.7C2.9,80.1,0,94.4,0,109.1c0,14.7,2.9,29,8.6,42.5c5.5,13,13.4,24.7,23.4,34.7
	c10,10,21.7,17.9,34.7,23.4c13.5,5.7,27.7,8.6,42.5,8.6c14.7,0,29-2.9,42.5-8.6c13-5.5,24.7-13.4,34.7-23.4
	c10-10,17.9-21.7,23.4-34.7c5.7-13.5,8.6-27.7,8.6-42.5C218.2,94.4,215.3,80.1,209.6,66.6z M178,178c-18.4,18.4-42.9,28.5-68.9,28.5
	c-26,0-50.5-10.1-68.9-28.5s-28.5-42.9-28.5-68.9c0-26,10.1-50.5,28.5-68.9s42.9-28.5,68.9-28.5c26,0,50.5,10.1,68.9,28.5
	s28.5,42.9,28.5,68.9C206.5,135.1,196.4,159.6,178,178z M109.1,23.3c-47.4,0-85.8,38.4-85.8,85.8s38.4,85.8,85.8,85.8
	c47.4,0,85.8-38.4,85.8-85.8S156.5,23.3,109.1,23.3z M109.1,152.3c-26.9,0-49.4-18.4-55.8-43.2c6.4-24.9,28.9-43.2,55.8-43.2
	c26.9,0,49.4,18.4,55.8,43.2C158.4,133.9,135.9,152.3,109.1,152.3z M109.1,80.3c-15.9,0-28.8,12.9-28.8,28.8
	c0,15.9,12.9,28.8,28.8,28.8c15.9,0,28.8-12.9,28.8-28.8C137.9,93.2,125,80.3,109.1,80.3z M109.1,127.1c-10,0-18-8.1-18-18
	c0-10,8.1-18,18-18c0.3,0,0.5,0.1,0.8,0.1c-0.4,1.2-0.8,2.5-0.8,3.5c0,8,6.4,14.4,14.4,14.4c1.1,0,2.3-0.3,3.5-0.8
	c0,0.3,0.1,0.5,0.1,0.8C127.1,119,119,127.1,109.1,127.1z"/>
</symbol><symbol id="funding_icon" viewBox="0 0 40 40">
<g>
	<rect x="12" y="13" width="10" height="2"/>
	<rect x="12" y="21" width="16" height="2"/>
	<rect x="12" y="17" width="10" height="2"/>
	<rect x="12" y="29" width="16" height="2"/>
	<rect x="12" y="25" width="16" height="2"/>
	<path d="M33,28.9V19h1v8.3c1-2.2,1.8-4.6,1.8-7.3c0-8.7-7.1-15.8-15.8-15.8S4.2,11.3,4.2,20c0,4.9,1.8,9.3,5.8,12.2V11h14v6h6v15.2
		c0-0.3,1-0.6,1-0.9V17h1v13.2C32,29.8,33,29.4,33,28.9z M26,15v-4l4,4H26z"/>
</g>
<path fill="none" stroke="#000000" stroke-width="2" stroke-miterlimit="10" d="M20,38.8C9.7,38.8,1.3,30.3,1.3,20S9.7,1.2,20,1.2
	S38.8,9.7,38.8,20S30.3,38.8,20,38.8z"/>
</symbol><symbol id="gradient">
  
</symbol><symbol id="growthchart_dch_edit" viewBox="0 0 1600 1032.4">
<g id="top-icons">
	<g id="btn-1" class="step-1">
		<g class="ring">
			<path class="step-1-high" d="M174.5,883.7c-8.1,0-16-1.6-23.4-4.7c-7.1-3-13.6-7.3-19.1-12.9c-5.5-5.5-9.8-11.9-12.9-19.1
				c-3.1-7.4-4.7-15.3-4.7-23.4s1.6-16,4.7-23.4c3-7.1,7.3-13.6,12.9-19.1c5.5-5.5,11.9-9.8,19.1-12.9c7.4-3.1,15.3-4.7,23.4-4.7
				c8.1,0,16,1.6,23.4,4.7c7.1,3,13.6,7.3,19.1,12.9c5.5,5.5,9.8,11.9,12.9,19.1c3.1,7.4,4.7,15.3,4.7,23.4s-1.6,16-4.7,23.4
				c-3,7.1-7.3,13.6-12.9,19.1c-5.5,5.5-11.9,9.8-19.1,12.9C190.4,882.1,182.6,883.7,174.5,883.7z M174.5,770.1
				c-14.3,0-27.8,5.6-37.9,15.7c-10.1,10.1-15.7,23.6-15.7,37.9s5.6,27.8,15.7,37.9c10.1,10.1,23.6,15.7,37.9,15.7
				s27.8-5.6,37.9-15.7c10.1-10.1,15.7-23.6,15.7-37.9s-5.6-27.8-15.7-37.9C202.2,775.7,188.8,770.1,174.5,770.1z"/>
				<polygon fill="#A6D7EA" points="163.5,881.8 174.5,892.7 185.5,881.8 		"/>
		</g>
		<g>
			<path class="step-1-high" d="M195.1,832.5l-6.7-12.3l-12.3,6.7l6.7,12.3L195.1,832.5z M179.4,803.7l-49.3,26.9l4.5,8.2l49.3-26.9
				L179.4,803.7z M174.5,776.5c-25.3,0-46,19.9-47.1,45l51.7-28.2c2.3-1.2,5.1-0.4,6.3,1.9l20.2,37c1.2,2.3,0.4,5.1-1.9,6.3
				l-50.3,27.5c6.3,3.2,13.5,5,21.1,5c26.1,0,47.2-21.1,47.2-47.2C221.7,797.7,200.5,776.5,174.5,776.5z"/>
			<rect x="110" y="765" width="130" height="130" fill="#ff0000" fill-opacity="0.0"/>
		</g>

	</g>
	<g id="btn-2" class="step-2">
		<g class="ring">
			<path class="step-2-high" d="M424.7,790.9c-8.1,0-16-1.6-23.4-4.7c-7.1-3-13.6-7.3-19.1-12.9c-5.5-5.5-9.8-11.9-12.9-19.1
				c-3.1-7.4-4.7-15.3-4.7-23.4s1.6-16,4.7-23.4c3-7.1,7.3-13.6,12.9-19.1c5.5-5.5,11.9-9.8,19.1-12.9c7.4-3.1,15.3-4.7,23.4-4.7
				c8.1,0,16,1.6,23.4,4.7c7.1,3,13.6,7.3,19.1,12.9c5.5,5.5,9.8,11.9,12.9,19.1c3.1,7.4,4.7,15.3,4.7,23.4s-1.6,16-4.7,23.4
				c-3,7.1-7.3,13.6-12.9,19.1c-5.5,5.5-11.9,9.8-19.1,12.9C440.7,789.3,432.8,790.9,424.7,790.9z M424.7,677.3
				c-14.3,0-27.8,5.6-37.9,15.7c-10.1,10.1-15.7,23.6-15.7,37.9s5.6,27.8,15.7,37.9c10.1,10.1,23.6,15.7,37.9,15.7
				c14.3,0,27.8-5.6,37.9-15.7c10.1-10.1,15.7-23.6,15.7-37.9s-5.6-27.8-15.7-37.9S439,677.3,424.7,677.3z"/>
				<polygon fill="#2F9BC2" points="413.7,788.9 424.7,799.9 435.7,788.9 		"/>
		</g>
		<g>
			<path class="step-2-high" d="M394.8,757.1c8.9-2.7,6.3-10.2,6.3-10.2c-2.1-3-3.8-4.9-5-8.9c0,0,0,0-0.1,0c-4.5,0-7-13.4-1.3-13.4
				c1-10.2,7.2-17.9,14.7-17.9c7.6,0,13.8,7.7,14.7,17.9c5.7,0,3.2,13.4-1.3,13.4c0,0,0,0-0.1,0c-1.1,4.1-2.9,6-5,8.9
				c0,0,0.4,9.6,11.3,12.6c4.2,1.2,7.2,5,7.2,9.4v7.8c2.3-0.6,4.5-1.3,6.7-2.2v-5.5c0-7.4-5-13.9-12.1-15.9
				c-0.3-0.1-0.6-0.2-0.9-0.4c-2.9-2.8-3.1-6.7-1.9-9.6c3.9-2.7,6.1-8.2,6.1-13.6c0-2.7-0.6-5-1.7-6.9c-0.4-0.8-1-1.4-1.6-2
				c2.6-3.1,6-5,9.8-5c7.6,0,13.8,7.7,14.8,17.9c2.2,0,3.2,2,3.3,4.5h-0.1v2.2c-0.5,3.4-2.2,6.8-4.5,6.8c0,0,0,0-0.1,0
				c-1.2,4.1-2.9,6-5,8.9c0,0-2.6,7.6,6.5,10.2c0.1,0,0.3,0.1,0.4,0.1c9.8-8.6,15.9-21.3,15.9-35.3c0-26.1-21.1-47.2-47.2-47.2
				c-26.1,0-47.2,21.1-47.2,47.2c0,11.7,4.3,22.4,11.3,30.7C390.2,759.4,392.3,757.8,394.8,757.1z"/>
				<rect x="360" y="665" width="130" height="130" fill="#ff0000" fill-opacity="0.0"/>
		</g>

	</g>
	<g id="btn-3" class="step-3">
		<g class="ring">
			<path class="step-3-high" d="M674.9,668.2c-8.1,0-16-1.6-23.4-4.7c-7.1-3-13.6-7.3-19.1-12.9c-5.5-5.5-9.8-11.9-12.9-19.1
				c-3.1-7.4-4.7-15.3-4.7-23.4s1.6-16,4.7-23.4c3-7.1,7.3-13.6,12.9-19.1c5.5-5.5,11.9-9.8,19.1-12.9c7.4-3.1,15.3-4.7,23.4-4.7
				s16,1.6,23.4,4.7c7.1,3,13.6,7.3,19.1,12.9c5.5,5.5,9.8,11.9,12.9,19.1c3.1,7.4,4.7,15.3,4.7,23.4s-1.6,16-4.7,23.4
				c-3,7.1-7.3,13.6-12.9,19.1c-5.5,5.5-11.9,9.8-19.1,12.9C690.9,666.6,683,668.2,674.9,668.2z M674.9,554.6
				c-14.3,0-27.8,5.6-37.9,15.7c-10.1,10.1-15.7,23.6-15.7,37.9s5.6,27.8,15.7,37.9c10.1,10.1,23.6,15.7,37.9,15.7
				s27.8-5.6,37.9-15.7c10.1-10.1,15.7-23.6,15.7-37.9s-5.6-27.8-15.7-37.9S689.2,554.6,674.9,554.6z"/>
				<polygon fill="#145A7D" points="663.9,666.2 674.9,677.2 685.9,666.2 		"/>
			</g>
		<g>

				<path class="step-3-high" d="M714.1,592.3h-41.4v8.3h41.4V592.3z M672.7,617h41.4v-8.3h-41.4V617z M693.3,629.4l-20.6,16.5v-16.5h-8.3
					c-2.3,0-4.1-1.8-4.1-4.1V584c0-2.3,1.8-4.1,4.1-4.1h48.2c-8.6-11.4-22.3-18.8-37.7-18.8c-26.1,0-47.2,21.1-47.2,47.2
					s21.1,47.2,47.2,47.2c18.4,0,34.4-10.6,42.2-26H693.3z"/>
					<rect x="610" y="545" width="130" height="130" fill="#ff0000" fill-opacity="0.0"/>
		</g>

	</g>
	<g id="btn-4" class="step-4">
		<g class="ring">

				<path class="step-4-high" d="M925.1,408.2c-26.1,0-47.2,21.1-47.2,47.2c0,8.6,2.3,16.7,6.3,23.6h11.5v-23.5h23.5v-11.7h-11.7V432h35.2
					v11.7H931v11.7h23.5V479h11.5c4-6.9,6.3-15,6.3-23.6C972.3,429.3,951.2,408.2,925.1,408.2z M942.7,499.1c4.3-1.7,8.2-4,11.7-6.9
					v-1.5h-11.7V499.1z M895.7,492.3c3.5,2.8,7.5,5.1,11.7,6.9v-8.4h-11.7V492.3z M942.7,467.2h-35.2V479h11.7v23.2
					c1.9,0.2,3.9,0.4,5.9,0.4c2,0,3.9-0.1,5.9-0.4V479h11.7V467.2z"/>
				<polygon fill="#0F6F67" points="914.1,513.4 925.1,524.4 936.1,513.4 		"/>
		</g>
		<path class="step-4-high" d="M925.1,515.4c-8.1,0-16-1.6-23.4-4.7c-7.1-3-13.6-7.3-19.1-12.9c-5.5-5.5-9.8-11.9-12.9-19.1
			c-3.1-7.4-4.7-15.3-4.7-23.4s1.6-16,4.7-23.4c3-7.1,7.3-13.6,12.9-19.1c5.5-5.5,11.9-9.8,19.1-12.9c7.4-3.1,15.3-4.7,23.4-4.7
			s16,1.6,23.4,4.7c7.1,3,13.6,7.3,19.1,12.9s9.8,11.9,12.9,19.1c3.1,7.4,4.7,15.3,4.7,23.4s-1.6,16-4.7,23.4
			c-3,7.1-7.3,13.6-12.9,19.1s-11.9,9.8-19.1,12.9C941.1,513.8,933.2,515.4,925.1,515.4z M925.1,401.8c-14.3,0-27.8,5.6-37.9,15.7
			c-10.1,10.1-15.7,23.6-15.7,37.9s5.6,27.8,15.7,37.9c10.1,10.1,23.6,15.7,37.9,15.7s27.8-5.6,37.9-15.7
			c10.1-10.1,15.7-23.6,15.7-37.9s-5.6-27.8-15.7-37.9C952.9,407.3,939.4,401.8,925.1,401.8z"/>
			<rect x="860" y="390" width="130" height="130" fill="#ff0000" fill-opacity="0.0"/>
	</g>
	<g id="btn-5" class="step-5">
			<g>
				<path class="step-5-high" d="M1140.9,252.4h68.2v52.7c8.3-8.5,13.4-20.1,13.4-32.9c0-26.1-21.1-47.2-47.2-47.2s-47.2,21.1-47.2,47.2
					c0,12.5,4.9,23.9,12.8,32.3V252.4z"/>
				<path class="step-5-high" d="M1149.5,311.7c0.2,0.1,0.4,0.3,0.6,0.4h50.5c0,0,0,0,0.1,0v-42.6h-51.1V311.7z M1162.2,286.5h8.5V278
					h8.5v8.5h8.5v8.5h-8.5v8.5h-8.5V295h-8.5V286.5z"/>
			</g>
			<g class="ring">
				<path class="step-5-high" d="M1175.3,332.2c-8.1,0-16-1.6-23.4-4.7c-7.1-3-13.6-7.3-19.1-12.9c-5.5-5.5-9.8-11.9-12.9-19.1
				c-3.1-7.4-4.7-15.3-4.7-23.4s1.6-16,4.7-23.4c3-7.1,7.3-13.6,12.9-19.1c5.5-5.5,11.9-9.8,19.1-12.9c7.4-3.1,15.3-4.7,23.4-4.7
				s16,1.6,23.4,4.7c7.1,3,13.6,7.3,19.1,12.9c5.5,5.5,9.8,11.9,12.9,19.1c3.1,7.4,4.7,15.3,4.7,23.4s-1.6,16-4.7,23.4
				c-3,7.1-7.3,13.6-12.9,19.1c-5.5,5.5-11.9,9.8-19.1,12.9C1191.3,330.6,1183.4,332.2,1175.3,332.2z M1175.3,218.6
				c-14.3,0-27.8,5.6-37.9,15.7c-10.1,10.1-15.7,23.6-15.7,37.9s5.6,27.8,15.7,37.9c10.1,10.1,23.6,15.7,37.9,15.7
				s27.8-5.6,37.9-15.7c10.1-10.1,15.7-23.6,15.7-37.9s-5.6-27.8-15.7-37.9C1203.1,224.2,1189.6,218.6,1175.3,218.6z"/>
				<polygon fill="#64A62E" points="1164.1,330.3 1175,341.2 1186,330.3 		"/>
		</g>
		<rect x="1110" y="208" width="130" height="130" fill="#ff0000" fill-opacity="0.0"/>
	</g>
	<g id="btn-6" class="step-6">
		<g class="ring">
			<path class="step-6-high" d="M1425.5,120c-8.1,0-16-1.6-23.4-4.7c-7.1-3-13.6-7.3-19.1-12.9c-5.5-5.5-9.8-11.9-12.9-19.1
				c-3.1-7.4-4.7-15.3-4.7-23.4s1.6-16,4.7-23.4c3-7.1,7.3-13.6,12.9-19.1c5.5-5.5,11.9-9.8,19.1-12.9c7.4-3.1,15.3-4.7,23.4-4.7
				c8.1,0,16,1.6,23.4,4.7c7.1,3,13.6,7.3,19.1,12.9c5.5,5.5,9.8,11.9,12.9,19.1c3.1,7.4,4.7,15.3,4.7,23.4s-1.6,16-4.7,23.4
				c-3,7.1-7.3,13.6-12.9,19.1c-5.5,5.5-11.9,9.8-19.1,12.9C1441.5,118.4,1433.6,120,1425.5,120z M1425.5,6.4
				c-14.3,0-27.8,5.6-37.9,15.7c-10.1,10.1-15.7,23.6-15.7,37.9s5.6,27.8,15.7,37.9c10.1,10.1,23.6,15.7,37.9,15.7
				s27.8-5.6,37.9-15.7s15.7-23.6,15.7-37.9s-5.6-27.8-15.7-37.9S1439.8,6.4,1425.5,6.4z"/>
				<polygon class="step-6-high" points="1414.5,118 1425.5,129 1436.5,118 		"/>
			</g>
			<g>
				<path class="step-6-high" d="M1425.5,12.8c-26.1,0-47.2,21.1-47.2,47.2c0,13.5,5.6,25.6,14.7,34.2v-12c2.2,0.8,4.5,1.2,7,1.2
					c2.4,0,4.8-0.4,7-1.2v14.5h37.1V82.2c2.2,0.8,4.5,1.2,7,1.2c2.4,0,4.8-0.4,7-1.2v12c9-8.6,14.7-20.7,14.7-34.2
					C1472.7,33.9,1451.6,12.8,1425.5,12.8z M1451,72.9c-4.4,0-8.3-2.5-10.2-6.1c-2.2,6.3-8.2,10.8-15.3,10.8c-7,0-13-4.5-15.3-10.8
					c-2,3.6-5.8,6.1-10.2,6.1c-6.4,0-11.6-5.2-11.6-11.6l7.7-21.2c0.9-2.4,3.7-4.3,6.2-4.3h46.4c2.5,0,5.4,1.9,6.2,4.3l7.7,21.2
					C1462.6,67.7,1457.4,72.9,1451,72.9z"/>
			</g>
			<rect x="1360" y="0" width="130" height="130" fill="#ff0000" fill-opacity="0.0"/>
	</g>
</g>
<g id="bars">
	<g id="col-1">
		<g class="step-1">
			<path class="step-1-low" d="M264,961.4H85v-52c0-3.3,2.7-6,6-6h167c3.3,0,6,2.7,6,6V961.4z"/>
			<polygon class="step-1-high" points="264,961.4 85,961.4 85,909.4 			"/>
		</g>
	</g>
	<g id="col-2">
		<g class="step-1">
			<path class="step-1-low" d="M514.2,961.4h-179v-82c0-3.3,2.7-6,6-6h167c3.3,0,6,2.7,6,6V961.4z"/>
			<polygon class="step-1-high" points="514.2,961.4 335.2,961.4 335.2,879.4 			"/>
		</g>
		<g class="step-2">
			<path class="step-2-low" d="M508.2,868.4h-167c-3.3,0-6-2.7-6-6v-46c0-3.3,2.7-6,6-6h167c3.3,0,6,2.7,6,6v46
				C514.2,865.7,511.5,868.4,508.2,868.4z"/>
			<path class="step-2-high" d="M508.2,868.4h-167c-3.3,0-6-2.7-6-6v-46L508.2,868.4z"/>
		</g>
	</g>
	<g id="col-3">
		<g class="step-1">
			<path class="step-1-low" d="M764.4,961.4h-179v-112c0-3.3,2.7-6,6-6h167c3.3,0,6,2.7,6,6V961.4z"/>
			<polygon class="step-1-high" points="764.4,961.4 585.4,961.4 585.4,849.4 			"/>
		</g>
		<g class="step-2">
			<path class="step-2-low" d="M758.4,838.4h-167c-3.3,0-6-2.7-6-6v-76c0-3.3,2.7-6,6-6h167c3.3,0,6,2.7,6,6v76
				C764.4,835.7,761.7,838.4,758.4,838.4z"/>
			<path class="step-2-high" d="M758.4,838.4h-167c-3.3,0-6-2.7-6-6v-76L758.4,838.4z"/>
		</g>
		<g class="step-3">
			<path class="step-3-low" d="M758.4,745.4h-167c-3.3,0-6-2.7-6-6v-46c0-3.3,2.7-6,6-6h167c3.3,0,6,2.7,6,6v46
				C764.4,742.7,761.7,745.4,758.4,745.4z"/>
			<path class="step-3-high" d="M758.4,745.4h-167c-3.3,0-6-2.7-6-6v-46L758.4,745.4z"/>
		</g>
	</g>
	<g id="col-4">
		<g class="step-1">
			<path class="step-1-low" d="M1014.6,961.4h-179v-142c0-3.3,2.7-6,6-6h167c3.3,0,6,2.7,6,6V961.4z"/>
			<polygon class="step-1-high" points="1014.6,961.4 835.6,961.4 835.6,819.4 			"/>
		</g>
		<g class="step-2">
			<path class="step-2-low" d="M1008.6,808.4h-167c-3.3,0-6-2.7-6-6v-106c0-3.3,2.7-6,6-6h167c3.3,0,6,2.7,6,6v106
				C1014.6,805.7,1011.9,808.4,1008.6,808.4z"/>
			<path class="step-2-high" d="M1008.6,808.4h-167c-3.3,0-6-2.7-6-6v-106L1008.6,808.4z"/>
		</g>
		<g class="step-3">
			<path class="step-3-low" d="M1008.6,685.4h-167c-3.3,0-6-2.7-6-6v-76c0-3.3,2.7-6,6-6h167c3.3,0,6,2.7,6,6v76
				C1014.6,682.7,1011.9,685.4,1008.6,685.4z"/>
			<path class="step-3-high" d="M1008.6,685.4h-167c-3.3,0-6-2.7-6-6v-76L1008.6,685.4z"/>
		</g>
		<g class="step-4">
			<path class="step-4-low" d="M1008.6,592.4h-167c-3.3,0-6-2.7-6-6v-46c0-3.3,2.7-6,6-6h167c3.3,0,6,2.7,6,6v46
				C1014.6,589.7,1011.9,592.4,1008.6,592.4z"/>
			<path class="step-4-high" d="M1008.6,592.4h-167c-3.3,0-6-2.7-6-6v-46L1008.6,592.4z"/>
		</g>
	</g>
	<g id="col-5">
		<g class="step-1">
			<path class="step-1-low" d="M1264.8,961.4h-179v-172c0-3.3,2.7-6,6-6h167c3.3,0,6,2.7,6,6V961.4z"/>
			<polygon class="step-1-high" points="1264.8,961.4 1085.8,961.4 1085.8,789.4 			"/>
		</g>
		<g class="step-2">
			<path class="step-2-low" d="M1258.8,778.4h-167c-3.3,0-6-2.7-6-6v-136c0-3.3,2.7-6,6-6h167c3.3,0,6,2.7,6,6v136
				C1264.8,775.7,1262.1,778.4,1258.8,778.4z"/>
			<path class="step-2-high" d="M1258.8,778.4h-167c-3.3,0-6-2.7-6-6v-136L1258.8,778.4z"/>
		</g>
		<g class="step-3">
			<path class="step-3-low" d="M1258.8,625.4h-167c-3.3,0-6-2.7-6-6v-106c0-3.3,2.7-6,6-6h167c3.3,0,6,2.7,6,6v106
				C1264.8,622.7,1262.1,625.4,1258.8,625.4z"/>
			<path class="step-3-high" d="M1258.8,625.4h-167c-3.3,0-6-2.7-6-6v-106L1258.8,625.4z"/>
		</g>
		<g class="step-4">
			<path class="step-4-low" d="M1258.8,502.4h-167c-3.3,0-6-2.7-6-6v-76c0-3.3,2.7-6,6-6h167c3.3,0,6,2.7,6,6v76
				C1264.8,499.7,1262.1,502.4,1258.8,502.4z"/>
			<path class="step-4-high" d="M1258.8,502.4h-167c-3.3,0-6-2.7-6-6v-76L1258.8,502.4z"/>
		</g>
		<g class="step-5">
			<path class="step-5-low" d="M1258.8,409.4h-167c-3.3,0-6-2.7-6-6v-46c0-3.3,2.7-6,6-6h167c3.3,0,6,2.7,6,6v46
				C1264.8,406.7,1262.1,409.4,1258.8,409.4z"/>
				<path class="step-5-high" d="M1258.8,409.4h-167c-3.3,0-6-2.7-6-6v-46L1258.8,409.4z"/>
		</g>
	</g>
	<g id="col-6">
		<g class="step-1">
			<path class="step-1-low" d="M1515,961.4h-179v-202c0-3.3,2.7-6,6-6h167c3.3,0,6,2.7,6,6V961.4z"/>
			<polygon class="step-1-high" points="1515,961.4 1336,961.4 1336,759.4 			"/>
		</g>
		<g class="step-2">
			<path class="step-2-low" d="M1509,748.4h-167c-3.3,0-6-2.7-6-6v-166c0-3.3,2.7-6,6-6h167c3.3,0,6,2.7,6,6v166
				C1515,745.7,1512.3,748.4,1509,748.4z"/>
			<path class="step-2-high" d="M1509,748.4h-167c-3.3,0-6-2.7-6-6v-166L1509,748.4z"/>
		</g>
		<g class="step-3">
			<path class="step-3-low" d="M1509,565.4h-167c-3.3,0-6-2.7-6-6v-136c0-3.3,2.7-6,6-6h167c3.3,0,6,2.7,6,6v136
				C1515,562.7,1512.3,565.4,1509,565.4z"/>
			<path class="step-3-high" d="M1509,565.4h-167c-3.3,0-6-2.7-6-6v-136L1509,565.4z"/>
		</g>
		<g class="step-4">
			<path class="step-4-low" d="M1509,412.4h-167c-3.3,0-6-2.7-6-6v-106c0-3.3,2.7-6,6-6h167c3.3,0,6,2.7,6,6v106
				C1515,409.7,1512.3,412.4,1509,412.4z"/>
			<path class="step-4-high" d="M1509,412.4h-167c-3.3,0-6-2.7-6-6v-106L1509,412.4z"/>
		</g>
		<g class="step-5">
			<path class="step-5-low" d="M1509,289.4h-167c-3.3,0-6-2.7-6-6v-76c0-3.3,2.7-6,6-6h167c3.3,0,6,2.7,6,6v76
				C1515,286.7,1512.3,289.4,1509,289.4z"/>
			<path class="step-5-high" d="M1509,289.4h-167c-3.3,0-6-2.7-6-6v-76L1509,289.4z"/>
		</g>
		<g class="step-6">
			<path class="step-6-low" d="M1509,196.4h-167c-3.3,0-6-2.7-6-6v-46c0-3.3,2.7-6,6-6h167c3.3,0,6,2.7,6,6v46
				C1515,193.7,1512.3,196.4,1509,196.4z"/>
			<path class="step-6-high" d="M1509,196.4h-167c-3.3,0-6-2.7-6-6v-46L1509,196.4z"/>
		</g>
	</g>

</g>
<g id="bottom">
	<path fill="#E3E6E6" d="M1591.5,979.4H8.5c-4.7,0-8.5-3.8-8.5-8.5v-8.5h1600v8.5C1600,975.5,1596.2,979.4,1591.5,979.4z"/>
	<rect y="961.4" fill="#ADAEAF" width="1600" height="2"/>
</g>
</symbol><symbol id="hover" viewBox="0 0 109 109">
<path fill="#404042" d="M54.5,109C24.4,109,0,84.6,0,54.5S24.4,0,54.5,0S109,24.4,109,54.5S84.6,109,54.5,109z M54.5,4
	C26.7,4,4,26.7,4,54.5S26.7,105,54.5,105S105,82.3,105,54.5S82.3,4,54.5,4z"/>
</symbol><symbol id="icon_blank" viewBox="0 0 40 40">
<style type="text/css">
	.st0{fill:none;}
</style>
<path class="st0" d="M20,2.1c-9.9,0-17.9,8-17.9,17.9c0,9.9,8,17.9,17.9,17.9s17.9-8,17.9-17.9C37.9,10.1,29.9,2.1,20,2.1z M20,35.7
	c-8.7,0-15.7-7-15.7-15.7c0-8.7,7-15.7,15.7-15.7c8.7,0,15.7,7,15.7,15.7C35.7,28.7,28.7,35.7,20,35.7z"/>
<path d="M20,0C9,0,0,9,0,20c0,11,9,20,20,20s20-9,20-20C40,9,31,0,20,0z M20,38c-9.9,0-18-8.1-18-18c0-9.9,8.1-18,18-18
	s18,8.1,18,18C38,29.9,29.9,38,20,38z M20,4C11.2,4,4,11.2,4,20c0,8.8,7.2,16,16,16c8.8,0,16-7.2,16-16C36,11.2,28.8,4,20,4z"/>
</symbol><symbol id="login_icon" viewBox="0 0 112.2 113.5">
<path id="Shape_3_" d="M91.6,81.5c-28.4,0-22.2-17.7-22.2-17.7c3.4-4.7,6.1-7.7,7.9-14.1c0,0,0.1,0,0.1,0c7.1,0,11.1-21.3,2.1-21.3
	C78,12.2,68.2,0,56.2,0c-12,0-21.8,12.2-23.3,28.4c-9.1,0-5,21.3,2.1,21.3c0,0,0.1,0,0.1,0c1.8,6.4,4.5,9.4,7.9,14.1
	c0,0,6.2,17.7-22.2,17.7c-11.6,0-18.5,12-20.6,24.2c-0.3,2,0.2,4,1.5,5.5c1.3,1.5,3.1,2.4,5.1,2.4h49.4h49.4c2,0,3.9-0.9,5.1-2.4
	c1.3-1.5,1.8-3.5,1.5-5.5C110.1,93.5,103.3,81.5,91.6,81.5L91.6,81.5L91.6,81.5z"/>
</symbol><symbol id="marketplace_icon_100px" viewBox="0 0 100 100">
<g id="Marketplace_Icon">
	<rect style="fill:none;" width="100" height="100"/>
	<g>
		<path style="fill:#DFE0E0;" d="M9,37v45h8V52h22v30h52V37H9z M47,72v-3h-2V57h2v-1h36v1h2v12h-2v3H47z"/>
		<polygon style="fill:#EFEFEF;" points="17,52 39,52 54,37 9,37 9,82 17,74 		"/>
	</g>
	<g>
		<g>
			<path style="fill:#A6D7EA;" d="M9,18v19c0,5,4,9,9,9c3.5,0,6.5-2,8-4.9c1.5,2.9,4.5,4.9,8,4.9s6.5-2,8-4.9c1.5,2.9,4.5,4.9,8,4.9
				s6.5-2,8-4.9c1.5,2.9,4.5,4.9,8,4.9s6.5-2,8-4.9c1.5,2.9,4.5,4.9,8,4.9c5,0,9-4,9-9V18H9z"/>
		</g>
		<path style="fill:#D3EBF4;" d="M18,46c3.5,0,6.5-2,8-4.9c1.5,2.9,4.5,4.9,8,4.9s6.5-2,8-4.9c0.9,1.7,2.3,3.1,4,3.9l27-27H9v19
			C9,42,13,46,18,46z"/>
	</g>
	<path style="fill:#3F4041;" d="M47,71V57h-2v14H47z M85,71V57h-2v14H85z M43,78h44v-6H43V78z M45,74h40v2H45V74z M87,50H43v6h44V50
		z M85,54H45v-2h40V54z M64,57v5h2v-5H64z M66,71v-5h-2v5H66z M82,63H48v2h34V63z M21,68h14V56H21V68z M23,58h10v8H23V58z M33,70
		c-1.1,0-2,0.9-2,2s0.9,2,2,2c1.1,0,2-0.9,2-2S34.1,70,33,70z M91,36V18H9v19c0,5,4,9,9,9c3.5,0,6.5-2,8-4.9c1.5,2.9,4.5,4.9,8,4.9
		s6.5-2,8-4.9c1.5,2.9,4.5,4.9,8,4.9s6.5-2,8-4.9c1.5,2.9,4.5,4.9,8,4.9s6.5-2,8-4.9c1.5,2.9,4.5,4.9,8,4.9c2.8,0,5.3-1.3,7-3.3V80
		H41V50H15v30h-4V45H9v37h8V52h22v30h52V37h-2c0,3.9-3.1,7-7,7s-7-3.1-7-7h-2c0,3.9-3.1,7-7,7s-7-3.1-7-7h-2c0,3.9-3.1,7-7,7
		s-7-3.1-7-7h-2c0,3.9-3.1,7-7,7s-7-3.1-7-7h-2c0,3.9-3.1,7-7,7s-7-3.1-7-7V20h78v16H91z"/>
</g>
</symbol><symbol id="marketplace_icon_rev_100px" viewBox="0 0 100 100">
<g id="Marketplace_Icon_Rev">
	<rect style="fill:none;" width="100" height="100"/>
	<path style="fill:#767778;" d="M47,71V57h-2v14H47z M85,71V57h-2v14H85z M43,78h44v-6H43V78z M45,74h40v2H45V74z M87,50H43v6h44V50
		z M85,54H45v-2h40V54z M64,57v5h2v-5H64z M66,71v-5h-2v5H66z M82,63H48v2h34V63z M21,68h14V56H21V68z M23,58h10v8H23V58z M33,70
		c-1.1,0-2,0.9-2,2s0.9,2,2,2c1.1,0,2-0.9,2-2S34.1,70,33,70z M91,36V18H9v19c0,5,4,9,9,9c3.5,0,6.5-2,8-4.9c1.5,2.9,4.5,4.9,8,4.9
		s6.5-2,8-4.9c1.5,2.9,4.5,4.9,8,4.9s6.5-2,8-4.9c1.5,2.9,4.5,4.9,8,4.9s6.5-2,8-4.9c1.5,2.9,4.5,4.9,8,4.9c2.8,0,5.3-1.3,7-3.3V80
		H41V50H15v30h-4V45H9v37h8V52h22v30h52V37h-2c0,3.9-3.1,7-7,7s-7-3.1-7-7h-2c0,3.9-3.1,7-7,7s-7-3.1-7-7h-2c0,3.9-3.1,7-7,7
		s-7-3.1-7-7h-2c0,3.9-3.1,7-7,7s-7-3.1-7-7h-2c0,3.9-3.1,7-7,7s-7-3.1-7-7V20h78v16H91z"/>
</g>
</symbol><symbol id="marketplace_icon_wht_100px" viewBox="0 0 100 100">
<g id="Marketplace_Icon_wht">
	<rect style="fill:none;" width="100" height="100"/>
	<path style="fill:#FFFFFF;" d="M47,71V57h-2v14H47z M85,71V57h-2v14H85z M43,78h44v-6H43V78z M45,74h40v2H45V74z M87,50H43v6h44V50
		z M85,54H45v-2h40V54z M64,57v5h2v-5H64z M66,71v-5h-2v5H66z M82,63H48v2h34V63z M21,68h14V56H21V68z M23,58h10v8H23V58z M33,70
		c-1.1,0-2,0.9-2,2s0.9,2,2,2c1.1,0,2-0.9,2-2S34.1,70,33,70z M91,36V18H9v19c0,5,4,9,9,9c3.5,0,6.5-2,8-4.9c1.5,2.9,4.5,4.9,8,4.9
		s6.5-2,8-4.9c1.5,2.9,4.5,4.9,8,4.9s6.5-2,8-4.9c1.5,2.9,4.5,4.9,8,4.9s6.5-2,8-4.9c1.5,2.9,4.5,4.9,8,4.9c2.8,0,5.3-1.3,7-3.3V80
		H41V50H15v30h-4V45H9v37h8V52h22v30h52V37h-2c0,3.9-3.1,7-7,7s-7-3.1-7-7h-2c0,3.9-3.1,7-7,7s-7-3.1-7-7h-2c0,3.9-3.1,7-7,7
		s-7-3.1-7-7h-2c0,3.9-3.1,7-7,7s-7-3.1-7-7h-2c0,3.9-3.1,7-7,7s-7-3.1-7-7V20h78v16H91z"/>
</g>
</symbol><symbol id="marketplace_management" viewBox="0 0 219 220">
    <g>
      <path d="m109.5 219.3c-14.7 0-29-2.9-42.5-8.6-13-5.5-24.7-13.4-34.7-23.4-10-10-17.9-21.7-23.4-34.7-5.7-13.5-8.6-27.7-8.6-42.5 0-14.7 2.9-29 8.6-42.5 5.5-13 13.4-24.7 23.4-34.7 10-10 21.7-17.9 34.7-23.4 13.5-5.7 27.7-8.6 42.5-8.6 14.8 0 29 2.9 42.5 8.6 13 5.5 24.7 13.4 34.7 23.4 10 10 17.9 21.7 23.4 34.7 5.7 13.5 8.6 27.7 8.6 42.5 0 14.7-2.9 29-8.6 42.5-5.5 13-13.4 24.7-23.4 34.7-10 10-21.7 17.9-34.7 23.4-13.5 5.7-27.8 8.6-42.5 8.6m0-206.5c-26 0-50.5 10.1-68.9 28.5-18.4 18.4-28.5 42.9-28.5 68.9 0 26 10.1 50.5 28.5 68.9 18.4 18.4 42.9 28.5 68.9 28.5 26 0 50.5-10.1 68.9-28.5 18.4-18.4 28.5-42.9 28.5-68.9 0-26-10.1-50.5-28.5-68.9-18.4-18.4-42.9-28.5-68.9-28.5" bbox=".3 .9 218.4 218.4"/>
      <path d="m109.5 24.4c-47.4 0-85.8 38.4-85.8 85.8 0 24.5 10.3 46.5 26.7 62.2v-21.8c4 1.4 8.2 2.2 12.7 2.2 4.4 0 8.7-.8 12.7-2.2v26.3h67.5v-26.3c4 1.4 8.2 2.2 12.7 2.2 4.4 0 8.7-.8 12.7-2.2v21.8c16.4-15.6 26.7-37.7 26.7-62.2-.1-47.4-38.5-85.8-85.9-85.8m46.4 109.3c-8 0-15-4.5-18.6-11.1-4.1 11.4-15 19.6-27.8 19.6-12.8 0-23.7-8.2-27.8-19.6-3.6 6.6-10.6 11.1-18.6 11.1-11.7 0-21.1-9.4-21.1-21.1l14-38.5c1.6-4.4 6.6-7.9 11.3-7.9h84.3c4.6 0 9.7 3.5 11.3 7.9l14 38.5c.1 11.7-9.3 21.1-21 21.1" bbox="23.7 24.4 171.7 152.5"/>
    
  </g>
</symbol><symbol id="more_icon_wht" viewBox="0 0 76 76">
<path id="BLUE__x2022__x2022__x2022__ICON" class="st0" d="M38,0C17,0,0,17,0,38s17,38,38,38s38-17,38-38S59,0,38,0z M38,71.9
	C19.3,71.9,4.1,56.7,4.1,38S19.3,4.1,38,4.1S71.9,19.3,71.9,38S56.7,71.9,38,71.9z M22,32c-3.3,0-6,2.7-6,6s2.7,6,6,6s6-2.7,6-6
	S25.3,32,22,32z M38,32c-3.3,0-6,2.7-6,6s2.7,6,6,6s6-2.7,6-6S41.3,32,38,32z M54,32c-3.3,0-6,2.7-6,6s2.7,6,6,6s6-2.7,6-6
	S57.3,32,54,32z"/>
</symbol><symbol id="multiple_products" viewBox="0 0 219 220"><g><path d="m109.7 219.3c-14.7 0-29-2.9-42.5-8.6-13-5.5-24.7-13.4-34.7-23.4-10-10-17.9-21.7-23.4-34.7-5.7-13.5-8.6-27.7-8.6-42.5 0-14.7 2.9-29 8.6-42.5 5.5-13 13.4-24.7 23.4-34.7 10-10 21.7-17.9 34.7-23.4 13.5-5.7 27.7-8.6 42.5-8.6 14.7 0 29 2.9 42.5 8.6 13 5.5 24.7 13.4 34.7 23.4 10 10 17.9 21.7 23.4 34.7 5.7 13.5 8.6 27.7 8.6 42.5 0 14.7-2.9 29-8.6 42.5-5.5 13-13.4 24.7-23.4 34.7-10 10-21.7 17.9-34.7 23.4-13.5 5.7-27.8 8.6-42.5 8.6m0-206.5c-26 0-50.5 10.1-68.9 28.5-18.4 18.4-28.5 42.9-28.5 68.9 0 26 10.1 50.5 28.5 68.9 18.4 18.4 42.9 28.5 68.9 28.5 26 0 50.5-10.1 68.9-28.5 18.4-18.4 28.5-42.9 28.5-68.9 0-26-10.1-50.5-28.5-68.9-18.4-18.4-42.9-28.5-68.9-28.5"/><g transform="translate(23 24)"><path d="m100.4 160.5c-4.7 0-8.4-3.8-8.4-8.4v-1.9h46.7c5.7 0 10.4-4.6 10.4-10.4v-46.7h1.9c4.7 0 8.4 3.8 8.4 8.4v30.2c8.3-13.2 13-28.8 13-45.5 0-47.4-38.4-85.8-85.8-85.8-47.4 0-85.8 38.4-85.8 85.8 0 47.4 38.4 85.8 85.8 85.8 15.6 0 30.2-4.2 42.8-11.5h-29m-54.9-55v-50.6c0-4.7 3.8-8.4 8.4-8.4h50.6c4.7 0 8.4 3.8 8.4 8.4v50.6c0 4.7-3.8 8.4-8.4 8.4h-50.6c-4.7 0-8.4-3.7-8.4-8.4m15.5 15.6v-1.9h46.7c5.7 0 10.4-4.6 10.4-10.4v-46.7h1.9c4.7 0 8.4 3.8 8.4 8.4v50.6c0 4.7-3.8 8.4-8.4 8.4h-50.6c-4.6 0-8.4-3.8-8.4-8.4m23.9 23.9c-4.7 0-8.4-3.8-8.4-8.4v-1.9h46.7c5.7 0 10.4-4.6 10.4-10.4v-46.7h1.9c4.7 0 8.4 3.8 8.4 8.4v50.6c0 4.7-3.8 8.4-8.4 8.4h-50.6"/><path d="m97 73h-11.4l-4.9-12.5c-.3-.6-.8-1-1.5-1-.7 0-1.2.4-1.5 1l-4.9 12.5h-11.4c-.7 0-1.3.4-1.5 1.1-.2.7 0 1.4.5 1.8l9.6 7.7-4.3 11.7c-.3 1-.1 2 .7 2.6.8.6 1.8.6 2.7.1l10.1-7.2 10.1 7.2c.8.6 1.9.5 2.7-.1.8-.6 1.1-1.6.7-2.6l-4.3-11.7 9.6-7.7c.6-.4.8-1.1.5-1.8-.2-.7-.8-1.1-1.5-1.1"/></g></g></symbol><symbol id="office-bld_icon_100px" viewBox="0 0 100 100">
<g id="Office_Bld_Icon">
	<rect style="fill:none;" width="100" height="100"/>
	<g>
		<path style="fill:#DFE0E0;" d="M19,7v86h7v-3h-2V72h12v18h-2v3h7V82h18v11h7v-3h-2V72h12v18h-2v3h7V7H19z M24,12h12v12H24V12z
			 M24,27h12v12H24V27z M24,42h12v12H24V42z M24,69V57h12v12H24z M61,69H39V57h22V69z M61,54H39V42h22V54z M61,39H39V27h22V39z
			 M61,24H39V12h22V24z M64,12h12v12H64V12z M64,27h12v12H64V27z M64,42h12v12H64V42z M64,69V57h12v12H64z"/>
		<path style="fill:#EFEFEF;" d="M24,72h12v4l7-7h-4V57h16l3-3H39V42h22v9l3-3v-6h6l3-3h-9V27h12v9l5-5V7H19v86l5-5V72z M64,12h12
			v12H64V12z M39,12h22v12H39V12z M39,27h22v12H39V27z M24,12h12v12H24V12z M24,27h12v12H24V27z M24,42h12v12H24V42z M24,57h12v12
			H24V57z"/>
	</g>
	<rect x="41" y="74" style="fill:#A6D7EA;" width="18" height="3"/>
	<path style="fill:#3F4041;" d="M81,7H19v86h22V82h18v11h22V10h-2v81H61V80H39v11H21V9h60V7z M43,93h6v-9h-6V93z M45,86h2v5h-2V86z
		 M51,93h6v-9h-6V93z M53,86h2v5h-2V86z M39,78h22v-6H39V78z M41,74h18v2H41V74z M36,90V72H24v18h2V74h8v16H36z M76,90V72H64v18h2
		V74h8v16H76z M36,57H24v12h12V57z M34,67h-8v-8h8V67z M76,57H64v12h12V57z M74,67h-8v-8h8V67z M61,57H39v12h22V57z M59,67H41v-8h18
		V67z M36,42H24v12h12V42z M34,52h-8v-8h8V52z M76,42H64v12h12V42z M74,52h-8v-8h8V52z M61,42H39v12h22V42z M59,52H41v-8h18V52z
		 M36,27H24v12h12V27z M34,37h-8v-8h8V37z M76,27H64v12h12V27z M74,37h-8v-8h8V37z M61,27H39v12h22V27z M59,37H41v-8h18V37z M36,12
		H24v12h12V12z M34,22h-8v-8h8V22z M76,12H64v12h12V12z M74,22h-8v-8h8V22z M61,12H39v12h22V12z M59,22H41v-8h18V22z"/>
</g>
</symbol><symbol id="office-bld_icon_100px_rev_100px" viewBox="0 0 100 100">
<g id="Office_Bld_Icon_rev">
	<rect style="fill:none;" width="100" height="100"/>
	<path style="fill:#767778;" d="M81,7H19v86h22V83h18v10h22V10h-2v81H61V81H39v10H21V9h60V7z M49,93h2v-9h-2V93z M42,93h6v-9h-6V93z
		 M44,86h2v5h-2V86z M52,93h6v-9h-6V93z M54,86h2v5h-2V86z M39,79h22v-7H39V79z M41,74h18v3H41V74z M36,90V72H24v18h2V74h8v16H36z
		 M76,90V72H64v18h2V74h8v16H76z M36,57H24v12h12V57z M34,67h-8v-8h8V67z M76,57H64v12h12V57z M74,67h-8v-8h8V67z M61,57H39v12h22
		V57z M59,67H41v-8h18V67z M36,42H24v12h12V42z M34,52h-8v-8h8V52z M76,42H64v12h12V42z M74,52h-8v-8h8V52z M61,42H39v12h22V42z
		 M59,52H41v-8h18V52z M36,27H24v12h12V27z M34,37h-8v-8h8V37z M76,27H64v12h12V27z M74,37h-8v-8h8V37z M61,27H39v12h22V27z M59,37
		H41v-8h18V37z M36,12H24v12h12V12z M34,22h-8v-8h8V22z M76,12H64v12h12V12z M74,22h-8v-8h8V22z M61,12H39v12h22V12z M59,22H41v-8
		h18V22z"/>
</g>
</symbol><symbol id="office-bld_icon_wht_100px" viewBox="0 0 100 100">
<g id="Office_Bld_Icon_wht">
	<rect style="fill:none;" width="100" height="100"/>
	<path style="fill:#FFFFFF;" d="M81,7H19v86h22V83h18v10h22V10h-2v81H61V81H39v10H21V9h60V7z M49,93h2v-9h-2V93z M42,93h6v-9h-6V93z
		 M44,86h2v5h-2V86z M52,93h6v-9h-6V93z M54,86h2v5h-2V86z M39,79h22v-7H39V79z M41,74h18v3H41V74z M36,90V72H24v18h2V74h8v16H36z
		 M76,90V72H64v18h2V74h8v16H76z M36,57H24v12h12V57z M34,67h-8v-8h8V67z M76,57H64v12h12V57z M74,67h-8v-8h8V67z M61,57H39v12h22
		V57z M59,67H41v-8h18V67z M36,42H24v12h12V42z M34,52h-8v-8h8V52z M76,42H64v12h12V42z M74,52h-8v-8h8V52z M61,42H39v12h22V42z
		 M59,52H41v-8h18V52z M36,27H24v12h12V27z M34,37h-8v-8h8V37z M76,27H64v12h12V27z M74,37h-8v-8h8V37z M61,27H39v12h22V27z M59,37
		H41v-8h18V37z M36,12H24v12h12V12z M34,22h-8v-8h8V22z M76,12H64v12h12V12z M74,22h-8v-8h8V22z M61,12H39v12h22V12z M59,22H41v-8
		h18V22z"/>
</g>
</symbol><symbol id="on" viewBox="0 0 109 118.8">
<path fill="#404042" d="M65.3,10.8L54.5,0L43.7,10.8C18.8,15.9,0,37.9,0,64.3c0,30.1,24.4,54.5,54.5,54.5S109,94.3,109,64.3
	C109,37.9,90.2,15.9,65.3,10.8z M54.5,114.8C26.7,114.8,4,92.1,4,64.3s22.7-50.5,50.5-50.5S105,36.4,105,64.3S82.3,114.8,54.5,114.8
	z"/>
</symbol><symbol id="play_btn" viewBox="0 0 179 180"><g><path d="m89.5.7c-49.3 0-89.3 40-89.3 89.3 0 49.3 40 89.3 89.3 89.3 49.3 0 89.3-40 89.3-89.3 0-49.3-40-89.3-89.3-89.3m0 156.4c-37 0-67-30-67-67 0-37 30-67 67-67 37 0 67 30 67 67 0 37-30 67-67 67m-12.2-101.5c-2.1-1.3-4.5-1.4-6.6-.2-2.1 1.2-3.3 3.2-3.3 5.7v57.8c0 2.4 1.2 4.5 3.3 5.7 2.1 1.2 4.5 1.1 6.6-.2l46.2-28.9c2-1.2 3-3.2 3-5.5 0-2.3-1.1-4.3-3-5.5l-46.2-28.9"/></g></symbol><symbol id="play_button" viewBox="-1510 711.4 178.6 178.6">
<circle fill="none" cx="-1420.2" cy="800.7" r="78.7"/>
<path id="Shape_7_" d="M-1420.7,711.4c-49.3,0-89.3,40-89.3,89.3s40,89.3,89.3,89.3c49.3,0,89.3-40,89.3-89.3
	S-1371.4,711.4-1420.7,711.4L-1420.7,711.4z M-1420.7,867.8c-37,0-67-30-67-67s30-67,67-67s67,30,67,67S-1383.7,867.8-1420.7,867.8
	L-1420.7,867.8z M-1432.9,766.3c-2.1-1.3-4.5-1.4-6.6-0.2c-2.1,1.2-3.3,3.2-3.3,5.7v57.8c0,2.4,1.2,4.5,3.3,5.7s4.5,1.1,6.6-0.2
	l46.2-28.9c2-1.2,3-3.2,3-5.5s-1.1-4.3-3-5.5L-1432.9,766.3L-1432.9,766.3z"/>
</symbol><symbol id="plus" viewBox="0 0 218.2 218.2">
<g>
	<path d="M109.1,23.3c-47.4,0-85.8,38.4-85.8,85.8s38.4,85.8,85.8,85.8c47.4,0,85.8-38.4,85.8-85.8S156.5,23.3,109.1,23.3z
		 M164.1,111c0,2.2-1.8,4-4,4H115v45.1c0,2.2-1.8,4-4,4h-3.8c-2.2,0-4-1.8-4-4V115H58.1c-2.2,0-4-1.8-4-4v-3.8c0-2.2,1.8-4,4-4h45.1
		V58.1c0-2.2,1.8-4,4-4h3.8c2.2,0,4,1.8,4,4v45.1h45.1c2.2,0,4,1.8,4,4V111z M209.6,66.6c-5.5-13-13.4-24.7-23.4-34.7
		s-21.7-17.9-34.7-23.4C138.1,2.9,123.8,0,109.1,0c-14.7,0-29,2.9-42.5,8.6C53.6,14.1,42,21.9,32,32c-10,10-17.9,21.7-23.4,34.7
		C2.9,80.1,0,94.4,0,109.1c0,14.7,2.9,29,8.6,42.5c5.5,13,13.4,24.7,23.4,34.7c10,10,21.7,17.9,34.7,23.4
		c13.5,5.7,27.7,8.6,42.5,8.6c14.7,0,29-2.9,42.5-8.6c13-5.5,24.7-13.4,34.7-23.4c10-10,17.9-21.7,23.4-34.7
		c5.7-13.5,8.6-27.7,8.6-42.5C218.2,94.4,215.3,80.1,209.6,66.6z M178,178c-18.4,18.4-42.9,28.5-68.9,28.5
		c-26,0-50.5-10.1-68.9-28.5s-28.5-42.9-28.5-68.9c0-26,10.1-50.5,28.5-68.9s42.9-28.5,68.9-28.5c26,0,50.5,10.1,68.9,28.5
		s28.5,42.9,28.5,68.9C206.5,135.1,196.4,159.6,178,178z"/>
</g>
</symbol><symbol id="product" viewBox="0 0 219 220"><g><path d="m109.7 219.3c-14.7 0-29-2.9-42.5-8.6-13-5.5-24.7-13.4-34.7-23.4-10-10-17.9-21.7-23.4-34.7-5.7-13.5-8.6-27.7-8.6-42.5 0-14.7 2.9-29 8.6-42.5 5.5-13 13.4-24.7 23.4-34.7 10-10 21.7-17.9 34.7-23.4 13.5-5.7 27.7-8.6 42.5-8.6 14.8 0 29 2.9 42.5 8.6 13 5.5 24.7 13.4 34.7 23.4 10 10 17.9 21.7 23.4 34.7 5.7 13.5 8.6 27.7 8.6 42.5 0 14.7-2.9 29-8.6 42.5-5.5 13-13.4 24.7-23.4 34.7-10 10-21.7 17.9-34.7 23.4-13.5 5.7-27.8 8.6-42.5 8.6m0-206.5c-26 0-50.5 10.1-68.9 28.5-18.4 18.4-28.5 42.9-28.5 68.9 0 26 10.1 50.5 28.5 68.9 18.4 18.4 42.9 28.5 68.9 28.5 26 0 50.5-10.1 68.9-28.5 18.4-18.4 28.5-42.9 28.5-68.9 0-26-10.1-50.5-28.5-68.9-18.4-18.4-42.9-28.5-68.9-28.5"/><path d="m109.7 24.4c-47.4 0-85.8 38.4-85.8 85.8 0 47.4 38.4 85.8 85.8 85.8 47.4 0 85.8-38.4 85.8-85.8 0-47.4-38.5-85.8-85.8-85.8m44.9 76.5l-23 18.2 10.3 27.7c.8 2.3.2 4.7-1.7 6.1-1.9 1.5-4.4 1.5-6.4.2l-24.2-16.9-24.2 17c-2 1.4-4.4 1.3-6.4-.2-1.9-1.5-2.6-3.8-1.7-6.1l10.3-27.7-23-18.2c-1.3-1-1.8-2.7-1.2-4.3.5-1.6 1.9-2.6 3.6-2.6h27.3l11.7-29.4c.6-1.5 2-2.4 3.6-2.4 1.6 0 3 .9 3.6 2.4l11.7 29.4h27.3c1.7 0 3.1 1 3.6 2.6.6 1.5.2 3.2-1.2 4.2"/></g></symbol><symbol id="ps-logo" viewBox="0 0 1033.6 475.3">
<g>
	<g>
		<path class="st0" d="M461.6,109.6H233l41.4,36h187.2c3.3,0,5.2,2.6,5.2,5.9v70c0,3.3-1.9,6.1-5.2,6.1H330.8v100.5l36,31.3v-95.8
			h94.8c23.2,0,41.2-18.9,41.2-42.1v-70C502.8,128.4,484.7,109.6,461.6,109.6z M486.8,219.6c0,15.4-11.8,28.1-27.2,28.1H350.8V324
			l-4-3.5v-76.9h112.8c13.2,0,23.2-10.9,23.2-24.1v-66c0-13.2-10-23.9-23.2-23.9h-180l-4.6-4h184.6c15.4,0,27.2,12.5,27.2,27.9
			V219.6z"/>
		<path class="st0" d="M575,145.6h187.2l41.4-36H575c-23.2,0-42.2,18.7-42.2,41.9v70c0,23.2,19,42.1,42.2,42.1h93.8v47.7l-13.3,12.3
			H557l-41.4,36h154l35.2-31.5V227.6H575c-3.3,0-6.2-2.8-6.2-6.1v-70C568.8,148.2,571.7,145.6,575,145.6z M577,243.6h111.8v1.9v74.9
			v0l-0.3,0.6l0.2,0L663,343.6H558.5l4.6-4h98.4l23.3-21v-1.4v-69.6H577c-15.4,0-28.2-12.7-28.2-28.1v-66
			c0-15.4,12.7-27.9,28.2-27.9h184.6l-4.6,4H577c-13.2,0-24.2,10.7-24.2,23.9v66C552.8,232.8,563.7,243.6,577,243.6z"/>
	</g>
	<g>
		<g>
			<polygon class="st0" points="41.4,145.6 238.3,145.6 219.9,129.6 23,129.6 			"/>
			<polygon class="st0" points="18.4,125.6 215.3,125.6 196.9,109.6 0,109.6 			"/>
		</g>
		<g>
			<polygon class="st0" points="177.2,263.6 304.8,263.6 304.8,247.6 158.8,247.6 			"/>
			<polygon class="st0" points="135.7,227.6 154.1,243.6 304.8,243.6 304.8,227.6 			"/>
		</g>
		<g>
			<polygon class="st0" points="69,169.6 87.4,185.6 438.8,185.6 438.8,169.6 			"/>
			<polygon class="st0" points="110.4,205.6 438.8,205.6 438.8,189.6 92,189.6 			"/>
		</g>
	</g>
	<g>
		<g>
			<polygon class="st0" points="992.1,145.6 795.3,145.6 813.7,129.6 1010.6,129.6 			"/>
			<polygon class="st0" points="1015.2,125.6 818.3,125.6 836.7,109.6 1033.6,109.6 			"/>
		</g>
		<g>
			<polygon class="st0" points="856.4,263.6 726.8,263.6 726.8,247.6 874.8,247.6 			"/>
			<polygon class="st0" points="897.8,227.6 879.4,243.6 726.8,243.6 726.8,227.6 			"/>
		</g>
		<g>
			<polygon class="st0" points="964.5,169.6 946.1,185.6 592.8,185.6 592.8,169.6 			"/>
			<polygon class="st0" points="923.1,205.6 592.8,205.6 592.8,189.6 941.5,189.6 			"/>
		</g>
	</g>
	<g>
		<path class="st0" d="M345.5,53.4l-2.2,8.2l-4.2,1.8l8-29.6l2.6-1.1l26.9,14.7l-4.2,1.8l-7.5-4.1L345.5,53.4z M349.9,36.8L346.6,49
			l14.4-6.1L349.9,36.8z"/>
		<path class="st0" d="M404.8,14c2.5-0.7,4.2-0.7,5.7,0.2c1.5,0.8,2.4,2.2,3.1,4.8l0.7,2.3c0.8,2.6,0.7,4.2-0.1,5.7
			c-0.9,1.5-2.2,2.4-4.8,3.2l-21.4,6.2l2,6.9l-3.7,1.1l-6.6-23.1L404.8,14z M407.6,26.9c2.2-0.6,2.7-0.9,3.2-1.7
			c0.3-0.6,0.4-1.2,0.1-2.3l-1.1-3.7c-0.3-1-0.7-1.6-1.3-1.9c-0.8-0.4-1.4-0.3-3.6,0.3l-20.5,5.9l2.7,9.2L407.6,26.9z"/>
		<path class="st0" d="M451.5,4.6c2.6-0.4,4.2-0.2,5.7,0.8c1.4,1,2.1,2.4,2.6,5.1l0.4,2.4c0.5,2.7,0.3,4.3-0.7,5.7
			c-1,1.4-2.5,2.2-5.1,2.6l-22,3.7l1.2,7.1l-3.8,0.6l-4-23.7L451.5,4.6z M452.8,17.8c2.2-0.4,2.8-0.6,3.4-1.3
			c0.4-0.5,0.5-1.2,0.3-2.2l-0.6-3.8c-0.2-1.1-0.5-1.6-1.1-2c-0.8-0.5-1.4-0.5-3.6-0.1l-21,3.6l1.6,9.5L452.8,17.8z"/>
		<path class="st0" d="M498.8,0.2c2.6-0.2,4.2,0.3,5.5,1.4c1.3,1.1,1.8,2.6,2,5.4l0.6,9.6c0.2,2.7-0.2,4.3-1.3,5.6
			c-1.2,1.3-2.7,1.9-5.3,2.1l-26,1.6l-1.4-24L498.8,0.2z M477.8,22l21.3-1.3c2.3-0.1,3-0.3,3.5-0.9c0.5-0.6,0.6-1.4,0.5-3.6
			l-0.5-8.2c-0.1-2.2-0.3-3-0.9-3.6c-0.6-0.5-1.3-0.6-3.6-0.5l-21.3,1.3L477.8,22z"/>
		<path class="st0" d="M524.7,24.1l-3.8-0.1l0.3-24l3.8,0.1L524.7,24.1z"/>
		<path class="st0" d="M566.7,2.6c2.6,0.2,4.1,0.9,5.2,2.2s1.4,2.9,1.2,5.6l-0.2,1.8c-0.2,2.7-0.8,4.2-2.1,5.3c-1,0.9-2,1.2-3.9,1.4
			l5,8.3l-4.7-0.4l-4.6-8.2L543,16.8l-0.7,7.8l-3.8-0.3l2.1-23.9L566.7,2.6z M564.6,15.1c2.3,0.2,2.9,0.1,3.6-0.4
			c0.5-0.4,0.8-1,0.9-2.1l0.3-3.3c0.1-1-0.1-1.7-0.5-2.2c-0.6-0.6-1.2-0.8-3.5-1l-21.3-1.9l-0.8,9L564.6,15.1z"/>
		<path class="st0" d="M592.6,9.8l-1.3,6.5l25.8,5.1l-1.2,3.4l-25.4-5l-1.3,6.5l26.7,5.3l-0.7,3.5l-30.5-6l4.7-23.6l29.6,5.9
			l-0.7,3.5L592.6,9.8z"/>
		<path class="st0" d="M660.5,42.8c-1.8,3.8-4.2,4.7-8.5,3.3l-18.1-5.8c-2.5-0.8-3.8-1.8-4.7-3.3c-0.8-1.5-0.8-3.1,0.1-5.7l2.9-9.2
			c0.8-2.6,1.7-3.9,3.3-4.7c1.6-0.8,3.2-0.8,5.7,0l18.1,5.8c4.4,1.4,5.8,3.5,5,7.7l-3.8-0.7c0.2-1,0.2-1.5-0.1-2.1
			c-0.4-0.7-1-1.1-3.2-1.8L641,21.2c-2.2-0.7-2.9-0.8-3.6-0.4c-0.7,0.4-1.1,1.1-1.8,3.2l-2.5,7.8c-0.7,2.1-0.8,2.9-0.4,3.6
			c0.4,0.7,1,1.1,3.2,1.8l16.3,5.2c2.2,0.7,2.9,0.8,3.6,0.4c0.5-0.3,0.9-0.7,1.3-1.6L660.5,42.8z"/>
		<path class="st0" d="M685.2,59.6l-3.5-1.6l8.4-18.6l-13.4-6.1l1.5-3.3l30.2,13.7l-1.5,3.3L693.6,41L685.2,59.6z"/>
	</g>
	<g>
		<path class="st0" d="M281.7,365c1.8,1.9,2.5,3.4,2.5,5.1c0,1.7-0.8,3.1-2.8,5l-1.8,1.7c-2,1.9-3.4,2.6-5.1,2.6
			c-1.7-0.1-3.2-0.8-5-2.7l-15.2-16l-5.2,5l-2.6-2.7l17.4-16.5L281.7,365z M271.5,373.4c1.6,1.6,2.1,2,2.9,2.1c0.7,0,1.3-0.2,2.1-1
			l2.8-2.7c0.8-0.7,1.1-1.3,1.1-2c0-0.9-0.3-1.4-1.9-3.1l-14.5-15.3l-7,6.6L271.5,373.4z"/>
		<path class="st0" d="M289.6,394.9l-8.2,2.3l-3.6-2.7l29.4-8.2l2.3,1.7l0.8,30.5l-3.6-2.7l-0.3-8.5L289.6,394.9z M306,390.3
			l-12.1,3.3l12.5,9.2L306,390.3z"/>
		<path class="st0" d="M355.8,415.8c2.3,1.2,3.5,2.4,4,4c0.5,1.6,0.2,3.2-1.1,5.6l-0.8,1.6c-1.3,2.4-2.4,3.6-4,4.1
			c-1.3,0.4-2.3,0.3-4.1-0.2l1.4,9.6l-4.2-2.2l-1-9.3l-17.2-9l-3.6,6.9l-3.3-1.7l11.1-21.3L355.8,415.8z M349.1,426.6
			c2,1,2.6,1.2,3.5,1c0.7-0.2,1.1-0.6,1.6-1.6l1.5-2.9c0.5-0.9,0.6-1.6,0.4-2.2c-0.3-0.8-0.8-1.2-2.8-2.3l-18.8-9.8l-4.2,8
			L349.1,426.6z"/>
		<path class="st0" d="M379.9,451.8l-3.5-1.3l7-19.2l-13.7-5l1.2-3.4l30.9,11.3l-1.2,3.4l-13.7-5L379.9,451.8z"/>
		<path class="st0" d="M409.6,461.3l-3.7-0.9l5.5-23.4l3.7,0.9l21.6,18.7l3-12.9l3.7,0.9l-5.5,23.4l-3.7-0.9l1.6-6.7l-21.7-18.6
			L409.6,461.3z"/>
		<path class="st0" d="M459.6,450.8l-0.8,6.6l25.9,3l-0.9,3.5l-25.4-3l-0.8,6.5l26.8,3.1l-0.4,3.6l-30.6-3.5l2.8-23.9l29.6,3.4
			l-0.4,3.6L459.6,450.8z"/>
		<path class="st0" d="M524.7,451.2c2.6,0,4.1,0.6,5.3,1.8s1.6,2.8,1.6,5.5l0,1.8c0,2.7-0.5,4.3-1.7,5.5c-1,1-1.9,1.3-3.8,1.6
			l5.5,7.9l-4.7-0.1l-5.1-7.9l-19.4-0.2l-0.1,7.8l-3.8,0l0.3-24L524.7,451.2z M523.6,463.8c2.3,0,2.9-0.1,3.5-0.7
			c0.5-0.5,0.7-1.1,0.7-2.1l0-3.3c0-1-0.2-1.7-0.7-2.1c-0.7-0.6-1.3-0.7-3.5-0.8l-21.1-0.3l-0.1,9L523.6,463.8z"/>
		<path class="st0" d="M592.6,450.4c-0.3-1-0.6-1.4-1-1.8c-0.7-0.5-1.4-0.5-3.6-0.2l-16.7,2.7c-2.2,0.3-2.8,0.6-3.4,1.3
			c-0.4,0.5-0.5,1.2-0.4,2.2l0.1,0.9c0.2,1.1,0.5,1.6,1,2c0.8,0.5,1.4,0.5,3.6,0.2l17.6-2.8c2.6-0.4,4.3-0.2,5.6,0.9
			c1.2,0.9,2.1,2.5,2.4,4.4l0.1,0.9c0.3,1.8,0,3.7-0.9,4.9c-1,1.4-2.4,2.1-5.1,2.6l-18.5,3c-4.5,0.7-6.7-0.5-7.9-4.6l3.6-1.1
			c0.3,1,0.5,1.5,1,1.8c0.7,0.5,1.4,0.5,3.6,0.2l16.6-2.7c2.2-0.4,2.8-0.6,3.4-1.3c0.4-0.5,0.5-1.2,0.4-2.2l-0.1-0.9
			c-0.2-1-0.5-1.6-1-2c-0.8-0.5-1.4-0.5-3.6-0.2l-17.6,2.8c-2.6,0.4-4.3,0.2-5.6-0.9c-1.2-0.9-2.1-2.5-2.4-4.4l-0.1-0.9
			c-0.3-1.9,0-3.7,0.9-5c1-1.4,2.4-2.1,5-2.6l18.5-3c4.5-0.7,6.7,0.5,7.9,4.6L592.6,450.4z"/>
		<path class="st0" d="M611.3,439.8l4.4,15.5c0.6,2.1,1,2.8,1.7,3.3c0.7,0.4,1.4,0.3,3.6-0.3l16.2-4.7c2.2-0.6,2.8-1,3.2-1.7
			c0.4-0.7,0.3-1.5-0.3-3.7l-4.4-15.5l3.6-1l4.6,16.2c0.8,2.6,0.7,4.2-0.1,5.7c-0.8,1.5-2.2,2.4-4.7,3.2l-18,5.2
			c-2.5,0.7-4.1,0.7-5.7-0.2c-1.5-0.8-2.3-2.2-3.1-4.8l-4.6-16.2L611.3,439.8z"/>
		<path class="st0" d="M679.8,414.9l3.4-1.5l9.7,22l-3.4,1.5l-8-18.1l-8.4,14.7l-16.6-3.7l8,18.1l-3.4,1.5l-9.7-22l3.4-1.5l16.5,3.5
			L679.8,414.9z"/>
		<path class="st0" d="M720.8,390.6l3.2-2l12.9,20.3l-3.2,2l-10.6-16.7l-6.1,15.9l-16.9-1.1l10.6,16.7l-3.2,2l-12.9-20.3l3.2-2
			l16.8,1L720.8,390.6z"/>
		<path class="st0" d="M752.2,396.6l-2.9,2.4l-15.2-18.6l2.9-2.4L752.2,396.6z"/>
		<path class="st0" d="M775,375.5l-2.6,2.7l-14.6-14.3l-10.2,10.4l-2.6-2.5l23-23.5l2.6,2.5l-10.2,10.4L775,375.5z"/>
	</g>
	<g>
		<polygon class="st0" points="416.8,359.6 408.8,359.6 408.8,301.6 384.8,301.6 384.8,293.6 416.8,293.6 		"/>
		<path class="st0" d="M444.8,359.6h46c6.6,0,12-4.7,12-11.3v-18c0-6.6-5.4-12.7-12-12.7h-48v-16h181.4l9.2-8H434.8v32h56
			c2.2,0,4,2.5,4,4.7v18c0,2.2-1.8,3.3-4,3.3h-46c-2.2,0-4-1.1-4-3.3v-6.7h-8v6.7C432.8,354.9,438.2,359.6,444.8,359.6z"/>
	</g>
</g>
</symbol><symbol id="reseller_management" viewBox="0 0 219 220"><g><path d="m109.6 219.3c-14.7 0-29-2.9-42.5-8.6-13-5.5-24.7-13.4-34.7-23.4-10-10-17.9-21.7-23.4-34.7-5.7-13.5-8.6-27.7-8.6-42.5 0-14.7 2.9-29 8.6-42.5 5.5-13 13.4-24.7 23.4-34.7 10-10 21.7-17.9 34.7-23.4 13.5-5.7 27.7-8.6 42.5-8.6 14.8 0 29 2.9 42.5 8.6 13 5.5 24.7 13.4 34.7 23.4 10 10 17.9 21.7 23.4 34.7 5.7 13.5 8.6 27.7 8.6 42.5 0 14.7-2.9 29-8.6 42.5-5.5 13-13.4 24.7-23.4 34.7-10 10-21.7 17.9-34.7 23.4-13.5 5.7-27.8 8.6-42.5 8.6m0-206.5c-26 0-50.5 10.1-68.9 28.5-18.4 18.4-28.5 42.9-28.5 68.9 0 26 10.1 50.5 28.5 68.9 18.4 18.4 42.9 28.5 68.9 28.5 26 0 50.5-10.1 68.9-28.5 18.4-18.4 28.5-42.9 28.5-68.9 0-26-10.1-50.5-28.5-68.9-18.4-18.4-42.9-28.5-68.9-28.5"/><path d="m109.6 24.4c-47.4 0-85.8 38.4-85.8 85.8 0 15.7 4.2 30.3 11.5 42.9h20.9v-42.7h42.7v-21.4h-21.4v-21.4h64.1v21.4h-21.4v21.4h42.8v42.7h20.8c7.3-12.6 11.5-27.3 11.5-42.9.1-47.4-38.3-85.8-85.7-85.8m32.1 165.4c7.7-3.1 14.9-7.3 21.4-12.5v-2.8h-21.4v15.3m-85.5-12.5c6.4 5.1 13.6 9.3 21.4 12.5v-15.3h-21.4v2.8m85.5-45.5h-64.1v21.4h21.4v42.1c3.5.4 7.1.7 10.7.7 3.6 0 7.2-.3 10.7-.7v-42.1h21.4v-21.4h-.1"/></g></symbol><symbol id="services-buildings" viewBox="0 0 1400 510">
<g id="Artwork">
	<g>
		<path style="fill:#A6D7EA;" d="M468.5,269h-43.8c-1.4-8-7.4-12-14.7-12c-5.4,0-10.1,2.2-12.8,6.7c-1-0.4-2.1-0.7-3.2-0.7
			c-3.7,0-6.8,3-7.7,6h-24.8c-4.1,0-7.5,3.4-7.5,7.5s3.4,7.5,7.5,7.5h107c4.1,0,7.5-3.4,7.5-7.5S472.6,269,468.5,269z"/>
		<path style="fill:#A6D7EA;" d="M105.5,391H85c0-6-4.5-10-10-10c-2.4,0-4.5,0.8-6.2,2.2c-2.6-4.3-7.4-7.2-12.8-7.2
			c-5.2,0-9.8,2.6-12.5,6.7c-1.6-1.1-3.5-1.7-5.5-1.7c-5.5,0-10,4-10,10h-0.5c-4.1,0-7.5,3.4-7.5,7.5s3.4,7.5,7.5,7.5h78
			c4.1,0,7.5-3.4,7.5-7.5S109.6,391,105.5,391z"/>
		<path style="fill:#A6D7EA;" d="M1314.6,98h-13.7c-1.4-7-7.4-11.8-14.6-11.8c-3.6,0-6.8,1.1-9.4,3.1c-1.5-0.8-3.1-1.3-4.9-1.3
			c-5.5,0-10,4.4-10,9.9V98h-4c-4.1,0-7.4,3.4-7.4,7.5s3.3,7.5,7.4,7.5h56.5c4.1,0,7.4-3.4,7.4-7.5C1322,101.4,1318.7,98,1314.6,98z
			"/>
		<g>
			<path style="fill:#A6D7EA;" d="M722.9,364h-16.6c0,0,0-1.1,0-1.4c0-15.7-12.7-28.7-28.5-28.7c-9.1,0-17.2,4.2-22.4,10.9l-0.6-0.3
				c-2.9-1.5-6.2-1.9-9.7-1.9c-11.6,0-21,8.5-21,21.5H621h-12c-6.1,0-11,4.2-11,10s4.9,10,11,10h113.9c6.1,0,11-4.2,11-10
				S729,364,722.9,364z"/>
			<path style="fill:#FFFFFF;" d="M643.5,351H639c0-5-3.6-8.1-8-8.1c-0.9,0-1.8,0.1-2.6,0.4c-2.6-4.4-7.4-7.4-12.9-7.4
				c-8.3,0-15,6.1-15,15.1h-24c-5.2,0-9.5,4.3-9.5,9.5s4.3,9.5,9.5,9.5h67c5.2,0,9.5-4.3,9.5-9.5S648.7,351,643.5,351z"/>
			<path style="fill:#ADAEAF;" d="M643.5,371h-67c-5.8,0-10.5-4.7-10.5-10.5s4.7-10.5,10.5-10.5h23c0.5-8.7,7.2-15.1,16-15.1
				c5.5,0,10.5,2.7,13.4,7.2c0.6-0.1,1.3-0.2,2.1-0.2c4.9,0,8.5,3.3,9,8.1h3.5c5.8,0,10.5,4.7,10.5,10.5S649.3,371,643.5,371z
				 M576.5,352c-4.7,0-8.5,3.8-8.5,8.5s3.8,8.5,8.5,8.5h67c4.7,0,8.5-3.8,8.5-8.5s-3.8-8.5-8.5-8.5H638v-1c0-4.2-2.9-7.1-7-7.1
				c-0.9,0-1.6,0.1-2.2,0.3l-0.8,0.3l-0.4-0.7c-2.5-4.3-7-6.9-12.1-6.9c-8.1,0-14,5.9-14,14.1v1L576.5,352L576.5,352z"/>
		</g>
		<g>
			<path style="fill:#A6D7EA;" d="M232.9,234h-90.4c0-5-3.2-7.4-7.2-7.4c-1.2,0-2.3,0.2-3.3,0.7c-1.1-3.6-4.4-6.4-8.4-6.4
				s-7.4,2.6-8.4,6.3c-1-0.5-2.1-0.7-3.3-0.7c-4,0-7.2,2.4-7.2,7.4h-0.4c-3.9,0-7.1,3.1-7.1,7s3.2,7,7.1,7H233c3.9,0,7.1-3.1,7.1-7
				C240,237.1,236.8,234,232.9,234z"/>
			<path style="fill:#FFFFFF;" d="M188.1,243h-53.7c0-7-5.3-12.5-11.9-12.5c-1.4,0-2.8,0-4.1,0.5c0-0.3,0.1-0.6,0.1-0.9
				c0-11-8.9-20-19.9-20S78.7,219,78.7,230c0,0.3,0.1,0.5,0.1,0.7c-1.3-0.5-2.6-0.2-4.1-0.2c-6.6,0-11.9,5.5-11.9,12.5H28.9
				c-5.5,0-9.9,4-9.9,9.5s4.5,9.5,9.9,9.5h69.6H188c5.5,0,9.9-4,9.9-9.5C198,247,193.5,243,188.1,243z"/>
			<path style="fill:#ADAEAF;" d="M188.1,263H28.9c-6.1,0-10.9-4.6-10.9-10.5S22.8,242,28.9,242h32.8c0.5-7.1,6-12.5,12.9-12.5
				c0.4,0,0.7,0,1.1,0c0.6,0,1.3-0.1,1.9,0c0.3-11.3,9.5-20.3,20.9-20.3s20.7,9.2,20.9,20.5c1-0.2,2-0.2,3-0.2
				c6.8,0,12.4,5.5,12.9,12.5H188c6.1,0,10.9,4.6,10.9,10.5S194.2,263,188.1,263z M28.9,244c-5.1,0-8.9,3.7-8.9,8.5
				c0,4.8,3.8,8.5,8.9,8.5H188c5.1,0,8.9-3.7,8.9-8.5s-3.8-8.5-8.9-8.5h-54.7v-1c0-6.4-4.8-11.5-10.9-11.5c-1.3,0-2.6,0-3.7,0.4
				l-1.4,0.5l0.1-1.5c0-0.1,0-0.3,0-0.5c0-0.1,0-0.3,0-0.4c0-10.5-8.5-19-18.9-19s-18.9,8.5-18.9,18.9c0,0.1,0,0.2,0,0.2
				c0,0.1,0,0.3,0,0.4l0.1,1.5l-1.4-0.5c-0.7-0.3-1.6-0.2-2.5-0.2c-0.4,0-0.8,0-1.2,0c-6.1,0-10.9,5-10.9,11.5v1H28.9V244z"/>
		</g>
		<path style="fill:#A6D7EA;" d="M792,450h129v-2H792V450z M923,450h8v-2h-8V450z M933,450h4v-2h-4V450z M782,450h8v-2h-8V450z
			 M776,450h4v-2h-4V450z M808,442h129v-2H808V442z M939,442h8v-2h-8V442z M949,440v2h4v-2H949z M806,440h-8v2h8V440z M796,440h-4v2
			h4V440z"/>
		<path style="fill:#A6D7EA;" d="M625,53h199v-2H625V53z M826,53h8v-2h-8V53z M836,51v2h4v-2H836z M615,53h8v-2h-8V53z M609,53h4v-2
			h-4V53z M784,43H665v2h119V43z M794,43h-8v2h8V43z M800,43h-4v2h4V43z M663,43h-8v2h8V43z M653,43h-4v2h4V43z M665,61h119v-2H665
			V61z M786,61h8v-2h-8V61z M796,61h4v-2h-4V61z M655,61h8v-2h-8V61z M649,61h4v-2h-4V61z"/>
	</g>
	<g>
		<path style="fill:#3F4041;" d="M0,510h133v-2H0V510z M237,510h38v-2h-38V510z M408,510h38v-2h-38V510z M582,508v2h818v-2H582z"/>
		<g>
			<g>
				<polygon style="fill:#DFE0E0;" points="547,187 547,151 538,151 538,133 490,133 490,151 481,151 481,187 448,187 448,510 
					580,510 580,187 				"/>
			</g>
			<path style="fill:#F2CD9C;" d="M567,180l-3.5-52.5L560,180h-4v8h15v-8H567z M464.5,127.5L461,180h-4v8h15v-8h-4L464.5,127.5z
				 M513.5,62.5L510,126h-4v8h15v-8h-4L513.5,62.5z"/>
			<g style="opacity:0.5;">
				<polygon style="fill:#FFFFFF;" points="580,377.5 580,187 571,187 571,180 567,180 563.5,127.5 560,180 556,180 556,187 
					547,187 547,151 538,151 538,133 521,133 521,126 517,126 513.5,62.5 510,126 506,126 506,133 490,133 490,151 481,151 481,187 
					472,187 472,180 468,180 464.5,127.5 461,180 457,180 457,187 448,187 448,509.5 				"/>
			</g>
			<path style="fill:#A6D7EA;" d="M489,171v337h50V171H489z M537,134h-46v18h46V134z"/>
			<path style="fill:#3F4041;" d="M497,507V174h-2v333H497z M503,507V174h-2v333H503z M509,507V174h-2v333H509z M515,507V174h-2v333
				H515z M521,507V174h-2v333H521z M527,507V174h-2v333H527z M533,507V174h-2v333H533z M539,507V171h-50v336h2V173h46v334H539z
				 M459,186v2h11v-2H459z M558,186v2h11v-2H558z M508,132v2h11v-2H508z M488,188v-2h-5v2H488z M545,188v-2h-5v2H545z M492,152h44
				v-2h-44V152z M492,146h44v-2h-44V146z M492,140h44v-2h-44V140z M555,500h17v-16h-17V500z M557,486h13v12h-13V486z M456,500h17
				v-16h-17V500z M458,486h13v12h-13V486z M572,460h-17v16h17V460z M570,474h-13v-12h13V474z M473,460h-17v16h17V460z M471,474h-13
				v-12h13V474z M572,436h-17v16h17V436z M570,450h-13v-12h13V450z M473,436h-17v16h17V436z M471,450h-13v-12h13V450z M572,412h-17
				v16h17V412z M570,426h-13v-12h13V426z M473,412h-17v16h17V412z M471,426h-13v-12h13V426z M572,388h-17v16h17V388z M570,402h-13
				v-12h13V402z M473,388h-17v16h17V388z M471,402h-13v-12h13V402z M572,364h-17v16h17V364z M570,378h-13v-12h13V378z M473,364h-17
				v16h17V364z M471,378h-13v-12h13V378z M572,340h-17v16h17V340z M570,354h-13v-12h13V354z M473,340h-17v16h17V340z M471,354h-13
				v-12h13V354z M572,316h-17v16h17V316z M570,330h-13v-12h13V330z M473,316h-17v16h17V316z M471,330h-13v-12h13V330z M572,186v-7
				h-4.1l-3.4-51.6h-2l-3.4,51.6H555v7h-7v-36h-9v-18h-17v-7h-4l-3.5-62.6h-2L509,125h-4v7h-16v18h-9v36h-7v-7h-4.1l-3.4-51.6h-2
				l-3.4,51.6H456v7h-9v324h131v-2H449V188h9v-7h3.9l2.6-38.5l2.6,38.5h3.9v7h9v319h2V188v-36h9v-18h16v-7h3.9l2.6-46.4l2.6,46.4
				h3.9v7h17v18h9v36v319h2V188h9v-7h3.9l2.6-38.5l2.6,38.5h3.9v7h9v322h2V186H572z M572,292h-17v16h17V292z M570,306h-13v-12h13
				V306z M473,292h-17v16h17V292z M471,306h-13v-12h13V306z M572,268h-17v16h17V268z M570,282h-13v-12h13V282z M473,268h-17v16h17
				V268z M471,282h-13v-12h13V282z M572,244h-17v16h17V244z M570,258h-13v-12h13V258z M473,244h-17v16h17V244z M471,258h-13v-12h13
				V258z M572,220h-17v16h17V220z M570,234h-13v-12h13V234z M473,220h-17v16h17V220z M471,234h-13v-12h13V234z M572,196h-17v16h17
				V196z M570,210h-13v-12h13V210z M473,196h-17v16h17V196z M471,210h-13v-12h13V210z"/>
			<path style="fill:#FFFFFF;" d="M557,306h13v-12h-13V306z M557,330h13v-12h-13V330z M557,282h13v-12h-13V282z M557,198v12h13v-12
				H557z M557,354h13v-12h-13V354z M557,258h13v-12h-13V258z M557,234h13v-12h-13V234z M557,450h13v-12h-13V450z M557,474h13v-12
				h-13V474z M557,498h13v-12h-13V498z M557,402h13v-12h-13V402z M557,426h13v-12h-13V426z M557,378h13v-12h-13V378z M458,426h13
				v-12h-13V426z M458,282h13v-12h-13V282z M458,330h13v-12h-13V330z M458,258h13v-12h-13V258z M458,306h13v-12h-13V306z M458,210
				h13v-12h-13V210z M458,234h13v-12h-13V234z M458,402h13v-12h-13V402z M458,474h13v-12h-13V474z M458,354h13v-12h-13V354z
				 M458,450h13v-12h-13V450z M458,498h13v-12h-13V498z M458,378h13v-12h-13V378z"/>
		</g>
		<g>
			<rect x="276" y="337" style="fill:#DFE0E0;" width="131" height="173"/>
			<polygon style="opacity:0.5;fill:#FFFFFF;enable-background:new    ;" points="407,378.5 407,337 276,337 276,509.5 			"/>
			<rect x="318" y="478" style="fill:#FFE5CC;" width="47" height="30"/>
			<path style="fill:#FFFFFF;" d="M319,368h45v-21h-45V368z M397,347h-24v21h24V347z M310,347h-24v21h24V347z M319,398h45v-21h-45
				V398z M397,377h-24v21h24V377z M310,377h-24v21h24V377z M319,428h45v-21h-45V428z M397,407h-24v21h24V407z M310,407h-24v21h24
				V407z M319,458h45v-21h-45V458z M285,508h26v-42h-26V508z M397,437h-24v21h24V437z M310,437h-24v21h24V437z M372,466v42h26v-42
				H372z"/>
			<polygon style="fill:#A6D7EA;" points="362,466 360,464 323,464 321,466 319,466 319,471 321,471 323,473 360,473 362,471 
				364,471 364,466 			"/>
			<path style="fill:#3F4041;" d="M407,337H276v173h131V340h-2v168H278V339h129V337z M311,507v-41h-26v41h2v-39h22v39H311z M398,507
				v-41h-26v41h2v-39h22v39H398z M365,346h-47v23h47V346z M363,367h-43v-19h43V367z M398,346h-26v23h26V346z M396,367h-22v-19h22
				V367z M311,346h-26v23h26V346z M309,367h-22v-19h22V367z M365,376h-47v23h47V376z M363,397h-43v-19h43V397z M398,376h-26v23h26
				V376z M396,397h-22v-19h22V397z M311,376h-26v23h26V376z M309,397h-22v-19h22V397z M365,406h-47v23h47V406z M363,427h-43v-19h43
				V427z M398,406h-26v23h26V406z M396,427h-22v-19h22V427z M311,406h-26v23h26V406z M309,427h-22v-19h22V427z M365,436h-47v23h47
				V436z M363,457h-43v-19h43V457z M398,436h-26v23h26V436z M396,457h-22v-19h22V457z M311,436h-26v23h26V436z M309,457h-22v-19h22
				V457z M343,507v-26h-2v26H343z M337,507v-23h-13v23h2v-21h9v21H337z M359,507v-23h-12v23h2v-21h8v21H359z M365,507v-29h-47v29h2
				v-27h43v27H365z M365,465h-2.6l-2-2h-37.8l-2,2H318v7h2.6l2,2h37.8l2-2h2.6V465z M363,470h-1.4l-2,2h-36.2l-2-2H320v-3h1.4l2-2
				h36.2l2,2h1.4V470z"/>
		</g>
		<g>
			<rect x="134" y="447" style="fill:#DFE0E0;" width="102" height="63"/>
			<path style="opacity:0.5;fill:#FFFFFF;enable-background:new    ;" d="M134,456.2V510l88-88h-79v9l-12,12v8
				C131,453.2,132,455.2,134,456.2z"/>
			<path style="fill:#FFE5CC;" d="M140,510h28v-44h-28V510z M229,472v-5h-56v5h2v22h-2v5h56v-5h-2v-22H229z"/>
			<path style="fill:#FFFFFF;" d="M227,431v-8h-84v8l-12,12v8c0,3.3,2.7,6,6,6s6-2.7,6-6c0,3.3,2.7,6,6,6s6-2.7,6-6c0,3.3,2.7,6,6,6
				s6-2.7,6-6c0,3.3,2.7,6,6,6s6-2.7,6-6c0,3.3,2.7,6,6,6s6-2.7,6-6c0,3.3,2.7,6,6,6s6-2.7,6-6c0,3.3,2.7,6,6,6s6-2.7,6-6
				c0,3.3,2.7,6,6,6s6-2.7,6-6c0,3.3,2.7,6,6,6s6-2.7,6-6v-8L227,431z M147,484h14v-11h-14V484z M180,493h42v-20h-42V493z"/>
			<path style="fill:#A6D7EA;" d="M179,431v12v8h1c0,2.8,2.2,5,5,5s5-2.2,5-5h1v-8v-12v-7h-12V431z M155,424h-11v7.4l-12,12v7.6
				c0,2.8,2.2,5,5,5s5-2.2,5-5h1v-8l12-12V424z M209,424h-12v7l6,12v8h1c0,2.8,2.2,5,5,5s5-2.2,5-5h1v-8l-6-12V424z M226,431.4V424
				h-11v7l12,12v8h1c0,2.8,2.2,5,5,5v2c0.3,0,0.7,0,1-0.1V456l0.6-0.3c1.6-0.7,3.4-2.6,3.4-4.7v-7.6L226,431.4z M161,431l-6,12v8h1
				c0,2.8,2.2,5,5,5s5-2.2,5-5h1v-8l6-12v-7h-12V431z"/>
			<path style="fill:#3F4041;" d="M163,471h-18v15h18V471z M161,484h-14v-11h14V484z M168,507v-41h-28v41h2v-39h24v39H168z
				 M228,430.6V422h-86v8.6l-12,12v8.4c0,3.9,3.1,7,7,7c2.5,0,4.8-1.4,6-3.4c1.2,2,3.5,3.4,6,3.4s4.8-1.4,6-3.4c1.2,2,3.5,3.4,6,3.4
				s4.8-1.4,6-3.4c1.2,2,3.5,3.4,6,3.4s4.8-1.4,6-3.4c1.2,2,3.5,3.4,6,3.4s4.8-1.4,6-3.4c1.2,2,3.5,3.4,6,3.4s4.8-1.4,6-3.4
				c1.2,2,3.5,3.4,6,3.4s4.8-1.4,6-3.4c1.2,2,3.5,3.4,6,3.4s4.8-1.4,6-3.4c1.2,2,3.5,3.4,6,3.4v-2c-2.8,0-5-2.2-5-5h-2
				c0,2.8-2.2,5-5,5s-5-2.2-5-5h-2c0,2.8-2.2,5-5,5s-5-2.2-5-5h-2c0,2.8-2.2,5-5,5s-5-2.2-5-5h-2c0,2.8-2.2,5-5,5s-5-2.2-5-5h-2
				c0,2.8-2.2,5-5,5s-5-2.2-5-5h-2c0,2.8-2.2,5-5,5s-5-2.2-5-5h-2c0,2.8-2.2,5-5,5s-5-2.2-5-5h-2c0,2.8-2.2,5-5,5s-5-2.2-5-5v-7.6
				l12-12V424h82v7.4l12,12v7.6c0,2.2-1.7,4.1-3.4,4.7L234,456v52h-98v-49h-2v51h102v-52.7c2.1-1.1,4-3.5,4-6.3v-8.4L228,430.6z
				 M158,491.5c0,1.4,1.1,2.5,2.5,2.5s2.5-1.1,2.5-2.5s-1.1-2.5-2.5-2.5S158,490.1,158,491.5z M172,493v7h58v-7h-2v-20h2v-7h-58v7h2
				v20H172z M174,471v-3h54v3h-2v24h2v3h-54v-3h2v-24H174z M224,471h-46v24h46V471z M222,493h-42v-20h42V493z M202,474h-2v18h2V474z
				 M199,482h-18v2h18V482z M221,482h-18v2h18V482z M145,430v2h80v-2H145z M135,444h100v-2H135V444z"/>
		</g>
	</g>
</g>
</symbol><symbol id="services-sun" viewBox="0 0 112 112">
<circle style="fill:#F2CD9C;" cx="56" cy="56" r="56"/>
</symbol><symbol id="small_play" viewBox="0 0 218.2 218.2">
<path d="M109.1,23.3c-47.4,0-85.8,38.4-85.8,85.8s38.4,85.8,85.8,85.8c47.4,0,85.8-38.4,85.8-85.8S156.5,23.3,109.1,23.3z
	 M153.6,116.4l-61.9,38.7c-2.8,1.7-6,1.8-8.8,0.2c-2.9-1.6-4.5-4.4-4.5-7.6V70.4c0-3.3,1.6-6,4.5-7.6c2.8-1.6,6.1-1.5,8.8,0.2
	l61.9,38.7c2.6,1.6,4.1,4.3,4.1,7.4C157.7,112.2,156.3,114.8,153.6,116.4z M209.6,66.6c-5.5-13-13.4-24.7-23.4-34.7
	s-21.7-17.9-34.7-23.4C138.1,2.9,123.8,0,109.1,0c-14.7,0-29,2.9-42.5,8.6C53.6,14.1,42,21.9,32,32c-10,10-17.9,21.7-23.4,34.7
	C2.9,80.1,0,94.4,0,109.1c0,14.7,2.9,29,8.6,42.5c5.5,13,13.4,24.7,23.4,34.7c10,10,21.7,17.9,34.7,23.4c13.5,5.7,27.7,8.6,42.5,8.6
	c14.7,0,29-2.9,42.5-8.6c13-5.5,24.7-13.4,34.7-23.4c10-10,17.9-21.7,23.4-34.7c5.7-13.5,8.6-27.7,8.6-42.5
	C218.2,94.4,215.3,80.1,209.6,66.6z M178,178c-18.4,18.4-42.9,28.5-68.9,28.5c-26,0-50.5-10.1-68.9-28.5s-28.5-42.9-28.5-68.9
	c0-26,10.1-50.5,28.5-68.9s42.9-28.5,68.9-28.5c26,0,50.5,10.1,68.9,28.5s28.5,42.9,28.5,68.9C206.5,135.1,196.4,159.6,178,178z"/>
</symbol><symbol id="social_facebook" viewBox="0 0 141 141"><g><path d="m132.7.3h-124.2c-4.4 0-7.9 3.5-7.9 7.9v124.2c0 4.4 3.5 7.9 7.9 7.9h67.4v-54.2h-18.4v-21h18.4v-15.8c0-18.4 11.4-28 27.1-28 7.9 0 14 .9 16.6.9v19.2h-11.4c-8.8 0-10.5 4.4-10.5 10.5v13.1h21l-2.6 21h-19.2v54.2h35.9c4.4 0 7.9-3.5 7.9-7.9v-124.1c-.1-4.4-3.6-7.9-8-7.9"/></g></symbol><symbol id="social_linkedin" viewBox="0 0 141 141"><g><path d="m129.8.3h-119c-6.1 0-10.5 4.4-10.5 10.5v119.9c0 5.2 4.4 9.6 10.5 9.6h119c6.1 0 10.5-4.4 10.5-10.5v-119c0-6.1-4.4-10.5-10.5-10.5m-88.4 118.1h-20.1v-65.6h21v65.6h-.9m-9.6-74.3c-7 0-12.2-6.1-12.2-12.2 0-7 5.2-12.2 12.2-12.2 7 0 12.2 5.2 12.2 12.2-.8 6-6.1 12.2-12.2 12.2m87.5 74.3h-21v-31.5c0-7.9 0-17.5-10.5-17.5-10.5 0-12.2 8.7-12.2 17.5v31.5h-21v-65.6h20.1v8.8c2.6-5.2 9.6-10.5 19.2-10.5 21 0 24.5 14 24.5 31.5v35.9h.9v-.1"/></g></symbol><symbol id="social_twitter" viewBox="0 0 141 115"><g><path d="m98 .1c-15.8 0-29.1 13.2-29.1 29.1 0 2.6 0 4.4.9 6.2-23.8-.9-45.8-12.3-59.9-29.9-2.6 4.4-3.5 8.8-3.5 14.1 0 9.7 5.3 18.5 13.2 23.8-4.4 0-8.8-1.8-13.2-3.5 0 14.1 9.7 25.5 22.9 28.2-2.6 1.8-5.3 1.8-7.9 1.8-1.8 0-3.5 0-5.3-.9 3.5 11.4 14.1 19.4 27.3 20.3-9.7 7.9-22 12.3-36.1 12.3h-7c13.2 7.9 28.2 13.2 44 13.2 52.8 0 81.9-44 81.9-81.9v-3.5c5.3-4.4 10.6-8.8 14.1-15-4.4 1.8-9.7 3.5-15.8 3.5 6.2-3.5 10.6-8.8 12.3-15.8-5.3 3.5-11.4 5.3-18.5 7-4.5-5.5-12.4-9-20.3-9"/></g></symbol><symbol id="styleguide_nav_lockup" viewBox="0 0 290 32">
<style type="text/css">
	.st0{fill:#FFFFFF;}
</style>
<path class="st0" d="M41.9,13.2c0-1.3,1.4-1.7,2.4-1.7c1.3,0,2.2,0.4,2.8,1.6l1.1-0.5c-0.8-1.6-2.1-2.3-3.9-2.3s-3.6,0.9-3.6,2.9
	c0,4,6.7,2.1,6.7,5.2c0,1.5-1.5,2.1-2.7,2.1c-1.4,0-2.8-0.5-3.1-2l-1.2,0.2c0.5,2.1,2.1,3,4.4,3c2,0,4-1.2,4-3.3
	C48.6,14.2,41.9,15.9,41.9,13.2z M49.3,11.7h3.5v9.9H54v-9.9h3.5v-1.2h-8.2V11.7z M62.9,16.4l-2.9-6h-1.4l3.7,7.5v3.7h1.3v-3.7
	l3.7-7.5h-1.4L62.9,16.4z M70.2,10.4h-1.3v11.2h6.6v-1.2h-5.3V10.4z M77.4,21.6h7.3v-1.2h-6v-3.9h5.2v-1.2h-5.2v-3.6h6v-1.2h-7.3
	V21.6z M95.6,16.8h2.6c0,1.8-0.6,3.7-2.6,3.7c-2.6,0-3.2-2.4-3.2-4.5c0-2.1,0.6-4.5,3.2-4.5c1.2,0,1.9,0.5,2.6,1.4l0.9-0.8
	c-1-1.2-1.9-1.8-3.5-1.8c-3.3,0-4.5,2.8-4.5,5.7c0,2.9,1.2,5.7,4.5,5.7c1.3,0,2.2-0.4,2.8-1.8v1.6h1.1v-5.9h-3.8V16.8z M108.4,16.8
	c0,1.9-0.4,3.7-2.8,3.7c-2.4,0-2.8-1.8-2.8-3.7v-6.4h-1.3v6.5c0,2.8,1,4.9,4.1,4.9c3.1,0,4.1-2,4.1-4.9v-6.5h-1.3V16.8z M112.3,21.6
	h1.3V10.4h-1.3V21.6z M119.4,10.4h-3.2v11.2h3.2c4.4,0,4.9-1.7,4.9-5.6C124.3,12.1,123.8,10.4,119.4,10.4z M122.6,19.3
	c-0.4,0.8-1.3,1.1-3,1.1h-2.1v-8.7h2.1c1.7,0,2.6,0.3,3,1c0.4,0.7,0.4,2,0.4,3.3C123.1,17.3,123.1,18.5,122.6,19.3z M126.6,21.6h7.3
	v-1.2h-6v-3.9h5.2v-1.2h-5.2v-3.6h6v-1.2h-7.3V21.6z M140.7,21.6h1.3v-5.2h5.2v-1.2h-5.2v-3.6h5.8v-1.2h-7.1V21.6z M153.7,10.3
	c-3.3,0-4.5,2.8-4.5,5.7c0,2.9,1.2,5.7,4.5,5.7c3.3,0,4.5-2.8,4.5-5.7C158.3,13,157.1,10.3,153.7,10.3z M153.7,20.5
	c-2.7,0-3.2-2.4-3.2-4.5c0-2.1,0.6-4.5,3.2-4.5c2.7,0,3.2,2.4,3.2,4.5C157,18.1,156.4,20.5,153.7,20.5z M165,16.5
	c1.8-0.3,2.8-1.3,2.8-3c0-2.2-1.6-3.1-3.6-3.1h-3.9v11.2h1.3v-5h1.5c0.8,0,1.1,0.5,1.5,1l2.3,3.9h1.5l-2.5-4.1
	C165.6,17.1,165.3,16.7,165,16.5z M164.2,15.5h-2.6v-3.8h2.6c1.3,0,2.4,0.4,2.4,1.9S165.5,15.5,164.2,15.5z M178.1,10.4l-4.3,11.2
	h1.4l1.2-3.2h4.8l1.2,3.2h1.4l-4.3-11.2H178.1z M176.8,17.3l2-5.2l2,5.2H176.8z M189.4,10.4h-4.2v11.2h1.3v-4.9h2.9
	c2.2,0,3.7-0.8,3.7-3.2C193.1,11.3,191.6,10.4,189.4,10.4z M189.4,15.5h-2.9v-3.9h2.9c1.3,0,2.4,0.3,2.4,1.9S190.7,15.5,189.4,15.5z
	 M198.9,10.4h-4.2v11.2h1.3v-4.9h2.9c2.2,0,3.7-0.8,3.7-3.2C202.6,11.3,201.1,10.4,198.9,10.4z M198.9,15.5H196v-3.9h2.9
	c1.3,0,2.4,0.3,2.4,1.9S200.2,15.5,198.9,15.5z M207.7,10.4h-3.2v11.2h3.2c4.4,0,4.9-1.7,4.9-5.6C212.6,12.1,212.1,10.4,207.7,10.4z
	 M210.9,19.3c-0.4,0.8-1.3,1.1-3,1.1h-2.1v-8.7h2.1c1.7,0,2.6,0.3,3,1c0.4,0.7,0.4,2,0.4,3.3C211.4,17.3,211.4,18.5,210.9,19.3z
	 M215,21.6h1.3V10.4H215V21.6z M223.7,16.5c1.8-0.3,2.8-1.3,2.8-3c0-2.2-1.6-3.1-3.6-3.1H219v11.2h1.3v-5h1.5c0.8,0,1.1,0.5,1.5,1
	l2.3,3.9h1.5l-2.5-4.1C224.3,17.1,224,16.7,223.7,16.5z M222.9,15.5h-2.6v-3.8h2.6c1.3,0,2.4,0.4,2.4,1.9S224.2,15.5,222.9,15.5z
	 M228.9,21.6h7.3v-1.2h-6v-3.9h5.2v-1.2h-5.2v-3.6h6v-1.2h-7.3V21.6z M242.1,20.5c-2.6,0-3.3-2.4-3.3-4.5c0-2.1,0.7-4.5,3.3-4.5
	c1.2,0,1.9,0.5,2.7,1.3l0.9-0.9c-1-1.2-2-1.7-3.6-1.7c-3.3,0-4.6,2.8-4.6,5.7c0,3,1.3,5.7,4.6,5.7c1.7,0,2.5-0.6,3.6-1.8l-0.9-0.8
	C244,19.9,243.3,20.5,242.1,20.5z M246.8,11.7h3.5v9.9h1.3v-9.9h3.5v-1.2h-8.2V11.7z M257,19.9c-0.5,0-0.9,0.4-0.9,0.9
	c0,0.5,0.4,0.9,0.9,0.9c0.5,0,0.9-0.4,0.9-0.9C257.9,20.3,257.5,19.9,257,19.9z M264.5,20.5c-2.6,0-3.3-2.4-3.3-4.5
	c0-2.1,0.7-4.5,3.3-4.5c1.2,0,1.9,0.5,2.7,1.3l0.9-0.9c-1-1.2-2-1.7-3.6-1.7c-3.3,0-4.6,2.8-4.6,5.7c0,3,1.3,5.7,4.6,5.7
	c1.7,0,2.5-0.6,3.6-1.8l-0.9-0.8C266.5,19.9,265.8,20.5,264.5,20.5z M273.9,10.3c-3.3,0-4.5,2.8-4.5,5.7c0,2.9,1.2,5.7,4.5,5.7
	c3.3,0,4.5-2.8,4.5-5.7C278.4,13,277.3,10.3,273.9,10.3z M273.9,20.5c-2.7,0-3.2-2.4-3.2-4.5c0-2.1,0.6-4.5,3.2-4.5
	c2.7,0,3.2,2.4,3.2,4.5C277.2,18.1,276.6,20.5,273.9,20.5z M288.8,10.4l-3.6,9.3l-3.6-9.3h-1.3v11.2h1.3v-8l3.1,8h1l3.1-8v8h1.3
	V10.4H288.8z"/>
<path class="st0" d="M14.8,9l-4.3-6.8L1.7,25.5l8.8-3.8L14.8,9z M27.4,14.3L17.3,0h-7l10.8,17.1L27.4,14.3z M0,27.3L6.8,32l21.5-9.1
	l3.7-9.4L0,27.3z"/>
</symbol><symbol id="video_close" viewBox="0 0 218.2 218.2">
<path d="M209.6,66.6c-5.5-13-13.4-24.7-23.4-34.7s-21.7-17.9-34.7-23.4C138.1,2.9,123.8,0,109.1,0c-14.7,0-29,2.9-42.5,8.6
	C53.6,14.1,42,21.9,32,32c-10,10-17.9,21.7-23.4,34.7C2.9,80.1,0,94.4,0,109.1c0,14.7,2.9,29,8.6,42.5c5.5,13,13.4,24.7,23.4,34.7
	c10,10,21.7,17.9,34.7,23.4c13.5,5.7,27.7,8.6,42.5,8.6c14.7,0,29-2.9,42.5-8.6c13-5.5,24.7-13.4,34.7-23.4
	c10-10,17.9-21.7,23.4-34.7c5.7-13.5,8.6-27.7,8.6-42.5C218.2,94.4,215.3,80.1,209.6,66.6z M178,178c-18.4,18.4-42.9,28.5-68.9,28.5
	c-26,0-50.5-10.1-68.9-28.5s-28.5-42.9-28.5-68.9c0-26,10.1-50.5,28.5-68.9s42.9-28.5,68.9-28.5c26,0,50.5,10.1,68.9,28.5
	s28.5,42.9,28.5,68.9C206.5,135.1,196.4,159.6,178,178z"/>
<g>
	<path d="M149.3,71.5c1.6,1.6,1.6,4.1,0,5.7l-31.9,31.9l31.9,31.9c1.6,1.6,1.6,4.1,0,5.7l-2.7,2.7c-1.6,1.6-4.1,1.6-5.7,0
		l-31.9-31.9l-31.9,31.9c-1.6,1.6-4.1,1.6-5.7,0l-2.7-2.7c-1.6-1.6-1.6-4.1,0-5.7l31.9-31.9L68.9,77.2c-1.6-1.6-1.6-4.1,0-5.7
		l2.7-2.7c1.6-1.6,4.1-1.6,5.7,0l31.9,31.9L141,68.9c1.6-1.6,4.1-1.6,5.7,0L149.3,71.5z"/>
</g>
</symbol></svg>