<?xml version="1.0" encoding="utf-8"?>
<!-- Generator: Adobe Illustrator 19.2.1, SVG Export Plug-In . SVG Version: 6.00 Build 0)  -->
<svg version="1.1" id="Layer_1" xmlns="http://www.w3.org/2000/svg" xmlns:xlink="http://www.w3.org/1999/xlink" x="0px" y="0px"
	 viewBox="0 0 1060 398" style="enable-background:new 0 0 1060 398;" xml:space="preserve">
<g>
	<g>
		<path style="opacity:0.5;fill:#A6D7EA;" d="M577,138.2h-9.2c-0.9-4.6-5-8-9.8-8s-8.9,3.4-9.8,8H539c-2.8,0-5,2.2-5,5
			c0,2.8,2.2,5,5,5h38c2.8,0,5-2.2,5-5C582,140.5,579.8,138.2,577,138.2z"/>
		<path style="opacity:0.5;fill:#A6D7EA;" d="M169,96.2c0-6.6-5.4-12-12-12c-2.6,0-5,0.8-7,2.2c-2.4-7.1-9.1-12.2-17-12.2
			c-7.1,0-13.2,4.1-16.1,10c-6.6,0.1-11.9,5.4-11.9,12H83c-3.3,0-6,2.7-6,6v0c0,3.3,2.7,6,6,6h90c3.3,0,6-2.7,6-6v0c0-3.3-2.7-6-6-6
			H169z"/>
		<path style="opacity:0.5;fill:#A6D7EA;" d="M819,118.2h27c0-3.3,2.7-6,6-6c0.7,0,1.4,0.1,2,0.4c0-0.1,0-0.2,0-0.4
			c0-5.5,4.5-10,10-10s10,4.5,10,10c0,0.1,0,0.3,0,0.4c0.6-0.2,1.3-0.4,2-0.4c3.3,0,6,2.7,6,6h17c2.8,0,5,2.2,5,5c0,2.8-2.2,5-5,5
			h-35h-45c-2.8,0-5-2.2-5-5C814,120.5,816.2,118.2,819,118.2z"/>
		<path style="opacity:0.5;fill:#A6D7EA;" d="M66.4,160H41.3c-1.1-5.6-6.1-9.8-12-9.8s-10.8,4.2-12,9.8H6.1c-3.4,0-6.1,2.7-6.1,6.1
			c0,3.4,2.7,6.1,6.1,6.1h60.3c3.4,0,6.1-2.7,6.1-6.1C72.5,162.8,69.8,160,66.4,160z"/>
		<path style="opacity:0.5;fill:#A6D7EA;" d="M745,162.2h-10.1c1-1.7,1.6-3.8,1.6-5.9c0-6.6-5.4-12-12-12c-6.3,0-11.4,4.8-11.9,10.9
			c-0.2,0-0.5,0-0.7,0c-3.9,0-7,3.1-7,7h-9.2c-2.8,0-5,2.2-5,5c0,2.8,2.2,5,5,5H745c2.8,0,5-2.2,5-5
			C750,164.5,747.7,162.2,745,162.2z"/>
		<path style="opacity:0.5;fill:#A6D7EA;" d="M1052.5,169.2h-20.8c-2.3-5.3-7.6-9-13.7-9c-1,0-2,0.1-3,0.3c0-0.1,0-0.2,0-0.3
			c0-8.3-6.7-15-15-15c-8.3,0-15,6.7-15,15c0,0.2,0,0.4,0.1,0.6c-1-0.3-2-0.6-3.1-0.6c-5,0-9,4-9,9h-10.5c-4.1,0-7.5,3.4-7.5,7.5
			c0,4.1,3.4,7.5,7.5,7.5h37.5h52.5c4.1,0,7.5-3.4,7.5-7.5C1060,172.6,1056.6,169.2,1052.5,169.2z"/>
		<path style="opacity:0.5;fill:#A6D7EA;" d="M400,113.2h8.2c0.9-4.6,5-8,9.8-8c1.5,0,3,0.4,4.3,1c1.4-8.5,8.8-15,17.7-15
			c7.1,0,13.2,4.1,16.1,10c6.6,0.1,11.9,5.4,11.9,12h22c3.3,0,6,2.7,6,6v0c0,3.3-2.7,6-6,6h-90c-3.3,0-6-2.7-6-6v0
			C394,115.9,396.7,113.2,400,113.2z"/>
		<g>
			<rect x="618" y="78" style="fill:#EEAE3F;" width="18" height="4"/>
			<rect x="658" y="38" style="fill:#EEAE3F;" width="4" height="18"/>
			<rect x="658" y="104" style="fill:#EEAE3F;" width="4" height="18"/>
			<rect x="684" y="78" style="fill:#EEAE3F;" width="18" height="4"/>
			
				<rect x="634.7" y="47.7" transform="matrix(0.7071 -0.7071 0.7071 0.7071 146.4065 466.7874)" style="fill:#EEAE3F;" width="4" height="18"/>
			
				<rect x="674.3" y="54.7" transform="matrix(0.7071 -0.7071 0.7071 0.7071 160.0755 499.7874)" style="fill:#EEAE3F;" width="18" height="4"/>
			
				<rect x="627.7" y="101.3" transform="matrix(0.7071 -0.7071 0.7071 0.7071 113.4065 480.4565)" style="fill:#EEAE3F;" width="18" height="4"/>
			
				<rect x="681.3" y="94.3" transform="matrix(0.7071 -0.7071 0.7071 0.7071 127.0755 513.4565)" style="fill:#EEAE3F;" width="4" height="18"/>
			<circle style="fill:#EEAE3F;" cx="660" cy="80" r="20"/>
		</g>
	</g>
	<g>
		<path style="fill:#FFDCB3;" d="M810,232.2v144h174v-144H810z M684,304.2h116v-88H684V304.2z"/>
		<rect x="732" y="268.2" style="fill:#FFE5CC;" width="96" height="104"/>
		<path style="fill:#FFF1E6;" d="M684,398.2h94v-94h-94V398.2z M940,302.2v78h44v-78H940z"/>
		<path style="fill:#FFFFFF;" d="M721,230.2h6v-8h-6V230.2z M746,244.3L746,244.3l-7,0v9h7V244.3z M721,252.2h6v-8h-6V252.2z
			 M721,272.2h6v-8h-6V272.2z M696,320.2h6v-8h-6V320.2z M760,360.2h6v-8h-6V360.2z M760,340.2h6v-8h-6V340.2z M742,340.2h6v-8h-6
			V340.2z M742,320.2h6v-8h-6V320.2z M702,222.2h-6v8h6V222.2z M696,340.2h2v-8h-2V340.2z M745,222.2h-6v8h6V222.2z M952,260.2h-6v8
			h6V260.2z M970,240.2h-6v8h6V240.2z M952,240.2h-6v8h6V240.2z M760,320.2h6v-8h-6V320.2z M696,360.2h2v-8h-2V360.2z M696,378.2h2
			v-6h-2V378.2z M702,264.2h-6v8h6V264.2z M702,244.2h-6v8h6V244.2z M742,360.2h6v-8h-6V360.2z M948,338.2h6v-8h-6V338.2z
			 M948,360.2h6v-10h-6V360.2z M948,318.2h6v-8h-6V318.2z M926,248.2h8v-8h-8V248.2z M926,268.2h8v-8h-8V268.2z M966,360.2h6v-10h-6
			V360.2z M970,260.2h-6v8h6V260.2z M966,310.2v8h6v-8H966z M966,338.2h6v-8h-6V338.2z M790,328.2h6v-10h-6V328.2z M760,286.2h8v-10
			h-8V286.2z M764,230.2h6v-8h-6V230.2z M790,306.2h6v-10h-6V306.2z M782,230.2h6v-8h-6V230.2z M790,350.2h6v-10h-6V350.2z
			 M790,284.2h6v-8h-6V284.2z M808,284.2h6v-8h-6V284.2z M808,304.2h6v-8h-6V304.2z M952,280.3h-6v4h6V280.3z"/>
		<path style="fill:#E66732;" d="M829.2,206.3L810,225.4v6.8h174l0-6.8l-19.2-19.2L829.2,206.3z M800,209.4l-19.2-19.2h-77.7
			L684,209.4v6.8h116V209.4z M732,261.4v6.8h96v-26l-76.8,0L732,261.4z M703.2,278.2L684,297.4v6.8h94l0-6.8l-19.2-19.2L703.2,278.2
			z M964.8,276.2H926v26h58v-6.8L964.8,276.2z"/>
		<path style="fill:#C94E2D;" d="M732,261.4v6.8h94v-4h-90v-1.2l16.8-16.8H826v-4h-74.8L732,261.4z M800,216.3v-6.8l-19.2-19.2
			l-77.7,0L684,209.4v6.8L800,216.3z M688,212.2v-1.2l16.8-16.8l74.3,0l16.8,16.8v1.2L688,212.2z M703.2,278.2L684,297.4v6.8v0h24
			v-4l-20,0v-1.2l16.8-16.8H724v0h33.2l16.8,16.8v1.2h-52v4h56v-6.8l-19.2-19.2L703.2,278.2z M810,225.4v6.8h16v-4h-12v-1.2
			l16.8-16.8h1.2v-4h-2.8L810,225.4z M964.8,206.2l-44.8,0v4l43.2,0l16.8,16.8v1.2l-54,0v4h58v0h0v-6.8L964.8,206.2z M926,276.2v4
			h37.2l16.8,16.8v1.2h-54v4h58v-6.8l-19.2-19.2H926z"/>
		<path style="fill:#DFE0E0;" d="M940,308.2h-18v-76l-10-32l-10,32h-2v-52l-5-28l-5,28h-2v-26l-12-50l-12,50v26h-2l-5-28l-5,28v52
			h-2l-10-32l-10,32v76h-18l-4,4v86h136v-86L940,308.2z M730,338.3l-15-46.5l-15,46.2v44.3h-2l2,8l31.8,0.9l2.7-10.9l-4.6,2V338.3z"
			/>
		<circle style="fill:#FFFFFF;" cx="876" cy="250.2" r="12"/>
		<path style="fill:#A6D7EA;" d="M882,191.2c0-1.7-1.3-3-3-3h-6c-1.7,0-3,1.3-3,3v29h12V191.2z M864,194.2c0-3.3-2.7-6-6-6v34h6
			V194.2z M888,194.2v28h6v-34C890.7,188.2,888,190.9,888,194.2z M869,280.2h-6c-1.7,0-3,1.3-3,3v25h12v-25
			C872,281.6,870.7,280.2,869,280.2z M889,280.2h-6c-1.7,0-3,1.3-3,3v25h12v-25C892,281.6,890.7,280.2,889,280.2z M717.5,348.2h-5
			c-1.4,0-2.5,1.1-2.5,2.5v21.5h10v-21.5C720,349.4,718.9,348.2,717.5,348.2z"/>
		<polygon style="opacity:0.5;fill:#FFFFFF;" points="912,200.2 902,232.2 900,232.2 900,180.2 895,152.2 890,180.2 888,180.2 
			888,154.2 876,104.3 864,154.2 864,180.2 862,180.2 857,152.2 852,180.2 852,232.2 850,232.2 840,200.2 830,232.2 830,308.2 
			812,308.2 810,310.3 810,396.2 922,284.2 922,232.2 		"/>
		<path style="fill:#ADAEAF;" d="M730,398.2h80v-22h-80v4h4.6L730,398.2z M830,234.2h20l-10-34L830,234.2z M852,182.2h10l-5-30
			L852,182.2z M702,342.2h26l-13-40L702,342.2z M890,182.2h10l-5-30L890,182.2z M864,154.2v4h24v-4l-12-50L864,154.2z M942,372.2v26
			h42v-26H942z M902,234.2h20l-10-34L902,234.2z"/>
		<g>
			<g>
				<path style="fill:#CCAB87;" d="M962,342.3h14v-16h-14V342.3z M966,330.3h6v8h-6V330.3z M692,276.3h14v-16h-14V276.3z M696,264.3
					h6v8h-6V264.3z M692,256.3h14v-16h-14V256.3z M696,244.3h6v8h-6V244.3z M974,256.3h-14v16h14V256.3z M970,268.3h-6v-8h6V268.3z
					 M692,324.3h10v-4h-6v-8h6v-4h-10V324.3z M717,256.3h14v-16h-14V256.3z M721,244.3h6v8h-6V244.3z M692,234.3h14v-16h-14V234.3z
					 M696,222.3h6v8h-6V222.3z M717,276.3h14v-16h-14V276.3z M721,264.3h6v8h-6V264.3z M962,360.3h4v-10h6v10h4v-14h-14V360.3z
					 M692,378.3h4v-6h2v-4h-6V378.3z M956,236.3h-14v16h14V236.3z M952,248.3h-6v-8h6V248.3z M814,234.3h-4v6h4V234.3z M980,234.3
					v54h4v-54H980z M974,236.3h-14v16h14V236.3z M970,248.3h-6v-8h6V248.3z M804,304.3h4v-8h6v8h4v-12h-14V304.3z M774,218.3h-14v16
					h14V218.3z M770,230.3h-6v-8h6V230.3z M692,364.3h6v-4h-2v-8h2v-4h-6V364.3z M692,344.3h6v-4h-2v-8h2v-4h-6V344.3z M739,244.3h7
					v-4h-11v13h4V244.3z M962,322.3h14v-16h-14V322.3z M966,310.3h6v8h-6V310.3z M749,218.3h-14v16h14V218.3z M745,230.3h-6v-8h6
					V230.3z M980,370.3h4v-66h-4V370.3z M926,260.3h8v8h-8v4h12v-16h-12V260.3z M786,354.3h14v-18h-14V354.3z M790,340.3h6v10h-6
					V340.3z M792,218.3h-14v16h14V218.3z M788,230.3h-6v-8h6V230.3z M926,240.3h8v8h-8v4h12v-16h-12V240.3z M760,276.3h8v10h4v-14
					h-12V276.3z M774,360.3h4v-54h-4V360.3z M796,240.3h4v-22h-4V240.3z M756,324.3h14v-16h-14V324.3z M760,312.3h6v8h-6V312.3z
					 M786,288.3h14v-16h-14V288.3z M790,276.3h6v8h-6V276.3z M804,288.3h14v-16h-14V288.3z M808,276.3h6v8h-6V276.3z M786,310.3h14
					v-18h-14V310.3z M790,296.3h6v10h-6V296.3z M786,332.3h14v-18h-14V332.3z M790,318.3h6v10h-6V318.3z M738,344.3h14v-16h-14
					V344.3z M742,332.3h6v8h-6V332.3z M738,324.3h14v-16h-14V324.3z M742,312.3h6v8h-6V312.3z M948,310.3h6v8h-6v4h10v-16h-10V310.3
					z M948,330.3h6v8h-6v4h10v-16h-10V330.3z M717,234.3h14v-16h-14V234.3z M721,222.3h6v8h-6V222.3z M738,360.3h4v-8h6v8h4v-12h-14
					V360.3z M732,276.3h4v-6h-4V276.3z M956,256.3h-14v16h14V256.3z M952,268.3h-6v-8h6V268.3z M948,350.3h6v10h4v-14h-10V350.3z
					 M740,276.3h14v-4h-14V276.3z M756,344.3h14v-16h-14V344.3z M760,332.3h6v8h-6V332.3z M756,360.3h4v-8h6v8h4v-12h-14V360.3z
					 M684,290.2h4v-72h-4V290.2z M684,392.2h4v-86h-4V392.2z"/>
			</g>
		</g>
	</g>
	<g>
		<rect x="380" y="212.2" style="fill:#A6D7EA;" width="300" height="182"/>
		<g>
			<rect x="380" y="216.3" style="opacity:0.9;fill:#FFFFFF;" width="300" height="4"/>
			<rect x="380" y="224.3" style="opacity:0.8;fill:#FFFFFF;" width="300" height="4"/>
			<rect x="380" y="232.3" style="opacity:0.7;fill:#FFFFFF;" width="300" height="4"/>
			<rect x="380" y="280.3" style="opacity:0.1;fill:#FFFFFF;" width="300" height="4"/>
			<rect x="380" y="272.3" style="opacity:0.2;fill:#FFFFFF;" width="300" height="4"/>
			<rect x="380" y="264.3" style="opacity:0.3;fill:#FFFFFF;" width="300" height="4"/>
			<rect x="380" y="256.3" style="opacity:0.4;fill:#FFFFFF;" width="300" height="4"/>
			<rect x="380" y="248.3" style="opacity:0.5;fill:#FFFFFF;" width="300" height="4"/>
			<rect x="380" y="240.3" style="opacity:0.6;fill:#FFFFFF;" width="300" height="4"/>
		</g>
		<path style="opacity:0.3;fill:#FFFFFF;" d="M380,398.2l186-186H380C380,212.2,380,397.5,380,398.2z"/>
		<polyline style="fill:#DFE0E0;" points="468,156.2 476,156.2 476,122.2 514,122.2 514,156.2 522,156.2 522,250.2 468,250.2 
			468,156.2 		"/>
		<path style="fill:#ADAEAF;" d="M497.5,160.2h-5c-1.4,0-2.5,1.1-2.5,2.5v33.5h10v-33.5C500,161.4,498.9,160.2,497.5,160.2z
			 M474,158.2v38h8v-30C482,161.8,478.4,158.2,474,158.2z M508,166.2v30h8v-38C511.6,158.2,508,161.8,508,166.2z M499,132
			c0-2.2-1.8-4-4-4c-2.2,0-4,1.8-4,4v14.5h7.9V132z M482,132c0-2.2-1.8-4-4-4v18.5h4V132z M512,128c-2.2,0-4,1.8-4,4v14.5h4V128z"/>
		<polygon style="fill:#F2CD9C;" points="534,260.2 534,272.2 502,272.2 502,280.2 496,280.2 496,262.2 460,262.2 460,274.2 
			450,274.2 450,262.2 380,262.2 380,330.2 434,330.2 434,314.2 506,314.2 506,300.2 584,300.2 584,260.2 		"/>
		<path style="fill:#FFDCB3;" d="M564,294.3v-14h-38v20h-22v12h-16v-10h-20v-12h-48v12h-40v52.2c0,0,102,0.1,102,0.1v-28h42v-12h36
			v26h26v-46.2H564z"/>
		<polygon style="fill:#FFE5CC;" points="562,338.2 562,314.2 524,314.2 524,324.2 484,324.2 484,334.2 380,334.2 380,398.2 
			562,398.2 590,390.8 590,338.2 		"/>
		<polygon style="fill:#FFF1E6;" points="564,352.2 564,372.2 530,372.2 530,352.2 512,352.2 512,362.2 380,362.2 380,398.2 
			588,398.2 588,352.2 		"/>
		<polygon style="fill:#ADAEAF;" points="650,368.2 662,240.2 638,238.2 598,238.2 574,240.2 585.8,368.2 		"/>
		<polygon style="fill:#DFE0E0;" points="655.1,398.2 649,360 640,244.1 623.5,144.2 612.3,144.2 596,244.1 586.9,360 580.7,398.2 
					"/>
		<polygon style="fill:#FFFFFF;" points="627.4,236.2 618.7,184.2 617.3,184.2 608.5,236.2 		"/>
		<path style="fill:#F2CD9C;" d="M416,212.2h40v0c0-5.5-4.5-10-10-10h-30V212.2z"/>
		<path style="fill:#64A62E;" d="M428,196.2h-48v16h64C444,203.4,436.8,196.2,428,196.2z M536,254.2C536,254.2,536,254.3,536,254.2
			c-0.6-8.9-7.9-16-17-16c-7.2,0-13.3,4.4-15.8,10.7c-1.2,0.4-2.3,1.1-3.3,1.9c-0.9-0.3-1.9-0.5-3-0.5c-1.7,0-3.3,0.5-4.6,1.3
			c-1.8-3-5-5.1-8.8-5.3c-1.3-5.7-6.5-10-12.6-10c-7.2,0-13,5.8-13,13c0,0.3,0,0.7,0.1,1c0,0,0,0-0.1,0c-3,0-5.6,1.7-7,4.2
			c-1.4-2.5-4-4.2-7-4.2c-2.9,0-5.4,1.5-6.8,3.8c-1.7-4.5-6.1-7.8-11.2-7.8c-6.6,0-12,5.4-12,12c0-3.3-2.7-6-6-6
			c-2.6,0-4.8,1.6-5.6,3.9c-1.1-1.2-2.6-1.9-4.4-1.9c-0.9,0-1.8,0.2-2.5,0.6c-1.4-3.8-5.1-6.4-9.3-6.4c-2.3,0-4.4,0.8-6.1,2.1v15.7
			h70v10h10v-10h38v16h10v-8h28v-12h10C546,257.8,540.4,254.2,536,254.2z"/>
		<path style="fill:#666666;" d="M498,242.3h4v-42h-4V242.3z M478,234.3h4v-34h-4V234.3z M488,242.3h4v-42h-4V242.3z M508,236.3h4
			v-36h-4V236.3z M478,126.3v4c1.1,0,2,0.9,2,2v12h-2v4h6v-16C484,128.9,481.3,126.3,478,126.3z M495,158.3c-3.9,0-7,3.1-7,7v31h14
			v-31C502,161.4,498.9,158.3,495,158.3z M498,192.3h-6v-27c0-1.7,1.3-3,3-3s3,1.3,3,3V192.3z M474,158.3v4c2.2,0,4,1.8,4,4v26h-4v4
			h8v-30C482,161.8,478.4,158.3,474,158.3z M508,166.3v30h8v-4h-4v-26c0-2.2,1.8-4,4-4v-4C511.6,158.3,508,161.8,508,166.3z
			 M512,130.3v-4c-3.3,0-6,2.7-6,6v16h6v-4h-2v-12C510,131.1,510.9,130.3,512,130.3z M495,126.3c-3.9,0-7,3.1-7,7v15h14v-15
			C502,129.4,498.9,126.3,495,126.3z M498,144.3h-6v-11c0-1.7,1.3-3,3-3s3,1.3,3,3V144.3z M518,152.3v-34h-46v34h-4v80h4v-76h4v-34
			h38v34h4v78h4v-82H518z"/>
		<path style="fill:#0F6F67;" d="M472,248.3v4c3.3,0,6,2.7,6,6h4C482,252.7,477.5,248.3,472,248.3z M458,260.3h4c0-1.1,0.9-2,2-2v-4
			C460.7,254.3,458,256.9,458,260.3z M508,264.3h4c0-3.3,2.7-6,6-6v-4C512.5,254.3,508,258.7,508,264.3z M538,254.4
			c-0.4-10.1-8.8-18.2-19-18.2c-7.5,0-14.2,4.3-17.3,11.1c-0.8,0.3-1.5,0.7-2.1,1.2c-2.2-0.6-4.5-0.4-6.5,0.4c-2-2.4-4.8-4-7.8-4.6
			c-2-6.1-7.7-10.2-14.2-10.2c-8,0-14.6,6.3-15,14.2c-1.9,0.4-3.6,1.3-5,2.7c-1.8-1.8-4.3-2.9-7-2.9c-2.4,0-4.6,0.8-6.3,2.3
			c-2.6-3.8-6.9-6.3-11.7-6.3c-5.6,0-10.4,3.3-12.7,8c0,0,0,0,0,0c-1.4-1.3-3.3-2-5.3-2c-2.5,0-4.7,1.2-6.2,2.9c0,0-0.1,0.1-0.1,0.1
			c-1.1-0.7-2.4-1-3.7-1c-0.3,0-0.5,0-0.8,0.1c-0.2,0-0.5,0.1-0.7,0.1c-2.1-3.6-6-6-10.4-6c-2.2,0-4.3,0.6-6.1,1.7v5.2
			c1.5-1.7,3.7-2.9,6.1-2.9c4.4,0,8,3.6,8,8c0.2-0.8,0.8-1.6,1.4-2.1c0,0,0,0,0,0c0.1-0.1,0.3-0.2,0.4-0.3c0,0,0.1,0,0.1,0
			c0.3-0.2,0.6-0.3,0.9-0.4c0.3-0.1,0.7-0.1,1-0.1c0.9,0,1.7,0.3,2.4,0.8c0.1,0.1,0.1,0.1,0.2,0.2c0.1,0.1,0.2,0.2,0.4,0.3
			c0.4,0.4,0.7,0.9,0.9,1.5h0h2.2c0-0.2,0-0.5,0.1-0.7c0-0.1,0-0.2,0.1-0.3c0-0.1,0.1-0.2,0.1-0.3c0.1-0.3,0.2-0.5,0.3-0.7v0
			c0.7-1.2,2-2.1,3.5-2.1c2.2,0,4,1.8,4,4c0,0,0,0,0,0l4,0c0,0,0,0,0,0c0-5.5,4.5-10,10-10c4.1,0,7.9,2.6,9.4,6.5l1.4,3.8l2.1-3.4
			c1.1-1.8,3-2.8,5.1-2.8c2.2,0,4.2,1.2,5.2,3.2l1.8,3.2l1.8-3.2c1-1.9,3-3.1,5.1-3.2l2.3,0l-0.2-2.2c0-0.3,0-0.6,0-0.9
			c0-6.1,4.9-11,11-11c5.1,0,9.5,3.5,10.7,8.5l0.3,1.5l1.5,0.1c2.9,0.2,5.6,1.8,7.2,4.3l1,1.7l1.7-1c1.8-1.1,3.7-1.4,5.9-0.6
			l1.1,0.4l0.9-0.7c0.8-0.7,1.7-1.2,2.7-1.5l0.8-0.3l0.3-0.8c2.3-5.7,7.8-9.4,13.9-9.4c8.3,0,15,6.7,15,15c0,0.2,0,0.4,0,0.6
			l-0.1,2.4h2.1l0.2,0c1,0,2,0.3,2.9,0.8l2-3.5C540.1,255.1,539,254.7,538,254.4z"/>
		<path style="fill:#CCAB87;" d="M504,290.3v6h6v-6H504z M520,280.3h-6v6h6V280.3z M514,296.3h6v-6h-6V296.3z M544,268.3v6h6v-6H544
			z M384,266.3h64v12h14v-12h34v18h14v-8h30v-12h32v-4h-36v12h-30v8h-6v-18h-42v12h-6v-12l-72,0v38h4V266.3z M570,268.3h-6v6h6
			V268.3z M554,268.3v6h6v-6H554z M384,338.3h100v-10h40v-10h34v24h20v-4h-16v-24h-42v10h-40v10h-96l0,0l-4,0v26h4V338.3z
			 M482,270.3h-6v6h6V270.3z M486,296.3h6v-6h-6V296.3z M472,270.3h-6v6h6V270.3z M476,286.3h6v-6h-6V286.3z M518,348.3h6v-6h-6
			V348.3z M486,286.3h6v-6h-6V286.3z M544,332.3h-6v6h6V332.3z M534,332.3h-6v6h6V332.3z M544,322.3h-6v6h6V322.3z M466,286.3h6v-6
			h-6V286.3z M544,342.3h-6v6h6V342.3z M524,332.3h-6v6h6V332.3z M534,322.3h-6v6h6V322.3z M528,348.3h6v-6h-6V348.3z M554,352.3h-6
			v6h6V352.3z M538,368.3h6v-6h-6V368.3z M548,368.3h6v-6h-6V368.3z M554,332.3h-6v6h6V332.3z M554,342.3h-6v6h6V342.3z M544,352.3
			h-6v6h6V352.3z M554,322.3h-6v6h6V322.3z M476,296.3h6v-6h-6V296.3z M468,324.3h6v-6h-6V324.3z M474,308.3h-6v6h6V308.3z
			 M464,308.3h-6v6h6V308.3z M458,324.3h6v-6h-6V324.3z M448,324.3h6v-6h-6V324.3z M532,304.3h6v-6h-6V304.3z M464,298.3h-6v6h6
			V298.3z M454,308.3h-6v6h6V308.3z M552,304.3h6v-6h-6V304.3z M558,288.3h-6v6h6V288.3z M538,288.3h-6v6h6V288.3z M574,298.3v-4h-8
			v-14h-42v20h-20v12h-16v-10h-16v-12h-0.8v0H420v0v12h-40v30h4v-26h40v-12h44v12h16v10h24v-12h20v-20h34v14H574z M542,304.3h6v-6
			h-6V304.3z M548,288.3h-6v6h6V288.3z M444,270.3h-6v6h6V270.3z M418,286.3h6v-6h-6V286.3z M418,324.3h6v-6h-6V324.3z M424,308.3
			h-6v6h6V308.3z M424,270.3h-6v6h6V270.3z M438,286.3h6v-6h-6V286.3z M428,286.3h6v-6h-6V286.3z M434,270.3h-6v6h6V270.3z
			 M454,298.3h-6v6h6V298.3z M438,324.3h6v-6h-6V324.3z M444,308.3h-6v6h6V308.3z M444,298.3h-6v6h6V298.3z M428,324.3h6v-6h-6
			V324.3z M434,298.3h-6v6h6V298.3z M434,308.3h-6v6h6V308.3z M492,270.3h-6v6h6V270.3z M448,376.3h6v-6h-6V376.3z M448,386.3h6v-6
			h-6V386.3z M458,386.3h6v-6h-6V386.3z M438,376.3h6v-6h-6V376.3z M468,376.3h6v-6h-6V376.3z M458,376.3h6v-6h-6V376.3z M468,386.3
			h6v-6h-6V386.3z M418,376.3h6v-6h-6V376.3z M418,386.3h6v-6h-6V386.3z M438,386.3h6v-6h-6V386.3z M408,376.3h6v-6h-6V376.3z
			 M478,386.3h6v-6h-6V386.3z M428,376.3h6v-6h-6V376.3z M428,386.3h6v-6h-6V386.3z M518,386.3h6v-6h-6V386.3z M570,376.3h6v-6h-6
			V376.3z M408,386.3h6v-6h-6V386.3z M518,376.3h6v-6h-6V376.3z M518,366.3h6v-6h-6V366.3z M478,376.3h6v-6h-6V376.3z M570,366.3h6
			v-6h-6V366.3z M562,352.3v20h-30v-20h-22v10H380v30h4v-26h130v-10h14v20h38v-20h14v-4H562z M488,376.3h6v-6h-6V376.3z M488,386.3
			h6v-6h-6V386.3z M498,386.3h6v-6h-6V386.3z M498,376.3h6v-6h-6V376.3z M514,332.3h-6v6h6V332.3z M508,376.3h6v-6h-6V376.3z
			 M508,386.3h6v-6h-6V386.3z M448,358.3h6v-6h-6V358.3z M444,342.3h-6v6h6V342.3z M408,358.3h6v-6h-6V358.3z M458,358.3h6v-6h-6
			V358.3z M438,358.3h6v-6h-6V358.3z M454,342.3h-6v6h6V342.3z M414,342.3h-6v6h6V342.3z M434,342.3h-6v6h6V342.3z M418,358.3h6v-6
			h-6V358.3z M424,342.3h-6v6h6V342.3z M428,358.3h6v-6h-6V358.3z M464,342.3h-6v6h6V342.3z M504,332.3h-6v6h6V332.3z M498,358.3h6
			v-6h-6V358.3z M494,342.3h-6v6h6V342.3z M504,342.3h-6v6h6V342.3z M508,348.3h6v-6h-6V348.3z M488,358.3h6v-6h-6V358.3z
			 M468,358.3h6v-6h-6V358.3z M478,358.3h6v-6h-6V358.3z M474,342.3h-6v6h6V342.3z M494,332.3h-6v6h6V332.3z M484,342.3h-6v6h6
			V342.3z M388,376.3h6v-6h-6V376.3z M398,358.3h6v-6h-6V358.3z M404,342.3h-6v6h6V342.3z M414,270.3h-6v6h6V270.3z M408,296.3h6v-6
			h-6V296.3z M394,342.3h-6v6h6V342.3z M398,386.3h6v-6h-6V386.3z M398,376.3h6v-6h-6V376.3z M408,286.3h6v-6h-6V286.3z M388,358.3
			h6v-6h-6V358.3z M388,386.3h6v-6h-6V386.3z M404,308.3h-6v6h6V308.3z M398,296.3h6v-6h-6V296.3z M388,324.3h6v-6h-6V324.3z
			 M394,308.3h-6v6h6V308.3z M408,324.3h6v-6h-6V324.3z M414,308.3h-6v6h6V308.3z M398,324.3h6v-6h-6V324.3z M398,286.3h6v-6h-6
			V286.3z M404,270.3h-6v6h6V270.3z M388,296.3h6v-6h-6V296.3z M394,270.3h-6v6h6V270.3z M388,286.3h6v-6h-6V286.3z"/>
	</g>
	<g>
		<polygon style="fill:#FFE5CC;" points="216,184.2 152,184.2 152,204.2 140,204.2 140,224.2 116,224.2 116,356.2 216,356.2 		"/>
		<path style="fill:#F2CD9C;" d="M124,282.2h12v-14h-12V282.2z M124,264.2h12v-14h-12V264.2z M124,246.2h12v-14h-12V246.2z
			 M124,300.2h12v-14h-12V300.2z M124,316.2h12v-12h-12V316.2z M148,282.2h12v-14h-12V282.2z M148,316.2h12v-12h-12V316.2z
			 M148,232.2v14h12v-14H148z M148,264.2h12v-14h-12V264.2z M148,300.2h12v-14h-12V300.2z"/>
		<path style="fill:#CCAB87;" d="M196,356.2h8v-4h-8V356.2z M172,252.2h8v-8h-8V252.2z M172,240.2h8v-8h-8V240.2z M172,332.2h8v-4
			h-8V332.2z M164,316.3h4v-86h-4V316.3z M148,246.3h12v-14h-12V246.3z M152,236.3h4v6h-4V236.3z M172,264.2h8v-8h-8V264.2z
			 M172,288.2h8v-8h-8V288.2z M172,300.2h8v-8h-8V300.2z M172,312.2h8v-8h-8V312.2z M172,324.2h8v-8h-8V324.2z M172,276.2h8v-8h-8
			V276.2z M148,300.3h12v-14h-12V300.3z M152,290.3h4v6h-4V290.3z M124,300.3h12v-14h-12V300.3z M128,290.3h4v6h-4V290.3z
			 M124,282.3h12v-14h-12V282.3z M128,272.3h4v6h-4V272.3z M148,264.3h12v-14h-12V264.3z M152,254.3h4v6h-4V254.3z M196,156.3h-4v26
			h4V156.3z M168,156.3h-4v26h4V156.3z M124,264.3h12v-14h-12V264.3z M128,254.3h4v6h-4V254.3z M124,316.3h4v-8h4v8h4v-12h-12V316.3
			z M148,282.3h12v-14h-12V282.3z M152,272.3h4v6h-4V272.3z M184,332.2h8v-4h-8V332.2z M140,316.3h4v-86h-4V316.3z M148,316.3h4v-8
			h4v8h4v-12h-12V316.3z M124,246.3h12v-14h-12V246.3z M128,236.3h4v6h-4V236.3z M196,192.2v8h8v-8H196z M196,212.2v8h8v-8H196z
			 M160,212.2v8h8v-8H160z M148,212.2v8h8v-8H148z M184,212.2v8h8v-8H184z M172,212.2v8h8v-8H172z M184,324.2h8v-8h-8V324.2z
			 M208,316.3h4v-86h-4V316.3z M146,228.3h66v-4h-66V228.3z M196,240.2h8v-8h-8V240.2z M208,200.2h4v-8h-4V200.2z M152,184.3v20h-12
			v20h-24v92h4v-88h24v-20h12v-20h56v-4H152z M184,192.2v8h8v-8H184z M160,192.2v8h8v-8H160z M172,192.2v8h8v-8H172z M158,208.3h54
			v-4h-54V208.3z M208,220.2h4v-8h-4V220.2z M196,252.2h8v-8h-8V252.2z M184,276.2h8v-8h-8V276.2z M184,264.2h8v-8h-8V264.2z
			 M184,252.2h8v-8h-8V252.2z M184,312.2h8v-8h-8V312.2z M184,288.2h8v-8h-8V288.2z M184,240.2h8v-8h-8V240.2z M184,300.2h8v-8h-8
			V300.2z M196,324.2h8v-8h-8V324.2z M196,288.2h8v-8h-8V288.2z M196,276.2h8v-8h-8V276.2z M196,300.2h8v-8h-8V300.2z M196,312.2h8
			v-8h-8V312.2z M196,336.2h8v-8h-8V336.2z M196,348.2h8v-8h-8V348.2z M196,264.2h8v-8h-8V264.2z"/>
		<polygon style="fill:#FFFFFF;" points="304,356.2 304,178.2 296,178.2 296,164.2 270,118.3 270,116.3 264,116.3 264,110.3 
			248,110.3 248,116.3 242,116.3 242,118.3 216,164.2 216,178.2 208,178.2 208,322.2 204,322.2 204,356.2 		"/>
		<path style="fill:#DFE0E0;" d="M98,220.3H76v112l40,0v-92l-18,0V220.3z M368,196.2v-10h-10v-6h-10v-8l-12-14l-12,14v8h-10v6h-10
			v136h-2v-142h-8v146h-32v-126h2v-10h14v-12h10v-11.4l-28-44.6h-8l-28,44.6v11.4h10v12h14v10h2v126h-18v22h-6v8h150v-160H368z
			 M210,322.2h-6v34h14v-176h-8V322.2z"/>
		<rect x="76" y="356.2" style="fill:#A6D7EA;" width="300" height="42"/>
		<polygon style="opacity:0.3;fill:#FFFFFF;" points="242.3,398.2 284.3,356.2 76,356.2 76,398.2 		"/>
		<g>
			<rect x="76" y="364.3" style="opacity:0.8;fill:#FFFFFF;" width="300" height="4"/>
			<rect x="76" y="372.3" style="opacity:0.6;fill:#FFFFFF;" width="300" height="4"/>
			<rect x="76" y="380.3" style="opacity:0.4;fill:#FFFFFF;" width="300" height="4"/>
			<rect x="76" y="388.3" style="opacity:0.2;fill:#FFFFFF;" width="300" height="4"/>
			<rect x="76" y="356.3" style="fill:#FFFFFF;" width="300" height="4"/>
		</g>
		<path style="fill:#A6D7EA;" d="M276,264.2h4v-4h-4V264.2z M270,246.2h4v-4h-4V246.2z M270,264.2h4v-4h-4V264.2z M270,258.2h4v-4
			h-4V258.2z M270,240.2h4v-4h-4V240.2z M270,228.2h4v-4h-4V228.2z M270,234.2h4v-4h-4V234.2z M270,222.2h4v-4h-4V222.2z M270,294.2
			h4v-4h-4V294.2z M270,270.2h4v-4h-4V270.2z M270,300.2h4v-4h-4V300.2z M270,306.2h4v-4h-4V306.2z M270,216.2h4v-4h-4V216.2z
			 M270,276.2h4v-4h-4V276.2z M270,288.2h4v-4h-4V288.2z M270,282.2h4v-4h-4V282.2z M276,282.2h4v-4h-4V282.2z M276,294.2h4v-4h-4
			V294.2z M276,306.2h4v-4h-4V306.2z M276,288.2h4v-4h-4V288.2z M276,276.2h4v-4h-4V276.2z M270,312.2h4v-4h-4V312.2z M276,270.2h4
			v-4h-4V270.2z M276,312.2h4v-4h-4V312.2z M270,210.2h4v-4h-4V210.2z M276,318.2h4v-4h-4V318.2z M276,324.2h4v-4h-4V324.2z
			 M270,252.2h4v-4h-4V252.2z M264,288.2h4v-4h-4V288.2z M264,300.2h4v-4h-4V300.2z M264,264.2h4v-4h-4V264.2z M264,306.2h4v-4h-4
			V306.2z M264,276.2h4v-4h-4V276.2z M264,270.2h4v-4h-4V270.2z M264,312.2h4v-4h-4V312.2z M264,282.2h4v-4h-4V282.2z M264,294.2h4
			v-4h-4V294.2z M264,324.2h4v-4h-4V324.2z M264,318.2h4v-4h-4V318.2z M264,222.2h4v-4h-4V222.2z M264,258.2h4v-4h-4V258.2z
			 M270,324.2h4v-4h-4V324.2z M264,210.2h4v-4h-4V210.2z M264,246.2h4v-4h-4V246.2z M264,240.2h4v-4h-4V240.2z M264,252.2h4v-4h-4
			V252.2z M270,318.2h4v-4h-4V318.2z M264,216.2h4v-4h-4V216.2z M264,228.2h4v-4h-4V228.2z M264,234.2h4v-4h-4V234.2z M276,300.2h4
			v-4h-4V300.2z M288,312.2h4v-4h-4V312.2z M288,306.2h4v-4h-4V306.2z M288,318.2h4v-4h-4V318.2z M288,324.2h4v-4h-4V324.2z
			 M288,288.2h4v-4h-4V288.2z M288,300.2h4v-4h-4V300.2z M288,294.2h4v-4h-4V294.2z M282,198.2h4v-4h-4V198.2z M282,204.2h4v-4h-4
			V204.2z M288,282.2h4v-4h-4V282.2z M282,210.2h4v-4h-4V210.2z M288,204.2h4v-4h-4V204.2z M288,216.2h4v-4h-4V216.2z M288,210.2h4
			v-4h-4V210.2z M288,222.2h4v-4h-4V222.2z M288,228.2h4v-4h-4V228.2z M276,258.2h4v-4h-4V258.2z M288,276.2h4v-4h-4V276.2z
			 M288,198.2h4v-4h-4V198.2z M282,216.2h4v-4h-4V216.2z M288,264.2h4v-4h-4V264.2z M288,270.2h4v-4h-4V270.2z M288,258.2h4v-4h-4
			V258.2z M288,246.2h4v-4h-4V246.2z M288,240.2h4v-4h-4V240.2z M288,234.2h4v-4h-4V234.2z M288,252.2h4v-4h-4V252.2z M282,182.2v10
			h10v-10H282z M270,204.2h10v-10h-10V204.2z M282,318.2h4v-4h-4V318.2z M276,210.2h4v-4h-4V210.2z M282,324.2h4v-4h-4V324.2z
			 M276,252.2h4v-4h-4V252.2z M282,222.2h4v-4h-4V222.2z M276,216.2h4v-4h-4V216.2z M276,246.2h4v-4h-4V246.2z M276,222.2h4v-4h-4
			V222.2z M276,228.2h4v-4h-4V228.2z M276,240.2h4v-4h-4V240.2z M276,234.2h4v-4h-4V234.2z M282,246.2h4v-4h-4V246.2z M282,252.2h4
			v-4h-4V252.2z M282,258.2h4v-4h-4V258.2z M282,234.2h4v-4h-4V234.2z M282,312.2h4v-4h-4V312.2z M282,240.2h4v-4h-4V240.2z
			 M282,264.2h4v-4h-4V264.2z M282,228.2h4v-4h-4V228.2z M282,300.2h4v-4h-4V300.2z M282,294.2h4v-4h-4V294.2z M282,306.2h4v-4h-4
			V306.2z M282,288.2h4v-4h-4V288.2z M282,276.2h4v-4h-4V276.2z M282,270.2h4v-4h-4V270.2z M282,282.2h4v-4h-4V282.2z M226,258.2h4
			v-4h-4V258.2z M226,246.2h4v-4h-4V246.2z M226,234.2h4v-4h-4V234.2z M226,240.2h4v-4h-4V240.2z M226,228.2h4v-4h-4V228.2z
			 M226,270.2h4v-4h-4V270.2z M226,312.2h4v-4h-4V312.2z M226,276.2h4v-4h-4V276.2z M226,300.2h4v-4h-4V300.2z M226,318.2h4v-4h-4
			V318.2z M226,306.2h4v-4h-4V306.2z M226,282.2h4v-4h-4V282.2z M226,288.2h4v-4h-4V288.2z M226,294.2h4v-4h-4V294.2z M226,264.2h4
			v-4h-4V264.2z M232,318.2h4v-4h-4V318.2z M226,222.2h4v-4h-4V222.2z M232,312.2h4v-4h-4V312.2z M226,324.2h4v-4h-4V324.2z
			 M232,306.2h4v-4h-4V306.2z M232,300.2h4v-4h-4V300.2z M232,324.2h4v-4h-4V324.2z M226,210.2h4v-4h-4V210.2z M226,216.2h4v-4h-4
			V216.2z M226,198.2h4v-4h-4V198.2z M220,192.2h10v-10h-10V192.2z M226,252.2h4v-4h-4V252.2z M220,318.2h4v-4h-4V318.2z M220,294.2
			h4v-4h-4V294.2z M220,300.2h4v-4h-4V300.2z M220,270.2h4v-4h-4V270.2z M220,306.2h4v-4h-4V306.2z M220,276.2h4v-4h-4V276.2z
			 M220,282.2h4v-4h-4V282.2z M220,288.2h4v-4h-4V288.2z M220,312.2h4v-4h-4V312.2z M220,348.2h4v-4h-4V348.2z M220,354.2h4v-4h-4
			V354.2z M232,294.2h4v-4h-4V294.2z M220,324.2h4v-4h-4V324.2z M220,330.2h4v-4h-4V330.2z M220,342.2h4v-4h-4V342.2z M220,336.2h4
			v-4h-4V336.2z M220,204.2h4v-4h-4V204.2z M220,198.2h4v-4h-4V198.2z M220,264.2h4v-4h-4V264.2z M220,210.2h4v-4h-4V210.2z
			 M220,216.2h4v-4h-4V216.2z M226,336.2h4v-4h-4V336.2z M226,342.2h4v-4h-4V342.2z M226,330.2h4v-4h-4V330.2z M220,222.2h4v-4h-4
			V222.2z M220,258.2h4v-4h-4V258.2z M220,246.2h4v-4h-4V246.2z M220,252.2h4v-4h-4V252.2z M220,240.2h4v-4h-4V240.2z M220,228.2h4
			v-4h-4V228.2z M220,234.2h4v-4h-4V234.2z M226,204.2h4v-4h-4V204.2z M244,324.2h4v-4h-4V324.2z M244,318.2h4v-4h-4V318.2z
			 M244,306.2h4v-4h-4V306.2z M244,312.2h4v-4h-4V312.2z M244,300.2h4v-4h-4V300.2z M238,228.2h4v-4h-4V228.2z M238,234.2h4v-4h-4
			V234.2z M238,222.2h4v-4h-4V222.2z M238,216.2h4v-4h-4V216.2z M232,204.2h10v-10h-10V204.2z M238,210.2h4v-4h-4V210.2z M244,252.2
			h4v-4h-4V252.2z M244,294.2h4v-4h-4V294.2z M244,234.2h4v-4h-4V234.2z M232,288.2h4v-4h-4V288.2z M244,228.2h4v-4h-4V228.2z
			 M244,210.2h4v-4h-4V210.2z M244,222.2h4v-4h-4V222.2z M244,216.2h4v-4h-4V216.2z M244,246.2h4v-4h-4V246.2z M244,276.2h4v-4h-4
			V276.2z M244,282.2h4v-4h-4V282.2z M238,240.2h4v-4h-4V240.2z M244,288.2h4v-4h-4V288.2z M244,258.2h4v-4h-4V258.2z M244,264.2h4
			v-4h-4V264.2z M244,270.2h4v-4h-4V270.2z M244,240.2h4v-4h-4V240.2z M232,228.2h4v-4h-4V228.2z M232,222.2h4v-4h-4V222.2z
			 M232,234.2h4v-4h-4V234.2z M232,240.2h4v-4h-4V240.2z M232,210.2h4v-4h-4V210.2z M232,216.2h4v-4h-4V216.2z M232,276.2h4v-4h-4
			V276.2z M232,270.2h4v-4h-4V270.2z M232,282.2h4v-4h-4V282.2z M232,246.2h4v-4h-4V246.2z M232,252.2h4v-4h-4V252.2z M232,264.2h4
			v-4h-4V264.2z M232,258.2h4v-4h-4V258.2z M238,282.2h4v-4h-4V282.2z M238,288.2h4v-4h-4V288.2z M238,246.2h4v-4h-4V246.2z
			 M238,270.2h4v-4h-4V270.2z M238,276.2h4v-4h-4V276.2z M238,252.2h4v-4h-4V252.2z M238,258.2h4v-4h-4V258.2z M238,264.2h4v-4h-4
			V264.2z M238,294.2h4v-4h-4V294.2z M238,324.2h4v-4h-4V324.2z M238,318.2h4v-4h-4V318.2z M238,300.2h4v-4h-4V300.2z M238,306.2h4
			v-4h-4V306.2z M238,312.2h4v-4h-4V312.2z"/>
		<path style="fill:#ADAEAF;" d="M164,322.2h-56v10H76v24h116v-24h-28V322.2z M100,268.3h-6v6h6V268.3z M90,298.3h-6v6h6V298.3z
			 M90,288.3h-6v6h6V288.3z M100,258.3h-6v6h6V258.3z M100,248.3h-6v6h6V248.3z M90,308.3h-6v6h6V308.3z M84,324.3h6v-6h-6V324.3z
			 M90,248.3h-6v6h6V248.3z M90,238.3h-6v6h6V238.3z M90,278.3h-6v6h6V278.3z M90,268.3h-6v6h6V268.3z M90,258.3h-6v6h6V258.3z
			 M104,314.3h6v-6h-6V314.3z M110,288.3h-6v6h6V288.3z M100,278.3h-6v6h6V278.3z M110,268.3h-6v6h6V268.3z M110,298.3h-6v6h6V298.3
			z M110,258.3h-6v6h6V258.3z M80,224.3h14v20h20v-4H98v-20H76l0,0v0v0v106h4V224.3z M90,228.3h-6v6h6V228.3z M100,288.3h-6v6h6
			V288.3z M100,298.3h-6v6h6V298.3z M94,324.3h6v-6h-6V324.3z M110,248.3h-6v6h6V248.3z M100,308.3h-6v6h6V308.3z M110,278.3h-6v6h6
			V278.3z M310,340.3h6v-6h-6V340.3z M330,350.3h6v-6h-6V350.3z M320,340.3h6v-6h-6V340.3z M320,350.3h6v-6h-6V350.3z M310,350.3h6
			v-6h-6V350.3z M232,344.3h-6v12h4v-8h6v-18h70v-4h-74V344.3z M350,350.3h6v-6h-6V350.3z M360,344.3v6h6v-6H360z M300,340.3h6v-6
			h-6V340.3z M340,350.3h6v-6h-6V350.3z M330,340.3h6v-6h-6V340.3z M340,340.3h6v-6h-6V340.3z M250,340.3h6v-6h-6V340.3z M260,350.3
			h6v-6h-6V350.3z M260,340.3h6v-6h-6V340.3z M270,350.3h6v-6h-6V350.3z M240,350.3h6v-6h-6V350.3z M250,350.3h6v-6h-6V350.3z
			 M240,340.3h6v-6h-6V340.3z M280,340.3h6v-6h-6V340.3z M290,340.3h6v-6h-6V340.3z M270,340.3h6v-6h-6V340.3z M290,350.3h6v-6h-6
			V350.3z M280,350.3h6v-6h-6V350.3z M300,350.3h6v-6h-6V350.3z"/>
		<path style="fill:#A6D7EA;" d="M332,298.2h10v-8h-10V298.2z M332,310.2h10v-8h-10V310.2z M318,238.2h10v-8h-10V238.2z M332,322.2
			h10v-8h-10V322.2z M318,226.2h10v-8h-10V226.2z M332,286.2h10v-8h-10V286.2z M332,250.2h10v-8h-10V250.2z M332,262.2h10v-8h-10
			V262.2z M332,238.2h10v-8h-10V238.2z M332,274.2h10v-8h-10V274.2z M318,322.2h10v-8h-10V322.2z M332,226.2h10v-8h-10V226.2z
			 M318,250.2h10v-8h-10V250.2z M318,310.2h10v-8h-10V310.2z M304,310.2h10v-8h-10V310.2z M304,322.2h10v-8h-10V322.2z M304,298.2
			h10v-8h-10V298.2z M318,274.2h10v-8h-10V274.2z M318,262.2h10v-8h-10V262.2z M318,298.2h10v-8h-10V298.2z M318,286.2h10v-8h-10
			V286.2z M346,238.2h10v-8h-10V238.2z M346,250.2h10v-8h-10V250.2z M360,310.2h10v-8h-10V310.2z M346,226.2h10v-8h-10V226.2z
			 M360,334.2h10v-8h-10V334.2z M360,298.2h10v-8h-10V298.2z M354,334.2h2v-8h-2V334.2z M360,322.2h10v-8h-10V322.2z M346,262.2h10
			v-8h-10V262.2z M346,322.2h10v-8h-10V322.2z M346,298.2h10v-8h-10V298.2z M346,310.2h10v-8h-10V310.2z M346,286.2h10v-8h-10V286.2
			z M346,274.2h10v-8h-10V274.2z M314,230.2h-6v8h6V230.2z M314,254.2h-6v8h6V254.2z M314,242.2h-6v8h6V242.2z M314,218.2h-6v8h6
			V218.2z M314,210.3l-6,0v4h6V210.3z M354,186.2h-36v4h36V186.2z M344,178.2h-16v4h16V178.2z M364,194.2h-56v4h56V194.2z
			 M314,266.2h-6v8h6V266.2z M360,210.3v4h10v-4L360,210.3z M360,262.2h10v-8h-10V262.2z M360,250.2h10v-8h-10V250.2z M360,274.2h10
			v-8h-10V274.2z M360,286.2h10v-8h-10V286.2z M360,238.2h10v-8h-10V238.2z M308,202.2v4h62v-4H308z M360,226.2h10v-8h-10V226.2z
			 M314,278.2h-6v8h6V278.2z"/>
		<path style="fill:#666666;" d="M330,170.3v4h12v-4H330z M370,196.3v-10h-10v-8h-10v-6.7l-14-16.3l-14,16.3v6.7h-10v8h-4v4h8v-8h10
			V173l10-11.7l10,11.7v9.3h10v8h10v10h6v134h4v-138L370,196.3z M364,210.3h-54v76h-2v4h6v-76h46v76h10v-4h-6V210.3z"/>
		<path style="fill:#E66732;" d="M170,168.2l14-6l-14-6V168.2z M198,156.2v12l14-6L198,156.2z"/>
	</g>
	<path style="fill:#3F4041;" d="M635.9,244.4l8,102l4-0.3l-8-102L635.9,244.4z M625.9,374.2h8v-8h-8V374.2z M625.9,362.2h8v-8h-8
		V362.2z M613.9,266.2h8v-8h-8V266.2z M613.9,254.2h8v-8h-8V254.2z M613.9,290.2h8v-8h-8V290.2z M613.9,278.2h8v-8h-8V278.2z
		 M625.9,254.2h8v-8h-8V254.2z M613.9,302.2h8v-8h-8V302.2z M637.9,374.2h8v-8h-8V374.2z M625.9,290.2h8v-8h-8V290.2z M625.9,302.2
		h8v-8h-8V302.2z M625.9,266.2h8v-8h-8V266.2z M625.9,278.2h8v-8h-8V278.2z M625.9,338.2h8v-8h-8V338.2z M625.9,350.2h8v-8h-8V350.2
		z M637.9,362.2h8v-8h-8V362.2z M625.9,314.2h8v-8h-8V314.2z M625.9,326.2h8v-8h-8V326.2z M613.9,350.2h8v-8h-8V350.2z M601.9,338.2
		h8v-8h-8V338.2z M601.9,362.2h8v-8h-8V362.2z M601.9,350.2h8v-8h-8V350.2z M601.9,314.2h8v-8h-8V314.2z M601.9,326.2h8v-8h-8V326.2
		z M589.9,374.2h8v-8h-8V374.2z M601.9,374.2h8v-8h-8V374.2z M601.9,302.2h8v-8h-8V302.2z M589.9,362.2h8v-8h-8V362.2z M587.9,346.1
		l4,0.3l8-102l-4-0.3L587.9,346.1z M601.9,266.2h8v-8h-8V266.2z M613.9,338.2h8v-8h-8V338.2z M613.9,362.2h8v-8h-8V362.2z
		 M613.9,374.2h8v-8h-8V374.2z M613.9,326.2h8v-8h-8V326.2z M601.9,278.2h8v-8h-8V278.2z M613.9,314.2h8v-8h-8V314.2z M601.9,290.2
		h8v-8h-8V290.2z M601.9,254.2h8v-8h-8V254.2z M622.1,180.2h-8.2l-10.2,60h28.4L622.1,180.2z M617.3,184.2h1.4l8.7,52h-19
		L617.3,184.2z M258,122.3v66h4v-66H258z M288,174.3v-7.9l-20.9-37.1l-3.5,2l20.4,36.2v6.8H288z M168,352.3h6v-6h-6V352.3z
		 M98,352.3h6v-6h-6V352.3z M88,352.3h6v-6h-6V352.3z M88,342.3h6v-6h-6V342.3z M746,362.3h-4v8h4V362.3z M738,362.3h-4v8h4V362.3z
		 M754,362.3h-4v8h4V362.3z M108,342.3h6v-6h-6V342.3z M118,342.3h6v-6h-6V342.3z M108,352.3h6v-6h-6V352.3z M98,342.3h6v-6h-6
		V342.3z M118,352.3h6v-6h-6V352.3z M962,362.3h-4v8h4V362.3z M802,362.3h-4v8h4V362.3z M954,362.3h-4v8h4V362.3z M762,362.3h-4v8h4
		V362.3z M978,362.3h-4v8h4V362.3z M970,362.3h-4v8h4V362.3z M770,362.3h-4v8h4V362.3z M778,362.3h-4v8h4V362.3z M794,362.3h-4v8h4
		V362.3z M786,362.3h-4v8h4V362.3z M248.4,131.2l-3.5-2L224,166.4v7.9h4v-6.8L248.4,131.2z M178,342.3h6v-6h-6V342.3z M178,352.3h6
		v-6h-6V352.3z M168,342.3h6v-6h-6V342.3z M294,324.3h4v-142h-4V324.3z M158,342.3h6v-6h-6V342.3z M214,356.3h4v-174h-4V356.3z
		 M276,188.3h-12v12h-6v124h4v-120h6v-12h12v-12h12v-4h-16V188.3z M250,188.3h4v-66h-4V188.3z M248,188.3h-12v-12h-16v4h12v12h12v12
		h6v120h4v-124h-6V188.3z M158,352.3h6v-6h-6V352.3z M138,342.3h6v-6h-6V342.3z M138,352.3h6v-6h-6V352.3z M128,332.3h6v-6h-6V332.3
		z M128,342.3h6v-6h-6V342.3z M128,352.3h6v-6h-6V352.3z M148,332.3h6v-6h-6V332.3z M148,342.3h6v-6h-6V342.3z M148,352.3h6v-6h-6
		V352.3z M138,332.3h6v-6h-6V332.3z M118,332.3h6v-6h-6V332.3z M812,348.3h128v-4H812V348.3z M862,250.3c0,7.7,6.3,14,14,14
		s14-6.3,14-14c0-7.7-6.3-14-14-14S862,242.5,862,250.3z M886,250.3c0,5.5-4.5,10-10,10s-10-4.5-10-10s4.5-10,10-10
		S886,244.7,886,250.3z M856,274.3h40v-4h-40V274.3z M918,236.3h-14v4h14V236.3z M858,286.3v24h16v-24c0-4.4-3.6-8-8-8
		S858,281.8,858,286.3z M870,286.3v20h-8v-20c0-2.2,1.8-4,4-4S870,284,870,286.3z M898,236.3v76h4v-76H898z M878,286.3v24h16v-24
		c0-4.4-3.6-8-8-8S878,281.8,878,286.3z M890,286.3v20h-8v-20c0-2.2,1.8-4,4-4S890,284,890,286.3z M868,182.3h16v-4h-16V182.3z
		 M884,154.3h-16v4h16V154.3z M868,222.3h16v-28c0-4.4-3.6-8-8-8s-8,3.6-8,8V222.3z M872,194.3c0-2.2,1.8-4,4-4s4,1.8,4,4v24h-8
		V194.3z M874,244.3v8h6v-4h-2v-4H874z M894.7,190.5l-1.3-3.8c-3.2,1.1-5.3,4.2-5.3,7.5v28h6v-4h-2v-24
		C892,192.6,893.1,191.1,894.7,190.5z M920,312.3v30h4v-30H920z M928,312.3v30h4v-30H928z M918,256.3v-14h-4v14H918z M936,342.3h4
		v-30h-4V342.3z M984,394.3v-22h-4v0h-34v-60.8l-5.2-5.2H924v-74l-12-38.7l-10,32v-45.3l-7-39.4l-5,28v-14.6l-14-58.6l-13.9,58.1
		l-0.1,15.1l-5-28l-7,39l0,45.6l-10-32l-12,38.4v74.3h-16.8l-5.2,5.2v60.8h-76v-34l-15-46.5l-15,46.2v42.3h-4.6l3,12H728v2h-70.4
		l0,0l-4.6-34.3l11-121.5l-24.5-2l-16-92.1h-11.2l-16,92.1l-24.5,2l11,121.5l-4.6,34.3l0,0l0,0H376v-58h0h-22v-10h-42v-8h-6v-142h-8
		v-10.5l-26-46v-5.5h-6v-6h-20v6h-6v5.5l-26,46v10.5h-8v142h-6v34h-8v-24h-24v-10h-64v10H76v66H0v4h80h0v-66h28v-10h56v10h24v24h16
		v-34h6v-142h8v-13.5l26-46v-2.5h6v-6h12v6h6v2.5l26,46v13.5h8v142h6v8h42v10h22v58h209.7l0,0l0,0l5.1-38.2l-10.7-117.9l23.5-2
		l16-91.9h4.5l16,91.9l23.5,2L649,360l5.1,38.2l0,0l0,0H732v-10h-30.4l-1-4h3.4v-45.7l11-33.8l11,33.8v37.7h84v-63.2l2.8-2.8H832
		v-77.7l8-25.6l8.5,27.3h5.5v-53.8l3-16.8l3.3,18.6h5.7v-27.8l10-41.7l10,41.7v27.8h5.7l3.3-18.6l3,16.8v53.8h5.5L912,207l8,25.6
		v77.7h19.2l2.8,2.8v63.2h38v22h0v0h80v-4H984z M834,340.3h84v-4h-84V340.3z M856,230.3h40v-4h-40V230.3z M904,262.3h14v-4h-14
		V262.3z M904,256.3h4v-14h-4V256.3z M904,274.3h14v-4h-14V274.3z M834,326.3h84v-4h-84V326.3z M812,312.3v30h4v-30H812z M902,384.3
		c-2.6,0-4.8,1.7-5.7,4H882c0-3.3-2.7-6-6-6s-6,2.7-6,6h-14.3c-0.8-2.3-3-4-5.7-4c-3.3,0-6,2.7-6,6v8h4v-8c0-1.1,0.9-2,2-2
		s2,0.9,2,2v2h22v-4c0-1.1,0.9-2,2-2s2,0.9,2,2v4h22v-2c0-1.1,0.9-2,2-2s2,0.9,2,2v8h4v-8C908,386.9,905.3,384.3,902,384.3z
		 M906,363.8l-6-12l-6,12l-6-12l-6,12l-6-12l-6,12l-6-12l-6,12l-6-12l-6,12l-6-12l-5.8,11.6l3.6,1.8l2.2-4.4l6,12l6-12l6,12l6-12
		l6,12l6-12l6,12l6-12l6,12l6-12l6,12l6-12l2.2,4.4l3.6-1.8l-5.8-11.6L906,363.8z M928,398.3h4v-48h-4V398.3z M858,218.3v4h6v-28
		c0-3.4-2.1-6.4-5.3-7.5l-1.3,3.8c1.6,0.6,2.7,2.1,2.7,3.7v24H858z M920,398.3h4v-48h-4V398.3z M812,398.3h4v-48h-4V398.3z
		 M820,398.3h4v-48h-4V398.3z M708,353.3v21h14v-21c0-3.9-3.1-7-7-7S708,349.4,708,353.3z M718,353.3v17h-6v-17c0-1.7,1.3-3,3-3
		S718,351.6,718,353.3z M724,338.3h-18v4h18V338.3z M936,398.3h4v-48h-4V398.3z M828,398.3h4v-48h-4V398.3z M834,262.3h14v-4h-14
		V262.3z M834,274.3h14v-4h-14V274.3z M834,318.3h84v-4h-84V318.3z M706,384.3h23.4l-0.4,1.5l3.9,1l1.6-6.5H706V384.3z M834,256.3h4
		v-14h-4V256.3z M850,236.3v76h4v-76H850z M820,312.3v30h4v-30H820z M828,312.3v30h4v-30H828z M848,256.3v-14h-4v14H848z M848,236.3
		h-14v4h14V236.3z"/>
</g>
</svg>
