<?xml version="1.0" encoding="utf-8"?>
<!-- Generator: Adobe Illustrator 19.2.1, SVG Export Plug-In . SVG Version: 6.00 Build 0)  -->
<svg version="1.1" id="Layer_1" xmlns="http://www.w3.org/2000/svg" xmlns:xlink="http://www.w3.org/1999/xlink" x="0px" y="0px"
	 viewBox="0 0 1060 360" style="enable-background:new 0 0 1060 360;" xml:space="preserve">
<g>
	<g>
		<path style="opacity:0.5;fill:#A6D7EA;" d="M577,100h-9.2c-0.9-4.6-5-8-9.8-8s-8.9,3.4-9.8,8H539c-2.8,0-5,2.2-5,5
			c0,2.8,2.2,5,5,5h38c2.8,0,5-2.2,5-5C582,102.2,579.8,100,577,100z"/>
		<path style="opacity:0.5;fill:#A6D7EA;" d="M169,58c0-6.6-5.4-12-12-12c-2.6,0-5,0.8-7,2.2c-2.4-7.1-9.1-12.2-17-12.2
			c-7.1,0-13.2,4.1-16.1,10c-6.6,0.1-11.9,5.4-11.9,12H83c-3.3,0-6,2.7-6,6v0c0,3.3,2.7,6,6,6h90c3.3,0,6-2.7,6-6v0c0-3.3-2.7-6-6-6
			H169z"/>
		<path style="opacity:0.5;fill:#A6D7EA;" d="M819,80h27c0-3.3,2.7-6,6-6c0.7,0,1.4,0.1,2,0.4c0-0.1,0-0.2,0-0.4c0-5.5,4.5-10,10-10
			s10,4.5,10,10c0,0.1,0,0.3,0,0.4c0.6-0.2,1.3-0.4,2-0.4c3.3,0,6,2.7,6,6h17c2.8,0,5,2.2,5,5c0,2.8-2.2,5-5,5h-35h-45
			c-2.8,0-5-2.2-5-5C814,82.2,816.2,80,819,80z"/>
		<path style="opacity:0.5;fill:#A6D7EA;" d="M66.4,121.8H41.3c-1.1-5.6-6.1-9.8-12-9.8s-10.8,4.2-12,9.8H6.1
			c-3.4,0-6.1,2.7-6.1,6.1c0,3.4,2.7,6.1,6.1,6.1h60.3c3.4,0,6.1-2.7,6.1-6.1C72.5,124.5,69.8,121.8,66.4,121.8z"/>
		<path style="opacity:0.5;fill:#A6D7EA;" d="M745,124h-10.1c1-1.7,1.6-3.8,1.6-5.9c0-6.6-5.4-12-12-12c-6.3,0-11.4,4.8-11.9,10.9
			c-0.2,0-0.5,0-0.7,0c-3.9,0-7,3.1-7,7h-9.2c-2.8,0-5,2.2-5,5c0,2.8,2.2,5,5,5H745c2.8,0,5-2.2,5-5C750,126.2,747.7,124,745,124z"
			/>
		<path style="opacity:0.5;fill:#A6D7EA;" d="M1052.5,131h-20.8c-2.3-5.3-7.6-9-13.7-9c-1,0-2,0.1-3,0.3c0-0.1,0-0.2,0-0.3
			c0-8.3-6.7-15-15-15c-8.3,0-15,6.7-15,15c0,0.2,0,0.4,0.1,0.6c-1-0.3-2-0.6-3.1-0.6c-5,0-9,4-9,9h-10.5c-4.1,0-7.5,3.4-7.5,7.5
			c0,4.1,3.4,7.5,7.5,7.5h37.5h52.5c4.1,0,7.5-3.4,7.5-7.5C1060,134.4,1056.6,131,1052.5,131z"/>
		<path style="opacity:0.5;fill:#A6D7EA;" d="M400,75h8.2c0.9-4.6,5-8,9.8-8c1.5,0,3,0.4,4.3,1c1.4-8.5,8.8-15,17.7-15
			c7.1,0,13.2,4.1,16.1,10c6.6,0.1,11.9,5.4,11.9,12h22c3.3,0,6,2.7,6,6v0c0,3.3-2.7,6-6,6h-90c-3.3,0-6-2.7-6-6v0
			C394,77.7,396.7,75,400,75z"/>
		<g>
			<rect x="618" y="40" style="fill:#EEAE3F;" width="18" height="4"/>
			<rect x="658" style="fill:#EEAE3F;" width="4" height="18"/>
			<rect x="658" y="66" style="fill:#EEAE3F;" width="4" height="18"/>
			<rect x="684" y="40" style="fill:#EEAE3F;" width="18" height="4"/>
			
				<rect x="634.7" y="9.7" transform="matrix(0.7071 -0.7071 0.7071 0.7071 173.2766 455.6574)" style="fill:#EEAE3F;" width="4" height="18"/>
			
				<rect x="674.3" y="16.7" transform="matrix(0.7071 -0.7071 0.7071 0.7071 186.9456 488.6574)" style="fill:#EEAE3F;" width="18" height="4"/>
			
				<rect x="627.7" y="63.3" transform="matrix(0.7071 -0.7071 0.7071 0.7071 140.2766 469.3265)" style="fill:#EEAE3F;" width="18" height="4"/>
			
				<rect x="681.3" y="56.3" transform="matrix(0.7071 -0.7071 0.7071 0.7071 153.9456 502.3265)" style="fill:#EEAE3F;" width="4" height="18"/>
			<circle style="fill:#EEAE3F;" cx="660" cy="42" r="20"/>
		</g>
	</g>
	<g>
		<path style="fill:#FFDCB3;" d="M810,194v144h174V194H810z M684,266h116v-88H684V266z"/>
		<rect x="732" y="230" style="fill:#FFE5CC;" width="96" height="104"/>
		<path style="fill:#FFF1E6;" d="M684,360h94v-94h-94V360z M940,264v78h44v-78H940z"/>
		<path style="fill:#FFFFFF;" d="M721,192h6v-8h-6V192z M746,206L746,206l-7,0v9h7V206z M721,214h6v-8h-6V214z M721,234h6v-8h-6V234
			z M696,282h6v-8h-6V282z M760,322h6v-8h-6V322z M760,302h6v-8h-6V302z M742,302h6v-8h-6V302z M742,282h6v-8h-6V282z M702,184h-6v8
			h6V184z M696,302h2v-8h-2V302z M745,184h-6v8h6V184z M952,222h-6v8h6V222z M970,202h-6v8h6V202z M952,202h-6v8h6V202z M760,282h6
			v-8h-6V282z M696,322h2v-8h-2V322z M696,340h2v-6h-2V340z M702,226h-6v8h6V226z M702,206h-6v8h6V206z M742,322h6v-8h-6V322z
			 M948,300h6v-8h-6V300z M948,322h6v-10h-6V322z M948,280h6v-8h-6V280z M926,210h8v-8h-8V210z M926,230h8v-8h-8V230z M966,322h6
			v-10h-6V322z M970,222h-6v8h6V222z M966,272v8h6v-8H966z M966,300h6v-8h-6V300z M790,290h6v-10h-6V290z M760,248h8v-10h-8V248z
			 M764,192h6v-8h-6V192z M790,268h6v-10h-6V268z M782,192h6v-8h-6V192z M790,312h6v-10h-6V312z M790,246h6v-8h-6V246z M808,246h6
			v-8h-6V246z M808,266h6v-8h-6V266z M952,242h-6v4h6V242z"/>
		<path style="fill:#E66732;" d="M829.2,168L810,187.2v6.8h174l0-6.8L964.8,168L829.2,168z M800,171.2L780.8,152h-77.7L684,171.2
			v6.8h116V171.2z M732,223.2v6.8h96v-26l-76.8,0L732,223.2z M703.2,240L684,259.2v6.8h94l0-6.8L758.8,240L703.2,240z M964.8,238
			H926v26h58v-6.8L964.8,238z"/>
		<path style="fill:#C94E2D;" d="M732,223.2v6.8h94v-4h-90v-1.2l16.8-16.8H826v-4h-74.8L732,223.2z M800,178v-6.8L780.8,152l-77.7,0
			L684,171.2v6.8L800,178z M688,174v-1.2l16.8-16.8l74.3,0l16.8,16.8v1.2L688,174z M703.2,240L684,259.2v6.8v0h24v-4l-20,0v-1.2
			l16.8-16.8H724v0h33.2l16.8,16.8v1.2h-52v4h56v-6.8L758.8,240L703.2,240z M810,187.2v6.8h16v-4h-12v-1.2l16.8-16.8h1.2v-4h-2.8
			L810,187.2z M964.8,168l-44.8,0v4l43.2,0l16.8,16.8v1.2l-54,0v4h58v0h0v-6.8L964.8,168z M926,238v4h37.2l16.8,16.8v1.2h-54v4h58
			v-6.8L964.8,238H926z"/>
		<path style="fill:#DFE0E0;" d="M940,270h-18v-76l-10-32l-10,32h-2v-52l-5-28l-5,28h-2v-26l-12-50l-12,50v26h-2l-5-28l-5,28v52h-2
			l-10-32l-10,32v76h-18l-4,4v86h136v-86L940,270z M730,300l-15-46.5l-15,46.2V344h-2l2,8l31.8,0.9l2.7-10.9l-4.6,2V300z"/>
		<circle style="fill:#FFFFFF;" cx="876" cy="212" r="12"/>
		<path style="fill:#A6D7EA;" d="M882,153c0-1.7-1.3-3-3-3h-6c-1.7,0-3,1.3-3,3v29h12V153z M864,156c0-3.3-2.7-6-6-6v34h6V156z
			 M888,156v28h6v-34C890.7,150,888,152.7,888,156z M869,242h-6c-1.7,0-3,1.3-3,3v25h12v-25C872,243.3,870.7,242,869,242z M889,242
			h-6c-1.7,0-3,1.3-3,3v25h12v-25C892,243.3,890.7,242,889,242z M717.5,310h-5c-1.4,0-2.5,1.1-2.5,2.5V334h10v-21.5
			C720,311.1,718.9,310,717.5,310z"/>
		<polygon style="opacity:0.5;fill:#FFFFFF;" points="912,162 902,194 900,194 900,142 895,114 890,142 888,142 888,116 876,66 
			864,116 864,142 862,142 857,114 852,142 852,194 850,194 840,162 830,194 830,270 812,270 810,272 810,358 922,246 922,194 		"/>
		<path style="fill:#ADAEAF;" d="M730,360h80v-22h-80v4h4.6L730,360z M830,196h20l-10-34L830,196z M852,144h10l-5-30L852,144z
			 M702,304h26l-13-40L702,304z M890,144h10l-5-30L890,144z M864,116v4h24v-4l-12-50L864,116z M942,334v26h42v-26H942z M902,196h20
			l-10-34L902,196z"/>
		<g>
			<g>
				<path style="fill:#CCAB87;" d="M738,322h4v-8h6v8h4v-12h-14V322z M717,196h14v-16h-14V196z M721,184h6v8h-6V184z M717,238h14
					v-16h-14V238z M721,226h6v8h-6V226z M732,238h4v-6h-4V238z M692,340h4v-6h2v-4h-6V340z M774,180h-14v16h14V180z M770,192h-6v-8
					h6V192z M749,180h-14v16h14V180z M745,192h-6v-8h6V192z M739,206h7v-4h-11v13h4V206z M814,196h-4v6h4V196z M974,198h-14v16h14
					V198z M970,210h-6v-8h6V210z M956,198h-14v16h14V198z M952,210h-6v-8h6V210z M692,238h14v-16h-14V238z M696,226h6v8h-6V226z
					 M692,218h14v-16h-14V218z M696,206h6v8h-6V206z M692,326h6v-4h-2v-8h2v-4h-6V326z M692,196h14v-16h-14V196z M696,184h6v8h-6
					V184z M692,306h6v-4h-2v-8h2v-4h-6V306z M692,286h10v-4h-6v-8h6v-4h-10V286z M717,218h14v-16h-14V218z M721,206h6v8h-6V206z
					 M948,272h6v8h-6v4h10v-16h-10V272z M956,218h-14v16h14V218z M952,230h-6v-8h6V230z M948,292h6v8h-6v4h10v-16h-10V292z M948,312
					h6v10h4v-14h-10V312z M804,250h14v-16h-14V250z M808,238h6v8h-6V238z M804,266h4v-8h6v8h4v-12h-14V266z M926,222h8v8h-8v4h12
					v-16h-12V222z M926,202h8v8h-8v4h12v-16h-12V202z M962,284h14v-16h-14V284z M966,272h6v8h-6V272z M974,218h-14v16h14V218z
					 M970,230h-6v-8h6V230z M980,196v54h4v-54H980z M980,332h4v-66h-4V332z M962,304h14v-16h-14V304z M966,292h6v8h-6V292z M962,322
					h4v-10h6v10h4v-14h-14V322z M756,322h4v-8h6v8h4v-12h-14V322z M756,306h14v-16h-14V306z M760,294h6v8h-6V294z M796,202h4v-22h-4
					V202z M760,238h8v10h4v-14h-12V238z M756,286h14v-16h-14V286z M760,274h6v8h-6V274z M738,286h14v-16h-14V286z M742,274h6v8h-6
					V274z M738,306h14v-16h-14V306z M742,294h6v8h-6V294z M740,238h14v-4h-14V238z M774,322h4v-54h-4V322z M786,250h14v-16h-14V250z
					 M790,238h6v8h-6V238z M792,180h-14v16h14V180z M788,192h-6v-8h6V192z M786,316h14v-18h-14V316z M790,302h6v10h-6V302z M786,272
					h14v-18h-14V272z M790,258h6v10h-6V258z M786,294h14v-18h-14V294z M790,280h6v10h-6V280z M684,354h4v-86h-4V354z M684,252h4v-72
					h-4V252z"/>
			</g>
		</g>
	</g>
	<g>
		<rect x="380" y="174" style="fill:#A6D7EA;" width="300" height="182"/>
		<g>
			<rect x="380" y="178" style="opacity:0.9;fill:#FFFFFF;" width="300" height="4"/>
			<rect x="380" y="186" style="opacity:0.8;fill:#FFFFFF;" width="300" height="4"/>
			<rect x="380" y="194" style="opacity:0.7;fill:#FFFFFF;" width="300" height="4"/>
			<rect x="380" y="242" style="opacity:0.1;fill:#FFFFFF;" width="300" height="4"/>
			<rect x="380" y="234" style="opacity:0.2;fill:#FFFFFF;" width="300" height="4"/>
			<rect x="380" y="226" style="opacity:0.3;fill:#FFFFFF;" width="300" height="4"/>
			<rect x="380" y="218" style="opacity:0.4;fill:#FFFFFF;" width="300" height="4"/>
			<rect x="380" y="210" style="opacity:0.5;fill:#FFFFFF;" width="300" height="4"/>
			<rect x="380" y="202" style="opacity:0.6;fill:#FFFFFF;" width="300" height="4"/>
		</g>
		<path style="opacity:0.3;fill:#FFFFFF;" d="M380,360l186-186H380C380,174,380,359.2,380,360z"/>
		<polyline style="fill:#DFE0E0;" points="468,118 476,118 476,84 514,84 514,118 522,118 522,212 468,212 468,118 		"/>
		<path style="fill:#ADAEAF;" d="M497.5,122h-5c-1.4,0-2.5,1.1-2.5,2.5V158h10v-33.5C500,123.1,498.9,122,497.5,122z M474,120v38h8
			v-30C482,123.6,478.4,120,474,120z M508,128v30h8v-38C511.6,120,508,123.6,508,128z M499,93.7c0-2.2-1.8-4-4-4c-2.2,0-4,1.8-4,4
			v14.5h7.9V93.7z M482,93.7c0-2.2-1.8-4-4-4v18.5h4V93.7z M512,89.8c-2.2,0-4,1.8-4,4v14.5h4V89.8z"/>
		<polygon style="fill:#F2CD9C;" points="534,222 534,234 502,234 502,242 496,242 496,224 460,224 460,236 450,236 450,224 
			380,224 380,292 434,292 434,276 506,276 506,262 584,262 584,222 		"/>
		<path style="fill:#FFDCB3;" d="M564,256v-14h-38v20h-22v12h-16v-10h-20v-12h-48v12h-40v52.2c0,0,102,0.1,102,0.1v-28h42v-12h36v26
			h26V256H564z"/>
		<polygon style="fill:#FFE5CC;" points="562,300 562,276 524,276 524,286 484,286 484,296 380,296 380,360 562,360 590,352.5 
			590,300 		"/>
		<polygon style="fill:#FFF1E6;" points="564,314 564,334 530,334 530,314 512,314 512,324 380,324 380,360 588,360 588,314 		"/>
		<polygon style="fill:#ADAEAF;" points="650,330 662,202 638,200 598,200 574,202 585.8,330 		"/>
		<polygon style="fill:#DFE0E0;" points="655.1,360 649,321.8 640,205.8 623.5,106 612.3,106 596,205.8 586.9,321.8 580.7,360 		"/>
		<polygon style="fill:#FFFFFF;" points="627.4,198 618.7,146 617.3,146 608.5,198 		"/>
		<path style="fill:#F2CD9C;" d="M416,174h40v0c0-5.5-4.5-10-10-10h-30V174z"/>
		<path style="fill:#64A62E;" d="M428,158h-48v16h64C444,165.2,436.8,158,428,158z M536,216C536,216,536,216,536,216
			c-0.6-8.9-7.9-16-17-16c-7.2,0-13.3,4.4-15.8,10.7c-1.2,0.4-2.3,1.1-3.3,1.9c-0.9-0.3-1.9-0.5-3-0.5c-1.7,0-3.3,0.5-4.6,1.3
			c-1.8-3-5-5.1-8.8-5.3c-1.3-5.7-6.5-10-12.6-10c-7.2,0-13,5.8-13,13c0,0.3,0,0.7,0.1,1c0,0,0,0-0.1,0c-3,0-5.6,1.7-7,4.2
			c-1.4-2.5-4-4.2-7-4.2c-2.9,0-5.4,1.5-6.8,3.8c-1.7-4.5-6.1-7.8-11.2-7.8c-6.6,0-12,5.4-12,12c0-3.3-2.7-6-6-6
			c-2.6,0-4.8,1.6-5.6,3.9c-1.1-1.2-2.6-1.9-4.4-1.9c-0.9,0-1.8,0.2-2.5,0.6c-1.4-3.8-5.1-6.4-9.3-6.4c-2.3,0-4.4,0.8-6.1,2.1V228
			h70v10h10v-10h38v16h10v-8h28v-12h10C546,219.6,540.4,216,536,216z"/>
		<path style="fill:#666666;" d="M498,204h4v-42h-4V204z M478,196h4v-34h-4V196z M488,204h4v-42h-4V204z M508,198h4v-36h-4V198z
			 M478,88v4c1.1,0,2,0.9,2,2v12h-2v4h6V94C484,90.7,481.3,88,478,88z M495,120c-3.9,0-7,3.1-7,7v31h14v-31
			C502,123.1,498.9,120,495,120z M498,154h-6v-27c0-1.7,1.3-3,3-3s3,1.3,3,3V154z M474,120v4c2.2,0,4,1.8,4,4v26h-4v4h8v-30
			C482,123.6,478.4,120,474,120z M508,128v30h8v-4h-4v-26c0-2.2,1.8-4,4-4v-4C511.6,120,508,123.6,508,128z M512,92v-4
			c-3.3,0-6,2.7-6,6v16h6v-4h-2V94C510,92.9,510.9,92,512,92z M495,88c-3.9,0-7,3.1-7,7v15h14V95C502,91.1,498.9,88,495,88z
			 M498,106h-6V95c0-1.7,1.3-3,3-3s3,1.3,3,3V106z M518,114V80h-46v34h-4v80h4v-76h4V84h38v34h4v78h4v-82H518z"/>
		<path style="fill:#0F6F67;" d="M472,210v4c3.3,0,6,2.7,6,6h4C482,214.5,477.5,210,472,210z M458,222h4c0-1.1,0.9-2,2-2v-4
			C460.7,216,458,218.7,458,222z M508,226h4c0-3.3,2.7-6,6-6v-4C512.5,216,508,220.5,508,226z M538,216.2
			c-0.4-10.1-8.8-18.2-19-18.2c-7.5,0-14.2,4.3-17.3,11.1c-0.8,0.3-1.5,0.7-2.1,1.2c-2.2-0.6-4.5-0.4-6.5,0.4c-2-2.4-4.8-4-7.8-4.6
			c-2-6.1-7.7-10.2-14.2-10.2c-8,0-14.6,6.3-15,14.2c-1.9,0.4-3.6,1.3-5,2.7c-1.8-1.8-4.3-2.9-7-2.9c-2.4,0-4.6,0.8-6.3,2.3
			c-2.6-3.8-6.9-6.3-11.7-6.3c-5.6,0-10.4,3.3-12.7,8c0,0,0,0,0,0c-1.4-1.3-3.3-2-5.3-2c-2.5,0-4.7,1.2-6.2,2.9c0,0-0.1,0.1-0.1,0.1
			c-1.1-0.7-2.4-1-3.7-1c-0.3,0-0.5,0-0.8,0.1c-0.2,0-0.5,0.1-0.7,0.1c-2.1-3.6-6-6-10.4-6c-2.2,0-4.3,0.6-6.1,1.7v5.2
			c1.5-1.7,3.7-2.9,6.1-2.9c4.4,0,8,3.6,8,8c0.2-0.8,0.8-1.6,1.4-2.1c0,0,0,0,0,0c0.1-0.1,0.3-0.2,0.4-0.3c0,0,0.1,0,0.1,0
			c0.3-0.2,0.6-0.3,0.9-0.4c0.3-0.1,0.7-0.1,1-0.1c0.9,0,1.7,0.3,2.4,0.8c0.1,0.1,0.1,0.1,0.2,0.2c0.1,0.1,0.2,0.2,0.4,0.3
			c0.4,0.4,0.7,0.9,0.9,1.5h0h2.2c0-0.2,0-0.5,0.1-0.7c0-0.1,0-0.2,0.1-0.3c0-0.1,0.1-0.2,0.1-0.3c0.1-0.3,0.2-0.5,0.3-0.7v0
			c0.7-1.2,2-2.1,3.5-2.1c2.2,0,4,1.8,4,4c0,0,0,0,0,0l4,0c0,0,0,0,0,0c0-5.5,4.5-10,10-10c4.1,0,7.9,2.6,9.4,6.5l1.4,3.8l2.1-3.4
			c1.1-1.8,3-2.8,5.1-2.8c2.2,0,4.2,1.2,5.2,3.2l1.8,3.2l1.8-3.2c1-1.9,3-3.1,5.1-3.2l2.3,0l-0.2-2.2c0-0.3,0-0.6,0-0.9
			c0-6.1,4.9-11,11-11c5.1,0,9.5,3.5,10.7,8.5l0.3,1.5l1.5,0.1c2.9,0.2,5.6,1.8,7.2,4.3l1,1.7l1.7-1c1.8-1.1,3.7-1.4,5.9-0.6
			l1.1,0.4l0.9-0.7c0.8-0.7,1.7-1.2,2.7-1.5l0.8-0.3l0.3-0.8c2.3-5.7,7.8-9.4,13.9-9.4c8.3,0,15,6.7,15,15c0,0.2,0,0.4,0,0.6
			l-0.1,2.4h2.1l0.2,0c1,0,2,0.3,2.9,0.8l2-3.5C540.1,216.8,539,216.4,538,216.2z"/>
		<path style="fill:#CCAB87;" d="M504,252v6h6v-6H504z M520,242h-6v6h6V242z M514,258h6v-6h-6V258z M544,230v6h6v-6H544z M384,228
			h64v12h14v-12h34v18h14v-8h30v-12h32v-4h-36v12h-30v8h-6v-18h-42v12h-6v-12l-72,0v38h4V228z M570,230h-6v6h6V230z M554,230v6h6v-6
			H554z M384,300h100v-10h40v-10h34v24h20v-4h-16v-24h-42v10h-40v10h-96l0,0l-4,0v26h4V300z M482,232h-6v6h6V232z M486,258h6v-6h-6
			V258z M472,232h-6v6h6V232z M476,248h6v-6h-6V248z M518,310h6v-6h-6V310z M486,248h6v-6h-6V248z M544,294h-6v6h6V294z M534,294h-6
			v6h6V294z M544,284h-6v6h6V284z M466,248h6v-6h-6V248z M544,304h-6v6h6V304z M524,294h-6v6h6V294z M534,284h-6v6h6V284z M528,310
			h6v-6h-6V310z M554,314h-6v6h6V314z M538,330h6v-6h-6V330z M548,330h6v-6h-6V330z M554,294h-6v6h6V294z M554,304h-6v6h6V304z
			 M544,314h-6v6h6V314z M554,284h-6v6h6V284z M476,258h6v-6h-6V258z M468,286h6v-6h-6V286z M474,270h-6v6h6V270z M464,270h-6v6h6
			V270z M458,286h6v-6h-6V286z M448,286h6v-6h-6V286z M532,266h6v-6h-6V266z M464,260h-6v6h6V260z M454,270h-6v6h6V270z M552,266h6
			v-6h-6V266z M558,250h-6v6h6V250z M538,250h-6v6h6V250z M574,260v-4h-8v-14h-42v20h-20v12h-16v-10h-16v-12h-0.8v0H420v0v12h-40v30
			h4v-26h40v-12h44v12h16v10h24v-12h20v-20h34v14H574z M542,266h6v-6h-6V266z M548,250h-6v6h6V250z M444,232h-6v6h6V232z M418,248h6
			v-6h-6V248z M418,286h6v-6h-6V286z M424,270h-6v6h6V270z M424,232h-6v6h6V232z M438,248h6v-6h-6V248z M428,248h6v-6h-6V248z
			 M434,232h-6v6h6V232z M454,260h-6v6h6V260z M438,286h6v-6h-6V286z M444,270h-6v6h6V270z M444,260h-6v6h6V260z M428,286h6v-6h-6
			V286z M434,260h-6v6h6V260z M434,270h-6v6h6V270z M492,232h-6v6h6V232z M448,338h6v-6h-6V338z M448,348h6v-6h-6V348z M458,348h6
			v-6h-6V348z M438,338h6v-6h-6V338z M468,338h6v-6h-6V338z M458,338h6v-6h-6V338z M468,348h6v-6h-6V348z M418,338h6v-6h-6V338z
			 M418,348h6v-6h-6V348z M438,348h6v-6h-6V348z M408,338h6v-6h-6V338z M478,348h6v-6h-6V348z M428,338h6v-6h-6V338z M428,348h6v-6
			h-6V348z M518,348h6v-6h-6V348z M570,338h6v-6h-6V338z M408,348h6v-6h-6V348z M518,338h6v-6h-6V338z M518,328h6v-6h-6V328z
			 M478,338h6v-6h-6V338z M570,328h6v-6h-6V328z M562,314v20h-30v-20h-22v10H380v30h4v-26h130v-10h14v20h38v-20h14v-4H562z M488,338
			h6v-6h-6V338z M488,348h6v-6h-6V348z M498,348h6v-6h-6V348z M498,338h6v-6h-6V338z M514,294h-6v6h6V294z M508,338h6v-6h-6V338z
			 M508,348h6v-6h-6V348z M448,320h6v-6h-6V320z M444,304h-6v6h6V304z M408,320h6v-6h-6V320z M458,320h6v-6h-6V320z M438,320h6v-6
			h-6V320z M454,304h-6v6h6V304z M414,304h-6v6h6V304z M434,304h-6v6h6V304z M418,320h6v-6h-6V320z M424,304h-6v6h6V304z M428,320h6
			v-6h-6V320z M464,304h-6v6h6V304z M504,294h-6v6h6V294z M498,320h6v-6h-6V320z M494,304h-6v6h6V304z M504,304h-6v6h6V304z
			 M508,310h6v-6h-6V310z M488,320h6v-6h-6V320z M468,320h6v-6h-6V320z M478,320h6v-6h-6V320z M474,304h-6v6h6V304z M494,294h-6v6h6
			V294z M484,304h-6v6h6V304z M388,338h6v-6h-6V338z M398,320h6v-6h-6V320z M404,304h-6v6h6V304z M414,232h-6v6h6V232z M408,258h6
			v-6h-6V258z M394,304h-6v6h6V304z M398,348h6v-6h-6V348z M398,338h6v-6h-6V338z M408,248h6v-6h-6V248z M388,320h6v-6h-6V320z
			 M388,348h6v-6h-6V348z M404,270h-6v6h6V270z M398,258h6v-6h-6V258z M388,286h6v-6h-6V286z M394,270h-6v6h6V270z M408,286h6v-6h-6
			V286z M414,270h-6v6h6V270z M398,286h6v-6h-6V286z M398,248h6v-6h-6V248z M404,232h-6v6h6V232z M388,258h6v-6h-6V258z M394,232h-6
			v6h6V232z M388,248h6v-6h-6V248z"/>
	</g>
	<g>
		<polygon style="fill:#FFE5CC;" points="216,146 152,146 152,166 140,166 140,186 116,186 116,318 216,318 		"/>
		<path style="fill:#F2CD9C;" d="M124,244h12v-14h-12V244z M124,226h12v-14h-12V226z M124,208h12v-14h-12V208z M124,262h12v-14h-12
			V262z M124,278h12v-12h-12V278z M148,244h12v-14h-12V244z M148,278h12v-12h-12V278z M148,194v14h12v-14H148z M148,226h12v-14h-12
			V226z M148,262h12v-14h-12V262z"/>
		<path style="fill:#CCAB87;" d="M196,318h8v-4h-8V318z M172,214h8v-8h-8V214z M172,202h8v-8h-8V202z M172,294h8v-4h-8V294z
			 M164,278h4v-86h-4V278z M148,208h12v-14h-12V208z M152,198h4v6h-4V198z M172,226h8v-8h-8V226z M172,250h8v-8h-8V250z M172,262h8
			v-8h-8V262z M172,274h8v-8h-8V274z M172,286h8v-8h-8V286z M172,238h8v-8h-8V238z M148,262h12v-14h-12V262z M152,252h4v6h-4V252z
			 M124,262h12v-14h-12V262z M128,252h4v6h-4V252z M124,244h12v-14h-12V244z M128,234h4v6h-4V234z M148,226h12v-14h-12V226z
			 M152,216h4v6h-4V216z M196,118h-4v26h4V118z M168,118h-4v26h4V118z M124,226h12v-14h-12V226z M128,216h4v6h-4V216z M124,278h4v-8
			h4v8h4v-12h-12V278z M148,244h12v-14h-12V244z M152,234h4v6h-4V234z M184,294h8v-4h-8V294z M140,278h4v-86h-4V278z M148,278h4v-8
			h4v8h4v-12h-12V278z M124,208h12v-14h-12V208z M128,198h4v6h-4V198z M196,154v8h8v-8H196z M196,174v8h8v-8H196z M160,174v8h8v-8
			H160z M148,174v8h8v-8H148z M184,174v8h8v-8H184z M172,174v8h8v-8H172z M184,286h8v-8h-8V286z M208,278h4v-86h-4V278z M146,190h66
			v-4h-66V190z M196,202h8v-8h-8V202z M208,162h4v-8h-4V162z M152,146v20h-12v20h-24v92h4v-88h24v-20h12v-20h56v-4H152z M184,154v8
			h8v-8H184z M160,154v8h8v-8H160z M172,154v8h8v-8H172z M158,170h54v-4h-54V170z M208,182h4v-8h-4V182z M196,214h8v-8h-8V214z
			 M184,238h8v-8h-8V238z M184,226h8v-8h-8V226z M184,214h8v-8h-8V214z M184,274h8v-8h-8V274z M184,250h8v-8h-8V250z M184,202h8v-8
			h-8V202z M184,262h8v-8h-8V262z M196,286h8v-8h-8V286z M196,250h8v-8h-8V250z M196,238h8v-8h-8V238z M196,262h8v-8h-8V262z
			 M196,274h8v-8h-8V274z M196,298h8v-8h-8V298z M196,310h8v-8h-8V310z M196,226h8v-8h-8V226z"/>
		<polygon style="fill:#FFFFFF;" points="304,318 304,140 296,140 296,126 270,80 270,78 264,78 264,72 248,72 248,78 242,78 
			242,80 216,126 216,140 208,140 208,284 204,284 204,318 		"/>
		<path style="fill:#DFE0E0;" d="M98,182H76v112l40,0v-92l-18,0V182z M368,158v-10h-10v-6h-10v-8l-12-14l-12,14v8h-10v6h-10v136h-2
			V142h-8v146h-32V162h2v-10h14v-12h10v-11.4L260,84h-8l-28,44.6V140h10v12h14v10h2v126h-18v22h-6v8h150V158H368z M210,284h-6v34h14
			V142h-8V284z"/>
		<rect x="76" y="318" style="fill:#A6D7EA;" width="300" height="42"/>
		<polygon style="opacity:0.3;fill:#FFFFFF;" points="242.3,360 284.3,318 76,318 76,360 		"/>
		<g>
			<rect x="76" y="326" style="opacity:0.8;fill:#FFFFFF;" width="300" height="4"/>
			<rect x="76" y="334" style="opacity:0.6;fill:#FFFFFF;" width="300" height="4"/>
			<rect x="76" y="342" style="opacity:0.4;fill:#FFFFFF;" width="300" height="4"/>
			<rect x="76" y="350" style="opacity:0.2;fill:#FFFFFF;" width="300" height="4"/>
			<rect x="76" y="318" style="fill:#FFFFFF;" width="300" height="4"/>
		</g>
		<path style="fill:#A6D7EA;" d="M276,226h4v-4h-4V226z M270,208h4v-4h-4V208z M270,226h4v-4h-4V226z M270,220h4v-4h-4V220z
			 M270,202h4v-4h-4V202z M270,190h4v-4h-4V190z M270,196h4v-4h-4V196z M270,184h4v-4h-4V184z M270,256h4v-4h-4V256z M270,232h4v-4
			h-4V232z M270,262h4v-4h-4V262z M270,268h4v-4h-4V268z M270,178h4v-4h-4V178z M270,238h4v-4h-4V238z M270,250h4v-4h-4V250z
			 M270,244h4v-4h-4V244z M276,244h4v-4h-4V244z M276,256h4v-4h-4V256z M276,268h4v-4h-4V268z M276,250h4v-4h-4V250z M276,238h4v-4
			h-4V238z M270,274h4v-4h-4V274z M276,232h4v-4h-4V232z M276,274h4v-4h-4V274z M270,172h4v-4h-4V172z M276,280h4v-4h-4V280z
			 M276,286h4v-4h-4V286z M270,214h4v-4h-4V214z M264,250h4v-4h-4V250z M264,262h4v-4h-4V262z M264,226h4v-4h-4V226z M264,268h4v-4
			h-4V268z M264,238h4v-4h-4V238z M264,232h4v-4h-4V232z M264,274h4v-4h-4V274z M264,244h4v-4h-4V244z M264,256h4v-4h-4V256z
			 M264,286h4v-4h-4V286z M264,280h4v-4h-4V280z M264,184h4v-4h-4V184z M264,220h4v-4h-4V220z M270,286h4v-4h-4V286z M264,172h4v-4
			h-4V172z M264,208h4v-4h-4V208z M264,202h4v-4h-4V202z M264,214h4v-4h-4V214z M270,280h4v-4h-4V280z M264,178h4v-4h-4V178z
			 M264,190h4v-4h-4V190z M264,196h4v-4h-4V196z M276,262h4v-4h-4V262z M288,274h4v-4h-4V274z M288,268h4v-4h-4V268z M288,280h4v-4
			h-4V280z M288,286h4v-4h-4V286z M288,250h4v-4h-4V250z M288,262h4v-4h-4V262z M288,256h4v-4h-4V256z M282,160h4v-4h-4V160z
			 M282,166h4v-4h-4V166z M288,244h4v-4h-4V244z M282,172h4v-4h-4V172z M288,166h4v-4h-4V166z M288,178h4v-4h-4V178z M288,172h4v-4
			h-4V172z M288,184h4v-4h-4V184z M288,190h4v-4h-4V190z M276,220h4v-4h-4V220z M288,238h4v-4h-4V238z M288,160h4v-4h-4V160z
			 M282,178h4v-4h-4V178z M288,226h4v-4h-4V226z M288,232h4v-4h-4V232z M288,220h4v-4h-4V220z M288,208h4v-4h-4V208z M288,202h4v-4
			h-4V202z M288,196h4v-4h-4V196z M288,214h4v-4h-4V214z M282,144v10h10v-10H282z M270,166h10v-10h-10V166z M282,280h4v-4h-4V280z
			 M276,172h4v-4h-4V172z M282,286h4v-4h-4V286z M276,214h4v-4h-4V214z M282,184h4v-4h-4V184z M276,178h4v-4h-4V178z M276,208h4v-4
			h-4V208z M276,184h4v-4h-4V184z M276,190h4v-4h-4V190z M276,202h4v-4h-4V202z M276,196h4v-4h-4V196z M282,208h4v-4h-4V208z
			 M282,214h4v-4h-4V214z M282,220h4v-4h-4V220z M282,196h4v-4h-4V196z M282,274h4v-4h-4V274z M282,202h4v-4h-4V202z M282,226h4v-4
			h-4V226z M282,190h4v-4h-4V190z M282,262h4v-4h-4V262z M282,256h4v-4h-4V256z M282,268h4v-4h-4V268z M282,250h4v-4h-4V250z
			 M282,238h4v-4h-4V238z M282,232h4v-4h-4V232z M282,244h4v-4h-4V244z M226,220h4v-4h-4V220z M226,208h4v-4h-4V208z M226,196h4v-4
			h-4V196z M226,202h4v-4h-4V202z M226,190h4v-4h-4V190z M226,232h4v-4h-4V232z M226,274h4v-4h-4V274z M226,238h4v-4h-4V238z
			 M226,262h4v-4h-4V262z M226,280h4v-4h-4V280z M226,268h4v-4h-4V268z M226,244h4v-4h-4V244z M226,250h4v-4h-4V250z M226,256h4v-4
			h-4V256z M226,226h4v-4h-4V226z M232,280h4v-4h-4V280z M226,184h4v-4h-4V184z M232,274h4v-4h-4V274z M226,286h4v-4h-4V286z
			 M232,268h4v-4h-4V268z M232,262h4v-4h-4V262z M232,286h4v-4h-4V286z M226,172h4v-4h-4V172z M226,178h4v-4h-4V178z M226,160h4v-4
			h-4V160z M220,154h10v-10h-10V154z M226,214h4v-4h-4V214z M220,280h4v-4h-4V280z M220,256h4v-4h-4V256z M220,262h4v-4h-4V262z
			 M220,232h4v-4h-4V232z M220,268h4v-4h-4V268z M220,238h4v-4h-4V238z M220,244h4v-4h-4V244z M220,250h4v-4h-4V250z M220,274h4v-4
			h-4V274z M220,310h4v-4h-4V310z M220,316h4v-4h-4V316z M232,256h4v-4h-4V256z M220,286h4v-4h-4V286z M220,292h4v-4h-4V292z
			 M220,304h4v-4h-4V304z M220,298h4v-4h-4V298z M220,166h4v-4h-4V166z M220,160h4v-4h-4V160z M220,226h4v-4h-4V226z M220,172h4v-4
			h-4V172z M220,178h4v-4h-4V178z M226,298h4v-4h-4V298z M226,304h4v-4h-4V304z M226,292h4v-4h-4V292z M220,184h4v-4h-4V184z
			 M220,220h4v-4h-4V220z M220,208h4v-4h-4V208z M220,214h4v-4h-4V214z M220,202h4v-4h-4V202z M220,190h4v-4h-4V190z M220,196h4v-4
			h-4V196z M226,166h4v-4h-4V166z M244,286h4v-4h-4V286z M244,280h4v-4h-4V280z M244,268h4v-4h-4V268z M244,274h4v-4h-4V274z
			 M244,262h4v-4h-4V262z M238,190h4v-4h-4V190z M238,196h4v-4h-4V196z M238,184h4v-4h-4V184z M238,178h4v-4h-4V178z M232,166h10
			v-10h-10V166z M238,172h4v-4h-4V172z M244,214h4v-4h-4V214z M244,256h4v-4h-4V256z M244,196h4v-4h-4V196z M232,250h4v-4h-4V250z
			 M244,190h4v-4h-4V190z M244,172h4v-4h-4V172z M244,184h4v-4h-4V184z M244,178h4v-4h-4V178z M244,208h4v-4h-4V208z M244,238h4v-4
			h-4V238z M244,244h4v-4h-4V244z M238,202h4v-4h-4V202z M244,250h4v-4h-4V250z M244,220h4v-4h-4V220z M244,226h4v-4h-4V226z
			 M244,232h4v-4h-4V232z M244,202h4v-4h-4V202z M232,190h4v-4h-4V190z M232,184h4v-4h-4V184z M232,196h4v-4h-4V196z M232,202h4v-4
			h-4V202z M232,172h4v-4h-4V172z M232,178h4v-4h-4V178z M232,238h4v-4h-4V238z M232,232h4v-4h-4V232z M232,244h4v-4h-4V244z
			 M232,208h4v-4h-4V208z M232,214h4v-4h-4V214z M232,226h4v-4h-4V226z M232,220h4v-4h-4V220z M238,244h4v-4h-4V244z M238,250h4v-4
			h-4V250z M238,208h4v-4h-4V208z M238,232h4v-4h-4V232z M238,238h4v-4h-4V238z M238,214h4v-4h-4V214z M238,220h4v-4h-4V220z
			 M238,226h4v-4h-4V226z M238,256h4v-4h-4V256z M238,286h4v-4h-4V286z M238,280h4v-4h-4V280z M238,262h4v-4h-4V262z M238,268h4v-4
			h-4V268z M238,274h4v-4h-4V274z"/>
		<path style="fill:#ADAEAF;" d="M164,284h-56v10H76v24h116v-24h-28V284z M100,230h-6v6h6V230z M90,260h-6v6h6V260z M90,250h-6v6h6
			V250z M100,220h-6v6h6V220z M100,210h-6v6h6V210z M90,270h-6v6h6V270z M84,286h6v-6h-6V286z M90,210h-6v6h6V210z M90,200h-6v6h6
			V200z M90,240h-6v6h6V240z M90,230h-6v6h6V230z M90,220h-6v6h6V220z M104,276h6v-6h-6V276z M110,250h-6v6h6V250z M100,240h-6v6h6
			V240z M110,230h-6v6h6V230z M110,260h-6v6h6V260z M110,220h-6v6h6V220z M80,186h14v20h20v-4H98v-20H76l0,0v0v0v106h4V186z M90,190
			h-6v6h6V190z M100,250h-6v6h6V250z M100,260h-6v6h6V260z M94,286h6v-6h-6V286z M110,210h-6v6h6V210z M100,270h-6v6h6V270z
			 M110,240h-6v6h6V240z M310,302h6v-6h-6V302z M330,312h6v-6h-6V312z M320,302h6v-6h-6V302z M320,312h6v-6h-6V312z M310,312h6v-6
			h-6V312z M232,306h-6v12h4v-8h6v-18h70v-4h-74V306z M350,312h6v-6h-6V312z M360,306v6h6v-6H360z M300,302h6v-6h-6V302z M340,312h6
			v-6h-6V312z M330,302h6v-6h-6V302z M340,302h6v-6h-6V302z M250,302h6v-6h-6V302z M260,312h6v-6h-6V312z M260,302h6v-6h-6V302z
			 M270,312h6v-6h-6V312z M240,312h6v-6h-6V312z M250,312h6v-6h-6V312z M240,302h6v-6h-6V302z M280,302h6v-6h-6V302z M290,302h6v-6
			h-6V302z M270,302h6v-6h-6V302z M290,312h6v-6h-6V312z M280,312h6v-6h-6V312z M300,312h6v-6h-6V312z"/>
		<path style="fill:#A6D7EA;" d="M332,260h10v-8h-10V260z M332,272h10v-8h-10V272z M318,200h10v-8h-10V200z M332,284h10v-8h-10V284z
			 M318,188h10v-8h-10V188z M332,248h10v-8h-10V248z M332,212h10v-8h-10V212z M332,224h10v-8h-10V224z M332,200h10v-8h-10V200z
			 M332,236h10v-8h-10V236z M318,284h10v-8h-10V284z M332,188h10v-8h-10V188z M318,212h10v-8h-10V212z M318,272h10v-8h-10V272z
			 M304,272h10v-8h-10V272z M304,284h10v-8h-10V284z M304,260h10v-8h-10V260z M318,236h10v-8h-10V236z M318,224h10v-8h-10V224z
			 M318,260h10v-8h-10V260z M318,248h10v-8h-10V248z M346,200h10v-8h-10V200z M346,212h10v-8h-10V212z M360,272h10v-8h-10V272z
			 M346,188h10v-8h-10V188z M360,296h10v-8h-10V296z M360,260h10v-8h-10V260z M354,296h2v-8h-2V296z M360,284h10v-8h-10V284z
			 M346,224h10v-8h-10V224z M346,284h10v-8h-10V284z M346,260h10v-8h-10V260z M346,272h10v-8h-10V272z M346,248h10v-8h-10V248z
			 M346,236h10v-8h-10V236z M314,192h-6v8h6V192z M314,216h-6v8h6V216z M314,204h-6v8h6V204z M314,180h-6v8h6V180z M314,172l-6,0v4
			h6V172z M354,148h-36v4h36V148z M344,140h-16v4h16V140z M364,156h-56v4h56V156z M314,228h-6v8h6V228z M360,172v4h10v-4L360,172z
			 M360,224h10v-8h-10V224z M360,212h10v-8h-10V212z M360,236h10v-8h-10V236z M360,248h10v-8h-10V248z M360,200h10v-8h-10V200z
			 M308,164v4h62v-4H308z M360,188h10v-8h-10V188z M314,240h-6v8h6V240z"/>
		<path style="fill:#666666;" d="M330,132v4h12v-4H330z M370,158v-10h-10v-8h-10v-6.7l-14-16.3l-14,16.3v6.7h-10v8h-4v4h8v-8h10
			v-9.3l10-11.7l10,11.7v9.3h10v8h10v10h6v134h4V158L370,158z M364,172h-54v76h-2v4h6v-76h46v76h10v-4h-6V172z"/>
		<path style="fill:#E66732;" d="M170,130l14-6l-14-6V130z M198,118v12l14-6L198,118z"/>
	</g>
	<path style="fill:#3F4041;" d="M635.9,206.2l8,102l4-0.3l-8-102L635.9,206.2z M625.9,336h8v-8h-8V336z M625.9,324h8v-8h-8V324z
		 M613.9,228h8v-8h-8V228z M613.9,216h8v-8h-8V216z M613.9,252h8v-8h-8V252z M613.9,240h8v-8h-8V240z M625.9,216h8v-8h-8V216z
		 M613.9,264h8v-8h-8V264z M637.9,336h8v-8h-8V336z M625.9,252h8v-8h-8V252z M625.9,264h8v-8h-8V264z M625.9,228h8v-8h-8V228z
		 M625.9,240h8v-8h-8V240z M625.9,300h8v-8h-8V300z M625.9,312h8v-8h-8V312z M637.9,324h8v-8h-8V324z M625.9,276h8v-8h-8V276z
		 M625.9,288h8v-8h-8V288z M613.9,312h8v-8h-8V312z M601.9,300h8v-8h-8V300z M601.9,324h8v-8h-8V324z M601.9,312h8v-8h-8V312z
		 M601.9,276h8v-8h-8V276z M601.9,288h8v-8h-8V288z M589.9,336h8v-8h-8V336z M601.9,336h8v-8h-8V336z M601.9,264h8v-8h-8V264z
		 M589.9,324h8v-8h-8V324z M587.9,307.8l4,0.3l8-102l-4-0.3L587.9,307.8z M601.9,228h8v-8h-8V228z M613.9,300h8v-8h-8V300z
		 M613.9,324h8v-8h-8V324z M613.9,336h8v-8h-8V336z M613.9,288h8v-8h-8V288z M601.9,240h8v-8h-8V240z M613.9,276h8v-8h-8V276z
		 M601.9,252h8v-8h-8V252z M601.9,216h8v-8h-8V216z M622.1,142h-8.2l-10.2,60h28.4L622.1,142z M617.3,146h1.4l8.7,52h-19L617.3,146z
		 M258,84v66h4V84H258z M288,136v-7.9L267.1,91l-3.5,2l20.4,36.2v6.8H288z M168,314h6v-6h-6V314z M98,314h6v-6h-6V314z M88,314h6v-6
		h-6V314z M88,304h6v-6h-6V304z M746,324h-4v8h4V324z M738,324h-4v8h4V324z M754,324h-4v8h4V324z M108,304h6v-6h-6V304z M118,304h6
		v-6h-6V304z M108,314h6v-6h-6V314z M98,304h6v-6h-6V304z M118,314h6v-6h-6V314z M962,324h-4v8h4V324z M802,324h-4v8h4V324z
		 M954,324h-4v8h4V324z M762,324h-4v8h4V324z M978,324h-4v8h4V324z M970,324h-4v8h4V324z M770,324h-4v8h4V324z M778,324h-4v8h4V324z
		 M794,324h-4v8h4V324z M786,324h-4v8h4V324z M248.4,93l-3.5-2L224,128.1v7.9h4v-6.8L248.4,93z M178,304h6v-6h-6V304z M178,314h6v-6
		h-6V314z M168,304h6v-6h-6V304z M294,286h4V144h-4V286z M158,304h6v-6h-6V304z M214,318h4V144h-4V318z M276,150h-12v12h-6v124h4
		V166h6v-12h12v-12h12v-4h-16V150z M250,150h4V84h-4V150z M248,150h-12v-12h-16v4h12v12h12v12h6v120h4V162h-6V150z M158,314h6v-6h-6
		V314z M138,304h6v-6h-6V304z M138,314h6v-6h-6V314z M128,294h6v-6h-6V294z M128,304h6v-6h-6V304z M128,314h6v-6h-6V314z M148,294h6
		v-6h-6V294z M148,304h6v-6h-6V304z M148,314h6v-6h-6V314z M138,294h6v-6h-6V294z M118,294h6v-6h-6V294z M812,310h128v-4H812V310z
		 M862,212c0,7.7,6.3,14,14,14s14-6.3,14-14c0-7.7-6.3-14-14-14S862,204.3,862,212z M886,212c0,5.5-4.5,10-10,10s-10-4.5-10-10
		s4.5-10,10-10S886,206.5,886,212z M856,236h40v-4h-40V236z M918,198h-14v4h14V198z M858,248v24h16v-24c0-4.4-3.6-8-8-8
		S858,243.6,858,248z M870,248v20h-8v-20c0-2.2,1.8-4,4-4S870,245.8,870,248z M898,198v76h4v-76H898z M878,248v24h16v-24
		c0-4.4-3.6-8-8-8S878,243.6,878,248z M890,248v20h-8v-20c0-2.2,1.8-4,4-4S890,245.8,890,248z M868,144h16v-4h-16V144z M884,116h-16
		v4h16V116z M868,184h16v-28c0-4.4-3.6-8-8-8s-8,3.6-8,8V184z M872,156c0-2.2,1.8-4,4-4s4,1.8,4,4v24h-8V156z M874,206v8h6v-4h-2v-4
		H874z M894.7,152.3l-1.3-3.8c-3.2,1.1-5.3,4.2-5.3,7.5v28h6v-4h-2v-24C892,154.3,893.1,152.8,894.7,152.3z M920,274v30h4v-30H920z
		 M928,274v30h4v-30H928z M918,218v-14h-4v14H918z M936,304h4v-30h-4V304z M984,360v-26h-4v0h-34v-60.8l-5.2-5.2H924v-74l-12-38.7
		l-10,32V142l-7-39.4l-5,28V116l-14-58.6l-13.9,58.1l-0.1,15.1l-5-28l-7,39l0,45.6l-10-32l-12,38.4V268h-16.8l-5.2,5.2V334h-76v-34
		l-15-46.5l-15,46.2V342h-4.6l3,12H728v2h-70.4l0,0l-4.6-34.3l11-121.5l-24.5-2l-16-92.1h-11.2l-16,92.1l-24.5,2l11,121.5l-4.6,34.3
		l0,0l0,0H376v-58h0h-22v-10h-42v-8h-6V138h-8v-10.5l-26-46V76h-6v-6h-20v6h-6v5.5l-26,46V138h-8v142h-6v34h-8v-24h-24v-10h-64v10
		H76v70h4h0v-66h28v-10h56v10h24v24h16v-34h6V142h8v-13.5l26-46V80h6v-6h12v6h6v2.5l26,46V142h8v142h6v8h42v10h22v58h209.7l0,0l0,0
		l5.1-38.2l-10.7-117.9l23.5-2l16-91.9h4.5l16,91.9l23.5,2L649,321.8l5.1,38.2l0,0l0,0H732v-10h-30.4l-1-4h3.4v-45.7l11-33.8
		l11,33.8V338h84v-63.2l2.8-2.8H832v-77.7l8-25.6l8.5,27.3h5.5v-53.8l3-16.8l3.3,18.6h5.7v-27.8l10-41.7l10,41.7V144h5.7l3.3-18.6
		l3,16.8V196h5.5l8.5-27.3l8,25.6V272h19.2l2.8,2.8V338h38v22h0v0H984z M834,302h84v-4h-84V302z M856,192h40v-4h-40V192z M904,224
		h14v-4h-14V224z M904,218h4v-14h-4V218z M904,236h14v-4h-14V236z M834,288h84v-4h-84V288z M812,274v30h4v-30H812z M902,346
		c-2.6,0-4.8,1.7-5.7,4H882c0-3.3-2.7-6-6-6s-6,2.7-6,6h-14.3c-0.8-2.3-3-4-5.7-4c-3.3,0-6,2.7-6,6v8h4v-8c0-1.1,0.9-2,2-2
		s2,0.9,2,2v2h22v-4c0-1.1,0.9-2,2-2s2,0.9,2,2v4h22v-2c0-1.1,0.9-2,2-2s2,0.9,2,2v8h4v-8C908,348.7,905.3,346,902,346z M906,325.5
		l-6-12l-6,12l-6-12l-6,12l-6-12l-6,12l-6-12l-6,12l-6-12l-6,12l-6-12l-5.8,11.6l3.6,1.8l2.2-4.4l6,12l6-12l6,12l6-12l6,12l6-12
		l6,12l6-12l6,12l6-12l6,12l6-12l2.2,4.4l3.6-1.8l-5.8-11.6L906,325.5z M928,360h4v-48h-4V360z M858,180v4h6v-28
		c0-3.4-2.1-6.4-5.3-7.5l-1.3,3.8c1.6,0.6,2.7,2.1,2.7,3.7v24H858z M920,360h4v-48h-4V360z M812,360h4v-48h-4V360z M820,360h4v-48
		h-4V360z M708,315v21h14v-21c0-3.9-3.1-7-7-7S708,311.1,708,315z M718,315v17h-6v-17c0-1.7,1.3-3,3-3S718,313.3,718,315z M724,300
		h-18v4h18V300z M936,360h4v-48h-4V360z M828,360h4v-48h-4V360z M834,224h14v-4h-14V224z M834,236h14v-4h-14V236z M834,280h84v-4
		h-84V280z M706,346h23.4l-0.4,1.5l3.9,1l1.6-6.5H706V346z M834,218h4v-14h-4V218z M850,198v76h4v-76H850z M820,274v30h4v-30H820z
		 M828,274v30h4v-30H828z M848,218v-14h-4v14H848z M848,198h-14v4h14V198z"/>
</g>
</svg>
