<svg id="Layer_1" xmlns="http://www.w3.org/2000/svg" viewBox="0 0 220 70"><style>.st0{fill-rule:evenodd;clip-rule:evenodd;fill:#666}</style><path class="st0" d="M56.7 51.6c-4.7 5.9-12 9.7-20.3 9.7-14.3 0-25.9-11.6-25.9-25.9 0-14.4 11.6-26 25.9-26 8.3 0 15.6 3.8 20.3 9.8l-.8.5c-4.2-4.5-10.1-7.1-16.6-7.1-12.6 0-22.8 10.2-22.8 22.8 0 12.5 10.2 22.7 22.8 22.7 6.5 0 12.4-2.7 16.6-7l.8.5z"/><path class="st0" d="M64.5 22.9c-8.2 0-12.8 5.5-12.8 12.5 0 6.9 4.6 12.4 12.8 12.4 7.8 0 12.6-5.5 12.6-12.4 0-7.1-4.9-12.5-12.6-12.5zm0 20.2c-4.6 0-7.7-3.6-7.7-7.8 0-4.3 3.1-7.9 7.7-7.9 4.1 0 7.4 3.3 7.4 7.9 0 4.4-3.4 7.8-7.4 7.8zm71.1-3.1c-.4.8-2.3 3.2-6.4 3.2-4.5 0-7.7-3.3-7.7-7.8 0-4.6 3.2-7.9 7.7-7.9 4.1 0 6.1 2.7 6.4 3.2l3.8-2.4c-.3-.5-3.1-5.4-10.2-5.4-7.8 0-12.9 5.1-12.9 12.5 0 7.3 5.1 12.4 12.9 12.4 7.1 0 9.8-4.7 10.2-5.4l-3.8-2.4zm-89.3.2c-.5.8-2.4 3.3-6.8 3.3-4.7 0-8-3.4-8-8.2 0-4.8 3.4-8.3 8-8.3 4.3 0 6.4 2.8 6.8 3.3l4-2.6c-.3-.5-3.1-5.6-10.7-5.6-8.2 0-13.4 5.4-13.4 13.1 0 7.5 5.2 13 13.4 13 7.5 0 10.3-5 10.7-5.6l-4-2.4zm151.8-16.8l.3-6.6-5.2 2.6-.1 4.1h-3.8v4h3.8v13.4c0 4.8 2.8 7 6.4 7 2 0 3.3-.4 3.6-.5l.6-4.1c-.1.1-1.1.4-2.3.4-2 0-3.2-.8-3.2-3.1V27.3h5v-4h-5.1v.1zm-36.7 0s-.1 2.3-.1 2.7c-.5-.4-2.8-3.2-7.7-3.2-7.3 0-12.5 5-12.5 12.5 0 7.1 5 12.4 12.5 12.4 4.6 0 7-2.6 7.7-3.2l.1 2.7h5.1V23.4h-5.1zm-7.3 19.7c-5 0-7.9-3.6-7.9-7.8 0-4.7 3.3-7.9 7.9-7.9 5 0 7.9 3.6 7.9 7.9 0 4.3-2.9 7.8-7.9 7.8zm-45.9 4.1V32.3c0-3.2-1.7-5-4.5-5s-4.5 1.9-4.5 5v14.9h-5.1V32.3c0-3.2-1.7-5-4.3-5-2.9 0-4.5 1.9-4.5 5v14.9h-5.1V23.4H85v2.3h.1c.4-.5 2.3-2.8 6-2.8 4.2 0 5.9 2.9 6.1 3.4.5-.6 2.6-3.4 7.1-3.4 5.5 0 8.7 3.4 8.7 8.3v16.1h-4.8v-.1zm73-14.1c4.1 1.4 6.6 3.6 6.6 7.1 0 5-4.2 7.5-9.8 7.5-5.1 0-7.8-1.7-8.7-2.2l2-3.8c.5.3 3.2 1.8 6.9 1.8 2.6 0 4.5-1.1 4.5-2.8 0-1.4-1-2.4-3.6-3.3l-2.8-.9c-3.2-1-5.9-3.2-5.9-6.9 0-4.1 3.7-6.8 8.8-6.8 4.5 0 6.8 1.5 7.7 2l-1.9 3.7c-.5-.3-2.7-1.5-5.9-1.5-2.6 0-3.6 1.1-3.6 2.3 0 1.1.9 2 3.1 2.9l2.6.9zm26.9 12.2c1.3 0 2.4 1.1 2.4 2.4 0 1.3-1.1 2.4-2.4 2.4-1.3 0-2.4-1.1-2.4-2.4 0-1.3 1.1-2.4 2.4-2.4zm0 .4c1.1 0 2 .9 2 2.1 0 1.1-.9 2.1-2 2.1s-2-.9-2-2.1c-.1-1.2.9-2.1 2-2.1zm1.1 3.4h-.5l-.4-1.2h-.7v1.2h-.5v-2.8h1.2c.3 0 .6.1.7.2.2.2.2.4.2.6 0 .4-.2.6-.5.7l.5 1.3zm-1.6-1.5h.6c.2 0 .3 0 .4-.1.1-.1.1-.2.1-.3 0-.1 0-.2-.1-.3-.1-.1-.2-.1-.4-.1h-.7v.8h.1z"/></svg>