<svg xmlns="http://www.w3.org/2000/svg" xmlns:xlink="http://www.w3.org/1999/xlink" viewBox="0 0 619 279"><defs><linearGradient id="linear-gradient" x1="170.5" y1="553" x2="452.8" y2="270.7" gradientUnits="userSpaceOnUse"><stop offset="0" stop-color="#329cbf"/><stop offset="1" stop-color="#8ec641"/></linearGradient><clipPath id="clip-path" transform="translate(3.5 -257)"><polygon points="443.5 320 443.5 428 510.5 428 510.5 506 605.5 506 605.5 320 443.5 320" style="fill:none"/></clipPath></defs><title>fpo-whatwedo</title><g style="isolation:isolate"><g id="Layer_1" data-name="Layer 1"><polygon points="421 253 421 0 43 0 43 253 0 253 0 270 9 279 455 279 464 270 464 253 421 253" style="fill:#dfe0e0"/><rect x="437" y="33" width="182" height="246" style="fill:#dfe0e0"/><rect x="435.81" y="532.5" width="6" height="1" transform="translate(975.31 -162.81) rotate(90)" style="fill:#dfe0e0"/><rect x="493.31" y="506.5" width="2" height="1" transform="translate(1004.81 -244.31) rotate(90)" style="fill:#dfe0e0"/><path d="M443.5,320V428h67v78h95V320h-162Zm-46-43H58.5V492h270V428h69V277Zm-43,249h130V438h-130v88Z" transform="translate(3.5 -257)" style="fill:url(#linear-gradient)"/><path d="M201.5,513v3.41l2.59,2.59h48.83l2.59-2.59V513h-2v2.59L252.09,517H204.91l-1.41-1.41V513h-2Zm216-256H39.5V510h-43v17h332v7H6.33l-6-6H-2.5l8,8h325V525H-1.5V512h43V259h374V428h-87v81h2V430h87V257ZM42.5,512h286v12h2V510H42.5v2Zm390-84H418.38v2h14.13v-2Zm-80,100h134V436l-134,.07V528Zm2-89.93,130-.07v88h-130V438.07Zm45-11.07V275H56.5V494h271v-2H58.5V277h339V427h2Zm127-122a2,2,0,1,0-2,2A2,2,0,0,0,526.5,305Zm-93-15V430h75v75h2V428h-75V292h178V534h-103V508h97V318h-166V427h2V320h162V506h-97v30h107V290h-182Zm-98,192a6,6,0,1,0,6-6A6,6,0,0,0,335.5,482Zm10,0a4,4,0,1,1-4-4A4,4,0,0,1,345.5,482Zm171,39a8,8,0,1,0,8-8A8,8,0,0,0,516.5,521Zm14,0a6,6,0,1,1-6-6A6,6,0,0,1,530.5,521Zm-199,13v2h176v-2h-176Zm165-60v16h2V474h-2Z" transform="translate(3.5 -257)" style="fill:#404142"/><path d="M443.5,428h-115V536h182V428h-67Zm41,98h-130V438h130v88Z" transform="translate(3.5 -257)" style="fill:#dfe0e0"/><polygon points="354.79 279 462.79 171 332 171 332 279 354.79 279" style="fill:#fff;opacity:0.30000000000000004"/><polygon points="43 255 83.5 255 338.5 0 43 0 43 255" style="fill:#fff;opacity:0.30000000000000004"/><path d="M222.31,350.19l-20.17-32-41,109,41.2-17.93ZM281.48,375l-47.39-67H201.22l50.54,79.95ZM153,435.89l32,21.82L285.5,415,303,370.86Z" transform="translate(3.5 -257)" style="fill:#126f67;opacity:0.7000000000000001;mix-blend-mode:multiply"/><path d="M201.5,513v3.41l2.59,2.59h48.83l2.59-2.59V513h-2v2.59L252.09,517H204.91l-1.41-1.41V513h-2Zm216-256H39.5V510h-43v17h332v7H6.33l-6-6H-2.5l8,8h325V525H-1.5V512h43V259h374V428h-87v81h2V430h87V257ZM42.5,512h286v12h2V510H42.5v2Zm390-84H418.38v2h14.13v-2Zm-80,100h134V436l-134,.07V528Zm2-89.93,130-.07v88h-130V438.07Zm45-11.07V275H56.5V494h271v-2H58.5V277h339V427h2Zm127-122a2,2,0,1,0-2,2A2,2,0,0,0,526.5,305Zm-93-15V430h75v75h2V428h-75V292h178V534h-103V508h97V318h-166V427h2V320h162V506h-97v30h107V290h-182Zm-98,192a6,6,0,1,0,6-6A6,6,0,0,0,335.5,482Zm10,0a4,4,0,1,1-4-4A4,4,0,0,1,345.5,482Zm171,39a8,8,0,1,0,8-8A8,8,0,0,0,516.5,521Zm14,0a6,6,0,1,1-6-6A6,6,0,0,1,530.5,521Zm-199,13v2h176v-2h-176Zm165-60v16h2V474h-2Z" transform="translate(3.5 -257)" style="fill:#404142"/><g style="clip-path:url(#clip-path)"><polygon points="437 279 619 97 619 33 437 33 437 279" style="fill:#fff;opacity:0.30000000000000004"/><path d="M520.33,384.22l-14.79-23.49-30,80,30.21-13.15Zm43.39,18.17L529,353.23H504.86l37.06,58.63ZM469.5,447.07l23.45,16,73.72-31.33,12.83-32.36Z" transform="translate(3.5 -257)" style="fill:#126f67;opacity:0.7000000000000001;mix-blend-mode:multiply"/></g><path d="M417.23,468.95l-8.07-12.81-16.38,43.61,16.48-7.17Zm23.67,9.91-19-26.82H408.79L429,484ZM389.5,503.23L402.29,512l40.21-17.09,7-17.65Z" transform="translate(3.5 -257)" style="fill:#126f67;opacity:0.7000000000000001;mix-blend-mode:multiply"/></g></g></svg>