<?xml version="1.0" encoding="utf-8"?>
<!-- Generator: Adobe Illustrator 19.2.0, SVG Export Plug-In . SVG Version: 6.00 Build 0)  -->
<svg version="1.1" id="SF_OFFICE" xmlns="http://www.w3.org/2000/svg" xmlns:xlink="http://www.w3.org/1999/xlink" x="0px" y="0px"
	 viewBox="0 0 308 308" style="enable-background:new 0 0 308 308;" xml:space="preserve">
<g>
	<g>
		<rect y="62" style="fill:#A6D7EA;" width="308" height="246"/>
		<rect style="fill:#EBFCFF;" width="308" height="62"/>
		<g>
			<rect y="62" style="fill:#FFFFFF;" width="308" height="4"/>
			<rect y="70" style="opacity:0.9;fill:#FFFFFF;" width="308" height="4"/>
			<rect y="78" style="opacity:0.8;fill:#FFFFFF;" width="308" height="4"/>
			<rect y="86" style="opacity:0.7;fill:#FFFFFF;" width="308" height="4"/>
			<rect y="94" style="opacity:0.6;fill:#FFFFFF;" width="308" height="4"/>
			<rect y="102" style="opacity:0.5;fill:#FFFFFF;" width="308" height="4"/>
			<rect y="110" style="opacity:0.4;fill:#FFFFFF;" width="308" height="4"/>
			<rect y="118" style="opacity:0.3;fill:#FFFFFF;" width="308" height="4"/>
			<rect y="126" style="opacity:0.2;fill:#FFFFFF;" width="308" height="4"/>
			<rect y="134" style="opacity:0.1;fill:#FFFFFF;" width="308" height="4"/>
		</g>
		<path style="opacity:0.3;fill:#FFFFFF;" d="M0,308L246,62H0C0,62,0,307,0,308z"/>
		<path style="opacity:0.5;fill:#A6D7EA;" d="M187,38h-9.2c-0.9-4.6-5-8-9.8-8s-8.9,3.4-9.8,8H149c-2.8,0-5,2.2-5,5c0,2.8,2.2,5,5,5
			h38c2.8,0,5-2.2,5-5C192,40.2,189.8,38,187,38z M281,22h-3c0-3.3-2.7-6-6-6c-1.1,0-2.2,0.3-3.1,0.9c-1.8-1.8-4.2-2.9-6.9-2.9
			c-4.8,0-8.9,4-9.8,8H239c-2.8,0-5,2.2-5,5c0,2.8,2.2,5,5,5h42c2.8,0,5-2.2,5-5C286,24.2,283.8,22,281,22z M39.8,26H24
			c0-3.3-2.7-6-6-6c-0.7,0-1.4,0.1-2,0.4c0-0.1,0-0.2,0-0.4c0-6.6-5.4-12-12-12v30h36c3.9,0,7-3.8,5.7-7.9
			C44.9,27.6,42.4,26,39.8,26z"/>
	</g>
	<g>
		<polyline style="fill:#DFE0E0;" points="84,160 138,160 138,66 130,66 130,32 92,32 92,66 84,66 		"/>
		<path style="fill:#ADAEAF;" d="M111,70c-2.8,0-5,2.2-5,5v31h10V75C116,72.2,113.8,70,111,70z M90,68v38h8V76
			C98,71.6,94.4,68,90,68z M124,76v30h8V68C127.6,68,124,71.6,124,76z M94,36v22h6V42C100,38.7,97.3,36,94,36z M128,36
			c-3.3,0-6,2.7-6,6v16h6V36z M111,36c-2.8,0-5,2.2-5,5v17h10V41C116,38.2,113.8,36,111,36z"/>
		<path style="fill:#666666;" d="M94,144h4v-34h-4V144z M124,146h4v-36h-4V146z M104,152h4v-42h-4V152z M114,152h4v-42h-4V152z
			 M111,36c-3.9,0-7,3.1-7,7v15h14V43C118,39.1,114.9,36,111,36z M114,54h-6V43c0-1.7,1.3-3,3-3s3,1.3,3,3V54z M94,36v4
			c1.1,0,2,0.9,2,2v12h-2v4h6V42C100,38.7,97.3,36,94,36z M128,40v-4c-3.3,0-6,2.7-6,6v16h6v-4h-2V42C126,40.9,126.9,40,128,40z
			 M111,68c-3.9,0-7,3.1-7,7v31h14V75C118,71.1,114.9,68,111,68z M114,102h-6V75c0-1.7,1.3-3,3-3s3,1.3,3,3V102z M90,68v4
			c2.2,0,4,1.8,4,4v26h-4v4h8V76C98,71.6,94.4,68,90,68z M124,76v30h8v-4h-4V76c0-2.2,1.8-4,4-4v-4C127.6,68,124,71.6,124,76z
			 M134,62V28H88v34h-4v80h4V66h4V32h38v34h4v78h4V62H134z"/>
	</g>
	<g>
		<path style="fill:#F2CD9C;" d="M80,62H46V52h31c1.7,0,3,1.3,3,3V62z"/>
		<path style="fill:#64A62E;" d="M152,164C152,164,152,164,152,164c-0.6-8.9-7.9-16-17-16c-7.2,0-13.3,4.4-15.8,10.7
			c-1.2,0.4-2.3,1.1-3.3,1.9c-0.9-0.3-1.9-0.5-3-0.5c-1.7,0-3.3,0.5-4.6,1.3c-1.8-3-5-5.1-8.8-5.3c-1.3-5.7-6.5-10-12.6-10
			c-7.2,0-13,5.8-13,13c0,0.3,0,0.7,0.1,1c0,0,0,0-0.1,0c-3,0-5.6,1.7-7,4.2c-1.4-2.5-4-4.2-7-4.2c-2.9,0-5.4,1.5-6.8,3.8
			c-1.7-4.5-6.1-7.8-11.2-7.8c-6.6,0-12,5.4-12,12c0-3.3-2.7-6-6-6c-2.6,0-4.8,1.6-5.6,3.9c-1.1-1.2-2.6-1.9-4.4-1.9
			c-1.5,0-2.9,0.6-4,1.6c-1.1-1-3.5-5.4-10-5.4V176h50v10h12v-10h34v16h12v-8h28v-12h26C162,167.6,156.4,164,152,164z M52,46H0v16
			h68C68,53.2,60.8,46,52,46z"/>
		<path style="fill:#0F6F67;" d="M88,158v4c3.3,0,6,2.7,6,6h4C98,162.5,93.5,158,88,158z M124,174h4c0-3.3,2.7-6,6-6v-4
			C128.5,164,124,168.5,124,174z M74,170h4c0-1.1,0.9-2,2-2v-4C76.7,164,74,166.7,74,170z M154,164.2c-0.4-10.1-8.8-18.2-19-18.2
			c-7.5,0-14.2,4.3-17.3,11.1c-0.8,0.3-1.5,0.7-2.1,1.2c-2.2-0.6-4.5-0.4-6.5,0.4c-2-2.4-4.8-4-7.8-4.6c-2-6.1-7.7-10.2-14.2-10.2
			c-8,0-14.6,6.3-15,14.2c-1.9,0.4-3.6,1.3-5,2.7c-1.8-1.8-4.3-2.9-7-2.9c-2.4,0-4.6,0.8-6.3,2.3c-2.6-3.8-6.9-6.3-11.7-6.3
			c-5.6,0-10.4,3.3-12.7,8c-1.4-1.3-3.3-2-5.3-2c-2.4,0-4.7,1.1-6.2,3c-1.2-0.6-2.5-1-3.8-1c-1.7,0-3.1,0.5-4,1.1
			c-1.2-0.7-2.6-1.1-4-1.1v4c1.2,0,2.1,0.6,2.7,1l1.4,1.2l1.3-1.3c0,0,1-0.9,2.6-0.9c1.1,0,2.1,0.5,2.9,1.3l2.2,2.4l1.1-3.1
			c0.6-1.6,2.1-2.6,3.7-2.6c2.2,0,4,1.8,4,4h4c0-5.5,4.5-10,10-10c4.1,0,7.9,2.6,9.4,6.5l1.4,3.8l2.1-3.4c1.1-1.8,3-2.8,5.1-2.8
			c2.2,0,4.2,1.2,5.2,3.2l1.8,3.2l1.8-3.2c1-1.9,3-3.1,5.1-3.2l2.3,0l-0.2-2.2c0-0.3,0-0.6,0-0.9c0-6.1,4.9-11,11-11
			c5.1,0,9.5,3.5,10.7,8.5l0.3,1.5l1.5,0.1c2.9,0.2,5.6,1.8,7.2,4.3l1,1.7l1.7-1c1.8-1.1,3.7-1.4,5.9-0.6l1.1,0.4l0.9-0.7
			c0.8-0.6,1.7-1.2,2.7-1.5l0.8-0.3l0.3-0.8c2.3-5.7,7.8-9.4,13.9-9.4c8.3,0,15,6.7,15,15c0,0.2,0,0.4,0,0.6l-0.1,2.4h2.1l0.2,0
			c1,0,2,0.3,2.9,0.8l2-3.5C156.1,164.8,155,164.4,154,164.2z"/>
	</g>
	<g>
		<path style="fill:#F2CD9C;" d="M134,170v12h-28v8h-6v-18H58v12h-6v-12H0c0.6,4.7,0,68,0,68h38v-16h68v-14h74v-40H134z"/>
		<path style="fill:#FFDCB3;" d="M164,204v-12h-38v18h-20v14H86v-10H72v-14H0v63.9c0,0,0,0,0.1,0.1c0,0,0,0,0,0H86v-28h38v-12h28v26
			h34v-46H164z"/>
		<polygon style="fill:#FFE5CC;" points="166,248 166,224 124,224 124,234 84,234 84,244 0,244 0,308 186,308 186,248 		"/>
		<polygon style="fill:#FFF1E6;" points="162,262 162,282 138,282 138,262 116,262 116,272 0,272 0,308 202,308 202,262 		"/>
		<path style="fill:#CCAB87;" d="M68,216h16v10h24v-12h20v-20h34v14h12v-4h-8v-14h-42v20h-20v12H88v-10H72v-12H6v4h62V216z M88,238
			h40v-10h34v24h16v-4h-12v-24h-42v10H84v10H6v4h82V238z M162,262v20h-24v-20h-22v10H6v4h114v-10h14v20h32v-20h14v-4H162z M44,180
			h-6v6h6V180z M34,180h-6v6h6V180z M28,196h6v-6h-6V196z M38,196h6v-6h-6V196z M24,180h-6v6h6V180z M18,196h6v-6h-6V196z M92,180
			h-6v6h6V180z M82,180h-6v6h6V180z M82,190h-6v6h6V190z M92,190h-6v6h6V190z M72,180h-6v6h6V180z M66,196h6v-6h-6V196z M76,206h6
			v-6h-6V206z M86,206h6v-6h-6V206z M158,184v-6h-6v6H158z M148,184v-6h-6v6H148z M168,184v-6h-6v6H168z M120,190h-6v6h6V190z
			 M114,206h6v-6h-6V206z M54,208h-6v6h6V208z M44,208h-6v6h6V208z M44,218h-6v6h6V218z M54,218h-6v6h6V218z M38,234h6v-6h-6V234z
			 M48,234h6v-6h-6V234z M64,208h-6v6h6V208z M64,218h-6v6h6V218z M58,234h6v-6h-6V234z M138,198h-6v6h6V198z M132,214h6v-6h-6V214z
			 M148,198h-6v6h6V198z M142,214h6v-6h-6V214z M152,214h6v-6h-6V214z M158,198h-6v6h6V198z M108,242h-6v6h6V242z M98,242h-6v6h6
			V242z M98,252h-6v6h6V252z M108,252h-6v6h6V252z M92,268h6v-6h-6V268z M102,268h6v-6h-6V268z M118,242h-6v6h6V242z M112,258h6v-6
			h-6V258z M128,242h-6v6h6V242z M122,258h6v-6h-6V258z M138,242h-6v6h6V242z M132,258h6v-6h-6V258z M138,232h-6v6h6V232z M148,242
			h-6v6h6V242z M148,252h-6v6h6V252z M148,232h-6v6h6V232z M158,242h-6v6h6V242z M158,252h-6v6h6V252z M158,232h-6v6h6V232z
			 M148,262h-6v6h6V262z M142,278h6v-6h-6V278z M158,262h-6v6h6V262z M152,278h6v-6h-6V278z M72,268h6v-6h-6V268z M82,268h6v-6h-6
			V268z M78,252h-6v6h6V252z M88,252h-6v6h6V252z M110,206v-6h-6v6H110z M124,276h6v-6h-6V276z M124,286h6v-6h-6V286z M114,286h6v-6
			h-6V286z M170,286h6v-6h-6V286z M170,276h6v-6h-6V276z M34,208h-6v6h6V208z M34,218h-6v6h6V218z M28,234h6v-6h-6V234z M24,208h-6
			v6h6V208z M24,218h-6v6h6V218z M18,234h6v-6h-6V234z M14,208H8v6h6V208z M14,218H8v6h6V218z M8,234h6v-6H8V234z M14,180H8v6h6V180
			z M8,196h6v-6H8V196z M62,268h6v-6h-6V268z M68,252h-6v6h6V252z M42,268h6v-6h-6V268z M52,268h6v-6h-6V268z M48,252h-6v6h6V252z
			 M58,252h-6v6h6V252z M32,268h6v-6h-6V268z M38,252h-6v6h6V252z M104,286h6v-6h-6V286z M104,296h6v-6h-6V296z M84,296h6v-6h-6V296
			z M94,296h6v-6h-6V296z M84,286h6v-6h-6V286z M94,286h6v-6h-6V286z M74,296h6v-6h-6V296z M74,286h6v-6h-6V286z M54,296h6v-6h-6
			V296z M64,296h6v-6h-6V296z M54,286h6v-6h-6V286z M64,286h6v-6h-6V286z M44,296h6v-6h-6V296z M44,286h6v-6h-6V286z M124,296h6v-6
			h-6V296z M114,296h6v-6h-6V296z M34,296h6v-6h-6V296z M34,286h6v-6h-6V286z M12,268h6v-6h-6V268z M22,268h6v-6h-6V268z M18,252h-6
			v6h6V252z M28,252h-6v6h6V252z M24,296h6v-6h-6V296z M24,286h6v-6h-6V286z M14,296h6v-6h-6V296z M14,286h6v-6h-6V286z M48,188h14
			v-12h34v18h14v-8h28v-12h34v-4h-38v12h-28v8h-6v-18H58v12h-6v-12H6v4h42V188z"/>
	</g>
	<g>
		<path style="fill:#ADAEAF;" d="M259.7,151.8l-23.5-2l-16-91.9H220h-4.1h-0.2l-16,91.9l-23.5,2l10.7,117.9l-5.1,38.2h72.4
			l-5.1-38.2L259.7,151.8z M254.1,308L254.1,308L254.1,308L254.1,308z"/>
		<polygon style="fill:#DFE0E0;" points="254.1,308 249,269.8 239.9,153.8 223.5,54 212.3,54 196,153.8 186.9,269.8 181.7,308 		"/>
		<polygon style="fill:#FFFFFF;" points="229.8,148 220.3,92 215.5,92 206.1,148 		"/>
		<path style="fill:#3F4041;" d="M201.9,164h8v-8h-8V164z M201.9,176h8v-8h-8V176z M201.9,188h8v-8h-8V188z M213.9,272h8v-8h-8V272z
			 M213.9,248h8v-8h-8V248z M213.9,260h8v-8h-8V260z M213.8,90l-10.1,60h28.4l-10.1-60H213.8z M218.7,94l8.7,52h-18.9l8.7-52H218.7z
			 M201.9,200h8v-8h-8V200z M213.9,284h8v-8h-8V284z M201.9,248h8v-8h-8V248z M201.9,212h8v-8h-8V212z M188,255.8l4,0.3l8-102
			l-4-0.3L188,255.8z M189.9,272h8v-8h-8V272z M201.9,272h8v-8h-8V272z M189.9,284h8v-8h-8V284z M201.9,284h8v-8h-8V284z M213.9,236
			h8v-8h-8V236z M201.9,224h8v-8h-8V224z M201.9,236h8v-8h-8V236z M201.9,260h8v-8h-8V260z M225.9,212h8v-8h-8V212z M225.9,188h8v-8
			h-8V188z M225.9,176h8v-8h-8V176z M225.9,200h8v-8h-8V200z M225.9,236h8v-8h-8V236z M225.9,164h8v-8h-8V164z M225.9,224h8v-8h-8
			V224z M0,0v308h181.7l0,0l5.1-38.2l-10.7-117.9l23.5-2l16-91.9h0.2h4.1h0.2l16,91.9l23.5,2L249,269.8l5.1,38.2l0,0v0h4l-5.2-38.3
			l11-121.5l-24.5-2l-16-92.1h-11.2l-16,92.1l-24.5,2l11,121.5l-4.6,34.3H4V4h300v300h-44v4h48V0H0z M235.9,154.2l8,102l4-0.3
			l-8-102L235.9,154.2z M237.9,284h8v-8h-8V284z M237.9,272h8v-8h-8V272z M213.9,176h8v-8h-8V176z M213.9,224h8v-8h-8V224z
			 M213.9,188h8v-8h-8V188z M213.9,200h8v-8h-8V200z M213.9,212h8v-8h-8V212z M225.9,248h8v-8h-8V248z M225.9,260h8v-8h-8V260z
			 M225.9,272h8v-8h-8V272z M213.9,164h8v-8h-8V164z M225.9,284h8v-8h-8V284z"/>
	</g>
</g>
</svg>
