<?xml version="1.0" encoding="utf-8"?>
<!-- Generator: Adobe Illustrator 19.2.0, SVG Export Plug-In . SVG Version: 6.00 Build 0)  -->
<svg version="1.1" id="MUNICH_OFFICE" xmlns="http://www.w3.org/2000/svg" xmlns:xlink="http://www.w3.org/1999/xlink" x="0px"
	 y="0px" viewBox="0 0 308 308" style="enable-background:new 0 0 308 308;" xml:space="preserve">
<g>
	<g>
		<g>
			<rect style="fill:#EBFCFF;" width="308" height="308"/>
		</g>
		<path style="opacity:0.5;fill:#A6D7EA;" d="M157,36h-27c0-3.3-2.7-6-6-6c-0.7,0-1.4,0.1-2,0.4c0-0.1,0-0.2,0-0.4
			c0-5.5-4.5-10-10-10s-10,4.5-10,10c0,0.1,0,0.3,0,0.4c-0.6-0.2-1.3-0.4-2-0.4c-3.3,0-6,2.7-6,6H77c-2.8,0-5,2.2-5,5
			c0,2.8,2.2,5,5,5h35h45c2.8,0,5-2.2,5-5C162,38.2,159.8,36,157,36z M44,78h-9.6c1-1.8,1.6-3.8,1.6-6c0-6.6-5.4-12-12-12
			s-12,3.4-12,10H4v18h40c2.2,0,4-3.8,4-6C48,79.8,46.2,78,44,78z M302,70c-5.6,0-10.5,3.2-12.7,8c-1.4-1.3-3.3-2-5.3-2
			c-4.4,0-8,3.6-8,8h-12c-3.3,0-6,2.7-6,6s2.7,6,6,6h40V84V70.2C304,70.1,302.7,70,302,70z"/>
	</g>
	<g>
		<path style="fill:#FFDCB3;" d="M126,142v144h182V142H126z M4,192h112v-64H4V192z"/>
		<rect x="48" y="178" style="fill:#FFE5CC;" width="96" height="104"/>
		<path style="fill:#FFF1E6;" d="M4,308h90v-94H4V308z M256,212v78h52v-78H256z"/>
		<path style="fill:#FFFFFF;" d="M272,158h6v-8h-6V158z M290,150v8h6v-8H290z M242,158h8v-8h-8V158z M272,178h6v-8h-6V178z M290,178
			h6v-8h-6V178z M242,178h8v-8h-8V178z M242,198h8v-8h-8V198z M242,214h8v-4h-8V214z M34,186h6v-10h-6V186z M58,230h6v-8h-6V230z
			 M58,250h6v-8h-6V250z M58,270h6v-8h-6V270z M34,164h6v-8h-6V164z M62,156H52v12h10V156z M34,144h6v-8h-6V144z M12,250h2v-8h-2
			V250z M12,230h6v-8h-6V230z M12,156H6v8h6V156z M58,136h-6v8h6V136z M12,176H6v10h6V176z M12,136H6v8h6V136z M76,270h6v-8h-6V270z
			 M12,288h2v-6h-2V288z M12,270h2v-8h-2V270z M106,194h6v-8h-6V194z M76,250h6v-8h-6V250z M106,238h6v-10h-6V238z M106,260h6v-10
			h-6V260z M124,194h6v-8h-6V194z M124,214h6v-8h-6V214z M106,216h6v-10h-6V216z M98,144h6v-8h-6V144z M76,230h6v-8h-6V230z M76,196
			h8v-10h-8V196z M80,144h6v-8h-6V144z M264,228h6v-8h-6V228z M282,228h6v-8h-6V228z M282,248h6v-8h-6V248z M282,270h6v-10h-6V270z
			 M264,248h6v-8h-6V248z M264,270h6v-10h-6V270z"/>
		<path style="fill:#CCAB87;" d="M282,146h-14v16h14V146z M278,158h-6v-8h6V158z M286,146v16h14v-16H286z M296,158h-6v-8h6V158z
			 M242,150h8v8h-8v4h12v-16h-12V150z M282,166h-14v16h14V166z M278,178h-6v-8h6V178z M286,182h14v-16h-14V182z M290,170h6v8h-6V170
			z M242,170h8v8h-8v4h12v-16h-12V170z M242,190h8v8h-8v4h12v-16h-12V190z M242,210h8v4h4v-8h-12V210z M264,220h6v8h-6v4h10v-16h-10
			V220z M278,232h14v-16h-14V232z M282,220h6v8h-6V220z M278,252h14v-16h-14V252z M282,240h6v8h-6V240z M278,270h4v-10h6v10h4v-14
			h-14V270z M264,240h6v8h-6v4h10v-16h-10V240z M264,260h6v10h4v-14h-10V260z M8,274h6v-4h-2v-8h2v-4H8V274z M30,168h14v-16H30V168z
			 M34,156h6v8h-6V156z M8,254h6v-4h-2v-8h2v-4H8V254z M30,186h4v-10h6v10h4v-14H30V186z M8,234h10v-4h-6v-8h6v-4H8V234z M8,288h4
			v-6h2v-4H8V288z M90,132H76v16h14V132z M86,144h-6v-8h6V144z M130,144h-4v6h4V144z M62,132H48v16h14V132z M58,144h-6v-8h6V144z
			 M12,186h4v-14H6v4h6V186z M16,132H6v4h6v8H6v4h10V132z M16,152H6v4h6v8H6v4h10V152z M72,234h14v-16H72V234z M76,222h6v8h-6V222z
			 M76,186h8v10h4v-14H76V186z M102,264h14v-18h-14V264z M106,250h6v10h-6V250z M102,198h14v-16h-14V198z M106,186h6v8h-6V186z
			 M30,148h14v-16H30V148z M34,136h6v8h-6V136z M108,132H94v16h14V132z M104,144h-6v-8h6V144z M90,270h4v-54h-4V270z M112,150h4v-20
			h-4V150z M102,242h14v-18h-14V242z M106,228h6v10h-6V228z M102,220h14v-18h-14V220z M106,206h6v10h-6V206z M72,254h14v-16H72V254z
			 M76,242h6v8h-6V242z M54,270h4v-8h6v8h4v-12H54V270z M62,152H48v14h4v-10h10V152z M120,198h14v-16h-14V198z M124,186h6v8h-6V186z
			 M48,186h4v-6h-4V186z M56,186h14v-4H56V186z M72,270h4v-8h6v8h4v-12H72V270z M54,234h14v-16H54V234z M58,222h6v8h-6V222z M54,254
			h14v-16H54V254z M58,242h6v8h-6V242z M120,214h4v-8h6v8h4v-12h-14V214z"/>
		<path style="fill:#E66732;" d="M256,205.2v6.8h52v-26h-32.8L256,205.2z M145.2,116L126,135.2v6.8h182v-26H145.2z M116,121.2
			L96.8,102H4v26h112V121.2z M4,188v26h90v-6.8L74.8,188H4z M48,171.2v6.8h96v-26H67.2L48,171.2z"/>
		<path style="fill:#C94E2D;" d="M236,116v4h66v-4H236z M256,205.2v6.8h46v-4h-42v-1.2l16.8-16.8H302v-4h-26.8L256,205.2z M6,214h18
			v-4H6V214z M116,121.2L96.8,102H6v4h89.2l16.8,16.8v1.2H6v4h110V121.2z M6,188v4h67.2L90,208.8v1.2H38v4h56v-6.8L74.8,188H6z
			 M126,135.2v6.8h16v-4h-12v-1.2l16.8-16.8h1.2v-4h-2.8L126,135.2z M48,171.2v6.8h94v-4H52v-1.2L68.8,156H142v-4H67.2L48,171.2z
			 M242,142h60v-4h-60V142z"/>
	</g>
	<g>
		<path style="fill:#DFE0E0;" d="M257.2,220.4L256,218h-2h-16v-76l-10-32l-10,32h-2V90l-5-28l-5,28h-2V64l-12-50l-12,50v26h-2l-5-28
			l-5,28v52h-2l-10-32l-10,32v76h-16h-2l-1.2,2.4L122,224v84h4h22h88h22h4v-84L257.2,220.4z M42,284.5l4-1.8V252l-15-40l-15,40v40
			h-2l2,8l29.7,0.2v1.7h1.9l3-11.9H42V284.5z"/>
		<path style="fill:#ADAEAF;" d="M46.1,308H126v-22H42v4.8l8.6-0.8L46.1,308z M258,282v26h50v-26H258z"/>
		<path style="fill:#ADAEAF;" d="M146,144h20l-10-34L146,144z M204,64l-12-50l-12,50v4h24V64z M18,252h26l-13-40L18,252z M173,62
			l-5,30h10L173,62z M206,92h10l-5-30L206,92z M228,110l-10,34h20L228,110z M170,184h44v-48h-44V184z"/>
		<circle style="fill:#FFFFFF;" cx="192" cy="160" r="12"/>
		<path style="fill:#A6D7EA;" d="M31,258c-2.8,0-5,2.2-5,5v19h10v-19C36,260.2,33.8,258,31,258z M180,104c0-3.3-2.7-6-6-6v34h6V104z
			 M198,104c0-3.3-2.7-6-6-6s-6,2.7-6,6v26h12V104z M202,190c-3.3,0-6,2.7-6,6v22h12v-22C208,192.7,205.3,190,202,190z M182,190
			c-3.3,0-6,2.7-6,6v22h12v-22C188,192.7,185.3,190,182,190z M204,104v28h6V98C206.7,98,204,100.7,204,104z"/>
		<polygon style="opacity:0.5;fill:#FFFFFF;" points="228,110 218,142 216,142 216,90 211,62 206,90 204,90 204,64 192,14 180,64 
			180,90 178,90 173,62 168,90 168,142 166,142 156,110 146,142 146,218 128,218 126,220 126,308 238,196 238,142 		"/>
		<path style="fill:#3F4041;" d="M128,258h128v-4H128V258z M144,222v30h4v-30H144z M222,273.5l-6-12l-6,12l-6-12l-6,12l-6-12l-6,12
			l-6-12l-6,12l-6-12l-6,12l-6-12l-5.8,11.6l3.6,1.8l2.2-4.4l6,12l6-12l6,12l6-12l6,12l6-12l6,12l6-12l6,12l6-12l6,12l6-12l2.2,4.4
			l3.6-1.8l-5.8-11.6L222,273.5z M236,222v30h4v-30H236z M144,308h4v-48h-4V308z M236,308h4v-48h-4V308z M0,0v308h42v-4H4V4h300v278
			h-42v-60.8l-5.2-5.2H240v-74l-12-38.7l-10,32V90l-7-39.4l-5,28V64L192,5.4l-13.9,58.1L178,78.6l-5-28l-7,39l0,45.6l-10-32
			l-12,38.4V216h-16.8l-5.2,5.2V282H46v-34l-15-46.5l-15,46.2V290h-4.6l3,12H44v6h4v-10H17.6l-1-4H20v-45.7l11-33.8l11,33.8V286h84
			v-63.2l2.8-2.8H148v-77.7l8-25.6l8.5,27.3h5.5V90.2l3-16.8l3.3,18.6h5.7V64.2l10-41.7l10,41.7V92h5.7l3.3-18.6l3,16.8V144h5.5
			l8.5-27.3l8,25.6V220h19.2l2.8,2.8V286h50V0H0z M200,64h-16v4h16V64z M184,92h16v-4h-16V92z M194,196v24h16v-24c0-4.4-3.6-8-8-8
			S194,191.6,194,196z M206,196v20h-8v-20c0-2.2,1.8-4,4-4S206,193.8,206,196z M172,140h40v-4h-40V140z M172,184h40v-4h-40V184z
			 M150,228h84v-4h-84V228z M184,132h16v-28c0-4.4-3.6-8-8-8s-8,3.6-8,8V132z M188,104c0-2.2,1.8-4,4-4s4,1.8,4,4v24h-8V104z
			 M150,236h84v-4h-84V236z M174,196v24h16v-24c0-4.4-3.6-8-8-8S174,191.6,174,196z M186,196v20h-8v-20c0-2.2,1.8-4,4-4
			S186,193.8,186,196z M178,160c0,7.7,6.3,14,14,14s14-6.3,14-14s-6.3-14-14-14S178,152.3,178,160z M202,160c0,5.5-4.5,10-10,10
			s-10-4.5-10-10s4.5-10,10-10S202,154.5,202,160z M166,146v76h4v-76H166z M214,146v76h4v-76H214z M174,128v4h6v-28
			c0-3.4-2.1-6.4-5.3-7.5l-1.3,3.8c1.6,0.6,2.7,2.1,2.7,3.7v24H174z M210.7,100.3l-1.3-3.8c-3.2,1.1-5.3,4.2-5.3,7.5v28h6v-4h-2v-24
			C208,102.3,209.1,100.8,210.7,100.3z M128,308h4v-48h-4V308z M136,308h4v-48h-4V308z M150,172h14v-4h-14V172z M220,172h14v-4h-14
			V172z M190,154v8h6v-4h-2v-4H190z M164,146h-14v4h14V146z M234,146h-14v4h14V146z M150,166h4v-14h-4V166z M164,166v-14h-4v14H164z
			 M220,166h4v-14h-4V166z M234,166v-14h-4v14H234z M150,250h84v-4h-84V250z M150,184h14v-4h-14V184z M220,184h14v-4h-14V184z
			 M128,222v30h4v-30H128z M136,222v30h4v-30H136z M244,222v30h4v-30H244z M252,252h4v-30h-4V252z M244,308h4v-48h-4V308z M252,308
			h4v-48h-4V308z M40,248H22v4h18V248z M22,294h23.4l-0.4,1.5l3.9,1l1.6-6.5H22V294z M24,263v21h14v-21c0-3.9-3.1-7-7-7
			S24,259.1,24,263z M34,263v17h-6v-17c0-1.7,1.3-3,3-3S34,261.3,34,263z M50,272v8h4v-8H50z M58,272v8h4v-8H58z M66,272v8h4v-8H66z
			 M74,272v8h4v-8H74z M82,272v8h4v-8H82z M90,272v8h4v-8H90z M98,272v8h4v-8H98z M106,272v8h4v-8H106z M114,272v8h4v-8H114z
			 M266,272v8h4v-8H266z M274,272v8h4v-8H274z M282,272v8h4v-8H282z M290,272v8h4v-8H290z M298,272v8h4v-8H298z M218,294
			c-2.6,0-4.8,1.7-5.7,4H198c0-3.3-2.7-6-6-6s-6,2.7-6,6h-14.3c-0.8-2.3-3.1-4-5.7-4c-3.3,0-6,2.7-6,6v8h4v-8c0-1.1,0.9-2,2-2
			s2,0.9,2,2v2h22v-4c0-1.1,0.9-2,2-2s2,0.9,2,2v4h22v-2c0-1.1,0.9-2,2-2s2,0.9,2,2v8h4v-8C224,296.7,221.3,294,218,294z"/>
	</g>
</g>
</svg>
