<?xml version="1.0" encoding="utf-8"?>
<!-- Generator: Adobe Illustrator 19.2.0, SVG Export Plug-In . SVG Version: 6.00 Build 0)  -->
<svg version="1.1" id="MONTREAL_OFFICE" xmlns="http://www.w3.org/2000/svg" xmlns:xlink="http://www.w3.org/1999/xlink" x="0px"
	 y="0px" viewBox="0 0 308 308" style="enable-background:new 0 0 308 308;" xml:space="preserve">
<g>
	<g>
		<rect style="fill:#EBFCFF;" width="308" height="308"/>
		<rect y="260" style="fill:#A6D7EA;" width="308" height="48"/>
		<g>
			<rect x="4" y="292" style="opacity:0.2;fill:#FFFFFF;" width="300" height="4"/>
			<rect x="4" y="284" style="opacity:0.3;fill:#FFFFFF;" width="300" height="4"/>
			<rect x="4" y="276" style="opacity:0.4;fill:#FFFFFF;" width="300" height="4"/>
			<rect x="4" y="268" style="opacity:0.5;fill:#FFFFFF;" width="300" height="4"/>
			<rect x="4" y="260" style="opacity:0.6;fill:#FFFFFF;" width="300" height="4"/>
		</g>
		<path style="opacity:0.3;fill:#FFFFFF;" d="M202,304l44-44H0c0,0,0,17.9,0,44H202z"/>
		<path style="opacity:0.5;fill:#A6D7EA;" d="M44,100H20c0-7.7-6.3-14-14-14c-0.7,0-1.3,0.1-2,0.2V100v12h40c3.3,0,6-2.7,6-6
			S47.3,100,44,100z M138,36h-4c0-6.6-5.4-12-12-12c-2.6,0-5,0.8-7,2.2c-2.4-7.1-9.1-12.2-17-12.2c-7.1,0-13.2,4.1-16.1,10
			C75.3,24.1,70,29.4,70,36H48c-3.3,0-6,2.7-6,6s2.7,6,6,6h90c3.3,0,6-2.7,6-6S141.3,36,138,36z M300.2,28.2
			c-1.7-1.4-3.8-2.2-6.2-2.2c-5.5,0-10,4.5-10,10h-15c-2.8,0-5,2.2-5,5c0,2.8,2.2,5,5,5h39V20.2C304,21,300.9,24.2,300.2,28.2z"/>
	</g>
	<g>
		<polygon style="fill:#FFF1E6;" points="138,88 76,88 76,108 64,108 64,128 40,128 40,260 138,260 		"/>
		<path style="fill:#FFE5CC;" d="M48,150h12v-14H48V150z M48,168h12v-14H48V168z M48,186h12v-14H48V186z M48,204h12v-14H48V204z
			 M48,220h12v-12H48V220z M72,136v14h12v-14H72z M72,168h12v-14H72V168z M72,186h12v-14H72V186z M72,204h12v-14H72V204z M72,220h12
			v-12H72V220z"/>
		<path style="fill:#CCAB87;" d="M108,204h8v-8h-8V204z M72,150h12v-14H72V150z M76,140h4v6h-4V140z M96,204h8v-8h-8V204z M96,216h8
			v-8h-8V216z M48,168h12v-14H48V168z M52,158h4v6h-4V158z M96,228h8v-8h-8V228z M96,192h8v-8h-8V192z M108,228h8v-8h-8V228z
			 M96,144h8v-8h-8V144z M96,168h8v-8h-8V168z M96,180h8v-8h-8V180z M96,156h8v-8h-8V156z M88,220h4v-86h-4V220z M72,204h12v-14H72
			V204z M76,194h4v6h-4V194z M48,186h12v-14H48V186z M52,176h4v6h-4V176z M72,220h4v-8h4v8h4v-12H72V220z M64,220h4v-86h-4V220z
			 M48,150h12v-14H48V150z M52,140h4v6h-4V140z M72,168h12v-14H72V168z M76,158h4v6h-4V158z M128,60h-4v26h4V60z M100,60h-4v26h4V60
			z M48,220h4v-8h4v8h4v-12H48V220z M72,186h12v-14H72V186z M76,176h4v6h-4V176z M48,204h12v-14H48V204z M52,194h4v6h-4V194z
			 M120,144h8v-8h-8V144z M132,124h4v-8h-4V124z M96,116v8h8v-8H96z M120,116v8h8v-8H120z M108,116v8h8v-8H108z M84,116v8h8v-8H84z
			 M70,132h66v-4H70V132z M72,116v8h8v-8H72z M132,220h4v-86h-4V220z M132,104h4v-8h-4V104z M76,88v20H64v20H40v92h4v-88h24v-20h12
			V92h56v-4H76z M120,96v8h8v-8H120z M84,96v8h8v-8H84z M82,112h54v-4H82V112z M96,96v8h8v-8H96z M108,96v8h8v-8H108z M120,204h8v-8
			h-8V204z M108,144h8v-8h-8V144z M108,156h8v-8h-8V156z M120,252h8v-8h-8V252z M108,192h8v-8h-8V192z M108,168h8v-8h-8V168z
			 M120,240h8v-8h-8V240z M108,180h8v-8h-8V180z M120,168h8v-8h-8V168z M120,192h8v-8h-8V192z M120,180h8v-8h-8V180z M120,156h8v-8
			h-8V156z M120,216h8v-8h-8V216z M120,228h8v-8h-8V228z M108,216h8v-8h-8V216z"/>
		<path style="fill:#E66732;" d="M102,72l14-6l-14-6V72z M130,60v12l14-6L130,60z"/>
	</g>
	<g>
		<path style="fill:#FFFFFF;" d="M228,84V68l-26-46v-2h-6v-6h-16v6h-6v2l-26,46v16h2v176h8v-8h6v-22h62V84H228z"/>
		<path style="fill:#DFE0E0;" d="M142,226h-6v34h14V84h-8V226z M88,226H40v-72H22v-20H0v126h116v-24H88V226z M300,100V90h-10v-6h-10
			v-8l-12-14l-12,14v8h-10v6h-10v8h-2V84h-8v146h-32V104h2V94h14V82h10V70.1L194,26h-12l-26,44.1V82h10v12h14v10h2v126h-18v22h-6v8
			h56h12h14h64h4V100H300z"/>
		<path style="fill:#ADAEAF;" d="M238,154h22v-8h-22V154z M238,190h8h4h10v-8h-22V190z M238,142h22v-8h-22V142z M238,166h22v-8h-22
			V166z M238,178h22v-8h-22V178z M238,130h22v-8h-22V130z M264,178h10v-8h-10V178z M264,166h10v-8h-10V166z M264,142h10v-8h-10V142z
			 M274,122h-10v8h10V122z M264,154h10v-8h-10V154z M278,82h-20v4h20V82z M246,194h-8v8h8V194z M298,98h-60v4h60V98z M288,90h-40v4
			h40V90z M246,206h-8v8h8V206z M264,190h10v-8h-10V190z M246,218h-8v8h8V218z M250,226h10v-8h-10V226z M250,214h10v-8h-10V214z
			 M22,134H0v102h32v-10h8v-72H22V134z M250,202h10v-8h-10V202z M292,202h16v-8h-16V202z M278,190h10h4h16v-8h-30V190z M278,178h30
			v-8h-30V178z M278,166h30v-8h-30V166z M292,226h16v-8h-16V226z M292,214h16v-8h-16V214z M238,118h70v-4h-70V118z M238,106v4h70v-4
			H238z M286,238h22v-8h-22V238z M278,130h30v-8h-30V130z M278,154h30v-8h-30V154z M264,202h10v-8h-10V202z M278,142h30v-8h-30V142z
			 M288,194h-10v8h10V194z M264,226h10v-8h-10V226z M278,214h10v-8h-10V214z M278,226h10v-8h-10V226z M264,214h10v-8h-10V214z
			 M292,254h6v-6h-6V254z M182,244h6v-6h-6V244z M192,244h6v-6h-6V244z M172,244h6v-6h-6V244z M192,254h6v-6h-6V254z M182,254h6v-6
			h-6V254z M272,254h6v-6h-6V254z M272,244h6v-6h-6V244z M262,244h6v-6h-6V244z M172,254h6v-6h-6V254z M262,254h6v-6h-6V254z
			 M202,254h6v-6h-6V254z M164,248h-6v12h4v-8h6v-18h70v-4h-74V248z M252,254h6v-6h-6V254z M242,254h6v-6h-6V254z M242,244h6v-6h-6
			V244z M282,254h6v-6h-6V254z M252,244h6v-6h-6V244z M232,244h6v-6h-6V244z M222,254h6v-6h-6V254z M212,244h6v-6h-6V244z M212,254
			h6v-6h-6V254z M202,244h6v-6h-6V244z M232,254h6v-6h-6V254z M222,244h6v-6h-6V244z"/>
		<path style="fill:#666666;" d="M292,114h-46v76h-6v4h10v-76h38v76h14v-4h-10V114z M292,90v-8h-10v-6.7l-14-16.3l-14,16.3V82h-10v8
			h-4v4h8v-8h10v-9.3l10-11.7l10,11.7V86h10v8h10v6h4V90H292z M262,74v4h12v-4H262z M8,178h6v-6H8V178z M8,158h6v-6H8V158z M8,168h6
			v-6H8V168z M8,148h6v-6H8V148z M18,228h6v-6h-6V228z M8,218h6v-6H8V218z M8,228h6v-6H8V228z M18,218h6v-6h-6V218z M8,188h6v-6H8
			V188z M8,198h6v-6H8V198z M8,208h6v-6H8V208z M28,218h6v-6h-6V218z M28,188h6v-6h-6V188z M28,178h6v-6h-6V178z M22,134H6v4h12v20
			h20v-4H22V134z M28,198h6v-6h-6V198z M28,168h6v-6h-6V168z M28,208h6v-6h-6V208z M18,188h6v-6h-6V188z M18,198h6v-6h-6V198z
			 M18,168h6v-6h-6V168z M18,208h6v-6h-6V208z M18,178h6v-6h-6V178z"/>
		<path style="fill:#A6D7EA;" d="M164,120h4v-4h-4V120z M164,114h4v-4h-4V114z M170,222h4v-4h-4V222z M170,228h4v-4h-4V228z
			 M164,126h4v-4h-4V126z M164,132h4v-4h-4V132z M164,138h4v-4h-4V138z M170,192h4v-4h-4V192z M170,186h4v-4h-4V186z M170,198h4v-4
			h-4V198z M170,210h4v-4h-4V210z M170,204h4v-4h-4V204z M170,216h4v-4h-4V216z M164,150h4v-4h-4V150z M164,198h4v-4h-4V198z
			 M164,144h4v-4h-4V144z M164,192h4v-4h-4V192z M164,186h4v-4h-4V186z M164,210h4v-4h-4V210z M164,216h4v-4h-4V216z M164,204h4v-4
			h-4V204z M164,156h4v-4h-4V156z M164,162h4v-4h-4V162z M164,222h4v-4h-4V222z M164,168h4v-4h-4V168z M164,180h4v-4h-4V180z
			 M164,174h4v-4h-4V174z M170,180h4v-4h-4V180z M176,216h4v-4h-4V216z M176,198h4v-4h-4V198z M176,186h4v-4h-4V186z M176,204h4v-4
			h-4V204z M176,180h4v-4h-4V180z M176,210h4v-4h-4V210z M176,192h4v-4h-4V192z M176,174h4v-4h-4V174z M170,174h4v-4h-4V174z
			 M176,144h4v-4h-4V144z M176,156h4v-4h-4V156z M176,168h4v-4h-4V168z M176,162h4v-4h-4V162z M176,150h4v-4h-4V150z M170,138h4v-4
			h-4V138z M170,144h4v-4h-4V144z M176,222h4v-4h-4V222z M170,150h4v-4h-4V150z M170,168h4v-4h-4V168z M170,162h4v-4h-4V162z
			 M170,156h4v-4h-4V156z M164,108h10V98h-10V108z M176,228h4v-4h-4V228z M170,114h4v-4h-4V114z M170,132h4v-4h-4V132z M170,120h4
			v-4h-4V120z M170,126h4v-4h-4V126z M152,204h4v-4h-4V204z M152,162h4v-4h-4V162z M152,156h4v-4h-4V156z M152,150h4v-4h-4V150z
			 M152,174h4v-4h-4V174z M152,144h4v-4h-4V144z M152,168h4v-4h-4V168z M152,132h4v-4h-4V132z M152,138h4v-4h-4V138z M152,108h4v-4
			h-4V108z M152,120h4v-4h-4V120z M152,114h4v-4h-4V114z M152,102h4v-4h-4V102z M152,126h4v-4h-4V126z M152,180h4v-4h-4V180z
			 M152,246h4v-4h-4V246z M152,228h4v-4h-4V228z M152,234h4v-4h-4V234z M152,240h4v-4h-4V240z M152,252h4v-4h-4V252z M152,258h4v-4
			h-4V258z M152,186h4v-4h-4V186z M152,222h4v-4h-4V222z M176,138h4v-4h-4V138z M152,192h4v-4h-4V192z M152,198h4v-4h-4V198z
			 M152,216h4v-4h-4V216z M152,210h4v-4h-4V210z M158,150h4v-4h-4V150z M158,144h4v-4h-4V144z M158,138h4v-4h-4V138z M158,132h4v-4
			h-4V132z M158,156h4v-4h-4V156z M158,168h4v-4h-4V168z M158,162h4v-4h-4V162z M158,126h4v-4h-4V126z M158,108h4v-4h-4V108z
			 M164,228h4v-4h-4V228z M158,102h4v-4h-4V102z M158,114h4v-4h-4V114z M158,120h4v-4h-4V120z M152,96h10V86h-10V96z M158,228h4v-4
			h-4V228z M158,222h4v-4h-4V222z M158,234h4v-4h-4V234z M158,174h4v-4h-4V174z M158,240h4v-4h-4V240z M158,216h4v-4h-4V216z
			 M158,246h4v-4h-4V246z M158,186h4v-4h-4V186z M158,210h4v-4h-4V210z M158,180h4v-4h-4V180z M158,192h4v-4h-4V192z M158,204h4v-4
			h-4V204z M158,198h4v-4h-4V198z M214,204h4v-4h-4V204z M214,180h4v-4h-4V180z M214,174h4v-4h-4V174z M214,186h4v-4h-4V186z
			 M214,168h4v-4h-4V168z M214,198h4v-4h-4V198z M214,192h4v-4h-4V192z M214,156h4v-4h-4V156z M214,138h4v-4h-4V138z M214,132h4v-4
			h-4V132z M214,144h4v-4h-4V144z M214,150h4v-4h-4V150z M214,162h4v-4h-4V162z M214,210h4v-4h-4V210z M208,144h4v-4h-4V144z
			 M176,132h4v-4h-4V132z M208,138h4v-4h-4V138z M208,150h4v-4h-4V150z M208,162h4v-4h-4V162z M214,216h4v-4h-4V216z M208,156h4v-4
			h-4V156z M208,132h4v-4h-4V132z M202,108h10V98h-10V108z M214,228h4v-4h-4V228z M214,222h4v-4h-4V222z M208,120h4v-4h-4V120z
			 M208,114h4v-4h-4V114z M208,126h4v-4h-4V126z M214,126h4v-4h-4V126z M220,150h4v-4h-4V150z M220,132h4v-4h-4V132z M220,138h4v-4
			h-4V138z M220,144h4v-4h-4V144z M220,156h4v-4h-4V156z M220,162h4v-4h-4V162z M220,126h4v-4h-4V126z M220,102h4v-4h-4V102z
			 M214,120h4v-4h-4V120z M220,168h4v-4h-4V168z M220,108h4v-4h-4V108z M220,120h4v-4h-4V120z M220,114h4v-4h-4V114z M214,86v10h10
			V86H214z M220,216h4v-4h-4V216z M214,102h4v-4h-4V102z M220,222h4v-4h-4V222z M220,228h4v-4h-4V228z M214,114h4v-4h-4V114z
			 M214,108h4v-4h-4V108z M220,174h4v-4h-4V174z M220,210h4v-4h-4V210z M220,186h4v-4h-4V186z M220,180h4v-4h-4V180z M220,192h4v-4
			h-4V192z M220,198h4v-4h-4V198z M220,204h4v-4h-4V204z M208,168h4v-4h-4V168z M196,174h4v-4h-4V174z M208,174h4v-4h-4V174z
			 M196,156h4v-4h-4V156z M196,150h4v-4h-4V150z M196,162h4v-4h-4V162z M196,168h4v-4h-4V168z M196,138h4v-4h-4V138z M196,114h4v-4
			h-4V114z M202,228h4v-4h-4V228z M202,222h4v-4h-4V222z M196,126h4v-4h-4V126z M196,132h4v-4h-4V132z M202,216h4v-4h-4V216z
			 M196,120h4v-4h-4V120z M176,114h4v-4h-4V114z M196,228h4v-4h-4V228z M176,126h4v-4h-4V126z M196,222h4v-4h-4V222z M196,180h4v-4
			h-4V180z M176,120h4v-4h-4V120z M196,192h4v-4h-4V192z M196,216h4v-4h-4V216z M196,186h4v-4h-4V186z M196,198h4v-4h-4V198z
			 M196,204h4v-4h-4V204z M196,210h4v-4h-4V210z M196,144h4v-4h-4V144z M208,228h4v-4h-4V228z M208,222h4v-4h-4V222z M208,216h4v-4
			h-4V216z M202,114h4v-4h-4V114z M202,132h4v-4h-4V132z M202,126h4v-4h-4V126z M202,210h4v-4h-4V210z M208,192h4v-4h-4V192z
			 M208,186h4v-4h-4V186z M208,180h4v-4h-4V180z M208,204h4v-4h-4V204z M208,210h4v-4h-4V210z M208,198h4v-4h-4V198z M202,120h4v-4
			h-4V120z M202,192h4v-4h-4V192z M202,186h4v-4h-4V186z M202,180h4v-4h-4V180z M202,204h4v-4h-4V204z M202,174h4v-4h-4V174z
			 M202,198h4v-4h-4V198z M202,144h4v-4h-4V144z M202,138h4v-4h-4V138z M202,168h4v-4h-4V168z M202,150h4v-4h-4V150z M202,162h4v-4
			h-4V162z M202,156h4v-4h-4V156z"/>
		<path style="fill:#3F4041;" d="M42,256h6v-6h-6V256z M58,230h-6v6h6V230z M52,256h6v-6h-6V256z M52,246h6v-6h-6V246z M62,256h6v-6
			h-6V256z M62,246h6v-6h-6V246z M68,230h-6v6h6V230z M28,240h-6v6h6V240z M18,240h-6v6h6V240z M22,256h6v-6h-6V256z M12,256h6v-6
			h-6V256z M38,240h-6v6h6V240z M42,246h6v-6h-6V246z M32,256h6v-6h-6V256z M72,246h6v-6h-6V246z M48,230h-6v6h6V230z M78,230h-6v6
			h6V230z M102,256h6v-6h-6V256z M92,256h6v-6h-6V256z M108,240h-6v6h6V240z M98,240h-6v6h6V240z M88,240h-6v6h6V240z M72,256h6v-6
			h-6V256z M82,256h6v-6h-6V256z M220,78v-7.9l-21.6-36.7l-3.4,2L216,71.2V78H220z M0,0v236h32v-10h56v10h24v24h24v-34h6V84h8V70.5
			l26-46V22h6v-6h12v6h6v2.5l26,46V84h8v142h6v8h42v10h20v-4h-16v-10h-42v-8h-6V80h-8V69.5l-26-46V18h-6v-6h-20v6h-6v5.5l-26,46V80
			h-8v142h-6v34h-16v-24H92v-10H28v10H4V4h300v300H4v-66H0v70h308V0H0z M190,26v66h4V26H190z M226,86v142h4V86H226z M181,35.5
			l-3.4-2L156,70.1V78h4v-6.8L181,35.5z M146,86v174h4V86H146z M190,228h4V108h6V96h12V84h12v-4h-16v12h-12v12h-6V228z M152,84h12
			v12h12v12h6v120h4V104h-6V92h-12V80h-16V84z M186,26h-4v66h4V26z"/>
	</g>
</g>
</svg>
