<?xml version="1.0" encoding="utf-8"?>
<!-- Generator: Adobe Illustrator 19.2.0, SVG Export Plug-In . SVG Version: 6.00 Build 0)  -->
<svg version="1.1" id="Layer_1" xmlns="http://www.w3.org/2000/svg" xmlns:xlink="http://www.w3.org/1999/xlink" x="0px" y="0px"
	 viewBox="0 0 180 180" style="enable-background:new 0 0 180 180;" xml:space="preserve">
<g>
	<path style="fill:#FFFFFF;" d="M163,72.6h-27.5c-6.6-13.1-18.8-22.8-33-26.4l-6.1-31.6c-0.3-1.8-1.8-3.1-3.6-3.2
		c-1.8-0.1-3.5,1-4.1,2.7L77.2,46.2c-14,3.6-26.2,13.4-32.7,26.4H29c-1.1,0-2.1,0.4-2.8,1.2l-12,12c-1.1,1.1-1.5,2.9-0.9,4.4
		c0.6,1.5,2.1,2.5,3.7,2.5h22.1c-0.1,1-0.1,2-0.1,3c0,28.1,22.9,51,51,51c3.8,0,7.6-0.4,11.4-1.3l3.9,19.9c0.4,2,2.1,3.4,3.9,3.4h0
		c1.9,0,3.5-1.5,3.9-3.4l5.4-27.3c14.1-9.5,22.5-25.3,22.5-42.3c0-1,0-2-0.1-3h10.6c1.1,0,2.1-0.4,2.8-1.2l11.5-11.5
		c0.8-0.8,1.2-1.8,1.2-2.8v-0.5C167,74.4,165.2,72.6,163,72.6z"/>
	<g>
		<g>
			<defs>
				<path id="XMLID_248_" d="M90,142.6c-25.9,0-47-21.1-47-47s21.1-47,47-47s47,21.1,47,47S115.9,142.6,90,142.6z"/>
			</defs>
			<use xlink:href="#XMLID_248_"  style="overflow:visible;fill:#A6D7EA;"/>
			<clipPath id="XMLID_2_">
				<use xlink:href="#XMLID_248_"  style="overflow:visible;"/>
			</clipPath>
			<linearGradient id="XMLID_3_" gradientUnits="userSpaceOnUse" x1="90.0008" y1="142.6132" x2="90.0008" y2="48.6132">
				<stop  offset="0" style="stop-color:#133A4E"/>
				<stop  offset="1" style="stop-color:#A6D7EA"/>
			</linearGradient>
			<path id="XMLID_249_" style="opacity:0.4;clip-path:url(#XMLID_2_);fill:url(#XMLID_3_);" d="M90,142.6c-25.9,0-47-21.1-47-47
				s21.1-47,47-47s47,21.1,47,47S115.9,142.6,90,142.6z"/>
			<g style="opacity:0.3;clip-path:url(#XMLID_2_);">
				<rect x="41" y="35.6" style="fill:#A6D7EA;" width="98" height="8"/>
				<rect x="41" y="51.6" style="fill:#A6D7EA;" width="98" height="8"/>
				<rect x="41" y="67.6" style="fill:#A6D7EA;" width="98" height="8"/>
				<rect x="41" y="83.6" style="fill:#A6D7EA;" width="98" height="8"/>
				<rect x="41" y="99.6" style="fill:#A6D7EA;" width="98" height="8"/>
				<rect x="41" y="115.6" style="fill:#A6D7EA;" width="98" height="8"/>
				<rect x="41" y="131.6" style="fill:#A6D7EA;" width="98" height="8"/>
				<rect x="41" y="147.6" style="fill:#A6D7EA;" width="98" height="8"/>
			</g>
			<rect x="43" y="45.6" style="opacity:0.3;clip-path:url(#XMLID_2_);fill:#A6D7EA;" width="47" height="104"/>
		</g>
		<path style="fill:none;stroke:#133A4E;stroke-width:4;stroke-miterlimit:10;" d="M90,142.6c-25.9,0-47-21.1-47-47s21.1-47,47-47
			s47,21.1,47,47S115.9,142.6,90,142.6z"/>
		<g>
			<g>
				<polygon style="fill:#F5CE8C;" points="163,77.1 163,76.6 114.2,76.6 109.2,101.8 92.4,15.4 67.5,85.6 64.3,76.6 29,76.6 
					17,88.6 55.9,88.6 67.6,121.3 89,60.8 109.2,164.2 124.1,88.6 151.5,88.6 				"/>
				<g style="opacity:0.7;">
					<g>
						<linearGradient id="SVGID_1_" gradientUnits="userSpaceOnUse" x1="88.0008" y1="154.6132" x2="88.0008" y2="49.0753">
							<stop  offset="0" style="stop-color:#FF7B63"/>
							<stop  offset="1" style="stop-color:#FFC876"/>
						</linearGradient>
						<path style="fill:url(#SVGID_1_);" d="M109.2,154.6L109.2,154.6c-1.2,0-2.1-1.2-2.4-2.3L89,60.7l-19.2,53.7
							c-0.3,1-1.2,1.2-2.3,1.2c0,0,0,0,0,0c-1,0-1.9-0.1-2.3-1.1l-9.5-25.9h-32c-1.3,0-2.4-1.2-2.4-2.5c0-1.3,1.1-2.5,2.4-2.5h33.7
							c1,0,1.9,0.5,2.3,1.5l7.8,21.6l19.9-56c0.4-1,1.4-1.7,2.4-1.6c1.1,0.1,2,0.9,2.2,1.9l17.1,87.9l10.6-53.5
							c0.2-1.1,1.2-1.8,2.4-1.8h30.1c1.3,0,2.4,1.2,2.4,2.5c0,1.3-1.1,2.5-2.4,2.5h-28.1l-12.6,63.9
							C111.3,153.6,110.3,154.6,109.2,154.6z"/>
					</g>
				</g>
				
					<polygon style="fill:none;stroke:#08364E;stroke-width:4;stroke-linecap:round;stroke-linejoin:round;stroke-miterlimit:10;" points="
					163,77.1 163,76.6 114.2,76.6 109.2,101.8 92.4,15.4 67.5,85.6 64.3,76.6 29,76.6 17,88.6 55.9,88.6 67.6,121.3 89,60.8 
					109.2,164.2 124.1,88.6 151.5,88.6 				"/>
			</g>
		</g>
	</g>
</g>
<rect style="fill:none;" width="180" height="180"/>
</svg>
