<?xml version="1.0" encoding="utf-8"?>
<!-- Generator: Adobe Illustrator 19.2.0, SVG Export Plug-In . SVG Version: 6.00 Build 0)  -->
<svg version="1.1" id="Layer_1" xmlns="http://www.w3.org/2000/svg" xmlns:xlink="http://www.w3.org/1999/xlink" x="0px" y="0px"
	 viewBox="0 0 180 180" style="enable-background:new 0 0 180 180;" xml:space="preserve">
<g>
	<g>
		<path style="fill:#FFFFFF;" d="M139,63.8l-31.5-14.1L93.5,18.3c-0.6-1.4-2.1-2.4-3.7-2.4s-3,0.9-3.7,2.4L72.1,49.8L40.7,63.8
			c-1.4,0.6-2.4,2.1-2.4,3.7s0.9,3,2.4,3.7l31.5,14.1l14.1,31.5c0.6,1.4,2.1,2.4,3.7,2.4s3-0.9,3.7-2.4l14.1-31.5L139,71.1
			c1.4-0.6,2.4-2.1,2.4-3.7S140.5,64.5,139,63.8z"/>
		<g>
			<g>
				
					<polygon style="fill:#133A4E;stroke:#133A4E;stroke-width:4;stroke-linecap:round;stroke-linejoin:round;stroke-miterlimit:10;" points="
					75.2,82.2 42.3,67.5 75.2,52.8 89.8,19.9 104.5,52.8 137.4,67.5 104.5,82.2 89.8,115 				"/>
			</g>
		</g>
		<g>
			<g>
				<g>
					<defs>
						<polygon id="XMLID_234_" points="76.7,80.7 47.2,67.5 76.7,54.3 89.8,24.9 103,54.3 132.5,67.5 103,80.7 89.8,110.1 						"/>
					</defs>
					<use xlink:href="#XMLID_234_"  style="overflow:visible;fill:#F5CE8C;"/>
					<clipPath id="XMLID_2_">
						<use xlink:href="#XMLID_234_"  style="overflow:visible;"/>
					</clipPath>
					
						<linearGradient id="SVGID_1_" gradientUnits="userSpaceOnUse" x1="60.8047" y1="-167" x2="60.8047" y2="-124" gradientTransform="matrix(-4.489700e-11 1 -1 -4.489700e-11 -34 -15)">
						<stop  offset="0" style="stop-color:#FF7B63"/>
						<stop  offset="1" style="stop-color:#FFC876"/>
					</linearGradient>
					<polygon style="opacity:0.7;clip-path:url(#XMLID_2_);fill:url(#SVGID_1_);" points="90,67.3 90,24.3 133,24.3 133,67.3 					
						"/>
					
						<linearGradient id="SVGID_2_" gradientUnits="userSpaceOnUse" x1="125.3047" y1="-145.5" x2="82.3047" y2="-145.5" gradientTransform="matrix(-4.489700e-11 1 -1 -4.489700e-11 -34 -15)">
						<stop  offset="0" style="stop-color:#FF7B63"/>
						<stop  offset="1" style="stop-color:#FFC876"/>
					</linearGradient>
					<polygon style="opacity:0.7;clip-path:url(#XMLID_2_);fill:url(#SVGID_2_);" points="90,110.3 90,67.3 133,67.3 133,110.3 
											"/>
					
						<linearGradient id="SVGID_3_" gradientUnits="userSpaceOnUse" x1="39.3047" y1="-102.5" x2="82.3047" y2="-102.5" gradientTransform="matrix(-4.489700e-11 1 -1 -4.489700e-11 -34 -15)">
						<stop  offset="0" style="stop-color:#FF7B63"/>
						<stop  offset="1" style="stop-color:#FFC876"/>
					</linearGradient>
					<polygon style="opacity:0.7;clip-path:url(#XMLID_2_);fill:url(#SVGID_3_);" points="47,67.3 47,24.3 90,24.3 90,67.3 					"/>
					
						<linearGradient id="SVGID_4_" gradientUnits="userSpaceOnUse" x1="147.8047" y1="-81" x2="147.8047" y2="-124" gradientTransform="matrix(4.489700e-11 1 -1 4.489700e-11 -34 -59)">
						<stop  offset="0" style="stop-color:#FF7B63"/>
						<stop  offset="1" style="stop-color:#FFC876"/>
					</linearGradient>
					<polygon style="opacity:0.7;clip-path:url(#XMLID_2_);fill:url(#SVGID_4_);" points="47,110.3 47,67.3 90,67.3 90,110.3 					
						"/>
				</g>
			</g>
		</g>
	</g>
	<g>
		<path style="fill:#FFFFFF;" d="M75.5,128.9l-18-8l-8.1-18c-0.6-1.3-1.9-2.2-3.4-2.2s-2.8,0.9-3.4,2.2l-8.1,18l-18,8
			c-1.4,0.6-2.2,1.9-2.2,3.4c0,1.5,0.9,2.8,2.2,3.4l18,8l8.1,18c0.6,1.3,1.9,2.2,3.4,2.2s2.8-0.9,3.4-2.2l8.1-18l18-8
			c1.4-0.6,2.2-1.9,2.2-3.4C77.8,130.9,76.9,129.5,75.5,128.9z"/>
		<g>
			<g>
				<defs>
					<polygon id="XMLID_233_" points="37.4,141 18,132.3 37.4,123.7 46,104.4 54.6,123.7 74,132.3 54.6,141 46,160.3 					"/>
				</defs>
				<use xlink:href="#XMLID_233_"  style="overflow:visible;fill:#A6D7EA;"/>
				<clipPath id="XMLID_3_">
					<use xlink:href="#XMLID_233_"  style="overflow:visible;"/>
				</clipPath>
				<linearGradient id="SVGID_5_" gradientUnits="userSpaceOnUse" x1="74" y1="118.3047" x2="46" y2="118.3047">
					<stop  offset="0" style="stop-color:#133A4E"/>
					<stop  offset="1" style="stop-color:#A6D7EA"/>
				</linearGradient>
				<rect x="46" y="104.3" style="opacity:0.4;clip-path:url(#XMLID_3_);fill:url(#SVGID_5_);" width="28" height="28"/>
				<linearGradient id="SVGID_6_" gradientUnits="userSpaceOnUse" x1="60" y1="159.3047" x2="60" y2="132.3047">
					<stop  offset="0" style="stop-color:#133A4E"/>
					<stop  offset="1" style="stop-color:#A6D7EA"/>
				</linearGradient>
				<rect x="46" y="132.3" style="opacity:0.4;clip-path:url(#XMLID_3_);fill:url(#SVGID_6_);" width="28" height="27"/>
				<linearGradient id="SVGID_7_" gradientUnits="userSpaceOnUse" x1="18" y1="143.8047" x2="46" y2="143.8047">
					<stop  offset="0" style="stop-color:#133A4E"/>
					<stop  offset="1" style="stop-color:#A6D7EA"/>
				</linearGradient>
				<rect x="18" y="132.3" style="opacity:0.4;clip-path:url(#XMLID_3_);fill:url(#SVGID_7_);" width="28" height="23"/>
				<linearGradient id="SVGID_8_" gradientUnits="userSpaceOnUse" x1="34.5" y1="104.3047" x2="34.5" y2="132.3047">
					<stop  offset="0" style="stop-color:#133A4E"/>
					<stop  offset="1" style="stop-color:#A6D7EA"/>
				</linearGradient>
				<rect x="23" y="104.3" style="opacity:0.4;clip-path:url(#XMLID_3_);fill:url(#SVGID_8_);" width="23" height="28"/>
			</g>
			
				<polygon id="XMLID_232_" style="fill:none;stroke:#133A4E;stroke-width:3.5;stroke-linecap:round;stroke-linejoin:round;stroke-miterlimit:10;" points="
				37.4,141 18,132.3 37.4,123.7 46,104.4 54.6,123.7 74,132.3 54.6,141 46,160.3 			"/>
		</g>
	</g>
	<g>
		<path style="fill:#FFFFFF;" d="M163.5,128.9l-18-8l-8.1-18c-0.6-1.3-1.9-2.2-3.4-2.2s-2.8,0.9-3.4,2.2l-8.1,18l-18,8
			c-1.4,0.6-2.2,1.9-2.2,3.4c0,1.5,0.9,2.8,2.2,3.4l18,8l8.1,18c0.6,1.3,1.9,2.2,3.4,2.2s2.8-0.9,3.4-2.2l8.1-18l18-8
			c1.4-0.6,2.2-1.9,2.2-3.4C165.8,130.9,164.9,129.5,163.5,128.9z"/>
		<g>
			<g>
				<defs>
					<polygon id="XMLID_231_" points="125.4,141 106,132.3 125.4,123.7 134,104.4 142.6,123.7 162,132.3 142.6,141 134,160.3 					
						"/>
				</defs>
				<use xlink:href="#XMLID_231_"  style="overflow:visible;fill:#A6D7EA;"/>
				<clipPath id="XMLID_4_">
					<use xlink:href="#XMLID_231_"  style="overflow:visible;"/>
				</clipPath>
				<linearGradient id="SVGID_9_" gradientUnits="userSpaceOnUse" x1="162" y1="118.3047" x2="134" y2="118.3047">
					<stop  offset="0" style="stop-color:#133A4E"/>
					<stop  offset="1" style="stop-color:#A6D7EA"/>
				</linearGradient>
				<rect x="134" y="104.3" style="opacity:0.4;clip-path:url(#XMLID_4_);fill:url(#SVGID_9_);" width="28" height="28"/>
				<linearGradient id="SVGID_10_" gradientUnits="userSpaceOnUse" x1="148" y1="159.3047" x2="148" y2="132.3047">
					<stop  offset="0" style="stop-color:#133A4E"/>
					<stop  offset="1" style="stop-color:#A6D7EA"/>
				</linearGradient>
				<rect x="134" y="132.3" style="opacity:0.4;clip-path:url(#XMLID_4_);fill:url(#SVGID_10_);" width="28" height="27"/>
				<linearGradient id="SVGID_11_" gradientUnits="userSpaceOnUse" x1="106" y1="143.8047" x2="134" y2="143.8047">
					<stop  offset="0" style="stop-color:#133A4E"/>
					<stop  offset="1" style="stop-color:#A6D7EA"/>
				</linearGradient>
				<rect x="106" y="132.3" style="opacity:0.4;clip-path:url(#XMLID_4_);fill:url(#SVGID_11_);" width="28" height="23"/>
				<linearGradient id="SVGID_12_" gradientUnits="userSpaceOnUse" x1="122.5" y1="104.3047" x2="122.5" y2="132.3047">
					<stop  offset="0" style="stop-color:#133A4E"/>
					<stop  offset="1" style="stop-color:#A6D7EA"/>
				</linearGradient>
				<rect x="111" y="104.3" style="opacity:0.4;clip-path:url(#XMLID_4_);fill:url(#SVGID_12_);" width="23" height="28"/>
			</g>
			
				<polygon id="XMLID_230_" style="fill:none;stroke:#133A4E;stroke-width:3.5;stroke-linecap:round;stroke-linejoin:round;stroke-miterlimit:10;" points="
				125.4,141 106,132.3 125.4,123.7 134,104.4 142.6,123.7 162,132.3 142.6,141 134,160.3 			"/>
		</g>
	</g>
</g>
<rect y="0" style="fill:none;" width="180" height="180"/>
</svg>
