<?xml version="1.0" encoding="utf-8"?>
<!-- Generator: Adobe Illustrator 19.2.0, SVG Export Plug-In . SVG Version: 6.00 Build 0)  -->
<svg version="1.1" id="Layer_1" xmlns="http://www.w3.org/2000/svg" xmlns:xlink="http://www.w3.org/1999/xlink" x="0px" y="0px"
	 viewBox="0 0 180 180" style="enable-background:new 0 0 180 180;" xml:space="preserve">
<g>
	<path style="fill:#FFFFFF;" d="M123.1,36.8L93.6,22.9c-2.3-1.1-4.9-1.1-7.2,0L56.9,36.8c-3,1.4-4.9,4.4-4.9,7.7v35.3
		c0,3.3,1.9,6.3,4.9,7.7l3.8,1.8c0.2,0.1,0.3,0.3,0.3,0.5v2.4c0,3.8,2.5,7.4,6,8.4c0.6,0.4,1.3,0.5,2,0.5h1v1.1c0,0.2,0,0.4,0,0.4
		l-4.4,7.5c-0.8,1.3-0.7,3,0.1,4.3l4.3,6.2c0.1,0.2,0.1,0.4,0,0.6l-4.3,6.3c-0.9,1.3-0.9,3-0.1,4.3l4.4,7.5c0,0.1,0,0.2,0,0.4v1.6
		c0,2.7,1.4,5.3,3.8,7l11.6,8.1c1.4,1,3.1,1.6,4.9,1.6c1.8,0,3.5-0.5,4.9-1.6l11.3-8.1c2.2-1.5,3.5-4.1,3.5-6.9v-40.2
		c0.6,0,1.2-0.1,1.7-0.4c4.2-0.8,7.3-4.3,7.3-8.6v-2.4c0-0.2,0.1-0.4,0.3-0.5l3.8-1.8c3-1.4,4.9-4.4,4.9-7.7V44.5
		C128,41.2,126.1,38.2,123.1,36.8z M90,57.1c-1.7,0-3-1.3-3-3s1.3-3,3-3s3,1.3,3,3S91.7,57.1,90,57.1z"/>
	<path style="fill:#F5CE8C;" d="M121.4,40.4L91.9,26.5c-1.2-0.6-2.6-0.6-3.8,0L58.6,40.4C57,41.1,56,42.7,56,44.5v35.3
		c0,1.7,1,3.3,2.6,4.1l3.8,1.8c1.6,0.7,2.6,2.3,2.6,4.1v2.4c0,2.5,2,4.5,4.5,4.5s4.5,2,4.5,4.5v1.1c0,0.8-0.2,1.6-0.6,2.3l-4.6,7.7
		l4.2,6.2c1,1.5,1,3.5,0,5.1l-4.3,6.3l4.7,7.6c0.4,0.7,0.7,1.5,0.7,2.3v1.6c0,1.5,0.7,2.8,1.9,3.7l11.5,8.1c1.6,1.1,3.6,1.1,5.2,0
		l11.5-8.1c1.2-0.8,1.9-2.2,1.9-3.7v-40.2c0-2.5,2-4.5,4.5-4.5s4.5-2,4.5-4.5v-2.4c0-1.7,1-3.3,2.6-4.1l3.8-1.8
		c1.6-0.7,2.6-2.3,2.6-4.1V44.5C124,42.7,123,41.1,121.4,40.4z M90,61.1c-3.9,0-7-3.1-7-7s3.1-7,7-7s7,3.1,7,7S93.9,61.1,90,61.1z"
		/>
	<linearGradient id="SVGID_1_" gradientUnits="userSpaceOnUse" x1="107" y1="153.9283" x2="107" y2="26.0717">
		<stop  offset="0" style="stop-color:#FF7B63"/>
		<stop  offset="1" style="stop-color:#FFC876"/>
	</linearGradient>
	<path style="opacity:0.7;fill:url(#SVGID_1_);" d="M121.4,40.4L91.9,26.5c-0.6-0.3-1.3-0.4-1.9-0.4v21c3.9,0,7,3.1,7,7s-3.1,7-7,7
		v92.9c0.9,0,1.8-0.3,2.6-0.8l11.5-8.1c1.2-0.8,1.9-2.2,1.9-3.7v-40.2c0-2.5,2-4.5,4.5-4.5s4.5-2,4.5-4.5v-2.4c0-1.7,1-3.3,2.6-4.1
		l3.8-1.8c1.6-0.7,2.6-2.3,2.6-4.1V44.5C124,42.7,123,41.1,121.4,40.4z"/>
	<path style="fill:none;stroke:#133A4E;stroke-width:4;stroke-linecap:round;stroke-linejoin:round;stroke-miterlimit:10;" d="
		M74,97.1v5.1c0,0.8-0.2,1.6-0.6,2.3l-4.6,7.7l4.2,6.2c1,1.5,1,3.5,0,5.1l-4.3,6.3l4.7,7.6c0.4,0.7,0.7,1.5,0.7,2.3v1.6
		c0,1.5,0.7,2.8,1.9,3.7l11.5,8.1c1.6,1.1,3.6,1.1,5.2,0l11.5-8.1c1.2-0.8,1.9-2.2,1.9-3.7V97.1"/>
	<linearGradient id="SVGID_2_" gradientUnits="userSpaceOnUse" x1="90" y1="102.0717" x2="90" y2="27.0717">
		<stop  offset="0" style="stop-color:#FF7B63"/>
		<stop  offset="1" style="stop-color:#FFC876"/>
	</linearGradient>
	<path style="opacity:0.5;fill:url(#SVGID_2_);" d="M122,41.4L92.8,27.7c-1.8-0.8-3.8-0.8-5.5,0L58,41.4v10.6h8v40h10v10h28v-10h10
		v-40h8V41.4z M112,89.1H68v-37h0.3L90,41.9l21.7,10.2h0.3V89.1z"/>
	
		<circle style="fill:none;stroke:#133A4E;stroke-width:4;stroke-linecap:round;stroke-linejoin:round;stroke-miterlimit:10;" cx="90" cy="54.1" r="7"/>
	<g>
		<path style="fill:#A6D7EA;" d="M121.4,40.4L91.9,26.5c-1.2-0.6-2.6-0.6-3.8,0L58.6,40.4C57,41.1,56,42.7,56,44.5v35.3
			c0,1.7,1,3.3,2.6,4.1l3.8,1.8c1.6,0.7,2.6,2.3,2.6,4.1v2.4c0,2.5,2,4.7,4,4.7v0.2h41v-0.2c3,0,5-2.3,5-4.7v-2.4
			c0-1.7,1-3.3,2.6-4.1l3.8-1.8c1.6-0.7,2.6-2.3,2.6-4.1V44.5C124,42.7,123,41.1,121.4,40.4z M114,76.3l-0.7,0.4
			c-4.3,2.1-7.2,5.8-8,10.4H74.7c-0.8-4.6-3.7-8.3-8-10.4L66,76.3V47.9l24-11.3l24,11.3V76.3z"/>
		<linearGradient id="SVGID_3_" gradientUnits="userSpaceOnUse" x1="90" y1="97.0717" x2="90" y2="26.0717">
			<stop  offset="0" style="stop-color:#133A4E"/>
			<stop  offset="1" style="stop-color:#A6D7EA"/>
		</linearGradient>
		<path style="opacity:0.22;fill:url(#SVGID_3_);" d="M121.4,40.4L91.9,26.5c-1.2-0.6-2.6-0.6-3.8,0L58.6,40.4
			C57,41.1,56,42.7,56,44.5v35.3c0,1.7,1,3.3,2.6,4.1l3.8,1.8c1.6,0.7,2.6,2.3,2.6,4.1v2.4c0,2.5,2,4.7,4,4.7v0.2h41v-0.2
			c3,0,5-2.3,5-4.7v-2.4c0-1.7,1-3.3,2.6-4.1l3.8-1.8c1.6-0.7,2.6-2.3,2.6-4.1V44.5C124,42.7,123,41.1,121.4,40.4z M114,76.3
			l-0.7,0.4c-4.3,2.1-7.2,5.8-8,10.4H74.7c-0.8-4.6-3.7-8.3-8-10.4L66,76.3V47.9l24-11.3l24,11.3V76.3z"/>
		<linearGradient id="SVGID_4_" gradientUnits="userSpaceOnUse" x1="107" y1="97.0717" x2="107" y2="26.0717">
			<stop  offset="0" style="stop-color:#133A4E"/>
			<stop  offset="1" style="stop-color:#A6D7EA"/>
		</linearGradient>
		<path style="opacity:0.22;fill:url(#SVGID_4_);" d="M114,47.9v28.4l-0.7,0.4c-4.3,2.1-7.2,5.8-8,10.4H90v10h20v-0.2
			c3,0,5-2.3,5-4.7v-2.4c0-1.7,1-3.3,2.6-4.1l3.8-1.8c1.6-0.7,2.6-2.3,2.6-4.1V44.5c0-1.7-1-3.3-2.6-4.1L91.9,26.5
			c-0.6-0.3-1.3-0.4-1.9-0.4v10.6L114,47.9z"/>
		<path style="fill:none;stroke:#133A4E;stroke-width:4;stroke-linecap:round;stroke-linejoin:round;stroke-miterlimit:10;" d="
			M121.4,40.4L91.9,26.5c-1.2-0.6-2.6-0.6-3.8,0L58.6,40.4C57,41.1,56,42.7,56,44.5v35.3c0,1.7,1,3.3,2.6,4.1l3.8,1.8
			c1.6,0.7,2.6,2.3,2.6,4.1v2.4c0,2.5,2,5,4,5h41c3,0,5-2.5,5-5v-2.4c0-1.7,1-3.3,2.6-4.1l3.8-1.8c1.6-0.7,2.6-2.3,2.6-4.1V44.5
			C124,42.7,123,41.1,121.4,40.4z M114,76.3l-0.7,0.4c-4.3,2.1-7.2,5.8-8,10.4H74.7c-0.8-4.6-3.7-8.3-8-10.4L66,76.3V47.9l24-11.3
			l24,11.3V76.3z"/>
	</g>
</g>
<rect style="fill:none;" width="180" height="180"/>
</svg>
