<?xml version="1.0" encoding="utf-8"?>
<!-- Generator: Adobe Illustrator 19.1.0, SVG Export Plug-In . SVG Version: 6.00 Build 0)  -->
<!DOCTYPE svg PUBLIC "-//W3C//DTD SVG 1.1//EN" "http://www.w3.org/Graphics/SVG/1.1/DTD/svg11.dtd">
<svg version="1.1" id="Layer_2" xmlns="http://www.w3.org/2000/svg" xmlns:xlink="http://www.w3.org/1999/xlink" x="0px" y="0px"
	 viewBox="0 0 161 131.2" enable-background="new 0 0 161 131.2" xml:space="preserve">
<path fill="none" stroke="#FFFFFF" stroke-width="2" stroke-linecap="round" d="M80,48.4c-0.3,0-0.5,0-0.8,0.1
	C78.5,47,77.4,45.8,76,45c-1.3-2.7-4-4.5-7.1-4.5c-2.8,0-5.2,1.4-6.6,3.6c-0.1-0.1-0.2-0.2-0.3-0.3v8.8h21.7c0-0.2,0-0.3,0-0.5
	C83.6,50.1,82,48.4,80,48.4z"/>
<g>
	<polyline fill="none" stroke="#FFFFFF" stroke-width="2" points="103.4,60 116.7,0.2 141.4,129.4 	"/>
</g>
<polyline fill="none" stroke="#29A9E1" stroke-width="2" points="61.6,29.2 61.6,124.6 29.1,122 29.1,29.2 "/>
<polygon fill="none" stroke="#29A9E1" stroke-width="2" stroke-linecap="round" points="62.5,116.1 28.1,116.1 28.1,122 62.5,124.6 
	"/>
<rect x="28.1" y="23.8" fill="none" stroke="#29A9E1" stroke-width="2" stroke-linecap="round" width="34.4" height="5.8"/>
<g>
	<line fill="none" stroke="#F69126" stroke-width="4" x1="32.6" y1="35.2" x2="35.3" y2="35.2"/>
	<line fill="none" stroke="#F69126" stroke-width="4" x1="38.3" y1="35.2" x2="40.9" y2="35.2"/>
	<line fill="none" stroke="#F69126" stroke-width="4" x1="43.9" y1="35.2" x2="46.6" y2="35.2"/>
	<line fill="none" stroke="#F69126" stroke-width="4" x1="49.6" y1="35.2" x2="52.2" y2="35.2"/>
	<line fill="none" stroke="#F69126" stroke-width="4" x1="55.2" y1="35.2" x2="57.9" y2="35.2"/>
</g>
<g>
	<line fill="none" stroke="#F69126" stroke-width="4" x1="32.6" y1="43.5" x2="35.3" y2="43.5"/>
	<line fill="none" stroke="#F69126" stroke-width="4" x1="38.3" y1="43.5" x2="40.9" y2="43.5"/>
	<line fill="none" stroke="#F69126" stroke-width="4" x1="43.9" y1="43.5" x2="46.6" y2="43.5"/>
	<line fill="none" stroke="#F69126" stroke-width="4" x1="49.6" y1="43.5" x2="52.2" y2="43.5"/>
	<line fill="none" stroke="#F69126" stroke-width="4" x1="55.2" y1="43.5" x2="57.9" y2="43.5"/>
</g>
<g>
	<line fill="none" stroke="#F69126" stroke-width="4" x1="32.6" y1="51.7" x2="35.3" y2="51.7"/>
	<line fill="none" stroke="#F69126" stroke-width="4" x1="38.3" y1="51.7" x2="40.9" y2="51.7"/>
	<line fill="none" stroke="#F69126" stroke-width="4" x1="43.9" y1="51.7" x2="46.6" y2="51.7"/>
	<line fill="none" stroke="#F69126" stroke-width="4" x1="49.6" y1="51.7" x2="52.2" y2="51.7"/>
	<line fill="none" stroke="#F69126" stroke-width="4" x1="55.2" y1="51.7" x2="57.9" y2="51.7"/>
</g>
<g>
	<line fill="none" stroke="#F69126" stroke-width="4" x1="32.6" y1="60" x2="35.3" y2="60"/>
	<line fill="none" stroke="#F69126" stroke-width="4" x1="38.3" y1="60" x2="40.9" y2="60"/>
	<line fill="none" stroke="#F69126" stroke-width="4" x1="43.9" y1="60" x2="46.6" y2="60"/>
	<line fill="none" stroke="#F69126" stroke-width="4" x1="49.6" y1="60" x2="52.2" y2="60"/>
	<line fill="none" stroke="#F69126" stroke-width="4" x1="55.2" y1="60" x2="57.9" y2="60"/>
</g>
<g>
	<line fill="none" stroke="#F69126" stroke-width="4" x1="32.6" y1="68.2" x2="35.3" y2="68.2"/>
	<line fill="none" stroke="#F69126" stroke-width="4" x1="38.3" y1="68.2" x2="40.9" y2="68.2"/>
	<line fill="none" stroke="#F69126" stroke-width="4" x1="43.9" y1="68.2" x2="46.6" y2="68.2"/>
	<line fill="none" stroke="#F69126" stroke-width="4" x1="49.6" y1="68.2" x2="52.2" y2="68.2"/>
	<line fill="none" stroke="#F69126" stroke-width="4" x1="55.2" y1="68.2" x2="57.9" y2="68.2"/>
</g>
<g>
	<line fill="none" stroke="#F69126" stroke-width="4" x1="32.6" y1="76.5" x2="35.3" y2="76.5"/>
	<line fill="none" stroke="#F69126" stroke-width="4" x1="38.3" y1="76.5" x2="40.9" y2="76.5"/>
	<line fill="none" stroke="#F69126" stroke-width="4" x1="43.9" y1="76.5" x2="46.6" y2="76.5"/>
	<line fill="none" stroke="#F69126" stroke-width="4" x1="49.6" y1="76.5" x2="52.2" y2="76.5"/>
	<line fill="none" stroke="#F69126" stroke-width="4" x1="55.2" y1="76.5" x2="57.9" y2="76.5"/>
</g>
<g>
	<line fill="none" stroke="#F69126" stroke-width="4" x1="32.6" y1="84.7" x2="35.3" y2="84.7"/>
	<line fill="none" stroke="#F69126" stroke-width="4" x1="38.3" y1="84.7" x2="40.9" y2="84.7"/>
	<line fill="none" stroke="#F69126" stroke-width="4" x1="43.9" y1="84.7" x2="46.6" y2="84.7"/>
	<line fill="none" stroke="#F69126" stroke-width="4" x1="49.6" y1="84.7" x2="52.2" y2="84.7"/>
	<line fill="none" stroke="#F69126" stroke-width="4" x1="55.2" y1="84.7" x2="57.9" y2="84.7"/>
</g>
<g>
	<line fill="none" stroke="#F69126" stroke-width="4" x1="32.6" y1="92.9" x2="35.3" y2="92.9"/>
	<line fill="none" stroke="#F69126" stroke-width="4" x1="38.3" y1="92.9" x2="40.9" y2="92.9"/>
	<line fill="none" stroke="#F69126" stroke-width="4" x1="43.9" y1="92.9" x2="46.6" y2="92.9"/>
	<line fill="none" stroke="#F69126" stroke-width="4" x1="49.6" y1="92.9" x2="52.2" y2="92.9"/>
	<line fill="none" stroke="#F69126" stroke-width="4" x1="55.2" y1="92.9" x2="57.9" y2="92.9"/>
</g>
<g>
	<line fill="none" stroke="#F69126" stroke-width="4" x1="32.6" y1="101.2" x2="35.3" y2="101.2"/>
	<line fill="none" stroke="#F69126" stroke-width="4" x1="38.3" y1="101.2" x2="40.9" y2="101.2"/>
	<line fill="none" stroke="#F69126" stroke-width="4" x1="43.9" y1="101.2" x2="46.6" y2="101.2"/>
	<line fill="none" stroke="#F69126" stroke-width="4" x1="49.6" y1="101.2" x2="52.2" y2="101.2"/>
	<line fill="none" stroke="#F69126" stroke-width="4" x1="55.2" y1="101.2" x2="57.9" y2="101.2"/>
</g>
<g>
	<line fill="none" stroke="#F69126" stroke-width="4" x1="32.6" y1="109.4" x2="35.3" y2="109.4"/>
	<line fill="none" stroke="#F69126" stroke-width="4" x1="38.3" y1="109.4" x2="40.9" y2="109.4"/>
	<line fill="none" stroke="#F69126" stroke-width="4" x1="43.9" y1="109.4" x2="46.6" y2="109.4"/>
	<line fill="none" stroke="#F69126" stroke-width="4" x1="49.6" y1="109.4" x2="52.2" y2="109.4"/>
	<line fill="none" stroke="#F69126" stroke-width="4" x1="55.2" y1="109.4" x2="57.9" y2="109.4"/>
</g>
<rect x="79.2" y="66.5" fill="none" stroke="#29A9E1" stroke-width="2" stroke-linecap="round" width="32.5" height="49.7"/>
<polygon fill="none" stroke="#29A9E1" stroke-width="2" stroke-linecap="round" points="112.7,116.2 78.3,116.2 78.3,124.6 
	112.7,127.6 "/>
<rect x="78.3" y="60.4" fill="none" stroke="#29A9E1" stroke-width="2" stroke-linecap="round" width="34.4" height="6.1"/>
<line fill="none" stroke="#F69126" stroke-width="2" x1="84.3" y1="73.4" x2="107" y2="73.4"/>
<line fill="none" stroke="#F69126" stroke-width="2" x1="84.3" y1="80.5" x2="107" y2="80.5"/>
<line fill="none" stroke="#F69126" stroke-width="2" x1="84.3" y1="87.5" x2="107" y2="87.5"/>
<line fill="none" stroke="#F69126" stroke-width="2" x1="84.3" y1="94.6" x2="107" y2="94.6"/>
<line fill="none" stroke="#F69126" stroke-width="2" x1="84.3" y1="101.7" x2="107" y2="101.7"/>
<line fill="none" stroke="#F69126" stroke-width="2" x1="84.3" y1="108.8" x2="107" y2="108.8"/>
<g>
	<line fill="none" stroke="#FFFFFF" stroke-width="2" x1="9.4" y1="40.5" x2="21.2" y2="40.5"/>
	<line fill="none" stroke="#FFFFFF" stroke-width="2" x1="4.8" y1="40.5" x2="0" y2="40.5"/>
</g>
<path fill="none" stroke="#FFFFFF" stroke-width="2" stroke-linecap="round" d="M94.3,14.7c0-0.2,0-0.3,0-0.5c0-2-1.6-3.7-3.7-3.7
	c-0.3,0-0.5,0-0.8,0.1c-0.7-1.5-1.8-2.7-3.2-3.5c-1.3-2.7-4-4.5-7.1-4.5c-2.8,0-5.2,1.4-6.6,3.6c-1.1-1.1-2.5-1.8-4.2-1.8
	c-2.1,0-4,1.1-5,2.9c-1.4-1.7-3.6-2.9-6.1-2.9c-2.9,0-5.5,1.6-6.9,4c-3.5,0.3-6.3,2.9-6.9,6.3H94.3z"/>
<line fill="none" stroke="#F69126" stroke-width="2" stroke-linecap="round" x1="160" y1="130.2" x2="12.3" y2="122"/>
</svg>
